<?xml version="1.0" encoding="UTF-8"?>
<svg xmlns="http://www.w3.org/2000/svg" xmlns:xlink="http://www.w3.org/1999/xlink" width="50px" height="50px" viewBox="0 0 50 50" version="1.1">
<defs>
<clipPath id="clip1">
  <path d="M 16 22 L 34 22 L 34 25 L 16 25 Z M 16 22 "/>
</clipPath>
<clipPath id="clip2">
  <path d="M 48.332031 24.953125 C 48.332031 37.292969 37.910156 47.300781 25.054688 47.300781 C 12.199219 47.300781 1.777344 37.292969 1.777344 24.953125 C 1.777344 12.609375 12.199219 2.605469 25.054688 2.605469 C 37.910156 2.605469 48.332031 12.609375 48.332031 24.953125 Z M 48.332031 24.953125 "/>
</clipPath>
<clipPath id="clip3">
  <path d="M 17 14 L 19 14 L 19 22 L 17 22 Z M 17 14 "/>
</clipPath>
<clipPath id="clip4">
  <path d="M 48.332031 24.953125 C 48.332031 37.292969 37.910156 47.300781 25.054688 47.300781 C 12.199219 47.300781 1.777344 37.292969 1.777344 24.953125 C 1.777344 12.609375 12.199219 2.605469 25.054688 2.605469 C 37.910156 2.605469 48.332031 12.609375 48.332031 24.953125 Z M 48.332031 24.953125 "/>
</clipPath>
<clipPath id="clip5">
  <path d="M 31 14 L 33 14 L 33 22 L 31 22 Z M 31 14 "/>
</clipPath>
<clipPath id="clip6">
  <path d="M 48.332031 24.953125 C 48.332031 37.292969 37.910156 47.300781 25.054688 47.300781 C 12.199219 47.300781 1.777344 37.292969 1.777344 24.953125 C 1.777344 12.609375 12.199219 2.605469 25.054688 2.605469 C 37.910156 2.605469 48.332031 12.609375 48.332031 24.953125 Z M 48.332031 24.953125 "/>
</clipPath>
<clipPath id="clip7">
  <path d="M 23 14 L 25 14 L 25 22 L 23 22 Z M 23 14 "/>
</clipPath>
<clipPath id="clip8">
  <path d="M 48.332031 24.953125 C 48.332031 37.292969 37.910156 47.300781 25.054688 47.300781 C 12.199219 47.300781 1.777344 37.292969 1.777344 24.953125 C 1.777344 12.609375 12.199219 2.605469 25.054688 2.605469 C 37.910156 2.605469 48.332031 12.609375 48.332031 24.953125 Z M 48.332031 24.953125 "/>
</clipPath>
<clipPath id="clip9">
  <path d="M 25 14 L 27 14 L 27 22 L 25 22 Z M 25 14 "/>
</clipPath>
<clipPath id="clip10">
  <path d="M 48.332031 24.953125 C 48.332031 37.292969 37.910156 47.300781 25.054688 47.300781 C 12.199219 47.300781 1.777344 37.292969 1.777344 24.953125 C 1.777344 12.609375 12.199219 2.605469 25.054688 2.605469 C 37.910156 2.605469 48.332031 12.609375 48.332031 24.953125 Z M 48.332031 24.953125 "/>
</clipPath>
<clipPath id="clip11">
  <path d="M 15 35 L 35 35 L 35 47 L 15 47 Z M 15 35 "/>
</clipPath>
<clipPath id="clip12">
  <path d="M 48.332031 24.953125 C 48.332031 37.292969 37.910156 47.300781 25.054688 47.300781 C 12.199219 47.300781 1.777344 37.292969 1.777344 24.953125 C 1.777344 12.609375 12.199219 2.605469 25.054688 2.605469 C 37.910156 2.605469 48.332031 12.609375 48.332031 24.953125 Z M 48.332031 24.953125 "/>
</clipPath>
<clipPath id="clip13">
  <path d="M 15 45 L 35 45 L 35 48 L 15 48 Z M 15 45 "/>
</clipPath>
<clipPath id="clip14">
  <path d="M 48.332031 24.953125 C 48.332031 37.292969 37.910156 47.300781 25.054688 47.300781 C 12.199219 47.300781 1.777344 37.292969 1.777344 24.953125 C 1.777344 12.609375 12.199219 2.605469 25.054688 2.605469 C 37.910156 2.605469 48.332031 12.609375 48.332031 24.953125 Z M 48.332031 24.953125 "/>
</clipPath>
<clipPath id="clip15">
  <path d="M 17 25 L 33 25 L 33 29 L 17 29 Z M 17 25 "/>
</clipPath>
<clipPath id="clip16">
  <path d="M 48.332031 24.953125 C 48.332031 37.292969 37.910156 47.300781 25.054688 47.300781 C 12.199219 47.300781 1.777344 37.292969 1.777344 24.953125 C 1.777344 12.609375 12.199219 2.605469 25.054688 2.605469 C 37.910156 2.605469 48.332031 12.609375 48.332031 24.953125 Z M 48.332031 24.953125 "/>
</clipPath>
<clipPath id="clip17">
  <path d="M 23 6 L 27 6 L 27 10 L 23 10 Z M 23 6 "/>
</clipPath>
<clipPath id="clip18">
  <path d="M 48.332031 24.953125 C 48.332031 37.292969 37.910156 47.300781 25.054688 47.300781 C 12.199219 47.300781 1.777344 37.292969 1.777344 24.953125 C 1.777344 12.609375 12.199219 2.605469 25.054688 2.605469 C 37.910156 2.605469 48.332031 12.609375 48.332031 24.953125 Z M 48.332031 24.953125 "/>
</clipPath>
<clipPath id="clip19">
  <path d="M 13 29 L 37 29 L 37 35 L 13 35 Z M 13 29 "/>
</clipPath>
<clipPath id="clip20">
  <path d="M 48.332031 24.953125 C 48.332031 37.292969 37.910156 47.300781 25.054688 47.300781 C 12.199219 47.300781 1.777344 37.292969 1.777344 24.953125 C 1.777344 12.609375 12.199219 2.605469 25.054688 2.605469 C 37.910156 2.605469 48.332031 12.609375 48.332031 24.953125 Z M 48.332031 24.953125 "/>
</clipPath>
<clipPath id="clip21">
  <path d="M 17 10 L 33 10 L 33 14 L 17 14 Z M 17 10 "/>
</clipPath>
<clipPath id="clip22">
  <path d="M 48.332031 24.953125 C 48.332031 37.292969 37.910156 47.300781 25.054688 47.300781 C 12.199219 47.300781 1.777344 37.292969 1.777344 24.953125 C 1.777344 12.609375 12.199219 2.605469 25.054688 2.605469 C 37.910156 2.605469 48.332031 12.609375 48.332031 24.953125 Z M 48.332031 24.953125 "/>
</clipPath>
<clipPath id="clip23">
  <path d="M 4 20 L 17 20 L 17 29 L 4 29 Z M 4 20 "/>
</clipPath>
<clipPath id="clip24">
  <path d="M 48.332031 24.953125 C 48.332031 37.292969 37.910156 47.300781 25.054688 47.300781 C 12.199219 47.300781 1.777344 37.292969 1.777344 24.953125 C 1.777344 12.609375 12.199219 2.605469 25.054688 2.605469 C 37.910156 2.605469 48.332031 12.609375 48.332031 24.953125 Z M 48.332031 24.953125 "/>
</clipPath>
<clipPath id="clip25">
  <path d="M 4 8 L 17 8 L 17 16 L 4 16 Z M 4 8 "/>
</clipPath>
<clipPath id="clip26">
  <path d="M 48.332031 24.953125 C 48.332031 37.292969 37.910156 47.300781 25.054688 47.300781 C 12.199219 47.300781 1.777344 37.292969 1.777344 24.953125 C 1.777344 12.609375 12.199219 2.605469 25.054688 2.605469 C 37.910156 2.605469 48.332031 12.609375 48.332031 24.953125 Z M 48.332031 24.953125 "/>
</clipPath>
<clipPath id="clip27">
  <path d="M 33 20 L 46 20 L 46 29 L 33 29 Z M 33 20 "/>
</clipPath>
<clipPath id="clip28">
  <path d="M 48.332031 24.953125 C 48.332031 37.292969 37.910156 47.300781 25.054688 47.300781 C 12.199219 47.300781 1.777344 37.292969 1.777344 24.953125 C 1.777344 12.609375 12.199219 2.605469 25.054688 2.605469 C 37.910156 2.605469 48.332031 12.609375 48.332031 24.953125 Z M 48.332031 24.953125 "/>
</clipPath>
<clipPath id="clip29">
  <path d="M 33 8 L 46 8 L 46 16 L 33 16 Z M 33 8 "/>
</clipPath>
<clipPath id="clip30">
  <path d="M 48.332031 24.953125 C 48.332031 37.292969 37.910156 47.300781 25.054688 47.300781 C 12.199219 47.300781 1.777344 37.292969 1.777344 24.953125 C 1.777344 12.609375 12.199219 2.605469 25.054688 2.605469 C 37.910156 2.605469 48.332031 12.609375 48.332031 24.953125 Z M 48.332031 24.953125 "/>
</clipPath>
</defs>
<g id="surface1">
<g clip-path="url(#clip1)" clip-rule="nonzero">
<g clip-path="url(#clip2)" clip-rule="nonzero">
<path style=" stroke:none;fill-rule:nonzero;fill:rgb(18.039216%,33.333334%,64.705884%);fill-opacity:1;" d="M 32.550781 24.640625 C 32.503906 24.265625 32.570312 23.886719 32.738281 23.546875 C 32.964844 23.285156 33.285156 23.109375 33.636719 23.058594 L 33.636719 22.671875 L 16.484375 22.671875 L 16.484375 23.058594 C 16.839844 23.109375 17.160156 23.285156 17.386719 23.546875 C 17.558594 23.886719 17.625 24.265625 17.578125 24.640625 Z M 32.550781 24.640625 "/>
</g>
</g>
<g clip-path="url(#clip3)" clip-rule="nonzero">
<g clip-path="url(#clip4)" clip-rule="nonzero">
<path style=" stroke:none;fill-rule:nonzero;fill:rgb(18.039216%,33.333334%,64.705884%);fill-opacity:1;" d="M 17.664062 14.355469 L 18.6875 14.355469 L 18.6875 21.671875 L 17.664062 21.671875 Z M 17.664062 14.355469 "/>
</g>
</g>
<g clip-path="url(#clip5)" clip-rule="nonzero">
<g clip-path="url(#clip6)" clip-rule="nonzero">
<path style=" stroke:none;fill-rule:nonzero;fill:rgb(18.039216%,33.333334%,64.705884%);fill-opacity:1;" d="M 31.421875 14.355469 L 32.441406 14.355469 L 32.441406 21.671875 L 31.421875 21.671875 Z M 31.421875 14.355469 "/>
</g>
</g>
<g clip-path="url(#clip7)" clip-rule="nonzero">
<g clip-path="url(#clip8)" clip-rule="nonzero">
<path style=" stroke:none;fill-rule:nonzero;fill:rgb(18.039216%,33.333334%,64.705884%);fill-opacity:1;" d="M 23.371094 14.355469 L 24.390625 14.355469 L 24.390625 21.671875 L 23.371094 21.671875 Z M 23.371094 14.355469 "/>
</g>
</g>
<g clip-path="url(#clip9)" clip-rule="nonzero">
<g clip-path="url(#clip10)" clip-rule="nonzero">
<path style=" stroke:none;fill-rule:nonzero;fill:rgb(18.039216%,33.333334%,64.705884%);fill-opacity:1;" d="M 25.472656 14.355469 L 26.492188 14.355469 L 26.492188 21.671875 L 25.472656 21.671875 Z M 25.472656 14.355469 "/>
</g>
</g>
<g clip-path="url(#clip11)" clip-rule="nonzero">
<g clip-path="url(#clip12)" clip-rule="nonzero">
<path style=" stroke:none;fill-rule:nonzero;fill:rgb(18.039216%,33.333334%,64.705884%);fill-opacity:1;" d="M 34.230469 46.644531 L 15.878906 46.644531 L 16.351562 35.894531 L 33.746094 35.894531 Z M 34.230469 46.644531 "/>
</g>
</g>
<g clip-path="url(#clip13)" clip-rule="nonzero">
<g clip-path="url(#clip14)" clip-rule="nonzero">
<path style=" stroke:none;fill-rule:nonzero;fill:rgb(18.039216%,33.333334%,64.705884%);fill-opacity:1;" d="M 34.8125 54.605469 L 15.410156 54.605469 L 15.859375 45.660156 L 34.3125 45.660156 Z M 34.8125 54.605469 "/>
</g>
</g>
<g clip-path="url(#clip15)" clip-rule="nonzero">
<g clip-path="url(#clip16)" clip-rule="nonzero">
<path style=" stroke:none;fill-rule:nonzero;fill:rgb(18.039216%,33.333334%,64.705884%);fill-opacity:1;" d="M 32.367188 28.710938 L 17.734375 28.710938 L 17.882812 25.578125 L 32.167969 25.578125 Z M 32.367188 28.710938 "/>
</g>
</g>
<g clip-path="url(#clip17)" clip-rule="nonzero">
<g clip-path="url(#clip18)" clip-rule="nonzero">
<path style=" stroke:none;fill-rule:nonzero;fill:rgb(18.039216%,33.333334%,64.705884%);fill-opacity:1;" d="M 25.652344 9.089844 C 25.722656 8.757812 26.269531 8.289062 26.070312 7.835938 C 25.855469 7.363281 25.515625 7.570312 25.378906 7.304688 C 25.234375 7.035156 25.316406 6.644531 25.011719 6.644531 C 24.710938 6.644531 24.8125 7.035156 24.671875 7.304688 C 24.527344 7.570312 24.1875 7.363281 23.976562 7.835938 C 23.773438 8.289062 24.332031 8.757812 24.390625 9.089844 Z M 25.652344 9.089844 "/>
</g>
</g>
<g clip-path="url(#clip19)" clip-rule="nonzero">
<g clip-path="url(#clip20)" clip-rule="nonzero">
<path style=" stroke:none;fill-rule:nonzero;fill:rgb(18.039216%,33.333334%,64.705884%);fill-opacity:1;" d="M 13.558594 29.769531 L 13.558594 30.160156 C 13.929688 30.203125 14.269531 30.375 14.519531 30.644531 C 14.675781 31.355469 14.746094 32.082031 14.722656 32.808594 L 14.730469 32.792969 L 15.691406 32.792969 L 15.691406 33.449219 L 16.574219 34.804688 L 18.660156 34.804688 L 18.222656 33.445312 L 18.195312 32.792969 L 19.195312 32.792969 L 19.195312 33.449219 L 19.695312 34.804688 L 22.3125 34.804688 L 22.09375 33.441406 L 22.070312 32.792969 L 23.070312 32.792969 L 23.070312 33.449219 L 23.355469 34.804688 L 26.5 34.804688 L 26.777344 33.449219 L 26.777344 32.792969 L 27.789062 32.792969 L 27.761719 33.441406 L 27.539062 34.804688 L 30.1875 34.804688 L 30.691406 33.449219 L 30.691406 32.792969 L 31.6875 32.792969 L 31.664062 33.445312 L 31.234375 34.804688 L 33.269531 34.804688 L 34.199219 33.449219 L 34.199219 32.792969 L 35.160156 32.792969 C 35.121094 32.070312 35.191406 31.347656 35.371094 30.644531 C 35.621094 30.394531 35.945312 30.226562 36.296875 30.160156 L 36.296875 29.769531 Z M 13.558594 29.769531 "/>
</g>
</g>
<g clip-path="url(#clip21)" clip-rule="nonzero">
<g clip-path="url(#clip22)" clip-rule="nonzero">
<path style=" stroke:none;fill-rule:nonzero;fill:rgb(18.039216%,33.333334%,64.705884%);fill-opacity:1;" d="M 17.664062 13.375 C 19.484375 11.292969 22.167969 10.089844 24.996094 10.089844 C 27.863281 10.105469 30.585938 11.296875 32.476562 13.367188 Z M 17.664062 13.375 "/>
</g>
</g>
<g clip-path="url(#clip23)" clip-rule="nonzero">
<g clip-path="url(#clip24)" clip-rule="nonzero">
<path style=" stroke:none;fill-rule:nonzero;fill:rgb(18.039216%,33.333334%,64.705884%);fill-opacity:1;" d="M 16.664062 21.339844 L 4.589844 28.011719 L 4.585938 26.859375 L 16.664062 20.144531 Z M 16.664062 21.339844 "/>
</g>
</g>
<g clip-path="url(#clip25)" clip-rule="nonzero">
<g clip-path="url(#clip26)" clip-rule="nonzero">
<path style=" stroke:none;fill-rule:nonzero;fill:rgb(18.039216%,33.333334%,64.705884%);fill-opacity:1;" d="M 4.566406 9.15625 L 16.648438 15.851562 L 16.648438 14.6875 L 4.589844 8.003906 Z M 4.566406 9.15625 "/>
</g>
</g>
<g clip-path="url(#clip27)" clip-rule="nonzero">
<g clip-path="url(#clip28)" clip-rule="nonzero">
<path style=" stroke:none;fill-rule:nonzero;fill:rgb(18.039216%,33.333334%,64.705884%);fill-opacity:1;" d="M 33.445312 21.339844 L 45.507812 28.011719 L 45.523438 26.859375 L 33.4375 20.144531 Z M 33.445312 21.339844 "/>
</g>
</g>
<g clip-path="url(#clip29)" clip-rule="nonzero">
<g clip-path="url(#clip30)" clip-rule="nonzero">
<path style=" stroke:none;fill-rule:nonzero;fill:rgb(18.039216%,33.333334%,64.705884%);fill-opacity:1;" d="M 45.546875 9.15625 L 33.457031 15.851562 L 33.457031 14.6875 L 45.507812 8.003906 Z M 45.546875 9.15625 "/>
</g>
</g>
<path style="fill:none;stroke-width:1.5;stroke-linecap:butt;stroke-linejoin:miter;stroke:rgb(18.039216%,33.333334%,64.705884%);stroke-opacity:1;stroke-miterlimit:10;" d="M 23.199375 12.476562 C 23.199375 18.646484 18.196875 23.650391 12.02625 23.650391 C 5.855625 23.650391 0.853125 18.646484 0.853125 12.476562 C 0.853125 6.304688 5.855625 1.302734 12.02625 1.302734 C 18.196875 1.302734 23.199375 6.304688 23.199375 12.476562 Z M 23.199375 12.476562 " transform="matrix(2.083333,0,0,2,0,0)"/>
</g>
</svg>
