<?xml version="1.0" encoding="UTF-8"?>
<svg xmlns="http://www.w3.org/2000/svg" xmlns:xlink="http://www.w3.org/1999/xlink" width="50px" height="50px" viewBox="0 0 50 50" version="1.1">
<g id="surface1">
<path style=" stroke:none;fill-rule:nonzero;fill:rgb(99.215686%,99.215686%,99.215686%);fill-opacity:1;" d="M 30.5 0.875 C 30.613281 0.902344 30.730469 0.929688 30.847656 0.960938 C 37.316406 2.59375 42.828125 6.652344 46.289062 12.367188 C 47.671875 14.707031 48.714844 17.328125 49.25 20 C 49.300781 20.234375 49.300781 20.234375 49.355469 20.46875 C 49.988281 23.648438 49.898438 27.359375 49.125 30.5 C 49.097656 30.613281 49.070312 30.730469 49.039062 30.847656 C 47.40625 37.316406 43.347656 42.828125 37.632812 46.289062 C 35.292969 47.671875 32.671875 48.714844 30 49.25 C 29.765625 49.300781 29.765625 49.300781 29.53125 49.355469 C 26.351562 49.988281 22.640625 49.898438 19.5 49.125 C 19.386719 49.097656 19.269531 49.070312 19.152344 49.039062 C 12.613281 47.386719 7.09375 43.265625 3.613281 37.492188 C 2.277344 35.203125 1.269531 32.601562 0.75 30 C 0.714844 29.84375 0.679688 29.6875 0.644531 29.523438 C -0.589844 23.289062 0.941406 16.574219 4.390625 11.296875 C 4.550781 11.070312 4.710938 10.847656 4.875 10.625 C 4.964844 10.5 5.054688 10.375 5.148438 10.246094 C 5.746094 9.4375 6.390625 8.6875 7.078125 7.953125 C 7.191406 7.832031 7.191406 7.832031 7.308594 7.707031 C 10.65625 4.179688 15.238281 1.703125 20 0.75 C 20.234375 0.699219 20.234375 0.699219 20.46875 0.644531 C 23.648438 0.0117188 27.359375 0.101562 30.5 0.875 Z M 30.5 0.875 "/>
<path style=" stroke:none;fill-rule:nonzero;fill:rgb(18.82353%,33.333334%,64.313728%);fill-opacity:1;" d="M 30.5 0.875 C 30.613281 0.902344 30.730469 0.929688 30.847656 0.960938 C 37.316406 2.59375 42.828125 6.652344 46.289062 12.367188 C 47.671875 14.707031 48.714844 17.328125 49.25 20 C 49.300781 20.234375 49.300781 20.234375 49.355469 20.46875 C 49.988281 23.648438 49.898438 27.359375 49.125 30.5 C 49.097656 30.613281 49.070312 30.730469 49.039062 30.847656 C 47.40625 37.316406 43.347656 42.828125 37.632812 46.289062 C 35.292969 47.671875 32.671875 48.714844 30 49.25 C 29.765625 49.300781 29.765625 49.300781 29.53125 49.355469 C 26.351562 49.988281 22.640625 49.898438 19.5 49.125 C 19.386719 49.097656 19.269531 49.070312 19.152344 49.039062 C 12.613281 47.386719 7.09375 43.265625 3.613281 37.492188 C 2.277344 35.203125 1.269531 32.601562 0.75 30 C 0.714844 29.84375 0.679688 29.6875 0.644531 29.523438 C -0.589844 23.289062 0.941406 16.574219 4.390625 11.296875 C 4.550781 11.070312 4.710938 10.847656 4.875 10.625 C 4.964844 10.5 5.054688 10.375 5.148438 10.246094 C 5.746094 9.4375 6.390625 8.6875 7.078125 7.953125 C 7.191406 7.832031 7.191406 7.832031 7.308594 7.707031 C 10.65625 4.179688 15.238281 1.703125 20 0.75 C 20.234375 0.699219 20.234375 0.699219 20.46875 0.644531 C 23.648438 0.0117188 27.359375 0.101562 30.5 0.875 Z M 19.714844 2.636719 C 19.136719 2.832031 18.546875 2.980469 17.957031 3.140625 C 13.988281 4.214844 10.1875 6.789062 7.625 10 C 8.101562 10.523438 8.582031 10.847656 9.203125 11.179688 C 9.285156 11.222656 9.363281 11.269531 9.449219 11.316406 C 9.820312 11.519531 10.195312 11.71875 10.570312 11.921875 C 11.5625 12.457031 12.53125 13.027344 13.503906 13.597656 C 14.863281 14.410156 14.863281 14.410156 16.273438 15.125 C 16.515625 15.242188 16.515625 15.242188 16.875 15.5 C 16.992188 15.96875 16.992188 15.96875 17 16.375 C 16.164062 15.972656 15.367188 15.53125 14.578125 15.046875 C 13.710938 14.519531 12.835938 14.015625 11.945312 13.53125 C 11.109375 13.078125 10.292969 12.605469 9.488281 12.097656 C 9.015625 11.808594 8.53125 11.546875 8.042969 11.289062 C 7.757812 11.128906 7.507812 10.953125 7.25 10.75 C 6.1875 11.164062 5.535156 12.667969 5 13.625 C 4.957031 13.703125 4.910156 13.785156 4.863281 13.867188 C 4.089844 15.246094 4.089844 15.246094 3.566406 16.738281 C 3.5 17 3.5 17 3.320312 17.460938 C 3.070312 18.101562 2.914062 18.773438 2.746094 19.4375 C 2.625 19.875 2.625 19.875 2.5 20.167969 C 1.972656 21.558594 2.082031 23.203125 2.085938 24.667969 C 2.085938 25.039062 2.082031 25.40625 2.078125 25.773438 C 2.074219 27.625 2.214844 29.378906 2.875 31.125 C 2.945312 31.339844 3.015625 31.550781 3.085938 31.765625 C 3.160156 31.988281 3.230469 32.207031 3.304688 32.429688 C 3.339844 32.539062 3.375 32.648438 3.414062 32.761719 C 3.832031 34.027344 4.316406 35.183594 5 36.328125 C 5.070312 36.449219 5.144531 36.566406 5.21875 36.691406 C 7.664062 40.730469 11.492188 44.578125 16 46.25 C 16.289062 46.222656 16.289062 46.222656 16.5 46.125 C 16.621094 45.398438 16.660156 44.675781 16.691406 43.941406 C 16.699219 43.8125 16.703125 43.6875 16.707031 43.558594 C 16.71875 43.292969 16.730469 43.023438 16.742188 42.757812 C 16.757812 42.359375 16.773438 41.960938 16.792969 41.558594 C 16.804688 41.296875 16.8125 41.039062 16.824219 40.777344 C 16.828125 40.660156 16.835938 40.542969 16.839844 40.425781 C 16.886719 39.199219 16.875 37.980469 16.875 36.75 C 22.359375 36.75 27.847656 36.75 33.5 36.75 C 33.5 38.152344 33.5 39.554688 33.5 41 C 33.535156 41.921875 33.570312 42.84375 33.625 43.765625 C 33.636719 43.988281 33.648438 44.207031 33.660156 44.429688 C 33.691406 44.953125 33.71875 45.476562 33.75 46 C 34.058594 46.113281 34.203125 46.140625 34.515625 46.027344 C 34.609375 45.972656 34.699219 45.921875 34.796875 45.867188 C 34.902344 45.808594 35.003906 45.75 35.113281 45.691406 C 35.222656 45.628906 35.332031 45.566406 35.445312 45.5 C 35.613281 45.40625 35.613281 45.40625 35.789062 45.308594 C 41.34375 42.144531 45.394531 37.335938 47.125 31.125 C 47.226562 30.71875 47.328125 30.316406 47.421875 29.910156 C 47.5 29.625 47.5 29.625 47.625 29.5 C 47.921875 28.144531 47.917969 26.769531 47.914062 25.390625 C 47.914062 25.035156 47.917969 24.675781 47.921875 24.316406 C 47.925781 22.582031 47.847656 20.800781 47.226562 19.15625 C 47.089844 18.777344 46.988281 18.390625 46.882812 18 C 46.710938 17.394531 46.519531 16.832031 46.25 16.265625 C 46.113281 15.980469 46.003906 15.6875 45.890625 15.390625 C 45.476562 14.34375 44.917969 13.402344 44.25 12.5 C 44.191406 12.398438 44.132812 12.300781 44.070312 12.195312 C 43.789062 11.730469 43.457031 11.304688 43.125 10.875 C 42.332031 10.972656 41.726562 11.429688 41.085938 11.867188 C 40.589844 12.203125 40.082031 12.464844 39.542969 12.722656 C 39.277344 12.859375 39.050781 13.007812 38.8125 13.1875 C 38.5 13.421875 38.191406 13.597656 37.835938 13.765625 C 37.097656 14.121094 36.410156 14.554688 35.714844 14.988281 C 34.988281 15.433594 34.253906 15.855469 33.5 16.25 C 33.457031 15.960938 33.417969 15.671875 33.375 15.375 C 33.503906 15.328125 33.503906 15.328125 33.636719 15.28125 C 34.050781 15.105469 34.429688 14.886719 34.8125 14.65625 C 34.890625 14.609375 34.96875 14.5625 35.050781 14.515625 C 35.308594 14.363281 35.5625 14.207031 35.820312 14.054688 C 36 13.949219 36.175781 13.84375 36.355469 13.734375 C 37.558594 13.019531 38.757812 12.296875 39.953125 11.570312 C 40.027344 11.527344 40.101562 11.480469 40.175781 11.433594 C 40.382812 11.308594 40.59375 11.183594 40.800781 11.054688 C 40.917969 10.984375 41.035156 10.914062 41.15625 10.839844 C 41.527344 10.609375 41.886719 10.367188 42.25 10.125 C 42.070312 9.546875 41.746094 9.191406 41.320312 8.78125 C 41.253906 8.714844 41.1875 8.648438 41.117188 8.582031 C 39.410156 6.933594 37.449219 5.636719 35.375 4.5 C 35.292969 4.449219 35.210938 4.402344 35.128906 4.351562 C 34.359375 3.894531 33.570312 3.625 32.71875 3.367188 C 32.511719 3.300781 32.511719 3.300781 32.296875 3.238281 C 32.027344 3.152344 31.753906 3.070312 31.484375 2.984375 C 31.195312 2.898438 30.90625 2.804688 30.621094 2.707031 C 28.867188 2.128906 27.136719 2.085938 25.304688 2.09375 C 24.929688 2.09375 24.554688 2.09375 24.183594 2.089844 C 22.652344 2.089844 21.167969 2.101562 19.714844 2.636719 Z M 19.714844 2.636719 "/>
<path style=" stroke:none;fill-rule:nonzero;fill:rgb(18.039216%,32.941177%,64.705884%);fill-opacity:1;" d="M 14.125 30.625 C 21.300781 30.625 28.480469 30.625 35.875 30.625 C 35.875 30.707031 35.875 30.789062 35.875 30.875 C 35.757812 30.945312 35.636719 31.019531 35.515625 31.09375 C 35.046875 31.429688 34.988281 31.566406 34.875 32.125 C 34.820312 32.582031 34.78125 33.039062 34.75 33.5 C 34.632812 33.5 34.519531 33.5 34.398438 33.5 C 34.265625 33.542969 34.136719 33.582031 34 33.625 C 33.8125 34.042969 33.8125 34.042969 33.71875 34.347656 C 33.429688 35.21875 33.429688 35.21875 33 35.5 C 32.410156 35.574219 31.839844 35.550781 31.25 35.5 C 31.269531 35.410156 31.289062 35.320312 31.308594 35.230469 C 31.371094 34.890625 31.414062 34.554688 31.445312 34.210938 C 31.457031 34.101562 31.464844 33.988281 31.476562 33.875 C 31.484375 33.792969 31.492188 33.710938 31.5 33.625 C 31.210938 33.625 30.921875 33.625 30.625 33.625 C 30.589844 33.738281 30.554688 33.855469 30.519531 33.972656 C 30.476562 34.121094 30.429688 34.269531 30.382812 34.421875 C 30.335938 34.570312 30.292969 34.71875 30.246094 34.871094 C 30.125 35.25 30.125 35.25 30 35.5 C 29.257812 35.5 28.515625 35.5 27.75 35.5 C 27.75 34.882812 27.75 34.261719 27.75 33.625 C 27.421875 33.582031 27.089844 33.542969 26.75 33.5 C 26.753906 33.582031 26.753906 33.664062 26.757812 33.746094 C 26.761719 33.855469 26.761719 33.964844 26.765625 34.078125 C 26.769531 34.183594 26.769531 34.292969 26.773438 34.402344 C 26.75 34.75 26.75 34.75 26.5 35.5 C 25.511719 35.5 24.519531 35.5 23.5 35.5 C 23.21875 34.234375 23.21875 34.234375 23.25 33.5 C 22.921875 33.5 22.589844 33.5 22.25 33.5 C 22.3125 34.488281 22.3125 34.488281 22.375 35.5 C 22.007812 35.515625 21.640625 35.527344 21.273438 35.539062 C 21.167969 35.542969 21.066406 35.550781 20.957031 35.554688 C 20.667969 35.5625 20.410156 35.558594 20.125 35.5 C 19.773438 35.117188 19.6875 34.714844 19.601562 34.210938 C 19.582031 34.101562 19.5625 33.988281 19.542969 33.875 C 19.527344 33.792969 19.515625 33.710938 19.5 33.625 C 19.210938 33.625 18.921875 33.625 18.625 33.625 C 18.597656 34.273438 18.679688 34.765625 18.875 35.375 C 18.875 35.417969 18.875 35.457031 18.875 35.5 C 17.21875 35.671875 17.21875 35.671875 16.710938 35.277344 C 16.363281 34.761719 16.15625 34.25 16.125 33.625 C 15.835938 33.582031 15.546875 33.542969 15.25 33.5 C 15.246094 33.371094 15.242188 33.242188 15.242188 33.109375 C 15.234375 32.9375 15.226562 32.765625 15.21875 32.59375 C 15.214844 32.464844 15.214844 32.464844 15.214844 32.335938 C 15.191406 31.90625 15.15625 31.664062 14.886719 31.324219 C 14.640625 31.136719 14.410156 30.996094 14.125 30.875 C 14.125 30.792969 14.125 30.710938 14.125 30.625 Z M 14.125 30.625 "/>
<path style=" stroke:none;fill-rule:nonzero;fill:rgb(19.607843%,34.509805%,65.490198%);fill-opacity:1;" d="M 18.25 26.375 C 22.789062 26.375 27.324219 26.375 32 26.375 C 32 27.363281 32 28.355469 32 29.375 C 27.460938 29.375 22.925781 29.375 18.25 29.375 C 18.25 28.386719 18.25 27.394531 18.25 26.375 Z M 18.25 26.375 "/>
<path style=" stroke:none;fill-rule:nonzero;fill:rgb(20.784314%,35.294119%,65.882355%);fill-opacity:1;" d="M 29.625 12.125 C 29.757812 12.195312 29.894531 12.269531 30.03125 12.34375 C 30.839844 12.800781 31.566406 13.382812 32.125 14.125 C 27.503906 14.125 22.886719 14.125 18.125 14.125 C 18.519531 13.730469 18.90625 13.351562 19.320312 12.984375 C 19.414062 12.902344 19.507812 12.820312 19.601562 12.734375 C 20.058594 12.34375 20.441406 12.089844 21 11.875 C 21.160156 11.792969 21.324219 11.710938 21.484375 11.625 C 23.820312 10.449219 27.488281 10.609375 29.625 12.125 Z M 29.625 12.125 "/>
<path style=" stroke:none;fill-rule:nonzero;fill:rgb(23.529412%,37.64706%,67.058825%);fill-opacity:1;" d="M 17 23.5 C 22.402344 23.5 27.808594 23.5 33.375 23.5 C 33.375 23.625 33.375 23.746094 33.375 23.875 C 33.277344 23.910156 33.179688 23.941406 33.078125 23.976562 C 32.714844 24.105469 32.714844 24.105469 32.5 24.5 C 32.457031 24.789062 32.417969 25.078125 32.375 25.375 C 27.632812 25.375 22.886719 25.375 18 25.375 C 17.917969 25.003906 17.835938 24.632812 17.75 24.25 C 17.382812 23.980469 17.382812 23.980469 17 23.875 C 17 23.75 17 23.628906 17 23.5 Z M 17 23.5 "/>
<path style=" stroke:none;fill-rule:nonzero;fill:rgb(22.352941%,36.470589%,65.882355%);fill-opacity:1;" d="M 33.25 21 C 34.160156 21.515625 35.066406 22.035156 35.960938 22.578125 C 36.59375 22.960938 37.238281 23.324219 37.890625 23.675781 C 38.410156 23.964844 38.921875 24.273438 39.429688 24.585938 C 40.011719 24.933594 40.601562 25.261719 41.199219 25.585938 C 41.554688 25.78125 41.894531 25.996094 42.238281 26.214844 C 42.664062 26.476562 43.105469 26.710938 43.546875 26.945312 C 43.953125 27.167969 44.351562 27.394531 44.75 27.625 C 44.75 27.953125 44.75 28.285156 44.75 28.625 C 44.339844 28.511719 44.039062 28.40625 43.703125 28.136719 C 43.375 27.875 43.066406 27.707031 42.6875 27.53125 C 41.992188 27.191406 41.339844 26.808594 40.6875 26.390625 C 40.332031 26.167969 39.964844 25.96875 39.59375 25.765625 C 38.90625 25.394531 38.238281 25.003906 37.570312 24.601562 C 36.527344 23.980469 35.472656 23.382812 34.40625 22.804688 C 34.308594 22.75 34.210938 22.699219 34.113281 22.644531 C 34.027344 22.597656 33.941406 22.550781 33.851562 22.503906 C 33.648438 22.386719 33.449219 22.257812 33.25 22.125 C 33.214844 21.855469 33.214844 21.855469 33.226562 21.546875 C 33.230469 21.445312 33.234375 21.34375 33.238281 21.238281 C 33.242188 21.121094 33.242188 21.121094 33.25 21 Z M 33.25 21 "/>
<path style=" stroke:none;fill-rule:nonzero;fill:rgb(21.176471%,35.686275%,66.274512%);fill-opacity:1;" d="M 17 21.125 C 17.085938 21.757812 17.085938 21.757812 17 22.125 C 16.714844 22.417969 16.363281 22.570312 16 22.75 C 15.796875 22.863281 15.59375 22.972656 15.390625 23.085938 C 15.273438 23.148438 15.160156 23.210938 15.039062 23.273438 C 13.222656 24.246094 13.222656 24.246094 11.484375 25.347656 C 11.167969 25.554688 10.839844 25.714844 10.503906 25.875 C 9.792969 26.222656 9.117188 26.625 8.453125 27.054688 C 6.621094 28.230469 6.621094 28.230469 5.625 28.5 C 5.5625 28.101562 5.5625 28.101562 5.625 27.625 C 5.816406 27.460938 5.816406 27.460938 6.070312 27.320312 C 6.160156 27.265625 6.25 27.210938 6.34375 27.15625 C 6.4375 27.105469 6.53125 27.054688 6.625 27 C 6.78125 26.90625 6.9375 26.8125 7.09375 26.71875 C 7.257812 26.621094 7.421875 26.527344 7.585938 26.429688 C 7.675781 26.375 7.765625 26.324219 7.859375 26.269531 C 8.703125 25.773438 9.550781 25.292969 10.398438 24.808594 C 11.167969 24.371094 11.929688 23.925781 12.691406 23.476562 C 13.535156 22.976562 14.390625 22.488281 15.246094 22.003906 C 15.402344 21.914062 15.402344 21.914062 15.5625 21.820312 C 15.710938 21.738281 15.710938 21.738281 15.863281 21.652344 C 16.078125 21.527344 16.289062 21.398438 16.5 21.269531 C 16.75 21.125 16.75 21.125 17 21.125 Z M 17 21.125 "/>
<path style=" stroke:none;fill-rule:nonzero;fill:rgb(22.352941%,36.470589%,66.666669%);fill-opacity:1;" d="M 42 9.375 C 42.078125 9.398438 42.15625 9.421875 42.234375 9.445312 C 42.503906 9.53125 42.503906 9.53125 42.75 9.375 C 42.640625 10.34375 42.640625 10.34375 42.5 10.625 C 42.625 10.8125 42.625 10.8125 42.75 11 C 42.648438 11.054688 42.648438 11.054688 42.542969 11.109375 C 42.035156 11.386719 41.546875 11.671875 41.070312 12 C 40.582031 12.332031 40.074219 12.589844 39.542969 12.847656 C 39.277344 12.984375 39.050781 13.132812 38.8125 13.3125 C 38.5 13.546875 38.191406 13.722656 37.835938 13.890625 C 37.203125 14.195312 36.613281 14.558594 36.015625 14.929688 C 35.15625 15.464844 34.292969 15.949219 33.375 16.375 C 33.339844 16.007812 33.3125 15.730469 33.375 15.375 C 33.636719 15.125 33.816406 14.996094 34.125 14.832031 C 34.207031 14.785156 34.285156 14.742188 34.367188 14.695312 C 34.628906 14.546875 34.890625 14.402344 35.15625 14.257812 C 35.339844 14.15625 35.519531 14.050781 35.699219 13.949219 C 36.074219 13.734375 36.449219 13.523438 36.820312 13.3125 C 37.582031 12.882812 38.328125 12.429688 39.074219 11.972656 C 39.425781 11.757812 39.777344 11.542969 40.128906 11.328125 C 40.253906 11.253906 40.378906 11.175781 40.507812 11.097656 C 41.046875 10.769531 41.585938 10.449219 42.125 10.125 C 42.0625 9.753906 42.0625 9.753906 42 9.375 Z M 42 9.375 "/>
<path style=" stroke:none;fill-rule:nonzero;fill:rgb(25.490198%,38.82353%,67.843139%);fill-opacity:1;" d="M 25.625 15.125 C 25.914062 15.125 26.203125 15.125 26.5 15.125 C 26.5 17.515625 26.5 19.910156 26.5 22.375 C 26.210938 22.375 25.921875 22.375 25.625 22.375 C 25.625 19.984375 25.625 17.589844 25.625 15.125 Z M 25.625 15.125 "/>
<path style=" stroke:none;fill-rule:nonzero;fill:rgb(23.921569%,38.039216%,67.058825%);fill-opacity:1;" d="M 23.625 15.125 C 23.914062 15.125 24.203125 15.125 24.5 15.125 C 24.5 17.515625 24.5 19.910156 24.5 22.375 C 24.210938 22.375 23.921875 22.375 23.625 22.375 C 23.625 19.984375 23.625 17.589844 23.625 15.125 Z M 23.625 15.125 "/>
<path style=" stroke:none;fill-rule:nonzero;fill:rgb(24.313726%,37.64706%,67.058825%);fill-opacity:1;" d="M 18.125 15.125 C 18.414062 15.125 18.703125 15.125 19 15.125 C 19 17.515625 19 19.910156 19 22.375 C 18.710938 22.375 18.421875 22.375 18.125 22.375 C 18.125 19.984375 18.125 17.589844 18.125 15.125 Z M 18.125 15.125 "/>
<path style=" stroke:none;fill-rule:nonzero;fill:rgb(16.862746%,32.156864%,64.313728%);fill-opacity:1;" d="M 31.375 15.25 C 31.621094 15.25 31.871094 15.25 32.125 15.25 C 32.125 17.601562 32.125 19.953125 32.125 22.375 C 31.878906 22.375 31.628906 22.375 31.375 22.375 C 31.375 20.023438 31.375 17.671875 31.375 15.25 Z M 31.375 15.25 "/>
<path style=" stroke:none;fill-rule:nonzero;fill:rgb(18.431373%,33.333334%,64.705884%);fill-opacity:1;" d="M 24.875 7.625 C 25.109375 7.65625 25.109375 7.65625 25.375 7.75 C 25.507812 7.992188 25.507812 7.992188 25.625 8.25 C 25.75 8.332031 25.871094 8.414062 26 8.5 C 25.90625 9.328125 25.90625 9.328125 25.625 9.75 C 24.992188 9.832031 24.992188 9.832031 24.625 9.75 C 24.335938 9.433594 24.265625 9.214844 24.195312 8.796875 C 24.269531 8.402344 24.429688 8.347656 24.75 8.125 C 24.847656 7.863281 24.847656 7.863281 24.875 7.625 Z M 24.875 7.625 "/>
<path style=" stroke:none;fill-rule:nonzero;fill:rgb(20.392157%,30.588236%,53.333336%);fill-opacity:1;" d="M 0.75 20 C 0.792969 20 0.832031 20 0.875 20 C 0.878906 20.351562 0.878906 20.703125 0.882812 21.054688 C 0.882812 21.15625 0.886719 21.253906 0.886719 21.359375 C 0.886719 21.613281 0.882812 21.871094 0.875 22.125 C 0.832031 22.167969 0.792969 22.207031 0.75 22.25 C 0.410156 24.6875 0.496094 27.472656 1 29.875 C 1.042969 29.917969 1.082031 29.957031 1.125 30 C 1.144531 30.332031 1.128906 30.664062 1.125 31 C -0.417969 28.132812 0.125 23.0625 0.75 20 Z M 0.75 20 "/>
<path style=" stroke:none;fill-rule:nonzero;fill:rgb(18.431373%,29.411766%,53.333336%);fill-opacity:1;" d="M 11.75 4.125 C 11.832031 4.167969 11.914062 4.207031 12 4.25 C 11.917969 4.308594 11.835938 4.367188 11.75 4.429688 C 11.511719 4.605469 11.269531 4.78125 11.027344 4.957031 C 10.761719 5.152344 10.492188 5.34375 10.226562 5.535156 C 9.507812 6.058594 8.933594 6.5625 8.375 7.25 C 8.296875 7.289062 8.214844 7.328125 8.132812 7.367188 C 7.820312 7.527344 7.640625 7.714844 7.40625 7.976562 C 7.292969 8.101562 7.292969 8.101562 7.171875 8.230469 C 6.964844 8.554688 6.964844 8.746094 7 9.125 C 6.917969 9.125 6.835938 9.125 6.75 9.125 C 6.707031 9.207031 6.667969 9.289062 6.625 9.375 C 6.460938 9.375 6.296875 9.375 6.125 9.375 C 5.839844 9.742188 5.839844 9.742188 5.625 10.125 C 5.542969 10.082031 5.460938 10.042969 5.375 10 C 5.90625 9.261719 6.5 8.585938 7.117188 7.921875 C 7.1875 7.84375 7.261719 7.765625 7.335938 7.6875 C 8.175781 6.789062 9.109375 6.023438 10.085938 5.28125 C 10.175781 5.210938 10.269531 5.140625 10.363281 5.066406 C 11.316406 4.339844 11.316406 4.339844 11.75 4.125 Z M 11.75 4.125 "/>
<path style=" stroke:none;fill-rule:nonzero;fill:rgb(17.254902%,32.941177%,63.921571%);fill-opacity:1;" d="M 7.5 26.625 C 7.582031 26.667969 7.664062 26.707031 7.75 26.75 C 7.75 26.875 7.75 26.996094 7.75 27.125 C 7.667969 27.125 7.585938 27.125 7.5 27.125 C 7.5 27.207031 7.5 27.289062 7.5 27.375 C 7.417969 27.375 7.335938 27.375 7.25 27.375 C 7.25 27.5 7.25 27.621094 7.25 27.75 C 7.027344 27.875 6.800781 28 6.578125 28.125 C 6.453125 28.195312 6.328125 28.265625 6.199219 28.335938 C 5.875 28.5 5.875 28.5 5.625 28.5 C 5.5625 28.101562 5.5625 28.101562 5.625 27.625 C 5.921875 27.34375 6.257812 27.175781 6.625 27 C 6.707031 26.957031 6.792969 26.917969 6.878906 26.875 C 7.109375 26.765625 7.109375 26.765625 7.5 26.625 Z M 7.5 26.625 "/>
<path style=" stroke:none;fill-rule:nonzero;fill:rgb(19.215687%,32.941177%,63.137257%);fill-opacity:1;" d="M 5 39.375 C 5.371094 39.4375 5.371094 39.4375 5.75 39.5 C 5.742188 39.59375 5.734375 39.6875 5.726562 39.78125 C 5.753906 40.183594 5.863281 40.328125 6.125 40.625 C 6.25 40.5 6.371094 40.378906 6.5 40.25 C 6.566406 40.296875 6.632812 40.34375 6.703125 40.390625 C 7.117188 40.542969 7.351562 40.414062 7.75 40.25 C 7.792969 40.332031 7.832031 40.414062 7.875 40.5 C 7.832031 40.582031 7.792969 40.664062 7.75 40.75 C 7.507812 40.820312 7.507812 40.820312 7.25 40.875 C 7.125 40.9375 7.125 40.9375 7 41 C 7.0625 41.558594 7.253906 41.820312 7.632812 42.226562 C 7.722656 42.324219 7.816406 42.425781 7.910156 42.527344 C 7.980469 42.601562 8.050781 42.671875 8.125 42.75 C 7.75 42.75 7.75 42.75 7.550781 42.585938 C 7.476562 42.511719 7.40625 42.433594 7.335938 42.355469 C 7.253906 42.273438 7.175781 42.1875 7.09375 42.101562 C 7.011719 42.011719 6.929688 41.921875 6.84375 41.828125 C 6.71875 41.691406 6.71875 41.691406 6.589844 41.554688 C 5 39.816406 5 39.816406 5 39.375 Z M 5 39.375 "/>
<path style=" stroke:none;fill-rule:nonzero;fill:rgb(18.431373%,30.19608%,55.686277%);fill-opacity:1;" d="M 2.5 35 C 2.6875 35.171875 2.6875 35.171875 2.875 35.375 C 2.875 35.457031 2.875 35.539062 2.875 35.625 C 2.957031 35.625 3.039062 35.625 3.125 35.625 C 3.125 35.75 3.125 35.871094 3.125 36 C 3.25 36.042969 3.371094 36.082031 3.5 36.125 C 3.625 36.207031 3.746094 36.289062 3.875 36.375 C 3.875 36.667969 3.875 36.957031 3.875 37.25 C 4.050781 37.535156 4.050781 37.535156 4.25 37.75 C 4.25 37.832031 4.25 37.914062 4.25 38 C 4.34375 37.941406 4.441406 37.882812 4.539062 37.820312 C 4.875 37.625 4.875 37.625 5.25 37.5 C 5.15625 37.742188 5.15625 37.742188 5 38 C 4.742188 38.078125 4.742188 38.078125 4.5 38.125 C 4.539062 38.195312 4.574219 38.261719 4.613281 38.335938 C 4.660156 38.425781 4.707031 38.515625 4.757812 38.609375 C 4.828125 38.746094 4.828125 38.746094 4.902344 38.882812 C 4.933594 38.960938 4.96875 39.042969 5 39.125 C 4.957031 39.207031 4.917969 39.289062 4.875 39.375 C 4.597656 38.941406 4.316406 38.507812 4.039062 38.074219 C 3.878906 37.828125 3.71875 37.582031 3.558594 37.335938 C 2.5 35.710938 2.5 35.710938 2.5 35 Z M 2.5 35 "/>
<path style=" stroke:none;fill-rule:nonzero;fill:rgb(18.039216%,29.411766%,54.509807%);fill-opacity:1;" d="M 41.125 43.125 C 41.25 43.207031 41.371094 43.289062 41.5 43.375 C 40.140625 44.699219 38.570312 45.773438 36.875 46.625 C 36.875 46.542969 36.875 46.460938 36.875 46.375 C 37.265625 46.03125 37.675781 45.761719 38.125 45.5 C 38.25 45.417969 38.371094 45.335938 38.5 45.25 C 38.582031 45.25 38.664062 45.25 38.75 45.25 C 39.003906 45.046875 39.113281 44.929688 39.1875 44.609375 C 39.207031 44.53125 39.230469 44.453125 39.25 44.375 C 39.375 44.332031 39.496094 44.292969 39.625 44.25 C 39.625 44.332031 39.625 44.414062 39.625 44.5 C 40.535156 43.96875 40.535156 43.96875 41.125 43.125 Z M 41.125 43.125 "/>
<path style=" stroke:none;fill-rule:nonzero;fill:rgb(18.82353%,30.980393%,53.725493%);fill-opacity:1;" d="M 31 48.875 C 30.398438 49.207031 29.765625 49.28125 29.09375 49.390625 C 28.894531 49.425781 28.894531 49.425781 28.6875 49.457031 C 27.613281 49.628906 26.585938 49.683594 25.5 49.625 C 25.859375 49.265625 26.242188 49.324219 26.726562 49.304688 C 27.285156 49.28125 27.828125 49.25 28.375 49.125 C 29.257812 48.96875 30.105469 48.839844 31 48.875 Z M 31 48.875 "/>
<path style=" stroke:none;fill-rule:nonzero;fill:rgb(27.058825%,40.000001%,67.843139%);fill-opacity:1;" d="M 43.625 27.25 C 44.09375 27.3125 44.351562 27.359375 44.75 27.625 C 44.800781 27.964844 44.765625 28.28125 44.75 28.625 C 44.1875 28.46875 43.8125 28.261719 43.375 27.875 C 43.5 27.5 43.5 27.5 43.625 27.25 Z M 43.625 27.25 "/>
<path style=" stroke:none;fill-rule:nonzero;fill:rgb(17.647059%,29.411766%,53.725493%);fill-opacity:1;" d="M 25.125 0.375 C 26.792969 0.324219 28.359375 0.460938 30 0.75 C 30 0.792969 30 0.832031 30 0.875 C 29.746094 0.902344 29.488281 0.929688 29.234375 0.953125 C 29.09375 0.96875 28.949219 0.980469 28.804688 0.996094 C 28.34375 1 28.058594 0.894531 27.625 0.75 C 27.214844 0.703125 26.804688 0.6875 26.390625 0.671875 C 26.28125 0.667969 26.171875 0.664062 26.058594 0.65625 C 25.789062 0.644531 25.519531 0.636719 25.25 0.625 C 25.207031 0.542969 25.167969 0.460938 25.125 0.375 Z M 25.125 0.375 "/>
<path style=" stroke:none;fill-rule:nonzero;fill:rgb(16.078432%,32.941177%,63.137257%);fill-opacity:1;" d="M 25.625 15.25 C 25.832031 15.25 26.039062 15.25 26.25 15.25 C 26.25 15.457031 26.25 15.664062 26.25 15.875 C 26.085938 15.917969 25.921875 15.957031 25.75 16 C 25.75 17.691406 25.75 19.382812 25.75 21.125 C 25.707031 21.125 25.667969 21.125 25.625 21.125 C 25.625 19.1875 25.625 17.246094 25.625 15.25 Z M 25.625 15.25 "/>
<path style=" stroke:none;fill-rule:nonzero;fill:rgb(18.039216%,29.019609%,54.509807%);fill-opacity:1;" d="M 31.5 1.25 C 32.234375 1.324219 32.867188 1.527344 33.554688 1.789062 C 33.65625 1.824219 33.757812 1.863281 33.859375 1.902344 C 34.515625 2.144531 35.132812 2.429688 35.75 2.75 C 35.515625 2.824219 35.515625 2.824219 35.25 2.875 C 35.042969 2.75 34.832031 2.625 34.625 2.5 C 34.34375 2.429688 34.058594 2.375 33.773438 2.328125 C 33.5 2.25 33.5 2.25 33.257812 2.066406 C 32.945312 1.832031 32.671875 1.769531 32.289062 1.679688 C 31.921875 1.59375 31.921875 1.59375 31.625 1.5 C 31.582031 1.417969 31.542969 1.335938 31.5 1.25 Z M 31.5 1.25 "/>
<path style=" stroke:none;fill-rule:nonzero;fill:rgb(18.039216%,29.803923%,54.901963%);fill-opacity:1;" d="M 25 0.375 C 24.957031 0.457031 24.917969 0.539062 24.875 0.625 C 24.710938 0.625 24.546875 0.625 24.375 0.625 C 24.375 0.707031 24.375 0.789062 24.375 0.875 C 24.292969 0.875 24.210938 0.875 24.125 0.875 C 24.125 0.792969 24.125 0.710938 24.125 0.625 C 23.730469 0.640625 23.339844 0.660156 22.945312 0.679688 C 22.832031 0.683594 22.722656 0.691406 22.605469 0.695312 C 22.5 0.699219 22.390625 0.703125 22.28125 0.710938 C 22.183594 0.714844 22.085938 0.71875 21.980469 0.722656 C 21.75 0.726562 21.75 0.726562 21.625 0.875 C 21.375 0.878906 21.125 0.878906 20.875 0.875 C 20.875 0.792969 20.875 0.710938 20.875 0.625 C 22.253906 0.34375 23.597656 0.351562 25 0.375 Z M 25 0.375 "/>
<path style=" stroke:none;fill-rule:nonzero;fill:rgb(27.058825%,40.392157%,67.843139%);fill-opacity:1;" d="M 10.25 24.875 C 10.332031 24.917969 10.414062 24.957031 10.5 25 C 10.398438 25.097656 10.292969 25.195312 10.1875 25.296875 C 9.847656 25.578125 9.847656 25.578125 9.875 25.875 C 9.957031 25.957031 10.039062 26.039062 10.125 26.125 C 9.878906 26.25 9.628906 26.371094 9.375 26.5 C 9.417969 26.292969 9.457031 26.085938 9.5 25.875 C 9.40625 25.917969 9.3125 25.960938 9.21875 26.007812 C 8.847656 26.132812 8.734375 26.109375 8.375 26 C 8.59375 25.859375 8.8125 25.71875 9.03125 25.578125 C 9.152344 25.5 9.273438 25.421875 9.398438 25.339844 C 9.976562 24.984375 9.976562 24.984375 10.25 24.875 Z M 10.25 24.875 "/>
<path style=" stroke:none;fill-rule:nonzero;fill:rgb(18.039216%,33.725491%,64.705884%);fill-opacity:1;" d="M 39.75 12.25 C 39.875 12.25 39.996094 12.25 40.125 12.25 C 39.28125 13.117188 39.28125 13.117188 38.789062 13.140625 C 38.644531 13.132812 38.644531 13.132812 38.5 13.125 C 38.457031 12.960938 38.417969 12.796875 38.375 12.625 C 38.5 12.582031 38.621094 12.542969 38.75 12.5 C 38.75 12.417969 38.75 12.335938 38.75 12.25 C 39.167969 12.109375 39.332031 12.15625 39.75 12.25 Z M 39.75 12.25 "/>
<path style=" stroke:none;fill-rule:nonzero;fill:rgb(24.705882%,38.431373%,67.843139%);fill-opacity:1;" d="M 15.5 21.875 C 15.542969 22.039062 15.582031 22.203125 15.625 22.375 C 15.832031 22.417969 16.039062 22.457031 16.25 22.5 C 15.980469 22.769531 15.863281 22.808594 15.5 22.875 C 15.191406 22.875 14.921875 22.824219 14.625 22.75 C 14.542969 22.667969 14.460938 22.585938 14.375 22.5 C 14.746094 22.292969 15.117188 22.085938 15.5 21.875 Z M 15.5 21.875 "/>
<path style=" stroke:none;fill-rule:nonzero;fill:rgb(18.039216%,30.588236%,54.509807%);fill-opacity:1;" d="M 5.25 10.125 C 5.292969 10.25 5.332031 10.371094 5.375 10.5 C 5.21875 10.683594 5.0625 10.867188 4.902344 11.046875 C 4.679688 11.34375 4.652344 11.636719 4.625 12 C 4.460938 12.042969 4.296875 12.082031 4.125 12.125 C 4.101562 12.277344 4.101562 12.277344 4.078125 12.429688 C 4.050781 12.535156 4.027344 12.640625 4 12.75 C 3.917969 12.792969 3.835938 12.832031 3.75 12.875 C 3.707031 13 3.667969 13.121094 3.625 13.25 C 3.542969 13.25 3.460938 13.25 3.375 13.25 C 3.578125 12.6875 3.863281 12.195312 4.171875 11.6875 C 4.21875 11.605469 4.269531 11.523438 4.320312 11.441406 C 4.601562 10.972656 4.898438 10.542969 5.25 10.125 Z M 5.25 10.125 "/>
<path style=" stroke:none;fill-rule:nonzero;fill:rgb(17.647059%,29.019609%,54.901963%);fill-opacity:1;" d="M 36 3 C 36.460938 3.070312 36.785156 3.191406 37.179688 3.4375 C 37.277344 3.5 37.378906 3.5625 37.480469 3.625 C 37.582031 3.6875 37.683594 3.753906 37.789062 3.820312 C 37.894531 3.886719 38 3.949219 38.105469 4.015625 C 38.363281 4.175781 38.617188 4.339844 38.875 4.5 C 38.75 4.542969 38.628906 4.582031 38.5 4.625 C 38.285156 4.507812 38.070312 4.390625 37.863281 4.261719 C 37.597656 4.101562 37.597656 4.101562 37.179688 3.945312 C 36.695312 3.726562 36.390625 3.484375 36 3.125 C 36 3.082031 36 3.042969 36 3 Z M 36 3 "/>
<path style=" stroke:none;fill-rule:nonzero;fill:rgb(18.82353%,34.509805%,63.529414%);fill-opacity:1;" d="M 14.375 22.625 C 14.664062 22.707031 14.953125 22.789062 15.25 22.875 C 15.292969 22.792969 15.332031 22.710938 15.375 22.625 C 15.417969 22.75 15.457031 22.871094 15.5 23 C 15.34375 23.105469 15.1875 23.210938 15.03125 23.3125 C 14.902344 23.398438 14.902344 23.398438 14.765625 23.488281 C 14.5 23.625 14.5 23.625 14 23.625 C 14.078125 23.257812 14.199219 22.953125 14.375 22.625 Z M 14.375 22.625 "/>
<path style=" stroke:none;fill-rule:nonzero;fill:rgb(19.215687%,30.19608%,56.862748%);fill-opacity:1;" d="M 43 8.25 C 43.566406 8.710938 44.050781 9.175781 44.5 9.75 C 44.457031 9.832031 44.417969 9.914062 44.375 10 C 44.292969 9.917969 44.210938 9.835938 44.125 9.75 C 43.800781 9.730469 43.800781 9.730469 43.5 9.75 C 43.332031 9.25 43.167969 8.75 43 8.25 Z M 43 8.25 "/>
<path style=" stroke:none;fill-rule:nonzero;fill:rgb(18.039216%,33.725491%,64.705884%);fill-opacity:1;" d="M 38.875 24.375 C 39.46875 24.609375 39.46875 24.609375 39.75 24.75 C 39.75 24.914062 39.75 25.078125 39.75 25.25 C 39.460938 25.25 39.171875 25.25 38.875 25.25 C 38.828125 25 38.785156 24.75 38.75 24.5 C 38.792969 24.457031 38.832031 24.417969 38.875 24.375 Z M 38.875 24.375 "/>
<path style=" stroke:none;fill-rule:nonzero;fill:rgb(17.254902%,29.019609%,51.372552%);fill-opacity:1;" d="M 13.375 46.75 C 14.078125 46.8125 14.617188 46.925781 15.25 47.25 C 15.292969 47.332031 15.332031 47.414062 15.375 47.5 C 15.628906 47.582031 15.628906 47.582031 15.875 47.625 C 15.875 47.707031 15.875 47.789062 15.875 47.875 C 15.285156 47.792969 14.804688 47.5625 14.273438 47.304688 C 14.1875 47.261719 14.101562 47.222656 14.011719 47.179688 C 13.796875 47.078125 13.585938 46.976562 13.375 46.875 C 13.375 46.832031 13.375 46.792969 13.375 46.75 Z M 13.375 46.75 "/>
<path style=" stroke:none;fill-rule:nonzero;fill:rgb(26.274511%,38.431373%,68.235296%);fill-opacity:1;" d="M 24.875 7.625 C 25.039062 7.667969 25.203125 7.707031 25.375 7.75 C 25.417969 7.914062 25.457031 8.078125 25.5 8.25 C 25.421875 8.261719 25.339844 8.277344 25.257812 8.289062 C 25.171875 8.316406 25.085938 8.347656 25 8.375 C 24.957031 8.5 24.917969 8.621094 24.875 8.75 C 24.667969 8.707031 24.460938 8.667969 24.25 8.625 C 24.371094 8.515625 24.371094 8.515625 24.492188 8.40625 C 24.746094 8.128906 24.824219 7.992188 24.875 7.625 Z M 24.875 7.625 "/>
<path style=" stroke:none;fill-rule:nonzero;fill:rgb(18.431373%,30.19608%,52.156866%);fill-opacity:1;" d="M 19.25 48.75 C 19.53125 48.824219 19.8125 48.890625 20.09375 48.953125 C 20.238281 48.984375 20.386719 49.019531 20.539062 49.050781 C 20.648438 49.074219 20.761719 49.101562 20.875 49.125 C 20.875 49.167969 20.875 49.207031 20.875 49.25 C 20.1875 49.277344 19.609375 49.179688 18.945312 49 C 18.855469 48.976562 18.761719 48.953125 18.667969 48.929688 C 18.445312 48.871094 18.222656 48.808594 18 48.75 C 18 48.707031 18 48.667969 18 48.625 C 18.542969 48.5 18.765625 48.503906 19.25 48.75 Z M 19.25 48.75 "/>
<path style=" stroke:none;fill-rule:nonzero;fill:rgb(18.431373%,33.333334%,64.705884%);fill-opacity:1;" d="M 34.25 15.25 C 34.296875 15.53125 34.296875 15.53125 34.25 15.875 C 33.613281 16.375 33.613281 16.375 33.375 16.375 C 33.375 16.085938 33.375 15.796875 33.375 15.5 C 33.539062 15.542969 33.703125 15.582031 33.875 15.625 C 33.875 15.542969 33.875 15.460938 33.875 15.375 C 34.125 15.25 34.125 15.25 34.25 15.25 Z M 34.25 15.25 "/>
<path style=" stroke:none;fill-rule:nonzero;fill:rgb(25.490198%,38.82353%,67.450982%);fill-opacity:1;" d="M 10.375 11.75 C 10.5 11.792969 10.621094 11.832031 10.75 11.875 C 10.625 11.9375 10.625 11.9375 10.5 12 C 10.542969 12.246094 10.582031 12.496094 10.625 12.75 C 10.152344 12.613281 9.816406 12.511719 9.5 12.125 C 9.582031 12.125 9.664062 12.125 9.75 12.125 C 9.792969 12.042969 9.832031 11.960938 9.875 11.875 C 10.039062 11.917969 10.203125 11.957031 10.375 12 C 10.375 11.917969 10.375 11.835938 10.375 11.75 Z M 10.375 11.75 "/>
<path style=" stroke:none;fill-rule:nonzero;fill:rgb(29.803923%,41.568628%,68.235296%);fill-opacity:1;" d="M 33.25 21 C 33.621094 21.207031 33.992188 21.414062 34.375 21.625 C 33.875 21.875 33.875 21.875 33.625 21.875 C 33.582031 21.957031 33.542969 22.039062 33.5 22.125 C 33.417969 22.125 33.335938 22.125 33.25 22.125 C 33.25 21.753906 33.25 21.382812 33.25 21 Z M 33.25 21 "/>
<path style=" stroke:none;fill-rule:nonzero;fill:rgb(18.039216%,33.725491%,62.7451%);fill-opacity:1;" d="M 14.875 14.375 C 15.238281 14.507812 15.472656 14.597656 15.75 14.875 C 15.667969 15.039062 15.585938 15.203125 15.5 15.375 C 15.292969 15.332031 15.085938 15.292969 14.875 15.25 C 14.828125 15 14.785156 14.75 14.75 14.5 C 14.792969 14.457031 14.832031 14.417969 14.875 14.375 Z M 14.875 14.375 "/>
<path style=" stroke:none;fill-rule:nonzero;fill:rgb(21.568628%,36.470589%,65.098041%);fill-opacity:1;" d="M 40.625 8.125 C 40.953125 8.167969 41.285156 8.207031 41.625 8.25 C 41.640625 8.34375 41.65625 8.441406 41.671875 8.539062 C 41.734375 8.898438 41.734375 8.898438 42 9.25 C 41.625 9.25 41.625 9.25 41.371094 9.035156 C 41.28125 8.945312 41.191406 8.851562 41.101562 8.757812 C 41.011719 8.667969 40.921875 8.574219 40.832031 8.480469 C 40.625 8.25 40.625 8.25 40.625 8.125 Z M 40.625 8.125 "/>
<path style=" stroke:none;fill-rule:nonzero;fill:rgb(29.803923%,41.176471%,69.411767%);fill-opacity:1;" d="M 46.5 32.75 C 46.75 33.125 46.75 33.125 46.703125 33.398438 C 46.675781 33.472656 46.652344 33.546875 46.625 33.625 C 46.75 33.667969 46.871094 33.707031 47 33.75 C 46.75 34.125 46.75 34.125 46.359375 34.210938 C 46.242188 34.222656 46.121094 34.238281 46 34.25 C 46.058594 34.046875 46.121094 33.84375 46.179688 33.640625 C 46.214844 33.527344 46.246094 33.414062 46.28125 33.296875 C 46.375 33 46.375 33 46.5 32.75 Z M 46.5 32.75 "/>
<path style=" stroke:none;fill-rule:nonzero;fill:rgb(17.254902%,33.333334%,64.705884%);fill-opacity:1;" d="M 6.25 27.5 C 6.292969 27.746094 6.332031 27.996094 6.375 28.25 C 6.128906 28.332031 5.878906 28.414062 5.625 28.5 C 5.625 28.210938 5.625 27.921875 5.625 27.625 C 6 27.5 6 27.5 6.25 27.5 Z M 6.25 27.5 "/>
<path style=" stroke:none;fill-rule:nonzero;fill:rgb(18.039216%,30.588236%,54.509807%);fill-opacity:1;" d="M 1.625 32.75 C 2.15625 33.335938 2.472656 33.957031 2.523438 34.75 C 2.515625 34.832031 2.507812 34.914062 2.5 35 C 2.1875 34.621094 2.015625 34.265625 1.851562 33.804688 C 1.808594 33.6875 1.765625 33.566406 1.722656 33.445312 C 1.625 33.125 1.625 33.125 1.625 32.75 Z M 1.625 32.75 "/>
<path style=" stroke:none;fill-rule:nonzero;fill:rgb(26.666668%,39.607844%,68.235296%);fill-opacity:1;" d="M 33.75 22.125 C 33.867188 22.144531 33.980469 22.167969 34.101562 22.1875 C 34.628906 22.277344 34.628906 22.277344 35.125 22.125 C 35.082031 22.199219 35.039062 22.273438 34.992188 22.351562 C 34.832031 22.636719 34.832031 22.636719 35 23 C 34.527344 22.820312 34.078125 22.605469 33.625 22.375 C 33.667969 22.292969 33.707031 22.210938 33.75 22.125 Z M 33.75 22.125 "/>
<path style=" stroke:none;fill-rule:nonzero;fill:rgb(18.82353%,29.019609%,53.725493%);fill-opacity:1;" d="M 5 39.375 C 5.371094 39.4375 5.371094 39.4375 5.75 39.5 C 5.738281 39.585938 5.722656 39.675781 5.710938 39.765625 C 5.769531 40.289062 6.019531 40.492188 6.375 40.875 C 6.332031 40.957031 6.292969 41.039062 6.25 41.125 C 6.0625 40.902344 5.878906 40.683594 5.695312 40.460938 C 5.59375 40.335938 5.488281 40.214844 5.382812 40.085938 C 5.125 39.75 5.125 39.75 5 39.375 Z M 5 39.375 "/>
<path style=" stroke:none;fill-rule:nonzero;fill:rgb(18.82353%,29.803923%,54.509807%);fill-opacity:1;" d="M 18 1.375 C 18 1.457031 18 1.539062 18 1.625 C 17.914062 1.648438 17.828125 1.671875 17.738281 1.699219 C 17.628906 1.730469 17.515625 1.761719 17.398438 1.796875 C 17.285156 1.828125 17.175781 1.859375 17.058594 1.894531 C 16.722656 1.992188 16.722656 1.992188 16.375 2.25 C 16.082031 2.261719 15.792969 2.261719 15.5 2.25 C 15.90625 1.976562 16.289062 1.835938 16.75 1.671875 C 16.980469 1.589844 16.980469 1.589844 17.21875 1.503906 C 17.625 1.375 17.625 1.375 18 1.375 Z M 18 1.375 "/>
<path style=" stroke:none;fill-rule:nonzero;fill:rgb(17.254902%,29.803923%,54.509807%);fill-opacity:1;" d="M 46.875 35.875 C 46.96875 36.070312 46.96875 36.070312 47 36.375 C 46.847656 36.675781 46.691406 36.941406 46.507812 37.21875 C 46.460938 37.292969 46.410156 37.371094 46.363281 37.445312 C 46.242188 37.632812 46.121094 37.816406 46 38 C 45.957031 37.875 45.917969 37.753906 45.875 37.625 C 45.996094 37.421875 45.996094 37.421875 46.171875 37.210938 C 46.480469 36.808594 46.566406 36.507812 46.625 36 C 46.707031 35.957031 46.789062 35.917969 46.875 35.875 Z M 46.875 35.875 "/>
<path style=" stroke:none;fill-rule:nonzero;fill:rgb(18.82353%,33.333334%,64.313728%);fill-opacity:1;" d="M 36 22.75 C 36.246094 22.832031 36.496094 22.914062 36.75 23 C 36.707031 23.164062 36.667969 23.328125 36.625 23.5 C 36.269531 23.5 35.96875 23.449219 35.625 23.375 C 35.625 23.292969 35.625 23.210938 35.625 23.125 C 35.707031 23.125 35.789062 23.125 35.875 23.125 C 35.917969 23 35.957031 22.878906 36 22.75 Z M 36 22.75 "/>
<path style=" stroke:none;fill-rule:nonzero;fill:rgb(27.058825%,39.607844%,67.450982%);fill-opacity:1;" d="M 36.375 44.875 C 36.417969 44.957031 36.457031 45.039062 36.5 45.125 C 36.421875 45.203125 36.339844 45.28125 36.257812 45.359375 C 35.996094 45.601562 35.996094 45.601562 35.875 45.875 C 35.628906 45.792969 35.378906 45.710938 35.125 45.625 C 35.515625 45.308594 35.921875 45.089844 36.375 44.875 Z M 36.375 44.875 "/>
<path style=" stroke:none;fill-rule:nonzero;fill:rgb(17.647059%,28.627452%,54.11765%);fill-opacity:1;" d="M 46.875 13.625 C 47.117188 13.992188 47.316406 14.359375 47.515625 14.75 C 47.617188 14.945312 47.617188 14.945312 47.71875 15.148438 C 47.875 15.5 47.875 15.5 47.875 15.875 C 47.75 15.832031 47.628906 15.792969 47.5 15.75 C 47.429688 15.523438 47.429688 15.523438 47.375 15.25 C 47.292969 15.085938 47.207031 14.921875 47.117188 14.757812 C 46.910156 14.359375 46.816406 14.078125 46.875 13.625 Z M 46.875 13.625 "/>
<path style=" stroke:none;fill-rule:nonzero;fill:rgb(19.215687%,34.117648%,64.705884%);fill-opacity:1;" d="M 41.25 25.75 C 41.613281 25.882812 41.847656 25.972656 42.125 26.25 C 41.734375 26.480469 41.453125 26.523438 41 26.5 C 41.082031 26.253906 41.164062 26.003906 41.25 25.75 Z M 41.25 25.75 "/>
<path style=" stroke:none;fill-rule:nonzero;fill:rgb(25.882354%,39.607844%,67.450982%);fill-opacity:1;" d="M 17 23.625 C 17.371094 23.625 17.742188 23.625 18.125 23.625 C 18.082031 23.953125 18.042969 24.285156 18 24.625 C 17.90625 24.523438 17.808594 24.425781 17.710938 24.320312 C 17.402344 23.980469 17.402344 23.980469 17 23.875 C 17 23.792969 17 23.710938 17 23.625 Z M 17 23.625 "/>
<path style=" stroke:none;fill-rule:nonzero;fill:rgb(19.215687%,30.19608%,54.901963%);fill-opacity:1;" d="M 6.625 41.125 C 7.15625 41.640625 7.640625 42.1875 8.125 42.75 C 7.75 42.75 7.75 42.75 7.441406 42.449219 C 7.324219 42.320312 7.214844 42.191406 7.101562 42.0625 C 7.042969 41.996094 6.984375 41.929688 6.925781 41.863281 C 6.78125 41.703125 6.640625 41.539062 6.5 41.375 C 6.542969 41.292969 6.582031 41.210938 6.625 41.125 Z M 6.625 41.125 "/>
<path style=" stroke:none;fill-rule:nonzero;fill:rgb(18.82353%,28.235295%,51.764709%);fill-opacity:1;" d="M 2.375 15 C 2.453125 15.21875 2.453125 15.21875 2.5 15.5 C 2.421875 15.667969 2.335938 15.835938 2.25 16 C 2.179688 16.195312 2.109375 16.394531 2.046875 16.59375 C 2.015625 16.695312 1.980469 16.792969 1.949219 16.898438 C 1.925781 16.972656 1.898438 17.046875 1.875 17.125 C 1.792969 17.125 1.710938 17.125 1.625 17.125 C 1.832031 16.394531 2.058594 15.691406 2.375 15 Z M 2.375 15 "/>
<path style=" stroke:none;fill-rule:nonzero;fill:rgb(21.568628%,36.078432%,65.490198%);fill-opacity:1;" d="M 41.625 40.75 C 41.625 41.203125 41.503906 41.570312 41.375 42 C 41.066406 41.875 41.066406 41.875 40.75 41.75 C 40.871094 41.605469 40.996094 41.464844 41.117188 41.320312 C 41.183594 41.242188 41.253906 41.160156 41.324219 41.078125 C 41.421875 40.964844 41.519531 40.855469 41.625 40.75 Z M 41.625 40.75 "/>
<path style=" stroke:none;fill-rule:nonzero;fill:rgb(16.862746%,30.980393%,53.725493%);fill-opacity:1;" d="M 49.375 27.875 C 49.542969 28.347656 49.464844 28.730469 49.382812 29.21875 C 49.359375 29.363281 49.335938 29.511719 49.308594 29.664062 C 49.289062 29.773438 49.269531 29.886719 49.25 30 C 49.207031 30 49.167969 30 49.125 30 C 49.09375 29.738281 49.066406 29.480469 49.039062 29.21875 C 49.023438 29.074219 49.007812 28.929688 48.992188 28.78125 C 49 28.335938 49.070312 28.191406 49.375 27.875 Z M 49.375 27.875 "/>
<path style=" stroke:none;fill-rule:nonzero;fill:rgb(26.666668%,40.000001%,66.666669%);fill-opacity:1;" d="M 42 9.375 C 42.117188 9.410156 42.117188 9.410156 42.234375 9.445312 C 42.503906 9.53125 42.503906 9.53125 42.75 9.375 C 42.707031 9.703125 42.667969 10.035156 42.625 10.375 C 42.382812 10.296875 42.382812 10.296875 42.125 10.125 C 42.03125 9.734375 42.03125 9.734375 42 9.375 Z M 42 9.375 "/>
<path style=" stroke:none;fill-rule:nonzero;fill:rgb(17.254902%,32.549021%,64.313728%);fill-opacity:1;" d="M 9.5 25.875 C 9.457031 26.082031 9.417969 26.289062 9.375 26.5 C 9.292969 26.5 9.210938 26.5 9.125 26.5 C 9.125 26.417969 9.125 26.335938 9.125 26.25 C 8.878906 26.375 8.628906 26.496094 8.375 26.625 C 8.375 26.460938 8.375 26.296875 8.375 26.125 C 8.796875 25.9375 9.027344 25.875 9.5 25.875 Z M 9.5 25.875 "/>
<path style=" stroke:none;fill-rule:nonzero;fill:rgb(18.431373%,33.333334%,65.098041%);fill-opacity:1;" d="M 37.125 23.625 C 37.417969 23.65625 37.710938 23.699219 38 23.75 C 38.042969 23.832031 38.082031 23.914062 38.125 24 C 38 24 37.878906 24 37.75 24 C 37.707031 24.125 37.667969 24.246094 37.625 24.375 C 37.5 24.332031 37.378906 24.292969 37.25 24.25 C 37.207031 24.042969 37.167969 23.835938 37.125 23.625 Z M 37.125 23.625 "/>
<path style=" stroke:none;fill-rule:nonzero;fill:rgb(18.431373%,29.411766%,56.862748%);fill-opacity:1;" d="M 15.625 2.375 C 15.625 2.457031 15.625 2.539062 15.625 2.625 C 15.417969 2.625 15.210938 2.625 15 2.625 C 14.957031 2.707031 14.917969 2.789062 14.875 2.875 C 14.585938 2.925781 14.292969 2.96875 14 3 C 15.023438 2.175781 15.023438 2.175781 15.625 2.375 Z M 15.625 2.375 "/>
<path style=" stroke:none;fill-rule:nonzero;fill:rgb(18.039216%,30.19608%,57.254905%);fill-opacity:1;" d="M 42.25 42.25 C 42.375 42.292969 42.496094 42.332031 42.625 42.375 C 42.128906 42.808594 42.128906 42.808594 41.625 43.25 C 41.582031 43.125 41.542969 43.003906 41.5 42.875 C 42.050781 42.375 42.050781 42.375 42.25 42.25 Z M 42.25 42.25 "/>
<path style=" stroke:none;fill-rule:nonzero;fill:rgb(19.607843%,28.627452%,52.156866%);fill-opacity:1;" d="M 39.375 5 C 40.035156 5.351562 40.574219 5.746094 41.125 6.25 C 40.625 6.25 40.4375 6.058594 40.039062 5.765625 C 39.914062 5.675781 39.789062 5.585938 39.664062 5.492188 C 39.566406 5.414062 39.472656 5.332031 39.375 5.25 C 39.375 5.167969 39.375 5.085938 39.375 5 Z M 39.375 5 "/>
<path style=" stroke:none;fill-rule:nonzero;fill:rgb(17.254902%,32.156864%,57.647061%);fill-opacity:1;" d="M 20.875 49 C 21.296875 48.976562 21.296875 48.976562 21.75 49 C 21.832031 49.125 21.914062 49.246094 22 49.375 C 21.566406 49.519531 21.316406 49.464844 20.875 49.375 C 20.875 49.25 20.875 49.128906 20.875 49 Z M 20.875 49 "/>
<path style=" stroke:none;fill-rule:nonzero;fill:rgb(25.882354%,40.000001%,67.450982%);fill-opacity:1;" d="M 13.25 23.5 C 13.207031 23.664062 13.167969 23.828125 13.125 24 C 12.753906 24 12.382812 24 12 24 C 12.257812 23.484375 12.71875 23.46875 13.25 23.5 Z M 13.25 23.5 "/>
<path style=" stroke:none;fill-rule:nonzero;fill:rgb(16.862746%,33.333334%,64.313728%);fill-opacity:1;" d="M 36.25 13.75 C 36.625 13.875 36.625 13.875 36.773438 14.132812 C 36.808594 14.210938 36.839844 14.292969 36.875 14.375 C 36.464844 14.511719 36.285156 14.476562 35.875 14.375 C 35.875 14.125 35.875 14.125 36.0625 13.921875 C 36.125 13.863281 36.1875 13.808594 36.25 13.75 Z M 36.25 13.75 "/>
<path style=" stroke:none;fill-rule:nonzero;fill:rgb(25.098041%,38.82353%,66.666669%);fill-opacity:1;" d="M 6.25 27.25 C 6.375 27.332031 6.496094 27.414062 6.625 27.5 C 6.625 27.582031 6.625 27.664062 6.625 27.75 C 6.707031 27.792969 6.789062 27.832031 6.875 27.875 C 6.628906 28 6.628906 28 6.375 28.125 C 6.332031 27.917969 6.292969 27.710938 6.25 27.5 C 6.085938 27.542969 5.921875 27.582031 5.75 27.625 C 5.875 27.375 5.875 27.375 6.25 27.25 Z M 6.25 27.25 "/>
<path style=" stroke:none;fill-rule:nonzero;fill:rgb(30.19608%,42.745098%,70.588237%);fill-opacity:1;" d="M 7.875 26.375 C 7.917969 26.703125 7.957031 27.035156 8 27.375 C 7.753906 27.457031 7.503906 27.539062 7.25 27.625 C 7.25 27.542969 7.25 27.460938 7.25 27.375 C 7.332031 27.375 7.414062 27.375 7.5 27.375 C 7.5 27.292969 7.5 27.210938 7.5 27.125 C 7.582031 27.125 7.664062 27.125 7.75 27.125 C 7.542969 26.746094 7.542969 26.746094 7.25 26.625 C 7.734375 26.375 7.734375 26.375 7.875 26.375 Z M 7.875 26.375 "/>
<path style=" stroke:none;fill-rule:nonzero;fill:rgb(24.313726%,38.431373%,67.450982%);fill-opacity:1;" d="M 14.375 14.25 C 14.582031 14.25 14.789062 14.25 15 14.25 C 14.980469 14.320312 14.957031 14.394531 14.9375 14.46875 C 14.855469 14.785156 14.855469 14.785156 14.875 15.25 C 14.566406 15.125 14.566406 15.125 14.25 15 C 14.292969 14.917969 14.332031 14.835938 14.375 14.75 C 14.457031 14.75 14.539062 14.75 14.625 14.75 C 14.625 14.625 14.625 14.503906 14.625 14.375 C 14.542969 14.332031 14.460938 14.292969 14.375 14.25 Z M 14.375 14.25 "/>
<path style=" stroke:none;fill-rule:nonzero;fill:rgb(25.098041%,38.431373%,67.450982%);fill-opacity:1;" d="M 42.625 39.625 C 42.75 39.667969 42.871094 39.707031 43 39.75 C 43 39.832031 43 39.914062 43 40 C 42.796875 40.171875 42.589844 40.339844 42.375 40.5 C 42.292969 40.457031 42.210938 40.417969 42.125 40.375 C 42.269531 40.066406 42.382812 39.867188 42.625 39.625 Z M 42.625 39.625 "/>
<path style=" stroke:none;fill-rule:nonzero;fill:rgb(19.215687%,29.803923%,55.29412%);fill-opacity:1;" d="M 45.875 38 C 45.695312 38.515625 45.4375 38.929688 45.125 39.375 C 45.082031 39.292969 45.042969 39.210938 45 39.125 C 45.042969 39 45.082031 38.878906 45.125 38.75 C 45.207031 38.75 45.289062 38.75 45.375 38.75 C 45.332031 38.625 45.292969 38.503906 45.25 38.375 C 45.59375 38 45.59375 38 45.875 38 Z M 45.875 38 "/>
<path style=" stroke:none;fill-rule:nonzero;fill:rgb(16.862746%,32.549021%,63.137257%);fill-opacity:1;" d="M 38.875 4.875 C 39.347656 4.941406 39.570312 5.140625 39.875 5.5 C 39.875 5.582031 39.875 5.664062 39.875 5.75 C 39.28125 5.640625 39.28125 5.640625 39 5.5 C 38.921875 5.179688 38.921875 5.179688 38.875 4.875 Z M 38.875 4.875 "/>
<path style=" stroke:none;fill-rule:nonzero;fill:rgb(16.862746%,31.37255%,60.784316%);fill-opacity:1;" d="M 18.625 35 C 18.707031 35.164062 18.789062 35.328125 18.875 35.5 C 18.296875 35.5 17.71875 35.5 17.125 35.5 C 17.125 35.457031 17.125 35.417969 17.125 35.375 C 17.539062 35.375 17.949219 35.375 18.375 35.375 C 18.375 35.292969 18.375 35.210938 18.375 35.125 C 18.457031 35.082031 18.539062 35.042969 18.625 35 Z M 18.625 35 "/>
<path style=" stroke:none;fill-rule:nonzero;fill:rgb(18.039216%,33.333334%,63.921571%);fill-opacity:1;" d="M 10.25 25.25 C 10.332031 25.292969 10.414062 25.332031 10.5 25.375 C 10.417969 25.582031 10.335938 25.789062 10.25 26 C 10.085938 25.957031 9.921875 25.917969 9.75 25.875 C 9.875 25.5 9.875 25.5 10.25 25.25 Z M 10.25 25.25 "/>
<path style=" stroke:none;fill-rule:nonzero;fill:rgb(16.862746%,32.549021%,62.7451%);fill-opacity:1;" d="M 13.125 24 C 12.828125 24.238281 12.617188 24.378906 12.25 24.5 C 12.25 24.417969 12.25 24.335938 12.25 24.25 C 12.167969 24.25 12.085938 24.25 12 24.25 C 12 24.167969 12 24.085938 12 24 C 12.382812 23.808594 12.710938 23.929688 13.125 24 Z M 13.125 24 "/>
<path style=" stroke:none;fill-rule:nonzero;fill:rgb(18.82353%,34.117648%,65.490198%);fill-opacity:1;" d="M 10.5 12 C 11.09375 12.109375 11.09375 12.109375 11.375 12.25 C 11.332031 12.375 11.292969 12.496094 11.25 12.625 C 10.960938 12.542969 10.671875 12.460938 10.375 12.375 C 10.417969 12.25 10.457031 12.128906 10.5 12 Z M 10.5 12 "/>
<path style=" stroke:none;fill-rule:nonzero;fill:rgb(18.039216%,30.980393%,56.470591%);fill-opacity:1;" d="M 14.75 47.25 C 14.914062 47.25 15.078125 47.25 15.25 47.25 C 15.292969 47.332031 15.332031 47.414062 15.375 47.5 C 15.628906 47.582031 15.628906 47.582031 15.875 47.625 C 15.875 47.707031 15.875 47.789062 15.875 47.875 C 15.457031 47.804688 15.121094 47.707031 14.75 47.5 C 14.75 47.417969 14.75 47.335938 14.75 47.25 Z M 14.75 47.25 "/>
<path style=" stroke:none;fill-rule:nonzero;fill:rgb(21.568628%,36.862746%,66.274512%);fill-opacity:1;" d="M 31.375 34.875 C 31.539062 34.875 31.703125 34.875 31.875 34.875 C 31.875 35.039062 31.875 35.203125 31.875 35.375 C 31.667969 35.375 31.460938 35.375 31.25 35.375 C 31.292969 35.210938 31.332031 35.046875 31.375 34.875 Z M 31.375 34.875 "/>
<path style=" stroke:none;fill-rule:nonzero;fill:rgb(13.725491%,31.37255%,62.7451%);fill-opacity:1;" d="M 14.25 30.625 C 14.703125 30.625 15.15625 30.625 15.625 30.625 C 15.5 30.667969 15.378906 30.707031 15.25 30.75 C 15.25 30.832031 15.25 30.914062 15.25 31 C 14.828125 30.929688 14.613281 30.867188 14.25 30.625 Z M 14.25 30.625 "/>
<path style=" stroke:none;fill-rule:nonzero;fill:rgb(21.960784%,37.254903%,64.705884%);fill-opacity:1;" d="M 42.875 27.25 C 43.082031 27.25 43.289062 27.25 43.5 27.25 C 43.5 27.375 43.5 27.496094 43.5 27.625 C 43.03125 27.765625 43.03125 27.765625 42.75 27.625 C 42.792969 27.5 42.832031 27.378906 42.875 27.25 Z M 42.875 27.25 "/>
<path style=" stroke:none;fill-rule:nonzero;fill:rgb(25.490198%,40.392157%,67.450982%);fill-opacity:1;" d="M 7 26.75 C 7.125 26.792969 7.246094 26.832031 7.375 26.875 C 7.167969 27.082031 6.960938 27.289062 6.75 27.5 C 6.625 27.375 6.503906 27.253906 6.375 27.125 C 6.664062 26.929688 6.664062 26.929688 7 26.75 Z M 7 26.75 "/>
<path style=" stroke:none;fill-rule:nonzero;fill:rgb(23.137255%,36.470589%,67.450982%);fill-opacity:1;" d="M 8.125 26.125 C 8.25 26.167969 8.371094 26.207031 8.5 26.25 C 8.457031 26.414062 8.417969 26.578125 8.375 26.75 C 8.210938 26.75 8.046875 26.75 7.875 26.75 C 7.875 26.585938 7.875 26.421875 7.875 26.25 C 7.957031 26.207031 8.039062 26.167969 8.125 26.125 Z M 8.125 26.125 "/>
<path style=" stroke:none;fill-rule:nonzero;fill:rgb(20.784314%,35.686275%,64.313728%);fill-opacity:1;" d="M 11.875 12.875 C 11.957031 13.082031 12.039062 13.289062 12.125 13.5 C 11.917969 13.457031 11.710938 13.417969 11.5 13.375 C 11.457031 13.25 11.417969 13.128906 11.375 13 C 11.625 12.875 11.625 12.875 11.875 12.875 Z M 11.875 12.875 "/>
<path style=" stroke:none;fill-rule:nonzero;fill:rgb(21.960784%,37.254903%,66.274512%);fill-opacity:1;" d="M 29.625 12.25 C 30.035156 12.320312 30.226562 12.4375 30.5 12.75 C 30.125 12.875 30.125 12.875 29.851562 12.757812 C 29.777344 12.714844 29.703125 12.671875 29.625 12.625 C 29.625 12.5 29.625 12.378906 29.625 12.25 Z M 29.625 12.25 "/>
<path style=" stroke:none;fill-rule:nonzero;fill:rgb(25.490198%,39.215687%,65.882355%);fill-opacity:1;" d="M 40 7.375 C 40.164062 7.417969 40.328125 7.457031 40.5 7.5 C 40.542969 7.707031 40.582031 7.914062 40.625 8.125 C 40.382812 8.03125 40.382812 8.03125 40.125 7.875 C 40.03125 7.609375 40.03125 7.609375 40 7.375 Z M 40 7.375 "/>
<path style=" stroke:none;fill-rule:nonzero;fill:rgb(19.215687%,31.37255%,57.254905%);fill-opacity:1;" d="M 10.375 44.25 C 10.5 44.332031 10.621094 44.414062 10.75 44.5 C 10.667969 44.664062 10.585938 44.828125 10.5 45 C 10.375 44.917969 10.253906 44.835938 10.125 44.75 C 10.207031 44.585938 10.289062 44.421875 10.375 44.25 Z M 10.375 44.25 "/>
<path style=" stroke:none;fill-rule:nonzero;fill:rgb(27.843139%,41.568628%,67.843139%);fill-opacity:1;" d="M 23.75 33.875 C 23.832031 33.957031 23.914062 34.039062 24 34.125 C 23.875 34.3125 23.875 34.3125 23.75 34.5 C 23.667969 34.5 23.585938 34.5 23.5 34.5 C 23.457031 34.664062 23.417969 34.828125 23.375 35 C 23.449219 34.230469 23.449219 34.230469 23.5 34 C 23.582031 33.957031 23.664062 33.917969 23.75 33.875 Z M 23.75 33.875 "/>
<path style=" stroke:none;fill-rule:nonzero;fill:rgb(34.901962%,45.490196%,71.372551%);fill-opacity:1;" d="M 47.25 30.125 C 47.292969 30.25 47.332031 30.371094 47.375 30.5 C 47.457031 30.542969 47.539062 30.582031 47.625 30.625 C 47.542969 30.789062 47.460938 30.953125 47.375 31.125 C 47.292969 31.125 47.210938 31.125 47.125 31.125 C 47.167969 30.796875 47.207031 30.464844 47.25 30.125 Z M 47.25 30.125 "/>
<path style=" stroke:none;fill-rule:nonzero;fill:rgb(30.980393%,43.529412%,70.588237%);fill-opacity:1;" d="M 38.875 25.25 C 39.164062 25.25 39.453125 25.25 39.75 25.25 C 39.75 25.414062 39.75 25.578125 39.75 25.75 C 39.496094 25.675781 39.246094 25.589844 39 25.5 C 38.957031 25.417969 38.917969 25.335938 38.875 25.25 Z M 38.875 25.25 "/>
<path style=" stroke:none;fill-rule:nonzero;fill:rgb(17.647059%,27.450982%,50.588238%);fill-opacity:1;" d="M 45.25 11 C 45.636719 11.347656 45.835938 11.632812 46 12.125 C 45.765625 12.054688 45.765625 12.054688 45.5 11.875 C 45.34375 11.421875 45.34375 11.421875 45.25 11 Z M 45.25 11 "/>
<path style=" stroke:none;fill-rule:nonzero;fill:rgb(20%,33.725491%,64.705884%);fill-opacity:1;" d="M 41 11.75 C 41 11.832031 41 11.914062 41 12 C 40.609375 12.128906 40.5 12.117188 40.125 12 C 40.125 11.917969 40.125 11.835938 40.125 11.75 C 40.5 11.632812 40.609375 11.621094 41 11.75 Z M 41 11.75 "/>
</g>
</svg>
