<?xml version="1.0" encoding="UTF-8"?>
<svg xmlns="http://www.w3.org/2000/svg" xmlns:xlink="http://www.w3.org/1999/xlink" width="50px" height="50px" viewBox="0 0 50 50" version="1.1">
<g id="surface1">
<path style=" stroke:none;fill-rule:nonzero;fill:rgb(99.607843%,99.607843%,99.607843%);fill-opacity:1;" d="M 36.265625 2.625 C 36.503906 2.738281 36.503906 2.738281 36.746094 2.859375 C 42.628906 5.925781 46.957031 11.398438 48.945312 17.671875 C 51.007812 24.511719 49.898438 31.421875 46.605469 37.65625 C 46.238281 38.304688 45.820312 38.910156 45.371094 39.507812 C 45.269531 39.636719 45.171875 39.769531 45.070312 39.90625 C 44.339844 40.839844 43.554688 41.722656 42.746094 42.59375 C 42.65625 42.691406 42.570312 42.792969 42.476562 42.894531 C 40.769531 44.710938 38.628906 46.101562 36.417969 47.222656 C 36.324219 47.269531 36.230469 47.320312 36.132812 47.371094 C 33.082031 48.921875 29.667969 49.898438 26.234375 50 C 26.039062 50.007812 25.839844 50.011719 25.636719 50.019531 C 19.117188 50.152344 12.722656 47.839844 7.988281 43.320312 C 7.847656 43.179688 7.707031 43.042969 7.5625 42.902344 C 7.34375 42.695312 7.34375 42.695312 7.125 42.488281 C 2.8125 38.328125 0.113281 32.183594 -0.03125 26.1875 C -0.105469 19.757812 1.628906 13.738281 5.863281 8.796875 C 5.9375 8.710938 6.007812 8.625 6.085938 8.539062 C 13.558594 -0.09375 26.074219 -2.402344 36.265625 2.625 Z M 36.265625 2.625 "/>
<path style=" stroke:none;fill-rule:nonzero;fill:rgb(69.411767%,70.19608%,71.372551%);fill-opacity:1;" d="M 36.265625 2.625 C 36.503906 2.738281 36.503906 2.738281 36.746094 2.859375 C 42.628906 5.925781 46.957031 11.398438 48.945312 17.671875 C 51.007812 24.511719 49.898438 31.421875 46.605469 37.65625 C 46.238281 38.304688 45.820312 38.910156 45.371094 39.507812 C 45.269531 39.636719 45.171875 39.769531 45.070312 39.90625 C 44.339844 40.839844 43.554688 41.722656 42.746094 42.59375 C 42.65625 42.691406 42.570312 42.792969 42.476562 42.894531 C 40.769531 44.710938 38.628906 46.101562 36.417969 47.222656 C 36.324219 47.269531 36.230469 47.320312 36.132812 47.371094 C 33.082031 48.921875 29.667969 49.898438 26.234375 50 C 26.039062 50.007812 25.839844 50.011719 25.636719 50.019531 C 19.117188 50.152344 12.722656 47.839844 7.988281 43.320312 C 7.847656 43.179688 7.707031 43.042969 7.5625 42.902344 C 7.34375 42.695312 7.34375 42.695312 7.125 42.488281 C 2.8125 38.328125 0.113281 32.183594 -0.03125 26.1875 C -0.105469 19.757812 1.628906 13.738281 5.863281 8.796875 C 5.9375 8.710938 6.007812 8.625 6.085938 8.539062 C 13.558594 -0.09375 26.074219 -2.402344 36.265625 2.625 Z M 10.214844 8.792969 C 9.875 9.105469 9.875 9.105469 9.402344 9.472656 C 5.675781 12.800781 3.410156 18.25 3.085938 23.148438 C 2.851562 29.34375 4.496094 35.082031 8.738281 39.707031 C 9.011719 40.003906 9.289062 40.292969 9.566406 40.585938 C 9.65625 40.683594 9.742188 40.78125 9.835938 40.882812 C 12.980469 44.269531 17.746094 46.128906 22.222656 46.757812 C 22.582031 46.765625 22.941406 46.769531 23.300781 46.757812 C 23.34375 46.628906 23.382812 46.496094 23.421875 46.363281 C 24.917969 41.625 27.382812 37.417969 31.789062 34.875 C 31.625 35.039062 31.460938 35.203125 31.296875 35.367188 C 31.199219 35.46875 31.101562 35.566406 30.996094 35.671875 C 30.777344 35.890625 30.550781 36.109375 30.324219 36.324219 C 29.46875 37.21875 28.777344 38.199219 28.160156 39.269531 C 28.007812 39.53125 27.851562 39.789062 27.691406 40.046875 C 26.339844 42.210938 26.011719 44.222656 26.082031 46.757812 C 31.546875 47.007812 36.535156 44.058594 40.5 40.5625 C 43.5625 37.636719 45.695312 33.445312 46.449219 29.320312 C 46.492188 29.105469 46.539062 28.890625 46.582031 28.675781 C 47.058594 26.214844 47.082031 23.761719 46.605469 21.296875 C 46.585938 21.191406 46.566406 21.085938 46.542969 20.976562 C 45.425781 15.105469 42.074219 10.035156 37.128906 6.652344 C 33.582031 4.332031 29.492188 3.046875 25.261719 3.066406 C 25.105469 3.066406 24.949219 3.070312 24.785156 3.070312 C 19.285156 3.113281 14.269531 5.039062 10.214844 8.792969 Z M 10.214844 8.792969 "/>
<path style=" stroke:none;fill-rule:nonzero;fill:rgb(70.19608%,70.588237%,71.764708%);fill-opacity:1;" d="M 32.714844 5.710938 C 32.96875 5.761719 33.226562 5.8125 33.488281 5.863281 C 33.421875 6.664062 33.261719 7.382812 33.035156 8.148438 C 32.929688 8.519531 32.820312 8.890625 32.714844 9.257812 C 32.667969 9.414062 32.621094 9.570312 32.574219 9.734375 C 32.46875 10.160156 32.390625 10.515625 32.40625 10.957031 C 32.609375 11.292969 32.84375 11.554688 33.105469 11.84375 C 33.617188 12.621094 33.40625 13.683594 33.230469 14.554688 C 33.089844 15.09375 32.933594 15.628906 32.773438 16.164062 C 32.6875 16.460938 32.601562 16.753906 32.519531 17.050781 C 32.460938 17.25 32.402344 17.449219 32.347656 17.648438 C 32.074219 18.59375 31.832031 19.546875 31.597656 20.503906 C 31.523438 20.808594 31.449219 21.109375 31.375 21.410156 C 31.320312 21.617188 31.320312 21.617188 31.269531 21.832031 C 30.941406 23.164062 30.585938 24.484375 30.167969 25.789062 C 30.109375 25.976562 30.050781 26.160156 29.992188 26.351562 C 29.703125 27.050781 29.414062 27.511719 28.714844 27.824219 C 28.277344 27.921875 27.914062 27.957031 27.46875 27.933594 C 27.445312 28.207031 27.445312 28.207031 27.417969 28.484375 C 27.300781 29.535156 27.09375 30.570312 26.898438 31.605469 C 26.628906 33.042969 26.375 34.484375 26.15625 35.929688 C 26.117188 36.179688 26.078125 36.429688 26.039062 36.679688 C 25.980469 37.042969 25.925781 37.40625 25.875 37.769531 C 25.492188 40.492188 25.492188 40.492188 24.535156 41.511719 C 24.382812 41.511719 24.230469 41.511719 24.074219 41.511719 C 23.589844 39.234375 23.128906 36.949219 22.695312 34.660156 C 22.539062 33.847656 22.382812 33.035156 22.195312 32.226562 C 22.066406 31.636719 22.066406 31.636719 22.066406 31.019531 C 21.933594 31.03125 21.800781 31.042969 21.664062 31.058594 C 20.875 31 20.441406 30.628906 19.898438 30.078125 C 19.503906 29.488281 19.410156 28.953125 19.289062 28.261719 C 19.265625 28.128906 19.242188 27.996094 19.214844 27.859375 C 19.136719 27.425781 19.058594 26.996094 18.980469 26.5625 C 18.925781 26.265625 18.871094 25.96875 18.816406 25.671875 C 18.515625 24.023438 18.222656 22.375 17.949219 20.71875 C 17.804688 19.863281 17.613281 19.03125 17.398438 18.191406 C 17.140625 17.128906 16.894531 16.054688 17.128906 14.96875 C 17.386719 14.601562 17.640625 14.335938 17.988281 14.054688 C 18.28125 13.632812 18.214844 13.34375 18.128906 12.851562 C 18.09375 12.679688 18.09375 12.679688 18.054688 12.5 C 18.03125 12.375 18.007812 12.25 17.984375 12.125 C 17.878906 11.585938 17.765625 11.054688 17.648438 10.519531 C 17.621094 10.386719 17.597656 10.253906 17.566406 10.121094 C 17.542969 10.003906 17.519531 9.886719 17.492188 9.765625 C 17.433594 9.386719 17.429688 9.023438 17.4375 8.640625 C 17.640625 8.640625 17.84375 8.640625 18.054688 8.640625 C 18.351562 9.476562 18.5625 10.328125 18.769531 11.1875 C 18.804688 11.332031 18.839844 11.472656 18.875 11.621094 C 19.050781 12.339844 19.183594 12.988281 19.136719 13.734375 C 19.289062 13.710938 19.289062 13.710938 19.445312 13.6875 C 20.121094 13.757812 20.660156 14.023438 21.140625 14.507812 C 21.710938 15.691406 21.90625 17.027344 22.175781 18.304688 C 22.226562 18.558594 22.28125 18.808594 22.335938 19.058594 C 22.503906 19.855469 22.671875 20.652344 22.839844 21.449219 C 22.867188 21.585938 22.898438 21.726562 22.925781 21.867188 C 23.015625 22.28125 23.101562 22.699219 23.1875 23.113281 C 23.21875 23.25 23.246094 23.382812 23.273438 23.523438 C 23.410156 24.175781 23.546875 24.824219 23.683594 25.476562 C 23.734375 25.714844 23.78125 25.949219 23.832031 26.1875 C 23.855469 26.296875 23.875 26.402344 23.898438 26.515625 C 23.992188 26.945312 24.089844 27.359375 24.226562 27.777344 C 24.382812 29.316406 24.382812 29.316406 24.070312 29.945312 C 23.757812 30.328125 23.40625 30.589844 22.992188 30.863281 C 23.484375 33.542969 23.992188 36.21875 24.535156 38.890625 C 24.878906 37.394531 25.136719 35.902344 25.355469 34.382812 C 25.695312 32.105469 26.160156 29.867188 26.699219 27.625 C 26.601562 27.578125 26.503906 27.53125 26.402344 27.484375 C 25.824219 27.179688 25.546875 26.671875 25.308594 26.082031 C 25.234375 25.25 25.515625 24.496094 25.789062 23.726562 C 25.964844 23.175781 26.097656 22.613281 26.226562 22.046875 C 26.484375 20.917969 26.773438 19.796875 27.078125 18.675781 C 27.199219 18.214844 27.320312 17.753906 27.4375 17.292969 C 27.601562 16.671875 27.765625 16.050781 27.933594 15.433594 C 27.964844 15.3125 27.996094 15.191406 28.027344 15.066406 C 28.976562 11.558594 28.976562 11.558594 30.246094 10.800781 C 30.605469 10.695312 30.964844 10.589844 31.328125 10.492188 C 31.359375 10.367188 31.390625 10.238281 31.421875 10.105469 C 31.539062 9.628906 31.65625 9.148438 31.773438 8.671875 C 31.824219 8.46875 31.871094 8.261719 31.921875 8.054688 C 31.996094 7.757812 32.066406 7.460938 32.140625 7.164062 C 32.183594 6.984375 32.226562 6.804688 32.273438 6.621094 C 32.40625 6.171875 32.40625 6.171875 32.714844 5.710938 Z M 32.714844 5.710938 "/>
<path style=" stroke:none;fill-rule:nonzero;fill:rgb(70.19608%,70.980394%,72.156864%);fill-opacity:1;" d="M 10.183594 18.980469 C 12.015625 19.78125 13.121094 21.160156 14.292969 22.714844 C 14.5 22.984375 14.707031 23.25 14.914062 23.515625 C 16.8125 25.929688 18.429688 28.53125 19.75 31.304688 C 19.855469 31.527344 19.964844 31.75 20.070312 31.972656 C 21.675781 35.265625 23.910156 40.089844 23.609375 43.828125 C 23.460938 44.191406 23.308594 44.550781 23.148438 44.90625 C 23.085938 45.214844 23.03125 45.523438 22.992188 45.832031 C 22.78125 45.425781 22.617188 45.035156 22.484375 44.59375 C 21.121094 40.203125 19.136719 36.210938 16.351562 32.558594 C 16.015625 32.113281 15.707031 31.664062 15.433594 31.171875 C 17.402344 31.871094 18.550781 33.890625 19.699219 35.519531 C 19.910156 35.820312 19.910156 35.820312 20.214844 36.109375 C 19.605469 34.765625 18.96875 33.441406 18.285156 32.128906 C 18.195312 31.949219 18.101562 31.769531 18.007812 31.585938 C 17.125 29.902344 16.179688 28.261719 15.203125 26.628906 C 14.996094 26.28125 14.792969 25.933594 14.589844 25.582031 C 13.375 23.496094 11.960938 21.554688 10.457031 19.667969 C 10.183594 19.289062 10.183594 19.289062 10.183594 18.980469 Z M 10.183594 18.980469 "/>
<path style=" stroke:none;fill-rule:nonzero;fill:rgb(70.588237%,70.980394%,72.156864%);fill-opacity:1;" d="M 36.109375 16.667969 C 36.1875 16.820312 36.1875 16.820312 36.265625 16.976562 C 36.144531 17.316406 36.144531 17.316406 35.945312 17.742188 C 35.871094 17.90625 35.796875 18.066406 35.722656 18.234375 C 35.601562 18.5 35.601562 18.5 35.472656 18.769531 C 35.300781 19.148438 35.132812 19.527344 34.960938 19.910156 C 34.914062 20.007812 34.871094 20.109375 34.824219 20.210938 C 33.027344 24.238281 31.539062 28.300781 30.503906 32.585938 C 30.476562 32.691406 30.453125 32.792969 30.425781 32.902344 C 30.359375 33.183594 30.292969 33.46875 30.222656 33.753906 C 29.847656 35.210938 29.847656 35.210938 29.246094 35.75 C 29.144531 35.84375 29.039062 35.9375 28.933594 36.035156 C 28.773438 36.175781 28.773438 36.175781 28.605469 36.324219 C 28.5 36.421875 28.390625 36.519531 28.277344 36.621094 C 28.007812 36.867188 27.738281 37.105469 27.46875 37.34375 C 27.289062 36.800781 27.351562 36.65625 27.523438 36.125 C 27.574219 35.96875 27.625 35.8125 27.675781 35.65625 C 27.734375 35.484375 27.789062 35.316406 27.847656 35.144531 C 27.90625 34.96875 27.960938 34.792969 28.019531 34.613281 C 28.207031 34.039062 28.398438 33.46875 28.589844 32.898438 C 28.71875 32.507812 28.847656 32.117188 28.976562 31.726562 C 30.78125 26.285156 32.605469 21.28125 36.109375 16.667969 Z M 36.109375 16.667969 "/>
<path style=" stroke:none;fill-rule:nonzero;fill:rgb(98.431373%,98.431373%,98.431373%);fill-opacity:1;" d="M 19.136719 14.507812 C 19.714844 14.4375 19.980469 14.445312 20.457031 14.792969 C 20.980469 15.464844 21.054688 16.089844 21.191406 16.917969 C 21.253906 17.265625 21.316406 17.609375 21.378906 17.957031 C 21.414062 18.144531 21.449219 18.332031 21.484375 18.527344 C 21.679688 19.539062 21.917969 20.542969 22.148438 21.550781 C 22.230469 21.902344 22.3125 22.257812 22.394531 22.609375 C 22.609375 23.550781 22.828125 24.492188 23.054688 25.433594 C 23.789062 28.496094 23.789062 28.496094 23.246094 29.589844 C 22.945312 30.003906 22.707031 30.101562 22.222656 30.246094 C 22.273438 30.132812 22.324219 30.019531 22.375 29.898438 C 22.785156 28.363281 22.449219 26.878906 22.066406 25.367188 C 21.949219 24.914062 21.839844 24.457031 21.726562 24 C 21.671875 23.765625 21.613281 23.527344 21.554688 23.289062 C 21.25 22.042969 20.972656 20.789062 20.699219 19.53125 C 20.652344 19.328125 20.609375 19.125 20.566406 18.921875 C 20.347656 17.933594 20.148438 16.945312 19.996094 15.941406 C 19.847656 15.351562 19.527344 14.96875 19.136719 14.507812 Z M 19.136719 14.507812 "/>
<path style=" stroke:none;fill-rule:nonzero;fill:rgb(97.647059%,97.647059%,98.039216%);fill-opacity:1;" d="M 31.636719 11.726562 C 32.199219 11.921875 32.375 11.984375 32.714844 12.5 C 32.785156 13.453125 32.625 14.273438 32.378906 15.191406 C 32.324219 15.394531 32.324219 15.394531 32.273438 15.601562 C 32.027344 16.53125 31.761719 17.453125 31.484375 18.375 C 31.171875 19.421875 30.902344 20.480469 30.632812 21.539062 C 30 23.996094 30 23.996094 29.6875 25.046875 C 29.632812 25.230469 29.582031 25.410156 29.527344 25.597656 C 29.273438 26.195312 29.007812 26.542969 28.550781 27.007812 C 28.117188 27.160156 27.785156 27.144531 27.316406 27.160156 C 27.488281 27.054688 27.488281 27.054688 27.660156 26.949219 C 28.585938 26.066406 28.832031 24.625 29.148438 23.417969 C 29.226562 23.117188 29.308594 22.820312 29.386719 22.519531 C 29.425781 22.367188 29.46875 22.214844 29.507812 22.058594 C 29.699219 21.339844 29.894531 20.625 30.09375 19.90625 C 30.167969 19.628906 30.246094 19.347656 30.320312 19.066406 C 30.484375 18.472656 30.644531 17.882812 30.808594 17.289062 C 30.851562 17.140625 30.890625 16.988281 30.933594 16.832031 C 31.011719 16.546875 31.09375 16.257812 31.171875 15.972656 C 31.816406 13.871094 31.816406 13.871094 31.636719 11.726562 Z M 31.636719 11.726562 "/>
</g>
</svg>
