<?xml version="1.0" encoding="UTF-8"?>
<svg version="1.1" xmlns="http://www.w3.org/2000/svg" width="324" height="324">
<path d="M0 0 C1.53720703 0.75603516 1.53720703 0.75603516 3.10546875 1.52734375 C41.23009488 21.38735823 69.26906924 56.86089002 82.17749023 97.51660156 C95.52441146 141.83186942 88.34967226 186.6141836 67 227 C64.61590273 231.20995705 61.92692199 235.14783201 59 239 C58.35546875 239.85207031 57.7109375 240.70414062 57.046875 241.58203125 C52.31750414 247.64270139 47.2295369 253.36890938 42 259 C41.4225 259.64324219 40.845 260.28648437 40.25 260.94921875 C29.19525598 272.71956004 15.31412452 281.73054213 1 289 C0.38447266 289.31662598 -0.23105469 289.63325195 -0.86523438 289.95947266 C-20.63398377 300.0171653 -42.75572913 306.33209108 -65 307 C-66.27617187 307.03996094 -67.55234375 307.07992188 -68.8671875 307.12109375 C-111.11092014 307.99214928 -152.55790596 293.00054472 -183.234375 263.70703125 C-184.14703125 262.81371094 -185.0596875 261.92039062 -186 261 C-187.39992188 259.67548828 -187.39992188 259.67548828 -188.828125 258.32421875 C-216.76879087 231.35913479 -234.27198863 191.55037936 -235.203125 152.69921875 C-235.67174889 111.03618234 -224.44111152 72.01933054 -197 40 C-196.52836426 39.44860352 -196.05672852 38.89720703 -195.57080078 38.32910156 C-147.14018736 -17.5965306 -66.03889779 -32.56782805 0 0 Z " fill="#FEFEFE" transform="translate(235,17)"/>
<path d="M0 0 C1.53720703 0.75603516 1.53720703 0.75603516 3.10546875 1.52734375 C41.23009488 21.38735823 69.26906924 56.86089002 82.17749023 97.51660156 C95.52441146 141.83186942 88.34967226 186.6141836 67 227 C64.61590273 231.20995705 61.92692199 235.14783201 59 239 C58.35546875 239.85207031 57.7109375 240.70414062 57.046875 241.58203125 C52.31750414 247.64270139 47.2295369 253.36890938 42 259 C41.4225 259.64324219 40.845 260.28648437 40.25 260.94921875 C29.19525598 272.71956004 15.31412452 281.73054213 1 289 C0.38447266 289.31662598 -0.23105469 289.63325195 -0.86523438 289.95947266 C-20.63398377 300.0171653 -42.75572913 306.33209108 -65 307 C-66.27617187 307.03996094 -67.55234375 307.07992188 -68.8671875 307.12109375 C-111.11092014 307.99214928 -152.55790596 293.00054472 -183.234375 263.70703125 C-184.14703125 262.81371094 -185.0596875 261.92039062 -186 261 C-187.39992188 259.67548828 -187.39992188 259.67548828 -188.828125 258.32421875 C-216.76879087 231.35913479 -234.27198863 191.55037936 -235.203125 152.69921875 C-235.67174889 111.03618234 -224.44111152 72.01933054 -197 40 C-196.52836426 39.44860352 -196.05672852 38.89720703 -195.57080078 38.32910156 C-147.14018736 -17.5965306 -66.03889779 -32.56782805 0 0 Z M-168.796875 39.98828125 C-171 42 -171 42 -174.0625 44.375 C-198.21285378 65.95616721 -212.8911546 101.24928662 -215 133 C-216.53213348 173.13715152 -205.85604138 210.31997726 -178.375 240.3125 C-176.59310154 242.21785144 -174.79709879 244.10889912 -173 246 C-172.43023437 246.63421875 -171.86046875 247.2684375 -171.2734375 247.921875 C-150.88585971 269.877728 -120.00239726 281.90991833 -91 286 C-88.66711862 286.04592286 -86.33255875 286.06011749 -84 286 C-83.74347656 285.14921875 -83.48695313 284.2984375 -83.22265625 283.421875 C-73.52451356 252.72741665 -57.56161013 225.47352711 -29 209 C-30.0625 210.0625 -31.125 211.125 -32.1875 212.1875 C-32.83074219 212.83332031 -33.47398437 213.47914063 -34.13671875 214.14453125 C-35.57218766 215.57398142 -37.03129022 216.9797257 -38.5 218.375 C-44.03302525 224.18467651 -48.51044545 230.53435522 -52.52734375 237.46484375 C-53.51260791 239.16096162 -54.52610316 240.84097787 -55.56640625 242.50390625 C-64.32043547 256.52351695 -66.437411 269.57278707 -66 286 C-30.56612033 287.61334697 1.75870871 268.49829997 27.44921875 245.83984375 C47.28077437 226.89326628 61.106632 199.73382404 66 173 C66.28198488 171.60535395 66.56455916 170.21082696 66.84765625 168.81640625 C69.94381387 152.87837218 70.09542185 136.96956273 67 121 C66.87109375 120.31228516 66.7421875 119.62457031 66.609375 118.91601562 C59.35668666 80.87297912 37.64948485 48.019446 5.59985352 26.1159668 C-17.37835861 11.06826446 -43.90198591 2.73732791 -71.3125 2.875 C-72.32650879 2.87983398 -73.34051758 2.88466797 -74.38525391 2.88964844 C-110.02064612 3.17505123 -142.52728411 15.6599966 -168.796875 39.98828125 Z " fill="#B1B3B6" transform="translate(235,17)"/>
<path d="M0 0 C1.65 0.33 3.3 0.66 5 1 C4.58606754 6.17415574 3.53703284 10.82978493 2.0625 15.8125 C1.37335357 18.20786027 0.68579797 20.60367891 0 23 C-0.30292969 24.01191406 -0.60585937 25.02382813 -0.91796875 26.06640625 C-1.61448735 28.8332398 -2.10957143 31.14657745 -2 34 C-0.69898236 36.17253266 0.81915306 37.87574905 2.51464844 39.75048828 C5.83767956 44.78309984 4.47055564 51.66223952 3.33447266 57.30639648 C2.4240099 60.81414639 1.42016962 64.28005566 0.375 67.75 C-0.17792525 69.66365125 -0.73081586 71.57731508 -1.2800293 73.49203491 C-1.65028108 74.78257051 -2.02218608 76.07263295 -2.39575195 77.36221313 C-4.16637623 83.49670644 -5.73061036 89.67435543 -7.25 95.875 C-7.73290974 97.82946741 -8.21597615 99.78389611 -8.69921875 101.73828125 C-9.03252197 103.08913818 -9.03252197 103.08913818 -9.37255859 104.46728516 C-11.50921351 113.09205484 -13.7983194 121.65863294 -16.5 130.125 C-16.8815625 131.32382813 -17.263125 132.52265625 -17.65625 133.7578125 C-19.5361535 138.29362617 -21.40050676 141.28533281 -25.9375 143.3125 C-28.75781747 143.94563249 -31.12507638 144.16911315 -34 144 C-34.16435547 145.76923828 -34.16435547 145.76923828 -34.33203125 147.57421875 C-35.09094061 154.38056287 -36.42467528 161.08547683 -37.6875 167.8125 C-39.43270983 177.13036933 -41.10013531 186.44662613 -42.51953125 195.8203125 C-42.77030983 197.44299567 -43.02136527 199.06563608 -43.27270508 200.68823242 C-43.6363827 203.03819315 -43.9930101 205.38796736 -44.32528687 207.74258423 C-46.81791407 225.38424235 -46.81791407 225.38424235 -53 232 C-53.99 232 -54.98 232 -56 232 C-59.14002773 217.22922525 -62.11428731 202.43228884 -64.94384766 187.59936523 C-65.9528942 182.32789652 -66.96118892 177.0682425 -68.17578125 171.83984375 C-69 168 -69 168 -69 164 C-69.86625 164.0825 -70.7325 164.165 -71.625 164.25 C-76.72175839 163.87246234 -79.54385001 161.48141115 -83.0546875 157.90966797 C-85.60992471 154.08771553 -86.22598741 150.6129895 -87 146.1328125 C-87.16115295 145.2694075 -87.32230591 144.4060025 -87.48834229 143.51643372 C-88.00633359 140.72166993 -88.50330369 137.92361919 -89 135.125 C-89.35258127 133.20232388 -89.70642578 131.27987898 -90.06152344 129.35766602 C-92.02488312 118.67547066 -93.91320907 107.97881159 -95.69433594 97.26464844 C-96.63283377 91.72517031 -97.86770686 86.3187328 -99.25 80.875 C-100.93716052 73.99339575 -102.53448014 67.04287037 -101 60 C-99.33573084 57.62478091 -97.68986996 55.89067504 -95.43359375 54.07421875 C-93.54636499 51.3436507 -93.97023382 49.46785252 -94.52709961 46.28979492 C-94.7611853 45.15634644 -94.7611853 45.15634644 -95 44 C-95.1554126 43.19473877 -95.3108252 42.38947754 -95.47094727 41.55981445 C-96.1571069 38.08560958 -96.89035087 34.62201786 -97.62695312 31.15820312 C-97.80291016 30.30806641 -97.97886719 29.45792969 -98.16015625 28.58203125 C-98.32136963 27.82124268 -98.48258301 27.0604541 -98.64868164 26.27661133 C-99.0278953 23.81923301 -99.05886891 21.48262524 -99 19 C-97.68 19 -96.36 19 -95 19 C-93.06949155 24.41264052 -91.71373309 29.91935102 -90.375 35.5 C-90.14554688 36.42425781 -89.91609375 37.34851563 -89.6796875 38.30078125 C-88.56037676 42.95791346 -87.69416365 47.17100506 -88 52 C-87.01 51.8453125 -87.01 51.8453125 -86 51.6875 C-81.62189174 52.14355294 -78.1132327 53.87374122 -75 57 C-71.31270655 64.67947939 -70.05227682 73.33343825 -68.3125 81.625 C-67.96724198 83.24734521 -67.62144802 84.86957644 -67.27514648 86.49169922 C-66.17433365 91.65922781 -65.08608175 96.82935805 -64 102 C-63.8131665 102.88880859 -63.62633301 103.77761719 -63.43383789 104.69335938 C-62.8671587 107.3892827 -62.30074924 110.08526259 -61.734375 112.78125 C-61.55114182 113.65300873 -61.36790863 114.52476746 -61.17912292 115.42294312 C-60.29139072 119.64792795 -59.40617888 123.87340506 -58.52661133 128.10009766 C-58.2065493 129.63183726 -57.88648126 131.16357561 -57.56640625 132.6953125 C-57.42197083 133.39362183 -57.2775354 134.09193115 -57.12872314 134.81140137 C-56.5428387 137.60866854 -55.90494053 140.28517842 -55 143 C-53.99388171 152.96057104 -53.99388171 152.96057104 -56.01171875 157.05078125 C-58.05849113 159.52780608 -60.33363453 161.22242302 -63 163 C-59.83272277 180.3680855 -56.51890577 197.69965622 -53 215 C-50.7962301 205.30809137 -49.12075629 195.64749859 -47.6875 185.8125 C-45.48463996 171.03179348 -42.47778499 156.53789769 -39 142 C-39.62865967 141.70359619 -40.25731934 141.40719238 -40.9050293 141.10180664 C-44.64687362 139.13386078 -46.44721983 135.84560875 -48 132 C-48.48363497 126.63260014 -46.67068007 121.73954057 -44.8828125 116.7578125 C-43.7363925 113.17651818 -42.89971895 109.53773102 -42.0625 105.875 C-40.38072323 98.54462952 -38.51324747 91.28235909 -36.54296875 84.0234375 C-35.74140217 81.0363045 -34.96910842 78.04171097 -34.19311523 75.04785156 C-33.14660093 71.02709741 -32.07699409 67.01268474 -31 63 C-30.7922998 62.22205078 -30.58459961 61.44410156 -30.37060547 60.64257812 C-24.23432049 37.90138124 -24.23432049 37.90138124 -16 33 C-13.67536714 32.30360146 -11.34251977 31.6336324 -9 31 C-8.79842285 30.16750732 -8.5968457 29.33501465 -8.38916016 28.47729492 C-7.63723944 25.38431376 -6.87999805 22.29269815 -6.11914062 19.2019043 C-5.79115913 17.86486114 -5.46529303 16.52729721 -5.14160156 15.18920898 C-4.6755149 13.26409951 -4.20114148 11.34100231 -3.7265625 9.41796875 C-3.44377441 8.26063232 -3.16098633 7.1032959 -2.86962891 5.91088867 C-2 3 -2 3 0 0 Z " fill="#B3B4B7" transform="translate(212,37)"/>
<path d="M0 0 C11.861463 5.17591113 19.01752379 14.11447006 26.62695312 24.19189453 C27.94831562 25.9319391 29.28958964 27.65402676 30.640625 29.37109375 C42.93660238 45.03688919 53.41789503 61.88070457 61.97753906 79.85595703 C62.66514173 81.29782108 63.35994097 82.73627299 64.06152344 84.17138672 C74.46450205 105.52413123 88.93208446 136.79426266 87 161 C86.0355414 163.34824702 85.03485877 165.68191636 84 168 C83.60235737 169.98821313 83.24544834 171.98732362 83 174 C81.61432034 171.36308328 80.55186694 168.81567893 79.6953125 165.96484375 C70.85313984 137.50734283 58.0024198 111.65828107 39.96875 87.9765625 C37.77250934 85.0838539 35.77272318 82.17823941 34 79 C46.77918745 83.51426481 54.21583629 96.61099752 61.64648438 107.17163086 C63.0123881 109.1107894 63.0123881 109.1107894 65 111 C61.0486547 102.27589234 56.91068826 93.68945356 52.5 85.1875 C51.89905518 84.02895508 51.29811035 82.87041016 50.67895508 81.67675781 C44.98050342 70.7623813 38.83615775 60.12453596 32.52197266 49.55615234 C31.18010261 47.30248225 29.85664198 45.03970388 28.54296875 42.76953125 C20.67666669 29.25616202 11.49615988 16.66577318 1.765625 4.44140625 C0 2 0 2 0 0 Z " fill="#B3B5B8" transform="translate(66,123)"/>
<path d="M0 0 C0.495 0.99 0.495 0.99 1 2 C0.21826172 4.19775391 0.21826172 4.19775391 -1.0703125 6.9765625 C-1.54831299 8.02376465 -2.02631348 9.0709668 -2.51879883 10.14990234 C-3.31386841 11.87007568 -3.31386841 11.87007568 -4.125 13.625 C-5.23975693 16.08681728 -6.35154174 18.54966181 -7.45703125 21.015625 C-7.74642075 21.66087128 -8.03581024 22.30611755 -8.33396912 22.97091675 C-19.97676844 49.05983797 -29.62449704 75.38316696 -36.3371582 103.1640625 C-36.49978149 103.83583023 -36.66240479 104.50759796 -36.82995605 105.19972229 C-37.27302991 107.03725251 -37.71149849 108.87589142 -38.1496582 110.71459961 C-40.59470694 120.16134691 -40.59470694 120.16134691 -44.4765625 123.6484375 C-45.146875 124.26074219 -45.8171875 124.87304688 -46.5078125 125.50390625 C-47.55582031 126.43009766 -47.55582031 126.43009766 -48.625 127.375 C-49.33140625 128.01566406 -50.0378125 128.65632812 -50.765625 129.31640625 C-52.50147796 130.8880569 -54.24610381 132.4485499 -56 134 C-57.17535962 130.47392115 -56.76962363 129.5412759 -55.63574219 126.08666992 C-55.31040497 125.08157379 -54.98506775 124.07647766 -54.64987183 123.04092407 C-54.28588287 121.94847382 -53.92189392 120.85602356 -53.546875 119.73046875 C-53.1755545 118.59419037 -52.80423401 117.45791199 -52.42166138 116.28720093 C-51.20773608 112.58393653 -49.97982289 108.88551283 -48.75 105.1875 C-47.91419655 102.65813123 -47.07842182 100.12875297 -46.24267578 97.59936523 C-34.54890232 62.32099722 -22.72423471 29.89276301 0 0 Z " fill="#B4B5B8" transform="translate(234,108)"/>
<path d="M0 0 C3.74118429 -0.43502143 5.46639996 -0.38637198 8.5625 1.85546875 C11.94454842 6.21852801 12.43643922 10.25651658 13.3125 15.625 C13.71890702 17.86941012 14.13068835 20.1128515 14.546875 22.35546875 C14.77181641 23.57411621 14.99675781 24.79276367 15.22851562 26.04833984 C16.48300353 32.61949655 18.02089339 39.13039782 19.53158569 45.64639282 C20.06116551 47.93174114 20.58644958 50.21803856 21.1105957 52.50463867 C22.51298996 58.6141512 23.92469241 64.72064197 25.40234375 70.8125 C30.1581762 90.64643767 30.1581762 90.64643767 26.640625 97.7421875 C24.69073993 100.42560077 23.1350944 101.06794491 20 102 C20.33 101.2575 20.66 100.515 21 99.75 C23.65810017 89.78212435 21.46209118 80.17090484 18.98028564 70.39016724 C18.23215688 67.4403459 17.51505221 64.48323732 16.79632568 61.52613831 C16.42327245 59.99148104 16.04879335 58.4571697 15.6729126 56.92320251 C13.69561544 48.83079831 11.89637055 40.70204483 10.125 32.5625 C9.83653692 31.24836586 9.54804489 29.93423808 9.25952148 28.62011719 C7.86230531 22.20004503 6.56510049 15.8012493 5.58398438 9.30322266 C4.61109124 5.46615165 2.53006876 2.99613406 0 0 Z " fill="#FBFBFB" transform="translate(124,94)"/>
<path d="M0 0 C3.65316671 1.24976756 4.78065836 1.67098753 7 5 C7.44987242 11.18406718 6.40173455 16.48283313 4.8125 22.4375 C4.4719458 23.75609009 4.4719458 23.75609009 4.12451172 25.10131836 C2.54885527 31.13008265 0.82343698 37.10684008 -0.9831543 43.06982422 C-3.01366265 49.85173774 -4.74916801 56.70397768 -6.5 63.5625 C-10.60438706 79.49951313 -10.60438706 79.49951313 -12.625 86.3125 C-12.96789062 87.48425781 -13.31078125 88.65601563 -13.6640625 89.86328125 C-15.3177313 93.74601823 -17.0201122 96.00234834 -20 99 C-22.80985578 100.01017503 -24.96366641 99.89707344 -28 100 C-26.88625 99.319375 -26.88625 99.319375 -25.75 98.625 C-19.76708192 92.91403274 -18.16092842 83.56201747 -16.125 75.75 C-15.60693292 73.80724844 -15.08869903 71.86454135 -14.5703125 69.921875 C-14.31024414 68.93896484 -14.05017578 67.95605469 -13.78222656 66.94335938 C-12.5452998 62.28905568 -11.27139817 57.64498027 -10 53 C-9.50508533 51.18362726 -9.0102942 49.36722085 -8.515625 47.55078125 C-7.46933138 43.71323305 -6.41626017 39.87761299 -5.359375 36.04296875 C-5.08996094 35.06263672 -4.82054687 34.08230469 -4.54296875 33.07226562 C-4.0317263 31.21240086 -3.51883029 29.35298946 -3.00390625 27.49414062 C1.17143893 13.88260673 1.17143893 13.88260673 0 0 Z " fill="#F9F9FA" transform="translate(205,76)"/>
</svg>
