<?xml version="1.0" encoding="UTF-8"?>
<svg xmlns="http://www.w3.org/2000/svg" xmlns:xlink="http://www.w3.org/1999/xlink" width="50px" height="50px" viewBox="0 0 50 50" version="1.1">
<g id="surface1">
<path style=" stroke:none;fill-rule:nonzero;fill:rgb(99.607843%,99.607843%,99.607843%);fill-opacity:1;" d="M 41.972656 6.621094 C 42.644531 7.234375 43.296875 7.855469 43.867188 8.5625 C 43.972656 8.683594 44.074219 8.804688 44.175781 8.925781 C 48.511719 14.085938 50.464844 20.757812 49.898438 27.4375 C 49.390625 32.703125 47.1875 37.71875 43.65625 41.648438 C 43.601562 41.710938 43.542969 41.773438 43.488281 41.839844 C 42.839844 42.558594 42.191406 43.257812 41.4375 43.867188 C 41.316406 43.972656 41.195312 44.074219 41.074219 44.175781 C 40.082031 45.007812 39.058594 45.742188 37.949219 46.40625 C 37.875 46.453125 37.796875 46.496094 37.71875 46.542969 C 34.632812 48.375 31.164062 49.53125 27.589844 49.894531 C 27.484375 49.90625 27.382812 49.917969 27.273438 49.929688 C 21.0625 50.527344 14.609375 48.671875 9.699219 44.820312 C 9.53125 44.679688 9.363281 44.539062 9.195312 44.398438 C 9.078125 44.300781 8.960938 44.203125 8.84375 44.105469 C 7.746094 43.183594 6.726562 42.21875 5.832031 41.089844 C 5.6875 40.90625 5.539062 40.730469 5.382812 40.554688 C 1.296875 35.835938 -0.371094 29.230469 0.0234375 23.101562 C 0.441406 18.058594 2.300781 13.074219 5.601562 9.195312 C 5.699219 9.078125 5.796875 8.960938 5.894531 8.84375 C 6.816406 7.746094 7.78125 6.726562 8.910156 5.832031 C 9.09375 5.683594 9.277344 5.53125 9.457031 5.375 C 17.003906 -1.109375 28.9375 -1.679688 41.972656 6.621094 Z M 41.972656 6.621094 "/>
<path style=" stroke:none;fill-rule:nonzero;fill:rgb(41.960785%,75.686276%,50.980395%);fill-opacity:1;" d="M 41.972656 6.621094 C 42.644531 7.234375 43.296875 7.855469 43.867188 8.5625 C 43.972656 8.683594 44.074219 8.804688 44.175781 8.925781 C 48.511719 14.085938 50.464844 20.757812 49.898438 27.4375 C 49.390625 32.703125 47.1875 37.71875 43.65625 41.648438 C 43.601562 41.710938 43.542969 41.773438 43.488281 41.839844 C 42.839844 42.558594 42.191406 43.257812 41.4375 43.867188 C 41.316406 43.972656 41.195312 44.074219 41.074219 44.175781 C 40.082031 45.007812 39.058594 45.742188 37.949219 46.40625 C 37.875 46.453125 37.796875 46.496094 37.71875 46.542969 C 34.632812 48.375 31.164062 49.53125 27.589844 49.894531 C 27.484375 49.90625 27.382812 49.917969 27.273438 49.929688 C 21.0625 50.527344 14.609375 48.671875 9.699219 44.820312 C 9.53125 44.679688 9.363281 44.539062 9.195312 44.398438 C 9.078125 44.300781 8.960938 44.203125 8.84375 44.105469 C 7.746094 43.183594 6.726562 42.21875 5.832031 41.089844 C 5.6875 40.90625 5.539062 40.730469 5.382812 40.554688 C 1.296875 35.835938 -0.371094 29.230469 0.0234375 23.101562 C 0.441406 18.058594 2.300781 13.074219 5.601562 9.195312 C 5.699219 9.078125 5.796875 8.960938 5.894531 8.84375 C 6.816406 7.746094 7.78125 6.726562 8.910156 5.832031 C 9.09375 5.683594 9.277344 5.53125 9.457031 5.375 C 17.003906 -1.109375 28.9375 -1.679688 41.972656 6.621094 Z M 15.75 5.183594 C 15.554688 5.277344 15.355469 5.367188 15.160156 5.457031 C 12.449219 6.738281 9.84375 8.824219 8.035156 11.203125 C 7.949219 11.308594 7.867188 11.410156 7.78125 11.515625 C 5.035156 14.925781 3.25 19.386719 3.171875 23.785156 C 3.167969 23.890625 3.167969 24 3.164062 24.109375 C 3.066406 29.871094 4.808594 35.320312 8.765625 39.613281 C 8.964844 39.832031 9.15625 40.054688 9.347656 40.28125 C 12.710938 44.109375 18.0625 46.332031 23.042969 46.828125 C 23.644531 46.863281 24.242188 46.863281 24.839844 46.863281 C 24.921875 46.863281 25.003906 46.859375 25.085938 46.859375 C 30.71875 46.832031 35.96875 44.648438 40.0625 40.804688 C 40.117188 40.75 40.175781 40.699219 40.230469 40.644531 C 43.921875 37.167969 46.066406 32.472656 46.722656 27.484375 C 46.742188 27.351562 46.761719 27.214844 46.78125 27.078125 C 47.109375 24.378906 46.785156 21.402344 45.984375 18.816406 C 45.957031 18.730469 45.929688 18.644531 45.902344 18.558594 C 44.898438 15.347656 43.191406 12.40625 40.847656 9.988281 C 40.691406 9.824219 40.539062 9.660156 40.382812 9.496094 C 36.621094 5.554688 31.066406 3.273438 25.65625 3.128906 C 22.207031 3.058594 18.871094 3.679688 15.75 5.183594 Z M 15.75 5.183594 "/>
<path style=" stroke:none;fill-rule:nonzero;fill:rgb(41.960785%,75.686276%,50.980395%);fill-opacity:1;" d="M 38.371094 11.734375 C 38.863281 11.929688 39.210938 12.152344 39.632812 12.457031 C 39.703125 12.5 39.777344 12.539062 39.851562 12.578125 C 40.246094 12.449219 40.292969 12.300781 40.484375 11.945312 C 40.554688 11.980469 40.625 12.015625 40.699219 12.050781 C 40.695312 12.1875 40.691406 12.320312 40.691406 12.460938 C 40.746094 13.125 41.210938 13.460938 41.671875 13.882812 C 41.925781 14.128906 42.125 14.359375 42.324219 14.648438 C 42.550781 14.972656 42.730469 15.128906 43.128906 15.222656 C 43.132812 15.414062 43.132812 15.414062 43.136719 15.613281 C 43.238281 16.550781 43.832031 17.527344 44.503906 18.183594 C 44.714844 18.289062 44.925781 18.394531 45.136719 18.5 C 45.449219 18.792969 45.546875 18.957031 45.621094 19.382812 C 45.546875 19.863281 45.359375 20.15625 45.03125 20.507812 C 44.726562 20.660156 44.527344 20.644531 44.1875 20.613281 C 43.882812 20.5 43.597656 20.351562 43.308594 20.203125 C 42.488281 19.78125 41.738281 19.546875 40.808594 19.523438 C 40.148438 19.476562 39.675781 19.25 39.113281 18.921875 C 38.972656 18.851562 38.832031 18.78125 38.6875 18.710938 C 38.65625 18.832031 38.621094 18.953125 38.582031 19.082031 C 38.109375 20.5 37.316406 21.875 36.398438 23.042969 C 35.820312 23.804688 35.632812 24.421875 35.59375 25.367188 C 35.539062 26.152344 35.304688 26.820312 35.015625 27.550781 C 34.96875 27.671875 34.925781 27.789062 34.878906 27.914062 C 34.625 28.578125 34.347656 29.222656 34.027344 29.859375 C 33.914062 30.179688 33.90625 30.425781 33.933594 30.761719 C 34.09375 31.058594 34.09375 31.058594 34.320312 31.335938 C 34.398438 31.4375 34.476562 31.539062 34.554688 31.640625 C 34.6875 31.808594 34.816406 31.972656 34.953125 32.136719 C 35.1875 32.4375 35.304688 32.65625 35.378906 33.035156 C 35.222656 33.820312 34.578125 34.234375 33.960938 34.691406 C 33.722656 34.882812 33.515625 35.085938 33.304688 35.304688 C 32.554688 36.078125 31.636719 36.785156 30.53125 36.824219 C 29.980469 36.8125 29.480469 36.699219 28.949219 36.554688 C 28.671875 36.476562 28.390625 36.414062 28.105469 36.355469 C 27.695312 36.257812 27.695312 36.257812 27.484375 36.046875 C 27.496094 35.726562 27.601562 35.609375 27.816406 35.371094 C 27.910156 35.285156 28.003906 35.203125 28.097656 35.113281 C 28.191406 35.027344 28.28125 34.945312 28.378906 34.855469 C 28.648438 34.671875 28.648438 34.671875 28.875 34.683594 C 29.15625 34.820312 29.371094 34.992188 29.597656 35.199219 C 29.597656 35.269531 29.597656 35.339844 29.597656 35.414062 C 31.085938 35.414062 31.085938 35.414062 32.375 34.828125 C 32.800781 34.226562 33.046875 33.636719 33.035156 32.898438 C 32.964844 32.601562 32.878906 32.535156 32.625 32.375 C 32.464844 32.289062 32.300781 32.210938 32.136719 32.136719 C 31.507812 31.851562 31.054688 31.597656 30.574219 31.089844 C 30.273438 30.804688 30.113281 30.667969 29.695312 30.617188 C 29.382812 30.644531 29.070312 30.6875 28.757812 30.734375 C 26.582031 31 24.535156 30.523438 22.625 29.492188 C 22.410156 29.386719 22.214844 29.328125 21.988281 29.28125 C 21.945312 29.878906 21.910156 30.480469 21.882812 31.078125 C 21.878906 31.160156 21.871094 31.242188 21.867188 31.324219 C 21.773438 32.503906 21.773438 32.503906 22.214844 33.554688 C 22.910156 34.140625 23.789062 34.402344 24.640625 34.675781 C 25.472656 34.957031 26.152344 35.292969 26.636719 36.046875 C 26.78125 36.472656 26.785156 36.886719 26.808594 37.335938 C 26.832031 37.652344 26.832031 37.652344 27.0625 37.949219 C 27.082031 38.234375 27.082031 38.234375 27.074219 38.550781 C 27.074219 38.65625 27.070312 38.761719 27.070312 38.867188 C 27.066406 38.949219 27.0625 39.03125 27.0625 39.113281 C 26.324219 38.855469 25.691406 38.40625 25.160156 37.84375 C 25.078125 37.515625 25.09375 37.277344 25.136719 36.945312 C 25.183594 36.652344 25.183594 36.652344 24.980469 36.3125 C 24.472656 35.765625 23.957031 35.65625 23.25 35.53125 C 22.472656 35.382812 21.703125 35.226562 20.9375 35.042969 C 20.804688 35.011719 20.804688 35.011719 20.667969 34.980469 C 20 34.816406 19.609375 34.617188 19.234375 34.007812 C 19.167969 33.875 19.101562 33.742188 19.035156 33.609375 C 18.960938 33.464844 18.886719 33.324219 18.8125 33.183594 C 18.761719 33.078125 18.761719 33.078125 18.707031 32.96875 C 17.828125 31.1875 17.828125 31.1875 16.234375 30.105469 C 15 29.609375 13.941406 28.84375 13.003906 27.90625 C 12.945312 27.851562 12.890625 27.800781 12.835938 27.742188 C 12.136719 26.996094 11.984375 26.035156 11.945312 25.054688 C 11.578125 24.949219 11.367188 24.898438 10.992188 24.945312 C 10.558594 25.214844 10.199219 25.550781 9.832031 25.898438 C 9.140625 26.53125 9.140625 26.53125 8.667969 26.53125 C 8.738281 26.359375 8.808594 26.183594 8.878906 26.003906 C 8.808594 26.027344 8.734375 26.050781 8.660156 26.074219 C 8.515625 26.117188 8.515625 26.117188 8.371094 26.164062 C 8.277344 26.191406 8.183594 26.222656 8.085938 26.253906 C 7.824219 26.320312 7.824219 26.320312 7.503906 26.320312 C 7.539062 26.148438 7.574219 25.972656 7.609375 25.792969 C 7.785156 25.757812 7.960938 25.722656 8.140625 25.6875 C 8.140625 25.617188 8.140625 25.546875 8.140625 25.476562 C 7.359375 25.628906 6.695312 25.78125 6.023438 26.214844 C 5.957031 26.214844 5.886719 26.214844 5.8125 26.214844 C 5.8125 25.976562 5.8125 25.976562 5.917969 25.6875 C 6.128906 25.554688 6.34375 25.457031 6.574219 25.359375 C 6.785156 25.277344 6.785156 25.277344 6.871094 25.054688 C 5.949219 25.289062 5.140625 25.566406 4.296875 25.996094 C 4.015625 26.109375 4.015625 26.109375 3.699219 26.003906 C 4.792969 24.855469 6.308594 24.324219 7.824219 23.996094 C 7.941406 23.96875 7.941406 23.96875 8.0625 23.941406 C 8.402344 23.882812 8.726562 23.871094 9.070312 23.867188 C 9.277344 23.863281 9.277344 23.863281 9.488281 23.859375 C 9.707031 23.855469 9.921875 23.851562 10.140625 23.847656 C 11.25 23.855469 11.25 23.855469 12.261719 23.46875 C 12.460938 23.265625 12.460938 23.265625 12.605469 23.03125 C 13.542969 21.753906 15.332031 20.566406 16.914062 20.253906 C 17.640625 20.160156 18.375 20.171875 19.105469 20.171875 C 19.292969 20.167969 19.292969 20.167969 19.480469 20.167969 C 20.234375 20.164062 20.96875 20.210938 21.71875 20.292969 C 23.019531 20.425781 24.324219 20.46875 25.628906 20.484375 C 26 20.488281 26.367188 20.496094 26.734375 20.507812 C 28.410156 20.664062 28.410156 20.664062 29.910156 20.132812 C 30.191406 19.835938 30.367188 19.5 30.550781 19.132812 C 30.699219 18.9375 30.851562 18.742188 31.011719 18.550781 C 31.089844 18.457031 31.167969 18.363281 31.246094 18.265625 C 33.015625 16.21875 35.617188 13.882812 38.371094 13.425781 C 38.371094 12.867188 38.371094 12.308594 38.371094 11.734375 Z M 38.371094 11.734375 "/>
<path style=" stroke:none;fill-rule:nonzero;fill:rgb(43.137255%,76.078433%,51.764709%);fill-opacity:1;" d="M 17.441406 32.03125 C 17.710938 32.269531 17.855469 32.503906 18.011719 32.828125 C 18.054688 32.921875 18.101562 33.015625 18.144531 33.109375 C 18.191406 33.207031 18.238281 33.304688 18.289062 33.402344 C 18.382812 33.59375 18.480469 33.789062 18.578125 33.980469 C 18.714844 34.246094 18.828125 34.492188 18.921875 34.777344 C 18.988281 34.8125 19.058594 34.84375 19.128906 34.878906 C 19.402344 35.019531 19.425781 35.125 19.523438 35.414062 C 20.125 36.871094 21.585938 37.785156 22.941406 38.460938 C 24.164062 39.078125 24.609375 39.976562 25.179688 41.179688 C 25.273438 41.460938 25.261719 41.585938 25.160156 41.859375 C 23.40625 41.476562 23.40625 41.476562 23.042969 41.121094 C 23.007812 40.90625 23.007812 40.90625 23.003906 40.664062 C 22.996094 40.332031 22.980469 40.210938 22.746094 39.96875 C 22.265625 39.628906 21.75 39.359375 21.226562 39.085938 C 20.460938 38.683594 19.789062 38.179688 19.097656 37.65625 C 18.835938 37.460938 18.5625 37.285156 18.289062 37.105469 C 17.777344 36.714844 17.292969 36.324219 17.183594 35.664062 C 17.238281 35.363281 17.359375 35.226562 17.546875 34.988281 C 17.800781 34.023438 17.683594 32.984375 17.441406 32.03125 Z M 17.441406 32.03125 "/>
<path style=" stroke:none;fill-rule:nonzero;fill:rgb(43.137255%,76.078433%,52.156866%);fill-opacity:1;" d="M 35.414062 28.328125 C 38.882812 28.800781 38.882812 28.800781 39.640625 29.703125 C 39.730469 30.304688 39.539062 30.757812 39.339844 31.320312 C 39.164062 31.890625 39.0625 32.476562 38.96875 33.066406 C 38.808594 33.980469 38.425781 34.574219 37.703125 35.148438 C 37.523438 35.308594 37.40625 35.464844 37.273438 35.671875 C 36.960938 36.140625 36.519531 36.480469 36.046875 36.785156 C 35.976562 36.785156 35.90625 36.785156 35.835938 36.785156 C 35.796875 36.082031 35.839844 35.285156 36.289062 34.707031 C 36.46875 34.566406 36.46875 34.566406 36.726562 34.472656 C 37.273438 34.234375 37.5625 33.699219 37.84375 33.191406 C 37.976562 32.769531 38.027344 32.367188 38.054688 31.925781 C 38.0625 31.816406 38.070312 31.707031 38.082031 31.597656 C 38.101562 31.175781 38.101562 31.175781 38.054688 30.761719 C 37.628906 30.339844 37.164062 30.324219 36.589844 30.304688 C 36.472656 30.300781 36.355469 30.296875 36.234375 30.292969 C 36.109375 30.289062 35.988281 30.28125 35.863281 30.277344 C 35.738281 30.273438 35.613281 30.269531 35.484375 30.265625 C 35.179688 30.253906 34.871094 30.242188 34.566406 30.234375 C 34.710938 29.773438 34.890625 29.355469 35.109375 28.925781 C 35.164062 28.8125 35.222656 28.699219 35.28125 28.585938 C 35.324219 28.5 35.367188 28.417969 35.414062 28.328125 Z M 35.414062 28.328125 "/>
<path style=" stroke:none;fill-rule:nonzero;fill:rgb(43.921569%,76.47059%,52.549022%);fill-opacity:1;" d="M 36.46875 11.945312 C 37.375 12.035156 37.375 12.035156 37.738281 12.261719 C 37.738281 12.472656 37.738281 12.679688 37.738281 12.894531 C 37.632812 12.941406 37.527344 12.984375 37.417969 13.027344 C 35.007812 14.035156 32.796875 15.613281 31.097656 17.605469 C 30.574219 18.207031 30.0625 18.375 29.28125 18.5 C 29.28125 18.394531 29.28125 18.289062 29.28125 18.183594 C 29.378906 18.128906 29.378906 18.128906 29.476562 18.078125 C 29.5625 18.03125 29.648438 17.984375 29.738281 17.9375 C 29.820312 17.890625 29.90625 17.847656 29.992188 17.800781 C 30.21875 17.660156 30.386719 17.542969 30.550781 17.335938 C 30.550781 17.230469 30.550781 17.125 30.550781 17.019531 C 30.027344 17.070312 30.027344 17.070312 29.492188 17.125 C 29.492188 17.019531 29.492188 16.914062 29.492188 16.808594 C 30.046875 16.316406 30.972656 15.960938 31.710938 15.960938 C 31.746094 15.753906 31.78125 15.542969 31.816406 15.328125 C 31.328125 15.328125 30.839844 15.328125 30.339844 15.328125 C 31.054688 14.5 31.921875 14.4375 32.960938 14.347656 C 33.128906 14.308594 33.128906 14.308594 33.296875 14.269531 C 33.367188 14.132812 33.4375 13.992188 33.507812 13.847656 C 33.125 13.8125 32.742188 13.777344 32.347656 13.742188 C 32.453125 13.320312 32.453125 13.320312 32.65625 13.1875 C 33.214844 13.050781 33.78125 13.105469 34.351562 13.125 C 34.441406 13.128906 34.535156 13.128906 34.628906 13.132812 C 34.757812 13.136719 34.757812 13.136719 34.886719 13.140625 C 34.953125 13.128906 35.023438 13.117188 35.09375 13.109375 C 35.164062 13.003906 35.234375 12.898438 35.304688 12.789062 C 35.097656 12.753906 34.886719 12.722656 34.671875 12.683594 C 34.621094 12.476562 34.621094 12.476562 34.566406 12.261719 C 35.6875 12.207031 35.6875 12.207031 36.132812 12.421875 C 36.488281 12.589844 36.714844 12.609375 37.105469 12.578125 C 37.136719 12.507812 37.171875 12.441406 37.210938 12.367188 C 36.964844 12.296875 36.722656 12.226562 36.46875 12.15625 C 36.46875 12.085938 36.46875 12.015625 36.46875 11.945312 Z M 36.46875 11.945312 "/>
<path style=" stroke:none;fill-rule:nonzero;fill:rgb(97.647059%,98.823529%,98.039216%);fill-opacity:1;" d="M 40.910156 15.222656 C 41.390625 15.28125 41.390625 15.28125 41.542969 15.433594 C 41.5625 15.691406 41.5625 15.691406 41.542969 15.960938 C 41.332031 16.171875 41.332031 16.171875 41.0625 16.191406 C 40.804688 16.171875 40.804688 16.171875 40.699219 16.066406 C 40.679688 15.757812 40.679688 15.757812 40.699219 15.433594 C 40.765625 15.363281 40.835938 15.292969 40.910156 15.222656 Z M 40.910156 15.222656 "/>
<path style=" stroke:none;fill-rule:nonzero;fill:rgb(96.078432%,98.039216%,96.862745%);fill-opacity:1;" d="M 38.902344 12.578125 C 39.097656 12.613281 39.097656 12.613281 39.324219 12.683594 C 39.535156 13.003906 39.535156 13.003906 39.535156 13.425781 C 39.394531 13.460938 39.253906 13.496094 39.113281 13.53125 C 38.871094 13.167969 38.882812 13.003906 38.902344 12.578125 Z M 38.902344 12.578125 "/>
</g>
</svg>
