<?xml version="1.0" encoding="UTF-8"?>
<svg version="1.1" xmlns="http://www.w3.org/2000/svg" width="473" height="473">
<path d="M0 0 C6.35623289 5.80318209 12.5009126 11.66021947 17.92578125 18.35546875 C18.89621299 19.50338461 19.86767666 20.65042843 20.83984375 21.796875 C61.84369085 70.61243518 80.30546187 133.70606929 74.98022461 196.91870117 C70.16590127 246.71624716 49.30235533 294.167921 15.92578125 331.35546875 C15.39275391 331.95020996 14.85972656 332.54495117 14.31054688 333.15771484 C8.17880247 339.96067517 2.04277104 346.5684215 -5.07421875 352.35546875 C-6.22329813 353.32736661 -7.37166203 354.30011066 -8.51953125 355.2734375 C-17.88472629 363.13705495 -27.59334832 370.05893143 -38.07421875 376.35546875 C-38.78803711 376.78456543 -39.50185547 377.21366211 -40.23730469 377.65576172 C-69.4481053 394.99187956 -102.26961018 405.91906646 -136.07421875 409.35546875 C-137.06164062 409.46632813 -138.0490625 409.5771875 -139.06640625 409.69140625 C-197.81368011 415.33724815 -258.86810543 397.79754144 -305.32421875 361.35546875 C-306.91597464 360.03220181 -308.49856869 358.69787298 -310.07421875 357.35546875 C-311.18198989 356.43192957 -312.29008743 355.50878181 -313.3984375 354.5859375 C-323.80628374 345.85947889 -333.44928302 336.736781 -341.9140625 326.0625 C-343.28645971 324.34266046 -344.69229858 322.64859106 -346.140625 320.9921875 C-384.80505143 276.34652383 -400.57465826 213.85792606 -396.8515625 155.88867188 C-392.91495633 108.17811399 -375.31940812 61.02958196 -344.07421875 24.35546875 C-343.15067957 23.24769761 -342.22753181 22.13960007 -341.3046875 21.03125 C-332.58105982 10.62678015 -323.46086728 0.98883451 -312.79296875 -7.4765625 C-311.03615378 -8.87747099 -309.30446642 -10.31075677 -307.60546875 -11.78125 C-236.23004116 -73.13327649 -123.31850371 -78.55135237 0 0 Z " fill="#FEFEFE" transform="translate(397.07421875,62.64453125)"/>
<path d="M0 0 C6.35623289 5.80318209 12.5009126 11.66021947 17.92578125 18.35546875 C18.89621299 19.50338461 19.86767666 20.65042843 20.83984375 21.796875 C61.84369085 70.61243518 80.30546187 133.70606929 74.98022461 196.91870117 C70.16590127 246.71624716 49.30235533 294.167921 15.92578125 331.35546875 C15.39275391 331.95020996 14.85972656 332.54495117 14.31054688 333.15771484 C8.17880247 339.96067517 2.04277104 346.5684215 -5.07421875 352.35546875 C-6.22329813 353.32736661 -7.37166203 354.30011066 -8.51953125 355.2734375 C-17.88472629 363.13705495 -27.59334832 370.05893143 -38.07421875 376.35546875 C-38.78803711 376.78456543 -39.50185547 377.21366211 -40.23730469 377.65576172 C-69.4481053 394.99187956 -102.26961018 405.91906646 -136.07421875 409.35546875 C-137.06164062 409.46632813 -138.0490625 409.5771875 -139.06640625 409.69140625 C-197.81368011 415.33724815 -258.86810543 397.79754144 -305.32421875 361.35546875 C-306.91597464 360.03220181 -308.49856869 358.69787298 -310.07421875 357.35546875 C-311.18198989 356.43192957 -312.29008743 355.50878181 -313.3984375 354.5859375 C-323.80628374 345.85947889 -333.44928302 336.736781 -341.9140625 326.0625 C-343.28645971 324.34266046 -344.69229858 322.64859106 -346.140625 320.9921875 C-384.80505143 276.34652383 -400.57465826 213.85792606 -396.8515625 155.88867188 C-392.91495633 108.17811399 -375.31940812 61.02958196 -344.07421875 24.35546875 C-343.15067957 23.24769761 -342.22753181 22.13960007 -341.3046875 21.03125 C-332.58105982 10.62678015 -323.46086728 0.98883451 -312.79296875 -7.4765625 C-311.03615378 -8.87747099 -309.30446642 -10.31075677 -307.60546875 -11.78125 C-236.23004116 -73.13327649 -123.31850371 -78.55135237 0 0 Z M-248.09423828 -13.59570312 C-249.94006825 -12.70897642 -251.80157804 -11.8550961 -253.6640625 -11.00390625 C-279.28716033 1.08855229 -303.95105588 20.81645702 -321.07421875 43.35546875 C-321.85796875 44.32355469 -322.64171875 45.29164062 -323.44921875 46.2890625 C-349.43316507 78.56455837 -366.32671527 120.74444169 -367.07421875 162.35546875 C-367.09468262 163.36915527 -367.11514648 164.3828418 -367.13623047 165.42724609 C-368.07254721 219.94254716 -351.59615632 271.50389306 -314.15234375 312.08984375 C-312.25603544 314.15724755 -310.44392269 316.27296968 -308.63671875 318.41796875 C-276.84011445 354.6127428 -226.20483632 375.64457934 -179.07421875 380.35546875 C-173.41129286 380.69343681 -167.74523348 380.69749926 -162.07421875 380.66796875 C-161.3073172 380.66548126 -160.54041565 380.66299377 -159.75027466 380.66043091 C-106.46379719 380.3941956 -56.82054795 359.73854666 -18.07421875 323.35546875 C-17.54812012 322.86336914 -17.02202148 322.37126953 -16.47998047 321.86425781 C18.42039134 288.94926667 38.72995185 244.5517729 44.92578125 197.35546875 C45.11011719 196.08960938 45.29445313 194.82375 45.484375 193.51953125 C48.59231067 167.99697608 45.52933454 139.83941894 37.92578125 115.35546875 C37.67844238 114.54883789 37.43110352 113.74220703 37.17626953 112.91113281 C27.66689864 82.52651396 11.51723665 54.73416009 -10.64697266 31.83398438 C-12.13063621 30.29702466 -13.59194152 28.7404511 -15.0546875 27.18359375 C-50.63529351 -10.10331491 -103.18773315 -31.69603376 -154.35791016 -33.05378723 C-186.99448741 -33.70510395 -218.5568336 -27.83360644 -248.09423828 -13.59570312 Z " fill="#6BC182" transform="translate(397.07421875,62.64453125)"/>
<path d="M0 0 C4.66065774 1.8642631 7.91943379 3.94470688 11.9140625 6.85546875 C12.60242188 7.23316406 13.29078125 7.61085938 14 8 C17.73639216 6.75453595 18.18756513 5.36595047 20 2 C20.66 2.33 21.32 2.66 22 3 C21.979375 4.27875 21.95875 5.5575 21.9375 6.875 C22.45592676 13.14596982 26.85912556 16.34881604 31.20703125 20.34375 C33.63029159 22.6483892 35.48565042 24.82517462 37.375 27.5625 C39.53335813 30.63063117 41.22027112 32.11065203 45 33 C45.0309375 34.8253125 45.0309375 34.8253125 45.0625 36.6875 C46.03062531 45.55496659 51.65511384 54.81780322 58 61 C59.99180409 62.01622658 61.99152635 63.01712992 64 64 C66.95129633 66.79596495 67.89137826 68.34826958 68.5625 72.375 C67.85996439 76.90245173 66.09788091 79.67681866 63 83 C60.10738371 84.44630815 58.236707 84.29052146 55 84 C52.11722694 82.92541272 49.41764269 81.53773275 46.6875 80.125 C38.92791614 76.1287084 31.84610739 73.92156527 23.0625 73.6875 C16.81127415 73.25638098 12.3481932 71.11009061 7 68 C5.67124825 67.32424782 4.33936576 66.65446282 3 66 C2.67 67.155 2.34 68.31 2 69.5 C-2.47203237 82.91609711 -9.9880117 95.94323099 -18.6875 107 C-24.1382555 114.19133289 -25.931145 120.02593596 -26.265625 128.96484375 C-26.80670993 136.40843166 -29.02421054 142.72386831 -31.75 149.625 C-32.18054688 150.76195312 -32.61109375 151.89890625 -33.0546875 153.0703125 C-35.46250694 159.3565956 -38.07183549 165.45990408 -41.09082031 171.47802734 C-42.17808943 174.49400211 -42.26103562 176.81503886 -42 180 C-40.46794024 182.82595359 -40.46794024 182.82595359 -38.3125 185.4375 C-37.58675781 186.39011719 -36.86101562 187.34273437 -36.11328125 188.32421875 C-34.87082175 189.89738836 -33.62127499 191.46508511 -32.35546875 193.01953125 C-30.13265155 195.85730652 -29.01175116 197.94017589 -28.3125 201.5 C-29.7774457 208.95790538 -35.90572231 212.84857324 -41.71484375 217.18359375 C-43.98596624 218.98884496 -45.93680579 220.90230244 -47.9375 223 C-55.04109819 230.28755591 -63.71798058 237.00108859 -74.1875 237.375 C-79.39029553 237.23226213 -84.12344277 236.18011939 -89.125 234.79296875 C-91.78108711 234.06037951 -94.4246306 233.47843938 -97.125 232.9375 C-101 232 -101 232 -103 230 C-102.87705604 226.97816678 -101.8868333 225.87364083 -99.85546875 223.60546875 C-98.97503906 222.80753906 -98.09460938 222.00960937 -97.1875 221.1875 C-96.31480469 220.37667969 -95.44210937 219.56585938 -94.54296875 218.73046875 C-92 217 -92 217 -89.84765625 217.1171875 C-87.19605167 218.38412753 -85.15968966 220.02028447 -83 222 C-83 222.66 -83 223.32 -83 224 C-68.91031737 224.01374752 -68.91031737 224.01374752 -56.7265625 218.45703125 C-52.70181244 212.79395357 -50.37091982 207.19683877 -50.47265625 200.2109375 C-51.14308727 197.40009336 -51.95717574 196.77755899 -54.375 195.25 C-55.89536048 194.45769947 -57.43924946 193.70943206 -59 193 C-64.93036919 190.30437764 -69.23213029 187.90949808 -73.75 183.125 C-76.62887779 180.42465727 -78.12210468 179.10151013 -82.07421875 178.64453125 C-85.05571849 178.90424377 -87.9871271 179.29401684 -90.94433594 179.74804688 C-111.53245794 182.27143665 -130.89835548 177.75071356 -148.984375 167.98046875 C-150.98233364 167.00859352 -152.83117819 166.45428024 -155 166 C-155.39698675 171.66415021 -155.72064556 177.32887771 -156 183 C-156.0422168 183.77375977 -156.08443359 184.54751953 -156.12792969 185.34472656 C-157.02498526 196.49654079 -157.02498526 196.49654079 -152.86328125 206.43359375 C-146.28159708 211.96662384 -137.94666708 214.44275292 -129.890625 217.015625 C-122.04622454 219.68696137 -115.5826759 222.86387737 -111 230 C-109.65589422 234.03231733 -109.62235911 237.96074399 -109.37890625 242.1875 C-109.18213162 245.20199778 -109.18213162 245.20199778 -107 248 C-106.8046875 250.69921875 -106.8046875 250.69921875 -106.875 253.6875 C-106.89304687 254.68136719 -106.91109375 255.67523438 -106.9296875 256.69921875 C-106.95289063 257.45847656 -106.97609375 258.21773438 -107 259 C-113.95550994 256.57670558 -119.97317268 252.32465958 -125 247 C-125.75738697 243.88209031 -125.61316329 241.64855121 -125.2109375 238.484375 C-124.76473861 235.72904316 -124.76473861 235.72904316 -126.6875 232.5 C-131.47394204 227.32546806 -136.3822978 226.29766768 -143.0625 225.125 C-150.39384487 223.73826439 -157.68177066 222.24245146 -164.9375 220.5 C-166.18768921 220.21600342 -166.18768921 220.21600342 -167.46313477 219.92626953 C-173.81346592 218.369835 -177.47993567 216.46314856 -181.02734375 210.71484375 C-181.6751009 209.46137218 -182.31142037 208.20193845 -182.9375 206.9375 C-183.63124961 205.59101142 -184.32526205 204.24465824 -185.01953125 202.8984375 C-185.52347412 201.90602051 -185.52347412 201.90602051 -186.03759766 200.89355469 C-194.34680157 184.0263613 -194.34680157 184.0263613 -209.4375 173.8125 C-221.10743648 169.11868791 -231.11835009 161.86473248 -240 153 C-240.52207031 152.48953125 -241.04414063 151.9790625 -241.58203125 151.453125 C-248.16974046 144.36785467 -249.64600432 135.31008651 -250 126 C-253.48326188 125.02925489 -255.47745461 124.54252657 -259 125 C-263.10204471 127.52873607 -266.5042866 130.69996193 -270 134 C-276.54435484 140 -276.54435484 140 -281 140 C-280.34 138.35 -279.68 136.7 -279 135 C-279.68707031 135.2165625 -280.37414062 135.433125 -281.08203125 135.65625 C-282.43361328 136.07390625 -282.43361328 136.07390625 -283.8125 136.5 C-284.70582031 136.7784375 -285.59914063 137.056875 -286.51953125 137.34375 C-289 138 -289 138 -292 138 C-291.67 136.35 -291.34 134.7 -291 133 C-289.35 132.67 -287.7 132.34 -286 132 C-286 131.34 -286 130.68 -286 130 C-293.38387662 131.46567175 -299.64892776 132.90708678 -306 137 C-306.66 137 -307.32 137 -308 137 C-308 134.75 -308 134.75 -307 132 C-305.00286727 130.73027122 -302.99341384 129.80973616 -300.8125 128.89453125 C-298.81645992 128.13637029 -298.81645992 128.13637029 -298 126 C-306.7129476 128.22069129 -314.35246186 130.85026726 -322.35546875 134.92578125 C-325 136 -325 136 -328 135 C-317.66442031 124.12044244 -303.33717607 119.09096244 -289 116 C-287.87380249 115.7376355 -287.87380249 115.7376355 -286.72485352 115.4699707 C-283.51836571 114.91692984 -280.44904269 114.83724299 -277.1953125 114.7890625 C-275.23658203 114.74652344 -275.23658203 114.74652344 -273.23828125 114.703125 C-271.18245812 114.66195953 -269.12686968 114.625024 -267.07080078 114.59863281 C-256.56261288 114.68934365 -256.56261288 114.68934365 -247 111 C-245.11792625 109.11125453 -245.11792625 109.11125453 -243.75 106.875 C-234.89871821 94.7997414 -217.96060636 83.5595593 -202.97875977 80.60083008 C-196.11290081 79.70473306 -189.16125579 79.81617229 -182.25 79.8125 C-180.50009766 79.79413086 -180.50009766 79.79413086 -178.71484375 79.77539062 C-171.56605987 79.76387271 -164.62694196 80.19452414 -157.52734375 80.95703125 C-145.22532041 82.2360199 -132.90467854 82.64137795 -120.54428673 82.78577518 C-117.05750863 82.8267095 -113.57502488 82.89214486 -110.09008789 83.01513672 C-94.24038247 84.48493899 -94.24038247 84.48493899 -80.03808594 79.45996094 C-77.37498202 76.64393598 -75.71553439 73.46783988 -74 70 C-72.58235955 68.13502204 -71.12863031 66.29636942 -69.625 64.5 C-68.89667969 63.60796875 -68.16835938 62.7159375 -67.41796875 61.796875 C-50.68325894 42.43976317 -26.05305032 20.34217505 0 16 C0 10.72 0 5.44 0 0 Z " fill="#6BC182" transform="translate(363,111)"/>
<path d="M0 0 C2.53430307 2.27794293 3.9091941 4.49808028 5.375 7.5625 C5.80039063 8.44164062 6.22578125 9.32078125 6.6640625 10.2265625 C7.10492188 11.14179688 7.54578125 12.05703125 8 13 C8.91446823 14.81361018 9.83104893 16.62615714 10.75 18.4375 C12.03635751 20.97357825 13.09834566 23.29503698 14 26 C14.64582031 26.309375 15.29164063 26.61875 15.95703125 26.9375 C18.56099797 28.29176185 18.76449906 29.2651824 19.6875 32 C25.38604262 45.81397685 39.20687601 54.44601689 52.0234375 60.85571289 C63.57728556 66.66322376 67.79069237 75.17558094 73.21484375 86.5546875 C74.06937016 89.21604835 73.96607437 90.41980136 73 93 C56.43250279 89.35515061 56.43250279 89.35515061 53 86 C52.64453125 83.98828125 52.64453125 83.98828125 52.625 81.6875 C52.53282746 78.55875427 52.38707857 77.40634872 50.1953125 75.10546875 C45.63289645 71.87679413 40.76038291 69.3309723 35.8125 66.75 C28.55169592 62.95614384 22.19417995 58.17659605 15.6796875 53.23925781 C13.1832686 51.39742317 10.58918978 49.70776347 8 48 C3.16672744 44.32671285 -1.39332843 40.64002943 -2.4375 34.375 C-1.91404788 31.53340279 -0.76226134 30.25569452 1 28 C3.39289383 18.85914556 2.28589824 9.04154394 0 0 Z " fill="#6EC284" transform="translate(165,303)"/>
<path d="M0 0 C32.8408645 4.44396001 32.8408645 4.44396001 40 13 C40.84495422 18.67326405 39.04893804 22.97009652 37.13671875 28.27734375 C35.48497112 33.68667533 34.54428946 39.21140171 33.65917969 44.79370117 C32.12948955 53.45595656 28.51854707 59.07781671 21.6796875 64.5078125 C19.95913156 66.03630638 18.86742451 67.5095999 17.625 69.4375 C14.64216745 73.90676081 10.48528328 77.10086798 6 80 C5.34 80 4.68 80 4 80 C3.63055887 73.35005966 4.04885506 65.80706613 8.29296875 60.33203125 C10 59 10 59 12.42578125 58.1171875 C17.592614 55.87482913 20.34769926 50.78010156 23 46 C24.27375505 41.99676985 24.74976338 38.18330357 25 34 C25.07992187 32.97777344 25.15984375 31.95554687 25.2421875 30.90234375 C25.45804496 26.9258486 25.45804496 26.9258486 25 23 C20.96468816 19.02690662 16.57973701 18.87784775 11.140625 18.68359375 C10.02558594 18.64169922 8.91054688 18.59980469 7.76171875 18.55664062 C6.60285156 18.51732422 5.44398438 18.47800781 4.25 18.4375 C3.07566406 18.39431641 1.90132813 18.35113281 0.69140625 18.30664062 C-2.20561451 18.20065206 -5.10271935 18.09858362 -8 18 C-6.65150163 13.64029169 -4.95092154 9.68658562 -2.875 5.625 C-2.33617187 4.56539063 -1.79734375 3.50578125 -1.2421875 2.4140625 C-0.83226562 1.61742187 -0.42234375 0.82078125 0 0 Z " fill="#6EC285" transform="translate(335,268)"/>
<path d="M0 0 C8.57142857 0.85714286 8.57142857 0.85714286 12 3 C12 4.98 12 6.96 12 9 C10.99582031 9.4125 9.99164063 9.825 8.95703125 10.25 C-13.82906695 19.78999658 -34.75733451 34.68535149 -50.8125 53.5625 C-55.7579281 59.22478832 -60.60155117 60.84399237 -68 62 C-68 61.01 -68 60.02 -68 59 C-67.07767578 58.51080078 -67.07767578 58.51080078 -66.13671875 58.01171875 C-65.32847656 57.57472656 -64.52023437 57.13773438 -63.6875 56.6875 C-62.88699219 56.25824219 -62.08648437 55.82898438 -61.26171875 55.38671875 C-59.12380108 54.07590567 -57.55720753 52.96036806 -56 51 C-56 50.01 -56 49.02 -56 48 C-60.95 48.495 -60.95 48.495 -66 49 C-66 48.01 -66 47.02 -66 46 C-60.74774075 41.34799895 -52.01288819 38 -45 38 C-44.67 36.02 -44.34 34.04 -44 32 C-48.62 32 -53.24 32 -58 32 C-51.21933442 24.15985542 -43.02298142 23.572564 -33.1953125 22.72265625 C-31.61363281 22.36494141 -31.61363281 22.36494141 -30 22 C-29.34 20.68 -28.68 19.36 -28 18 C-31.63 17.67 -35.26 17.34 -39 17 C-38 13 -38 13 -36.07421875 11.74609375 C-30.78641857 10.46277757 -25.44693448 10.96410322 -20.04101562 11.16601562 C-19.16767578 11.18470703 -18.29433594 11.20339844 -17.39453125 11.22265625 C-16.20114136 11.26531616 -16.20114136 11.26531616 -14.98364258 11.30883789 C-14.32904053 11.20692139 -13.67443848 11.10500488 -13 11 C-12.34 10.01 -11.68 9.02 -11 8 C-12.98 7.67 -14.96 7.34 -17 7 C-17.495 5.02 -17.495 5.02 -18 3 C-7.3937172 2.48215256 -7.3937172 2.48215256 -3.1875 4.5 C0.19245358 6.09056639 2.31827508 6.26939451 6 6 C6.33 5.34 6.66 4.68 7 4 C4.69 3.34 2.38 2.68 0 2 C0 1.34 0 0.68 0 0 Z " fill="#70C386" transform="translate(345,113)"/>
<path d="M0 0 C4.55555556 0.55555556 4.55555556 0.55555556 6 2 C6.1875 4.4375 6.1875 4.4375 6 7 C4 9 4 9 1.4375 9.1875 C-1 9 -1 9 -2 8 C-2.1875 5.0625 -2.1875 5.0625 -2 2 C-1.34 1.34 -0.68 0.68 0 0 Z " fill="#F9FCFA" transform="translate(387,144)"/>
<path d="M0 0 C1.875 0.3125 1.875 0.3125 4 1 C6 4 6 4 6 8 C4.68 8.33 3.36 8.66 2 9 C-0.29013653 5.5647952 -0.17842973 4.014669 0 0 Z " fill="#F5FAF7" transform="translate(368,119)"/>
</svg>
