<?xml version="1.0" encoding="UTF-8"?>
<svg xmlns="http://www.w3.org/2000/svg" xmlns:xlink="http://www.w3.org/1999/xlink" width="50px" height="50px" viewBox="0 0 50 50" version="1.1">
<defs>
<clipPath id="clip1">
  <path d="M 3 14 L 23 14 L 23 46 L 3 46 Z M 3 14 "/>
</clipPath>
<clipPath id="clip2">
  <path d="M 48.292969 25.574219 C 48.292969 37.78125 37.746094 47.679688 24.730469 47.679688 C 11.71875 47.679688 1.167969 37.78125 1.167969 25.574219 C 1.167969 13.367188 11.71875 3.472656 24.730469 3.472656 C 37.746094 3.472656 48.292969 13.367188 48.292969 25.574219 Z M 48.292969 25.574219 "/>
</clipPath>
<clipPath id="clip3">
  <path d="M 21 7 L 49 7 L 49 45 L 21 45 Z M 21 7 "/>
</clipPath>
<clipPath id="clip4">
  <path d="M 48.292969 25.574219 C 48.292969 37.78125 37.746094 47.679688 24.730469 47.679688 C 11.71875 47.679688 1.167969 37.78125 1.167969 25.574219 C 1.167969 13.367188 11.71875 3.472656 24.730469 3.472656 C 37.746094 3.472656 48.292969 13.367188 48.292969 25.574219 Z M 48.292969 25.574219 "/>
</clipPath>
</defs>
<g id="surface1">
<path style="fill:none;stroke-width:1.5;stroke-linecap:butt;stroke-linejoin:miter;stroke:rgb(94.901961%,72.156864%,14.901961%);stroke-opacity:1;stroke-miterlimit:10;" d="M 23.1675 12.548828 C 23.1675 18.703125 18.178125 23.691406 12.024375 23.691406 C 5.86875 23.691406 0.879375 18.703125 0.879375 12.548828 C 0.879375 6.394531 5.86875 1.404297 12.024375 1.404297 C 18.178125 1.404297 23.1675 6.394531 23.1675 12.548828 Z M 23.1675 12.548828 " transform="matrix(2.083333,0,0,2,0,0)"/>
<g clip-path="url(#clip1)" clip-rule="nonzero">
<g clip-path="url(#clip2)" clip-rule="nonzero">
<path style=" stroke:none;fill-rule:evenodd;fill:rgb(94.901961%,72.156864%,14.901961%);fill-opacity:1;" d="M 12.6875 44.589844 L 12.6875 45.699219 L 14.585938 45.699219 C 14.671875 45.332031 14.726562 44.960938 14.753906 44.589844 C 14.753906 43.308594 14.890625 42.035156 15.160156 40.78125 C 15.46875 39.792969 15.976562 38.875 16.652344 38.078125 C 17.042969 37.339844 17.558594 36.667969 18.179688 36.089844 C 18.351562 35.894531 19.097656 35.375 19.097656 35.179688 C 18.253906 35.589844 17.496094 36.140625 16.859375 36.808594 C 16.179688 37.425781 15.542969 38.089844 14.957031 38.792969 C 14.265625 39.882812 13.699219 41.039062 13.261719 42.246094 C 12.953125 42.996094 12.761719 43.785156 12.6875 44.589844 Z M 13.058594 41.171875 C 13.0625 41.359375 13 41.539062 12.890625 41.691406 C 12.710938 42.167969 12.585938 42.65625 12.515625 43.15625 C 12.515625 42.84375 12.445312 42.53125 12.3125 42.246094 C 11.953125 40.929688 11.453125 39.652344 10.820312 38.4375 C 9.847656 36.441406 8.640625 34.5625 7.222656 32.835938 L 7.019531 32.640625 C 7.175781 32.652344 7.324219 32.722656 7.429688 32.835938 C 7.933594 33.101562 8.371094 33.464844 8.71875 33.910156 C 9.496094 34.820312 10.820312 36.613281 10.820312 36.613281 C 9.773438 34.164062 8.503906 31.808594 7.019531 29.578125 C 6.28125 28.230469 5.40625 26.953125 4.410156 25.769531 C 4.003906 25.214844 3.085938 24.140625 3.253906 24.140625 C 3.667969 24.335938 4.054688 24.578125 4.410156 24.855469 C 5.402344 25.714844 6.28125 26.6875 7.019531 27.753906 C 8.175781 29.238281 9.183594 30.816406 10.039062 32.476562 C 10.917969 34.085938 11.625 35.777344 12.144531 37.523438 C 12.539062 38.714844 12.84375 39.9375 13.058594 41.171875 Z M 18.179688 29.9375 C 18.679688 28.121094 19.507812 26.402344 20.625 24.855469 C 21.101562 23.914062 21.746094 23.054688 22.523438 22.316406 L 22.523438 22.121094 C 22.691406 22.121094 22.117188 22.675781 21.945312 23.390625 C 21.742188 23.945312 20.625 25.929688 18.925781 30.457031 C 18.179688 32.996094 17.773438 34.464844 17.605469 35.375 C 17.605469 35.375 16.859375 36.089844 16.652344 36.253906 C 16.292969 36.511719 15.976562 36.820312 15.703125 37.167969 C 15.703125 37.167969 16.859375 33.355469 18.179688 29.9375 Z M 20.046875 19.417969 C 19.910156 19.042969 19.644531 18.722656 19.300781 18.507812 L 20.25 15.445312 C 20.25 15.089844 20.25 14.890625 20.046875 14.890625 C 19.875 14.890625 19.671875 14.890625 19.503906 15.25 L 18.722656 18.34375 C 18.226562 18.335938 17.75 18.523438 17.398438 18.863281 C 17.074219 19.3125 16.820312 19.808594 16.652344 20.332031 L 14.585938 27.917969 C 14.382812 28.3125 14.3125 28.753906 14.382812 29.1875 C 14.542969 29.65625 14.882812 30.050781 15.332031 30.296875 C 15.332031 30.296875 14.957031 31.726562 14.585938 33.910156 C 14.007812 36.808594 13.839844 38.273438 13.839844 38.4375 L 13.839844 38.792969 L 12.515625 32.476562 C 12.910156 32.257812 13.238281 31.945312 13.464844 31.566406 C 13.5625 31.203125 13.5625 30.820312 13.464844 30.457031 L 11.734375 22.675781 C 11.734375 22.675781 11.566406 21.242188 10.988281 20.882812 C 10.65625 20.667969 10.269531 20.535156 9.871094 20.492188 L 9.125 17.238281 C 9.125 17.074219 9.125 16.878906 8.71875 16.878906 C 8.546875 16.878906 8.546875 17.074219 8.546875 17.238281 L 9.292969 20.492188 C 8.847656 20.738281 8.511719 21.132812 8.34375 21.601562 C 8.269531 22.152344 8.339844 22.710938 8.546875 23.230469 L 10.039062 30.816406 C 10.03125 31.300781 10.242188 31.761719 10.617188 32.085938 C 10.820312 32.476562 11.566406 32.640625 11.9375 32.640625 C 11.9375 32.640625 13.058594 37.882812 13.261719 39.347656 C 13.410156 39.628906 13.480469 39.945312 13.464844 40.257812 C 13.609375 39.984375 13.792969 39.734375 14.007812 39.511719 C 14.09375 39.253906 14.21875 39.015625 14.382812 38.792969 C 14.585938 37.523438 14.753906 36.253906 15.160156 34.265625 C 15.535156 32.085938 15.90625 30.457031 15.90625 30.457031 C 16.375 30.457031 16.832031 30.332031 17.230469 30.097656 C 17.496094 29.785156 17.679688 29.417969 17.773438 29.023438 L 19.875 21.40625 C 19.875 21.40625 20.417969 19.972656 20.046875 19.417969 Z M 11.9375 32.085938 C 11.9375 32.085938 12.144531 32.085938 12.3125 31.371094 C 12.425781 30.953125 12.425781 30.515625 12.3125 30.097656 L 10.617188 22.871094 C 10.628906 22.421875 10.496094 21.980469 10.242188 21.601562 C 9.871094 21.046875 9.667969 21.242188 9.871094 21.046875 C 10.234375 20.960938 10.613281 21.105469 10.820312 21.40625 C 11.074219 21.78125 11.203125 22.226562 11.191406 22.675781 L 12.890625 30.097656 C 12.984375 30.519531 12.984375 30.949219 12.890625 31.371094 C 12.746094 31.765625 12.375 32.046875 11.9375 32.085938 Z M 19.503906 21.046875 L 17.402344 28.472656 C 17.304688 28.875 17.117188 29.25 16.859375 29.578125 C 16.523438 29.8125 16.117188 29.941406 15.703125 29.9375 C 15.703125 29.742188 15.90625 29.9375 16.484375 29.382812 C 16.628906 29.03125 16.753906 28.671875 16.859375 28.308594 L 18.925781 21.046875 C 19.015625 20.574219 19.074219 20.09375 19.097656 19.613281 C 18.925781 19.058594 18.722656 19.058594 18.925781 19.058594 C 19.28125 19.171875 19.554688 19.4375 19.671875 19.777344 C 19.65625 20.203125 19.601562 20.628906 19.503906 21.046875 Z M 19.503906 21.046875 "/>
</g>
</g>
<g clip-path="url(#clip3)" clip-rule="nonzero">
<g clip-path="url(#clip4)" clip-rule="nonzero">
<path style=" stroke:none;fill-rule:evenodd;fill:rgb(94.901961%,72.156864%,14.901961%);fill-opacity:1;" d="M 21.085938 35.839844 L 21.519531 35.839844 C 21.714844 35.839844 21.714844 35.839844 21.953125 36.027344 C 22.148438 36.027344 22.582031 36.441406 22.820312 36.441406 C 23.253906 36.441406 23.445312 36.027344 23.6875 36.027344 C 23.878906 36.027344 23.878906 35.839844 24.3125 35.839844 C 24.570312 35.894531 24.796875 36.046875 24.941406 36.257812 C 25.179688 36.441406 25.179688 36.441406 25.808594 36.441406 C 26.242188 36.675781 26.433594 36.257812 26.675781 36.257812 C 26.867188 36.257812 27.109375 36.027344 27.109375 36.027344 L 26.867188 35.839844 L 26.242188 35.839844 C 25.90625 35.820312 25.59375 35.667969 25.375 35.425781 C 25.179688 35.195312 24.507812 34.59375 24.074219 34.59375 C 23.445312 34.59375 23.445312 35.011719 22.820312 35.011719 C 22.148438 35.011719 21.953125 34.40625 21.328125 34.40625 L 21.085938 34.59375 Z M 51.09375 36.441406 L 51.335938 36.027344 L 51.527344 36.027344 C 52.210938 35.714844 52.945312 35.511719 53.695312 35.425781 C 54.5625 35.425781 54.753906 35.609375 54.996094 35.839844 C 55.1875 35.839844 55.621094 36.257812 56.054688 36.257812 C 56.273438 36.292969 56.484375 36.355469 56.679688 36.441406 L 56.679688 38.292969 C 56.320312 38.421875 55.914062 38.351562 55.621094 38.105469 C 55.046875 37.703125 54.390625 37.417969 53.695312 37.273438 C 53.070312 37.320312 52.472656 37.527344 51.960938 37.875 C 51.769531 37.875 51.527344 38.105469 51.527344 38.105469 L 51.527344 37.273438 C 51.484375 36.960938 51.332031 36.667969 51.09375 36.441406 Z M 44.449219 10.503906 L 44.015625 10.917969 C 44.015625 10.917969 43.628906 10.734375 43.195312 10.503906 C 42.980469 10.351562 42.753906 10.210938 42.519531 10.085938 C 42.878906 10.210938 43.25 10.289062 43.628906 10.316406 C 43.90625 10.359375 44.179688 10.417969 44.449219 10.503906 Z M 43.386719 39.355469 C 43.539062 39.472656 43.683594 39.597656 43.820312 39.726562 C 44.304688 39.976562 44.800781 40.191406 45.316406 40.375 C 45.988281 40.375 46.183594 40.140625 46.617188 40.140625 C 47 39.886719 47.449219 39.742188 47.914062 39.726562 C 48.347656 39.691406 48.78125 39.769531 49.167969 39.957031 C 49.660156 40.378906 50.257812 40.667969 50.902344 40.789062 C 51.347656 40.9375 51.839844 40.847656 52.203125 40.558594 C 52.628906 40.246094 53.160156 40.097656 53.695312 40.140625 C 54.5625 40.140625 55.1875 40.789062 55.816406 40.972656 C 56.488281 41.390625 56.679688 41.390625 56.679688 41.390625 L 56.679688 39.355469 C 56.488281 39.246094 56.277344 39.167969 56.054688 39.125 C 55.671875 38.976562 55.316406 38.773438 54.996094 38.523438 C 54.5 38.328125 53.984375 38.1875 53.457031 38.105469 C 52.945312 38.273438 52.445312 38.476562 51.960938 38.707031 C 51.644531 38.894531 51.273438 38.976562 50.902344 38.941406 C 50.453125 38.976562 50.003906 38.894531 49.601562 38.707031 C 49.410156 38.523438 49.167969 38.292969 48.976562 38.105469 C 48.617188 38.054688 48.261719 37.976562 47.914062 37.875 L 47.242188 37.875 C 47.480469 37.875 47.675781 37.691406 47.914062 37.691406 C 48.09375 37.515625 48.308594 37.375 48.542969 37.273438 L 49.167969 37.691406 C 49.601562 38.105469 50.035156 38.523438 50.46875 38.105469 C 50.808594 37.753906 50.808594 37.210938 50.46875 36.859375 C 50.035156 36.441406 50.277344 36.441406 50.277344 36.441406 C 51.488281 34.675781 52.414062 32.742188 53.023438 30.707031 C 53.457031 28.8125 53.886719 26.363281 53.886719 26.363281 C 54.378906 26.257812 54.878906 26.199219 55.382812 26.179688 C 55.679688 26.195312 55.972656 26.085938 56.183594 25.882812 C 56.394531 25.679688 56.507812 25.402344 56.488281 25.113281 C 56.488281 24.328125 55.816406 24.328125 55.382812 24.097656 L 53.886719 24.097656 C 53.589844 22.222656 53.171875 20.371094 52.636719 18.546875 C 52.125 17.046875 51.324219 15.652344 50.277344 14.433594 C 50.277344 14.433594 50.710938 13.785156 50.902344 13.414062 C 51.335938 13 51.527344 12.582031 51.09375 12.351562 C 50.738281 12.046875 50.199219 12.046875 49.84375 12.351562 C 49.410156 12.769531 48.734375 13.414062 48.734375 13.414062 L 46.808594 12.351562 L 46.375 13 C 48.085938 14.671875 49.339844 16.71875 50.035156 18.964844 C 50.753906 20.375 51.117188 21.925781 51.09375 23.496094 L 51.960938 23.496094 C 52.757812 23.644531 53.3125 24.335938 53.261719 25.113281 C 53.246094 25.8125 52.84375 26.449219 52.203125 26.777344 L 51.09375 26.777344 C 50.953125 28.675781 50.53125 30.542969 49.84375 32.328125 C 49.398438 33.925781 48.589844 35.410156 47.480469 36.675781 C 47.265625 37.003906 46.96875 37.273438 46.617188 37.460938 L 47.050781 37.875 L 46.375 38.292969 C 46.375 38.105469 46.183594 38.105469 46.183594 37.875 L 45.746094 37.460938 C 48.730469 34.394531 50.414062 30.371094 50.46875 26.179688 L 51.527344 26.179688 C 51.828125 26.199219 52.121094 26.09375 52.335938 25.890625 C 52.546875 25.683594 52.65625 25.402344 52.636719 25.113281 C 52.648438 24.832031 52.53125 24.5625 52.320312 24.367188 C 52.109375 24.171875 51.820312 24.074219 51.527344 24.097656 L 50.46875 24.097656 C 50.230469 19.960938 48.492188 16.035156 45.554688 13 L 46.375 11.9375 C 46.808594 11.476562 46.808594 10.777344 46.375 10.316406 C 45.988281 10.085938 45.316406 10.316406 44.882812 10.734375 L 44.015625 11.9375 C 41.917969 10.429688 39.359375 9.632812 36.742188 9.667969 L 35.679688 9.667969 L 35.441406 8.652344 C 35.441406 8.050781 35.441406 7.636719 34.816406 7.636719 C 34.382812 7.636719 34.1875 8.050781 34.1875 8.652344 L 34.1875 9.902344 C 31.585938 10.707031 29.324219 12.296875 27.734375 14.433594 C 27.734375 14.433594 26.867188 13.414062 26.433594 14.015625 C 26.046875 14.433594 26.242188 14.617188 26.675781 15.265625 L 26.867188 15.449219 C 25.289062 18.035156 24.332031 20.925781 24.074219 23.910156 L 24.074219 24.097656 C 23.6875 24.097656 23.015625 24.097656 23.253906 24.699219 C 23.296875 25.09375 23.660156 25.378906 24.074219 25.34375 C 24.09375 28.273438 24.835938 31.160156 26.242188 33.761719 L 26.046875 33.992188 C 25.613281 34.40625 25.375 34.824219 25.808594 35.195312 C 26.242188 35.425781 26.675781 35.425781 26.867188 35.011719 C 27.519531 35.878906 28.246094 36.699219 29.035156 37.460938 L 28.601562 37.460938 C 28.332031 37.234375 28.042969 37.03125 27.734375 36.859375 C 27.542969 36.675781 27.542969 36.675781 27.109375 36.675781 C 26.867188 36.675781 26.675781 36.859375 26.433594 36.859375 C 26.433594 37.089844 26.046875 37.273438 25.808594 37.273438 C 25.375 37.089844 25.179688 37.089844 24.941406 36.859375 C 24.746094 36.675781 24.507812 36.441406 24.3125 36.441406 C 24.082031 36.429688 23.851562 36.515625 23.6875 36.675781 C 23.445312 36.859375 23.253906 37.089844 23.015625 37.089844 C 22.792969 37.046875 22.582031 36.96875 22.386719 36.859375 C 21.953125 36.675781 21.953125 36.441406 21.519531 36.257812 C 21.363281 36.28125 21.210938 36.34375 21.085938 36.441406 L 21.085938 37.875 C 21.085938 37.691406 21.328125 37.691406 21.519531 37.691406 C 21.953125 37.691406 21.953125 37.691406 22.148438 37.875 C 22.386719 38.097656 22.6875 38.242188 23.015625 38.292969 C 23.445312 38.292969 23.878906 37.875 24.3125 37.875 C 24.507812 37.875 24.941406 38.105469 25.179688 38.105469 C 25.179688 38.292969 25.613281 38.523438 25.808594 38.523438 C 26.242188 38.710938 26.433594 38.523438 26.675781 38.292969 C 26.675781 38.105469 26.867188 37.875 27.300781 37.875 C 27.542969 37.875 27.976562 38.523438 28.167969 38.523438 C 28.601562 38.710938 28.601562 38.941406 29.035156 38.941406 C 29.496094 38.902344 29.941406 38.761719 30.335938 38.523438 C 31.082031 39.15625 31.949219 39.644531 32.886719 39.957031 C 32.695312 39.957031 32.453125 40.140625 32.261719 40.140625 C 32.019531 40.140625 31.394531 39.957031 31.394531 39.726562 C 31.152344 39.539062 30.527344 39.355469 30.335938 39.125 C 29.902344 39.125 29.035156 39.355469 28.792969 39.355469 C 28.503906 39.34375 28.222656 39.265625 27.976562 39.125 C 27.734375 38.941406 27.734375 38.707031 27.109375 38.707031 C 26.433594 38.707031 26.046875 39.125 25.613281 39.125 C 24.941406 39.125 24.507812 38.292969 24.074219 38.292969 C 23.6875 38.292969 23.253906 38.941406 22.820312 38.941406 C 22.386719 38.707031 21.714844 38.105469 21.328125 38.105469 L 21.085938 38.105469 L 21.085938 39.539062 C 21.085938 39.355469 21.085938 39.355469 21.328125 39.355469 C 21.519531 39.355469 21.714844 39.539062 21.953125 39.726562 C 22.148438 39.726562 22.582031 40.140625 22.820312 40.140625 C 23.046875 40.167969 23.273438 40.101562 23.445312 39.957031 C 23.6875 39.726562 23.6875 39.726562 24.074219 39.726562 C 24.410156 39.738281 24.726562 39.886719 24.941406 40.140625 C 25.144531 40.402344 25.464844 40.554688 25.808594 40.558594 C 26.046875 40.558594 26.242188 40.375 26.433594 40.140625 L 27.109375 40.140625 C 27.542969 40.140625 27.734375 40.375 27.976562 40.375 C 27.976562 40.558594 28.359375 40.789062 28.601562 40.789062 C 28.792969 40.789062 29.035156 40.972656 29.226562 40.789062 C 29.660156 40.789062 29.660156 40.558594 30.335938 40.558594 C 30.960938 40.558594 31.152344 40.789062 31.394531 40.789062 C 31.394531 40.972656 31.585938 41.203125 32.261719 41.203125 C 32.886719 41.390625 33.082031 40.972656 33.949219 40.789062 C 34.621094 40.789062 34.816406 41.203125 35.25 41.390625 C 35.441406 41.621094 35.441406 41.808594 36.113281 41.808594 C 36.742188 41.808594 37.367188 41.390625 37.800781 41.390625 C 38.476562 41.203125 38.667969 41.390625 38.910156 41.808594 C 39.339844 41.992188 39.96875 42.222656 40.402344 42.40625 C 40.683594 42.320312 40.972656 42.257812 41.269531 42.222656 C 41.703125 41.992188 41.703125 41.808594 42.519531 41.808594 C 42.992188 41.800781 43.449219 41.949219 43.820312 42.222656 C 44.183594 42.539062 44.636719 42.75 45.121094 42.824219 C 45.554688 43.054688 45.988281 42.824219 46.375 42.636719 C 46.792969 42.5 47.230469 42.421875 47.675781 42.40625 C 48.199219 42.382812 48.695312 42.628906 48.976562 43.054688 C 49.5 43.371094 50.09375 43.578125 50.710938 43.65625 C 51.238281 43.652344 51.753906 43.507812 52.203125 43.238281 C 52.589844 43.054688 53.027344 42.992188 53.457031 43.054688 C 54.207031 43.152344 54.894531 43.515625 55.382812 44.074219 C 55.800781 44.199219 56.242188 44.261719 56.679688 44.257812 L 56.679688 42.222656 L 55.816406 42.222656 C 55.425781 41.992188 55.066406 41.710938 54.753906 41.390625 C 54.320312 41.390625 53.886719 40.972656 53.261719 40.972656 C 52.796875 41 52.347656 41.144531 51.960938 41.390625 C 51.769531 41.390625 51.09375 41.808594 50.710938 41.621094 C 50.167969 41.601562 49.640625 41.460938 49.167969 41.203125 C 48.722656 40.777344 48.113281 40.542969 47.480469 40.558594 C 46.808594 40.375 45.988281 41.203125 45.316406 40.972656 C 44.6875 40.972656 44.253906 40.972656 44.015625 40.558594 C 43.628906 40.375 43.386719 40.375 43.195312 40.140625 C 42.8125 39.992188 42.371094 40.085938 42.089844 40.375 C 41.894531 40.375 41.027344 40.558594 40.59375 40.558594 C 40.160156 40.789062 39.96875 40.558594 39.726562 40.558594 L 39.535156 40.558594 C 40.660156 40.386719 41.75 40.042969 42.761719 39.539062 C 42.960938 39.453125 43.171875 39.390625 43.386719 39.355469 Z M 27.976562 17.300781 L 33.082031 23.910156 L 33.320312 24.097656 L 26.046875 24.097656 C 26.144531 21.71875 26.804688 19.394531 27.976562 17.300781 Z M 26.046875 25.53125 L 32.695312 25.761719 L 27.542969 32.140625 C 26.5625 30.0625 26.054688 27.8125 26.046875 25.53125 Z M 34.1875 38.292969 C 31.695312 37.398438 29.582031 35.738281 28.167969 33.574219 L 34.1875 26.59375 Z M 34.1875 22.664062 L 28.792969 15.867188 C 30.273438 14.25 32.117188 12.984375 34.1875 12.167969 Z M 44.015625 35.425781 L 36.546875 25.945312 L 47.675781 26.179688 C 47.605469 29.574219 46.3125 32.839844 44.015625 35.425781 Z M 47.675781 24.097656 L 36.113281 24.097656 L 43.820312 14.847656 C 43.820312 14.847656 47.050781 17.53125 47.675781 24.097656 Z M 35.441406 11.9375 L 35.679688 11.9375 C 36.011719 11.785156 36.375 11.722656 36.742188 11.75 C 38.863281 11.722656 40.921875 12.445312 42.519531 13.785156 L 35.441406 22.246094 Z M 40.402344 37.875 L 40.402344 34.40625 L 38.910156 32.742188 L 38.910156 38.523438 L 38.234375 38.523438 L 38.234375 37.273438 L 37.800781 37.273438 C 37.574219 37.484375 37.289062 37.628906 36.980469 37.691406 C 36.742188 37.875 36.742188 37.875 36.546875 37.875 L 36.113281 37.875 L 36.113281 38.707031 C 35.875 38.707031 35.644531 38.644531 35.441406 38.523438 L 35.441406 27.195312 L 42.761719 36.441406 C 42.0625 37.039062 41.261719 37.523438 40.402344 37.875 Z M 32.695312 35.195312 L 33.515625 35.195312 L 33.515625 35.839844 C 33.382812 35.691406 33.238281 35.550781 33.082031 35.425781 C 32.992188 35.296875 32.851562 35.214844 32.695312 35.195312 Z M 36.113281 35.609375 C 36.398438 35.523438 36.6875 35.460938 36.980469 35.425781 C 37.175781 35.195312 37.367188 35.011719 37.609375 35.011719 L 38.234375 35.011719 L 38.234375 36.675781 C 38.234375 36.675781 38.042969 36.441406 37.609375 36.675781 C 37.277344 36.714844 36.972656 36.863281 36.742188 37.089844 C 36.546875 37.273438 36.113281 37.089844 36.113281 37.089844 Z M 41.027344 35.609375 L 41.269531 35.609375 L 41.460938 35.425781 C 41.574219 35.613281 41.65625 35.816406 41.703125 36.027344 C 41.894531 36.027344 42.089844 36.441406 42.089844 36.441406 C 41.929688 36.460938 41.789062 36.546875 41.703125 36.675781 C 41.460938 36.675781 41.027344 37.089844 41.027344 37.089844 Z M 38.042969 12.582031 C 38.871094 12.558594 39.691406 12.769531 40.402344 13.183594 L 40.402344 15.265625 L 38.910156 17.113281 L 38.910156 13.414062 L 37.367188 13.414062 C 37.007812 13.519531 36.652344 13.644531 36.308594 13.785156 L 36.308594 12.351562 C 36.890625 12.371094 37.472656 12.449219 38.042969 12.582031 Z M 33.515625 13.183594 L 33.515625 15.449219 L 32.695312 16.46875 L 33.320312 17.300781 L 33.515625 18.734375 L 32.019531 17.113281 L 31.394531 17.945312 L 29.902344 16.050781 C 30.429688 15.40625 30.992188 14.789062 31.585938 14.203125 C 32.167969 13.765625 32.820312 13.421875 33.515625 13.183594 Z M 28.167969 18.546875 L 29.902344 20.8125 C 29.617188 21.171875 29.460938 21.609375 29.46875 22.0625 C 29.226562 22.664062 29.035156 23.265625 29.035156 23.265625 L 26.867188 23.265625 C 26.867188 23.265625 27.109375 22.0625 27.300781 21 C 27.445312 20.140625 27.738281 19.3125 28.167969 18.546875 Z M 38.234375 22.664062 L 38.667969 23.078125 L 38.910156 23.078125 L 38.910156 21.644531 L 40.402344 20.167969 L 40.402344 22.664062 L 45.121094 17.53125 C 45.25 17.800781 45.394531 18.0625 45.554688 18.316406 C 45.566406 18.601562 45.632812 18.886719 45.746094 19.148438 L 41.894531 23.496094 L 37.609375 23.496094 Z M 41.703125 26.59375 L 45.988281 31.078125 C 45.886719 31.375 45.738281 31.652344 45.554688 31.910156 C 45.359375 32.160156 45.214844 32.445312 45.121094 32.742188 L 40.402344 26.777344 L 40.402344 29.460938 L 38.910156 27.609375 L 38.910156 26.964844 L 38.476562 26.964844 L 38.042969 26.59375 Z M 33.320312 30.476562 L 33.320312 32.140625 L 30.71875 35.195312 L 29.902344 34.40625 Z M 26.675781 26.179688 L 28.792969 26.179688 L 28.792969 27.609375 C 28.820312 28.09375 28.898438 28.574219 29.035156 29.042969 L 27.734375 30.894531 C 27.425781 30.105469 27.214844 29.28125 27.109375 28.445312 C 26.867188 27.378906 26.675781 26.179688 26.675781 26.179688 Z M 29.226562 33.34375 L 30.09375 32.328125 L 30.527344 32.976562 L 29.660156 33.992188 Z M 32.019531 36.441406 C 31.585938 36.027344 31.152344 35.609375 31.152344 35.609375 L 31.828125 35.011719 C 31.828125 35.011719 32.261719 35.425781 32.695312 35.839844 C 32.925781 36.089844 33.203125 36.292969 33.515625 36.441406 L 33.515625 37.460938 C 33.515625 37.460938 32.695312 36.859375 32.019531 36.441406 Z M 32.019531 36.441406 "/>
</g>
</g>
</g>
</svg>
