<?xml version="1.0" encoding="UTF-8"?>
<svg xmlns="http://www.w3.org/2000/svg" xmlns:xlink="http://www.w3.org/1999/xlink" width="50px" height="50px" viewBox="0 0 50 50" version="1.1">
<g id="surface1">
<path style=" stroke:none;fill-rule:nonzero;fill:rgb(100%,80.784315%,1.176471%);fill-opacity:1;" d="M 41.574219 6.277344 C 41.804688 6.492188 42.035156 6.707031 42.265625 6.925781 C 42.367188 7.019531 42.367188 7.019531 42.472656 7.121094 C 47.222656 11.59375 49.800781 17.972656 50.023438 24.457031 C 50.179688 31.523438 47.367188 37.730469 42.652344 42.851562 C 39.332031 46.296875 34.871094 48.53125 30.25 49.585938 C 30.152344 49.605469 30.054688 49.628906 29.953125 49.652344 C 23.757812 51.011719 16.894531 49.601562 11.585938 46.21875 C 9.292969 44.714844 7.195312 42.902344 5.523438 40.71875 C 5.363281 40.527344 5.363281 40.527344 5.199219 40.328125 C 1.0625 35.210938 -0.492188 28.488281 0.171875 22.015625 C 0.929688 15.519531 4.332031 9.441406 9.441406 5.371094 C 19 -2.019531 32.492188 -1.738281 41.574219 6.277344 Z M 41.574219 6.277344 "/>
<path style=" stroke:none;fill-rule:nonzero;fill:rgb(100%,99.607843%,98.431373%);fill-opacity:1;" d="M 24.964844 3.140625 C 25.0625 3.144531 25.160156 3.144531 25.257812 3.144531 C 31.230469 3.175781 36.464844 5.691406 40.746094 9.78125 C 42.195312 11.273438 43.378906 12.976562 44.335938 14.820312 C 44.460938 15.050781 44.460938 15.050781 44.589844 15.285156 C 47.015625 19.894531 47.652344 25.773438 46.121094 30.777344 C 46.082031 30.90625 46.039062 31.03125 45.996094 31.164062 C 45.96875 31.246094 45.941406 31.332031 45.914062 31.417969 C 45.425781 32.933594 44.796875 34.328125 44.0625 35.734375 C 43.921875 36.011719 43.785156 36.289062 43.644531 36.566406 C 43.054688 36.515625 42.753906 36.476562 42.246094 36.140625 C 41.542969 35.703125 40.714844 35.785156 39.917969 35.871094 C 39.566406 35.980469 39.28125 36.125 38.949219 36.289062 C 38.542969 36.3125 38.542969 36.3125 38.257812 36.289062 C 38.355469 37.039062 38.503906 37.769531 38.675781 38.503906 C 38.828125 38.414062 38.980469 38.328125 39.140625 38.234375 C 39.890625 37.863281 40.667969 37.683594 41.492188 37.898438 C 41.753906 37.996094 42.011719 38.109375 42.265625 38.226562 C 42.160156 38.496094 42.160156 38.496094 41.988281 38.78125 C 41.597656 38.917969 41.28125 38.917969 40.875 38.886719 C 40.3125 38.875 39.972656 39.003906 39.476562 39.265625 C 38.582031 39.707031 37.722656 39.789062 36.742188 39.613281 C 36.453125 39.429688 36.257812 39.234375 36.03125 38.984375 C 35.5 38.566406 34.769531 38.566406 34.117188 38.503906 C 34.332031 38.070312 34.640625 37.980469 35.082031 37.8125 C 35.566406 37.910156 35.835938 38.136719 36.1875 38.460938 C 36.566406 38.824219 36.566406 38.824219 36.992188 38.765625 C 37.285156 38.667969 37.285156 38.667969 37.429688 38.503906 C 37.476562 37.765625 37.476562 37.765625 37.15625 37.117188 C 37.207031 36.664062 37.417969 36.304688 37.636719 35.90625 C 39.480469 32.496094 40.402344 29.160156 41.023438 25.347656 C 41.1875 25.324219 41.351562 25.300781 41.519531 25.273438 C 41.738281 25.242188 41.953125 25.207031 42.171875 25.171875 C 42.277344 25.15625 42.386719 25.144531 42.5 25.128906 C 43.136719 25.03125 43.136719 25.03125 43.648438 24.664062 C 43.839844 24.261719 43.851562 23.984375 43.785156 23.546875 C 43.238281 23 42.632812 22.964844 41.894531 22.914062 C 41.730469 22.902344 41.566406 22.890625 41.398438 22.878906 C 41.277344 22.871094 41.152344 22.863281 41.023438 22.851562 C 41.003906 22.761719 40.988281 22.675781 40.96875 22.582031 C 40.28125 18.507812 40.28125 18.507812 38.8125 14.679688 C 38.742188 14.546875 38.675781 14.414062 38.605469 14.277344 C 38.171875 13.453125 37.683594 12.675781 37.15625 11.910156 C 37.265625 11.710938 37.375 11.511719 37.484375 11.3125 C 37.574219 11.148438 37.574219 11.148438 37.667969 10.976562 C 37.808594 10.730469 37.964844 10.488281 38.121094 10.25 C 38.082031 9.789062 38.082031 9.789062 37.84375 9.417969 C 37.472656 9.324219 37.472656 9.324219 37.015625 9.417969 C 36.507812 9.78125 36.078125 10.222656 35.636719 10.664062 C 35.027344 10.625 34.585938 10.34375 34.074219 10.03125 C 33.851562 9.898438 33.851562 9.898438 33.625 9.765625 C 33.515625 9.695312 33.402344 9.628906 33.289062 9.558594 C 33.164062 9.9375 33.164062 9.9375 33.148438 10.386719 C 33.390625 10.777344 33.390625 10.777344 33.753906 11.140625 C 36.242188 13.925781 38.128906 18.417969 37.984375 22.160156 C 38.0625 22.152344 38.144531 22.148438 38.226562 22.140625 C 39.003906 22.105469 39.445312 22.179688 40.054688 22.714844 C 40.433594 23.328125 40.421875 23.953125 40.332031 24.652344 C 40.082031 25.128906 40.082031 25.128906 39.777344 25.484375 C 39.71875 25.558594 39.660156 25.636719 39.597656 25.714844 C 39.273438 25.972656 39.054688 25.941406 38.648438 25.925781 C 38.523438 25.921875 38.398438 25.917969 38.269531 25.914062 C 38.175781 25.910156 38.082031 25.90625 37.984375 25.898438 C 37.976562 26.015625 37.972656 26.132812 37.96875 26.25 C 37.738281 30.320312 36.335938 35.199219 33.289062 38.089844 C 33.378906 38.226562 33.46875 38.363281 33.5625 38.503906 C 33.335938 38.640625 33.109375 38.777344 32.871094 38.917969 C 32.691406 38.644531 32.507812 38.371094 32.320312 38.089844 C 32.53125 37.605469 32.824219 37.25 33.167969 36.851562 C 35.871094 33.5625 37.035156 29.402344 37.292969 25.207031 C 37.394531 25.199219 37.5 25.195312 37.605469 25.1875 C 37.742188 25.175781 37.878906 25.167969 38.019531 25.15625 C 38.152344 25.144531 38.289062 25.136719 38.425781 25.125 C 38.800781 25.070312 39.046875 24.996094 39.363281 24.792969 C 39.578125 24.363281 39.601562 23.875 39.503906 23.40625 C 39.078125 22.960938 38.683594 22.929688 38.085938 22.894531 C 37.863281 22.882812 37.863281 22.882812 37.636719 22.867188 C 37.464844 22.859375 37.464844 22.859375 37.292969 22.851562 C 37.273438 22.671875 37.253906 22.492188 37.234375 22.304688 C 36.726562 17.792969 35.179688 13.710938 32.042969 10.386719 C 32.1875 10.078125 32.34375 9.800781 32.535156 9.519531 C 32.945312 8.914062 33.21875 8.488281 33.132812 7.738281 C 33.070312 7.472656 33.070312 7.472656 33.011719 7.203125 C 32.285156 7.222656 31.792969 7.320312 31.261719 7.835938 C 30.957031 8.21875 30.664062 8.601562 30.386719 9.003906 C 30.292969 8.949219 30.203125 8.898438 30.109375 8.84375 C 27.730469 7.523438 25.367188 6.652344 22.632812 6.5625 C 22.4375 6.554688 22.4375 6.554688 22.234375 6.546875 C 21.914062 6.53125 21.59375 6.519531 21.269531 6.507812 C 21.0625 5.808594 20.933594 5.15625 20.855469 4.433594 C 20.523438 4.339844 20.523438 4.339844 20.164062 4.292969 C 19.761719 4.699219 19.824219 5.148438 19.804688 5.695312 C 19.796875 5.800781 19.792969 5.90625 19.785156 6.011719 C 19.773438 6.269531 19.761719 6.527344 19.75 6.785156 C 19.609375 6.84375 19.472656 6.902344 19.328125 6.964844 C 16.734375 8.066406 14.5 9.441406 12.84375 11.773438 C 12.738281 11.730469 12.632812 11.6875 12.523438 11.640625 C 12.164062 11.5 11.847656 11.398438 11.464844 11.355469 C 11.371094 11.449219 11.28125 11.539062 11.1875 11.632812 C 11.226562 12.082031 11.3125 12.308594 11.582031 12.667969 C 11.800781 13.351562 11.574219 13.667969 11.261719 14.289062 C 11.191406 14.425781 11.117188 14.566406 11.042969 14.707031 C 9.6875 17.339844 9.09375 19.9375 8.703125 22.851562 C 8.292969 22.992188 8.292969 22.992188 7.871094 23.128906 C 7.96875 23.539062 7.96875 23.539062 8.148438 23.960938 C 8.289062 24.023438 8.289062 24.023438 8.429688 24.089844 C 8.703125 24.238281 8.703125 24.238281 8.78125 24.503906 C 8.789062 24.609375 8.796875 24.71875 8.800781 24.828125 C 8.808594 24.949219 8.820312 25.066406 8.828125 25.191406 C 8.835938 25.382812 8.835938 25.382812 8.847656 25.578125 C 8.867188 25.847656 8.890625 26.117188 8.914062 26.382812 C 8.921875 26.515625 8.933594 26.644531 8.945312 26.78125 C 9.148438 29.039062 9.9375 31.378906 10.976562 33.382812 C 11.050781 33.65625 11.050781 33.65625 10.941406 33.941406 C 10.796875 34.171875 10.648438 34.398438 10.496094 34.625 C 10.535156 35.085938 10.535156 35.085938 10.773438 35.457031 C 11.003906 35.464844 11.234375 35.460938 11.464844 35.457031 C 12.015625 35.457031 12.015625 35.457031 12.316406 35.757812 C 12.421875 35.890625 12.523438 36.023438 12.628906 36.160156 C 12.738281 36.296875 12.84375 36.433594 12.957031 36.578125 C 13.296875 37.03125 13.628906 37.484375 13.949219 37.949219 C 13.539062 37.867188 13.363281 37.785156 13.007812 37.527344 C 12.480469 37.203125 12.210938 37.167969 11.601562 37.257812 C 11.371094 37.441406 11.140625 37.625 10.910156 37.8125 C 10.242188 37.792969 9.71875 37.445312 9.253906 36.980469 C 8.613281 37.015625 8.308594 37.078125 7.871094 37.535156 C 7.554688 37.621094 7.554688 37.621094 7.183594 37.535156 C 6.871094 37.238281 6.609375 36.910156 6.355469 36.566406 C 6.398438 36.472656 6.445312 36.382812 6.492188 36.289062 C 6.589844 36.359375 6.691406 36.429688 6.792969 36.503906 C 7.160156 36.734375 7.160156 36.734375 7.527344 36.6875 C 7.886719 36.574219 7.886719 36.574219 8.21875 36.347656 C 8.613281 36.121094 8.804688 36.070312 9.253906 36.148438 C 9.371094 36.285156 9.371094 36.285156 9.488281 36.425781 C 9.933594 36.8125 10.28125 36.761719 10.855469 36.742188 C 11.234375 36.699219 11.542969 36.605469 11.878906 36.425781 C 11.878906 36.382812 11.878906 36.335938 11.878906 36.289062 C 11.617188 36.292969 11.617188 36.292969 11.351562 36.296875 C 10.527344 36.214844 10.066406 35.726562 9.484375 35.171875 C 9.042969 34.851562 8.820312 34.839844 8.289062 34.902344 C 8.195312 34.949219 8.105469 34.996094 8.011719 35.042969 C 7.613281 35.242188 7.34375 35.234375 6.90625 35.179688 C 6.628906 34.996094 6.351562 34.8125 6.078125 34.625 C 5.714844 34.601562 5.714844 34.601562 5.386719 34.625 C 5.257812 34.359375 5.132812 34.089844 5.007812 33.820312 C 4.902344 33.597656 4.902344 33.597656 4.792969 33.367188 C 4.253906 32.160156 3.894531 30.945312 3.632812 29.648438 C 3.605469 29.511719 3.574219 29.375 3.546875 29.230469 C 2.425781 23.769531 3.554688 18.011719 6.519531 13.308594 C 9.777344 8.378906 14.726562 4.757812 20.535156 3.523438 C 22.011719 3.242188 23.460938 3.132812 24.964844 3.140625 Z M 24.964844 3.140625 "/>
<path style=" stroke:none;fill-rule:nonzero;fill:rgb(100%,99.215686%,97.647059%);fill-opacity:1;" d="M 29.972656 12.464844 C 30.109375 12.464844 30.246094 12.464844 30.386719 12.464844 C 30.625 12.714844 30.828125 12.953125 31.035156 13.226562 C 31.125 13.347656 31.125 13.347656 31.21875 13.46875 C 33.136719 16.09375 34.253906 19.625 34.253906 22.851562 C 30.152344 22.851562 26.050781 22.851562 21.824219 22.851562 C 22.445312 21.917969 22.445312 21.917969 22.769531 21.523438 C 22.839844 21.4375 22.910156 21.351562 22.984375 21.261719 C 23.058594 21.167969 23.136719 21.078125 23.214844 20.984375 C 23.792969 20.273438 24.367188 19.558594 24.929688 18.835938 C 25.476562 18.136719 26.027344 17.445312 26.589844 16.757812 C 27.164062 16.050781 27.734375 15.339844 28.296875 14.621094 C 28.359375 14.542969 28.421875 14.460938 28.484375 14.378906 C 28.761719 14.027344 29.035156 13.671875 29.300781 13.3125 C 29.386719 13.199219 29.46875 13.085938 29.558594 12.96875 C 29.628906 12.871094 29.699219 12.769531 29.773438 12.667969 C 29.839844 12.601562 29.90625 12.535156 29.972656 12.464844 Z M 29.972656 12.464844 "/>
<path style=" stroke:none;fill-rule:nonzero;fill:rgb(100%,99.607843%,98.431373%);fill-opacity:1;" d="M 11.1875 40.996094 C 12.105469 40.949219 12.601562 41.101562 13.398438 41.578125 C 13.777344 41.730469 14.097656 41.714844 14.503906 41.691406 C 14.59375 41.644531 14.683594 41.597656 14.777344 41.550781 C 15.5625 41.480469 16.210938 41.449219 16.851562 41.964844 C 16.917969 42.035156 16.917969 42.035156 16.988281 42.105469 C 17.210938 42.121094 17.433594 42.128906 17.652344 42.132812 C 17.773438 42.132812 17.894531 42.136719 18.019531 42.136719 C 18.390625 42.101562 18.597656 42.003906 18.921875 41.828125 C 19.363281 41.761719 19.609375 41.726562 20.027344 41.828125 C 20.328125 42.050781 20.328125 42.050781 20.632812 42.320312 C 20.980469 42.621094 21.171875 42.785156 21.632812 42.839844 C 22.128906 42.792969 22.550781 42.699219 23.015625 42.511719 C 23.523438 42.3125 23.902344 42.328125 24.449219 42.382812 C 24.714844 42.625 24.714844 42.625 25 42.9375 C 25.636719 43.34375 26.164062 43.5625 26.917969 43.402344 C 27.320312 43.292969 27.542969 43.175781 27.902344 42.9375 C 29.039062 42.714844 29.738281 43.074219 30.683594 43.679688 C 31.230469 43.992188 31.695312 44.113281 32.320312 44.042969 C 32.59375 43.953125 32.851562 43.84375 33.113281 43.726562 C 33.738281 43.527344 34.441406 43.507812 35.082031 43.628906 C 35.339844 43.910156 35.339844 43.910156 35.496094 44.183594 C 34.703125 44.726562 33.902344 45.105469 33.003906 45.4375 C 32.875 45.484375 32.75 45.535156 32.617188 45.582031 C 31.566406 45.96875 30.515625 46.296875 29.417969 46.539062 C 29.320312 46.5625 29.222656 46.585938 29.121094 46.609375 C 27.921875 46.875 26.71875 46.859375 25.496094 46.859375 C 25.125 46.859375 24.753906 46.859375 24.382812 46.863281 C 22.375 46.871094 20.464844 46.652344 18.550781 46.007812 C 18.441406 45.972656 18.332031 45.9375 18.222656 45.902344 C 15.441406 44.96875 13.039062 43.535156 10.773438 41.691406 C 10.820312 41.550781 10.863281 41.414062 10.910156 41.273438 C 11.003906 41.273438 11.09375 41.273438 11.1875 41.273438 C 11.1875 41.183594 11.1875 41.089844 11.1875 40.996094 Z M 11.1875 40.996094 "/>
<path style=" stroke:none;fill-rule:nonzero;fill:rgb(100%,99.215686%,97.254902%);fill-opacity:1;" d="M 22.238281 24.929688 C 26.25 24.875 30.246094 25.035156 34.253906 25.207031 C 34.257812 25.472656 34.257812 25.734375 34.257812 25.996094 C 34.261719 26.144531 34.261719 26.289062 34.261719 26.441406 C 34.25 27.039062 34.167969 27.601562 34.046875 28.1875 C 34.023438 28.300781 34 28.417969 33.972656 28.539062 C 33.40625 31.109375 32.222656 33.585938 30.523438 35.59375 C 30.074219 35.402344 29.847656 35.203125 29.5625 34.804688 C 29.449219 34.644531 29.449219 34.644531 29.335938 34.484375 C 29.253906 34.371094 29.175781 34.257812 29.09375 34.140625 C 28.917969 33.898438 28.746094 33.660156 28.570312 33.417969 C 28.480469 33.296875 28.394531 33.171875 28.300781 33.046875 C 27.902344 32.503906 27.488281 31.972656 27.070312 31.441406 C 26.316406 30.472656 25.582031 29.492188 24.859375 28.5 C 24.277344 27.707031 23.683594 26.921875 23.078125 26.144531 C 22.78125 25.75 22.507812 25.34375 22.238281 24.929688 Z M 22.238281 24.929688 "/>
<path style=" stroke:none;fill-rule:nonzero;fill:rgb(100%,98.823529%,95.686275%);fill-opacity:1;" d="M 27.46875 10.128906 C 27.9375 10.410156 28.320312 10.71875 28.730469 11.082031 C 28.308594 11.742188 27.835938 12.34375 27.339844 12.949219 C 26.757812 13.660156 26.183594 14.375 25.621094 15.097656 C 25.078125 15.796875 24.523438 16.488281 23.964844 17.175781 C 23.375 17.898438 22.789062 18.628906 22.210938 19.363281 C 22.117188 19.484375 22.117188 19.484375 22.019531 19.609375 C 21.757812 19.945312 21.507812 20.28125 21.269531 20.636719 C 21.179688 20.636719 21.089844 20.636719 20.996094 20.636719 C 20.996094 16.796875 20.996094 12.957031 20.996094 9.003906 C 23.253906 8.4375 25.453125 9.101562 27.46875 10.128906 Z M 27.46875 10.128906 "/>
<path style=" stroke:none;fill-rule:nonzero;fill:rgb(100%,98.823529%,94.901961%);fill-opacity:1;" d="M 19.476562 25.761719 C 19.566406 25.761719 19.65625 25.761719 19.75 25.761719 C 19.75 30.105469 19.75 34.445312 19.75 38.917969 C 18.917969 38.640625 18.238281 38.402344 17.507812 37.957031 C 17.417969 37.90625 17.332031 37.851562 17.242188 37.796875 C 15.761719 36.863281 13.972656 35.363281 13.25 33.738281 C 13.265625 33.167969 13.640625 32.851562 14.011719 32.453125 C 14.164062 32.28125 14.320312 32.105469 14.476562 31.933594 C 14.550781 31.847656 14.628906 31.765625 14.707031 31.675781 C 14.976562 31.375 15.226562 31.058594 15.476562 30.738281 C 15.894531 30.210938 16.320312 29.699219 16.757812 29.191406 C 17.636719 28.152344 18.511719 27.097656 19.292969 25.984375 C 19.355469 25.910156 19.414062 25.835938 19.476562 25.761719 Z M 19.476562 25.761719 "/>
<path style=" stroke:none;fill-rule:nonzero;fill:rgb(100%,98.823529%,94.901961%);fill-opacity:1;" d="M 20.996094 26.453125 C 21.085938 26.453125 21.175781 26.453125 21.269531 26.453125 C 21.476562 26.722656 21.667969 26.988281 21.859375 27.269531 C 22.414062 28.070312 23 28.851562 23.601562 29.621094 C 24.285156 30.5 24.960938 31.382812 25.625 32.273438 C 26.214844 33.066406 26.8125 33.851562 27.410156 34.636719 C 27.550781 34.816406 27.691406 35 27.828125 35.183594 C 27.976562 35.375 28.128906 35.566406 28.28125 35.753906 C 28.359375 35.847656 28.433594 35.945312 28.515625 36.046875 C 28.585938 36.132812 28.65625 36.21875 28.730469 36.308594 C 28.867188 36.566406 28.867188 36.566406 28.839844 36.859375 C 28.675781 37.246094 28.410156 37.390625 28.066406 37.621094 C 27.882812 37.742188 27.882812 37.742188 27.699219 37.867188 C 26.90625 38.367188 26.90625 38.367188 26.382812 38.367188 C 26.382812 38.25 26.386719 38.136719 26.386719 38.019531 C 26.394531 37.585938 26.394531 37.15625 26.390625 36.726562 C 26.390625 36.449219 26.394531 36.175781 26.402344 35.898438 C 26.398438 35.722656 26.398438 35.546875 26.394531 35.363281 C 26.394531 35.203125 26.394531 35.039062 26.398438 34.875 C 26.21875 34.117188 26.21875 34.117188 25 32.964844 C 24.953125 35.019531 24.910156 37.078125 24.863281 39.195312 C 24.589844 39.195312 24.316406 39.195312 24.03125 39.195312 C 24.03125 38.738281 24.03125 38.28125 24.03125 37.8125 C 23.804688 37.902344 23.578125 37.988281 23.351562 38.078125 C 23.160156 38.15625 23.160156 38.15625 22.96875 38.230469 C 22.664062 38.339844 22.664062 38.339844 22.515625 38.503906 C 22.285156 38.511719 22.054688 38.511719 21.824219 38.503906 C 21.824219 38.777344 21.824219 39.050781 21.824219 39.335938 C 21.59375 39.339844 21.363281 39.339844 21.132812 39.335938 C 20.875 39.078125 20.976562 38.710938 20.976562 38.371094 C 20.976562 38.253906 20.976562 38.132812 20.980469 38.011719 C 20.980469 37.886719 20.980469 37.761719 20.980469 37.632812 C 20.980469 37.222656 20.980469 36.808594 20.980469 36.394531 C 20.980469 36.109375 20.980469 35.824219 20.980469 35.539062 C 20.980469 34.785156 20.984375 34.035156 20.984375 33.28125 C 20.988281 32.511719 20.988281 31.746094 20.988281 30.976562 C 20.988281 29.46875 20.992188 27.960938 20.996094 26.453125 Z M 20.996094 26.453125 "/>
<path style=" stroke:none;fill-rule:nonzero;fill:rgb(100%,98.823529%,94.117647%);fill-opacity:1;" d="M 19.75 9.28125 C 19.75 13.210938 19.75 17.140625 19.75 21.191406 C 19.3125 20.753906 18.949219 20.382812 18.585938 19.898438 C 18.457031 19.726562 18.457031 19.726562 18.328125 19.550781 C 18.234375 19.429688 18.144531 19.308594 18.050781 19.183594 C 17.855469 18.921875 17.660156 18.660156 17.460938 18.402344 C 17.363281 18.269531 17.261719 18.132812 17.15625 17.996094 C 16.855469 17.59375 16.550781 17.195312 16.242188 16.796875 C 16.144531 16.667969 16.046875 16.539062 15.945312 16.40625 C 15.761719 16.164062 15.574219 15.921875 15.386719 15.679688 C 14.832031 14.949219 14.308594 14.203125 13.8125 13.433594 C 17.714844 9.28125 17.714844 9.28125 19.75 9.28125 Z M 19.75 9.28125 "/>
<path style=" stroke:none;fill-rule:nonzero;fill:rgb(100%,99.215686%,96.862745%);fill-opacity:1;" d="M 12.84375 15.234375 C 12.9375 15.234375 13.027344 15.234375 13.121094 15.234375 C 13.300781 15.433594 13.300781 15.433594 13.503906 15.71875 C 13.617188 15.875 13.617188 15.875 13.734375 16.039062 C 13.816406 16.152344 13.898438 16.269531 13.984375 16.386719 C 14.160156 16.628906 14.335938 16.871094 14.511719 17.113281 C 14.601562 17.238281 14.691406 17.363281 14.785156 17.492188 C 15.199219 18.066406 15.621094 18.636719 16.039062 19.207031 C 16.117188 19.316406 16.195312 19.425781 16.277344 19.535156 C 16.675781 20.074219 17.074219 20.613281 17.480469 21.152344 C 17.554688 21.253906 17.632812 21.359375 17.714844 21.464844 C 17.859375 21.660156 18.007812 21.855469 18.15625 22.046875 C 18.644531 22.699219 18.644531 22.699219 18.644531 22.851562 C 16.09375 22.851562 13.542969 22.851562 10.910156 22.851562 C 10.910156 21.835938 10.945312 21.035156 11.136719 20.066406 C 11.160156 19.941406 11.183594 19.816406 11.210938 19.6875 C 11.53125 18.117188 12.085938 16.644531 12.84375 15.234375 Z M 12.84375 15.234375 "/>
<path style=" stroke:none;fill-rule:nonzero;fill:rgb(100%,99.215686%,96.470588%);fill-opacity:1;" d="M 10.910156 24.515625 C 13.261719 24.492188 15.605469 24.5625 17.957031 24.652344 C 17.796875 25.085938 17.640625 25.4375 17.347656 25.789062 C 17.28125 25.871094 17.21875 25.949219 17.148438 26.03125 C 17.078125 26.117188 17.007812 26.203125 16.9375 26.289062 C 16.339844 27.023438 15.761719 27.761719 15.203125 28.523438 C 14.359375 29.664062 13.46875 30.761719 12.570312 31.855469 C 12.167969 31.65625 12.140625 31.351562 12 30.945312 C 11.964844 30.835938 11.933594 30.730469 11.894531 30.617188 C 11.859375 30.507812 11.824219 30.394531 11.785156 30.28125 C 11.171875 28.34375 10.8125 26.550781 10.910156 24.515625 Z M 10.910156 24.515625 "/>
<path style=" stroke:none;fill-rule:nonzero;fill:rgb(100%,80.784315%,1.960784%);fill-opacity:1;" d="M 31.355469 15.511719 C 31.769531 15.652344 31.769531 15.652344 31.902344 15.878906 C 31.9375 15.972656 31.972656 16.066406 32.007812 16.160156 C 32.0625 16.300781 32.0625 16.300781 32.121094 16.441406 C 32.203125 16.875 32.164062 17.164062 32.042969 17.589844 C 31.773438 17.949219 31.773438 17.949219 31.421875 18.308594 C 31.296875 18.441406 31.171875 18.574219 31.042969 18.707031 C 30.980469 18.777344 30.914062 18.84375 30.851562 18.910156 C 30.5625 19.222656 30.296875 19.546875 30.03125 19.875 C 29.9375 19.992188 29.839844 20.109375 29.738281 20.230469 C 29.417969 20.625 29.417969 20.625 29.171875 21.042969 C 28.507812 22.058594 28.507812 22.058594 27.917969 22.242188 C 27.199219 22.351562 26.476562 22.300781 25.75 22.257812 C 25.53125 22.25 25.308594 22.242188 25.089844 22.234375 C 24.550781 22.21875 24.015625 22.191406 23.480469 22.160156 C 23.664062 21.839844 23.84375 21.519531 24.03125 21.191406 C 24.167969 21.28125 24.304688 21.375 24.449219 21.46875 C 24.449219 21.558594 24.449219 21.652344 24.449219 21.746094 C 24.585938 21.746094 24.722656 21.746094 24.863281 21.746094 C 24.847656 21.632812 24.828125 21.515625 24.8125 21.398438 C 24.753906 20.652344 24.71875 20.144531 25.164062 19.515625 C 26.128906 18.558594 26.128906 18.558594 26.382812 18.558594 C 26.425781 19.382812 26.472656 20.203125 26.519531 21.050781 C 27.8125 19.632812 29.070312 18.1875 30.316406 16.726562 C 30.660156 16.320312 31.007812 15.917969 31.355469 15.511719 Z M 31.355469 15.511719 "/>
<path style=" stroke:none;fill-rule:nonzero;fill:rgb(100%,81.176472%,3.137255%);fill-opacity:1;" d="M 23.894531 25.625 C 27.621094 25.3125 27.621094 25.3125 28.480469 25.964844 C 28.84375 26.328125 29.125 26.742188 29.394531 27.175781 C 29.664062 27.582031 30 27.921875 30.335938 28.273438 C 30.457031 28.40625 30.578125 28.542969 30.703125 28.679688 C 30.960938 28.960938 31.21875 29.234375 31.484375 29.503906 C 31.550781 29.570312 31.613281 29.640625 31.679688 29.710938 C 31.859375 29.898438 32.042969 30.082031 32.222656 30.265625 C 32.457031 30.609375 32.457031 30.609375 32.449219 30.957031 C 32.316406 31.316406 32.160156 31.636719 31.964844 31.96875 C 31.902344 32.078125 31.839844 32.1875 31.777344 32.300781 C 31.726562 32.382812 31.679688 32.464844 31.628906 32.546875 C 31.097656 32.035156 30.628906 31.492188 30.171875 30.914062 C 30.101562 30.824219 30.027344 30.734375 29.953125 30.640625 C 28.769531 29.136719 27.636719 27.59375 26.519531 26.039062 C 26.472656 26.90625 26.429688 27.777344 26.382812 28.671875 C 26.152344 28.441406 25.925781 28.214844 25.691406 27.976562 C 25.609375 27.898438 25.527344 27.816406 25.441406 27.730469 C 25.023438 27.285156 24.871094 27.097656 24.808594 26.464844 C 24.835938 26.253906 24.835938 26.253906 24.863281 26.039062 C 24.699219 26.050781 24.699219 26.050781 24.535156 26.066406 C 24.414062 26.054688 24.292969 26.046875 24.171875 26.039062 C 24.082031 25.902344 23.988281 25.765625 23.894531 25.625 Z M 23.894531 25.625 "/>
<path style=" stroke:none;fill-rule:nonzero;fill:rgb(100%,80.784315%,1.568628%);fill-opacity:1;" d="M 18.921875 10.527344 C 18.941406 10.945312 18.953125 11.363281 18.964844 11.78125 C 18.972656 11.898438 18.976562 12.015625 18.984375 12.136719 C 19 13.03125 18.8125 13.453125 18.230469 14.128906 C 18.320312 14.257812 18.410156 14.382812 18.5 14.515625 C 18.882812 15.179688 18.894531 15.871094 18.921875 16.621094 C 18.324219 16.179688 17.871094 15.667969 17.402344 15.097656 C 16.992188 15.441406 16.992188 15.441406 16.574219 15.789062 C 16.074219 15.148438 15.570312 14.507812 15.054688 13.851562 C 15.324219 13.3125 15.632812 12.917969 16.03125 12.484375 C 16.132812 12.371094 16.132812 12.371094 16.234375 12.257812 C 16.875 11.578125 17.925781 10.527344 18.921875 10.527344 Z M 18.921875 10.527344 "/>
<path style=" stroke:none;fill-rule:nonzero;fill:rgb(100%,80.784315%,2.352941%);fill-opacity:1;" d="M 13.121094 16.621094 C 13.605469 17.0625 14.015625 17.546875 14.417969 18.066406 C 14.515625 18.191406 14.613281 18.316406 14.714844 18.445312 C 14.96875 18.933594 14.917969 19.144531 14.777344 19.667969 C 14.75 19.824219 14.75 19.824219 14.71875 19.988281 C 14.699219 20.085938 14.679688 20.183594 14.65625 20.28125 C 14.628906 20.425781 14.628906 20.425781 14.597656 20.574219 C 14.472656 21.027344 14.273438 21.453125 14.089844 21.882812 C 13.3125 21.882812 12.539062 21.882812 11.742188 21.882812 C 12.265625 18.058594 12.265625 18.058594 13.121094 16.621094 Z M 13.121094 16.621094 "/>
<path style=" stroke:none;fill-rule:nonzero;fill:rgb(100%,98.431373%,93.725491%);fill-opacity:1;" d="M 29.835938 40.167969 C 30.070312 40.34375 30.296875 40.53125 30.523438 40.71875 C 31.199219 41.070312 31.699219 41.226562 32.457031 41.136719 C 32.675781 41.046875 32.890625 40.957031 33.105469 40.859375 C 33.90625 40.519531 34.636719 40.445312 35.496094 40.582031 C 35.945312 40.765625 36.332031 41.015625 36.742188 41.273438 C 37.597656 41.722656 38.28125 41.710938 39.226562 41.550781 C 39 41.785156 38.769531 42.015625 38.535156 42.242188 C 38.417969 42.367188 38.417969 42.367188 38.292969 42.496094 C 37.792969 42.761719 37.296875 42.730469 36.742188 42.660156 C 36.355469 42.5 36.023438 42.316406 35.671875 42.09375 C 34.859375 41.621094 34.078125 41.578125 33.148438 41.691406 C 33.035156 41.734375 32.921875 41.78125 32.804688 41.828125 C 32.390625 41.992188 32.058594 42.003906 31.613281 42 C 31.398438 42.003906 31.398438 42.003906 31.179688 42.003906 C 30.800781 41.964844 30.800781 41.964844 30.386719 41.691406 C 30.386719 41.597656 30.386719 41.507812 30.386719 41.414062 C 30.277344 41.394531 30.164062 41.371094 30.050781 41.351562 C 29.695312 41.273438 29.695312 41.273438 29.558594 41.136719 C 28.933594 41.082031 28.457031 41.164062 27.855469 41.34375 C 27.121094 41.5625 26.453125 41.597656 25.691406 41.550781 C 26.097656 41.28125 26.402344 41.203125 26.871094 41.09375 C 27.84375 40.816406 28.8125 40.046875 29.835938 40.167969 Z M 29.835938 40.167969 "/>
<path style=" stroke:none;fill-rule:nonzero;fill:rgb(100%,80.784315%,1.960784%);fill-opacity:1;" d="M 21.960938 9.558594 C 22.75 9.539062 23.476562 9.597656 24.25 9.738281 C 24.398438 9.761719 24.398438 9.761719 24.546875 9.789062 C 25.210938 9.90625 25.773438 10.101562 26.382812 10.386719 C 26.617188 12.859375 26.617188 12.859375 25.894531 13.847656 C 25.609375 14.191406 25.324219 14.511719 25 14.820312 C 24.953125 14.820312 24.910156 14.820312 24.863281 14.820312 C 24.863281 13.449219 24.863281 12.078125 24.863281 10.664062 C 23.363281 10.765625 23.363281 10.765625 21.960938 11.082031 C 21.960938 10.578125 21.960938 10.074219 21.960938 9.558594 Z M 21.960938 9.558594 "/>
<path style=" stroke:none;fill-rule:nonzero;fill:rgb(100%,80.784315%,1.960784%);fill-opacity:1;" d="M 11.601562 25.207031 C 12.332031 25.207031 13.0625 25.207031 13.8125 25.207031 C 13.871094 26.246094 13.871094 26.246094 13.890625 26.566406 C 13.898438 26.699219 13.898438 26.699219 13.90625 26.832031 C 13.914062 26.929688 13.917969 27.027344 13.921875 27.128906 C 13.945312 27.421875 13.945312 27.421875 14.007812 27.707031 C 14.140625 28.398438 14.042969 28.753906 13.671875 29.320312 C 13.613281 29.402344 13.554688 29.484375 13.492188 29.570312 C 13.433594 29.65625 13.378906 29.746094 13.316406 29.835938 C 13.171875 30.054688 13.007812 30.261719 12.84375 30.472656 C 12.753906 30.472656 12.664062 30.472656 12.570312 30.472656 C 12.292969 29.445312 12.066406 28.414062 11.851562 27.371094 C 11.828125 27.253906 11.804688 27.136719 11.777344 27.011719 C 11.753906 26.898438 11.730469 26.785156 11.707031 26.667969 C 11.6875 26.566406 11.667969 26.464844 11.644531 26.359375 C 11.601562 26.039062 11.601562 26.039062 11.601562 25.207031 Z M 11.601562 25.207031 "/>
<path style=" stroke:none;fill-rule:nonzero;fill:rgb(100%,81.176472%,3.921569%);fill-opacity:1;" d="M 18.644531 30.195312 C 18.691406 30.195312 18.738281 30.195312 18.785156 30.195312 C 18.949219 30.941406 19.003906 31.621094 18.609375 32.296875 C 18.148438 32.925781 17.628906 33.503906 17.101562 34.078125 C 16.730469 34.480469 16.375 34.898438 16.023438 35.320312 C 15.628906 35.128906 15.351562 34.953125 15.054688 34.625 C 15.234375 34.238281 15.425781 33.933594 15.707031 33.617188 C 15.78125 33.53125 15.855469 33.449219 15.929688 33.363281 C 16.050781 33.230469 16.050781 33.230469 16.167969 33.09375 C 16.839844 32.328125 17.496094 31.554688 18.132812 30.757812 C 18.371094 30.472656 18.371094 30.472656 18.644531 30.195312 Z M 18.644531 30.195312 "/>
<path style=" stroke:none;fill-rule:nonzero;fill:rgb(100%,98.431373%,92.54902%);fill-opacity:1;" d="M 8.882812 38.488281 C 9.613281 38.511719 9.613281 38.511719 9.945312 38.644531 C 10.003906 38.714844 10.0625 38.785156 10.125 38.859375 C 10.371094 39.105469 10.371094 39.105469 10.84375 39.117188 C 11.332031 39.113281 11.332031 39.113281 11.550781 38.78125 C 11.613281 38.691406 11.675781 38.597656 11.742188 38.503906 C 12.058594 38.425781 12.058594 38.425781 12.429688 38.503906 C 12.863281 38.832031 12.863281 38.832031 13.257812 39.195312 C 13.777344 39.542969 14.027344 39.515625 14.640625 39.472656 C 14.792969 39.40625 14.941406 39.34375 15.097656 39.273438 C 15.714844 39.179688 15.800781 39.277344 16.289062 39.628906 C 16.464844 39.765625 16.464844 39.765625 16.640625 39.902344 C 17.101562 40.25 17.574219 40.480469 18.09375 40.71875 C 18.046875 40.8125 18.003906 40.902344 17.957031 40.996094 C 17.445312 41.042969 17.203125 41.054688 16.78125 40.746094 C 16.667969 40.644531 16.554688 40.546875 16.4375 40.441406 C 15.671875 39.960938 15.066406 40.027344 14.214844 40.144531 C 13.472656 40.222656 13.160156 40.046875 12.570312 39.613281 C 11.859375 39.472656 11.292969 39.621094 10.636719 39.890625 C 10.050781 39.875 9.839844 39.777344 9.382812 39.394531 C 9.015625 39.023438 9.015625 39.023438 8.582031 39.015625 C 8.484375 39.027344 8.386719 39.042969 8.289062 39.058594 C 8.289062 38.476562 8.296875 38.507812 8.882812 38.488281 Z M 8.882812 38.488281 "/>
<path style=" stroke:none;fill-rule:nonzero;fill:rgb(100%,81.176472%,2.745098%);fill-opacity:1;" d="M 23.203125 35.179688 C 23.476562 35.179688 23.75 35.179688 24.03125 35.179688 C 24.03125 35.773438 24.03125 36.367188 24.03125 36.980469 C 22.601562 37.515625 22.601562 37.515625 21.824219 37.671875 C 21.824219 37.078125 21.824219 36.484375 21.824219 35.871094 C 22.300781 35.664062 22.300781 35.664062 22.78125 35.453125 C 23.058594 35.34375 23.058594 35.34375 23.203125 35.179688 Z M 23.203125 35.179688 "/>
<path style=" stroke:none;fill-rule:nonzero;fill:rgb(100%,81.176472%,3.529412%);fill-opacity:1;" d="M 16.988281 35.320312 C 17.433594 35.515625 17.753906 35.761719 18.109375 36.089844 C 18.488281 36.4375 18.488281 36.4375 18.921875 36.703125 C 18.921875 37.070312 18.921875 37.433594 18.921875 37.8125 C 18.410156 37.628906 18.027344 37.40625 17.601562 37.066406 C 17.5 36.984375 17.394531 36.90625 17.289062 36.820312 C 16.988281 36.566406 16.710938 36.296875 16.4375 36.011719 C 16.574219 35.59375 16.574219 35.59375 16.988281 35.320312 Z M 16.988281 35.320312 "/>
<path style=" stroke:none;fill-rule:nonzero;fill:rgb(100%,82.352942%,9.803922%);fill-opacity:1;" d="M 27.484375 35.734375 C 27.863281 36.058594 28.011719 36.375 28.175781 36.84375 C 27.8125 37.070312 27.449219 37.300781 27.070312 37.535156 C 27.070312 36.984375 27.070312 36.4375 27.070312 35.871094 C 27.207031 35.828125 27.34375 35.78125 27.484375 35.734375 Z M 27.484375 35.734375 "/>
<path style=" stroke:none;fill-rule:nonzero;fill:rgb(100%,81.960785%,6.666667%);fill-opacity:1;" d="M 15.054688 32.269531 C 15.324219 32.382812 15.324219 32.382812 15.609375 32.546875 C 15.652344 32.6875 15.699219 32.824219 15.746094 32.964844 C 15.578125 33.214844 15.578125 33.214844 15.339844 33.476562 C 15.222656 33.605469 15.222656 33.605469 15.101562 33.734375 C 15.042969 33.800781 14.980469 33.867188 14.917969 33.933594 C 14.78125 33.886719 14.644531 33.84375 14.503906 33.796875 C 14.390625 33.5 14.390625 33.5 14.363281 33.101562 C 14.5625 32.785156 14.792969 32.546875 15.054688 32.269531 Z M 15.054688 32.269531 "/>
<path style=" stroke:none;fill-rule:nonzero;fill:rgb(100%,83.137256%,13.725491%);fill-opacity:1;" d="M 29.003906 7.0625 C 29.824219 7.199219 29.824219 7.199219 30.664062 7.339844 C 30.617188 7.523438 30.570312 7.707031 30.523438 7.894531 C 29.945312 7.800781 29.503906 7.5 29.003906 7.203125 C 29.003906 7.15625 29.003906 7.109375 29.003906 7.0625 Z M 29.003906 7.0625 "/>
</g>
</svg>
