<?xml version="1.0" encoding="UTF-8"?>
<svg version="1.1" xmlns="http://www.w3.org/2000/svg" width="362" height="361">
<path d="M0 0 C1.67661593 1.55181927 3.34257537 3.1151999 5 4.6875 C5.7420166 5.38069336 5.7420166 5.38069336 6.49902344 6.08789062 C40.90023114 38.39327091 59.56308174 84.45585816 61.18359375 131.26953125 C62.29179107 182.28539487 41.93341746 227.10236766 7.7890625 264.08203125 C-16.24277929 288.94763082 -48.53939224 305.08315135 -82 312.6875 C-82.70721191 312.85121094 -83.41442383 313.01492188 -84.14306641 313.18359375 C-128.9793402 323.00516266 -178.68592017 312.80675593 -217.125 288.375 C-233.71581364 277.52634835 -248.91647827 264.42933565 -261 248.6875 C-262.16208984 247.28371094 -262.16208984 247.28371094 -263.34765625 245.8515625 C-293.30791669 208.91165343 -304.5535216 160.36789474 -299.74609375 113.640625 C-294.26362303 66.73589658 -269.63912951 22.86520067 -232.65625 -6.52539062 C-163.42749637 -59.88922155 -65.76251799 -57.85836919 0 0 Z " fill="#FFCE03" transform="translate(301,45.3125)"/>
<path d="M0 0 C0.7013205 0.00248749 1.40264099 0.00497498 2.12521362 0.00753784 C45.36246664 0.24404196 83.25215461 18.39660359 114.25 47.9375 C124.74683555 58.70786873 133.30174724 71.01551186 140.25 84.3125 C141.15492188 85.96958984 141.15492188 85.96958984 142.078125 87.66015625 C159.65323161 120.93823855 164.25328906 163.40325013 153.1796875 199.53515625 C152.87289063 200.45167969 152.56609375 201.36820313 152.25 202.3125 C152.05567383 202.9194873 151.86134766 203.52647461 151.66113281 204.15185547 C148.1444451 215.08828116 143.5851906 225.15402409 138.25 235.3125 C137.24548789 237.31023757 136.24384145 239.30943256 135.25 241.3125 C130.95772524 240.96211022 128.78938852 240.66849642 125.125 238.25 C120.00909607 235.07860254 114.03726748 235.67677744 108.25 236.3125 C105.72027677 237.09190416 103.63229882 238.12135059 101.25 239.3125 C98.3125 239.5 98.3125 239.5 96.25 239.3125 C96.94165788 244.73048672 98.00799248 249.9947785 99.25 255.3125 C100.36375 254.673125 101.4775 254.03375 102.625 253.375 C108.05966242 250.68647442 113.68870578 249.4020073 119.6640625 250.9296875 C121.56195227 251.63385155 123.41300531 252.46203949 125.25 253.3125 C124.5 255.25 124.5 255.25 123.25 257.3125 C120.42909828 258.30917834 118.1362174 258.30501134 115.1875 258.0625 C111.12206166 257.98304518 108.64604479 258.93087471 105.0625 260.8125 C98.57846681 263.99523922 92.36049121 264.59168266 85.25 263.3125 C83.17107377 261.99210091 81.76747096 260.59359222 80.11328125 258.78125 C76.27758969 255.75772793 70.97971946 255.76294947 66.25 255.3125 C67.81943735 252.17362529 70.05406003 251.54170768 73.25 250.3125 C76.74007499 251.010515 78.69173739 252.6701537 81.25 255 C83.99093886 257.62698839 83.99093886 257.62698839 87.0625 257.1875 C89.19118566 256.50262077 89.19118566 256.50262077 90.25 255.3125 C90.58856828 249.98576964 90.58856828 249.98576964 88.25 245.3125 C88.63232539 242.03052049 90.14710404 239.42392581 91.7265625 236.55859375 C105.07624422 211.94117298 111.75781334 187.84996945 116.25 160.3125 C117.44238281 160.14234375 118.63476562 159.9721875 119.86328125 159.796875 C121.42982761 159.55298156 122.9962266 159.30814029 124.5625 159.0625 C125.34818359 158.95292969 126.13386719 158.84335938 126.94335938 158.73046875 C131.55041174 158.03150435 131.55041174 158.03150435 135.265625 155.39453125 C136.64307048 152.48112473 136.72320895 150.48976006 136.25 147.3125 C132.29944052 143.36194052 127.92357595 143.12155972 122.5625 142.75 C121.38300781 142.66621094 120.20351563 142.58242187 118.98828125 142.49609375 C118.08464844 142.43550781 117.18101562 142.37492188 116.25 142.3125 C116.12471924 141.66514893 115.99943848 141.01779785 115.87036133 140.35083008 C110.89280628 110.93106651 110.89280628 110.93106651 100.25 83.3125 C99.75371094 82.35085937 99.25742187 81.38921875 98.74609375 80.3984375 C95.60700692 74.4481058 92.09301482 68.83172341 88.25 63.3125 C89.04005662 61.87411448 89.83211045 60.43682585 90.625 59 C91.28628906 57.79923828 91.28628906 57.79923828 91.9609375 56.57421875 C92.98513335 54.77722057 94.10267138 53.03349292 95.25 51.3125 C94.96725862 48.00163741 94.96725862 48.00163741 93.25 45.3125 C90.54987653 44.63899231 90.54987653 44.63899231 87.25 45.3125 C83.55613317 47.93041675 80.44258741 51.11991259 77.25 54.3125 C72.84679448 54.01175567 69.65737265 51.99827468 65.9375 49.75 C64.33455078 48.78900391 64.33455078 48.78900391 62.69921875 47.80859375 C61.89097656 47.31488281 61.08273438 46.82117188 60.25 46.3125 C59.35204758 49.04773113 59.35204758 49.04773113 59.25 52.3125 C61.003399 55.13315409 61.003399 55.13315409 63.625 57.75 C81.62984174 77.8635169 95.30537891 110.28307346 94.25 137.3125 C94.83007812 137.26609375 95.41015625 137.2196875 96.0078125 137.171875 C101.6404175 136.91162262 104.83919824 137.43960089 109.25 141.3125 C111.99233107 145.74169451 111.91320273 150.25458035 111.25 155.3125 C109.4375 158.75 109.4375 158.75 107.25 161.3125 C106.816875 161.85648438 106.38375 162.40046875 105.9375 162.9609375 C103.59860698 164.83421756 102.01507289 164.61503531 99.0625 164.5 C98.16144531 164.47292969 97.26039063 164.44585937 96.33203125 164.41796875 C95.64496094 164.38316406 94.95789063 164.34835938 94.25 164.3125 C94.21261719 165.14910156 94.17523438 165.98570312 94.13671875 166.84765625 C92.47746827 196.22615006 82.32072635 231.45996309 60.25 252.3125 C60.91 253.3025 61.57 254.2925 62.25 255.3125 C60.6 256.3025 58.95 257.2925 57.25 258.3125 C55.93 256.3325 54.61 254.3525 53.25 252.3125 C54.78499569 248.81432561 56.88648159 246.25803963 59.375 243.375 C78.95067961 219.63361577 87.39310042 189.6092826 89.25 159.3125 C89.99765625 159.26351562 90.7453125 159.21453125 91.515625 159.1640625 C92.50046875 159.08929688 93.4853125 159.01453125 94.5 158.9375 C95.47453125 158.86789063 96.4490625 158.79828125 97.453125 158.7265625 C100.17639708 158.32339652 101.94123113 157.78460492 104.25 156.3125 C105.80460305 153.20329391 105.97720693 149.68166972 105.25 146.3125 C102.18272107 143.09075379 99.31993664 142.85977917 95 142.625 C93.38351562 142.52638672 93.38351562 142.52638672 91.734375 142.42578125 C90.50460937 142.36970703 90.50460937 142.36970703 89.25 142.3125 C89.11464844 141.0028125 88.97929687 139.693125 88.83984375 138.34375 C85.1411902 105.78050224 73.9648204 76.29630478 51.25 52.3125 C52.2939369 50.08713208 53.40513433 48.08510057 54.79296875 46.05078125 C57.76663364 41.66444895 59.76609617 38.59835163 59.125 33.1875 C58.691875 31.269375 58.691875 31.269375 58.25 29.3125 C53.00521192 29.45484289 49.43412253 30.16651905 45.58203125 33.89453125 C43.36561383 36.63950608 41.2579423 39.41213891 39.25 42.3125 C38.58355469 41.93738281 37.91710937 41.56226563 37.23046875 41.17578125 C20.0268723 31.62357455 2.91098088 25.35444318 -16.875 24.6875 C-18.30972656 24.62949219 -18.30972656 24.62949219 -19.7734375 24.5703125 C-22.09878199 24.47729872 -24.42414335 24.39146229 -26.75 24.3125 C-28.26095593 19.24526976 -29.19880349 14.54886687 -29.75 9.3125 C-32.14719432 8.63291397 -32.14719432 8.63291397 -34.75 8.3125 C-37.68447357 11.24697357 -37.21158423 14.49509456 -37.375 18.4375 C-37.41367188 19.19160156 -37.45234375 19.94570313 -37.4921875 20.72265625 C-37.58651031 22.58553184 -37.66934662 24.44898255 -37.75 26.3125 C-38.76578125 26.73660156 -39.7815625 27.16070312 -40.828125 27.59765625 C-59.59489335 35.53814757 -75.76398682 45.48741318 -87.75 62.3125 C-88.51957031 61.99796875 -89.28914063 61.6834375 -90.08203125 61.359375 C-92.68296122 60.33880511 -94.97170491 59.61285623 -97.75 59.3125 C-98.41 59.9725 -99.07 60.6325 -99.75 61.3125 C-99.48118276 64.5383069 -98.84963369 66.18055832 -96.8828125 68.78515625 C-95.30013284 73.71329327 -96.94043385 75.98989046 -99.20117188 80.47851562 C-99.73291016 81.47560547 -100.26464844 82.47269531 -100.8125 83.5 C-110.61996529 102.50118115 -114.9026205 121.25914854 -117.75 142.3125 C-120.72 143.3025 -120.72 143.3025 -123.75 144.3125 C-123.04231642 147.27050528 -123.04231642 147.27050528 -121.75 150.3125 C-120.7436853 150.77233276 -120.7436853 150.77233276 -119.71704102 151.24145508 C-117.75 152.3125 -117.75 152.3125 -117.15991211 154.22924805 C-117.11616455 155.00308838 -117.07241699 155.77692871 -117.02734375 156.57421875 C-116.96595215 157.43772949 -116.90456055 158.30124023 -116.84130859 159.19091797 C-116.76517334 160.58141357 -116.76517334 160.58141357 -116.6875 162 C-116.53777687 163.93400533 -116.38280626 165.86761141 -116.22265625 167.80078125 C-116.14547363 168.74904785 -116.06829102 169.69731445 -115.98876953 170.67431641 C-114.51383228 186.97101572 -108.81486262 203.85780152 -101.28686523 218.34423828 C-100.75 220.3125 -100.75 220.3125 -101.52368164 222.37841797 C-102.57596556 224.03802243 -103.65996282 225.67744423 -104.75 227.3125 C-104.46725862 230.62336259 -104.46725862 230.62336259 -102.75 233.3125 C-101.08394172 233.3575286 -99.41621616 233.35124921 -97.75 233.3125 C-93.75 233.3125 -93.75 233.3125 -91.56640625 235.47265625 C-90.82261719 236.43042969 -90.07882813 237.38820313 -89.3125 238.375 C-88.53132813 239.37273437 -87.75015625 240.37046875 -86.9453125 241.3984375 C-84.48410446 244.66545031 -82.07045314 247.94410028 -79.75 251.3125 C-82.73782482 250.70469838 -83.99811798 250.13054682 -86.5625 248.25 C-90.38702038 245.92529153 -92.34607116 245.67192853 -96.75 246.3125 C-98.428298 247.63116272 -100.09614767 248.96330468 -101.75 250.3125 C-106.5913038 250.19146741 -110.39410864 247.66839136 -113.75 244.3125 C-118.38715699 244.56543584 -120.59372847 245.01276158 -123.75 248.3125 C-126.0625 248.9375 -126.0625 248.9375 -128.75 248.3125 C-131.01024368 246.16953311 -132.89589232 243.81012958 -134.75 241.3125 C-134.42 240.6525 -134.09 239.9925 -133.75 239.3125 C-133.028125 239.828125 -132.30625 240.34375 -131.5625 240.875 C-128.90429355 242.52865507 -128.90429355 242.52865507 -126.25 242.1875 C-123.6605814 241.38414952 -123.6605814 241.38414952 -121.25 239.75 C-118.3784504 238.09885898 -117.00230185 237.72875351 -113.75 238.3125 C-112.9146875 239.3025 -112.9146875 239.3025 -112.0625 240.3125 C-108.82726776 243.11053869 -106.32481503 242.74558005 -102.16796875 242.5859375 C-99.42665898 242.27593478 -97.18719559 241.61233765 -94.75 240.3125 C-94.75 239.9825 -94.75 239.6525 -94.75 239.3125 C-96.6371875 239.3434375 -96.6371875 239.3434375 -98.5625 239.375 C-104.5406845 238.79038259 -107.85649768 235.25136665 -112.07421875 231.24609375 C-115.27169889 228.93550591 -116.88904703 228.84270572 -120.75 229.3125 C-121.41 229.6425 -122.07 229.9725 -122.75 230.3125 C-125.62470493 231.74985246 -127.56894588 231.69422649 -130.75 231.3125 C-132.76254782 229.99818305 -134.76310269 228.66528115 -136.75 227.3125 C-139.37270436 227.14538375 -139.37270436 227.14538375 -141.75 227.3125 C-142.67271542 225.37787335 -143.58777959 223.43959737 -144.5 221.5 C-145.26570313 219.88158203 -145.26570313 219.88158203 -146.046875 218.23046875 C-149.94339184 209.50704463 -152.55895722 200.73147193 -154.4375 191.375 C-154.64955078 190.38048828 -154.86160156 189.38597656 -155.08007812 188.36132812 C-163.18169602 148.92663911 -155.01605393 107.35521869 -133.54589844 73.40869141 C-109.9728332 37.82078298 -74.1316396 11.66536596 -32.0859375 2.75463867 C-21.37159758 0.72666317 -10.89706697 -0.06219657 0 0 Z " fill="#FFFEFB" transform="translate(180.75,22.6875)"/>
<path d="M0 0 C0.99 0 1.98 0 3 0 C4.72899566 1.79348751 6.19642583 3.52085479 7.6875 5.5 C8.34516357 6.3660083 8.34516357 6.3660083 9.01611328 7.24951172 C22.91106714 26.19076633 31 51.67857693 31 75 C1.3 75 -28.4 75 -59 75 C-54.50446841 68.25670262 -54.50446841 68.25670262 -52.15234375 65.40625 C-51.63542969 64.77589844 -51.11851562 64.14554687 -50.5859375 63.49609375 C-50.04195312 62.83738281 -49.49796875 62.17867187 -48.9375 61.5 C-44.7369741 56.37441446 -40.57528154 51.22576313 -36.5 46 C-32.55838917 40.95127616 -28.54964772 35.96245377 -24.5 31 C-20.3301947 25.88856609 -16.19731237 20.75200794 -12.125 15.5625 C-11.67447266 14.98999512 -11.22394531 14.41749023 -10.75976562 13.82763672 C-8.76372911 11.28365407 -6.79549883 8.72470997 -4.8671875 6.12890625 C-4.25101563 5.30261719 -3.63484375 4.47632812 -3 3.625 C-2.484375 2.91601562 -1.96875 2.20703125 -1.4375 1.4765625 C-0.963125 0.98929687 -0.48875 0.50203125 0 0 Z " fill="#FFFDF9" transform="translate(217,90)"/>
<path d="M0 0 C6.65590693 -0.34427105 10.22393537 0.75796163 16 4.1875 C18.74669648 5.30334544 21.06619409 5.19133517 24 5 C24.66 4.67 25.32 4.34 26 4 C31.67055533 3.47810818 36.37998961 3.27418517 41 7 C41.495 7.495 41.495 7.495 42 8 C43.60048202 8.12535652 45.20715928 8.17574787 46.8125 8.1875 C47.68519531 8.20167969 48.55789062 8.21585937 49.45703125 8.23046875 C52.14719621 7.98665964 53.64792263 7.26279563 56 6 C59.1815039 5.51468585 60.95947162 5.25471951 64 6 C66.16796875 7.6015625 66.16796875 7.6015625 68.375 9.5625 C70.9036335 11.73240003 72.28336167 12.91443124 75.6171875 13.3125 C79.2088251 12.97145429 82.28052501 12.29121607 85.625 10.9375 C89.30679073 9.48416155 92.03915272 9.62277645 96 10 C97.9375 11.75 97.9375 11.75 100 14 C104.59875794 16.93497966 108.43114545 18.51172656 113.875 17.375 C116.79141917 16.57011012 118.4136326 15.72424493 121 14 C129.24094707 12.40269808 134.30991888 15.00748063 141.1484375 19.36328125 C145.09642108 21.62931566 148.4678148 22.4883451 153 22 C154.97761167 21.3488845 156.84176004 20.54975773 158.75 19.71875 C163.27572539 18.27303217 168.34649513 18.12445168 173 19 C174.85546875 21.02734375 174.85546875 21.02734375 176 23 C170.25207147 26.91470216 164.44932152 29.65546239 157.9375 32.0625 C157.01791504 32.40684082 156.09833008 32.75118164 155.15087891 33.10595703 C147.5467576 35.90203787 139.92416671 38.27140208 132 40 C131.28505371 40.17587646 130.57010742 40.35175293 129.83349609 40.53295898 C121.14657401 42.43676797 112.43549238 42.33725963 103.58691406 42.31567383 C100.90127274 42.31253075 98.21675457 42.33597925 95.53125 42.36132812 C80.99532293 42.41575727 67.16241907 40.83508161 53.3125 36.1875 C52.52270752 35.92888184 51.73291504 35.67026367 50.91918945 35.40380859 C30.80145195 28.67820677 13.40807063 18.32200893 -3 5 C-2.67 4.01 -2.34 3.02 -2 2 C-1.34 2 -0.68 2 0 2 C0 1.34 0 0.68 0 0 Z " fill="#FFFEFB" transform="translate(81,296)"/>
<path d="M0 0 C29.03639566 -0.40419011 57.99391386 0.76500142 87 2 C87.01614895 3.89906017 87.02760062 5.7981606 87.03710938 7.69726562 C87.0439978 8.75482056 87.05088623 9.81237549 87.0579834 10.90197754 C86.97730543 15.21255868 86.37030564 19.28593456 85.5 23.5 C85.32694336 24.34385254 85.15388672 25.18770508 84.97558594 26.05712891 C80.8632106 44.60401035 72.28050167 62.4936574 60 77 C56.72467873 75.61479553 55.08917709 74.16818851 53.0390625 71.28125 C52.21921875 70.14429688 52.21921875 70.14429688 51.3828125 68.984375 C50.80273438 68.16453125 50.22265625 67.3446875 49.625 66.5 C48.36929421 64.75889534 47.11142653 63.01934813 45.8515625 61.28125 C45.2112207 60.39695313 44.57087891 59.51265625 43.91113281 58.6015625 C41.02261479 54.66951753 38.01745141 50.83345149 35 47 C29.52601333 40.02493274 24.22537665 32.93853183 18.99072266 25.7824707 C14.78114128 20.03424365 10.47607093 14.37299851 6.0859375 8.76171875 C3.92945127 5.9065956 1.95537453 2.99499673 0 0 Z " fill="#FFFDF8" transform="translate(161,180)"/>
<path d="M0 0 C3.38672583 2.03881743 6.15365445 4.27737676 9.12109375 6.87890625 C6.06327782 11.65352004 2.66677329 16.00975993 -0.94140625 20.37890625 C-5.14193215 25.50449179 -9.30362471 30.65314312 -13.37890625 35.87890625 C-17.32051783 40.92763105 -21.32929504 45.91642163 -25.37890625 50.87890625 C-29.65101902 56.1164898 -33.88783275 61.37880812 -38.06640625 66.69140625 C-38.75283203 67.56249023 -38.75283203 67.56249023 -39.453125 68.45117188 C-41.35681997 70.88012414 -43.16588412 73.30937306 -44.87890625 75.87890625 C-45.53890625 75.87890625 -46.19890625 75.87890625 -46.87890625 75.87890625 C-46.87890625 48.15890625 -46.87890625 20.43890625 -46.87890625 -8.12109375 C-30.5237697 -12.20987789 -14.594011 -7.40873821 0 0 Z " fill="#FFFCF4" transform="translate(198.87890625,73.12109375)"/>
<path d="M0 0 C0.66 0 1.32 0 2 0 C2 31.35 2 62.7 2 95 C-4.03785978 92.98738007 -8.95401637 91.27890132 -14.25 88.0625 C-14.88695801 87.67626465 -15.52391602 87.2900293 -16.18017578 86.89208984 C-26.87722015 80.15435835 -39.8286705 69.31344114 -45.07421875 57.6015625 C-44.95621548 53.46523721 -42.25564333 51.18879129 -39.5625 48.3125 C-38.4388182 47.06104931 -37.31642451 45.80844086 -36.1953125 44.5546875 C-35.64391602 43.94592773 -35.09251953 43.33716797 -34.52441406 42.70996094 C-32.57225677 40.52019321 -30.746662 38.24626322 -28.9375 35.9375 C-25.93600053 32.13601409 -22.83377071 28.43172435 -19.6875 24.75 C-13.30833968 17.27167849 -6.96495659 9.64455625 -1.3125 1.59765625 C-0.879375 1.07042969 -0.44625 0.54320312 0 0 Z " fill="#FFFCF2" transform="translate(141,186)"/>
<path d="M0 0 C0.66 0 1.32 0 2 0 C3.49918986 1.92664482 4.88064909 3.8581813 6.25 5.875 C10.28982181 11.68158657 14.50714811 17.31128149 18.875 22.875 C23.83236308 29.19977297 28.71279459 35.57187144 33.51757812 42.01318359 C37.78728263 47.73225041 42.1157575 53.40495802 46.46118164 59.06665039 C47.4697288 60.38141247 48.47462978 61.6989808 49.47558594 63.01953125 C50.54527086 64.40923082 51.63941636 65.78028053 52.75097656 67.13671875 C53.31010742 67.83410156 53.86923828 68.53148437 54.4453125 69.25 C54.95852051 69.87390625 55.47172852 70.4978125 56.00048828 71.140625 C57 73 57 73 56.79370117 75.11865234 C55.60840163 77.92822425 53.69842595 78.95595113 51.1875 80.625 C49.87845703 81.51058594 49.87845703 81.51058594 48.54296875 82.4140625 C42.79310345 86 42.79310345 86 39 86 C39.01683838 85.17387207 39.03367676 84.34774414 39.05102539 83.49658203 C39.09264059 80.38306819 39.09309812 77.27280824 39.06713867 74.15917969 C39.06259908 72.16844926 39.1040329 70.17778292 39.14648438 68.1875 C39.13037109 66.91132813 39.11425781 65.63515625 39.09765625 64.3203125 C39.10289307 63.15773926 39.10812988 61.99516602 39.11352539 60.79736328 C37.81026322 55.33856503 37.81026322 55.33856503 29 47 C28.67 61.85 28.34 76.7 28 92 C26.02 92 24.04 92 22 92 C22 88.7 22 85.4 22 82 C20.35293447 82.64268437 18.70737825 83.28923802 17.0625 83.9375 C15.68771484 84.47697266 15.68771484 84.47697266 14.28515625 85.02734375 C12.07581467 85.7996218 12.07581467 85.7996218 11 87 C9.33382885 87.04063832 7.66611905 87.042721 6 87 C6 88.98 6 90.96 6 93 C4.33388095 93.042721 2.66617115 93.04063832 1 93 C-0.85581966 91.14418034 -0.12004366 88.50601694 -0.12442017 86.03713989 C-0.12082489 85.18046722 -0.11722961 84.32379456 -0.11352539 83.44116211 C-0.11367142 82.54368759 -0.11381744 81.64621307 -0.1139679 80.72154236 C-0.11326842 77.74011866 -0.10547441 74.7587566 -0.09765625 71.77734375 C-0.09579219 69.71611058 -0.09436823 67.65487696 -0.09336853 65.59364319 C-0.08954237 60.1569599 -0.07971126 54.72030314 -0.06866455 49.28363037 C-0.05845253 43.74052286 -0.05387136 38.19741108 -0.04882812 32.65429688 C-0.03808908 21.76951957 -0.02101149 10.88476198 0 0 Z " fill="#FFFCF2" transform="translate(152,191)"/>
<path d="M0 0 C0 28.38 0 56.76 0 86 C-3.17084462 82.82915538 -5.79403491 80.15012688 -8.42578125 76.65625 C-9.36188232 75.4202002 -9.36188232 75.4202002 -10.31689453 74.15917969 C-10.97544434 73.28165039 -11.63399414 72.40412109 -12.3125 71.5 C-13.73286209 69.6196324 -15.15344153 67.73942896 -16.57421875 65.859375 C-17.3017334 64.89451172 -18.02924805 63.92964844 -18.77880859 62.93554688 C-20.97240672 60.03646753 -23.18047059 57.14909886 -25.39453125 54.265625 C-26.10375732 53.34072266 -26.8129834 52.41582031 -27.54370117 51.46289062 C-28.89233202 49.7050037 -30.24265026 47.94840952 -31.5949707 46.19335938 C-35.62087748 40.93204718 -39.39823886 35.56043791 -43 30 C-14.75704989 0 -14.75704989 0 0 0 Z " fill="#FFFCF0" transform="translate(143,67)"/>
<path d="M0 0 C0.66 0 1.32 0 2 0 C3.29003906 1.44262695 3.29003906 1.44262695 4.765625 3.48828125 C5.59537842 4.62753052 5.59537842 4.62753052 6.44189453 5.78979492 C7.03856934 6.6222876 7.63524414 7.45478027 8.25 8.3125 C9.52328862 10.06521233 10.79673037 11.81781343 12.0703125 13.5703125 C12.72290039 14.47297852 13.37548828 15.37564453 14.04785156 16.30566406 C17.05053923 20.44994383 20.08721128 24.56891862 23.125 28.6875 C23.69653809 29.46440186 24.26807617 30.24130371 24.85693359 31.04174805 C27.73369076 34.94801704 30.62618101 38.84129351 33.546875 42.71484375 C34.10745605 43.45839111 34.66803711 44.20193848 35.24560547 44.96801758 C36.31005717 46.37713217 37.37669653 47.7845976 38.44580078 49.19018555 C42 53.89147173 42 53.89147173 42 55 C23.52 55 5.04 55 -14 55 C-14 47.64870352 -13.74716073 41.87499882 -12.375 34.875 C-12.1996875 33.96919189 -12.024375 33.06338379 -11.84375 32.13012695 C-9.51593996 20.80497235 -5.50933872 10.17108686 0 0 Z " fill="#FFFDF7" transform="translate(93,110)"/>
<path d="M0 0 C17.02089273 -0.16908172 33.99449269 0.35511137 51 1 C49.85088919 4.10840744 48.72131029 6.6565172 46.6015625 9.20703125 C46.12855713 9.78509521 45.65555176 10.36315918 45.16821289 10.95874023 C44.65895264 11.57048096 44.14969238 12.18222168 43.625 12.8125 C39.30594713 18.0975795 35.11959878 23.44884234 31.0625 28.9375 C24.96154115 37.16677132 18.51564584 45.09715214 12 53 C9.10281467 51.55140734 8.89103436 49.35527748 7.89306641 46.42724609 C7.63960449 45.64687988 7.38614258 44.86651367 7.125 44.0625 C6.86251465 43.25635254 6.6000293 42.45020508 6.32958984 41.61962891 C1.88987932 27.63793504 -0.72105516 14.70151362 0 0 Z " fill="#FFFDF6" transform="translate(79,177)"/>
<path d="M0 0 C3 1 3 1 3.984375 2.63671875 C4.23703125 3.31347656 4.4896875 3.99023438 4.75 4.6875 C5.14445312 5.68330078 5.14445312 5.68330078 5.546875 6.69921875 C6.16249663 9.82509063 5.86389725 11.92923795 5 15 C3.03125 17.60546875 3.03125 17.60546875 0.5 20.1875 C-0.40621094 21.14011719 -1.31242187 22.09273437 -2.24609375 23.07421875 C-2.70870605 23.55938965 -3.17131836 24.04456055 -3.64794922 24.54443359 C-5.72389585 26.77931872 -7.64143375 29.1317014 -9.5625 31.5 C-10.2644751 32.3441748 -10.9664502 33.18834961 -11.68969727 34.05810547 C-14.02701516 36.91657772 -14.02701516 36.91657772 -15.78466797 39.91918945 C-20.61513437 47.26446064 -20.61513437 47.26446064 -24.86557007 48.57537842 C-30.08974156 49.3686021 -35.31114083 49.00459398 -40.5625 48.6875 C-42.15933578 48.63223551 -43.75635625 48.58206064 -45.35351562 48.53710938 C-49.24029059 48.41672835 -53.1180837 48.2275244 -57 48 C-55.68 45.69 -54.36 43.38 -53 41 C-52.01 41.66 -51.02 42.32 -50 43 C-50 43.66 -50 44.32 -50 45 C-49.01 45 -48.02 45 -47 45 C-47.11601562 44.17757812 -47.23203125 43.35515625 -47.3515625 42.5078125 C-47.78855689 37.10156767 -48.03150622 33.45440539 -44.80859375 28.91015625 C-37.83895265 22 -37.83895265 22 -36 22 C-35.67 27.94 -35.34 33.88 -35 40 C-25.64264666 29.7453662 -16.53136925 19.30893335 -7.50732422 8.76123047 C-5.0066421 5.83931262 -2.50329453 2.91967973 0 0 Z " fill="#FFCE05" transform="translate(227,112)"/>
<path d="M0 0 C26.96916444 -2.25098222 26.96916444 -2.25098222 33.2109375 2.47265625 C35.82409245 5.09602202 37.85654946 8.07028553 39.8125 11.20410156 C41.7576394 14.14580498 44.19102218 16.58733255 46.625 19.125 C47.50929687 20.09824219 48.39359375 21.07148438 49.3046875 22.07421875 C51.16112371 24.08939371 53.02871989 26.06435378 54.9453125 28.01953125 C55.41630371 28.5098584 55.88729492 29.00018555 56.37255859 29.50537109 C57.6710135 30.85537756 58.98351874 32.19182964 60.296875 33.52734375 C62 36 62 36 61.92578125 38.515625 C60.95755709 41.11389743 59.83227579 43.41634673 58.4375 45.8125 C57.98246094 46.60269531 57.52742188 47.39289063 57.05859375 48.20703125 C56.70925781 48.79871094 56.35992187 49.39039063 56 50 C52.14800985 46.28782801 48.75505029 42.38030006 45.4375 38.1875 C44.92155273 37.5387793 44.40560547 36.89005859 43.87402344 36.22167969 C35.2892518 25.36982118 27.10039426 14.21593051 19 3 C18.67 9.27 18.34 15.54 18 22 C16.35 20.35 14.7 18.7 13 17 C12.40574219 16.41476563 11.81148437 15.82953125 11.19921875 15.2265625 C8.15859672 12.00523166 7.06054344 10.63570616 6.625 6.0625 C6.810625 4.5465625 6.810625 4.5465625 7 3 C5.824375 3.0928125 5.824375 3.0928125 4.625 3.1875 C3.75875 3.125625 2.8925 3.06375 2 3 C1.34 2.01 0.68 1.02 0 0 Z " fill="#FFCF08" transform="translate(173,185)"/>
<path d="M0 0 C0.13587049 3.0223636 0.23450542 6.03853888 0.3125 9.0625 C0.35439453 9.91005859 0.39628906 10.75761719 0.43945312 11.63085938 C0.56379436 18.07173514 -0.79381785 21.11817914 -5 26 C-4.360625 26.928125 -3.72125 27.85625 -3.0625 28.8125 C-0.27927068 33.59218004 -0.1961176 38.57734837 0 44 C-4.33409466 40.81316569 -7.6189962 37.13621084 -11 33 C-13.97 35.475 -13.97 35.475 -17 38 C-20.63 33.38 -24.26 28.76 -28 24 C-26.06041137 20.12082274 -23.83093475 17.27743786 -20.9375 14.125 C-20.20648071 13.32763428 -20.20648071 13.32763428 -19.46069336 12.51416016 C-14.82363609 7.5910139 -7.21675039 0 0 0 Z " fill="#FFCE04" transform="translate(137,76)"/>
<path d="M0 0 C3.51477329 3.1852633 6.46497765 6.69020806 9.375 10.4375 C10.08398438 11.34371094 10.79296875 12.24992188 11.5234375 13.18359375 C13.36506417 16.69632609 13.00552284 18.22928935 12 22 C11.78730469 23.14275391 11.78730469 23.14275391 11.5703125 24.30859375 C11.42335938 25.01113281 11.27640625 25.71367187 11.125 26.4375 C10.91230469 27.48744141 10.91230469 27.48744141 10.6953125 28.55859375 C9.76961178 31.80894741 8.33129109 34.89365412 7 38 C1.39 38 -4.22 38 -10 38 C-6.19230769 10.39423077 -6.19230769 10.39423077 0 0 Z " fill="#FFCE06" transform="translate(95,120)"/>
<path d="M0 0 C1.69672386 1.29486821 3.3603279 2.63360658 5 4 C9.89392688 6.53759172 13.49976355 7.65257043 19 7 C20.57594795 6.36577704 22.13769888 5.6956775 23.6875 5 C29.47825477 2.54464957 34.78082851 2.00695232 41 3 C44.23617118 4.33523913 47.05178314 6.12890945 50 8 C56.20284936 11.24212047 61.16441282 11.16261011 68 10 C66.3563186 11.68933922 64.6857124 13.35259924 63 15 C62.13375 15.8971875 62.13375 15.8971875 61.25 16.8125 C57.6078205 18.7347614 54.02495773 18.52162324 50 18 C47.21537344 16.86341773 44.81256803 15.51407365 42.27734375 13.91015625 C36.36941289 10.50126801 30.72720451 10.20201436 24 11 C23.18144531 11.33257812 22.36289063 11.66515625 21.51953125 12.0078125 C18.50267928 13.19584413 16.10829822 13.26620701 12.875 13.25 C11.32425781 13.25773437 11.32425781 13.25773437 9.7421875 13.265625 C7 13 7 13 4 11 C4 10.34 4 9.68 4 9 C3.195625 8.855625 2.39125 8.71125 1.5625 8.5625 C-1 8 -1 8 -2 7 C-6.51179417 6.60767007 -9.97550524 7.19582569 -14.3125 8.5 C-19.65179355 10.07516555 -24.46738976 10.32403574 -30 10 C-27.06220219 8.04146813 -24.84480151 7.48359942 -21.46484375 6.703125 C-14.42221717 4.69413485 -7.40643301 -0.86121314 0 0 Z " fill="#FFFBEF" transform="translate(216,290)"/>
<path d="M0 0 C5.69985993 -0.13494595 10.95930816 0.29327687 16.5625 1.3125 C17.63661133 1.48942383 17.63661133 1.48942383 18.73242188 1.66992188 C23.5260369 2.52047231 27.5915466 3.93190819 32 6 C33.69510398 23.83626075 33.69510398 23.83626075 28.47216797 30.9855957 C26.41531715 33.46884944 24.33777313 35.77412028 22 38 C21.67 38 21.34 38 21 38 C21 28.1 21 18.2 21 8 C10.15823153 8.73740809 10.15823153 8.73740809 0 11 C0 7.37 0 3.74 0 0 Z " fill="#FFCE05" transform="translate(159,69)"/>
<path d="M0 0 C5.28 0 10.56 0 16 0 C16.4375 7.5 16.4375 7.5 16.56811523 9.81054688 C16.6252771 10.75510742 16.6252771 10.75510742 16.68359375 11.71875 C16.72427979 12.42837891 16.76496582 13.13800781 16.80688477 13.86914062 C16.96165815 15.99775846 16.96165815 15.99775846 17.40991211 18.05273438 C18.39128964 23.04883817 17.68428672 25.59582103 14.98632812 29.6796875 C14.55771484 30.28039062 14.12910156 30.88109375 13.6875 31.5 C13.27048828 32.13164062 12.85347656 32.76328125 12.42382812 33.4140625 C11.35265926 34.99262715 10.18324534 36.50360448 9 38 C8.34 38 7.68 38 7 38 C5.0127467 30.59296498 3.34786049 23.13700524 1.8125 15.625 C1.63364258 14.76938477 1.45478516 13.91376953 1.27050781 13.03222656 C1.10518555 12.20948242 0.93986328 11.38673828 0.76953125 10.5390625 C0.62104736 9.80896973 0.47256348 9.07887695 0.31958008 8.32666016 C0 6 0 6 0 0 Z " fill="#FFCE05" transform="translate(84,182)"/>
<path d="M0 0 C0.33 0 0.66 0 1 0 C2.18375429 5.40205331 2.57753401 10.31831279 -0.27734375 15.17138672 C-3.60450605 19.72828257 -7.35726203 23.90592131 -11.19238281 28.03808594 C-13.87966646 30.95475414 -16.43421258 33.97631822 -19 37 C-21.8605891 35.64062915 -23.85927699 34.35479531 -26 32 C-24.71076019 29.21176763 -23.31380469 27.01003398 -21.27734375 24.71484375 C-20.74278564 24.10664795 -20.20822754 23.49845215 -19.6574707 22.87182617 C-18.80608521 21.91433472 -18.80608521 21.91433472 -17.9375 20.9375 C-13.07381567 15.40478031 -8.32918901 9.81118265 -3.70703125 4.07421875 C-2 2 -2 2 0 0 Z " fill="#FFCF0A" transform="translate(135,218)"/>
<path d="M0 0 C5.27940556 0.1789629 5.27940556 0.1789629 7.6875 1.125 C8.120625 1.640625 8.55375 2.15625 9 2.6875 C10.76840592 4.46038985 10.76840592 4.46038985 14.1875 4.5625 C17.74296524 4.52798474 17.74296524 4.52798474 19.3125 2.125 C19.76625 1.465 20.22 0.805 20.6875 0.125 C23 -0.4375 23 -0.4375 25.6875 0.125 C28.8125 2.5 28.8125 2.5 31.6875 5.125 C35.43344875 7.62229916 37.23905657 7.4215629 41.6875 7.125 C42.780625 6.650625 43.87375 6.17625 45 5.6875 C49.45880794 5.00734286 50.07972477 5.69675133 53.625 8.25 C54.88763672 9.23033203 54.88763672 9.23033203 56.17578125 10.23046875 C59.49641661 12.73514705 62.9221094 14.38176361 66.6875 16.125 C66.3575 16.785 66.0275 17.445 65.6875 18.125 C61.99851364 18.46816152 60.24172123 18.52681039 57.1875 16.3125 C56.3625 15.590625 55.5375 14.86875 54.6875 14.125 C49.14846692 10.63866741 44.77947854 11.12216086 38.609375 11.97460938 C33.22485976 12.54491586 30.9535419 11.26619495 26.6875 8.125 C21.55078847 7.12970942 17.44692941 8.19550159 12.6875 10.125 C8.44535666 10.03474163 6.92270678 9.32180567 3.625 6.5625 C0.94903919 3.8859607 0.94903919 3.8859607 -2.1875 3.8125 C-2.88875 3.915625 -3.59 4.01875 -4.3125 4.125 C-4.3125 -0.08715674 -4.25398161 0.16052761 0 0 Z " fill="#FFFBEC" transform="translate(64.3125,277.875)"/>
<path d="M0 0 C1.98 0 3.96 0 6 0 C6 4.29 6 8.58 6 13 C-4.375 16.875 -4.375 16.875 -10 18 C-10 13.71 -10 9.42 -10 5 C-6.53320312 3.48632812 -6.53320312 3.48632812 -3.06640625 1.97265625 C-1.05589883 1.16877677 -1.05589883 1.16877677 0 0 Z " fill="#FFCF07" transform="translate(168,254)"/>
<path d="M0 0 C3.20547958 1.43024761 5.5354446 3.20433073 8.125 5.5625 C10.86038045 8.07679216 10.86038045 8.07679216 14 10 C14 12.64 14 15.28 14 18 C10.29649348 16.68058498 7.50861956 15.07121349 4.4375 12.625 C3.69371094 12.03976562 2.94992188 11.45453125 2.18359375 10.8515625 C0.00169654 9.00143857 -2.00754579 7.05118869 -4 5 C-3 2 -3 2 0 0 Z " fill="#FFCF09" transform="translate(123,255)"/>
<path d="M0 0 C2.72426311 2.35277269 3.8141763 4.62496331 5 8 C2.36 9.65 -0.28 11.3 -3 13 C-3 9.04 -3 5.08 -3 1 C-2.01 0.67 -1.02 0.34 0 0 Z " fill="#FFD219" transform="translate(199,258)"/>
<path d="M0 0 C1.9375 0.8125 1.9375 0.8125 4 2 C4.33 2.99 4.66 3.98 5 5 C3.78515625 6.82421875 3.78515625 6.82421875 2.0625 8.6875 C1.21365234 9.62142578 1.21365234 9.62142578 0.34765625 10.57421875 C-0.09707031 11.04472656 -0.54179688 11.51523438 -1 12 C-1.99 11.67 -2.98 11.34 -4 11 C-4.8125 8.875 -4.8125 8.875 -5 6 C-3.55576519 3.69892439 -1.89127865 1.98353614 0 0 Z " fill="#FFD111" transform="translate(109,233)"/>
<path d="M0 0 C5.94 0.99 5.94 0.99 12 2 C11.67 3.32 11.34 4.64 11 6 C6.80639551 5.32902328 3.59665648 3.1441606 0 1 C0 0.67 0 0.34 0 0 Z " fill="#FFD423" transform="translate(210,51)"/>
</svg>
