<?xml version="1.0" encoding="utf-8"?>
<svg viewBox="-1 -1 101.45 102" xmlns="http://www.w3.org/2000/svg">
  <defs>
    <style>.cls-2{fill:#c0a971}</style>
  </defs>
  <path style="fill:#fff" d="M-1-1h101v102H-1z"/>
  <path class="cls-2" d="M4.74 41c0 8.91 1.48 17.25 5.93 24.12v-5.94c0-7.42 5.94-12.61 12.06-16-6.3 2-13.17.56-18-2.23m5.19-6.3h-2c-.37-1.12 2.78-3.16 3.71-1.67Zm-6.3-.93a10.56 10.56 0 0 0 6.49 1.48c2 1.49 4.82-2.59 7.79-2.59 4.27-.56 9.65-1.12 12.61 2.59L29 32.47A24.66 24.66 0 0 1 18.47 29C12.16 26.16 9 35.25 3.63 33.77M-.08 19.12a24.06 24.06 0 0 0 5.93 1.11c4.27-1.67 5.38-5.2 3.71-9.65A15.12 15.12 0 0 0-.08 4.09Zm28.56 81.43a23.63 23.63 0 0 0 2-2.23C42 83.48 19.58 74.76 20.14 60.48c.55-5.75 3.71-10 7.42-14.65l-.19-.37c-3.52 3.52-4.82 5.75-7.23 9.08-6.87 14.1 2.78 33.58-7.24 45.46Zm46.38-50.46A63.55 63.55 0 0 1 50 100.55h50.45V-.18H50a62.9 62.9 0 0 1 24.86 50.27"/>
  <path class="cls-2" d="M-.08 100.55h8.53l2-2c11.69-16-2.23-27.27-10.94-39.88ZM23.66-.18H-.08v1.67a29.62 29.62 0 0 1 6.86 2c4.82 2.79 8.53 7.42 8 13.17l10.57-1.11c1.48-3.52 2-8.9.56-11.69a10.43 10.43 0 0 0-2.25-4.04m4.82 0C30.71 3 30.71 6.87 31.08 10c4.27-3.16 9.46-5.2 14.84-3.71-3.71-2.79-6.31-5.2-11-6.87ZM49.63 51l-.93 2.23-1.11-2.79C45 51 42.39 52 41.1 54.73c-.37.93.37 2.23-.56 2.78-1.67-.37-.93-3.15-.93-4.82 2-2 7.42-6.31 9.46-4.64a3 3 0 0 1 .56 3m-11.5 20.56c-1.49-1.11-.93-3.15-.93-4.64l.93-.92c1.48 4.63 5.19-.93 8-.38 1.49-.55.93-2.59 2.23-2.22 2.41 7.23-6.12 5.93-10.2 8.16m20.59.93c1.11-9.46.37-19.48-6.49-26-1.49-.37-3.53.55-4.64-.93-3.15 2.78-7.24 4.08-10 7.24-3.15.92-6.31-1.12-9.46-1.67v-1.09C23.85 52.88 25 58.63 24 62.89c1.11 4.82 6.49 6.87 10 9.65 5.38.93 10.39-1.49 14.84-3.16.92.93 2 1.49 1.48 2.6-3.71 5.2-9.09 7.42-15.4 6.86 3.71 7.24 1.12 15.4-2.78 21.71h3.76c11.5-5.2 22.08-13.17 22.82-28"/>
  <path class="cls-2" d="M67.07 33.77c-3.16-11-12.8-25.41-25.79-24.67-4.82.37-9.64 4.08-11.5 6.86a58 58 0 0 1 10.39 7.79c-.37 1.12.56 2.6-.93 3.16-1.67-1.49-3.15-4.83-5.38-3.71 1.67 3.71 6.31 4.08 9.65 4.82 1.48 1.48.93 3.71 3.71 2.6 1.48.37 2 2 2.22 3.15-2.22 4.27-8.53 1.48-12 2.23 2.78 1.11 5.93 1.48 8.53 3.15s3.52-2.23 4.64-3.71c4.63 1.11 2 5.93 4.08 8.53 9.64 10 7.79 27.83 2.78 39.14 13.68-11.5 12.53-38.4 9.6-49.34"/>
</svg>