<?xml version="1.0" encoding="UTF-8"?>
<svg xmlns="http://www.w3.org/2000/svg" xmlns:xlink="http://www.w3.org/1999/xlink" width="50px" height="50px" viewBox="0 0 50 50" version="1.1">
<g id="surface1">
<path style=" stroke:none;fill-rule:nonzero;fill:rgb(100%,100%,100%);fill-opacity:1;" d="M 0 0.109375 L 49.777344 0.109375 L 49.777344 49.890625 L 0 49.890625 Z M 0 0.109375 "/>
<path style=" stroke:none;fill-rule:nonzero;fill:rgb(75.294119%,66.274512%,44.313726%);fill-opacity:1;" d="M 2.828125 20.609375 C 2.828125 24.957031 3.558594 29.027344 5.75 32.378906 L 5.75 29.480469 C 5.75 25.859375 8.679688 23.324219 11.695312 21.671875 C 8.589844 22.648438 5.203125 21.945312 2.824219 20.582031 M 5.382812 17.507812 L 4.394531 17.507812 C 4.214844 16.960938 5.765625 15.964844 6.226562 16.695312 Z M 2.277344 17.054688 C 3.238281 17.632812 4.359375 17.882812 5.476562 17.777344 C 6.460938 18.503906 7.851562 16.511719 9.316406 16.511719 C 11.417969 16.238281 14.070312 15.964844 15.53125 17.777344 L 14.785156 16.445312 C 12.949219 16.277344 11.171875 15.699219 9.597656 14.75 C 6.484375 13.367188 4.929688 17.800781 2.28125 17.078125 M 0.453125 9.929688 C 1.402344 10.230469 2.382812 10.414062 3.375 10.472656 C 5.480469 9.65625 6.027344 7.933594 5.203125 5.761719 C 4.109375 4.121094 2.398438 2.980469 0.453125 2.59375 Z M 14.53125 49.667969 C 14.878906 49.328125 15.210938 48.964844 15.515625 48.582031 C 21.191406 41.339844 10.144531 37.082031 10.417969 30.113281 C 10.691406 27.308594 12.246094 25.234375 14.074219 22.964844 L 13.980469 22.785156 C 12.246094 24.503906 11.605469 25.589844 10.417969 27.214844 C 7.03125 34.097656 11.789062 43.601562 6.851562 49.402344 Z M 37.386719 25.042969 C 37.394531 34.691406 32.867188 43.796875 25.136719 49.667969 L 50 49.667969 L 50 0.511719 L 25.136719 0.511719 C 32.878906 6.332031 37.414062 15.417969 37.386719 25.042969 "/>
<path style=" stroke:none;fill-rule:nonzero;fill:rgb(75.294119%,66.274512%,44.313726%);fill-opacity:1;" d="M 0.453125 49.667969 L 4.65625 49.667969 L 5.644531 48.695312 C 11.40625 40.886719 4.542969 35.386719 0.25 29.230469 Z M 12.152344 0.511719 L 0.453125 0.511719 L 0.453125 1.324219 C 1.617188 1.515625 2.75 1.84375 3.835938 2.300781 C 6.210938 3.664062 8.039062 5.921875 7.777344 8.730469 L 12.988281 8.1875 C 13.714844 6.46875 13.972656 3.84375 13.261719 2.484375 C 13.046875 1.75 12.667969 1.078125 12.152344 0.511719 M 14.53125 0.511719 C 15.628906 2.0625 15.628906 3.953125 15.8125 5.480469 C 17.914062 3.9375 20.472656 2.941406 23.125 3.667969 C 21.296875 2.308594 20.015625 1.128906 17.703125 0.316406 Z M 24.953125 25.488281 L 24.496094 26.578125 L 23.949219 25.214844 C 22.671875 25.488281 21.386719 25.976562 20.75 27.308594 C 20.566406 27.761719 20.929688 28.398438 20.472656 28.664062 C 19.648438 28.484375 20.015625 27.128906 20.015625 26.3125 C 21 25.335938 23.671875 23.234375 24.675781 24.046875 C 25.03125 24.449219 25.136719 25.011719 24.953125 25.511719 M 19.285156 35.546875 C 18.550781 35.003906 18.828125 34.007812 18.828125 33.28125 L 19.285156 32.832031 C 20.015625 35.09375 21.84375 32.378906 23.226562 32.648438 C 23.960938 32.378906 23.6875 31.382812 24.328125 31.5625 C 25.515625 35.09375 21.3125 34.457031 19.300781 35.546875 M 29.449219 36 C 29.996094 31.382812 29.628906 26.492188 26.25 23.3125 C 25.515625 23.132812 24.507812 23.578125 23.960938 22.859375 C 22.410156 24.214844 20.394531 24.847656 19.035156 26.390625 C 17.480469 26.839844 15.925781 25.84375 14.371094 25.574219 L 14.371094 25.042969 C 12.246094 26.40625 12.8125 29.210938 12.320312 31.289062 C 12.867188 33.644531 15.519531 34.644531 17.25 36 C 19.902344 36.453125 22.371094 35.273438 24.5625 34.457031 C 25.015625 34.910156 25.550781 35.183594 25.292969 35.726562 C 23.464844 38.265625 20.8125 39.347656 17.703125 39.074219 C 19.53125 42.609375 18.253906 46.589844 16.332031 49.667969 L 18.1875 49.667969 C 23.855469 47.132812 29.070312 43.242188 29.433594 36.003906 "/>
<path style=" stroke:none;fill-rule:nonzero;fill:rgb(75.294119%,66.274512%,44.313726%);fill-opacity:1;" d="M 33.546875 17.078125 C 31.992188 11.710938 27.238281 4.679688 20.835938 5.039062 C 18.460938 5.21875 16.085938 7.03125 15.171875 8.386719 C 17.015625 9.460938 18.734375 10.738281 20.289062 12.1875 C 20.109375 12.734375 20.566406 13.457031 19.832031 13.730469 C 19.007812 13.003906 18.28125 11.375 17.179688 11.921875 C 18.003906 13.730469 20.289062 13.914062 21.9375 14.273438 C 22.667969 14.996094 22.394531 16.082031 23.765625 15.542969 C 24.496094 15.722656 24.75 16.519531 24.859375 17.078125 C 23.765625 19.164062 20.65625 17.800781 18.945312 18.167969 C 20.316406 18.710938 21.867188 18.890625 23.148438 19.703125 C 24.429688 20.519531 24.882812 18.617188 25.4375 17.894531 C 27.71875 18.4375 26.421875 20.789062 27.445312 22.058594 C 32.199219 26.9375 31.285156 35.640625 28.816406 41.160156 C 35.558594 35.546875 34.992188 22.417969 33.546875 17.078125 "/>
</g>
</svg>
