<?xml version="1.0" encoding="UTF-8"?>
<svg xmlns="http://www.w3.org/2000/svg" xmlns:xlink="http://www.w3.org/1999/xlink" width="50px" height="50px" viewBox="0 0 50 50" version="1.1">
<g id="surface1">
<path style="fill:none;stroke-width:1.5;stroke-linecap:butt;stroke-linejoin:miter;stroke:rgb(76.47059%,38.82353%,40.000001%);stroke-opacity:1;stroke-miterlimit:10;" d="M 23.13375 12.46875 C 23.13375 18.634766 18.135 23.630859 11.971875 23.630859 C 5.806875 23.630859 0.81 18.634766 0.81 12.46875 C 0.81 6.304688 5.806875 1.308594 11.971875 1.308594 C 18.135 1.308594 23.13375 6.304688 23.13375 12.46875 Z M 23.13375 12.46875 " transform="matrix(2.083333,0,0,2,0,0)"/>
<path style="fill-rule:nonzero;fill:rgb(76.47059%,38.82353%,40.000001%);fill-opacity:1;stroke-width:0.15;stroke-linecap:butt;stroke-linejoin:miter;stroke:rgb(76.47059%,38.82353%,40.000001%);stroke-opacity:1;stroke-miterlimit:10;" d="M 18.148125 9.841797 C 18.076875 9.685547 18.12375 9.498047 18.2625 9.394531 C 18.328125 9.355469 18.40875 9.349609 18.48 9.375 C 18.55125 9.402344 18.6075 9.460938 18.63 9.533203 C 18.70125 9.691406 18.654375 9.876953 18.5175 9.980469 C 18.451875 10.021484 18.37125 10.027344 18.3 10.001953 C 18.226875 9.974609 18.1725 9.916016 18.148125 9.841797 M 5.99625 18.349609 C 5.61375 18.5625 5.46 18.773438 5.443125 18.976562 C 5.42625 19.179688 5.499375 19.087891 5.776875 18.941406 C 6.07125 18.824219 6.384375 18.759766 6.70125 18.75 C 7.0575 18.673828 7.395 18.525391 7.693125 18.316406 C 7.93875 18.158203 9.9375 16.722656 9.9375 16.722656 C 11.041875 16.416016 12.11625 16.005859 13.145625 15.501953 C 14.33625 14.931641 15.4725 14.251953 16.535625 13.470703 C 17.611875 12.742188 18.571875 11.855469 19.38 10.837891 C 19.584375 10.5625 19.875 10.365234 20.205 10.275391 C 20.36625 10.261719 20.52375 10.228516 20.6775 10.177734 C 20.713125 10.162109 20.506875 10 20.28375 9.876953 C 20.1525 9.798828 19.935 9.757812 19.87125 9.595703 C 19.614375 9.074219 19.09125 8.736328 18.508125 8.716797 C 17.64375 8.644531 16.48125 9.916016 15.72 9.203125 C 14.53875 8.191406 13.29 7.257812 11.983125 6.414062 C 10.57875 5.449219 8.9775 4.808594 7.2975 4.535156 C 5.694375 4.333984 5.325 4.691406 5.5425 4.990234 C 5.78625 5.318359 5.98125 5.171875 6.42375 5.306641 C 6.70125 5.404297 6.965625 5.535156 7.213125 5.695312 C 7.213125 5.695312 6.781875 5.744141 6.4575 5.808594 C 6.13875 5.873047 5.57625 6.058594 5.88 6.378906 C 6.046875 6.558594 6.46125 6.519531 6.924375 6.679688 C 7.183125 6.755859 7.415625 6.896484 7.60125 7.091797 C 7.4175 7.041016 7.2225 7.042969 7.03875 7.099609 C 6.66375 7.197266 6.305625 7.349609 6.4575 7.603516 C 6.628125 7.888672 6.89625 7.693359 7.276875 7.814453 C 7.56375 7.90625 8.2575 8.041016 8.895 8.267578 C 9.4875 8.580078 9.975 9.058594 10.295625 9.646484 C 10.80375 10.552734 11.3775 11.419922 12.01125 12.242188 C 12.01125 12.242188 11.43 12.751953 11.079375 13.076172 C 10.404375 13.742188 9.778125 14.457031 9.208125 15.214844 C 8.300625 16.492188 6.095625 17.423828 5.705625 17.673828 C 5.424375 17.824219 5.206875 18.066406 5.085 18.359375 C 5.064375 18.5 5.675625 18.154297 5.8425 18.111328 C 6.0075 18.068359 6.375 18.136719 5.99625 18.349609 " transform="matrix(2.083333,0,0,2,0,0)"/>
<path style="fill-rule:nonzero;fill:rgb(76.47059%,38.82353%,40.000001%);fill-opacity:1;stroke-width:0.15;stroke-linecap:butt;stroke-linejoin:miter;stroke:rgb(76.47059%,38.82353%,40.000001%);stroke-opacity:1;stroke-miterlimit:10;" d="M 15.763125 15.523438 C 15.3525 15.480469 14.97 15.300781 14.675625 15.009766 C 15.20625 14.748047 15.718125 14.447266 16.205625 14.109375 C 16.7775 13.746094 17.3175 13.333984 17.82 12.880859 C 17.953125 12.740234 18.178125 13.179688 19.185 13.347656 C 19.558125 13.330078 19.918125 13.482422 20.165625 13.759766 C 20.983125 14.644531 21.135 15.097656 20.79375 15.03125 C 20.690625 15.013672 20.73 15.056641 20.30625 14.816406 C 20.195625 14.751953 19.81125 14.695312 20.109375 14.839844 C 20.26125 14.916016 20.551875 15.091797 20.21625 15.208984 C 20.015625 15.199219 19.816875 15.152344 19.633125 15.070312 C 19.426875 14.994141 19.23 15.054688 19.30875 15.087891 C 19.45875 15.154297 19.845 15.289062 19.515 15.451172 C 19.194375 15.490234 18.87 15.498047 18.5475 15.476562 C 18.133125 15.484375 17.71875 15.449219 17.31375 15.367188 C 16.9875 15.324219 16.426875 15.537109 15.763125 15.523438 Z M 15.763125 15.523438 " transform="matrix(2.083333,0,0,2,0,0)"/>
</g>
</svg>
