<?xml version="1.0" encoding="UTF-8"?>
<svg xmlns="http://www.w3.org/2000/svg" xmlns:xlink="http://www.w3.org/1999/xlink" width="50px" height="50px" viewBox="0 0 50 50" version="1.1">
<g id="surface1">
<path style=" stroke:none;fill-rule:nonzero;fill:rgb(99.607843%,99.607843%,99.607843%);fill-opacity:1;" d="M 30.5 0.875 C 30.613281 0.902344 30.730469 0.929688 30.847656 0.960938 C 34.121094 1.785156 37.171875 3.222656 39.875 5.25 C 40.042969 5.375 40.042969 5.375 40.214844 5.5 C 41.496094 6.492188 42.726562 7.617188 43.75 8.875 C 43.835938 8.972656 43.921875 9.074219 44.007812 9.175781 C 44.742188 10.042969 45.375 10.960938 45.988281 11.914062 C 46.101562 12.089844 46.214844 12.261719 46.332031 12.433594 C 47.753906 14.660156 48.734375 17.414062 49.25 20 C 49.300781 20.234375 49.300781 20.234375 49.355469 20.46875 C 49.988281 23.648438 49.898438 27.359375 49.125 30.5 C 49.097656 30.613281 49.070312 30.730469 49.039062 30.847656 C 47.40625 37.316406 43.347656 42.828125 37.632812 46.289062 C 35.292969 47.671875 32.671875 48.714844 30 49.25 C 29.84375 49.285156 29.6875 49.320312 29.523438 49.355469 C 23.105469 50.628906 16.433594 48.941406 11.019531 45.429688 C 10.046875 44.777344 9.125 44.050781 8.320312 43.199219 C 8.105469 42.980469 7.875 42.785156 7.640625 42.585938 C 4.070312 39.480469 1.667969 34.589844 0.75 30 C 0.714844 29.84375 0.679688 29.691406 0.644531 29.53125 C 0.0117188 26.351562 0.101562 22.640625 0.875 19.5 C 0.902344 19.386719 0.929688 19.269531 0.960938 19.152344 C 2.613281 12.613281 6.734375 7.09375 12.507812 3.613281 C 14.796875 2.277344 17.398438 1.269531 20 0.75 C 20.234375 0.699219 20.234375 0.699219 20.46875 0.644531 C 23.648438 0.0117188 27.359375 0.101562 30.5 0.875 Z M 30.5 0.875 "/>
<path style=" stroke:none;fill-rule:nonzero;fill:rgb(76.47059%,39.215687%,40.000001%);fill-opacity:1;" d="M 21.5 11 C 21.660156 11.078125 21.824219 11.15625 21.984375 11.234375 C 24.003906 12.222656 25.867188 13.425781 27.675781 14.761719 C 27.890625 14.917969 28.105469 15.074219 28.320312 15.226562 C 29.023438 15.726562 29.699219 16.257812 30.367188 16.804688 C 30.539062 16.945312 30.710938 17.085938 30.882812 17.222656 C 31.191406 17.472656 31.492188 17.726562 31.796875 17.980469 C 32.542969 18.609375 32.542969 18.609375 33.460938 18.851562 C 34.070312 18.78125 34.585938 18.523438 35.125 18.25 C 35.371094 18.136719 35.613281 18.023438 35.859375 17.914062 C 35.972656 17.863281 36.085938 17.808594 36.203125 17.757812 C 36.773438 17.503906 37.257812 17.476562 37.875 17.5 C 38.015625 17.503906 38.160156 17.511719 38.304688 17.515625 C 39.332031 17.769531 39.914062 18.394531 40.511719 19.226562 C 40.859375 19.625 41.277344 19.839844 41.746094 20.078125 C 42 20.25 42 20.25 42.097656 20.519531 C 42.113281 20.632812 42.113281 20.632812 42.125 20.75 C 42.027344 20.769531 41.929688 20.785156 41.832031 20.804688 C 40.382812 21.117188 39.738281 21.703125 38.835938 22.847656 C 37.648438 24.308594 36.207031 25.660156 34.609375 26.648438 C 34.125 26.953125 33.671875 27.289062 33.210938 27.625 C 32.449219 28.1875 31.667969 28.726562 30.875 29.25 C 32.769531 28.535156 34.453125 27.15625 35.953125 25.824219 C 36.296875 25.59375 36.46875 25.570312 36.875 25.625 C 37.085938 25.746094 37.292969 25.871094 37.5 26 C 38.082031 26.246094 38.617188 26.386719 39.25 26.414062 C 40.421875 26.511719 41.152344 27.351562 41.882812 28.199219 C 41.960938 28.300781 42.042969 28.398438 42.125 28.5 C 42.214844 28.609375 42.214844 28.609375 42.304688 28.71875 C 42.625 29.148438 42.6875 29.472656 42.625 30 C 42.390625 30.234375 42.0625 30.175781 41.75 30.203125 C 41.460938 30.242188 41.460938 30.242188 41.125 30.5 C 40.984375 30.496094 40.839844 30.488281 40.695312 30.484375 C 40.546875 30.488281 40.402344 30.496094 40.25 30.5 C 40.152344 30.621094 40.152344 30.621094 40.050781 30.75 C 39.574219 31.148438 39.078125 31.058594 38.472656 31.042969 C 38.347656 31.042969 38.222656 31.042969 38.097656 31.042969 C 37.695312 31.039062 37.296875 31.03125 36.898438 31.023438 C 36.5 31.019531 36.101562 31.011719 35.707031 31.007812 C 35.457031 31.007812 35.210938 31.003906 34.964844 31 C 34.332031 30.988281 33.746094 31.019531 33.125 31.125 C 32.101562 31.226562 31.363281 31.074219 30.5 30.5 C 30.40625 30.402344 30.3125 30.304688 30.21875 30.203125 C 30.148438 30.136719 30.074219 30.070312 30 30 C 29.441406 30.042969 29.039062 30.207031 28.554688 30.484375 C 28.441406 30.546875 28.328125 30.613281 28.210938 30.679688 C 27.992188 30.808594 27.773438 30.9375 27.554688 31.070312 C 27.265625 31.238281 26.992188 31.367188 26.679688 31.484375 C 26.199219 31.671875 25.722656 31.863281 25.25 32.0625 C 25.121094 32.117188 24.996094 32.167969 24.863281 32.222656 C 24.644531 32.316406 24.421875 32.410156 24.203125 32.503906 C 23.722656 32.707031 23.25 32.878906 22.75 33.007812 C 21.554688 33.324219 20.714844 33.703125 19.75 34.5 C 19.542969 34.648438 19.335938 34.792969 19.125 34.9375 C 18.675781 35.25 18.230469 35.574219 17.789062 35.898438 C 17.289062 36.261719 16.800781 36.589844 16.25 36.875 C 16.152344 36.925781 16.054688 36.980469 15.953125 37.035156 C 15.144531 37.441406 14.40625 37.601562 13.507812 37.691406 C 13.148438 37.746094 12.941406 37.835938 12.625 38 C 12.460938 38 12.296875 38 12.125 38 C 12.078125 37.507812 12.085938 37.304688 12.375 36.890625 C 12.457031 36.804688 12.539062 36.714844 12.625 36.625 C 12.253906 36.667969 11.882812 36.707031 11.5 36.75 C 11.375 36.25 11.375 36.25 11.609375 35.828125 C 12.128906 35.15625 12.839844 34.761719 13.589844 34.394531 C 15.15625 33.621094 16.640625 32.71875 18 31.625 C 18.132812 31.527344 18.261719 31.429688 18.398438 31.328125 C 18.953125 30.8125 19.40625 30.21875 19.875 29.625 C 22.960938 25.769531 22.960938 25.769531 24.03125 25.574219 C 24.183594 25.558594 24.183594 25.558594 24.335938 25.546875 C 24.488281 25.53125 24.488281 25.53125 24.640625 25.519531 C 24.71875 25.511719 24.796875 25.507812 24.875 25.5 C 24.980469 25.21875 24.980469 25.21875 25 24.875 C 24.828125 24.542969 24.828125 24.542969 24.5625 24.226562 C 24.421875 24.046875 24.421875 24.046875 24.28125 23.859375 C 24.140625 23.683594 24.140625 23.683594 24 23.5 C 23.144531 22.320312 22.34375 21.09375 21.609375 19.835938 C 20.695312 18.3125 19.605469 17.28125 17.875 16.75 C 17.441406 16.640625 17.011719 16.542969 16.574219 16.453125 C 16.25 16.375 16.25 16.375 16.125 16.25 C 15.714844 16.222656 15.308594 16.210938 14.898438 16.195312 C 14.433594 16.113281 14.285156 15.996094 14 15.625 C 13.90625 15.320312 13.90625 15.320312 14 15 C 14.453125 14.628906 14.980469 14.382812 15.5 14.125 C 14.902344 13.898438 14.3125 13.792969 13.6875 13.695312 C 13.375 13.625 13.375 13.625 13 13.375 C 13 13.292969 13 13.210938 13 13.125 C 12.917969 13.125 12.835938 13.125 12.75 13.125 C 12.785156 12.726562 12.851562 12.527344 13.109375 12.21875 C 13.675781 11.902344 14.234375 11.898438 14.875 11.875 C 14.714844 11.550781 14.582031 11.511719 14.25 11.375 C 14.027344 11.339844 13.800781 11.308594 13.578125 11.28125 C 12.859375 11.160156 12.550781 10.964844 12.125 10.375 C 12.167969 10.019531 12.214844 9.90625 12.484375 9.664062 C 14.765625 8.253906 19.335938 9.925781 21.5 11 Z M 21.5 11 "/>
<path style=" stroke:none;fill-rule:nonzero;fill:rgb(76.078433%,39.215687%,40.392157%);fill-opacity:1;" d="M 30.5 0.875 C 30.613281 0.902344 30.730469 0.929688 30.847656 0.960938 C 34.121094 1.785156 37.171875 3.222656 39.875 5.25 C 40.042969 5.375 40.042969 5.375 40.214844 5.5 C 41.496094 6.492188 42.726562 7.617188 43.75 8.875 C 43.835938 8.972656 43.921875 9.074219 44.007812 9.175781 C 44.742188 10.042969 45.375 10.960938 45.988281 11.914062 C 46.101562 12.089844 46.214844 12.261719 46.332031 12.433594 C 47.753906 14.660156 48.734375 17.414062 49.25 20 C 49.300781 20.234375 49.300781 20.234375 49.355469 20.46875 C 49.988281 23.648438 49.898438 27.359375 49.125 30.5 C 49.097656 30.613281 49.070312 30.730469 49.039062 30.847656 C 47.40625 37.316406 43.347656 42.828125 37.632812 46.289062 C 35.292969 47.671875 32.671875 48.714844 30 49.25 C 29.84375 49.285156 29.6875 49.320312 29.523438 49.355469 C 23.105469 50.628906 16.433594 48.941406 11.019531 45.429688 C 10.046875 44.777344 9.125 44.050781 8.320312 43.199219 C 8.105469 42.980469 7.875 42.785156 7.640625 42.585938 C 4.070312 39.480469 1.667969 34.589844 0.75 30 C 0.714844 29.84375 0.679688 29.691406 0.644531 29.53125 C 0.0117188 26.351562 0.101562 22.640625 0.875 19.5 C 0.902344 19.386719 0.929688 19.269531 0.960938 19.152344 C 2.613281 12.613281 6.734375 7.09375 12.507812 3.613281 C 14.796875 2.277344 17.398438 1.269531 20 0.75 C 20.234375 0.699219 20.234375 0.699219 20.46875 0.644531 C 23.648438 0.0117188 27.359375 0.101562 30.5 0.875 Z M 19.375 2.75 C 19.195312 2.785156 19.015625 2.816406 18.835938 2.84375 C 13.777344 3.8125 8.890625 7.753906 6.046875 11.925781 C 4.765625 13.847656 3.742188 15.839844 3.09375 18.0625 C 3.007812 18.347656 2.914062 18.621094 2.8125 18.898438 C 2.539062 19.703125 2.402344 20.542969 2.25 21.375 C 2.226562 21.480469 2.207031 21.589844 2.183594 21.699219 C 2.105469 22.261719 2.101562 22.8125 2.101562 23.382812 C 2.097656 23.503906 2.097656 23.625 2.097656 23.75 C 2.097656 24.007812 2.09375 24.265625 2.09375 24.523438 C 2.09375 24.90625 2.089844 25.292969 2.085938 25.679688 C 2.074219 28.199219 2.417969 30.660156 3.457031 32.976562 C 3.605469 33.324219 3.726562 33.671875 3.851562 34.027344 C 4.109375 34.742188 4.445312 35.382812 4.828125 36.039062 C 4.894531 36.152344 4.960938 36.265625 5.027344 36.382812 C 7.542969 40.660156 11.753906 45.078125 16.683594 46.402344 C 17.039062 46.511719 17.371094 46.660156 17.710938 46.8125 C 18.464844 47.136719 19.203125 47.289062 20.003906 47.425781 C 20.375 47.5 20.375 47.5 20.5 47.625 C 21.847656 47.957031 23.238281 47.914062 24.613281 47.90625 C 25 47.90625 25.382812 47.90625 25.765625 47.910156 C 27.316406 47.910156 28.824219 47.902344 30.296875 47.363281 C 30.648438 47.242188 31.003906 47.140625 31.359375 47.039062 C 33.203125 46.515625 34.863281 45.878906 36.5 44.875 C 36.636719 44.796875 36.773438 44.714844 36.914062 44.632812 C 38.5625 43.652344 40.007812 42.464844 41.375 41.125 C 41.4375 41.0625 41.5 41 41.566406 40.9375 C 43.191406 39.324219 44.410156 37.378906 45.5 35.375 C 45.546875 35.292969 45.597656 35.214844 45.648438 35.128906 C 46.105469 34.355469 46.378906 33.566406 46.640625 32.710938 C 46.683594 32.578125 46.722656 32.449219 46.765625 32.3125 C 47.015625 31.519531 47.230469 30.71875 47.421875 29.910156 C 47.5 29.625 47.5 29.625 47.625 29.5 C 47.953125 28.164062 47.917969 26.78125 47.914062 25.414062 C 47.914062 25.035156 47.917969 24.65625 47.921875 24.277344 C 47.925781 22.625 47.90625 20.921875 47.25 19.375 C 47.210938 19.1875 47.179688 18.996094 47.148438 18.804688 C 47.027344 18.160156 46.796875 17.597656 46.535156 17 C 46.390625 16.660156 46.269531 16.324219 46.15625 15.976562 C 45.574219 14.355469 44.648438 12.875 43.625 11.5 C 43.511719 11.34375 43.511719 11.34375 43.394531 11.1875 C 41.847656 9.183594 40.03125 7.496094 37.972656 6.035156 C 37.824219 5.929688 37.675781 5.820312 37.527344 5.710938 C 37.042969 5.351562 36.546875 5.070312 36 4.804688 C 35.554688 4.589844 35.125 4.375 34.703125 4.121094 C 34.203125 3.832031 33.679688 3.664062 33.132812 3.492188 C 32.941406 3.429688 32.75 3.371094 32.558594 3.308594 C 32.464844 3.277344 32.371094 3.25 32.277344 3.21875 C 32.007812 3.128906 31.738281 3.027344 31.472656 2.925781 C 29.507812 2.179688 27.488281 2.082031 25.414062 2.085938 C 25.035156 2.085938 24.65625 2.082031 24.277344 2.078125 C 22.625 2.074219 20.917969 2.089844 19.375 2.75 Z M 19.375 2.75 "/>
<path style=" stroke:none;fill-rule:nonzero;fill:rgb(96.862745%,92.54902%,92.941177%);fill-opacity:1;" d="M 36.375 25.125 C 36.457031 25.167969 36.539062 25.207031 36.625 25.25 C 36.582031 25.292969 36.542969 25.332031 36.5 25.375 C 36.582031 25.457031 36.664062 25.539062 36.75 25.625 C 36.65625 25.65625 36.566406 25.691406 36.472656 25.722656 C 36.113281 25.878906 35.875 26.054688 35.578125 26.304688 C 34.425781 27.246094 33.238281 28.128906 31.96875 28.90625 C 31.890625 28.957031 31.8125 29.003906 31.730469 29.054688 C 31.507812 29.1875 31.507812 29.1875 31.125 29.375 C 31 29.332031 30.878906 29.292969 30.75 29.25 C 31.488281 28.683594 32.25 28.15625 33.015625 27.628906 C 33.457031 27.328125 33.894531 27.023438 34.320312 26.695312 C 34.816406 26.316406 35.339844 26 35.914062 25.75 C 36.1875 25.589844 36.257812 25.414062 36.375 25.125 Z M 36.375 25.125 "/>
<path style=" stroke:none;fill-rule:nonzero;fill:rgb(78.823531%,45.882353%,47.058824%);fill-opacity:1;" d="M 12 35.375 C 12.125 35.417969 12.246094 35.457031 12.375 35.5 C 12.460938 35.757812 12.460938 35.757812 12.5 36 C 12.417969 36 12.335938 36 12.25 36 C 12.25 36.125 12.25 36.246094 12.25 36.375 C 12.414062 36.417969 12.578125 36.457031 12.75 36.5 C 12.234375 36.703125 11.910156 36.78125 11.375 36.625 C 11.4375 36.074219 11.636719 35.785156 12 35.375 Z M 12 35.375 "/>
<path style=" stroke:none;fill-rule:nonzero;fill:rgb(76.862746%,39.607844%,40.000001%);fill-opacity:1;" d="M 13.25 12.125 C 13.5 12.59375 13.5 12.59375 13.5 12.875 C 13.582031 12.875 13.664062 12.875 13.75 12.875 C 13.820312 13.117188 13.820312 13.117188 13.875 13.375 C 13.75 13.5 13.75 13.5 13.429688 13.507812 C 13.328125 13.503906 13.230469 13.503906 13.125 13.5 C 13.082031 13.375 13.042969 13.253906 13 13.125 C 12.917969 13.125 12.835938 13.125 12.75 13.125 C 12.8125 12.664062 12.886719 12.425781 13.25 12.125 Z M 13.25 12.125 "/>
<path style=" stroke:none;fill-rule:nonzero;fill:rgb(69.803923%,40.000001%,41.960785%);fill-opacity:1;" d="M 16.875 1.875 C 16.714844 1.960938 16.558594 2.042969 16.398438 2.125 C 16.308594 2.171875 16.222656 2.21875 16.128906 2.265625 C 15.875 2.375 15.875 2.375 15.5 2.375 C 15.5 2.457031 15.5 2.539062 15.5 2.625 C 15.414062 2.65625 15.332031 2.691406 15.242188 2.726562 C 15.132812 2.769531 15.019531 2.8125 14.90625 2.859375 C 14.742188 2.925781 14.742188 2.925781 14.570312 2.992188 C 14.289062 3.109375 14.019531 3.234375 13.75 3.375 C 13.667969 3.292969 13.585938 3.210938 13.5 3.125 C 13.878906 2.941406 14.261719 2.761719 14.640625 2.578125 C 14.800781 2.5 14.800781 2.5 14.964844 2.421875 C 16.503906 1.6875 16.503906 1.6875 16.875 1.875 Z M 16.875 1.875 "/>
<path style=" stroke:none;fill-rule:nonzero;fill:rgb(80.000001%,48.627451%,49.411765%);fill-opacity:1;" d="M 44 37.75 C 44.082031 37.832031 44.164062 37.914062 44.25 38 C 43.78125 38.609375 43.78125 38.609375 43.5 38.75 C 43.410156 38.914062 43.328125 39.082031 43.25 39.25 C 42.980469 39.75 42.675781 40.125 42.25 40.5 C 42.125 40.5 42.003906 40.5 41.875 40.5 C 41.945312 40.417969 42.015625 40.332031 42.085938 40.246094 C 42.757812 39.4375 43.390625 38.609375 44 37.75 Z M 44 37.75 "/>
<path style=" stroke:none;fill-rule:nonzero;fill:rgb(68.627453%,40.000001%,41.960785%);fill-opacity:1;" d="M 5.625 9.625 C 5.667969 9.75 5.707031 9.871094 5.75 10 C 5.546875 10.289062 5.546875 10.289062 5.265625 10.609375 C 4.886719 11.042969 4.71875 11.308594 4.625 11.875 C 4.351562 12.183594 4.121094 12.4375 3.75 12.625 C 4.15625 11.515625 4.902344 10.550781 5.625 9.625 Z M 5.625 9.625 "/>
<path style=" stroke:none;fill-rule:nonzero;fill:rgb(70.588237%,39.607844%,41.568628%);fill-opacity:1;" d="M 44.625 39.5 C 44.707031 39.5 44.789062 39.5 44.875 39.5 C 44.691406 39.894531 44.46875 40.226562 44.203125 40.570312 C 44.128906 40.664062 44.058594 40.761719 43.980469 40.859375 C 43.757812 41.117188 43.53125 41.304688 43.25 41.5 C 43.207031 41.375 43.167969 41.253906 43.125 41.125 C 43.28125 40.851562 43.28125 40.851562 43.5 40.625 C 43.625 40.625 43.746094 40.625 43.875 40.625 C 43.917969 40.5 43.957031 40.378906 44 40.25 C 44.082031 40.25 44.164062 40.25 44.25 40.25 C 44.207031 40.125 44.167969 40.003906 44.125 39.875 C 44.25 39.875 44.371094 39.875 44.5 39.875 C 44.542969 39.75 44.582031 39.628906 44.625 39.5 Z M 44.625 39.5 "/>
<path style=" stroke:none;fill-rule:nonzero;fill:rgb(69.803923%,40.000001%,41.960785%);fill-opacity:1;" d="M 48 33.375 C 48.164062 33.863281 48.046875 34.011719 47.84375 34.476562 C 47.785156 34.609375 47.726562 34.742188 47.667969 34.878906 C 47.496094 35.257812 47.320312 35.632812 47.125 36 C 46.976562 35.550781 47.035156 35.480469 47.234375 35.070312 C 47.40625 34.710938 47.53125 34.386719 47.625 34 C 47.746094 33.789062 47.871094 33.578125 48 33.375 Z M 48 33.375 "/>
<path style=" stroke:none;fill-rule:nonzero;fill:rgb(67.450982%,40.784314%,43.137255%);fill-opacity:1;" d="M 31.5 1.25 C 32.417969 1.402344 33.257812 1.660156 34.125 2 C 34.125 2.042969 34.125 2.082031 34.125 2.125 C 33.320312 2.03125 33.320312 2.03125 32.9375 1.867188 C 32.53125 1.714844 32.179688 1.734375 31.75 1.75 C 31.667969 1.585938 31.585938 1.421875 31.5 1.25 Z M 31.5 1.25 "/>
<path style=" stroke:none;fill-rule:nonzero;fill:rgb(80.784315%,48.627451%,50.588238%);fill-opacity:1;" d="M 3.125 32 C 3.328125 32.304688 3.453125 32.539062 3.578125 32.875 C 3.609375 32.960938 3.644531 33.046875 3.675781 33.132812 C 3.75 33.375 3.75 33.375 3.75 33.75 C 3.585938 33.707031 3.421875 33.667969 3.25 33.625 C 3.207031 33.089844 3.167969 32.550781 3.125 32 Z M 3.125 32 "/>
<path style=" stroke:none;fill-rule:nonzero;fill:rgb(78.823531%,45.09804%,46.666667%);fill-opacity:1;" d="M 46.5 16.25 C 46.664062 16.375 46.828125 16.496094 47 16.625 C 46.917969 16.953125 46.835938 17.285156 46.75 17.625 C 46.53125 17.222656 46.390625 16.8125 46.25 16.375 C 46.332031 16.332031 46.414062 16.292969 46.5 16.25 Z M 46.5 16.25 "/>
<path style=" stroke:none;fill-rule:nonzero;fill:rgb(78.039217%,46.27451%,47.058824%);fill-opacity:1;" d="M 14.625 14.625 C 14.667969 14.707031 14.707031 14.789062 14.75 14.875 C 14.542969 14.957031 14.335938 15.039062 14.125 15.125 C 14.332031 15.167969 14.539062 15.207031 14.75 15.25 C 14.75 15.332031 14.75 15.414062 14.75 15.5 C 14.667969 15.5 14.585938 15.5 14.5 15.5 C 14.457031 15.664062 14.417969 15.828125 14.375 16 C 14.097656 15.78125 14.007812 15.664062 13.9375 15.3125 C 14 15 14 15 14.3125 14.773438 C 14.414062 14.722656 14.519531 14.675781 14.625 14.625 Z M 14.625 14.625 "/>
<path style=" stroke:none;fill-rule:nonzero;fill:rgb(73.333335%,37.64706%,39.215687%);fill-opacity:1;" d="M 39.375 5.125 C 39.785156 5.195312 39.976562 5.3125 40.25 5.625 C 40.167969 5.789062 40.085938 5.953125 40 6.125 C 39.917969 6 39.835938 5.878906 39.75 5.75 C 39.429688 5.660156 39.429688 5.660156 39.125 5.625 C 39.207031 5.460938 39.289062 5.296875 39.375 5.125 Z M 39.375 5.125 "/>
<path style=" stroke:none;fill-rule:nonzero;fill:rgb(69.01961%,39.607844%,41.568628%);fill-opacity:1;" d="M 47.25 14.5 C 47.542969 14.863281 47.734375 15.207031 47.90625 15.640625 C 47.949219 15.75 47.996094 15.859375 48.039062 15.96875 C 48.125 16.25 48.125 16.25 48 16.5 C 47.875 16.261719 47.75 16.019531 47.625 15.78125 C 47.554688 15.648438 47.484375 15.515625 47.414062 15.375 C 47.25 15 47.25 15 47.25 14.5 Z M 47.25 14.5 "/>
<path style=" stroke:none;fill-rule:nonzero;fill:rgb(77.64706%,43.529412%,45.09804%);fill-opacity:1;" d="M 40.125 7 C 40.25 7.042969 40.371094 7.082031 40.5 7.125 C 40.457031 7.332031 40.417969 7.539062 40.375 7.75 C 40.5 7.75 40.621094 7.75 40.75 7.75 C 40.707031 7.914062 40.667969 8.078125 40.625 8.25 C 40.335938 8.003906 40.046875 7.753906 39.75 7.5 C 39.875 7.335938 39.996094 7.171875 40.125 7 Z M 40.125 7 "/>
<path style=" stroke:none;fill-rule:nonzero;fill:rgb(97.254902%,93.725491%,93.725491%);fill-opacity:1;" d="M 33.5 27.25 C 33.582031 27.292969 33.664062 27.332031 33.75 27.375 C 33.75 27.5 33.75 27.621094 33.75 27.75 C 33.09375 28.25 33.09375 28.25 32.75 28.25 C 32.707031 28.125 32.667969 28.003906 32.625 27.875 C 32.914062 27.667969 33.203125 27.460938 33.5 27.25 Z M 33.5 27.25 "/>
<path style=" stroke:none;fill-rule:nonzero;fill:rgb(69.411767%,40.392157%,41.960785%);fill-opacity:1;" d="M 5.625 40.25 C 6 40.375 6 40.375 6.25 40.75 C 6.570312 40.839844 6.570312 40.839844 6.875 40.875 C 6.832031 41.082031 6.792969 41.289062 6.75 41.5 C 6.609375 41.386719 6.46875 41.273438 6.328125 41.15625 C 6.25 41.09375 6.171875 41.027344 6.089844 40.960938 C 5.863281 40.738281 5.75 40.539062 5.625 40.25 Z M 5.625 40.25 "/>
<path style=" stroke:none;fill-rule:nonzero;fill:rgb(81.176472%,51.764709%,53.725493%);fill-opacity:1;" d="M 47 31.125 C 47.140625 31.335938 47.140625 31.335938 47.25 31.625 C 47.148438 31.921875 47.148438 31.921875 47 32.25 C 46.953125 32.5 46.910156 32.75 46.875 33 C 46.75 33 46.628906 33 46.5 33 C 46.527344 32.90625 46.550781 32.8125 46.578125 32.71875 C 46.609375 32.59375 46.644531 32.46875 46.679688 32.34375 C 46.714844 32.222656 46.746094 32.101562 46.78125 31.976562 C 46.855469 31.691406 46.929688 31.410156 47 31.125 Z M 47 31.125 "/>
<path style=" stroke:none;fill-rule:nonzero;fill:rgb(72.549021%,40.000001%,42.745098%);fill-opacity:1;" d="M 7 8 C 7.042969 8.125 7.082031 8.246094 7.125 8.375 C 6.984375 8.628906 6.984375 8.628906 6.78125 8.898438 C 6.714844 8.988281 6.648438 9.078125 6.578125 9.167969 C 6.511719 9.238281 6.445312 9.304688 6.375 9.375 C 6.25 9.375 6.128906 9.375 6 9.375 C 6.050781 9.308594 6.101562 9.238281 6.15625 9.167969 C 6.222656 9.078125 6.289062 8.992188 6.359375 8.898438 C 6.425781 8.808594 6.492188 8.722656 6.5625 8.628906 C 6.714844 8.425781 6.859375 8.214844 7 8 Z M 7 8 "/>
<path style=" stroke:none;fill-rule:nonzero;fill:rgb(92.941177%,82.745099%,83.137256%);fill-opacity:1;" d="M 36.375 25.125 C 36.457031 25.167969 36.539062 25.207031 36.625 25.25 C 36.582031 25.292969 36.542969 25.332031 36.5 25.375 C 36.582031 25.457031 36.664062 25.539062 36.75 25.625 C 36.613281 25.675781 36.613281 25.675781 36.476562 25.726562 C 36.128906 25.875 35.820312 26.050781 35.5 26.25 C 35.601562 26.007812 35.601562 26.007812 35.75 25.75 C 35.875 25.707031 35.996094 25.667969 36.125 25.625 C 36.277344 25.375 36.277344 25.375 36.375 25.125 Z M 36.375 25.125 "/>
<path style=" stroke:none;fill-rule:nonzero;fill:rgb(79.215688%,31.37255%,32.941177%);fill-opacity:1;" d="M 46.875 35.875 C 46.957031 35.957031 47.039062 36.039062 47.125 36.125 C 47 36.371094 46.878906 36.621094 46.75 36.875 C 46.585938 36.710938 46.421875 36.546875 46.25 36.375 C 46.457031 36.292969 46.664062 36.210938 46.875 36.125 C 46.875 36.042969 46.875 35.960938 46.875 35.875 Z M 46.875 35.875 "/>
<path style=" stroke:none;fill-rule:nonzero;fill:rgb(79.607844%,45.09804%,47.058824%);fill-opacity:1;" d="M 16.25 3.25 C 16.414062 3.375 16.578125 3.496094 16.75 3.625 C 16.503906 3.757812 16.253906 3.882812 16 4 C 15.917969 3.957031 15.835938 3.917969 15.75 3.875 C 15.96875 3.390625 15.96875 3.390625 16.25 3.25 Z M 16.25 3.25 "/>
<path style=" stroke:none;fill-rule:nonzero;fill:rgb(69.01961%,39.607844%,41.176471%);fill-opacity:1;" d="M 2.375 15 C 2.535156 15.480469 2.4375 15.664062 2.25 16.125 C 2.046875 16.421875 2.046875 16.421875 1.875 16.625 C 1.910156 16.449219 1.949219 16.269531 1.984375 16.09375 C 2.003906 15.996094 2.023438 15.898438 2.046875 15.796875 C 2.125 15.503906 2.230469 15.265625 2.375 15 Z M 2.375 15 "/>
<path style=" stroke:none;fill-rule:nonzero;fill:rgb(68.627453%,39.607844%,40.784314%);fill-opacity:1;" d="M 12.375 3.75 C 12.457031 3.792969 12.539062 3.832031 12.625 3.875 C 12.5 3.917969 12.378906 3.957031 12.25 4 C 12.097656 4.3125 12.097656 4.3125 12 4.625 C 11.792969 4.582031 11.585938 4.542969 11.375 4.5 C 11.671875 4.171875 11.984375 3.953125 12.375 3.75 Z M 12.375 3.75 "/>
<path style=" stroke:none;fill-rule:nonzero;fill:rgb(77.254903%,42.745098%,44.705883%);fill-opacity:1;" d="M 41.75 40.625 C 41.75 41.121094 41.585938 41.269531 41.25 41.625 C 40.984375 41.707031 40.984375 41.707031 40.75 41.75 C 40.871094 41.609375 40.988281 41.46875 41.109375 41.328125 C 41.175781 41.25 41.242188 41.171875 41.3125 41.089844 C 41.453125 40.929688 41.597656 40.777344 41.75 40.625 Z M 41.75 40.625 "/>
<path style=" stroke:none;fill-rule:nonzero;fill:rgb(77.64706%,44.313726%,45.490196%);fill-opacity:1;" d="M 19.5 2.25 C 19.78125 2.28125 19.78125 2.28125 20 2.375 C 20 2.457031 20 2.539062 20 2.625 C 19.421875 2.890625 19.421875 2.890625 19 2.75 C 19.21875 2.492188 19.21875 2.492188 19.5 2.25 Z M 19.5 2.25 "/>
<path style=" stroke:none;fill-rule:nonzero;fill:rgb(80.784315%,49.411765%,50.980395%);fill-opacity:1;" d="M 34 46.125 C 33.957031 46.25 33.917969 46.371094 33.875 46.5 C 33.5 46.625 33.5 46.625 33.226562 46.507812 C 33.152344 46.464844 33.078125 46.421875 33 46.375 C 33.71875 46.125 33.71875 46.125 34 46.125 Z M 33.25 46.75 C 33.332031 46.832031 33.414062 46.914062 33.5 47 C 33.417969 47 33.335938 47 33.25 47 C 33.25 46.917969 33.25 46.835938 33.25 46.75 Z M 33.25 46.75 "/>
<path style=" stroke:none;fill-rule:nonzero;fill:rgb(70.980394%,40.392157%,41.960785%);fill-opacity:1;" d="M 40.875 43.625 C 40.957031 43.667969 41.039062 43.707031 41.125 43.75 C 40.753906 44.058594 40.753906 44.058594 40.375 44.375 C 40.332031 44.210938 40.292969 44.046875 40.25 43.875 C 40.546875 43.742188 40.546875 43.742188 40.875 43.625 Z M 40.875 43.625 "/>
<path style=" stroke:none;fill-rule:nonzero;fill:rgb(81.568629%,48.235294%,51.372552%);fill-opacity:1;" d="M 13.25 12.125 C 13.292969 12.207031 13.332031 12.289062 13.375 12.375 C 13.257812 12.628906 13.132812 12.878906 13 13.125 C 12.917969 13.125 12.835938 13.125 12.75 13.125 C 12.8125 12.664062 12.886719 12.425781 13.25 12.125 Z M 13.25 12.125 "/>
<path style=" stroke:none;fill-rule:nonzero;fill:rgb(78.039217%,41.568628%,43.921569%);fill-opacity:1;" d="M 37.125 5.125 C 37.371094 5.207031 37.621094 5.289062 37.875 5.375 C 37.75 5.5 37.628906 5.621094 37.5 5.75 C 37.335938 5.667969 37.171875 5.585938 37 5.5 C 37.042969 5.375 37.082031 5.253906 37.125 5.125 Z M 37.125 5.125 "/>
<path style=" stroke:none;fill-rule:nonzero;fill:rgb(79.215688%,33.333334%,35.294119%);fill-opacity:1;" d="M 36.875 46.25 C 36.875 46.414062 36.875 46.578125 36.875 46.75 C 36.75 46.792969 36.628906 46.832031 36.5 46.875 C 36.457031 46.75 36.417969 46.628906 36.375 46.5 C 36.292969 46.457031 36.210938 46.417969 36.125 46.375 C 36.375 46.25 36.375 46.25 36.875 46.25 Z M 36.875 46.25 "/>
<path style=" stroke:none;fill-rule:nonzero;fill:rgb(98.823529%,97.647059%,97.647059%);fill-opacity:1;" d="M 37.25 19.25 C 37.414062 19.292969 37.578125 19.332031 37.75 19.375 C 37.707031 19.539062 37.667969 19.703125 37.625 19.875 C 37.5 19.875 37.378906 19.875 37.25 19.875 C 37.25 19.667969 37.25 19.460938 37.25 19.25 Z M 37.25 19.25 "/>
<path style=" stroke:none;fill-rule:nonzero;fill:rgb(69.01961%,40.000001%,41.568628%);fill-opacity:1;" d="M 38 4.125 C 38.492188 4.289062 38.777344 4.488281 39.125 4.875 C 38.835938 4.792969 38.546875 4.710938 38.25 4.625 C 38.25 4.542969 38.25 4.460938 38.25 4.375 C 38.167969 4.375 38.085938 4.375 38 4.375 C 38 4.292969 38 4.210938 38 4.125 Z M 38 4.125 "/>
<path style=" stroke:none;fill-rule:nonzero;fill:rgb(82.352942%,56.470591%,58.039218%);fill-opacity:1;" d="M 31 47.125 C 30.957031 47.25 30.917969 47.371094 30.875 47.5 C 30.726562 47.496094 30.726562 47.496094 30.578125 47.492188 C 30.253906 47.476562 30.253906 47.476562 30 47.625 C 29.875 47.542969 29.753906 47.460938 29.625 47.375 C 30.578125 47.125 30.578125 47.125 31 47.125 Z M 31 47.125 "/>
<path style=" stroke:none;fill-rule:nonzero;fill:rgb(72.549021%,40.000001%,42.352942%);fill-opacity:1;" d="M 31.5 1.25 C 31.789062 1.292969 32.078125 1.332031 32.375 1.375 C 32.375 1.457031 32.375 1.539062 32.375 1.625 C 32.167969 1.667969 31.960938 1.707031 31.75 1.75 C 31.667969 1.585938 31.585938 1.421875 31.5 1.25 Z M 31.5 1.25 "/>
</g>
</svg>
