<?xml version="1.0" encoding="UTF-8"?>
<svg xmlns="http://www.w3.org/2000/svg" xmlns:xlink="http://www.w3.org/1999/xlink" width="50px" height="50px" viewBox="0 0 50 50" version="1.1">
<g id="surface1">
<path style=" stroke:none;fill-rule:nonzero;fill:rgb(99.607843%,99.607843%,99.607843%);fill-opacity:1;" d="M 23.765625 -0.0234375 C 23.894531 -0.0234375 23.894531 -0.0234375 24.027344 -0.0234375 C 30.976562 -0.0703125 37.332031 2.117188 42.390625 6.992188 C 42.445312 7.046875 42.503906 7.101562 42.5625 7.15625 C 43.335938 7.90625 44.058594 8.675781 44.714844 9.535156 C 44.757812 9.589844 44.804688 9.648438 44.847656 9.707031 C 47.640625 13.308594 49.449219 17.8125 49.894531 22.351562 C 49.90625 22.464844 49.917969 22.578125 49.929688 22.695312 C 50.242188 26.289062 49.773438 29.851562 48.625 33.261719 C 48.601562 33.335938 48.574219 33.414062 48.550781 33.492188 C 48.171875 34.59375 47.691406 35.625 47.144531 36.652344 C 47.105469 36.730469 47.0625 36.808594 47.023438 36.886719 C 45.347656 40.058594 42.945312 42.890625 40.0625 45.019531 C 39.945312 45.109375 39.828125 45.199219 39.710938 45.289062 C 37.523438 46.925781 35.050781 48.117188 32.453125 48.941406 C 32.371094 48.964844 32.292969 48.992188 32.210938 49.015625 C 28.546875 50.152344 24.277344 50.484375 20.507812 49.683594 C 20.402344 49.660156 20.296875 49.636719 20.1875 49.613281 C 16.632812 48.847656 13.300781 47.507812 10.359375 45.339844 C 10.296875 45.292969 10.238281 45.25 10.171875 45.203125 C 9.304688 44.5625 8.496094 43.863281 7.714844 43.113281 C 7.621094 43.023438 7.621094 43.023438 7.527344 42.933594 C 6.640625 42.082031 5.828125 41.210938 5.101562 40.222656 C 4.972656 40.046875 4.839844 39.871094 4.707031 39.699219 C 0.742188 34.40625 -0.65625 27.585938 0.265625 21.101562 C 0.925781 16.8125 2.691406 12.816406 5.390625 9.429688 C 5.4375 9.371094 5.480469 9.3125 5.527344 9.253906 C 6.910156 7.5 8.535156 5.945312 10.359375 4.660156 C 10.425781 4.613281 10.496094 4.566406 10.5625 4.515625 C 12.71875 3 15.039062 1.859375 17.546875 1.058594 C 17.625 1.035156 17.707031 1.007812 17.789062 0.984375 C 19.703125 0.382812 21.753906 -0.0117188 23.765625 -0.0234375 Z M 24.523438 3.070312 C 24.523438 3.105469 24.523438 3.140625 24.523438 3.179688 C 24.839844 3.179688 25.152344 3.179688 25.476562 3.179688 C 25.476562 3.144531 25.476562 3.109375 25.476562 3.070312 C 25.160156 3.070312 24.847656 3.070312 24.523438 3.070312 Z M 38.796875 8.050781 C 38.902344 8.261719 38.902344 8.261719 38.902344 8.261719 Z M 28.222656 10.167969 C 28.648438 10.277344 28.648438 10.277344 28.648438 10.277344 Z M 25.792969 11.757812 C 26.214844 11.863281 26.214844 11.863281 26.214844 11.863281 Z M 27.378906 11.757812 C 27.378906 11.792969 27.378906 11.828125 27.378906 11.863281 C 27.554688 11.863281 27.726562 11.863281 27.90625 11.863281 C 27.90625 11.828125 27.90625 11.792969 27.90625 11.757812 C 27.734375 11.757812 27.558594 11.757812 27.378906 11.757812 Z M 33.613281 13.347656 C 33.722656 13.558594 33.722656 13.558594 33.722656 13.558594 Z M 36.152344 14.40625 C 36.257812 14.617188 36.257812 14.617188 36.257812 14.617188 Z M 36.152344 15.464844 C 36.257812 15.679688 36.257812 15.679688 36.257812 15.679688 Z M 12.789062 16.738281 C 12.894531 16.949219 12.894531 16.949219 12.894531 16.949219 Z M 14.269531 17.796875 C 14.375 18.007812 14.375 18.007812 14.375 18.007812 Z M 19.132812 21.292969 C 19.554688 21.398438 19.554688 21.398438 19.554688 21.398438 Z M 36.363281 21.292969 C 36.46875 21.503906 36.46875 21.503906 36.46875 21.503906 Z M 3.382812 21.503906 C 3.488281 21.714844 3.488281 21.714844 3.488281 21.714844 Z M 3.277344 22.246094 C 3.382812 22.457031 3.382812 22.457031 3.382812 22.457031 Z M 46.617188 22.351562 C 46.722656 22.5625 46.722656 22.5625 46.722656 22.5625 Z M 20.191406 22.457031 C 20.191406 22.492188 20.191406 22.527344 20.191406 22.5625 C 20.714844 22.5625 21.238281 22.5625 21.777344 22.5625 C 21.777344 22.527344 21.777344 22.492188 21.777344 22.457031 C 21.253906 22.457031 20.730469 22.457031 20.191406 22.457031 Z M 36.574219 22.457031 C 36.679688 22.667969 36.679688 22.667969 36.679688 22.667969 Z M 13.636719 22.667969 C 13.742188 22.882812 13.742188 22.882812 13.742188 22.882812 Z M 30.550781 22.988281 C 30.65625 23.199219 30.65625 23.199219 30.65625 23.199219 Z M 3.171875 23.304688 C 3.277344 23.730469 3.277344 23.730469 3.277344 23.730469 Z M 46.722656 23.410156 C 46.722656 23.585938 46.722656 23.761719 46.722656 23.941406 C 46.757812 23.941406 46.792969 23.941406 46.828125 23.941406 C 46.828125 23.765625 46.828125 23.589844 46.828125 23.410156 C 46.792969 23.410156 46.757812 23.410156 46.722656 23.410156 Z M 23.253906 23.621094 C 23.679688 23.730469 23.679688 23.730469 23.679688 23.730469 Z M 36.785156 23.621094 C 36.890625 23.835938 36.890625 23.835938 36.890625 23.835938 Z M 13.847656 24.046875 C 13.953125 24.257812 13.953125 24.257812 13.953125 24.257812 Z M 32.136719 24.578125 C 32.242188 24.789062 32.242188 24.789062 32.242188 24.789062 Z M 36.996094 24.789062 C 37.105469 25 37.105469 25 37.105469 25 Z M 14.058594 25.421875 C 14.164062 25.636719 14.164062 25.636719 14.164062 25.636719 Z M 37.210938 25.953125 C 37.316406 26.164062 37.316406 26.164062 37.316406 26.164062 Z M 46.722656 26.058594 C 46.722656 26.234375 46.722656 26.410156 46.722656 26.589844 C 46.757812 26.589844 46.792969 26.589844 46.828125 26.589844 C 46.828125 26.414062 46.828125 26.238281 46.828125 26.058594 C 46.792969 26.058594 46.757812 26.058594 46.722656 26.058594 Z M 3.171875 26.269531 C 3.277344 26.695312 3.277344 26.695312 3.277344 26.695312 Z M 20.929688 26.695312 C 21.035156 26.90625 21.035156 26.90625 21.035156 26.90625 Z M 14.269531 26.800781 C 14.375 27.011719 14.375 27.011719 14.375 27.011719 Z M 29.703125 27.011719 C 29.808594 27.222656 29.808594 27.222656 29.808594 27.222656 Z M 37.421875 27.117188 C 37.527344 27.332031 37.527344 27.332031 37.527344 27.332031 Z M 20.824219 27.4375 C 20.929688 27.648438 20.929688 27.648438 20.929688 27.648438 Z M 46.617188 27.4375 C 46.722656 27.648438 46.722656 27.648438 46.722656 27.648438 Z M 3.277344 27.542969 C 3.382812 27.753906 3.382812 27.753906 3.382812 27.753906 Z M 34.882812 27.542969 C 34.988281 27.753906 34.988281 27.753906 34.988281 27.753906 Z M 29.597656 27.859375 C 29.703125 28.070312 29.703125 28.070312 29.703125 28.070312 Z M 14.480469 28.179688 C 14.585938 28.390625 14.585938 28.390625 14.585938 28.390625 Z M 3.382812 28.285156 C 3.488281 28.496094 3.488281 28.496094 3.488281 28.496094 Z M 37.632812 28.285156 C 37.738281 28.496094 37.738281 28.496094 37.738281 28.496094 Z M 29.492188 28.8125 C 29.597656 29.027344 29.597656 29.027344 29.597656 29.027344 Z M 17.441406 28.917969 C 17.546875 29.132812 17.546875 29.132812 17.546875 29.132812 Z M 30.550781 29.027344 C 30.65625 29.238281 30.65625 29.238281 30.65625 29.238281 Z M 14.695312 29.554688 C 14.800781 29.765625 14.800781 29.765625 14.800781 29.765625 Z M 17.335938 29.871094 C 17.441406 30.085938 17.441406 30.085938 17.441406 30.085938 Z M 30.445312 29.980469 C 30.550781 30.191406 30.550781 30.191406 30.550781 30.191406 Z M 17.230469 30.828125 C 17.335938 31.25 17.335938 31.25 17.335938 31.25 Z M 14.90625 30.933594 C 15.011719 31.144531 15.011719 31.144531 15.011719 31.144531 Z M 29.070312 31.992188 C 29.175781 32.203125 29.175781 32.203125 29.175781 32.203125 Z M 18.289062 32.097656 C 18.394531 32.308594 18.394531 32.308594 18.394531 32.308594 Z M 15.117188 32.308594 C 15.222656 32.519531 15.222656 32.519531 15.222656 32.519531 Z M 28.964844 32.839844 C 29.070312 33.050781 29.070312 33.050781 29.070312 33.050781 Z M 18.183594 33.050781 C 18.289062 33.261719 18.289062 33.261719 18.289062 33.261719 Z M 15.328125 33.6875 C 15.433594 33.898438 15.433594 33.898438 15.433594 33.898438 Z M 16.808594 34.003906 C 16.914062 34.214844 16.914062 34.214844 16.914062 34.214844 Z M 18.074219 34.003906 C 18.183594 34.214844 18.183594 34.214844 18.183594 34.214844 Z M 38.796875 34.746094 C 38.902344 34.957031 38.902344 34.957031 38.902344 34.957031 Z M 16.703125 34.957031 C 16.808594 35.167969 16.808594 35.167969 16.808594 35.167969 Z M 15.539062 35.0625 C 15.644531 35.277344 15.644531 35.277344 15.644531 35.277344 Z M 17.652344 36.335938 C 17.722656 36.40625 17.792969 36.472656 17.863281 36.546875 C 17.863281 36.476562 17.863281 36.40625 17.863281 36.335938 C 17.796875 36.335938 17.726562 36.335938 17.652344 36.335938 Z M 15.75 36.441406 C 15.855469 36.652344 15.855469 36.652344 15.855469 36.652344 Z M 25.582031 36.546875 C 25.6875 36.757812 25.6875 36.757812 25.6875 36.757812 Z M 39.21875 36.96875 C 39.324219 37.183594 39.324219 37.183594 39.324219 37.183594 Z M 25.476562 37.183594 C 25.582031 37.394531 25.582031 37.394531 25.582031 37.394531 Z M 17.652344 37.289062 C 17.757812 37.605469 17.757812 37.605469 17.757812 37.605469 Z M 39.324219 37.710938 C 39.429688 37.921875 39.429688 37.921875 39.429688 37.921875 Z M 15.960938 37.816406 C 16.066406 38.03125 16.066406 38.03125 16.066406 38.03125 Z M 25.371094 37.816406 C 25.476562 38.03125 25.476562 38.03125 25.476562 38.03125 Z M 29.070312 38.242188 C 29.175781 38.453125 29.175781 38.453125 29.175781 38.453125 Z M 17.546875 38.347656 C 17.652344 38.664062 17.652344 38.664062 17.652344 38.664062 Z M 28.011719 38.453125 C 28.117188 38.664062 28.117188 38.664062 28.117188 38.664062 Z M 28.964844 39.300781 C 29.070312 39.511719 29.070312 39.511719 29.070312 39.511719 Z M 16.597656 40.679688 C 16.5625 40.746094 16.527344 40.816406 16.492188 40.890625 C 16.558594 40.890625 16.628906 40.890625 16.703125 40.890625 C 16.667969 40.820312 16.632812 40.75 16.597656 40.679688 Z M 25.371094 42.054688 C 25.792969 42.160156 25.792969 42.160156 25.792969 42.160156 Z M 24.839844 44.914062 C 25.265625 45.019531 25.265625 45.019531 25.265625 45.019531 Z M 24.417969 46.820312 C 24.417969 46.855469 24.417969 46.890625 24.417969 46.929688 C 24.800781 46.929688 25.1875 46.929688 25.582031 46.929688 C 25.582031 46.894531 25.582031 46.859375 25.582031 46.820312 C 25.199219 46.820312 24.8125 46.820312 24.417969 46.820312 Z M 24.417969 46.820312 "/>
<path style=" stroke:none;fill-rule:nonzero;fill:rgb(5.098039%,53.333336%,26.666668%);fill-opacity:1;" d="M 23.765625 -0.0234375 C 23.894531 -0.0234375 23.894531 -0.0234375 24.027344 -0.0234375 C 30.976562 -0.0703125 37.332031 2.117188 42.390625 6.992188 C 42.445312 7.046875 42.503906 7.101562 42.5625 7.15625 C 43.335938 7.90625 44.058594 8.675781 44.714844 9.535156 C 44.757812 9.589844 44.804688 9.648438 44.847656 9.707031 C 47.640625 13.308594 49.449219 17.8125 49.894531 22.351562 C 49.90625 22.464844 49.917969 22.578125 49.929688 22.695312 C 50.242188 26.289062 49.773438 29.851562 48.625 33.261719 C 48.601562 33.335938 48.574219 33.414062 48.550781 33.492188 C 48.171875 34.59375 47.691406 35.625 47.144531 36.652344 C 47.105469 36.730469 47.0625 36.808594 47.023438 36.886719 C 45.347656 40.058594 42.945312 42.890625 40.0625 45.019531 C 39.945312 45.109375 39.828125 45.199219 39.710938 45.289062 C 37.523438 46.925781 35.050781 48.117188 32.453125 48.941406 C 32.371094 48.964844 32.292969 48.992188 32.210938 49.015625 C 28.546875 50.152344 24.277344 50.484375 20.507812 49.683594 C 20.402344 49.660156 20.296875 49.636719 20.1875 49.613281 C 16.632812 48.847656 13.300781 47.507812 10.359375 45.339844 C 10.296875 45.292969 10.238281 45.25 10.171875 45.203125 C 9.304688 44.5625 8.496094 43.863281 7.714844 43.113281 C 7.621094 43.023438 7.621094 43.023438 7.527344 42.933594 C 6.640625 42.082031 5.828125 41.210938 5.101562 40.222656 C 4.972656 40.046875 4.839844 39.871094 4.707031 39.699219 C 0.742188 34.40625 -0.65625 27.585938 0.265625 21.101562 C 0.925781 16.8125 2.691406 12.816406 5.390625 9.429688 C 5.4375 9.371094 5.480469 9.3125 5.527344 9.253906 C 6.910156 7.5 8.535156 5.945312 10.359375 4.660156 C 10.425781 4.613281 10.496094 4.566406 10.5625 4.515625 C 12.71875 3 15.039062 1.859375 17.546875 1.058594 C 17.625 1.035156 17.707031 1.007812 17.789062 0.984375 C 19.703125 0.382812 21.753906 -0.0117188 23.765625 -0.0234375 Z M 9.621094 9.429688 C 9.535156 9.507812 9.449219 9.589844 9.363281 9.671875 C 8.253906 10.75 8.253906 10.75 7.503906 12.078125 C 9.203125 12.816406 10.902344 13.550781 12.609375 14.265625 C 12.75 14.324219 12.886719 14.382812 13.023438 14.441406 C 13.09375 14.46875 13.167969 14.5 13.238281 14.53125 C 14.417969 15.023438 15.59375 15.523438 16.769531 16.023438 C 17.066406 16.148438 17.363281 16.273438 17.660156 16.398438 C 17.753906 16.4375 17.847656 16.480469 17.941406 16.519531 C 18.539062 16.773438 19.140625 17.023438 19.738281 17.269531 C 19.96875 17.367188 20.1875 17.476562 20.410156 17.589844 C 21.265625 18.042969 21.265625 18.042969 22.199219 18.21875 C 22.128906 18.535156 22.058594 18.847656 21.988281 19.171875 C 21.453125 19.308594 21.34375 19.191406 20.894531 18.921875 C 20.710938 18.8125 20.535156 18.695312 20.359375 18.578125 C 19.671875 18.117188 18.972656 17.777344 18.203125 17.46875 C 17.917969 17.351562 17.636719 17.234375 17.351562 17.117188 C 17.199219 17.054688 17.046875 16.992188 16.890625 16.929688 C 16.0625 16.585938 15.238281 16.234375 14.414062 15.882812 C 14.152344 15.769531 13.886719 15.660156 13.625 15.546875 C 12.738281 15.167969 11.851562 14.789062 10.964844 14.410156 C 10.527344 14.21875 10.089844 14.03125 9.648438 13.84375 C 9.4375 13.75 9.222656 13.660156 9.011719 13.566406 C 8.714844 13.4375 8.417969 13.3125 8.121094 13.183594 C 8.03125 13.144531 7.945312 13.105469 7.851562 13.066406 C 7.773438 13.03125 7.691406 12.996094 7.605469 12.960938 C 7.5 12.917969 7.5 12.917969 7.390625 12.871094 C 7.144531 12.804688 7.003906 12.832031 6.765625 12.921875 C 6.464844 13.273438 6.25 13.6875 6.023438 14.089844 C 5.984375 14.160156 5.941406 14.234375 5.898438 14.308594 C 4.078125 17.582031 3.148438 21.171875 3.144531 24.921875 C 3.144531 24.996094 3.144531 25.070312 3.144531 25.148438 C 3.152344 31.058594 5.585938 36.503906 9.707031 40.691406 C 10.402344 41.386719 11.148438 42.003906 11.945312 42.585938 C 12.003906 42.628906 12.058594 42.667969 12.121094 42.714844 C 12.976562 43.339844 13.867188 43.882812 14.800781 44.386719 C 14.894531 44.4375 14.894531 44.4375 14.996094 44.492188 C 19.9375 47.171875 25.9375 47.5625 31.285156 46.007812 C 34.832031 44.917969 37.828125 43.019531 40.484375 40.464844 C 40.566406 40.390625 40.644531 40.316406 40.726562 40.238281 C 43.945312 37.113281 45.882812 32.769531 46.617188 28.390625 C 46.636719 28.28125 46.636719 28.28125 46.65625 28.171875 C 47.566406 22.796875 46.097656 16.957031 42.992188 12.515625 C 42.699219 12.113281 42.390625 11.722656 42.070312 11.335938 C 42.027344 11.277344 41.980469 11.222656 41.933594 11.164062 C 41.21875 10.285156 40.453125 9.476562 39.640625 8.6875 C 39.230469 8.839844 38.871094 9.03125 38.5 9.261719 C 38.441406 9.296875 38.382812 9.332031 38.320312 9.367188 C 38.132812 9.484375 37.941406 9.601562 37.75 9.71875 C 37.617188 9.800781 37.484375 9.882812 37.351562 9.964844 C 37.078125 10.128906 36.808594 10.296875 36.539062 10.464844 C 36.097656 10.734375 35.65625 11 35.214844 11.269531 C 34.152344 11.917969 33.09375 12.566406 32.035156 13.222656 C 31.425781 13.597656 30.816406 13.972656 30.203125 14.34375 C 30.109375 14.402344 30.109375 14.402344 30.011719 14.460938 C 29.945312 14.5 29.882812 14.539062 29.816406 14.578125 C 27.773438 15.796875 27.773438 15.796875 25.816406 17.140625 C 25.476562 17.371094 25.476562 17.371094 25.179688 17.359375 C 24.945312 17.265625 24.945312 17.265625 24.734375 17.160156 C 24.695312 16.578125 24.695312 16.578125 24.859375 16.359375 C 25.097656 16.171875 25.328125 16.085938 25.613281 15.984375 C 26.171875 15.757812 26.648438 15.480469 27.148438 15.148438 C 27.777344 14.730469 28.425781 14.355469 29.078125 13.984375 C 29.316406 13.84375 29.554688 13.707031 29.796875 13.570312 C 29.859375 13.535156 29.917969 13.5 29.980469 13.464844 C 30.6875 13.054688 31.390625 12.640625 32.09375 12.230469 C 32.355469 12.078125 32.613281 11.925781 32.871094 11.773438 C 32.933594 11.734375 32.996094 11.699219 33.0625 11.660156 C 33.984375 11.117188 34.910156 10.578125 35.832031 10.039062 C 36.179688 9.835938 36.523438 9.636719 36.867188 9.433594 C 36.984375 9.367188 37.101562 9.296875 37.222656 9.226562 C 37.445312 9.09375 37.671875 8.960938 37.898438 8.828125 C 38 8.769531 38.097656 8.710938 38.203125 8.652344 C 38.292969 8.597656 38.378906 8.546875 38.472656 8.492188 C 38.613281 8.414062 38.753906 8.335938 38.902344 8.261719 C 38.902344 8.191406 38.902344 8.121094 38.902344 8.050781 C 38.625 7.796875 38.316406 7.582031 38.015625 7.363281 C 37.925781 7.296875 37.832031 7.230469 37.742188 7.160156 C 36.863281 6.527344 35.953125 6 34.988281 5.507812 C 34.882812 5.453125 34.882812 5.453125 34.773438 5.394531 C 26.429688 1.070312 16.285156 3.050781 9.621094 9.429688 Z M 9.621094 9.429688 "/>
<path style=" stroke:none;fill-rule:nonzero;fill:rgb(5.098039%,53.333336%,26.274511%);fill-opacity:1;" d="M 35.835938 18.75 C 36.027344 19.089844 36.105469 19.40625 36.175781 19.789062 C 36.199219 19.914062 36.222656 20.039062 36.246094 20.171875 C 36.273438 20.308594 36.296875 20.449219 36.324219 20.585938 C 36.351562 20.734375 36.378906 20.882812 36.402344 21.027344 C 36.476562 21.425781 36.550781 21.824219 36.621094 22.222656 C 36.683594 22.554688 36.746094 22.890625 36.804688 23.222656 C 36.949219 24.007812 37.09375 24.792969 37.238281 25.582031 C 37.382812 26.390625 37.53125 27.199219 37.683594 28.007812 C 37.808594 28.703125 37.9375 29.402344 38.0625 30.097656 C 38.140625 30.511719 38.214844 30.925781 38.292969 31.34375 C 38.363281 31.734375 38.4375 32.125 38.507812 32.515625 C 38.542969 32.726562 38.582031 32.9375 38.621094 33.148438 C 38.746094 33.832031 38.824219 34.472656 38.796875 35.167969 C 38.691406 35.203125 38.585938 35.238281 38.476562 35.277344 C 38.453125 35.195312 38.429688 35.113281 38.402344 35.027344 C 38.019531 33.933594 37.378906 33.445312 36.363281 32.945312 C 36.40625 33.039062 36.40625 33.039062 36.449219 33.132812 C 36.582031 33.417969 36.710938 33.699219 36.839844 33.984375 C 36.90625 34.132812 36.90625 34.132812 36.976562 34.28125 C 37.019531 34.378906 37.0625 34.472656 37.105469 34.570312 C 37.148438 34.65625 37.1875 34.742188 37.226562 34.832031 C 37.316406 35.0625 37.316406 35.0625 37.316406 35.382812 C 37.394531 35.40625 37.472656 35.433594 37.554688 35.460938 C 37.867188 35.605469 38.03125 35.769531 38.265625 36.015625 C 35.753906 38.644531 32.601562 41.410156 28.785156 41.765625 C 28.707031 41.753906 28.625 41.746094 28.542969 41.738281 C 28.328125 41.460938 28.328125 41.460938 28.136719 41.101562 C 28.074219 40.984375 28.011719 40.867188 27.945312 40.746094 C 27.898438 40.652344 27.851562 40.5625 27.800781 40.464844 C 27.769531 40.636719 27.769531 40.636719 27.734375 40.808594 C 27.707031 40.957031 27.679688 41.105469 27.648438 41.253906 C 27.636719 41.328125 27.621094 41.402344 27.605469 41.480469 C 27.496094 42.042969 27.496094 42.042969 27.378906 42.160156 C 24.332031 42.351562 19.964844 41.8125 17.566406 39.773438 C 17.414062 39.625 17.414062 39.625 17.230469 39.40625 C 17.300781 39.335938 17.371094 39.265625 17.441406 39.195312 C 17.5 38.921875 17.5 38.921875 17.527344 38.601562 C 17.542969 38.484375 17.554688 38.367188 17.566406 38.246094 C 17.582031 38.121094 17.59375 38 17.605469 37.871094 C 17.632812 37.625 17.660156 37.382812 17.6875 37.140625 C 17.699219 37.03125 17.710938 36.921875 17.722656 36.808594 C 17.757812 36.546875 17.757812 36.546875 17.863281 36.335938 C 17.796875 36.335938 17.726562 36.335938 17.652344 36.335938 C 17.628906 36.394531 17.601562 36.449219 17.578125 36.511719 C 17.347656 36.929688 17.015625 37.265625 16.703125 37.621094 C 16.472656 37.949219 16.417969 38.167969 16.386719 38.558594 C 16.066406 38.347656 16.066406 38.347656 16.003906 38.160156 C 15.992188 38.085938 15.980469 38.011719 15.96875 37.933594 C 15.957031 37.84375 15.941406 37.757812 15.925781 37.664062 C 15.90625 37.519531 15.90625 37.519531 15.882812 37.367188 C 15.867188 37.261719 15.851562 37.15625 15.835938 37.046875 C 15.777344 36.683594 15.726562 36.320312 15.671875 35.957031 C 15.632812 35.699219 15.59375 35.4375 15.550781 35.179688 C 15.484375 34.742188 15.417969 34.304688 15.351562 33.867188 C 15.15625 32.574219 14.957031 31.28125 14.757812 29.992188 C 14.609375 29.054688 14.464844 28.117188 14.320312 27.179688 C 14.265625 26.828125 14.210938 26.472656 14.152344 26.121094 C 14.066406 25.5625 13.980469 25 13.894531 24.4375 C 13.859375 24.226562 13.828125 24.019531 13.796875 23.808594 C 13.75 23.519531 13.707031 23.230469 13.660156 22.941406 C 13.640625 22.8125 13.640625 22.8125 13.621094 22.683594 C 13.558594 22.289062 13.515625 21.90625 13.53125 21.503906 C 13.597656 21.542969 13.660156 21.582031 13.730469 21.621094 C 15.207031 22.460938 16.769531 22.945312 18.394531 23.410156 C 18.253906 24.398438 18.113281 25.386719 17.96875 26.378906 C 18.234375 26.089844 18.496094 25.800781 18.757812 25.511719 C 18.90625 25.347656 19.054688 25.183594 19.203125 25.023438 C 19.457031 24.742188 19.601562 24.484375 19.726562 24.132812 C 19.753906 24.058594 19.78125 23.980469 19.8125 23.902344 C 19.832031 23.847656 19.851562 23.789062 19.875 23.730469 C 19.972656 23.726562 20.070312 23.726562 20.171875 23.726562 C 23.546875 23.683594 27.011719 23.539062 30.203125 22.308594 C 30.476562 22.238281 30.605469 22.246094 30.867188 22.351562 C 31.007812 22.476562 31.148438 22.601562 31.289062 22.726562 C 31.738281 23.058594 32.265625 23.277344 32.769531 23.515625 C 32.691406 23.398438 32.691406 23.398438 32.613281 23.28125 C 32.546875 23.175781 32.480469 23.074219 32.414062 22.96875 C 32.347656 22.867188 32.28125 22.761719 32.210938 22.660156 C 32.046875 22.382812 31.925781 22.121094 31.816406 21.820312 C 31.882812 21.789062 31.949219 21.757812 32.015625 21.722656 C 33.339844 21.039062 34.996094 20.011719 35.835938 18.75 Z M 30.550781 22.988281 C 30.65625 23.199219 30.65625 23.199219 30.65625 23.199219 Z M 32.136719 24.578125 C 32.242188 24.789062 32.242188 24.789062 32.242188 24.789062 Z M 20.929688 26.695312 C 21.035156 26.90625 21.035156 26.90625 21.035156 26.90625 Z M 29.703125 27.011719 C 29.808594 27.222656 29.808594 27.222656 29.808594 27.222656 Z M 20.824219 27.4375 C 20.929688 27.648438 20.929688 27.648438 20.929688 27.648438 Z M 34.882812 27.542969 C 34.988281 27.753906 34.988281 27.753906 34.988281 27.753906 Z M 29.597656 27.859375 C 29.703125 28.070312 29.703125 28.070312 29.703125 28.070312 Z M 29.492188 28.8125 C 29.597656 29.027344 29.597656 29.027344 29.597656 29.027344 Z M 17.441406 28.917969 C 17.546875 29.132812 17.546875 29.132812 17.546875 29.132812 Z M 30.550781 29.027344 C 30.65625 29.238281 30.65625 29.238281 30.65625 29.238281 Z M 17.335938 29.871094 C 17.441406 30.085938 17.441406 30.085938 17.441406 30.085938 Z M 30.445312 29.980469 C 30.550781 30.191406 30.550781 30.191406 30.550781 30.191406 Z M 17.230469 30.828125 C 17.335938 31.25 17.335938 31.25 17.335938 31.25 Z M 29.070312 31.992188 C 29.175781 32.203125 29.175781 32.203125 29.175781 32.203125 Z M 18.289062 32.097656 C 18.394531 32.308594 18.394531 32.308594 18.394531 32.308594 Z M 28.964844 32.839844 C 29.070312 33.050781 29.070312 33.050781 29.070312 33.050781 Z M 18.183594 33.050781 C 18.289062 33.261719 18.289062 33.261719 18.289062 33.261719 Z M 16.808594 34.003906 C 16.914062 34.214844 16.914062 34.214844 16.914062 34.214844 Z M 18.074219 34.003906 C 18.183594 34.214844 18.183594 34.214844 18.183594 34.214844 Z M 16.703125 34.957031 C 16.808594 35.167969 16.808594 35.167969 16.808594 35.167969 Z M 25.582031 36.546875 C 25.6875 36.757812 25.6875 36.757812 25.6875 36.757812 Z M 25.476562 37.183594 C 25.582031 37.394531 25.582031 37.394531 25.582031 37.394531 Z M 25.371094 37.816406 C 25.476562 38.03125 25.476562 38.03125 25.476562 38.03125 Z M 29.070312 38.242188 C 29.175781 38.453125 29.175781 38.453125 29.175781 38.453125 Z M 28.011719 38.453125 C 28.117188 38.664062 28.117188 38.664062 28.117188 38.664062 Z M 28.964844 39.300781 C 29.070312 39.511719 29.070312 39.511719 29.070312 39.511719 Z M 28.964844 39.300781 "/>
<path style=" stroke:none;fill-rule:nonzero;fill:rgb(5.490196%,53.725493%,26.666668%);fill-opacity:1;" d="M 35.113281 12.667969 C 35.3125 12.824219 35.472656 12.980469 35.636719 13.175781 C 35.691406 13.238281 35.742188 13.300781 35.796875 13.363281 C 36.253906 13.984375 36.328125 14.707031 36.257812 15.464844 C 35.957031 17.136719 34.730469 18.382812 33.394531 19.332031 C 32.78125 19.753906 32.171875 20.121094 31.5 20.445312 C 31.457031 20.359375 31.410156 20.273438 31.363281 20.1875 C 31.203125 19.886719 31.203125 19.886719 30.867188 19.808594 C 30.523438 19.894531 30.523438 19.894531 30.234375 20.128906 C 30.183594 20.347656 30.171875 20.542969 30.179688 20.769531 C 30.125 20.972656 30.125 20.972656 29.929688 21.140625 C 29.464844 21.355469 28.988281 21.476562 28.496094 21.605469 C 28.386719 21.632812 28.28125 21.660156 28.171875 21.6875 C 27.425781 21.875 26.679688 22.035156 25.925781 22.171875 C 25.832031 22.191406 25.742188 22.207031 25.648438 22.222656 C 24.386719 22.445312 23.140625 22.472656 21.863281 22.464844 C 21.699219 22.464844 21.535156 22.464844 21.375 22.460938 C 20.980469 22.460938 20.585938 22.460938 20.191406 22.457031 C 20.085938 21.984375 20.085938 21.984375 19.980469 21.503906 C 19.390625 21.382812 19.390625 21.382812 18.828125 21.523438 C 18.597656 21.722656 18.519531 21.867188 18.394531 22.140625 C 16.660156 22.046875 15.03125 21.277344 13.78125 20.089844 C 13.414062 19.679688 13.191406 19.261719 13.003906 18.75 C 12.957031 18.628906 12.910156 18.503906 12.863281 18.378906 C 12.734375 17.714844 12.75 17.082031 12.894531 16.417969 C 13.078125 16.46875 13.261719 16.515625 13.445312 16.566406 C 13.597656 16.605469 13.597656 16.605469 13.753906 16.648438 C 14.039062 16.730469 14.3125 16.832031 14.585938 16.949219 C 14.53125 17.058594 14.53125 17.058594 14.476562 17.167969 C 14.34375 17.582031 14.359375 17.800781 14.480469 18.21875 C 15.117188 19.324219 16.519531 19.816406 17.683594 20.136719 C 19.074219 20.480469 20.445312 20.609375 21.875 20.597656 C 22 20.597656 22 20.597656 22.128906 20.597656 C 25.214844 20.578125 28.195312 20.019531 30.972656 18.644531 C 31.082031 18.59375 31.1875 18.539062 31.300781 18.484375 C 32.632812 17.804688 34.046875 16.796875 34.609375 15.363281 C 34.699219 15.054688 34.703125 14.914062 34.566406 14.617188 C 34.414062 14.398438 34.253906 14.1875 34.089844 13.980469 C 33.9375 13.777344 33.828125 13.578125 33.722656 13.347656 C 33.90625 13.21875 34.089844 13.089844 34.277344 12.964844 C 34.378906 12.890625 34.480469 12.820312 34.589844 12.746094 C 34.882812 12.605469 34.882812 12.605469 35.113281 12.667969 Z M 35.113281 12.667969 "/>
<path style=" stroke:none;fill-rule:nonzero;fill:rgb(5.490196%,53.725493%,27.058825%);fill-opacity:1;" d="M 39.113281 36.441406 C 39.148438 36.441406 39.183594 36.441406 39.21875 36.441406 C 39.46875 37.894531 39.519531 38.785156 38.6875 40.042969 C 37.226562 41.996094 35.074219 42.808594 32.875 43.644531 C 32.785156 43.679688 32.691406 43.714844 32.597656 43.75 C 31.875 44.027344 31.148438 44.222656 30.390625 44.390625 C 30.210938 44.433594 30.210938 44.433594 30.027344 44.472656 C 28.4375 44.828125 26.902344 45.113281 25.265625 45.019531 C 25.179688 45.015625 25.09375 45.011719 25.003906 45.007812 C 22.492188 44.859375 19.445312 44.539062 17.546875 42.691406 C 17.46875 42.617188 17.390625 42.539062 17.308594 42.460938 C 16.808594 41.949219 16.597656 41.613281 16.597656 40.890625 C 16.785156 41.171875 16.898438 41.421875 17.019531 41.738281 C 17.269531 41.773438 17.269531 41.773438 17.546875 41.738281 C 17.742188 41.535156 17.742188 41.535156 17.863281 41.3125 C 18.191406 41.4375 18.503906 41.578125 18.8125 41.734375 C 19.667969 42.167969 20.503906 42.546875 21.433594 42.789062 C 21.507812 42.808594 21.582031 42.828125 21.660156 42.851562 C 23.066406 43.191406 24.480469 43.257812 25.917969 43.261719 C 26.132812 43.261719 26.347656 43.265625 26.558594 43.269531 C 26.746094 43.269531 26.746094 43.269531 26.9375 43.273438 C 27.335938 43.335938 27.503906 43.484375 27.800781 43.75 C 28.023438 43.800781 28.023438 43.800781 28.238281 43.761719 C 28.308594 43.757812 28.378906 43.75 28.449219 43.746094 C 28.683594 43.652344 28.683594 43.652344 28.777344 43.332031 C 28.964844 43.007812 28.964844 43.007812 29.34375 42.875 C 29.5 42.847656 29.660156 42.820312 29.816406 42.796875 C 29.988281 42.765625 30.164062 42.730469 30.335938 42.695312 C 30.421875 42.679688 30.511719 42.660156 30.601562 42.640625 C 33.675781 41.96875 36.007812 40.246094 38.160156 38.03125 C 38.222656 38.097656 38.289062 38.167969 38.355469 38.238281 C 38.566406 38.480469 38.566406 38.480469 38.875 38.480469 C 38.992188 38.464844 38.992188 38.464844 39.113281 38.453125 C 39.230469 38.097656 39.199219 37.96875 39.117188 37.613281 C 38.933594 36.796875 38.933594 36.796875 39.113281 36.441406 Z M 39.113281 36.441406 "/>
<path style=" stroke:none;fill-rule:nonzero;fill:rgb(5.882353%,53.725493%,27.058825%);fill-opacity:1;" d="M 32.136719 10.699219 C 32.238281 10.804688 32.238281 10.804688 32.347656 10.910156 C 32.273438 10.957031 32.199219 11.003906 32.121094 11.050781 C 32.023438 11.113281 31.921875 11.175781 31.816406 11.242188 C 31.710938 11.308594 31.605469 11.375 31.492188 11.445312 C 31.222656 11.625 31.015625 11.8125 30.78125 12.035156 C 30.484375 12.265625 30.371094 12.289062 29.992188 12.261719 C 29.742188 12.207031 29.492188 12.144531 29.246094 12.074219 C 25.128906 10.984375 20.445312 12.667969 16.882812 14.617188 C 16.703125 14.710938 16.703125 14.710938 16.597656 14.832031 C 15.863281 14.816406 15.3125 14.457031 14.695312 14.089844 C 15.105469 13.632812 15.542969 13.34375 16.082031 13.050781 C 16.164062 13.003906 16.246094 12.957031 16.332031 12.910156 C 20.984375 10.410156 26.96875 9.332031 32.136719 10.699219 Z M 32.136719 10.699219 "/>
<path style=" stroke:none;fill-rule:nonzero;fill:rgb(97.254902%,98.431373%,98.039216%);fill-opacity:1;" d="M 18.289062 31.671875 C 18.425781 32.144531 18.371094 32.550781 18.320312 33.03125 C 18.3125 33.113281 18.304688 33.195312 18.300781 33.28125 C 18.207031 34.144531 17.851562 34.683594 17.261719 35.320312 C 17.179688 35.414062 17.097656 35.503906 17.011719 35.597656 C 16.945312 35.667969 16.875 35.734375 16.808594 35.804688 C 16.773438 35.804688 16.738281 35.804688 16.703125 35.804688 C 16.730469 35.273438 16.765625 34.746094 16.808594 34.214844 C 16.8125 34.117188 16.820312 34.015625 16.828125 33.910156 C 16.914062 33.210938 17.25 32.828125 17.738281 32.332031 C 17.945312 32.125 18.117188 31.914062 18.289062 31.671875 Z M 18.289062 31.671875 "/>
<path style=" stroke:none;fill-rule:nonzero;fill:rgb(95.686275%,97.647059%,96.470588%);fill-opacity:1;" d="M 21.882812 28.179688 C 22.527344 28.726562 23.007812 29.773438 23.078125 30.605469 C 23.050781 30.96875 23.007812 31.316406 22.9375 31.671875 C 22.917969 31.828125 22.898438 31.984375 22.878906 32.136719 C 22.863281 32.230469 22.847656 32.320312 22.832031 32.414062 C 22.441406 32.21875 22.316406 31.730469 22.132812 31.347656 C 22.066406 31.214844 22.066406 31.214844 22 31.082031 C 21.605469 30.257812 21.613281 29.660156 21.777344 28.761719 C 21.796875 28.648438 21.816406 28.539062 21.835938 28.425781 C 21.851562 28.34375 21.867188 28.261719 21.882812 28.179688 Z M 21.882812 28.179688 "/>
<path style=" stroke:none;fill-rule:nonzero;fill:rgb(97.647059%,98.823529%,98.039216%);fill-opacity:1;" d="M 25.6875 36.335938 C 26.332031 37.140625 26.941406 38.152344 26.855469 39.207031 C 26.824219 39.417969 26.789062 39.625 26.746094 39.832031 C 26.707031 40.042969 26.671875 40.253906 26.636719 40.464844 C 26.253906 40.113281 26.089844 39.699219 25.878906 39.226562 C 25.839844 39.144531 25.800781 39.0625 25.761719 38.976562 C 25.421875 38.222656 25.402344 37.625 25.582031 36.8125 C 25.601562 36.722656 25.621094 36.628906 25.640625 36.535156 C 25.65625 36.46875 25.671875 36.402344 25.6875 36.335938 Z M 25.6875 36.335938 "/>
<path style=" stroke:none;fill-rule:nonzero;fill:rgb(97.647059%,98.823529%,98.039216%);fill-opacity:1;" d="M 20.085938 24.46875 C 20.15625 24.46875 20.222656 24.46875 20.296875 24.46875 C 20.816406 25.496094 21.171875 26.265625 20.929688 27.4375 C 20.910156 27.585938 20.890625 27.738281 20.871094 27.886719 C 20.847656 28.03125 20.847656 28.03125 20.824219 28.179688 C 20.753906 28.179688 20.683594 28.179688 20.613281 28.179688 C 20.449219 27.878906 20.289062 27.578125 20.128906 27.277344 C 20.085938 27.195312 20.039062 27.109375 19.992188 27.023438 C 19.621094 26.308594 19.632812 25.910156 19.847656 25.132812 C 19.875 25.054688 19.902344 24.976562 19.933594 24.894531 C 19.960938 24.8125 19.988281 24.730469 20.019531 24.648438 C 20.039062 24.589844 20.0625 24.53125 20.085938 24.46875 Z M 20.085938 24.46875 "/>
<path style=" stroke:none;fill-rule:nonzero;fill:rgb(98.039216%,98.823529%,98.431373%);fill-opacity:1;" d="M 28.542969 35.910156 C 28.609375 35.910156 28.679688 35.910156 28.753906 35.910156 C 29.332031 37.417969 29.144531 38.683594 28.964844 40.253906 C 28.730469 39.957031 28.539062 39.65625 28.363281 39.320312 C 28.316406 39.234375 28.269531 39.148438 28.222656 39.058594 C 27.96875 38.355469 28.179688 37.632812 28.328125 36.925781 C 28.351562 36.828125 28.371094 36.730469 28.390625 36.628906 C 28.441406 36.390625 28.492188 36.148438 28.542969 35.910156 Z M 28.542969 35.910156 "/>
<path style=" stroke:none;fill-rule:nonzero;fill:rgb(97.254902%,98.431373%,98.039216%);fill-opacity:1;" d="M 29.808594 26.800781 C 30.390625 27.464844 30.691406 27.960938 30.652344 28.839844 C 30.605469 29.503906 30.53125 30.164062 30.445312 30.828125 C 29.960938 30.382812 29.671875 29.863281 29.492188 29.238281 C 29.460938 28.421875 29.605469 27.585938 29.808594 26.800781 Z M 29.808594 26.800781 "/>
<path style=" stroke:none;fill-rule:nonzero;fill:rgb(96.470588%,98.039216%,97.254902%);fill-opacity:1;" d="M 34.25 28.707031 C 34.328125 28.757812 34.40625 28.808594 34.484375 28.859375 C 34.589844 28.925781 34.691406 28.992188 34.796875 29.058594 C 34.898438 29.125 35 29.1875 35.105469 29.257812 C 35.398438 29.449219 35.398438 29.449219 35.679688 29.570312 C 36.085938 29.875 36.269531 30.292969 36.503906 30.738281 C 36.550781 30.828125 36.597656 30.917969 36.648438 31.011719 C 36.765625 31.230469 36.882812 31.453125 36.996094 31.671875 C 36.929688 31.707031 36.859375 31.742188 36.785156 31.78125 C 35.925781 31.433594 35.273438 31.054688 34.882812 30.191406 C 34.800781 30.027344 34.800781 30.027344 34.710938 29.863281 C 34.25 28.964844 34.25 28.964844 34.25 28.707031 Z M 34.25 28.707031 "/>
<path style=" stroke:none;fill-rule:nonzero;fill:rgb(97.647059%,98.823529%,98.039216%);fill-opacity:1;" d="M 18.816406 27.332031 C 19.050781 28.035156 18.648438 28.984375 18.394531 29.660156 C 18.136719 30.164062 17.8125 30.613281 17.441406 31.039062 C 17.40625 31.039062 17.371094 31.039062 17.335938 31.039062 C 17.324219 30.71875 17.328125 30.40625 17.335938 30.085938 C 17.335938 29.910156 17.335938 29.910156 17.339844 29.734375 C 17.40625 28.691406 17.796875 28.21875 18.546875 27.554688 C 18.636719 27.480469 18.722656 27.40625 18.816406 27.332031 Z M 18.816406 27.332031 "/>
<path style=" stroke:none;fill-rule:nonzero;fill:rgb(98.039216%,98.823529%,98.431373%);fill-opacity:1;" d="M 32.242188 24.683594 C 32.320312 24.730469 32.398438 24.78125 32.476562 24.832031 C 32.578125 24.898438 32.683594 24.964844 32.789062 25.03125 C 32.890625 25.097656 32.992188 25.164062 33.097656 25.230469 C 33.390625 25.425781 33.390625 25.425781 33.675781 25.554688 C 34.054688 25.828125 34.226562 26.1875 34.449219 26.59375 C 34.492188 26.671875 34.535156 26.75 34.582031 26.832031 C 34.6875 27.027344 34.789062 27.230469 34.882812 27.4375 C 34.847656 27.507812 34.8125 27.578125 34.777344 27.648438 C 33.59375 27.203125 33.027344 26.707031 32.5 25.546875 C 32.242188 24.945312 32.242188 24.945312 32.242188 24.683594 Z M 32.242188 24.683594 "/>
<path style=" stroke:none;fill-rule:nonzero;fill:rgb(98.039216%,98.823529%,98.431373%);fill-opacity:1;" d="M 29.175781 31.355469 C 29.632812 31.949219 30.085938 32.574219 30.019531 33.355469 C 29.921875 33.96875 29.761719 34.570312 29.597656 35.167969 C 29.234375 34.988281 29.171875 34.632812 29.042969 34.261719 C 28.894531 33.574219 28.988281 32.898438 29.070312 32.203125 C 29.082031 32.105469 29.089844 32.007812 29.101562 31.90625 C 29.125 31.722656 29.148438 31.539062 29.175781 31.355469 Z M 29.175781 31.355469 "/>
<path style=" stroke:none;fill-rule:nonzero;fill:rgb(96.862745%,98.431373%,97.647059%);fill-opacity:1;" d="M 23.890625 32.308594 C 24.441406 32.96875 24.882812 33.992188 24.84375 34.867188 C 24.792969 35.226562 24.742188 35.5625 24.628906 35.910156 C 24.523438 35.964844 24.523438 35.964844 24.417969 36.015625 C 23.820312 34.949219 23.558594 34.191406 23.785156 32.945312 C 23.804688 32.824219 23.824219 32.707031 23.84375 32.585938 C 23.859375 32.492188 23.875 32.402344 23.890625 32.308594 Z M 23.890625 32.308594 "/>
<path style=" stroke:none;fill-rule:nonzero;fill:rgb(98.039216%,98.823529%,98.431373%);fill-opacity:1;" d="M 30.65625 22.5625 C 31.503906 23.566406 31.503906 23.566406 31.496094 24.21875 C 31.464844 24.375 31.429688 24.527344 31.394531 24.683594 C 31.371094 24.800781 31.34375 24.917969 31.316406 25.042969 C 31.238281 25.382812 31.160156 25.722656 31.078125 26.058594 C 31.007812 26.058594 30.9375 26.058594 30.867188 26.058594 C 30.347656 24.863281 30.433594 23.824219 30.65625 22.5625 Z M 30.65625 22.5625 "/>
<path style=" stroke:none;fill-rule:nonzero;fill:rgb(16.470589%,58.823532%,35.294119%);fill-opacity:1;" d="M 39.113281 36.441406 C 39.148438 36.441406 39.183594 36.441406 39.21875 36.441406 C 39.289062 37 39.355469 37.558594 39.429688 38.136719 C 39.359375 38.136719 39.289062 38.136719 39.21875 38.136719 C 39.183594 37.96875 39.148438 37.800781 39.113281 37.632812 C 39.09375 37.539062 39.074219 37.445312 39.050781 37.347656 C 38.996094 37.015625 38.957031 36.75 39.113281 36.441406 Z M 39.113281 36.441406 "/>
<path style=" stroke:none;fill-rule:nonzero;fill:rgb(14.901961%,58.039218%,34.117648%);fill-opacity:1;" d="M 16.386719 39.832031 C 16.558594 40.003906 16.734375 40.179688 16.914062 40.359375 C 16.773438 40.5 16.632812 40.640625 16.492188 40.785156 C 16.457031 40.46875 16.421875 40.15625 16.386719 39.832031 Z M 16.386719 39.832031 "/>
</g>
</svg>
