<?xml version="1.0" encoding="UTF-8"?>
<svg version="1.1" xmlns="http://www.w3.org/2000/svg" width="473" height="472">
<path d="M0 0 C1.2193499 -0.01058945 1.2193499 -0.01058945 2.46333313 -0.02139282 C68.22506782 -0.46243918 128.33262961 20.1904591 176.1796875 66.203125 C176.72012695 66.72165039 177.26056641 67.24017578 177.81738281 67.77441406 C185.14702211 74.84881345 191.97094002 82.10570259 198.1796875 90.203125 C198.59927734 90.74098633 199.01886719 91.27884766 199.45117188 91.83300781 C225.8618252 125.81985585 242.95796386 168.34772112 247.1796875 211.203125 C247.29054688 212.27691406 247.40140625 213.35070312 247.515625 214.45703125 C250.47733052 248.35655257 246.0293931 282.00377304 235.1796875 314.203125 C234.94137207 314.91259277 234.70305664 315.62206055 234.45751953 316.35302734 C230.89989221 326.757317 226.33588117 336.50317639 221.1796875 346.203125 C220.79264648 346.93853516 220.40560547 347.67394531 220.00683594 348.43164062 C204.18026896 378.34755658 181.44198651 405.08687642 154.1796875 425.203125 C153.07282848 426.04024799 151.96605713 426.87748692 150.859375 427.71484375 C130.13540471 443.16857225 106.77278963 454.44343137 82.1796875 462.203125 C81.42864746 462.44015137 80.67760742 462.67717773 79.90380859 462.92138672 C45.23642027 473.64065643 4.83292146 476.76572958 -30.8203125 469.203125 C-31.81869141 468.99381348 -32.81707031 468.78450195 -33.84570312 468.56884766 C-67.49091821 461.33502402 -98.98351008 448.67530037 -126.8203125 428.203125 C-127.40006836 427.7803125 -127.97982422 427.3575 -128.57714844 426.921875 C-136.81062017 420.88242295 -144.46105053 414.27806688 -151.8203125 407.203125 C-152.71435791 406.34992676 -152.71435791 406.34992676 -153.62646484 405.47949219 C-161.98766498 397.46119399 -169.67787922 389.23146139 -176.56152344 379.90625 C-177.79100646 378.24277569 -179.04247462 376.59784948 -180.296875 374.953125 C-217.7865821 324.99905651 -231.0406149 260.63163107 -222.31640625 199.41796875 C-216.06685737 158.91892363 -199.36586046 121.18769501 -173.8203125 89.203125 C-173.39492187 88.66204102 -172.96953125 88.12095703 -172.53125 87.56347656 C-159.43904932 71.00266611 -144.09499454 56.31351536 -126.8203125 44.203125 C-126.1814209 43.75146973 -125.5425293 43.29981445 -124.88427734 42.83447266 C-104.49400761 28.52505081 -82.53948463 17.75833149 -58.8203125 10.203125 C-58.07168945 9.96464844 -57.32306641 9.72617188 -56.55175781 9.48046875 C-38.41388293 3.82500665 -19.03489834 0.11088266 0 0 Z M7.1796875 29.203125 C7.1796875 29.533125 7.1796875 29.863125 7.1796875 30.203125 C10.1496875 30.203125 13.1196875 30.203125 16.1796875 30.203125 C16.1796875 29.873125 16.1796875 29.543125 16.1796875 29.203125 C13.2096875 29.203125 10.2396875 29.203125 7.1796875 29.203125 Z M142.1796875 76.203125 C143.1796875 78.203125 143.1796875 78.203125 143.1796875 78.203125 Z M42.1796875 96.203125 C46.1796875 97.203125 46.1796875 97.203125 46.1796875 97.203125 Z M19.1796875 111.203125 C23.1796875 112.203125 23.1796875 112.203125 23.1796875 112.203125 Z M34.1796875 111.203125 C34.1796875 111.533125 34.1796875 111.863125 34.1796875 112.203125 C35.8296875 112.203125 37.4796875 112.203125 39.1796875 112.203125 C39.1796875 111.873125 39.1796875 111.543125 39.1796875 111.203125 C37.5296875 111.203125 35.8796875 111.203125 34.1796875 111.203125 Z M93.1796875 126.203125 C94.1796875 128.203125 94.1796875 128.203125 94.1796875 128.203125 Z M117.1796875 136.203125 C118.1796875 138.203125 118.1796875 138.203125 118.1796875 138.203125 Z M117.1796875 146.203125 C118.1796875 148.203125 118.1796875 148.203125 118.1796875 148.203125 Z M-103.8203125 158.203125 C-102.8203125 160.203125 -102.8203125 160.203125 -102.8203125 160.203125 Z M-89.8203125 168.203125 C-88.8203125 170.203125 -88.8203125 170.203125 -88.8203125 170.203125 Z M-43.8203125 201.203125 C-39.8203125 202.203125 -39.8203125 202.203125 -39.8203125 202.203125 Z M119.1796875 201.203125 C120.1796875 203.203125 120.1796875 203.203125 120.1796875 203.203125 Z M-192.8203125 203.203125 C-191.8203125 205.203125 -191.8203125 205.203125 -191.8203125 205.203125 Z M-193.8203125 210.203125 C-192.8203125 212.203125 -192.8203125 212.203125 -192.8203125 212.203125 Z M216.1796875 211.203125 C217.1796875 213.203125 217.1796875 213.203125 217.1796875 213.203125 Z M-33.8203125 212.203125 C-33.8203125 212.533125 -33.8203125 212.863125 -33.8203125 213.203125 C-28.8703125 213.203125 -23.9203125 213.203125 -18.8203125 213.203125 C-18.8203125 212.873125 -18.8203125 212.543125 -18.8203125 212.203125 C-23.7703125 212.203125 -28.7203125 212.203125 -33.8203125 212.203125 Z M121.1796875 212.203125 C122.1796875 214.203125 122.1796875 214.203125 122.1796875 214.203125 Z M-95.8203125 214.203125 C-94.8203125 216.203125 -94.8203125 216.203125 -94.8203125 216.203125 Z M64.1796875 217.203125 C65.1796875 219.203125 65.1796875 219.203125 65.1796875 219.203125 Z M-194.8203125 220.203125 C-193.8203125 224.203125 -193.8203125 224.203125 -193.8203125 224.203125 Z M217.1796875 221.203125 C217.1796875 222.853125 217.1796875 224.503125 217.1796875 226.203125 C217.5096875 226.203125 217.8396875 226.203125 218.1796875 226.203125 C218.1796875 224.553125 218.1796875 222.903125 218.1796875 221.203125 C217.8496875 221.203125 217.5196875 221.203125 217.1796875 221.203125 Z M-4.8203125 223.203125 C-0.8203125 224.203125 -0.8203125 224.203125 -0.8203125 224.203125 Z M123.1796875 223.203125 C124.1796875 225.203125 124.1796875 225.203125 124.1796875 225.203125 Z M-93.8203125 227.203125 C-92.8203125 229.203125 -92.8203125 229.203125 -92.8203125 229.203125 Z M79.1796875 232.203125 C80.1796875 234.203125 80.1796875 234.203125 80.1796875 234.203125 Z M125.1796875 234.203125 C126.1796875 236.203125 126.1796875 236.203125 126.1796875 236.203125 Z M-91.8203125 240.203125 C-90.8203125 242.203125 -90.8203125 242.203125 -90.8203125 242.203125 Z M127.1796875 245.203125 C128.1796875 247.203125 128.1796875 247.203125 128.1796875 247.203125 Z M217.1796875 246.203125 C217.1796875 247.853125 217.1796875 249.503125 217.1796875 251.203125 C217.5096875 251.203125 217.8396875 251.203125 218.1796875 251.203125 C218.1796875 249.553125 218.1796875 247.903125 218.1796875 246.203125 C217.8496875 246.203125 217.5196875 246.203125 217.1796875 246.203125 Z M-194.8203125 248.203125 C-193.8203125 252.203125 -193.8203125 252.203125 -193.8203125 252.203125 Z M-26.8203125 252.203125 C-25.8203125 254.203125 -25.8203125 254.203125 -25.8203125 254.203125 Z M-89.8203125 253.203125 C-88.8203125 255.203125 -88.8203125 255.203125 -88.8203125 255.203125 Z M56.1796875 255.203125 C57.1796875 257.203125 57.1796875 257.203125 57.1796875 257.203125 Z M129.1796875 256.203125 C130.1796875 258.203125 130.1796875 258.203125 130.1796875 258.203125 Z M-27.8203125 259.203125 C-26.8203125 261.203125 -26.8203125 261.203125 -26.8203125 261.203125 Z M216.1796875 259.203125 C217.1796875 261.203125 217.1796875 261.203125 217.1796875 261.203125 Z M-193.8203125 260.203125 C-192.8203125 262.203125 -192.8203125 262.203125 -192.8203125 262.203125 Z M105.1796875 260.203125 C106.1796875 262.203125 106.1796875 262.203125 106.1796875 262.203125 Z M55.1796875 263.203125 C56.1796875 265.203125 56.1796875 265.203125 56.1796875 265.203125 Z M-87.8203125 266.203125 C-86.8203125 268.203125 -86.8203125 268.203125 -86.8203125 268.203125 Z M-192.8203125 267.203125 C-191.8203125 269.203125 -191.8203125 269.203125 -191.8203125 269.203125 Z M131.1796875 267.203125 C132.1796875 269.203125 132.1796875 269.203125 132.1796875 269.203125 Z M54.1796875 272.203125 C55.1796875 274.203125 55.1796875 274.203125 55.1796875 274.203125 Z M-59.8203125 273.203125 C-58.8203125 275.203125 -58.8203125 275.203125 -58.8203125 275.203125 Z M64.1796875 274.203125 C65.1796875 276.203125 65.1796875 276.203125 65.1796875 276.203125 Z M-85.8203125 279.203125 C-84.8203125 281.203125 -84.8203125 281.203125 -84.8203125 281.203125 Z M-60.8203125 282.203125 C-59.8203125 284.203125 -59.8203125 284.203125 -59.8203125 284.203125 Z M63.1796875 283.203125 C64.1796875 285.203125 64.1796875 285.203125 64.1796875 285.203125 Z M-61.8203125 291.203125 C-60.8203125 295.203125 -60.8203125 295.203125 -60.8203125 295.203125 Z M-83.8203125 292.203125 C-82.8203125 294.203125 -82.8203125 294.203125 -82.8203125 294.203125 Z M50.1796875 302.203125 C51.1796875 304.203125 51.1796875 304.203125 51.1796875 304.203125 Z M-51.8203125 303.203125 C-50.8203125 305.203125 -50.8203125 305.203125 -50.8203125 305.203125 Z M-81.8203125 305.203125 C-80.8203125 307.203125 -80.8203125 307.203125 -80.8203125 307.203125 Z M49.1796875 310.203125 C50.1796875 312.203125 50.1796875 312.203125 50.1796875 312.203125 Z M-52.8203125 312.203125 C-51.8203125 314.203125 -51.8203125 314.203125 -51.8203125 314.203125 Z M-79.8203125 318.203125 C-78.8203125 320.203125 -78.8203125 320.203125 -78.8203125 320.203125 Z M-65.8203125 321.203125 C-64.8203125 323.203125 -64.8203125 323.203125 -64.8203125 323.203125 Z M-53.8203125 321.203125 C-52.8203125 323.203125 -52.8203125 323.203125 -52.8203125 323.203125 Z M142.1796875 328.203125 C143.1796875 330.203125 143.1796875 330.203125 143.1796875 330.203125 Z M-66.8203125 330.203125 C-65.8203125 332.203125 -65.8203125 332.203125 -65.8203125 332.203125 Z M-77.8203125 331.203125 C-76.8203125 333.203125 -76.8203125 333.203125 -76.8203125 333.203125 Z M-57.8203125 343.203125 C-57.1603125 343.863125 -56.5003125 344.523125 -55.8203125 345.203125 C-55.8203125 344.543125 -55.8203125 343.883125 -55.8203125 343.203125 C-56.4803125 343.203125 -57.1403125 343.203125 -57.8203125 343.203125 Z M-75.8203125 344.203125 C-74.8203125 346.203125 -74.8203125 346.203125 -74.8203125 346.203125 Z M17.1796875 345.203125 C18.1796875 347.203125 18.1796875 347.203125 18.1796875 347.203125 Z M146.1796875 349.203125 C147.1796875 351.203125 147.1796875 351.203125 147.1796875 351.203125 Z M16.1796875 351.203125 C17.1796875 353.203125 17.1796875 353.203125 17.1796875 353.203125 Z M-57.8203125 352.203125 C-56.8203125 355.203125 -56.8203125 355.203125 -56.8203125 355.203125 Z M147.1796875 356.203125 C148.1796875 358.203125 148.1796875 358.203125 148.1796875 358.203125 Z M-73.8203125 357.203125 C-72.8203125 359.203125 -72.8203125 359.203125 -72.8203125 359.203125 Z M15.1796875 357.203125 C16.1796875 359.203125 16.1796875 359.203125 16.1796875 359.203125 Z M50.1796875 361.203125 C51.1796875 363.203125 51.1796875 363.203125 51.1796875 363.203125 Z M-58.8203125 362.203125 C-57.8203125 365.203125 -57.8203125 365.203125 -57.8203125 365.203125 Z M40.1796875 363.203125 C41.1796875 365.203125 41.1796875 365.203125 41.1796875 365.203125 Z M49.1796875 371.203125 C50.1796875 373.203125 50.1796875 373.203125 50.1796875 373.203125 Z M-67.8203125 384.203125 C-68.1503125 384.863125 -68.4803125 385.523125 -68.8203125 386.203125 C-68.1603125 386.203125 -67.5003125 386.203125 -66.8203125 386.203125 C-67.1503125 385.543125 -67.4803125 384.883125 -67.8203125 384.203125 Z M15.1796875 397.203125 C19.1796875 398.203125 19.1796875 398.203125 19.1796875 398.203125 Z M10.1796875 424.203125 C14.1796875 425.203125 14.1796875 425.203125 14.1796875 425.203125 Z M6.1796875 442.203125 C6.1796875 442.533125 6.1796875 442.863125 6.1796875 443.203125 C9.8096875 443.203125 13.4396875 443.203125 17.1796875 443.203125 C17.1796875 442.873125 17.1796875 442.543125 17.1796875 442.203125 C13.5496875 442.203125 9.9196875 442.203125 6.1796875 442.203125 Z " fill="#FEFEFE" transform="translate(224.8203125,-0.203125)"/>
<path d="M0 0 C1.2193499 -0.01058945 1.2193499 -0.01058945 2.46333313 -0.02139282 C68.22506782 -0.46243918 128.33262961 20.1904591 176.1796875 66.203125 C176.72012695 66.72165039 177.26056641 67.24017578 177.81738281 67.77441406 C185.14702211 74.84881345 191.97094002 82.10570259 198.1796875 90.203125 C198.59927734 90.74098633 199.01886719 91.27884766 199.45117188 91.83300781 C225.8618252 125.81985585 242.95796386 168.34772112 247.1796875 211.203125 C247.29054688 212.27691406 247.40140625 213.35070312 247.515625 214.45703125 C250.47733052 248.35655257 246.0293931 282.00377304 235.1796875 314.203125 C234.94137207 314.91259277 234.70305664 315.62206055 234.45751953 316.35302734 C230.89989221 326.757317 226.33588117 336.50317639 221.1796875 346.203125 C220.79264648 346.93853516 220.40560547 347.67394531 220.00683594 348.43164062 C204.18026896 378.34755658 181.44198651 405.08687642 154.1796875 425.203125 C153.07282848 426.04024799 151.96605713 426.87748692 150.859375 427.71484375 C130.13540471 443.16857225 106.77278963 454.44343137 82.1796875 462.203125 C81.42864746 462.44015137 80.67760742 462.67717773 79.90380859 462.92138672 C45.23642027 473.64065643 4.83292146 476.76572958 -30.8203125 469.203125 C-31.81869141 468.99381348 -32.81707031 468.78450195 -33.84570312 468.56884766 C-67.49091821 461.33502402 -98.98351008 448.67530037 -126.8203125 428.203125 C-127.40006836 427.7803125 -127.97982422 427.3575 -128.57714844 426.921875 C-136.81062017 420.88242295 -144.46105053 414.27806688 -151.8203125 407.203125 C-152.71435791 406.34992676 -152.71435791 406.34992676 -153.62646484 405.47949219 C-161.98766498 397.46119399 -169.67787922 389.23146139 -176.56152344 379.90625 C-177.79100646 378.24277569 -179.04247462 376.59784948 -180.296875 374.953125 C-217.7865821 324.99905651 -231.0406149 260.63163107 -222.31640625 199.41796875 C-216.06685737 158.91892363 -199.36586046 121.18769501 -173.8203125 89.203125 C-173.39492187 88.66204102 -172.96953125 88.12095703 -172.53125 87.56347656 C-159.43904932 71.00266611 -144.09499454 56.31351536 -126.8203125 44.203125 C-126.1814209 43.75146973 -125.5425293 43.29981445 -124.88427734 42.83447266 C-104.49400761 28.52505081 -82.53948463 17.75833149 -58.8203125 10.203125 C-58.07168945 9.96464844 -57.32306641 9.72617188 -56.55175781 9.48046875 C-38.41388293 3.82500665 -19.03489834 0.11088266 0 0 Z M-133.8203125 89.203125 C-134.62210938 89.96367188 -135.42390625 90.72421875 -136.25 91.5078125 C-146.74696199 101.66484655 -146.74696199 101.66484655 -153.8203125 114.203125 C-137.76869903 121.20762292 -121.69011391 128.13503075 -105.52978516 134.88549805 C-104.22296512 135.43143802 -102.91616218 135.9774189 -101.609375 136.5234375 C-100.93919342 136.80345108 -100.26901184 137.08346466 -99.57852173 137.3719635 C-88.4339828 142.0327497 -77.31141992 146.74596353 -66.18478394 151.44927979 C-63.37197167 152.63826149 -60.55904739 153.8269778 -57.74609375 155.015625 C-56.8650296 155.38811874 -55.98396545 155.76061249 -55.07620239 156.14439392 C-49.42596221 158.5312824 -43.76699536 160.89496432 -38.09277344 163.22436523 C-35.92913714 164.15625371 -33.844844 165.17433049 -31.7578125 166.265625 C-23.63287344 170.51554743 -23.63287344 170.51554743 -14.8203125 172.203125 C-15.4803125 175.173125 -16.1403125 178.143125 -16.8203125 181.203125 C-21.88118769 182.4683438 -22.92241225 181.37656428 -27.17260742 178.83251953 C-28.8781781 177.78291338 -30.56533492 176.70246389 -32.22753906 175.58544922 C-38.73612641 171.23265979 -45.35043837 168.01296843 -52.60577393 165.09368896 C-55.29896394 164.00968927 -57.98191051 162.90118945 -60.66607666 161.79507446 C-62.11785002 161.19716588 -63.57013034 160.60048692 -65.02288818 160.00497437 C-72.86824029 156.78639858 -80.66787302 153.46233182 -88.46731567 150.13439941 C-90.95236212 149.07512002 -93.43871445 148.01896931 -95.92553711 146.96386719 C-104.31751655 143.40254102 -112.7029228 139.82701576 -121.07504272 136.21920776 C-125.22593005 134.43259208 -129.38068253 132.65508305 -133.53607178 130.87896729 C-135.55041814 130.01537498 -137.56301492 129.14768968 -139.5737915 128.27581787 C-142.37557854 127.0614628 -145.18304284 125.86127804 -147.9921875 124.6640625 C-148.82883942 124.29728394 -149.66549133 123.93050537 -150.52749634 123.5526123 C-151.30056122 123.22635864 -152.0736261 122.90010498 -152.87011719 122.56396484 C-153.87495148 122.13124771 -153.87495148 122.13124771 -154.90008545 121.68978882 C-157.24970762 121.09429877 -158.56738291 121.35148924 -160.8203125 122.203125 C-163.64983802 125.51127673 -165.68174781 129.42094299 -167.8203125 133.203125 C-168.21057617 133.89325684 -168.60083984 134.58338867 -169.00292969 135.29443359 C-186.2494474 166.17474898 -195.03964141 200.06337126 -195.0703125 235.453125 C-195.07098724 236.15732574 -195.07166199 236.86152649 -195.07235718 237.58706665 C-194.98792942 293.3906591 -171.9812014 344.79859048 -133.0078125 384.328125 C-126.40156084 390.9045046 -119.33852433 396.70514961 -111.8203125 402.203125 C-111.2752002 402.60370117 -110.73008789 403.00427734 -110.16845703 403.41699219 C-102.0778944 409.31296844 -93.62462906 414.45999571 -84.8203125 419.203125 C-83.90258057 419.70392578 -83.90258057 419.70392578 -82.96630859 420.21484375 C-36.21735779 445.50943024 20.53423942 449.18449542 71.14453125 434.51953125 C104.69605112 424.2409322 133.0188456 406.30307406 158.1796875 382.203125 C158.92992187 381.49414062 159.68015625 380.78515625 160.453125 380.0546875 C190.90148386 350.56912259 209.24933557 309.54267424 216.1796875 268.203125 C216.35757813 267.18895508 216.35757813 267.18895508 216.5390625 266.15429688 C225.14277203 215.40265317 211.25084256 160.2788834 181.89404297 118.36767578 C179.11819469 114.53963023 176.17778871 110.86025156 173.1796875 107.203125 C172.74688477 106.66880859 172.31408203 106.13449219 171.86816406 105.58398438 C165.12337766 97.27740302 157.86283311 89.64491525 150.1796875 82.203125 C146.28975632 83.63396558 142.90712517 85.46214931 139.375 87.625 C138.82338196 87.96126907 138.27176392 88.29753815 137.70343018 88.64399719 C135.90165041 89.74348656 134.1031818 90.84827117 132.3046875 91.953125 C131.04010035 92.72619669 129.77528625 93.49889725 128.51025391 94.27124023 C125.94649574 95.8370849 123.38391802 97.404834 120.82226562 98.97412109 C116.66030404 101.52270282 112.48893195 104.05568659 108.31713867 106.58813477 C98.26669969 112.69123386 88.24951913 118.84742795 78.24194336 125.02050781 C72.47673577 128.57267343 66.70150277 132.1065028 60.90625 135.609375 C59.99898666 136.15778297 59.99898666 136.15778297 59.07339478 136.7172699 C58.4702243 137.08183792 57.86705383 137.44640594 57.24560547 137.82202148 C37.93019464 149.31296784 37.93019464 149.31296784 19.40625 162.0078125 C16.1796875 164.203125 16.1796875 164.203125 13.3671875 164.078125 C11.1796875 163.203125 11.1796875 163.203125 9.1796875 162.203125 C8.8122164 156.69105848 8.8122164 156.69105848 10.359375 154.63671875 C12.61785852 152.85804182 14.791367 152.06489298 17.4921875 151.078125 C22.76802017 148.95026841 27.29195932 146.33861779 32.01464844 143.18701172 C37.94561048 139.26995604 44.07505718 135.73369685 50.2421875 132.203125 C52.51182836 130.90253501 54.78135676 129.60174876 57.05078125 128.30078125 C57.63101044 127.96827866 58.21123962 127.63577606 58.80905151 127.29319763 C65.50047602 123.453753 72.15297739 119.54833346 78.8046875 115.640625 C81.24862746 114.20560915 83.69267854 112.7707826 86.13671875 111.3359375 C86.73205414 110.9863649 87.32738953 110.6367923 87.94076538 110.27662659 C96.67022998 105.15208178 105.41780917 100.05856878 114.16357422 94.96191406 C117.42125113 93.06226177 120.67753603 91.16023869 123.93359375 89.2578125 C125.04114014 88.61094482 126.14868652 87.96407715 127.28979492 87.29760742 C129.42434612 86.05084309 131.55863458 84.80362879 133.69262695 83.5559082 C134.64484131 82.99991943 135.59705566 82.44393066 136.578125 81.87109375 C137.42036621 81.37891357 138.26260742 80.8867334 139.13037109 80.37963867 C140.45933226 79.61668134 141.80906963 78.88843393 143.1796875 78.203125 C143.1796875 77.543125 143.1796875 76.883125 143.1796875 76.203125 C140.58861779 73.79855679 137.65554544 71.78840868 134.8046875 69.703125 C133.94633301 69.0745459 133.08797852 68.4459668 132.20361328 67.79833984 C123.90275357 61.83090853 115.27976396 56.8354424 106.1796875 52.203125 C105.16455078 51.67428711 105.16455078 51.67428711 104.12890625 51.13476562 C25.20793439 10.29507825 -70.74778285 29.00569642 -133.8203125 89.203125 Z " fill="#0D8844" transform="translate(224.8203125,-0.203125)"/>
<path d="M0 0 C1.81481962 3.21732577 2.56064812 6.18754944 3.22756958 9.81132507 C3.44908691 10.99862717 3.67060425 12.18592926 3.89883423 13.40921021 C4.13727209 14.72159575 4.37557948 16.034005 4.61376953 17.34643555 C4.86971621 18.73151287 5.12617864 20.11649497 5.38311768 21.50138855 C6.07888452 25.26091207 6.76682639 29.02182782 7.45294428 32.78312278 C8.0271297 35.92687806 8.60508837 39.06993475 9.18303382 42.2130006 C10.54735995 49.6330918 11.90532631 57.05432754 13.25927734 64.47631836 C14.65381027 72.12018508 16.0585936 79.76211632 17.46855843 87.40315026 C18.68034388 93.972109 19.8859 100.54219002 21.08648384 107.11320525 C21.80285322 111.03374466 22.52148599 114.95383301 23.24603653 118.87286949 C23.92791311 122.56269592 24.60194838 126.25387274 25.27014923 129.94619942 C25.63220401 131.93615409 26.00207119 133.92468249 26.3722229 135.91314697 C27.53574816 142.38839086 28.26710565 148.4207995 28 155 C27.01 155.33 26.02 155.66 25 156 C24.76667969 155.2265625 24.53335938 154.453125 24.29296875 153.65625 C20.67773249 143.33430337 14.59144276 138.72621817 5 134 C5.40895508 134.88522339 5.40895508 134.88522339 5.82617188 135.78833008 C7.05664348 138.46039908 8.27840454 141.13636219 9.5 143.8125 C10.14388672 145.2056543 10.14388672 145.2056543 10.80078125 146.62695312 C11.20683594 147.51962891 11.61289062 148.41230469 12.03125 149.33203125 C12.40830078 150.15421143 12.78535156 150.9763916 13.17382812 151.82348633 C14 154 14 154 14 157 C14.7425 157.2475 15.485 157.495 16.25 157.75 C19.21386189 159.09720995 20.77768299 160.66371802 23 163 C-0.77176438 187.79600188 -30.57875159 213.89366458 -66.68188477 217.24926758 C-67.44686279 217.16700928 -68.21184082 217.08475098 -69 217 C-71.01953125 214.375 -71.01953125 214.375 -72.8125 211 C-73.41707031 209.88625 -74.02164063 208.7725 -74.64453125 207.625 C-75.09183594 206.75875 -75.53914062 205.8925 -76 205 C-76.30744141 206.60681641 -76.30744141 206.60681641 -76.62109375 208.24609375 C-76.89302709 209.64326851 -77.16517352 211.04040181 -77.4375 212.4375 C-77.57220703 213.14455078 -77.70691406 213.85160156 -77.84570312 214.58007812 C-78.88671875 219.88671875 -78.88671875 219.88671875 -80 221 C-108.8105546 222.80854576 -150.1279709 217.70554605 -172.828125 198.44921875 C-174.25 197.0625 -174.25 197.0625 -176 195 C-175.34 194.34 -174.68 193.68 -174 193 C-173.45836952 190.41977332 -173.45836952 190.41977332 -173.18359375 187.40625 C-173.05919922 186.29378906 -172.93480469 185.18132812 -172.80664062 184.03515625 C-172.68482422 182.86855469 -172.56300781 181.70195312 -172.4375 180.5 C-172.18944753 178.19756425 -171.93830198 175.89545896 -171.68359375 173.59375 C-171.57587646 172.56958984 -171.46815918 171.54542969 -171.35717773 170.49023438 C-171 168 -171 168 -170 166 C-170.66 166 -171.32 166 -172 166 C-172.23589844 166.54914063 -172.47179687 167.09828125 -172.71484375 167.6640625 C-174.88423898 171.60721857 -178.04065417 174.78218313 -181.00390625 178.1484375 C-183.15664155 181.22377364 -183.6888072 183.29844359 -184 187 C-187 185 -187 185 -187.60150146 183.24827576 C-187.70948059 182.53268997 -187.81745972 181.81710419 -187.92871094 181.07983398 C-188.06081467 180.24824265 -188.1929184 179.41665131 -188.32902527 178.55986023 C-188.52967339 177.16704582 -188.52967339 177.16704582 -188.734375 175.74609375 C-188.88928909 174.74661209 -189.04420319 173.74713043 -189.20381165 172.71736145 C-189.73158066 169.2925131 -190.24058236 165.86512258 -190.75 162.4375 C-191.1230099 159.99101885 -191.49732061 157.54473575 -191.87280273 155.09863281 C-192.50510616 150.97239034 -193.13598995 146.84596789 -193.76048279 142.71853638 C-195.60809539 130.51095662 -197.50312541 118.31103031 -199.40865707 106.11236763 C-200.79001001 97.26638871 -202.16681318 88.41969963 -203.54463196 79.57316971 C-204.06323342 76.24529365 -204.58265091 72.9175457 -205.10217285 69.58981323 C-205.92891812 64.29171036 -206.75164412 58.9929971 -207.57149315 53.69382286 C-207.87835002 51.71454917 -208.18653865 49.73548145 -208.49611855 47.75663185 C-208.92288669 45.02741395 -209.3449573 42.29750912 -209.76586914 39.56738281 C-209.95507998 38.36796885 -209.95507998 38.36796885 -210.14811325 37.1443243 C-210.72067831 33.39815218 -211.14889494 29.79227028 -211 26 C-210.37996094 26.36351562 -209.75992188 26.72703125 -209.12109375 27.1015625 C-195.15615479 35.0292571 -180.35913111 39.62106361 -165 44 C-166.33333333 53.33333333 -167.66666667 62.66666667 -169 72 C-166.50718663 69.27968716 -164.01990672 66.55470367 -161.546875 63.81640625 C-160.1511473 62.27297117 -158.75058094 60.73368105 -157.328125 59.21484375 C-154.95004216 56.57986925 -153.55446056 54.12483443 -152.37109375 50.82421875 C-152.11126709 50.10709717 -151.85144043 49.38997559 -151.58374023 48.65112305 C-151.39110596 48.10625244 -151.19847168 47.56138184 -151 47 C-150.07179443 46.9906543 -149.14358887 46.98130859 -148.18725586 46.97167969 C-116.22989197 46.57100965 -83.46078556 45.21398798 -53.27734375 33.6015625 C-50.69847421 32.92035168 -49.45974723 33.01714117 -47 34 C-45.66131639 35.17134816 -44.32358067 36.34380936 -42.9921875 37.5234375 C-38.73843625 40.67621784 -33.77460333 42.75176445 -29 45 C-29.72316406 43.89591797 -29.72316406 43.89591797 -30.4609375 42.76953125 C-31.09257812 41.79371094 -31.72421875 40.81789062 -32.375 39.8125 C-33.00148438 38.84957031 -33.62796875 37.88664062 -34.2734375 36.89453125 C-35.81988312 34.30196064 -36.97508075 31.83146884 -38 29 C-37.37996094 28.69449219 -36.75992188 28.38898438 -36.12109375 28.07421875 C-23.60387712 21.60607915 -7.95036486 11.92554729 0 0 Z M-50 40 C-49 42 -49 42 -49 42 Z M-35 55 C-34 57 -34 57 -34 57 Z M-141 75 C-140 77 -140 77 -140 77 Z M-58 78 C-57 80 -57 80 -57 80 Z M-142 82 C-141 84 -141 84 -141 84 Z M-9 83 C-8 85 -8 85 -8 85 Z M-59 86 C-58 88 -58 88 -58 88 Z M-60 95 C-59 97 -59 97 -59 97 Z M-174 96 C-173 98 -173 98 -173 98 Z M-50 97 C-49 99 -49 99 -49 99 Z M-175 105 C-174 107 -174 107 -174 107 Z M-51 106 C-50 108 -50 108 -50 108 Z M-176 114 C-175 118 -175 118 -175 118 Z M-64 125 C-63 127 -63 127 -63 127 Z M-166 126 C-165 128 -165 128 -165 128 Z M-65 133 C-64 135 -64 135 -64 135 Z M-167 135 C-166 137 -166 137 -166 137 Z M-180 144 C-179 146 -179 146 -179 146 Z M-168 144 C-167 146 -167 146 -167 146 Z M-181 153 C-180 155 -180 155 -180 155 Z M-97 168 C-96 170 -96 170 -96 170 Z M-98 174 C-97 176 -97 176 -97 176 Z M-99 180 C-98 182 -98 182 -98 182 Z M-64 184 C-63 186 -63 186 -63 186 Z M-74 186 C-73 188 -73 188 -73 188 Z M-65 194 C-64 196 -64 196 -64 196 Z " fill="#0D8843" transform="translate(339,177)"/>
<path d="M0 0 C1.90558654 1.47581596 3.41724622 2.94606189 4.9609375 4.796875 C5.45851563 5.38210937 5.95609375 5.96734375 6.46875 6.5703125 C10.80374801 12.44113838 11.51217134 19.26400355 10.8359375 26.421875 C7.97265482 42.20933274 -3.6089636 53.9493004 -16.25415039 62.91015625 C-22.04583225 66.91195156 -27.80893454 70.37508951 -34.1640625 73.421875 C-34.5971875 72.6175 -35.0303125 71.813125 -35.4765625 70.984375 C-36.96880252 68.14341146 -36.96880252 68.14341146 -40.1640625 67.421875 C-43.41207718 68.21186313 -43.41207718 68.21186313 -46.1640625 70.421875 C-46.64544438 72.50786313 -46.72870648 74.34640674 -46.66796875 76.484375 C-47.1640625 78.421875 -47.1640625 78.421875 -49.0390625 79.98828125 C-53.4334989 82.00422895 -57.92279348 83.17567911 -62.6015625 84.359375 C-63.61057617 84.61807373 -64.61958984 84.87677246 -65.65917969 85.14331055 C-72.70310654 86.90648185 -79.77219107 88.42553824 -86.9140625 89.734375 C-87.78087646 89.89349365 -88.64769043 90.0526123 -89.54077148 90.21655273 C-101.48166205 92.29776119 -113.26540049 92.55361796 -125.3515625 92.484375 C-126.89127458 92.47934697 -128.43098825 92.47478638 -129.97070312 92.47070312 C-133.70185678 92.45980764 -137.43294904 92.44261582 -141.1640625 92.421875 C-142.1540625 87.966875 -142.1540625 87.966875 -143.1640625 83.421875 C-148.71412572 82.28595405 -148.71412572 82.28595405 -154.0390625 83.609375 C-156.22231352 85.47155969 -156.98699296 86.86095343 -158.1640625 89.421875 C-174.56257407 88.55879544 -189.95181246 81.29244744 -201.77734375 70.07421875 C-205.25228355 66.21254261 -207.35607869 62.26234074 -209.1640625 57.421875 C-209.5971875 56.266875 -210.0303125 55.111875 -210.4765625 53.921875 C-211.70979828 47.64358375 -211.55119022 41.65840122 -210.1640625 35.421875 C-208.43388742 35.87638684 -206.70496373 36.33566357 -204.9765625 36.796875 C-203.53216797 37.17972656 -203.53216797 37.17972656 -202.05859375 37.5703125 C-199.34196043 38.36953796 -196.77269075 39.3250112 -194.1640625 40.421875 C-194.69 41.4428125 -194.69 41.4428125 -195.2265625 42.484375 C-196.47762183 46.40436091 -196.30898733 48.44831236 -195.1640625 52.421875 C-189.160063 62.84662755 -175.89940892 67.47045393 -164.86499023 70.51245117 C-151.71284183 73.74431032 -138.74215923 74.970444 -125.2265625 74.859375 C-124.03424515 74.85481293 -124.03424515 74.85481293 -122.81784058 74.85015869 C-93.62097191 74.68643181 -65.42475003 69.42235071 -39.1640625 56.421875 C-38.14054688 55.92945313 -37.11703125 55.43703125 -36.0625 54.9296875 C-23.44774944 48.4950741 -10.08633278 39.00155059 -4.765625 25.4453125 C-3.89882412 22.52970953 -3.87478952 21.21529978 -5.1640625 18.421875 C-6.60652351 16.34807598 -8.10617171 14.35365596 -9.69140625 12.38671875 C-11.12728799 10.4709402 -12.16390795 8.59129237 -13.1640625 6.421875 C-11.42750155 5.19430605 -9.67425873 3.99030647 -7.9140625 2.796875 C-6.93953125 2.12398438 -5.965 1.45109375 -4.9609375 0.7578125 C-2.1640625 -0.578125 -2.1640625 -0.578125 0 0 Z " fill="#0E8944" transform="translate(332.1640625,119.578125)"/>
<path d="M0 0 C0.33 0 0.66 0 1 0 C3.3632192 13.73010826 3.8685686 22.14560625 -4 34 C-17.83484997 52.42632856 -38.20524576 60.1122639 -59 68 C-59.86222168 68.33507568 -60.72444336 68.67015137 -61.61279297 69.01538086 C-68.46668068 71.61289692 -75.35243091 73.46092103 -82.5 75.0625 C-84.2013208 75.44656006 -84.2013208 75.44656006 -85.93701172 75.83837891 C-100.99862248 79.17619672 -115.49978398 81.85290738 -131 81 C-131.80743652 80.95746094 -132.61487305 80.91492188 -133.44677734 80.87109375 C-157.22244151 79.47594475 -186.04050242 76.44214579 -204 59 C-204.75023437 58.2884375 -205.50046875 57.576875 -206.2734375 56.84375 C-211.00548601 51.99547574 -213 48.82487256 -213 42 C-211.22293791 44.66559313 -210.12451727 47.0280615 -209 50 C-206.62625139 50.33425735 -206.62625139 50.33425735 -204 50 C-202.15684329 48.0995533 -202.15684329 48.0995533 -201 46 C-197.90508371 47.15288714 -194.96473189 48.49563279 -192.0234375 49.98828125 C-183.95004807 54.05384699 -176.01500044 57.64250867 -167.25 59.9375 C-166.54407715 60.12417236 -165.8381543 60.31084473 -165.11083984 60.50317383 C-151.78609 63.74013218 -138.4280954 64.34241017 -124.79785156 64.38085938 C-122.77914283 64.3903771 -120.76060441 64.42531838 -118.7421875 64.4609375 C-116.97657471 64.47326416 -116.97657471 64.47326416 -115.17529297 64.48583984 C-111.39881324 65.09734733 -109.80418894 66.47684898 -107 69 C-104.89581596 69.48831008 -104.89581596 69.48831008 -102.875 69.125 C-102.21242188 69.06570313 -101.54984375 69.00640625 -100.8671875 68.9453125 C-98.66009762 68.08101996 -98.66009762 68.08101996 -97.76171875 65.0546875 C-96 62 -96 62 -92.40234375 60.75 C-90.91786198 60.47834776 -89.42904387 60.22973458 -87.9375 60 C-86.30062104 59.68991367 -84.66521461 59.37196871 -83.03125 59.046875 C-82.19464844 58.88123047 -81.35804688 58.71558594 -80.49609375 58.54492188 C-51.41052435 52.19525532 -29.37870316 35.93280687 -9 15 C-8.39671875 15.65484375 -7.7934375 16.3096875 -7.171875 16.984375 C-5.1544818 19.26835578 -5.1544818 19.26835578 -2.25 19.25 C-1.13625 19.12625 -1.13625 19.12625 0 19 C1.11636392 15.65090825 0.8367291 14.4276134 0.0625 11.0625 C-1.6880829 3.3761658 -1.6880829 3.3761658 0 0 Z " fill="#0E8945" transform="translate(370,344)"/>
<path d="M0 0 C0.99 0.99 0.99 0.99 2 2 C1.29875 2.43570313 0.5975 2.87140625 -0.125 3.3203125 C-1.07375 3.91585937 -2.0225 4.51140625 -3 5.125 C-4.01449219 5.7540625 -5.02898437 6.383125 -6.07421875 7.03125 C-8.62095322 8.74494048 -10.61064601 10.51429029 -12.8125 12.625 C-15.6074768 14.80462182 -16.68660143 15.02493789 -20.2890625 14.73828125 C-22.65618013 14.21873188 -25.00972612 13.63097382 -27.33984375 12.96484375 C-66.26603889 2.70361622 -110.57492019 18.58686648 -144.29199219 37.00366211 C-145.97055971 37.88572862 -145.97055971 37.88572862 -147 39 C-153.95109357 38.84888927 -159.12746415 35.47254832 -165 32 C-161.08477038 27.67789358 -156.98134441 24.96245844 -151.875 22.1875 C-151.09020264 21.75735596 -150.30540527 21.32721191 -149.49682617 20.8840332 C-105.49272917 -2.73931075 -48.88926771 -12.91658328 0 0 Z " fill="#0F8945" transform="translate(304,101)"/>
<path d="M0 0 C1.30194278 4.43305624 0.80268801 8.2754967 0.3125 12.8125 C0.24611328 13.59431641 0.17972656 14.37613281 0.11132812 15.18164062 C-0.75230365 23.32154012 -4.13221532 28.40473631 -9.6875 34.4375 C-10.47511719 35.30246094 -11.26273438 36.16742188 -12.07421875 37.05859375 C-12.70972656 37.69925781 -13.34523437 38.33992188 -14 39 C-14.33 39 -14.66 39 -15 39 C-14.74621081 33.99100278 -14.40383214 28.99865387 -14 24 C-13.93554688 23.05253906 -13.87109375 22.10507812 -13.8046875 21.12890625 C-12.9771629 14.49810013 -9.8247982 10.91338731 -5.19140625 6.2265625 C-3.24439367 4.24831442 -1.60388084 2.25884183 0 0 Z " fill="#F8FBFA" transform="translate(173,299)"/>
<path d="M0 0 C6.11437696 5.16626154 10.66531769 15.0468113 11.33203125 22.921875 C11.07849363 26.34647008 10.63698899 29.62744869 10 33 C9.80751994 34.45768439 9.61879321 35.91588207 9.4375 37.375 C9.293125 38.24125 9.14875 39.1075 9 40 C5.2966822 38.1483411 4.10508133 33.55174804 2.375 29.9375 C1.74464844 28.68549805 1.74464844 28.68549805 1.1015625 27.40820312 C-2.62896959 19.63827996 -2.54432626 13.99379441 -1 5.5 C-0.814375 4.4584375 -0.62875 3.416875 -0.4375 2.34375 C-0.293125 1.5703125 -0.14875 0.796875 0 0 Z " fill="#F4F9F6" transform="translate(207,266)"/>
<path d="M0 0 C6.10912479 7.59774065 11.85303809 17.16880284 11.0625 27.125 C10.75854731 29.09175271 10.40610163 31.0517739 10 33 C9.66365783 34.9994962 9.32948194 36.99936191 9 39 C5.35593843 35.67230598 3.79859687 31.75517962 1.8125 27.3125 C1.44447266 26.53455078 1.07644531 25.75660156 0.69726562 24.95507812 C-2.50581028 17.82986847 -2.7077731 12.18497897 -1 4.5 C-0.814375 3.6440625 -0.62875 2.788125 -0.4375 1.90625 C-0.293125 1.2771875 -0.14875 0.648125 0 0 Z " fill="#F9FCFA" transform="translate(243,343)"/>
<path d="M0 0 C0.66 0 1.32 0 2 0 C6.93438783 9.69650277 10.29815802 16.94535667 8 28 C7.8046607 29.41560703 7.61579312 30.83214519 7.4375 32.25 C7.2209375 33.61125 7.2209375 33.61125 7 35 C6.34 35 5.68 35 5 35 C3.44548897 32.18394174 1.93809176 29.34510414 0.4375 26.5 C-0.00013672 25.70851563 -0.43777344 24.91703125 -0.88867188 24.1015625 C-4.40221758 17.35112823 -4.25678905 13.58434971 -2.24609375 6.25 C-1.97925781 5.5075 -1.71242187 4.765 -1.4375 4 C-1.16808594 3.236875 -0.89867187 2.47375 -0.62109375 1.6875 C-0.41613281 1.130625 -0.21117187 0.57375 0 0 Z " fill="#F9FCFA" transform="translate(190,231)"/>
<path d="M0 0 C0.66 0 1.32 0 2 0 C7.47604395 14.22793562 5.70367045 26.18415164 4 41 C1.79459769 38.18665688 -0.02726558 35.35341247 -1.6875 32.1875 C-2.12449219 31.37667969 -2.56148438 30.56585938 -3.01171875 29.73046875 C-5.42128463 23.07320965 -3.42633753 16.25568525 -2 9.5625 C-1.80921875 8.64017578 -1.6184375 7.71785156 -1.421875 6.76757812 C-0.95405792 4.51036071 -0.47997253 2.2546582 0 0 Z " fill="#FAFCFB" transform="translate(270,339)"/>
<path d="M0 0 C5.48858611 6.27266984 8.33220456 10.94494162 7.96362305 19.24121094 C7.54325244 25.52435927 6.80859855 31.75621296 6 38 C1.44436554 33.81597319 -1.28882548 28.92236287 -3 23 C-3.29624267 15.31680312 -1.93098598 7.42031015 0 0 Z " fill="#F8FBFA" transform="translate(282,253)"/>
<path d="M0 0 C0.73605469 0.47050781 1.47210938 0.94101562 2.23046875 1.42578125 C3.20628906 2.04839844 4.18210937 2.67101562 5.1875 3.3125 C6.15042969 3.92738281 7.11335938 4.54226563 8.10546875 5.17578125 C10.87369662 7.01036012 10.87369662 7.01036012 13.53125 8.15625 C17.38160465 11.03183132 19.11758884 14.98302574 21.3125 19.1875 C21.76689453 20.03248047 22.22128906 20.87746094 22.68945312 21.74804688 C23.80478815 23.82609214 24.90767463 25.90979485 26 28 C25.34 28.33 24.68 28.66 24 29 C15.84318282 25.71724275 9.69650473 22.14600116 6 14 C5.19949219 12.46279297 5.19949219 12.46279297 4.3828125 10.89453125 C0 2.44196429 0 2.44196429 0 0 Z " fill="#F6FAF8" transform="translate(324,271)"/>
<path d="M0 0 C2.22090497 6.66271492 -1.56796678 15.6309372 -4 22 C-6.42724261 26.73579627 -9.51081247 30.98455072 -13 35 C-13.33 35 -13.66 35 -14 35 C-14.10427152 31.97612593 -14.0899602 29.02184487 -14 26 C-13.98839844 24.36998047 -13.98839844 24.36998047 -13.9765625 22.70703125 C-13.34212859 12.8514286 -9.65473911 8.39750068 -2.5546875 2.1328125 C-1.71164063 1.42898438 -0.86859375 0.72515625 0 0 Z " fill="#F9FCFA" transform="translate(178,258)"/>
<path d="M0 0 C0.73605469 0.47050781 1.47210938 0.94101563 2.23046875 1.42578125 C3.20628906 2.04839844 4.18210937 2.67101562 5.1875 3.3125 C6.15042969 3.92738281 7.11335938 4.54226562 8.10546875 5.17578125 C10.88587245 7.00563594 10.88587245 7.00563594 13.55859375 8.2265625 C17.15019378 10.83550076 18.79950486 14.20166941 20.875 18.0625 C21.29007812 18.79533203 21.70515625 19.52816406 22.1328125 20.28320312 C23.16156626 22.1503912 24.08964485 24.07231249 25 26 C24.67 26.66 24.34 27.32 24 28 C12.8122225 23.78431573 7.44958268 19.11589642 2.43969727 8.17236328 C0 2.50061904 0 2.50061904 0 0 Z " fill="#FAFCFB" transform="translate(305,233)"/>
<path d="M0 0 C4.34068095 5.5918184 8.61707344 11.5175859 8 18.875 C7.05135878 24.65894844 5.54364604 30.34967299 4 36 C0.57314099 34.2865705 -0.01677594 30.92185048 -1.2421875 27.4453125 C-2.67083787 20.95010823 -1.75910727 14.54902545 -1 8 C-0.89945312 7.07574219 -0.79890625 6.15148437 -0.6953125 5.19921875 C-0.49173123 3.4626088 -0.2523209 1.73020046 0 0 Z " fill="#FAFCFB" transform="translate(276,296)"/>
<path d="M0 0 C5.21778782 6.21090151 9.39782918 15.89386388 9.01171875 24.12890625 C8.55337856 27.54021679 8.06339561 30.72611999 7 34 C6.01 34.495 6.01 34.495 5 35 C-0.65976677 24.92251003 -3.11993092 17.76267225 -1 6 C-0.814375 4.87722656 -0.62875 3.75445312 -0.4375 2.59765625 C-0.293125 1.74042969 -0.14875 0.88320313 0 0 Z " fill="#F7FBF9" transform="translate(226,305)"/>
<path d="M0 0 C8.04345202 9.47978274 8.04345202 9.47978274 7.9375 15.625 C7.65949821 17.09030112 7.34054376 18.54795926 7 20 C6.7525 21.12148437 6.505 22.24296875 6.25 23.3984375 C5.52640062 26.6059309 4.77452404 29.80447943 4 33 C3.34 33 2.68 33 2 33 C-2.89421689 21.72019541 -2.09128242 11.8930322 0 0 Z " fill="#FAFCFB" transform="translate(290,213)"/>
<path d="M0 0 C0.33 0 0.66 0 1 0 C1.66 5.28 2.32 10.56 3 16 C2.34 16 1.68 16 1 16 C0.66179834 14.4176994 0.32964061 12.83410625 0 11.25 C-0.185625 10.36828125 -0.37125 9.4865625 -0.5625 8.578125 C-1.09549176 5.4372807 -1.45752243 2.91504486 0 0 Z " fill="#2A965A" transform="translate(370,344)"/>
<path d="M0 0 C1.65 1.65 3.3 3.3 5 5 C3.68 6.32 2.36 7.64 1 9 C0.67 6.03 0.34 3.06 0 0 Z " fill="#269457" transform="translate(155,376)"/>
</svg>
