<?xml version="1.0" encoding="UTF-8"?>
<svg xmlns="http://www.w3.org/2000/svg" xmlns:xlink="http://www.w3.org/1999/xlink" width="50px" height="50px" viewBox="0 0 50 50" version="1.1">
<defs>
<clipPath id="clip1">
  <path d="M 10 4 L 41 4 L 41 44 L 10 44 Z M 10 4 "/>
</clipPath>
<clipPath id="clip2">
  <path d="M 49.027344 25.875 C 49.027344 38.550781 38.324219 48.828125 25.117188 48.828125 C 11.914062 48.828125 1.207031 38.550781 1.207031 25.875 C 1.207031 13.199219 11.914062 2.921875 25.117188 2.921875 C 38.324219 2.921875 49.027344 13.199219 49.027344 25.875 Z M 49.027344 25.875 "/>
</clipPath>
</defs>
<g id="surface1">
<path style="fill:none;stroke-width:1.5;stroke-linecap:butt;stroke-linejoin:miter;stroke:rgb(0%,61.176473%,85.882354%);stroke-opacity:1;stroke-miterlimit:10;" d="M 23.105625 12.496094 C 23.105625 18.644531 18.12 23.630859 11.971875 23.630859 C 5.821875 23.630859 0.838125 18.644531 0.838125 12.496094 C 0.838125 6.347656 5.821875 1.363281 11.971875 1.363281 C 18.12 1.363281 23.105625 6.347656 23.105625 12.496094 Z M 23.105625 12.496094 " transform="matrix(2.083333,0,0,2,0,0)"/>
<g clip-path="url(#clip1)" clip-rule="nonzero">
<g clip-path="url(#clip2)" clip-rule="nonzero">
<path style=" stroke:none;fill-rule:evenodd;fill:rgb(0%,61.176473%,85.882354%);fill-opacity:1;" d="M 26.105469 38.136719 L 26.105469 36.113281 C 26.105469 36.113281 38.339844 35.335938 38.554688 35.335938 C 38.765625 35.335938 38.765625 35.335938 38.765625 35.101562 C 38.765625 34.832031 38.554688 34.832031 38.554688 34.832031 C 38.339844 34.832031 38.339844 34.832031 38.089844 34.597656 C 38.855469 29.5625 38.625 24.433594 37.414062 19.480469 C 35.4375 14.484375 31.316406 10.546875 26.105469 8.671875 L 26.105469 5.410156 C 26.105469 4.902344 25.890625 4.902344 25.644531 4.902344 C 25.429688 4.902344 25.429688 4.902344 25.429688 5.410156 L 24.753906 5.410156 C 24.503906 5.640625 24.292969 5.640625 24.042969 5.914062 C 24.042969 6.148438 23.828125 6.148438 23.367188 6.148438 L 22.191406 6.148438 C 21.730469 6.148438 21.515625 6.652344 21.054688 6.652344 C 20.804688 6.925781 19.917969 7.15625 19.667969 7.429688 C 19.453125 7.429688 19.207031 7.664062 19.453125 7.664062 C 19.453125 7.664062 20.59375 7.664062 20.804688 7.933594 C 21.054688 7.933594 21.054688 8.441406 21.730469 8.167969 C 22.191406 7.933594 22.191406 7.664062 22.441406 7.429688 C 23.117188 7.15625 23.828125 7.664062 24.042969 7.664062 C 24.042969 7.933594 24.292969 7.933594 24.503906 7.664062 C 24.820312 7.617188 25.128906 7.539062 25.429688 7.429688 L 25.429688 9.179688 C 25.46875 15.039062 24.039062 20.824219 21.269531 26.046875 C 16.679688 34.597656 11.167969 35.84375 11.167969 35.84375 C 10.917969 35.84375 10.707031 35.84375 10.707031 36.113281 C 10.707031 36.371094 10.90625 36.585938 11.167969 36.621094 C 11.167969 36.621094 21.269531 36.113281 24.503906 36.113281 C 24.503906 36.113281 24.753906 35.84375 24.96875 35.609375 C 25.109375 35.429688 25.265625 35.261719 25.429688 35.101562 L 25.429688 38.136719 L 11.167969 38.367188 L 11.632812 43.148438 C 11.632812 43.148438 19.667969 43.65625 23.828125 43.65625 C 27.441406 43.710938 31.050781 43.539062 34.640625 43.148438 C 35.101562 42.917969 40.863281 37.359375 40.863281 37.359375 Z M 26.105469 34.09375 C 27.304688 30.433594 27.925781 26.621094 27.953125 22.78125 C 27.851562 18.773438 27.230469 14.789062 26.105469 10.925781 L 26.105469 9.179688 C 27.6875 13.640625 28.550781 18.304688 28.664062 23.015625 C 28.800781 27.257812 27.925781 31.472656 26.105469 35.335938 Z M 26.105469 34.09375 "/>
</g>
</g>
</g>
</svg>
