<?xml version="1.0" encoding="UTF-8"?>
<svg xmlns="http://www.w3.org/2000/svg" xmlns:xlink="http://www.w3.org/1999/xlink" width="50px" height="50px" viewBox="0 0 50 50" version="1.1">
<g id="surface1">
<path style=" stroke:none;fill-rule:nonzero;fill:rgb(99.215686%,99.607843%,99.607843%);fill-opacity:1;" d="M 30.5 0.875 C 30.613281 0.902344 30.730469 0.929688 30.847656 0.960938 C 37.3125 2.59375 42.765625 6.625 46.257812 12.300781 C 47.660156 14.652344 48.710938 17.3125 49.25 20 C 49.300781 20.234375 49.300781 20.234375 49.355469 20.46875 C 49.988281 23.648438 49.898438 27.359375 49.125 30.5 C 49.097656 30.613281 49.070312 30.730469 49.039062 30.847656 C 47.40625 37.316406 43.347656 42.828125 37.632812 46.289062 C 35.292969 47.671875 32.671875 48.714844 30 49.25 C 29.765625 49.300781 29.765625 49.300781 29.53125 49.355469 C 26.351562 49.988281 22.640625 49.898438 19.5 49.125 C 19.386719 49.097656 19.269531 49.070312 19.152344 49.039062 C 12.976562 47.480469 7.449219 43.652344 4.070312 38.210938 C 3.691406 37.570312 3.339844 36.914062 3 36.25 C 2.933594 36.121094 2.933594 36.121094 2.863281 35.988281 C 1.902344 34.109375 1.164062 32.070312 0.75 30 C 0.714844 29.84375 0.679688 29.691406 0.644531 29.53125 C 0.0117188 26.351562 0.101562 22.640625 0.875 19.5 C 0.902344 19.386719 0.929688 19.269531 0.960938 19.152344 C 1.726562 16.117188 3.007812 13.152344 4.875 10.625 C 4.964844 10.5 5.054688 10.375 5.148438 10.246094 C 5.746094 9.4375 6.390625 8.6875 7.078125 7.953125 C 7.191406 7.832031 7.191406 7.832031 7.308594 7.707031 C 10.652344 4.179688 15.242188 1.703125 20 0.75 C 20.234375 0.699219 20.234375 0.699219 20.46875 0.644531 C 23.648438 0.0117188 27.359375 0.101562 30.5 0.875 Z M 30.5 0.875 "/>
<path style=" stroke:none;fill-rule:nonzero;fill:rgb(1.960784%,61.56863%,85.882354%);fill-opacity:1;" d="M 25.5 5.375 C 25.664062 5.417969 25.828125 5.457031 26 5.5 C 26 6.695312 26 7.890625 26 9.125 C 26.246094 9.1875 26.246094 9.1875 26.5 9.25 C 28.960938 10.125 31.070312 11.769531 32.875 13.625 C 32.9375 13.6875 33.003906 13.746094 33.066406 13.808594 C 33.621094 14.339844 34.074219 14.902344 34.507812 15.53125 C 34.574219 15.625 34.636719 15.71875 34.703125 15.8125 C 35.371094 16.78125 35.9375 17.78125 36.375 18.875 C 36.433594 19.011719 36.433594 19.011719 36.496094 19.152344 C 36.652344 19.578125 36.765625 20.003906 36.867188 20.445312 C 36.886719 20.535156 36.910156 20.628906 36.933594 20.722656 C 37.386719 22.722656 37.644531 24.769531 37.644531 26.820312 C 37.644531 26.957031 37.648438 27.09375 37.648438 27.234375 C 37.648438 27.519531 37.648438 27.808594 37.648438 28.09375 C 37.648438 28.523438 37.652344 28.953125 37.652344 29.382812 C 37.65625 31.144531 37.570312 32.875 37.375 34.625 C 37.539062 34.625 37.703125 34.625 37.875 34.625 C 37.875 34.75 37.875 34.871094 37.875 35 C 37.546875 35.164062 37.292969 35.148438 36.925781 35.15625 C 36.710938 35.160156 36.710938 35.160156 36.492188 35.167969 C 36.261719 35.171875 36.261719 35.171875 36.023438 35.179688 C 34.835938 35.214844 33.660156 35.28125 32.480469 35.410156 C 31.460938 35.515625 30.441406 35.550781 29.417969 35.582031 C 28.808594 35.601562 28.226562 35.644531 27.625 35.75 C 27.082031 35.765625 26.542969 35.753906 26 35.75 C 26 36.410156 26 37.070312 26 37.75 C 28.964844 37.679688 31.925781 37.550781 34.886719 37.382812 C 35.425781 37.355469 35.960938 37.324219 36.5 37.296875 C 37.542969 37.238281 38.582031 37.183594 39.625 37.125 C 39.113281 37.734375 38.582031 38.3125 38.015625 38.875 C 37.9375 38.953125 37.855469 39.035156 37.773438 39.117188 C 37.605469 39.285156 37.4375 39.453125 37.269531 39.621094 C 37.015625 39.875 36.761719 40.128906 36.507812 40.382812 C 36.34375 40.546875 36.179688 40.710938 36.015625 40.875 C 35.941406 40.949219 35.867188 41.023438 35.789062 41.101562 C 35.316406 41.570312 34.828125 42.015625 34.324219 42.453125 C 34.214844 42.546875 34.105469 42.644531 34 42.75 C 33.695312 42.777344 33.394531 42.796875 33.089844 42.8125 C 33 42.816406 32.90625 42.824219 32.8125 42.828125 C 32.421875 42.851562 32.03125 42.871094 31.640625 42.890625 C 31.355469 42.90625 31.070312 42.921875 30.785156 42.9375 C 30.652344 42.945312 30.652344 42.945312 30.515625 42.949219 C 30.097656 42.941406 30.097656 42.941406 29.75 43.125 C 29.421875 43.136719 29.101562 43.140625 28.773438 43.140625 C 28.621094 43.140625 28.621094 43.140625 28.464844 43.140625 C 28.125 43.140625 27.785156 43.140625 27.445312 43.140625 C 27.210938 43.140625 26.976562 43.140625 26.742188 43.140625 C 26.246094 43.140625 25.753906 43.140625 25.261719 43.140625 C 24.628906 43.140625 23.996094 43.140625 23.359375 43.140625 C 22.875 43.140625 22.390625 43.140625 21.90625 43.140625 C 21.671875 43.140625 21.4375 43.140625 21.203125 43.140625 C 20.878906 43.140625 20.550781 43.140625 20.226562 43.140625 C 20.128906 43.140625 20.03125 43.140625 19.929688 43.140625 C 19.265625 43.140625 19.265625 43.140625 19.125 43 C 18.917969 42.980469 18.710938 42.96875 18.503906 42.960938 C 18.304688 42.957031 18.304688 42.957031 18.101562 42.949219 C 17.957031 42.941406 17.8125 42.9375 17.664062 42.933594 C 17.441406 42.925781 17.441406 42.925781 17.21875 42.917969 C 16.746094 42.898438 16.277344 42.882812 15.804688 42.867188 C 15.484375 42.855469 15.167969 42.84375 14.847656 42.832031 C 14.066406 42.804688 13.28125 42.777344 12.5 42.75 C 12.273438 41.175781 12.226562 39.585938 12.125 38 C 16.496094 37.917969 20.871094 37.835938 25.375 37.75 C 25.375 36.84375 25.375 35.933594 25.375 35 C 24.863281 35.425781 24.863281 35.425781 24.375 35.875 C 23.988281 35.898438 23.605469 35.917969 23.21875 35.925781 C 23.097656 35.933594 22.972656 35.9375 22.847656 35.941406 C 22.445312 35.953125 22.042969 35.964844 21.636719 35.976562 C 21.359375 35.988281 21.078125 35.996094 20.796875 36.003906 C 20.210938 36.023438 19.625 36.039062 19.039062 36.058594 C 18.285156 36.082031 17.53125 36.105469 16.777344 36.128906 C 16.199219 36.148438 15.625 36.167969 15.046875 36.183594 C 14.769531 36.191406 14.492188 36.203125 14.210938 36.210938 C 13.824219 36.222656 13.4375 36.234375 13.050781 36.246094 C 12.933594 36.25 12.816406 36.253906 12.699219 36.257812 C 12.59375 36.261719 12.488281 36.265625 12.378906 36.265625 C 12.242188 36.269531 12.242188 36.269531 12.101562 36.273438 C 11.875 36.25 11.875 36.25 11.625 36 C 11.625 35.875 11.625 35.753906 11.625 35.625 C 11.761719 35.582031 11.761719 35.582031 11.90625 35.542969 C 15.585938 34.390625 18.070312 31.488281 20.125 28.375 C 20.171875 28.304688 20.21875 28.230469 20.269531 28.15625 C 20.902344 27.1875 21.417969 26.183594 21.886719 25.128906 C 22.003906 24.867188 22.125 24.605469 22.246094 24.347656 C 22.96875 22.785156 23.546875 21.175781 24.011719 19.519531 C 24.101562 19.207031 24.199219 18.910156 24.3125 18.609375 C 24.527344 17.984375 24.609375 17.355469 24.695312 16.703125 C 24.75 16.375 24.75 16.375 24.875 16.25 C 24.910156 15.964844 24.941406 15.679688 24.964844 15.394531 C 24.976562 15.265625 24.976562 15.265625 24.988281 15.136719 C 25.015625 14.859375 25.039062 14.585938 25.0625 14.3125 C 25.09375 13.953125 25.128906 13.589844 25.160156 13.230469 C 25.175781 13.070312 25.1875 12.910156 25.203125 12.742188 C 25.25 12.375 25.25 12.375 25.375 12.25 C 25.386719 11.925781 25.390625 11.605469 25.386719 11.28125 C 25.386719 11.183594 25.386719 11.085938 25.386719 10.988281 C 25.386719 10.675781 25.382812 10.367188 25.382812 10.054688 C 25.382812 9.84375 25.382812 9.632812 25.382812 9.425781 C 25.378906 8.90625 25.378906 8.390625 25.375 7.875 C 25.242188 7.894531 25.105469 7.917969 24.96875 7.9375 C 24.351562 8.019531 23.828125 7.980469 23.21875 7.875 C 23.085938 7.851562 22.949219 7.828125 22.8125 7.804688 C 22.707031 7.785156 22.605469 7.769531 22.5 7.75 C 22.464844 7.828125 22.429688 7.90625 22.390625 7.984375 C 22.25 8.25 22.25 8.25 22 8.5 C 21.703125 8.539062 21.703125 8.539062 21.375 8.5 C 21.304688 8.441406 21.230469 8.382812 21.15625 8.320312 C 20.726562 8.023438 20.261719 8.03125 19.75 8 C 21.097656 6.917969 22.414062 6.449219 24.125 6.625 C 24.125 6.5 24.125 6.378906 24.125 6.25 C 24.289062 6.207031 24.453125 6.167969 24.625 6.125 C 24.625 6.042969 24.625 5.960938 24.625 5.875 C 24.914062 5.875 25.203125 5.875 25.5 5.875 C 25.5 5.710938 25.5 5.546875 25.5 5.375 Z M 25.5 5.375 "/>
<path style=" stroke:none;fill-rule:nonzero;fill:rgb(13.333334%,61.176473%,83.137256%);fill-opacity:1;" d="M 30.5 0.875 C 30.613281 0.902344 30.730469 0.929688 30.847656 0.960938 C 37.3125 2.59375 42.765625 6.625 46.257812 12.300781 C 47.660156 14.652344 48.710938 17.3125 49.25 20 C 49.300781 20.234375 49.300781 20.234375 49.355469 20.46875 C 49.988281 23.648438 49.898438 27.359375 49.125 30.5 C 49.097656 30.613281 49.070312 30.730469 49.039062 30.847656 C 47.40625 37.316406 43.347656 42.828125 37.632812 46.289062 C 35.292969 47.671875 32.671875 48.714844 30 49.25 C 29.765625 49.300781 29.765625 49.300781 29.53125 49.355469 C 26.351562 49.988281 22.640625 49.898438 19.5 49.125 C 19.386719 49.097656 19.269531 49.070312 19.152344 49.039062 C 12.976562 47.480469 7.449219 43.652344 4.070312 38.210938 C 3.691406 37.570312 3.339844 36.914062 3 36.25 C 2.933594 36.121094 2.933594 36.121094 2.863281 35.988281 C 1.902344 34.109375 1.164062 32.070312 0.75 30 C 0.714844 29.84375 0.679688 29.691406 0.644531 29.53125 C 0.0117188 26.351562 0.101562 22.640625 0.875 19.5 C 0.902344 19.386719 0.929688 19.269531 0.960938 19.152344 C 1.726562 16.117188 3.007812 13.152344 4.875 10.625 C 4.964844 10.5 5.054688 10.375 5.148438 10.246094 C 5.746094 9.4375 6.390625 8.6875 7.078125 7.953125 C 7.191406 7.832031 7.191406 7.832031 7.308594 7.707031 C 10.652344 4.179688 15.242188 1.703125 20 0.75 C 20.234375 0.699219 20.234375 0.699219 20.46875 0.644531 C 23.648438 0.0117188 27.359375 0.101562 30.5 0.875 Z M 19.117188 2.796875 C 18.984375 2.835938 18.855469 2.875 18.71875 2.914062 C 18.355469 3.027344 17.988281 3.136719 17.625 3.25 C 17.398438 3.316406 17.398438 3.316406 17.164062 3.386719 C 15.828125 3.804688 14.523438 4.390625 13.378906 5.203125 C 13.125 5.375 12.867188 5.515625 12.59375 5.65625 C 9.707031 7.238281 7.070312 10.125 5.429688 12.941406 C 5.308594 13.148438 5.183594 13.355469 5.058594 13.558594 C 3.949219 15.347656 3.308594 17.332031 2.71875 19.34375 C 2.6875 19.445312 2.65625 19.550781 2.625 19.65625 C 2.144531 21.339844 2.089844 22.976562 2.097656 24.714844 C 2.101562 25.097656 2.101562 25.480469 2.101562 25.863281 C 2.101562 26.105469 2.101562 26.347656 2.105469 26.589844 C 2.105469 26.707031 2.105469 26.820312 2.105469 26.9375 C 2.058594 27.449219 2.058594 27.449219 2.25 27.875 C 2.300781 28.300781 2.347656 28.726562 2.382812 29.152344 C 2.457031 29.851562 2.636719 30.464844 2.875 31.125 C 2.945312 31.335938 3.011719 31.546875 3.082031 31.757812 C 5.085938 37.886719 9.113281 42.636719 14.832031 45.675781 C 15.398438 45.945312 15.980469 46.15625 16.578125 46.359375 C 16.882812 46.460938 17.179688 46.566406 17.476562 46.683594 C 18.039062 46.898438 18.613281 47.050781 19.195312 47.203125 C 19.347656 47.242188 19.347656 47.242188 19.503906 47.285156 C 19.960938 47.40625 20.410156 47.511719 20.878906 47.574219 C 21.25 47.625 21.25 47.625 21.375 47.75 C 22.085938 47.882812 22.785156 47.894531 23.507812 47.890625 C 23.6875 47.890625 23.6875 47.890625 23.867188 47.890625 C 24.117188 47.890625 24.367188 47.890625 24.617188 47.890625 C 25 47.890625 25.378906 47.890625 25.761719 47.890625 C 26.003906 47.890625 26.25 47.890625 26.492188 47.890625 C 26.605469 47.890625 26.71875 47.890625 26.835938 47.890625 C 27.769531 47.890625 28.601562 47.765625 29.5 47.5 C 29.683594 47.457031 29.867188 47.410156 30.054688 47.371094 C 31.421875 47.050781 32.707031 46.640625 34.003906 46.101562 C 34.242188 46.003906 34.484375 45.921875 34.726562 45.835938 C 35.414062 45.582031 36.027344 45.1875 36.648438 44.804688 C 36.777344 44.726562 36.902344 44.648438 37.035156 44.566406 C 41.304688 41.910156 45.164062 37.644531 46.625 32.75 C 46.65625 32.644531 46.6875 32.542969 46.71875 32.433594 C 47.605469 29.503906 47.605469 29.503906 47.890625 26.46875 C 47.890625 26.351562 47.890625 26.230469 47.890625 26.105469 C 47.890625 25.851562 47.890625 25.601562 47.890625 25.347656 C 47.890625 24.960938 47.890625 24.570312 47.890625 24.183594 C 47.890625 23.9375 47.890625 23.691406 47.890625 23.445312 C 47.890625 23.273438 47.890625 23.273438 47.890625 23.09375 C 47.890625 22.988281 47.890625 22.878906 47.890625 22.769531 C 47.890625 22.675781 47.890625 22.582031 47.890625 22.484375 C 47.890625 22.238281 47.890625 22.238281 47.75 22 C 47.730469 21.796875 47.71875 21.59375 47.703125 21.390625 C 47.640625 20.609375 47.449219 19.894531 47.21875 19.148438 C 47.160156 18.949219 47.160156 18.949219 47.097656 18.75 C 46.984375 18.375 46.867188 18 46.75 17.625 C 46.707031 17.488281 46.707031 17.488281 46.664062 17.347656 C 44.910156 11.835938 40.742188 7.605469 35.84375 4.753906 C 35.695312 4.667969 35.550781 4.582031 35.40625 4.492188 C 33.886719 3.597656 32.109375 3.167969 30.417969 2.710938 C 30.195312 2.644531 29.976562 2.574219 29.757812 2.5 C 28.335938 2.039062 26.84375 2.085938 25.367188 2.09375 C 25 2.09375 24.632812 2.09375 24.269531 2.089844 C 22.46875 2.089844 20.84375 2.269531 19.117188 2.796875 Z M 19.117188 2.796875 "/>
<path style=" stroke:none;fill-rule:nonzero;fill:rgb(1.176471%,61.176473%,85.882354%);fill-opacity:1;" d="M 26.5 9.625 C 28.328125 9.714844 29.746094 10.890625 31.125 12 C 31.25 12.097656 31.371094 12.195312 31.5 12.296875 C 32.238281 12.894531 32.910156 13.503906 33.5 14.25 C 33.59375 14.363281 33.6875 14.480469 33.785156 14.597656 C 34.835938 15.898438 35.746094 17.324219 36.375 18.875 C 36.417969 18.976562 36.464844 19.078125 36.507812 19.183594 C 36.660156 19.597656 36.765625 20.015625 36.867188 20.445312 C 36.886719 20.535156 36.910156 20.628906 36.933594 20.722656 C 37.386719 22.722656 37.644531 24.769531 37.644531 26.820312 C 37.648438 27.027344 37.648438 27.027344 37.648438 27.234375 C 37.648438 27.519531 37.648438 27.808594 37.648438 28.09375 C 37.648438 28.523438 37.652344 28.953125 37.652344 29.382812 C 37.65625 31.144531 37.570312 32.875 37.375 34.625 C 37.539062 34.625 37.703125 34.625 37.875 34.625 C 37.875 34.75 37.875 34.871094 37.875 35 C 37.546875 35.164062 37.292969 35.148438 36.925781 35.15625 C 36.710938 35.160156 36.710938 35.160156 36.492188 35.167969 C 36.261719 35.171875 36.261719 35.171875 36.023438 35.179688 C 34.941406 35.210938 33.867188 35.257812 32.789062 35.375 C 30.789062 35.589844 28.761719 35.660156 26.75 35.625 C 26.707031 35.5 26.667969 35.378906 26.625 35.25 C 26.5 35.25 26.378906 35.25 26.25 35.25 C 26.25 35.125 26.25 35.003906 26.25 34.875 C 26.167969 34.832031 26.085938 34.792969 26 34.75 C 26.082031 34.75 26.164062 34.75 26.25 34.75 C 26.269531 34.683594 26.292969 34.621094 26.3125 34.550781 C 26.492188 34.015625 26.675781 33.484375 26.875 32.953125 C 27.09375 32.355469 27.265625 31.753906 27.421875 31.140625 C 27.5 30.875 27.5 30.875 27.625 30.75 C 27.644531 30.605469 27.667969 30.460938 27.6875 30.3125 C 27.75 29.875 27.75 29.875 27.875 29.75 C 27.921875 29.4375 27.964844 29.125 28 28.8125 C 28.109375 27.890625 28.109375 27.890625 28.25 27.75 C 28.375 26.890625 28.394531 26.046875 28.390625 25.179688 C 28.390625 25.046875 28.390625 24.910156 28.390625 24.773438 C 28.390625 24.492188 28.390625 24.210938 28.390625 23.929688 C 28.390625 23.496094 28.390625 23.066406 28.390625 22.632812 C 28.390625 22.359375 28.390625 22.085938 28.390625 21.8125 C 28.390625 21.683594 28.390625 21.554688 28.390625 21.417969 C 28.390625 21.300781 28.390625 21.179688 28.390625 21.058594 C 28.390625 20.953125 28.390625 20.847656 28.390625 20.738281 C 28.402344 20.5 28.402344 20.5 28.25 20.375 C 28.210938 20.109375 28.183594 19.84375 28.15625 19.578125 C 28.136719 19.410156 28.117188 19.238281 28.097656 19.066406 C 28.089844 18.976562 28.078125 18.886719 28.070312 18.796875 C 27.839844 16.6875 27.472656 14.636719 26.921875 12.585938 C 26.789062 12.085938 26.722656 11.640625 26.734375 11.125 C 26.738281 11.007812 26.738281 10.886719 26.742188 10.765625 C 26.742188 10.679688 26.746094 10.589844 26.75 10.5 C 26.667969 10.5 26.585938 10.5 26.5 10.5 C 26.359375 9.90625 26.359375 9.90625 26.5 9.625 Z M 26.5 9.625 "/>
<path style=" stroke:none;fill-rule:nonzero;fill:rgb(1.568628%,61.56863%,85.882354%);fill-opacity:1;" d="M 25.75 36 C 25.792969 36 25.832031 36 25.875 36 C 25.875 36.578125 25.875 37.15625 25.875 37.75 C 28.886719 37.679688 31.890625 37.550781 34.894531 37.382812 C 35.433594 37.355469 35.96875 37.324219 36.507812 37.296875 C 37.546875 37.238281 38.585938 37.183594 39.625 37.125 C 39.113281 37.734375 38.582031 38.3125 38.015625 38.875 C 37.9375 38.953125 37.855469 39.035156 37.773438 39.117188 C 37.605469 39.285156 37.4375 39.453125 37.269531 39.621094 C 37.015625 39.875 36.761719 40.128906 36.507812 40.382812 C 36.34375 40.546875 36.179688 40.710938 36.015625 40.875 C 35.941406 40.949219 35.867188 41.023438 35.789062 41.101562 C 35.316406 41.570312 34.828125 42.015625 34.324219 42.453125 C 34.214844 42.546875 34.105469 42.644531 34 42.75 C 33.695312 42.777344 33.394531 42.796875 33.089844 42.8125 C 32.953125 42.820312 32.953125 42.820312 32.8125 42.828125 C 32.421875 42.851562 32.03125 42.871094 31.640625 42.890625 C 31.355469 42.90625 31.070312 42.921875 30.785156 42.9375 C 30.695312 42.941406 30.605469 42.945312 30.515625 42.949219 C 30.097656 42.941406 30.097656 42.941406 29.75 43.125 C 29.421875 43.136719 29.101562 43.140625 28.773438 43.140625 C 28.671875 43.140625 28.570312 43.140625 28.464844 43.140625 C 28.125 43.140625 27.785156 43.140625 27.445312 43.140625 C 27.210938 43.140625 26.976562 43.140625 26.742188 43.140625 C 26.246094 43.140625 25.753906 43.140625 25.261719 43.140625 C 24.628906 43.140625 23.996094 43.140625 23.359375 43.140625 C 22.875 43.140625 22.390625 43.140625 21.90625 43.140625 C 21.671875 43.140625 21.4375 43.140625 21.203125 43.140625 C 20.878906 43.140625 20.550781 43.140625 20.226562 43.140625 C 20.128906 43.140625 20.03125 43.140625 19.929688 43.140625 C 19.265625 43.140625 19.265625 43.140625 19.125 43 C 18.917969 42.980469 18.710938 42.96875 18.503906 42.960938 C 18.371094 42.957031 18.238281 42.953125 18.101562 42.949219 C 17.957031 42.941406 17.8125 42.9375 17.664062 42.933594 C 17.515625 42.925781 17.371094 42.921875 17.21875 42.917969 C 16.746094 42.898438 16.277344 42.882812 15.804688 42.867188 C 15.484375 42.855469 15.167969 42.84375 14.847656 42.832031 C 14.066406 42.804688 13.28125 42.777344 12.5 42.75 C 12.273438 41.175781 12.226562 39.585938 12.125 38 C 16.496094 37.917969 20.871094 37.835938 25.375 37.75 C 25.417969 37.253906 25.457031 36.761719 25.5 36.25 C 25.582031 36.25 25.664062 36.25 25.75 36.25 C 25.75 36.167969 25.75 36.085938 25.75 36 Z M 25.75 36 "/>
<path style=" stroke:none;fill-rule:nonzero;fill:rgb(95.294118%,97.647059%,98.823529%);fill-opacity:1;" d="M 26 9.75 C 26.25 9.875 26.25 9.875 26.347656 10.109375 C 26.378906 10.214844 26.40625 10.316406 26.4375 10.425781 C 26.492188 10.601562 26.492188 10.601562 26.546875 10.78125 C 26.582031 10.910156 26.617188 11.039062 26.65625 11.171875 C 26.695312 11.304688 26.734375 11.441406 26.773438 11.578125 C 27.464844 14.054688 27.949219 16.515625 28.222656 19.070312 C 28.234375 19.15625 28.242188 19.242188 28.253906 19.328125 C 28.277344 19.566406 28.300781 19.800781 28.328125 20.035156 C 28.339844 20.363281 28.339844 20.363281 28.5 20.5 C 28.511719 20.6875 28.515625 20.871094 28.515625 21.058594 C 28.515625 21.175781 28.515625 21.296875 28.515625 21.417969 C 28.515625 21.550781 28.515625 21.679688 28.515625 21.8125 C 28.515625 22.011719 28.515625 22.011719 28.515625 22.214844 C 28.515625 22.5 28.515625 22.78125 28.515625 23.066406 C 28.515625 23.496094 28.515625 23.925781 28.515625 24.355469 C 28.515625 24.628906 28.515625 24.90625 28.515625 25.179688 C 28.515625 25.308594 28.515625 25.433594 28.515625 25.566406 C 28.515625 26.640625 28.421875 27.589844 28.125 28.625 C 28.085938 28.925781 28.054688 29.222656 28.03125 29.523438 C 28 29.75 28 29.75 27.875 29.875 C 27.859375 30 27.84375 30.128906 27.828125 30.257812 C 27.757812 30.699219 27.640625 31.0625 27.476562 31.472656 C 27.363281 31.777344 27.289062 32.082031 27.210938 32.398438 C 26.992188 33.230469 26.628906 33.980469 26.25 34.75 C 26.167969 34.75 26.085938 34.75 26 34.75 C 25.96875 33.984375 26.074219 33.371094 26.296875 32.640625 C 26.355469 32.441406 26.414062 32.242188 26.46875 32.042969 C 26.496094 31.945312 26.523438 31.851562 26.554688 31.753906 C 26.664062 31.363281 26.746094 30.96875 26.816406 30.566406 C 26.863281 30.320312 26.914062 30.074219 26.964844 29.828125 C 27.429688 27.613281 27.535156 25.5 27.527344 23.242188 C 27.523438 22.753906 27.523438 22.265625 27.523438 21.777344 C 27.523438 21.46875 27.523438 21.15625 27.519531 20.847656 C 27.519531 20.703125 27.519531 20.554688 27.519531 20.40625 C 27.519531 20.203125 27.519531 20.203125 27.519531 20 C 27.519531 19.882812 27.515625 19.765625 27.515625 19.640625 C 27.53125 19.378906 27.53125 19.378906 27.375 19.25 C 27.339844 18.988281 27.308594 18.730469 27.285156 18.46875 C 27.265625 18.300781 27.25 18.128906 27.230469 17.960938 C 27.222656 17.875 27.210938 17.785156 27.203125 17.691406 C 27.015625 15.96875 26.730469 14.316406 26.285156 12.640625 C 26.03125 11.660156 25.949219 10.765625 26 9.75 Z M 26 9.75 "/>
<path style=" stroke:none;fill-rule:nonzero;fill:rgb(6.27451%,62.7451%,86.274511%);fill-opacity:1;" d="M 25.5 5.375 C 25.664062 5.417969 25.828125 5.457031 26 5.5 C 26 6.695312 26 7.890625 26 9.125 C 26.164062 9.167969 26.328125 9.207031 26.5 9.25 C 26.679688 9.3125 26.855469 9.378906 27.03125 9.445312 C 27.121094 9.480469 27.207031 9.511719 27.296875 9.546875 C 27.363281 9.574219 27.429688 9.597656 27.5 9.625 C 27.421875 9.644531 27.34375 9.660156 27.265625 9.679688 C 26.996094 9.742188 26.996094 9.742188 26.75 9.875 C 26.75 9.792969 26.75 9.710938 26.75 9.625 C 26.667969 9.625 26.585938 9.625 26.5 9.625 C 26.5 9.914062 26.5 10.203125 26.5 10.5 C 26.582031 10.5 26.664062 10.5 26.75 10.5 C 26.828125 10.71875 26.828125 10.71875 26.875 11 C 26.792969 11.164062 26.710938 11.328125 26.625 11.5 C 26.460938 10.964844 26.296875 10.425781 26.125 9.875 C 26.050781 11 26.234375 11.941406 26.539062 13.019531 C 26.566406 13.121094 26.597656 13.226562 26.625 13.332031 C 26.652344 13.425781 26.679688 13.515625 26.707031 13.613281 C 26.753906 13.90625 26.714844 14.09375 26.625 14.375 C 26.542969 14.210938 26.460938 14.046875 26.375 13.875 C 26.375 14 26.375 14.121094 26.375 14.25 C 26.25 14.292969 26.128906 14.332031 26 14.375 C 25.9375 14.4375 25.875 14.5 25.8125 14.5625 C 25.625 14.75 25.625 14.75 25.25 14.875 C 25.207031 15.082031 25.167969 15.289062 25.125 15.5 C 25.082031 15.5 25.042969 15.5 25 15.5 C 25.03125 15.113281 25.058594 14.722656 25.089844 14.335938 C 25.113281 14.035156 25.136719 13.738281 25.15625 13.4375 C 25.167969 13.304688 25.175781 13.167969 25.1875 13.03125 C 25.195312 12.90625 25.207031 12.785156 25.214844 12.65625 C 25.25 12.375 25.25 12.375 25.375 12.25 C 25.386719 11.925781 25.390625 11.605469 25.386719 11.28125 C 25.386719 11.136719 25.386719 11.136719 25.386719 10.988281 C 25.386719 10.675781 25.382812 10.367188 25.382812 10.054688 C 25.382812 9.84375 25.382812 9.632812 25.382812 9.425781 C 25.378906 8.90625 25.378906 8.390625 25.375 7.875 C 25.175781 7.90625 25.175781 7.90625 24.96875 7.9375 C 24.351562 8.019531 23.828125 7.980469 23.21875 7.875 C 23.085938 7.851562 22.949219 7.828125 22.8125 7.804688 C 22.707031 7.785156 22.605469 7.769531 22.5 7.75 C 22.464844 7.828125 22.429688 7.90625 22.390625 7.984375 C 22.25 8.25 22.25 8.25 22 8.5 C 21.703125 8.539062 21.703125 8.539062 21.375 8.5 C 21.304688 8.441406 21.230469 8.382812 21.15625 8.320312 C 20.726562 8.023438 20.261719 8.03125 19.75 8 C 21.097656 6.917969 22.414062 6.449219 24.125 6.625 C 24.125 6.5 24.125 6.378906 24.125 6.25 C 24.289062 6.207031 24.453125 6.167969 24.625 6.125 C 24.625 6.042969 24.625 5.960938 24.625 5.875 C 24.914062 5.875 25.203125 5.875 25.5 5.875 C 25.5 5.710938 25.5 5.546875 25.5 5.375 Z M 25.5 5.375 "/>
<path style=" stroke:none;fill-rule:nonzero;fill:rgb(10.980392%,64.705884%,86.274511%);fill-opacity:1;" d="M 21.875 6.75 C 21.957031 6.914062 22.039062 7.078125 22.125 7.25 C 21.878906 7.375 21.878906 7.375 21.625 7.5 C 21.625 7.542969 21.625 7.582031 21.625 7.625 C 21.867188 7.699219 21.867188 7.699219 22.125 7.75 C 22.167969 7.707031 22.207031 7.667969 22.25 7.625 C 22.460938 7.617188 22.671875 7.613281 22.882812 7.617188 C 22.996094 7.617188 23.113281 7.621094 23.230469 7.621094 C 23.320312 7.621094 23.410156 7.625 23.5 7.625 C 23.5 7.667969 23.5 7.707031 23.5 7.75 C 23.171875 7.75 22.839844 7.75 22.5 7.75 C 22.445312 7.867188 22.445312 7.867188 22.390625 7.984375 C 22.25 8.25 22.25 8.25 22 8.5 C 21.703125 8.539062 21.703125 8.539062 21.375 8.5 C 21.304688 8.441406 21.230469 8.382812 21.15625 8.320312 C 20.726562 8.023438 20.261719 8.03125 19.75 8 C 20.167969 7.664062 20.617188 7.417969 21.09375 7.164062 C 21.207031 7.105469 21.207031 7.105469 21.320312 7.042969 C 21.507812 6.945312 21.691406 6.847656 21.875 6.75 Z M 21.875 6.75 "/>
<path style=" stroke:none;fill-rule:nonzero;fill:rgb(0.784314%,60.784316%,85.882354%);fill-opacity:1;" d="M 23.015625 6.617188 C 23.152344 6.617188 23.289062 6.621094 23.429688 6.621094 C 23.535156 6.621094 23.640625 6.625 23.75 6.625 C 23.625 6.6875 23.625 6.6875 23.5 6.75 C 23.542969 7.039062 23.582031 7.328125 23.625 7.625 C 23.171875 7.625 22.71875 7.625 22.25 7.625 C 22.207031 7.707031 22.167969 7.789062 22.125 7.875 C 21.753906 7.8125 21.753906 7.8125 21.375 7.75 C 21.582031 7.542969 21.792969 7.332031 22 7.125 C 22 7 22 6.878906 22 6.75 C 22.34375 6.578125 22.628906 6.613281 23.015625 6.617188 Z M 23.625 7.25 C 23.707031 7.332031 23.789062 7.414062 23.875 7.5 C 23.792969 7.5 23.710938 7.5 23.625 7.5 C 23.625 7.417969 23.625 7.335938 23.625 7.25 Z M 23.625 7.25 "/>
<path style=" stroke:none;fill-rule:nonzero;fill:rgb(15.686275%,66.274512%,86.666667%);fill-opacity:1;" d="M 26 9.875 C 26.015625 10.007812 26.03125 10.144531 26.050781 10.28125 C 26.074219 10.460938 26.09375 10.640625 26.117188 10.820312 C 26.128906 10.910156 26.140625 10.996094 26.148438 11.085938 C 26.21875 11.640625 26.292969 12.195312 26.375 12.75 C 26.210938 12.667969 26.046875 12.585938 25.875 12.5 C 25.875 12.417969 25.875 12.335938 25.875 12.25 C 25.472656 12.453125 25.472656 12.453125 25.4375 12.796875 C 25.425781 12.96875 25.425781 12.96875 25.414062 13.140625 C 25.40625 13.253906 25.398438 13.367188 25.390625 13.484375 C 25.382812 13.617188 25.382812 13.617188 25.375 13.75 C 25.332031 13.75 25.292969 13.75 25.25 13.75 C 25.246094 13.523438 25.246094 13.296875 25.242188 13.070312 C 25.242188 12.945312 25.238281 12.816406 25.238281 12.6875 C 25.25 12.375 25.25 12.375 25.375 12.25 C 25.394531 12.082031 25.40625 11.914062 25.414062 11.746094 C 25.421875 11.59375 25.421875 11.59375 25.429688 11.4375 C 25.433594 11.332031 25.441406 11.226562 25.445312 11.117188 C 25.449219 11.011719 25.457031 10.902344 25.460938 10.792969 C 25.476562 10.527344 25.488281 10.265625 25.5 10 C 25.875 9.875 25.875 9.875 26 9.875 Z M 26 9.875 "/>
<path style=" stroke:none;fill-rule:nonzero;fill:rgb(14.509805%,61.176473%,81.176472%);fill-opacity:1;" d="M 8.375 41.125 C 8.5 41.125 8.621094 41.125 8.75 41.125 C 8.707031 41.332031 8.667969 41.539062 8.625 41.75 C 8.542969 41.75 8.460938 41.75 8.375 41.75 C 8.375 41.875 8.375 41.996094 8.375 42.125 C 8.5 42.167969 8.621094 42.207031 8.75 42.25 C 8.714844 42.382812 8.679688 42.511719 8.640625 42.648438 C 8.636719 42.804688 8.628906 42.964844 8.625 43.125 C 8.984375 43.5 9.257812 43.710938 9.75 43.875 C 9.898438 44.195312 9.898438 44.195312 10 44.5 C 9.628906 44.332031 9.347656 44.140625 9.046875 43.867188 C 8.960938 43.789062 8.875 43.714844 8.789062 43.636719 C 8.691406 43.550781 8.597656 43.464844 8.5 43.375 C 8.386719 43.273438 8.273438 43.171875 8.15625 43.066406 C 7.855469 42.796875 7.550781 42.523438 7.25 42.25 C 7.457031 42.25 7.667969 42.25 7.875 42.25 C 7.832031 42.125 7.792969 42.003906 7.75 41.875 C 7.851562 41.773438 7.957031 41.675781 8.0625 41.570312 C 8.390625 41.308594 8.390625 41.308594 8.375 41.125 Z M 8.375 41.125 "/>
<path style=" stroke:none;fill-rule:nonzero;fill:rgb(14.509805%,59.607846%,80.000001%);fill-opacity:1;" d="M 39 4.75 C 39.460938 4.957031 39.84375 5.238281 40.25 5.539062 C 40.378906 5.632812 40.507812 5.730469 40.640625 5.828125 C 40.980469 6.109375 41.238281 6.394531 41.5 6.75 C 40.90625 6.65625 40.90625 6.65625 40.625 6.375 C 40.625 6.292969 40.625 6.210938 40.625 6.125 C 40.542969 6.082031 40.460938 6.042969 40.375 6 C 40.375 6.082031 40.375 6.164062 40.375 6.25 C 40.25 6.25 40.128906 6.25 40 6.25 C 39.957031 6.125 39.917969 6.003906 39.875 5.875 C 39.792969 5.875 39.710938 5.875 39.625 5.875 C 39.582031 6 39.542969 6.121094 39.5 6.25 C 39.375 6.25 39.253906 6.25 39.125 6.25 C 39.152344 6.175781 39.175781 6.101562 39.203125 6.023438 C 39.289062 5.714844 39.289062 5.714844 39 5.375 C 38.984375 5.039062 38.984375 5.039062 39 4.75 Z M 39 4.75 "/>
<path style=" stroke:none;fill-rule:nonzero;fill:rgb(20%,60.392159%,78.431374%);fill-opacity:1;" d="M 24.75 49.125 C 24.957031 49.164062 25.167969 49.207031 25.375 49.25 C 25.792969 49.28125 26.210938 49.304688 26.628906 49.328125 C 27 49.375 27 49.375 27.375 49.625 C 26.695312 49.628906 26.019531 49.628906 25.339844 49.632812 C 25.109375 49.632812 24.878906 49.632812 24.648438 49.632812 C 24.316406 49.636719 23.984375 49.636719 23.652344 49.636719 C 23.5 49.636719 23.5 49.636719 23.34375 49.640625 C 22.757812 49.640625 22.203125 49.597656 21.625 49.5 C 21.625 49.457031 21.625 49.417969 21.625 49.375 C 21.714844 49.371094 21.804688 49.367188 21.898438 49.367188 C 22.304688 49.351562 22.710938 49.335938 23.117188 49.320312 C 23.257812 49.316406 23.402344 49.308594 23.546875 49.304688 C 23.75 49.296875 23.75 49.296875 23.957031 49.289062 C 24.082031 49.285156 24.207031 49.28125 24.335938 49.277344 C 24.621094 49.28125 24.621094 49.28125 24.75 49.125 Z M 24.75 49.125 "/>
<path style=" stroke:none;fill-rule:nonzero;fill:rgb(21.568628%,68.627453%,87.058824%);fill-opacity:1;" d="M 25.875 6.75 C 25.917969 6.75 25.957031 6.75 26 6.75 C 26 7.535156 26 8.316406 26 9.125 C 26.164062 9.167969 26.328125 9.207031 26.5 9.25 C 26.679688 9.3125 26.855469 9.378906 27.03125 9.445312 C 27.121094 9.480469 27.207031 9.511719 27.296875 9.546875 C 27.363281 9.574219 27.429688 9.597656 27.5 9.625 C 27.421875 9.644531 27.34375 9.660156 27.265625 9.679688 C 26.996094 9.742188 26.996094 9.742188 26.75 9.875 C 26.75 9.792969 26.75 9.710938 26.75 9.625 C 26.667969 9.625 26.585938 9.625 26.5 9.625 C 26.5 9.914062 26.5 10.203125 26.5 10.5 C 26.582031 10.5 26.664062 10.5 26.75 10.5 C 26.863281 10.824219 26.898438 10.949219 26.753906 11.265625 C 26.691406 11.382812 26.691406 11.382812 26.625 11.5 C 26.542969 11.242188 26.464844 10.984375 26.382812 10.726562 C 26.316406 10.511719 26.316406 10.511719 26.246094 10.292969 C 26.125 9.875 26.125 9.875 26.0625 9.515625 C 26.042969 9.429688 26.019531 9.339844 26 9.25 C 25.917969 9.207031 25.835938 9.167969 25.75 9.125 C 25.792969 8.339844 25.832031 7.558594 25.875 6.75 Z M 25.875 6.75 "/>
<path style=" stroke:none;fill-rule:nonzero;fill:rgb(12.156863%,65.098041%,86.274511%);fill-opacity:1;" d="M 27.375 31.375 C 27.625 31.75 27.625 31.75 27.625 32.25 C 27.667969 32.375 27.707031 32.496094 27.75 32.625 C 27.503906 32.75 27.503906 32.75 27.25 32.875 C 27.25 33 27.25 33.121094 27.25 33.25 C 27.332031 33.292969 27.414062 33.332031 27.5 33.375 C 27.25 33.75 27.25 33.75 26.875 33.875 C 26.722656 34.1875 26.722656 34.1875 26.625 34.5 C 26.542969 34.5 26.460938 34.5 26.375 34.5 C 26.570312 33.816406 26.78125 33.148438 27.039062 32.488281 C 27.171875 32.121094 27.273438 31.75 27.375 31.375 Z M 27.375 31.375 "/>
<path style=" stroke:none;fill-rule:nonzero;fill:rgb(18.431373%,59.607846%,78.431374%);fill-opacity:1;" d="M 4.75 39 C 4.996094 39.082031 5.246094 39.164062 5.5 39.25 C 5.5 39.375 5.5 39.496094 5.5 39.625 C 5.625 39.625 5.746094 39.625 5.875 39.625 C 5.875 39.75 5.875 39.871094 5.875 40 C 6 40 6.121094 40 6.25 40 C 6.207031 40.125 6.167969 40.246094 6.125 40.375 C 6.289062 40.6875 6.289062 40.6875 6.5 41 C 6.585938 41.164062 6.667969 41.332031 6.75 41.5 C 5.929688 40.871094 5.316406 40.109375 4.75 39.25 C 4.75 39.167969 4.75 39.085938 4.75 39 Z M 4.75 39 "/>
<path style=" stroke:none;fill-rule:nonzero;fill:rgb(17.647059%,59.607846%,78.823531%);fill-opacity:1;" d="M 3.375 36.75 C 3.457031 36.75 3.539062 36.75 3.625 36.75 C 3.667969 36.828125 3.710938 36.90625 3.753906 36.988281 C 3.808594 37.089844 3.863281 37.191406 3.921875 37.296875 C 3.976562 37.398438 4.03125 37.5 4.089844 37.605469 C 4.242188 37.886719 4.242188 37.886719 4.5 38.125 C 4.550781 38.0625 4.601562 37.996094 4.65625 37.929688 C 4.765625 37.839844 4.765625 37.839844 4.875 37.75 C 5.148438 37.789062 5.148438 37.789062 5.375 37.875 C 5.25 37.875 5.128906 37.875 5 37.875 C 4.957031 38 4.917969 38.121094 4.875 38.25 C 4.832031 38.332031 4.792969 38.414062 4.75 38.5 C 4.875 38.542969 4.996094 38.582031 5.125 38.625 C 5 38.667969 4.878906 38.707031 4.75 38.75 C 4.707031 38.832031 4.667969 38.914062 4.625 39 C 4.414062 38.671875 4.207031 38.34375 4 38.015625 C 3.941406 37.921875 3.878906 37.828125 3.820312 37.734375 C 3.761719 37.644531 3.707031 37.554688 3.648438 37.460938 C 3.597656 37.378906 3.542969 37.296875 3.488281 37.210938 C 3.375 37 3.375 37 3.375 36.75 Z M 3.375 36.75 "/>
<path style=" stroke:none;fill-rule:nonzero;fill:rgb(23.529412%,68.627453%,87.058824%);fill-opacity:1;" d="M 26.132812 35.367188 C 26.316406 35.371094 26.316406 35.371094 26.5 35.375 C 26.5 35.457031 26.5 35.539062 26.5 35.625 C 26.871094 35.625 27.242188 35.625 27.625 35.625 C 27.625 35.667969 27.625 35.707031 27.625 35.75 C 27.089844 35.75 26.550781 35.75 26 35.75 C 26 36.410156 26 37.070312 26 37.75 C 25.957031 37.75 25.917969 37.75 25.875 37.75 C 25.832031 37.253906 25.792969 36.761719 25.75 36.25 C 25.667969 36.25 25.585938 36.25 25.5 36.25 C 25.628906 35.378906 25.628906 35.378906 26.132812 35.367188 Z M 26.132812 35.367188 "/>
<path style=" stroke:none;fill-rule:nonzero;fill:rgb(18.431373%,60.000002%,78.823531%);fill-opacity:1;" d="M 45.125 39 C 45.125 39.503906 44.925781 39.6875 44.625 40.085938 C 44.53125 40.210938 44.4375 40.335938 44.34375 40.460938 C 44.234375 40.605469 44.234375 40.605469 44.125 40.75 C 44.042969 40.585938 43.960938 40.421875 43.875 40.25 C 44 40.25 44.121094 40.25 44.25 40.25 C 44.207031 40.042969 44.167969 39.835938 44.125 39.625 C 44.25 39.582031 44.371094 39.542969 44.5 39.5 C 44.5 39.417969 44.5 39.335938 44.5 39.25 C 44.707031 39.167969 44.914062 39.085938 45.125 39 Z M 45.125 39 "/>
<path style=" stroke:none;fill-rule:nonzero;fill:rgb(22.745098%,60.000002%,77.64706%);fill-opacity:1;" d="M 30.5 49 C 29.640625 49.5 28.476562 49.546875 27.5 49.5 C 27.625 49.457031 27.746094 49.417969 27.875 49.375 C 27.875 49.292969 27.875 49.210938 27.875 49.125 C 28.195312 49.105469 28.515625 49.082031 28.835938 49.0625 C 28.925781 49.054688 29.015625 49.050781 29.109375 49.042969 C 29.574219 49.015625 30.035156 48.992188 30.5 49 Z M 30.5 49 "/>
<path style=" stroke:none;fill-rule:nonzero;fill:rgb(14.901961%,65.490198%,85.490197%);fill-opacity:1;" d="M 21.125 7.5 C 21.167969 7.625 21.207031 7.746094 21.25 7.875 C 21.207031 7.957031 21.167969 8.039062 21.125 8.125 C 20.671875 8.082031 20.21875 8.042969 19.75 8 C 20.304688 7.585938 20.460938 7.484375 21.125 7.5 Z M 21.125 7.5 "/>
<path style=" stroke:none;fill-rule:nonzero;fill:rgb(29.803923%,70.588237%,87.843138%);fill-opacity:1;" d="M 28.125 18.125 C 28.167969 18.125 28.207031 18.125 28.25 18.125 C 28.25 18.332031 28.25 18.539062 28.25 18.75 C 28.457031 18.792969 28.664062 18.832031 28.875 18.875 C 28.875 19 28.875 19.121094 28.875 19.25 C 28.710938 19.25 28.546875 19.25 28.375 19.25 C 28.375 19.621094 28.375 19.992188 28.375 20.375 C 28.332031 20.375 28.292969 20.375 28.25 20.375 C 28.207031 19.632812 28.167969 18.890625 28.125 18.125 Z M 28.125 18.125 "/>
<path style=" stroke:none;fill-rule:nonzero;fill:rgb(18.82353%,60.784316%,78.823531%);fill-opacity:1;" d="M 34.625 47 C 34.996094 47.042969 35.367188 47.082031 35.75 47.125 C 35.261719 47.519531 34.765625 47.875 34.125 47.875 C 34.125 47.792969 34.125 47.710938 34.125 47.625 C 34.289062 47.625 34.453125 47.625 34.625 47.625 C 34.625 47.460938 34.625 47.296875 34.625 47.125 C 34.625 47.082031 34.625 47.042969 34.625 47 Z M 34.625 47 "/>
<path style=" stroke:none;fill-rule:nonzero;fill:rgb(26.274511%,70.19608%,87.450981%);fill-opacity:1;" d="M 27.5 25.25 C 27.542969 25.25 27.582031 25.25 27.625 25.25 C 27.640625 25.933594 27.613281 26.578125 27.5 27.25 C 27.488281 27.171875 27.472656 27.089844 27.460938 27.007812 C 27.433594 26.921875 27.402344 26.835938 27.375 26.75 C 27.25 26.707031 27.128906 26.667969 27 26.625 C 27.042969 26.460938 27.082031 26.296875 27.125 26.125 C 27.167969 26.167969 27.207031 26.207031 27.25 26.25 C 27.332031 25.921875 27.414062 25.589844 27.5 25.25 Z M 27.5 25.25 "/>
<path style=" stroke:none;fill-rule:nonzero;fill:rgb(18.82353%,58.431375%,75.294119%);fill-opacity:1;" d="M 4.625 11 C 4.667969 11.082031 4.707031 11.164062 4.75 11.25 C 4.632812 11.546875 4.507812 11.835938 4.375 12.125 C 4.292969 12.125 4.210938 12.125 4.125 12.125 C 4.082031 12.289062 4.042969 12.453125 4 12.625 C 3.917969 12.625 3.835938 12.625 3.75 12.625 C 3.957031 12.027344 4.28125 11.527344 4.625 11 Z M 4.625 11 "/>
<path style=" stroke:none;fill-rule:nonzero;fill:rgb(16.470589%,59.607846%,77.64706%);fill-opacity:1;" d="M 9.75 5.5 C 9.832031 5.542969 9.914062 5.582031 10 5.625 C 9.875 5.8125 9.875 5.8125 9.75 6 C 9.832031 6 9.914062 6 10 6 C 9.957031 6.125 9.917969 6.246094 9.875 6.375 C 9.75 6.417969 9.628906 6.457031 9.5 6.5 C 9.457031 6.417969 9.417969 6.335938 9.375 6.25 C 9.210938 6.292969 9.046875 6.332031 8.875 6.375 C 9.167969 6.082031 9.457031 5.792969 9.75 5.5 Z M 9.75 5.5 "/>
<path style=" stroke:none;fill-rule:nonzero;fill:rgb(21.176471%,63.529414%,84.313726%);fill-opacity:1;" d="M 12.25 44.125 C 12.75 44.296875 13.101562 44.53125 13.5 44.875 C 13.253906 45.039062 13.003906 45.203125 12.75 45.375 C 12.792969 45.167969 12.832031 44.960938 12.875 44.75 C 12.566406 44.625 12.566406 44.625 12.25 44.5 C 12.25 44.375 12.25 44.253906 12.25 44.125 Z M 12.25 44.125 "/>
<path style=" stroke:none;fill-rule:nonzero;fill:rgb(21.176471%,60.000002%,75.294119%);fill-opacity:1;" d="M 8.375 43.125 C 8.652344 43.253906 8.886719 43.386719 9.132812 43.570312 C 9.378906 43.773438 9.378906 43.773438 9.75 43.875 C 9.898438 44.195312 9.898438 44.195312 10 44.5 C 9.601562 44.320312 9.300781 44.101562 8.976562 43.8125 C 8.890625 43.738281 8.804688 43.660156 8.714844 43.582031 C 8.5 43.375 8.5 43.375 8.375 43.125 Z M 8.375 43.125 "/>
<path style=" stroke:none;fill-rule:nonzero;fill:rgb(17.647059%,62.7451%,79.607844%);fill-opacity:1;" d="M 36.625 46.25 C 36.832031 46.292969 37.039062 46.332031 37.25 46.375 C 36.761719 46.820312 36.378906 46.976562 35.75 47.125 C 35.792969 47.042969 35.832031 46.960938 35.875 46.875 C 35.957031 46.875 36.039062 46.875 36.125 46.875 C 36.167969 46.75 36.207031 46.628906 36.25 46.5 C 36.332031 46.5 36.414062 46.5 36.5 46.5 C 36.542969 46.417969 36.582031 46.335938 36.625 46.25 Z M 36.625 46.25 "/>
<path style=" stroke:none;fill-rule:nonzero;fill:rgb(15.686275%,59.607846%,78.431374%);fill-opacity:1;" d="M 10.75 4.75 C 10.832031 4.792969 10.914062 4.832031 11 4.875 C 10.875 5.0625 10.875 5.0625 10.75 5.25 C 10.832031 5.292969 10.914062 5.332031 11 5.375 C 10.875 5.5 10.753906 5.621094 10.625 5.75 C 10.5 5.667969 10.378906 5.585938 10.25 5.5 C 10.167969 5.457031 10.085938 5.417969 10 5.375 C 10.246094 5.167969 10.496094 4.960938 10.75 4.75 Z M 10.75 4.75 "/>
<path style=" stroke:none;fill-rule:nonzero;fill:rgb(22.352941%,59.215689%,76.862746%);fill-opacity:1;" d="M 27.875 0.5 C 28.578125 0.582031 29.277344 0.664062 30 0.75 C 30 0.792969 30 0.832031 30 0.875 C 29.691406 0.886719 29.386719 0.890625 29.078125 0.898438 C 28.945312 0.902344 28.945312 0.902344 28.8125 0.90625 C 28.558594 0.910156 28.558594 0.910156 28.125 0.875 C 28.042969 0.75 27.960938 0.628906 27.875 0.5 Z M 27.875 0.5 "/>
<path style=" stroke:none;fill-rule:nonzero;fill:rgb(22.352941%,64.705884%,85.882354%);fill-opacity:1;" d="M 2.375 28.75 C 2.417969 28.75 2.457031 28.75 2.5 28.75 C 2.53125 28.972656 2.558594 29.191406 2.585938 29.414062 C 2.601562 29.539062 2.617188 29.660156 2.632812 29.789062 C 2.625 30.125 2.625 30.125 2.441406 30.355469 C 2.378906 30.402344 2.316406 30.453125 2.25 30.5 C 2.25 30.417969 2.25 30.335938 2.25 30.25 C 2.167969 30.207031 2.085938 30.167969 2 30.125 C 2.082031 30 2.164062 29.878906 2.25 29.75 C 2.167969 29.707031 2.085938 29.667969 2 29.625 C 2.125 29.625 2.246094 29.625 2.375 29.625 C 2.375 29.335938 2.375 29.046875 2.375 28.75 Z M 2.375 28.75 "/>
<path style=" stroke:none;fill-rule:nonzero;fill:rgb(18.82353%,58.823532%,77.64706%);fill-opacity:1;" d="M 3.25 13.25 C 3.292969 13.25 3.332031 13.25 3.375 13.25 C 3.46875 13.59375 3.46875 13.59375 3.5 14 C 3.265625 14.28125 3.265625 14.28125 3 14.5 C 2.957031 14.582031 2.917969 14.664062 2.875 14.75 C 2.792969 14.75 2.710938 14.75 2.625 14.75 C 2.789062 14.222656 2.992188 13.742188 3.25 13.25 Z M 3.25 13.25 "/>
<path style=" stroke:none;fill-rule:nonzero;fill:rgb(17.647059%,63.921571%,84.705883%);fill-opacity:1;" d="M 9.625 42 C 9.914062 42.246094 10.203125 42.496094 10.5 42.75 C 10.457031 42.832031 10.417969 42.914062 10.375 43 C 10.210938 42.957031 10.046875 42.917969 9.875 42.875 C 9.792969 42.585938 9.710938 42.296875 9.625 42 Z M 9.625 42 "/>
<path style=" stroke:none;fill-rule:nonzero;fill:rgb(20.784314%,58.823532%,75.686276%);fill-opacity:1;" d="M 47.375 14.75 C 47.683594 15.121094 47.832031 15.441406 47.960938 15.90625 C 47.992188 16.019531 48.023438 16.128906 48.054688 16.242188 C 48.089844 16.371094 48.089844 16.371094 48.125 16.5 C 47.691406 16.285156 47.546875 15.8125 47.375 15.375 C 47.34375 15 47.34375 15 47.375 14.75 Z M 47.375 14.75 "/>
<path style=" stroke:none;fill-rule:nonzero;fill:rgb(26.666668%,66.274512%,85.882354%);fill-opacity:1;" d="M 33.5 3.375 C 33.457031 3.457031 33.417969 3.539062 33.375 3.625 C 32.898438 3.542969 32.457031 3.410156 32 3.25 C 32.519531 2.839844 32.964844 3.132812 33.5 3.375 Z M 33.5 3.375 "/>
<path style=" stroke:none;fill-rule:nonzero;fill:rgb(15.686275%,67.058825%,86.274511%);fill-opacity:1;" d="M 12.75 40.375 C 12.890625 40.796875 12.871094 40.957031 12.75 41.375 C 12.554688 41.664062 12.554688 41.664062 12.375 41.875 C 12.328125 40.953125 12.328125 40.953125 12.5625 40.5625 C 12.625 40.5 12.6875 40.4375 12.75 40.375 Z M 12.75 40.375 "/>
<path style=" stroke:none;fill-rule:nonzero;fill:rgb(8.627451%,64.705884%,87.843138%);fill-opacity:1;" d="M 26.375 30.375 C 26.457031 30.417969 26.539062 30.457031 26.625 30.5 C 26.699219 30.832031 26.71875 31.160156 26.75 31.5 C 26.585938 31.375 26.421875 31.253906 26.25 31.125 C 26.292969 31.082031 26.332031 31.042969 26.375 31 C 26.292969 30.835938 26.210938 30.671875 26.125 30.5 C 26.207031 30.457031 26.289062 30.417969 26.375 30.375 Z M 26.375 30.375 "/>
<path style=" stroke:none;fill-rule:nonzero;fill:rgb(19.215687%,63.921571%,85.09804%);fill-opacity:1;" d="M 12.5 5.125 C 12.542969 5.207031 12.582031 5.289062 12.625 5.375 C 12.789062 5.417969 12.953125 5.457031 13.125 5.5 C 12.628906 5.746094 12.628906 5.746094 12.125 6 C 12.082031 5.875 12.042969 5.753906 12 5.625 C 12.082031 5.582031 12.164062 5.542969 12.25 5.5 C 12.25 5.417969 12.25 5.335938 12.25 5.25 C 12.332031 5.207031 12.414062 5.167969 12.5 5.125 Z M 12.5 5.125 "/>
<path style=" stroke:none;fill-rule:nonzero;fill:rgb(39.607844%,70.980394%,86.274511%);fill-opacity:1;" d="M 30.5 47.375 C 30.417969 47.375 30.335938 47.375 30.25 47.375 C 30.25 47.457031 30.25 47.539062 30.25 47.625 C 29.863281 47.753906 29.683594 47.746094 29.289062 47.695312 C 29.136719 47.675781 29.136719 47.675781 28.984375 47.65625 C 28.90625 47.644531 28.828125 47.636719 28.75 47.625 C 28.75 47.582031 28.75 47.542969 28.75 47.5 C 28.972656 47.453125 29.191406 47.410156 29.414062 47.367188 C 29.539062 47.34375 29.660156 47.316406 29.789062 47.292969 C 30.125 47.25 30.125 47.25 30.5 47.375 Z M 30.5 47.375 "/>
<path style=" stroke:none;fill-rule:nonzero;fill:rgb(34.117648%,69.803923%,86.666667%);fill-opacity:1;" d="M 47.375 29.5 C 47.625 30 47.625 30 47.625 30.375 C 47.546875 30.585938 47.464844 30.792969 47.375 31 C 47.292969 31 47.210938 31 47.125 31 C 47.207031 30.503906 47.289062 30.011719 47.375 29.5 Z M 47.375 29.5 "/>
<path style=" stroke:none;fill-rule:nonzero;fill:rgb(18.431373%,58.431375%,78.823531%);fill-opacity:1;" d="M 5.375 10 C 5.445312 10.257812 5.5 10.480469 5.5 10.75 C 5.417969 10.75 5.335938 10.75 5.25 10.75 C 5.207031 10.832031 5.167969 10.914062 5.125 11 C 5 11 4.878906 11 4.75 11 C 4.921875 10.628906 5.125 10.320312 5.375 10 Z M 5.375 10 "/>
<path style=" stroke:none;fill-rule:nonzero;fill:rgb(13.333334%,65.098041%,86.274511%);fill-opacity:1;" d="M 21.375 26.25 C 21.417969 26.25 21.457031 26.25 21.5 26.25 C 21.550781 26.582031 21.550781 26.800781 21.359375 27.082031 C 21.203125 27.269531 21.039062 27.449219 20.875 27.625 C 20.832031 27.542969 20.792969 27.460938 20.75 27.375 C 20.875 27.105469 20.875 27.105469 21.054688 26.796875 C 21.113281 26.695312 21.171875 26.59375 21.234375 26.488281 C 21.28125 26.410156 21.328125 26.332031 21.375 26.25 Z M 21.375 26.25 "/>
<path style=" stroke:none;fill-rule:nonzero;fill:rgb(0.392157%,61.176473%,86.274511%);fill-opacity:1;" d="M 25.625 12.25 C 25.707031 12.25 25.789062 12.25 25.875 12.25 C 25.875 12.332031 25.875 12.414062 25.875 12.5 C 25.957031 12.542969 26.039062 12.582031 26.125 12.625 C 26.046875 12.660156 25.96875 12.695312 25.890625 12.734375 C 25.609375 12.867188 25.609375 12.867188 25.375 13.125 C 25.359375 12.828125 25.359375 12.828125 25.375 12.5 C 25.457031 12.417969 25.539062 12.335938 25.625 12.25 Z M 25.625 12.25 "/>
<path style=" stroke:none;fill-rule:nonzero;fill:rgb(20%,59.607846%,80.000001%);fill-opacity:1;" d="M 40.25 44.375 C 39.953125 44.691406 39.792969 44.859375 39.375 45 C 39.332031 44.835938 39.292969 44.671875 39.25 44.5 C 39.617188 44.378906 39.871094 44.363281 40.25 44.375 Z M 40.25 44.375 "/>
<path style=" stroke:none;fill-rule:nonzero;fill:rgb(26.666668%,66.274512%,85.490197%);fill-opacity:1;" d="M 47.25 19.5 C 47.414062 19.542969 47.578125 19.582031 47.75 19.625 C 47.792969 19.789062 47.832031 19.953125 47.875 20.125 C 47.628906 20.25 47.628906 20.25 47.375 20.375 C 47.332031 20.085938 47.292969 19.796875 47.25 19.5 Z M 47.25 19.5 "/>
<path style=" stroke:none;fill-rule:nonzero;fill:rgb(25.882354%,69.803923%,88.235295%);fill-opacity:1;" d="M 26.25 10 C 26.375 10.0625 26.375 10.0625 26.5 10.125 C 26.5 10.25 26.5 10.371094 26.5 10.5 C 26.582031 10.5 26.664062 10.5 26.75 10.5 C 26.828125 10.71875 26.828125 10.71875 26.875 11 C 26.792969 11.164062 26.710938 11.328125 26.625 11.5 C 26.5 11.003906 26.378906 10.511719 26.25 10 Z M 26.25 10 "/>
<path style=" stroke:none;fill-rule:nonzero;fill:rgb(18.82353%,58.823532%,76.078433%);fill-opacity:1;" d="M 44.125 9.5 C 44.734375 10.078125 44.734375 10.078125 44.875 10.5 C 44.792969 10.5 44.710938 10.5 44.625 10.5 C 44.542969 10.417969 44.460938 10.335938 44.375 10.25 C 44.292969 10.207031 44.210938 10.167969 44.125 10.125 C 44.125 9.917969 44.125 9.710938 44.125 9.5 Z M 44.125 9.5 "/>
<path style=" stroke:none;fill-rule:nonzero;fill:rgb(25.490198%,65.882355%,86.274511%);fill-opacity:1;" d="M 34 46.125 C 33.957031 46.25 33.917969 46.371094 33.875 46.5 C 33.492188 46.648438 33.492188 46.648438 33.125 46.75 C 33.082031 46.625 33.042969 46.503906 33 46.375 C 33.71875 46.125 33.71875 46.125 34 46.125 Z M 34 46.125 "/>
<path style=" stroke:none;fill-rule:nonzero;fill:rgb(19.607843%,58.431375%,75.686276%);fill-opacity:1;" d="M 40.625 5.875 C 40.914062 6.121094 41.203125 6.371094 41.5 6.625 C 41.375 6.667969 41.253906 6.707031 41.125 6.75 C 40.851562 6.601562 40.851562 6.601562 40.625 6.375 C 40.625 6.210938 40.625 6.046875 40.625 5.875 Z M 40.625 5.875 "/>
<path style=" stroke:none;fill-rule:nonzero;fill:rgb(28.235295%,67.058825%,86.666667%);fill-opacity:1;" d="M 19.625 2.25 C 19.871094 2.332031 20.121094 2.414062 20.375 2.5 C 19.988281 2.71875 19.847656 2.75 19.375 2.75 C 19.457031 2.585938 19.539062 2.421875 19.625 2.25 Z M 19.625 2.25 "/>
<path style=" stroke:none;fill-rule:nonzero;fill:rgb(15.686275%,59.607846%,78.823531%);fill-opacity:1;" d="M 10.375 44.25 C 10.648438 44.289062 10.648438 44.289062 10.875 44.375 C 10.75 44.539062 10.628906 44.703125 10.5 44.875 C 10.335938 44.792969 10.171875 44.710938 10 44.625 C 10.15625 44.429688 10.15625 44.429688 10.375 44.25 Z M 10.375 44.25 "/>
<path style=" stroke:none;fill-rule:nonzero;fill:rgb(20.784314%,67.450982%,86.666667%);fill-opacity:1;" d="M 37.125 34.25 C 37.207031 34.292969 37.289062 34.332031 37.375 34.375 C 37.375 34.457031 37.375 34.539062 37.375 34.625 C 37.539062 34.625 37.703125 34.625 37.875 34.625 C 37.875 34.75 37.875 34.871094 37.875 35 C 37.511719 34.867188 37.277344 34.777344 37 34.5 C 37.042969 34.417969 37.082031 34.335938 37.125 34.25 Z M 37.125 34.25 "/>
<path style=" stroke:none;fill-rule:nonzero;fill:rgb(14.117648%,66.274512%,88.235295%);fill-opacity:1;" d="M 21.875 6.75 C 21.957031 6.914062 22.039062 7.078125 22.125 7.25 C 22 7.332031 21.878906 7.414062 21.75 7.5 C 21.707031 7.375 21.667969 7.253906 21.625 7.125 C 21.542969 7.082031 21.460938 7.042969 21.375 7 C 21.539062 6.917969 21.703125 6.835938 21.875 6.75 Z M 21.875 6.75 "/>
</g>
</svg>
