<?xml version="1.0" encoding="UTF-8"?>
<svg xmlns="http://www.w3.org/2000/svg" xmlns:xlink="http://www.w3.org/1999/xlink" width="50px" height="50px" viewBox="0 0 50 50" version="1.1">
<defs>
<clipPath id="clip1">
  <path d="M 12 4 L 38 4 L 38 48 L 12 48 Z M 12 4 "/>
</clipPath>
<clipPath id="clip2">
  <path d="M 48.011719 25.335938 C 48.011719 37.703125 37.570312 47.726562 24.6875 47.726562 C 11.804688 47.726562 1.359375 37.703125 1.359375 25.335938 C 1.359375 12.96875 11.804688 2.941406 24.6875 2.941406 C 37.570312 2.941406 48.011719 12.96875 48.011719 25.335938 Z M 48.011719 25.335938 "/>
</clipPath>
</defs>
<g id="surface1">
<g clip-path="url(#clip1)" clip-rule="nonzero">
<g clip-path="url(#clip2)" clip-rule="nonzero">
<path style=" stroke:none;fill-rule:evenodd;fill:rgb(96.862745%,31.37255%,36.862746%);fill-opacity:1;" d="M 25.570312 17.402344 L 25.570312 13.292969 L 24.679688 13.292969 L 24.679688 17.402344 Z M 23.566406 17.402344 L 23.566406 13.292969 L 22.675781 13.292969 L 22.675781 17.402344 Z M 26.6875 17.402344 L 27.578125 17.402344 L 27.578125 13.292969 L 26.6875 13.292969 Z M 26.6875 10.128906 C 26.492188 9.339844 25.800781 8.753906 24.960938 8.667969 C 24.140625 8.777344 23.476562 9.359375 23.289062 10.128906 C 23.007812 10.914062 22.804688 11.71875 22.675781 12.539062 L 27.578125 12.539062 C 27.414062 11.695312 27.113281 10.882812 26.6875 10.128906 Z M 23.289062 6.257812 C 23.359375 6.265625 23.429688 6.242188 23.484375 6.199219 C 23.535156 6.152344 23.566406 6.089844 23.566406 6.023438 C 23.847656 5.785156 24.402344 6.257812 24.402344 6.496094 C 24.679688 6.730469 24.679688 6.730469 24.679688 7.25 L 24.679688 7.957031 L 25.292969 7.957031 L 25.292969 7.25 C 25.292969 6.730469 25.292969 6.730469 25.570312 6.496094 C 25.851562 6.257812 26.128906 5.785156 26.40625 6.023438 C 26.476562 6.015625 26.546875 6.035156 26.601562 6.082031 C 26.652344 6.125 26.683594 6.191406 26.6875 6.257812 C 26.964844 6.496094 26.964844 6.257812 27.242188 6.023438 C 27.242188 6.023438 26.964844 6.023438 26.964844 5.785156 C 26.632812 5.550781 26.179688 5.550781 25.851562 5.785156 C 25.570312 5.785156 25.292969 6.257812 25.292969 6.257812 L 25.292969 5.03125 C 25.230469 4.777344 25.117188 4.535156 24.960938 4.324219 L 24.960938 5.03125 C 24.898438 5.445312 24.804688 5.855469 24.679688 6.257812 C 24.679688 6.257812 24.402344 5.785156 24.125 5.785156 C 23.847656 5.550781 23.566406 5.550781 23.011719 5.785156 L 23.011719 6.023438 C 23.011719 6.257812 23.011719 6.496094 23.289062 6.257812 Z M 34.144531 28.074219 C 32.023438 25.21875 28.613281 23.5 24.960938 23.445312 C 21.386719 23.667969 18.117188 25.460938 16.109375 28.308594 C 15.140625 30.28125 14.574219 32.414062 14.4375 34.589844 L 35.816406 34.589844 C 35.816406 32.320312 35.242188 30.082031 34.144531 28.074219 Z M 29.246094 20.328125 C 28.949219 20.332031 28.660156 20.25 28.410156 20.09375 C 27.242188 19.101562 27.578125 18.394531 27.578125 18.394531 L 22.675781 18.394531 C 22.675781 18.394531 22.675781 19.101562 21.5625 20.09375 C 21.410156 20.230469 21.214844 20.3125 21.007812 20.328125 L 21.007812 20.566406 L 29.246094 20.566406 Z M 36.429688 35.578125 L 13.269531 35.578125 L 13.269531 37.753906 L 36.429688 37.753906 Z M 16.109375 37.277344 C 15.550781 37.277344 15.273438 37.042969 15.273438 36.808594 C 14.996094 36.289062 15.273438 36.050781 15.828125 36.050781 C 16.015625 35.945312 16.25 35.949219 16.433594 36.058594 C 16.621094 36.164062 16.730469 36.363281 16.71875 36.570312 C 16.71875 36.808594 16.386719 37.277344 16.109375 37.277344 Z M 18.722656 37.277344 C 18.113281 37.277344 17.832031 37.042969 17.832031 36.808594 C 17.554688 36.289062 17.832031 36.050781 18.390625 36.050781 C 18.578125 35.941406 18.8125 35.941406 19 36.050781 C 19.1875 36.160156 19.296875 36.359375 19.28125 36.570312 C 19.28125 36.808594 19.003906 37.277344 18.722656 37.277344 Z M 21.285156 37.277344 C 21.007812 37.277344 20.394531 37.042969 20.394531 36.808594 C 20.117188 36.289062 20.394531 36.050781 21.007812 36.050781 C 21.285156 35.816406 21.84375 36.050781 21.84375 36.570312 C 21.84375 36.808594 21.84375 37.277344 21.285156 37.277344 Z M 23.847656 37.277344 C 23.289062 37.277344 23.011719 37.042969 23.011719 36.808594 C 23.011719 36.289062 23.011719 36.050781 23.566406 36.050781 C 23.847656 35.816406 24.402344 36.050781 24.402344 36.570312 C 24.402344 36.808594 24.402344 37.277344 23.847656 37.277344 Z M 26.40625 37.277344 C 26.128906 37.277344 25.570312 37.042969 25.570312 36.808594 C 25.292969 36.289062 25.851562 36.050781 26.128906 36.050781 C 26.6875 35.816406 26.964844 36.050781 26.964844 36.570312 C 27.242188 36.808594 26.964844 37.277344 26.40625 37.277344 Z M 28.96875 37.277344 C 28.691406 37.277344 28.132812 37.042969 28.132812 36.808594 C 28.132812 36.289062 28.410156 36.050781 28.691406 36.050781 C 29.246094 35.816406 29.582031 36.050781 29.582031 36.570312 C 29.859375 36.808594 29.582031 37.277344 28.96875 37.277344 Z M 31.527344 37.277344 C 31.25 37.277344 30.695312 37.042969 30.695312 36.808594 C 30.695312 36.289062 30.972656 36.050781 31.25 36.050781 C 31.863281 35.816406 32.140625 36.050781 32.421875 36.570312 C 32.359375 36.992188 31.972656 37.300781 31.527344 37.277344 Z M 34.144531 37.277344 C 33.867188 37.277344 33.253906 37.042969 33.253906 36.808594 C 33.253906 36.289062 33.535156 36.050781 33.867188 36.050781 C 34.425781 35.816406 34.703125 36.050781 34.980469 36.570312 C 34.933594 36.976562 34.574219 37.28125 34.144531 37.277344 Z M 12.433594 38.507812 L 12.433594 38.742188 C 12.941406 38.996094 13.410156 39.3125 13.824219 39.6875 C 14.199219 40.183594 14.414062 40.773438 14.4375 41.386719 L 14.4375 47.949219 L 35.257812 47.949219 L 35.257812 41.386719 C 35.277344 40.78125 35.472656 40.195312 35.816406 39.6875 C 36.328125 39.273438 36.910156 38.953125 37.542969 38.742188 L 37.542969 38.507812 Z M 16.71875 46.722656 L 15.550781 46.722656 L 15.550781 40.441406 L 16.71875 40.441406 Z M 19.003906 46.722656 L 17.832031 46.722656 L 17.832031 40.441406 L 19.003906 40.441406 Z M 21.84375 46.722656 L 20.671875 46.722656 L 20.671875 40.441406 L 21.84375 40.441406 Z M 24.402344 46.722656 L 23.011719 46.722656 L 23.011719 40.441406 L 24.402344 40.441406 Z M 26.964844 46.722656 L 25.851562 46.722656 L 25.851562 40.441406 L 26.964844 40.441406 Z M 29.582031 46.722656 L 28.410156 46.722656 L 28.410156 40.441406 L 29.582031 40.441406 Z M 32.140625 46.722656 L 30.972656 46.722656 L 30.972656 40.441406 L 32.140625 40.441406 Z M 34.425781 46.722656 L 33.535156 46.722656 L 33.535156 40.441406 L 34.425781 40.441406 Z M 21.5625 22.027344 C 21.730469 22.316406 21.828125 22.640625 21.84375 22.972656 L 28.410156 22.972656 C 28.25 22.675781 28.25 22.324219 28.410156 22.027344 C 28.648438 21.84375 28.941406 21.746094 29.246094 21.746094 L 29.246094 21.507812 L 21.007812 21.507812 L 21.007812 21.746094 C 21.222656 21.765625 21.421875 21.867188 21.5625 22.027344 Z M 21.5625 22.027344 "/>
</g>
</g>
<path style="fill:none;stroke-width:1.5;stroke-linecap:butt;stroke-linejoin:miter;stroke:rgb(96.862745%,31.37255%,36.862746%);stroke-opacity:1;stroke-miterlimit:10;" d="M 23.113125 12.443359 C 23.113125 18.574219 18.1425 23.544922 12.013125 23.544922 C 5.881875 23.544922 0.913125 18.574219 0.913125 12.443359 C 0.913125 6.314453 5.881875 1.34375 12.013125 1.34375 C 18.1425 1.34375 23.113125 6.314453 23.113125 12.443359 Z M 23.113125 12.443359 " transform="matrix(2.083333,0,0,2,0,0)"/>
</g>
</svg>
