<?xml version="1.0" encoding="UTF-8"?>
<svg xmlns="http://www.w3.org/2000/svg" xmlns:xlink="http://www.w3.org/1999/xlink" width="50px" height="50px" viewBox="0 0 50 50" version="1.1">
<g id="surface1">
<path style=" stroke:none;fill-rule:nonzero;fill:rgb(99.607843%,99.215686%,99.215686%);fill-opacity:1;" d="M 30.5 0.875 C 30.613281 0.902344 30.730469 0.929688 30.847656 0.960938 C 37.332031 2.597656 42.863281 6.664062 46.308594 12.402344 C 47.675781 14.742188 48.71875 17.335938 49.25 20 C 49.300781 20.234375 49.300781 20.234375 49.355469 20.46875 C 49.988281 23.648438 49.898438 27.359375 49.125 30.5 C 49.097656 30.613281 49.070312 30.730469 49.039062 30.847656 C 47.40625 37.304688 43.371094 42.769531 37.699219 46.257812 C 35.347656 47.660156 32.6875 48.710938 30 49.25 C 29.765625 49.300781 29.765625 49.300781 29.53125 49.355469 C 26.351562 49.988281 22.640625 49.898438 19.5 49.125 C 19.386719 49.097656 19.269531 49.070312 19.152344 49.039062 C 12.667969 47.402344 7.136719 43.335938 3.691406 37.597656 C 2.324219 35.257812 1.28125 32.664062 0.75 30 C 0.714844 29.84375 0.679688 29.691406 0.644531 29.53125 C 0.0117188 26.351562 0.101562 22.640625 0.875 19.5 C 0.902344 19.386719 0.929688 19.269531 0.960938 19.152344 C 2.597656 12.675781 6.667969 7.136719 12.402344 3.691406 C 14.742188 2.324219 17.335938 1.28125 20 0.75 C 20.234375 0.699219 20.234375 0.699219 20.46875 0.644531 C 23.648438 0.0117188 27.359375 0.101562 30.5 0.875 Z M 30.5 0.875 "/>
<path style=" stroke:none;fill-rule:nonzero;fill:rgb(95.294118%,32.156864%,37.64706%);fill-opacity:1;" d="M 30.5 0.875 C 30.613281 0.902344 30.730469 0.929688 30.847656 0.960938 C 37.332031 2.597656 42.863281 6.664062 46.308594 12.402344 C 47.675781 14.742188 48.71875 17.335938 49.25 20 C 49.300781 20.234375 49.300781 20.234375 49.355469 20.46875 C 49.988281 23.648438 49.898438 27.359375 49.125 30.5 C 49.097656 30.613281 49.070312 30.730469 49.039062 30.847656 C 47.40625 37.304688 43.371094 42.769531 37.699219 46.257812 C 35.347656 47.660156 32.6875 48.710938 30 49.25 C 29.765625 49.300781 29.765625 49.300781 29.53125 49.355469 C 26.351562 49.988281 22.640625 49.898438 19.5 49.125 C 19.386719 49.097656 19.269531 49.070312 19.152344 49.039062 C 12.667969 47.402344 7.136719 43.335938 3.691406 37.597656 C 2.324219 35.257812 1.28125 32.664062 0.75 30 C 0.714844 29.84375 0.679688 29.691406 0.644531 29.53125 C 0.0117188 26.351562 0.101562 22.640625 0.875 19.5 C 0.902344 19.386719 0.929688 19.269531 0.960938 19.152344 C 2.597656 12.675781 6.667969 7.136719 12.402344 3.691406 C 14.742188 2.324219 17.335938 1.28125 20 0.75 C 20.234375 0.699219 20.234375 0.699219 20.46875 0.644531 C 23.648438 0.0117188 27.359375 0.101562 30.5 0.875 Z M 21.25 2.375 C 20.964844 2.429688 20.675781 2.484375 20.390625 2.539062 C 18.988281 2.816406 17.539062 3.125 16.25 3.753906 C 15.96875 3.890625 15.683594 4 15.390625 4.109375 C 11.09375 5.8125 7.21875 9.617188 5 13.625 C 4.960938 13.695312 4.921875 13.765625 4.878906 13.835938 C 4.363281 14.746094 3.910156 15.632812 3.609375 16.640625 C 3.523438 16.917969 3.425781 17.195312 3.320312 17.464844 C 3.097656 18.046875 2.949219 18.640625 2.796875 19.242188 C 2.742188 19.453125 2.691406 19.667969 2.636719 19.878906 C 2.613281 19.972656 2.589844 20.0625 2.566406 20.160156 C 2.5 20.375 2.5 20.375 2.375 20.5 C 2.074219 21.863281 2.085938 23.246094 2.09375 24.636719 C 2.09375 25 2.09375 25.363281 2.089844 25.726562 C 2.089844 27.277344 2.089844 28.832031 2.636719 30.304688 C 2.757812 30.648438 2.855469 30.996094 2.953125 31.347656 C 4.539062 36.964844 8.21875 41.667969 13.164062 44.734375 C 13.257812 44.792969 13.355469 44.855469 13.453125 44.914062 C 13.957031 45.222656 14.425781 45.464844 15 45.625 C 15.261719 45.363281 15.152344 44.792969 15.15625 44.429688 C 15.15625 44.265625 15.15625 44.265625 15.15625 44.101562 C 15.160156 43.871094 15.160156 43.640625 15.160156 43.410156 C 15.164062 43.058594 15.167969 42.710938 15.175781 42.359375 C 15.175781 42.136719 15.175781 41.910156 15.179688 41.6875 C 15.179688 41.53125 15.179688 41.53125 15.183594 41.371094 C 15.183594 40.609375 15.050781 40.140625 14.625 39.5 C 14.210938 39.171875 13.800781 38.839844 13.375 38.5 C 20.964844 38.5 28.554688 38.5 36.375 38.5 C 35.960938 38.746094 35.550781 38.996094 35.125 39.25 C 34.625 39.75 34.480469 40.410156 34.457031 41.09375 C 34.457031 41.3125 34.460938 41.527344 34.464844 41.746094 C 34.464844 41.859375 34.464844 41.976562 34.464844 42.09375 C 34.46875 42.460938 34.472656 42.824219 34.476562 43.1875 C 34.476562 43.4375 34.480469 43.683594 34.480469 43.933594 C 34.484375 44.539062 34.492188 45.144531 34.5 45.75 C 38.058594 45.113281 41.742188 41.117188 43.75 38.296875 C 45.558594 35.691406 46.695312 32.996094 47.421875 29.910156 C 47.5 29.625 47.5 29.625 47.625 29.5 C 47.652344 29.25 47.671875 29 47.6875 28.75 C 47.734375 28.015625 47.734375 28.015625 47.875 27.875 C 47.886719 27.699219 47.890625 27.523438 47.894531 27.347656 C 47.894531 27.234375 47.894531 27.121094 47.894531 27.007812 C 47.894531 26.882812 47.894531 26.761719 47.894531 26.636719 C 47.894531 26.511719 47.898438 26.386719 47.898438 26.253906 C 47.898438 25.988281 47.898438 25.722656 47.898438 25.457031 C 47.898438 25.050781 47.902344 24.644531 47.902344 24.238281 C 47.902344 23.980469 47.902344 23.722656 47.902344 23.464844 C 47.90625 23.28125 47.90625 23.28125 47.90625 23.097656 C 47.902344 22.429688 47.839844 21.882812 47.625 21.25 C 47.566406 20.964844 47.511719 20.683594 47.460938 20.398438 C 47.191406 18.996094 46.875 17.539062 46.246094 16.25 C 46.109375 15.96875 46 15.683594 45.890625 15.390625 C 45.511719 14.433594 45.023438 13.535156 44.402344 12.714844 C 44.25 12.5 44.25 12.5 44.023438 12.085938 C 43.761719 11.625 43.449219 11.234375 43.101562 10.835938 C 43.039062 10.765625 42.980469 10.695312 42.917969 10.621094 C 42.792969 10.480469 42.671875 10.339844 42.546875 10.199219 C 42.394531 10.023438 42.246094 9.847656 42.097656 9.675781 C 40.636719 8 38.996094 6.6875 37.125 5.5 C 37.023438 5.433594 36.921875 5.367188 36.816406 5.300781 C 35.144531 4.234375 33.425781 3.5625 31.527344 2.996094 C 31.257812 2.914062 30.988281 2.832031 30.722656 2.742188 C 28.921875 2.152344 27.199219 2.085938 25.324219 2.09375 C 24.953125 2.09375 24.578125 2.09375 24.207031 2.089844 C 23.96875 2.089844 23.730469 2.089844 23.488281 2.089844 C 23.378906 2.089844 23.269531 2.089844 23.15625 2.089844 C 22.480469 2.09375 21.902344 2.1875 21.25 2.375 Z M 21.25 2.375 "/>
<path style=" stroke:none;fill-rule:nonzero;fill:rgb(92.941177%,32.156864%,37.254903%);fill-opacity:1;" d="M 30.5 0.875 C 30.613281 0.902344 30.730469 0.929688 30.847656 0.960938 C 37.332031 2.597656 42.863281 6.664062 46.308594 12.402344 C 47.675781 14.742188 48.71875 17.335938 49.25 20 C 49.300781 20.234375 49.300781 20.234375 49.355469 20.46875 C 49.988281 23.648438 49.898438 27.359375 49.125 30.5 C 49.097656 30.613281 49.070312 30.730469 49.039062 30.847656 C 47.742188 35.976562 44.707031 41.449219 40.25 44.5 C 40.167969 44.5 40.085938 44.5 40 44.5 C 39.957031 44.375 39.917969 44.253906 39.875 44.125 C 40 43.917969 40.125 43.707031 40.25 43.5 C 40.207031 43.375 40.167969 43.253906 40.125 43.125 C 40.25 42.496094 40.40625 42.175781 40.875 41.75 C 40.929688 41.65625 40.984375 41.5625 41.039062 41.464844 C 41.277344 41.082031 41.546875 40.796875 41.859375 40.476562 C 44.664062 37.480469 46.363281 33.878906 47.296875 29.910156 C 47.375 29.625 47.375 29.625 47.5 29.5 C 47.527344 29.25 47.546875 29 47.5625 28.75 C 47.609375 28.015625 47.609375 28.015625 47.75 27.875 C 47.761719 27.699219 47.765625 27.523438 47.769531 27.347656 C 47.769531 27.234375 47.769531 27.121094 47.769531 27.007812 C 47.769531 26.882812 47.769531 26.761719 47.769531 26.636719 C 47.769531 26.511719 47.773438 26.386719 47.773438 26.253906 C 47.773438 25.988281 47.773438 25.722656 47.773438 25.457031 C 47.773438 25.050781 47.777344 24.644531 47.777344 24.238281 C 47.777344 23.980469 47.777344 23.722656 47.777344 23.464844 C 47.78125 23.28125 47.78125 23.28125 47.78125 23.097656 C 47.777344 22.429688 47.714844 21.882812 47.5 21.25 C 47.441406 20.964844 47.386719 20.683594 47.335938 20.398438 C 47.066406 18.996094 46.75 17.539062 46.121094 16.25 C 45.984375 15.96875 45.875 15.683594 45.765625 15.390625 C 45.386719 14.433594 44.898438 13.535156 44.277344 12.714844 C 44.125 12.5 44.125 12.5 43.898438 12.085938 C 43.636719 11.625 43.324219 11.234375 42.976562 10.835938 C 42.886719 10.730469 42.886719 10.730469 42.792969 10.625 C 42.671875 10.480469 42.546875 10.339844 42.421875 10.199219 C 42.269531 10.023438 42.117188 9.847656 41.96875 9.667969 C 40.542969 8.035156 38.949219 6.785156 37.125 5.625 C 36.972656 5.527344 36.972656 5.527344 36.816406 5.425781 C 35.144531 4.359375 33.425781 3.6875 31.527344 3.121094 C 31.257812 3.039062 30.988281 2.957031 30.722656 2.867188 C 28.921875 2.277344 27.199219 2.210938 25.324219 2.21875 C 24.953125 2.21875 24.578125 2.21875 24.207031 2.214844 C 23.96875 2.214844 23.730469 2.214844 23.488281 2.214844 C 23.378906 2.214844 23.269531 2.214844 23.15625 2.214844 C 22.480469 2.21875 21.902344 2.3125 21.25 2.5 C 20.964844 2.554688 20.675781 2.609375 20.390625 2.664062 C 18.988281 2.941406 17.539062 3.25 16.25 3.878906 C 15.96875 4.015625 15.683594 4.125 15.390625 4.234375 C 11.128906 5.921875 7.320312 9.660156 5.125 13.625 C 5.085938 13.695312 5.046875 13.765625 5.003906 13.835938 C 4.488281 14.746094 4.035156 15.632812 3.734375 16.640625 C 3.648438 16.917969 3.550781 17.195312 3.445312 17.464844 C 3.222656 18.046875 3.074219 18.640625 2.921875 19.242188 C 2.867188 19.453125 2.816406 19.667969 2.761719 19.878906 C 2.738281 19.972656 2.714844 20.0625 2.691406 20.160156 C 2.625 20.375 2.625 20.375 2.5 20.5 C 2.199219 21.863281 2.210938 23.246094 2.21875 24.636719 C 2.21875 25 2.21875 25.363281 2.214844 25.726562 C 2.214844 27.277344 2.214844 28.832031 2.761719 30.304688 C 2.882812 30.648438 2.980469 30.996094 3.078125 31.347656 C 4.535156 36.507812 7.929688 41.492188 12.625 44.25 C 12.582031 44.332031 12.542969 44.414062 12.5 44.5 C 12.417969 44.5 12.335938 44.5 12.25 44.5 C 12.25 44.582031 12.25 44.664062 12.25 44.75 C 12.167969 44.75 12.085938 44.75 12 44.75 C 11.957031 44.914062 11.917969 45.078125 11.875 45.25 C 11.75 45.25 11.628906 45.25 11.5 45.25 C 11.457031 45.332031 11.417969 45.414062 11.375 45.5 C 10.828125 45.316406 10.40625 45.019531 9.960938 44.664062 C 9.886719 44.605469 9.8125 44.546875 9.734375 44.484375 C 5.195312 40.820312 1.902344 35.757812 0.75 30 C 0.714844 29.84375 0.679688 29.691406 0.644531 29.53125 C 0.0117188 26.351562 0.101562 22.640625 0.875 19.5 C 0.902344 19.386719 0.929688 19.269531 0.960938 19.152344 C 2.597656 12.675781 6.667969 7.136719 12.402344 3.691406 C 14.742188 2.324219 17.335938 1.28125 20 0.75 C 20.234375 0.699219 20.234375 0.699219 20.46875 0.644531 C 23.648438 0.0117188 27.359375 0.101562 30.5 0.875 Z M 30.5 0.875 "/>
<path style=" stroke:none;fill-rule:nonzero;fill:rgb(96.470588%,31.764707%,37.254903%);fill-opacity:1;" d="M 26.25 23.625 C 26.3125 23.6875 26.3125 23.6875 26.375 23.75 C 26.609375 23.777344 26.839844 23.804688 27.074219 23.828125 C 27.855469 23.949219 28.53125 24.234375 29.226562 24.585938 C 29.359375 24.652344 29.359375 24.652344 29.492188 24.722656 C 31.777344 25.902344 33.390625 27.449219 34.25 29.875 C 34.320312 30.042969 34.390625 30.207031 34.460938 30.375 C 34.679688 30.953125 34.742188 31.558594 34.820312 32.167969 C 34.839844 32.488281 34.839844 32.488281 35 32.625 C 35 33.203125 35 33.78125 35 34.375 C 28.441406 34.375 21.882812 34.375 15.125 34.375 C 15.414062 31.339844 15.414062 31.339844 15.726562 30.476562 C 15.761719 30.378906 15.792969 30.28125 15.828125 30.179688 C 16.296875 28.839844 16.878906 27.898438 17.875 26.875 C 17.953125 26.789062 18.027344 26.703125 18.109375 26.613281 C 20.195312 24.351562 23.253906 23.453125 26.25 23.625 Z M 26.25 23.625 "/>
<path style=" stroke:none;fill-rule:nonzero;fill:rgb(95.686275%,54.901963%,58.431375%);fill-opacity:1;" d="M 14 35.5 C 21.136719 35.5 28.273438 35.5 35.625 35.5 C 35.625 36.160156 35.625 36.820312 35.625 37.5 C 28.488281 37.5 21.351562 37.5 14 37.5 C 14 36.839844 14 36.179688 14 35.5 Z M 14 35.5 "/>
<path style=" stroke:none;fill-rule:nonzero;fill:rgb(96.862745%,38.431373%,43.137255%);fill-opacity:1;" d="M 23.734375 40.09375 C 23.84375 40.089844 23.957031 40.085938 24.070312 40.085938 C 24.375 40.125 24.375 40.125 24.601562 40.296875 C 24.75 40.5 24.75 40.5 24.75 40.75 C 24.875 40.75 24.996094 40.75 25.125 40.75 C 25.125 40.542969 25.125 40.335938 25.125 40.125 C 25.203125 40.148438 25.285156 40.171875 25.367188 40.195312 C 25.496094 40.222656 25.496094 40.222656 25.625 40.25 C 25.667969 40.207031 25.707031 40.167969 25.75 40.125 C 25.976562 40.109375 25.976562 40.109375 26.25 40.109375 C 26.339844 40.109375 26.429688 40.109375 26.523438 40.109375 C 26.75 40.125 26.75 40.125 26.875 40.25 C 26.886719 40.441406 26.890625 40.632812 26.890625 40.828125 C 26.890625 40.949219 26.890625 41.070312 26.890625 41.199219 C 26.886719 41.332031 26.886719 41.464844 26.886719 41.601562 C 26.886719 41.738281 26.886719 41.875 26.886719 42.011719 C 26.886719 42.449219 26.882812 42.882812 26.882812 43.320312 C 26.882812 43.613281 26.882812 43.910156 26.882812 44.203125 C 26.878906 44.925781 26.878906 45.652344 26.875 46.375 C 26.652344 46.378906 26.425781 46.378906 26.203125 46.382812 C 26.078125 46.382812 25.953125 46.386719 25.824219 46.386719 C 25.5 46.375 25.5 46.375 25.25 46.25 C 25.25 46.332031 25.25 46.414062 25.25 46.5 C 24.898438 46.503906 24.546875 46.503906 24.195312 46.507812 C 24.09375 46.507812 23.996094 46.511719 23.890625 46.511719 C 23.636719 46.511719 23.378906 46.507812 23.125 46.5 C 22.921875 46.296875 22.984375 46.078125 22.984375 45.800781 C 22.984375 45.679688 22.984375 45.554688 22.984375 45.429688 C 22.984375 45.296875 22.984375 45.164062 22.984375 45.027344 C 22.984375 44.890625 22.984375 44.757812 22.984375 44.617188 C 22.984375 44.328125 22.984375 44.042969 22.984375 43.753906 C 22.984375 43.3125 22.984375 42.875 22.984375 42.433594 C 22.984375 42.152344 22.984375 41.875 22.984375 41.597656 C 22.984375 41.464844 22.984375 41.332031 22.984375 41.195312 C 22.984375 41.074219 22.984375 40.949219 22.984375 40.824219 C 22.984375 40.714844 22.984375 40.609375 22.984375 40.496094 C 23.015625 40.011719 23.316406 40.101562 23.734375 40.09375 Z M 23.734375 40.09375 "/>
<path style=" stroke:none;fill-rule:nonzero;fill:rgb(95.294118%,32.941177%,38.039216%);fill-opacity:1;" d="M 14 35.5 C 21.09375 35.5 28.191406 35.5 35.5 35.5 C 35.5 36.117188 35.5 36.738281 35.5 37.375 C 34.757812 37.375 34.015625 37.375 33.25 37.375 C 33.25 37.332031 33.25 37.292969 33.25 37.25 C 33.367188 37.238281 33.488281 37.222656 33.609375 37.210938 C 34.035156 37.164062 34.035156 37.164062 34.25 36.75 C 34.292969 36.433594 34.292969 36.433594 34.25 36.125 C 34.027344 35.84375 34.027344 35.84375 33.734375 35.875 C 33.632812 35.886719 33.53125 35.898438 33.429688 35.914062 C 33.277344 35.933594 33.277344 35.933594 33.125 35.953125 C 32.875 35.976562 32.875 35.976562 32.75 36.125 C 32.707031 36.425781 32.707031 36.425781 32.75 36.75 C 32.929688 36.960938 32.929688 36.960938 33.125 37.125 C 33.125 37.207031 33.125 37.289062 33.125 37.375 C 32.589844 37.375 32.050781 37.375 31.5 37.375 C 31.582031 37.25 31.664062 37.128906 31.75 37 C 31.792969 36.558594 31.792969 36.558594 31.75 36.125 C 31.507812 35.832031 31.507812 35.832031 31.078125 35.828125 C 30.617188 35.832031 30.617188 35.832031 30.320312 36.125 C 30.253906 36.207031 30.191406 36.289062 30.125 36.375 C 30 36.332031 29.878906 36.292969 29.75 36.25 C 29.625 36.292969 29.503906 36.332031 29.375 36.375 C 29.375 36.25 29.375 36.128906 29.375 36 C 29 35.8125 28.664062 35.851562 28.25 35.875 C 28.167969 35.957031 28.085938 36.039062 28 36.125 C 28.003906 36.265625 28.011719 36.410156 28.015625 36.554688 C 28 37 28 37 27.808594 37.214844 C 27.382812 37.4375 27.054688 37.417969 26.578125 37.410156 C 26.488281 37.410156 26.398438 37.410156 26.308594 37.410156 C 26.027344 37.40625 25.75 37.402344 25.46875 37.398438 C 25.277344 37.398438 25.089844 37.394531 24.898438 37.394531 C 24.429688 37.390625 23.964844 37.382812 23.5 37.375 C 23.5 37.332031 23.5 37.292969 23.5 37.25 C 23.871094 37.1875 23.871094 37.1875 24.25 37.125 C 24.296875 36.917969 24.339844 36.714844 24.382812 36.507812 C 24.40625 36.394531 24.433594 36.277344 24.457031 36.160156 C 24.472656 36.066406 24.484375 35.972656 24.5 35.875 C 24.203125 35.578125 23.453125 35.726562 23.054688 35.726562 C 22.933594 35.726562 22.808594 35.722656 22.683594 35.722656 C 21.953125 35.71875 21.324219 35.789062 20.625 36 C 20.496094 36.386719 20.496094 36.386719 20.632812 36.765625 C 20.9375 37.058594 21.21875 37.140625 21.625 37.25 C 21.625 37.292969 21.625 37.332031 21.625 37.375 C 20.59375 37.375 19.5625 37.375 18.5 37.375 C 18.5 37.332031 18.5 37.292969 18.5 37.25 C 18.617188 37.214844 18.738281 37.179688 18.859375 37.140625 C 19.257812 37.027344 19.257812 37.027344 19.5 36.75 C 19.550781 36.375 19.550781 36.375 19.5 36 C 19.058594 35.707031 18.847656 35.710938 18.324219 35.699219 C 18.167969 35.695312 18.007812 35.6875 17.847656 35.683594 C 17.683594 35.679688 17.519531 35.675781 17.351562 35.671875 C 17.183594 35.667969 17.019531 35.664062 16.851562 35.65625 C 16.441406 35.644531 16.035156 35.632812 15.625 35.625 C 15.640625 35.785156 15.65625 35.941406 15.671875 36.105469 C 15.6875 36.242188 15.6875 36.242188 15.699219 36.378906 C 15.773438 36.75 15.953125 36.902344 16.25 37.125 C 16.414062 37.207031 16.578125 37.289062 16.75 37.375 C 15.84375 37.375 14.933594 37.375 14 37.375 C 14 36.757812 14 36.136719 14 35.5 Z M 14 35.5 "/>
<path style=" stroke:none;fill-rule:nonzero;fill:rgb(96.862745%,35.294119%,40.392157%);fill-opacity:1;" d="M 25.5 9.25 C 26.042969 9.613281 26.3125 10.019531 26.585938 10.601562 C 26.695312 10.824219 26.695312 10.824219 26.804688 11.050781 C 27.074219 11.667969 27.25 12.199219 27.25 12.875 C 25.804688 12.875 24.363281 12.875 22.875 12.875 C 23.132812 10.289062 23.132812 10.289062 24 9.5 C 24.542969 9.144531 24.878906 9.050781 25.5 9.25 Z M 25.5 9.25 "/>
<path style=" stroke:none;fill-rule:nonzero;fill:rgb(96.470588%,34.117648%,39.215687%);fill-opacity:1;" d="M 22.75 18.625 C 24.277344 18.625 25.800781 18.625 27.375 18.625 C 27.457031 18.996094 27.539062 19.367188 27.625 19.75 C 27.816406 20.265625 27.816406 20.265625 28.203125 20.40625 C 28.300781 20.4375 28.398438 20.46875 28.5 20.5 C 28.5 20.542969 28.5 20.582031 28.5 20.625 C 26.191406 20.625 23.878906 20.625 21.5 20.625 C 21.746094 20.335938 21.996094 20.046875 22.25 19.75 C 22.414062 19.378906 22.578125 19.007812 22.75 18.625 Z M 22.75 18.625 "/>
<path style=" stroke:none;fill-rule:nonzero;fill:rgb(99.215686%,98.431373%,98.431373%);fill-opacity:1;" d="M 23.125 40.125 C 23.539062 40.125 23.949219 40.125 24.375 40.125 C 24.375 42.1875 24.375 44.25 24.375 46.375 C 23.921875 46.375 23.46875 46.375 23 46.375 C 22.996094 45.503906 22.996094 44.636719 22.992188 43.765625 C 22.992188 43.46875 22.992188 43.171875 22.992188 42.875 C 22.988281 42.453125 22.988281 42.027344 22.988281 41.601562 C 22.988281 41.46875 22.988281 41.335938 22.984375 41.199219 C 22.984375 41.074219 22.984375 40.953125 22.984375 40.828125 C 22.984375 40.71875 22.984375 40.609375 22.984375 40.496094 C 23 40.25 23 40.25 23.125 40.125 Z M 23.125 40.125 "/>
<path style=" stroke:none;fill-rule:nonzero;fill:rgb(95.686275%,32.549021%,37.64706%);fill-opacity:1;" d="M 21.375 21.75 C 23.808594 21.75 26.242188 21.75 28.75 21.75 C 28.375 22 28.375 22 28.125 22 C 28.082031 22.328125 28.042969 22.660156 28 23 C 26.0625 23 24.121094 23 22.125 23 C 22.042969 22.710938 21.960938 22.421875 21.875 22.125 C 21.625 21.9375 21.625 21.9375 21.375 21.875 C 21.375 21.832031 21.375 21.792969 21.375 21.75 Z M 21.375 21.75 "/>
<path style=" stroke:none;fill-rule:nonzero;fill:rgb(99.607843%,96.862745%,97.254902%);fill-opacity:1;" d="M 30.5 40.125 C 30.871094 40.125 31.242188 40.125 31.625 40.125 C 31.75 40.25 31.75 40.25 31.765625 40.496094 C 31.765625 40.660156 31.765625 40.660156 31.765625 40.828125 C 31.765625 40.949219 31.765625 41.070312 31.765625 41.199219 C 31.761719 41.332031 31.761719 41.464844 31.761719 41.601562 C 31.761719 41.738281 31.761719 41.875 31.761719 42.011719 C 31.761719 42.449219 31.757812 42.882812 31.757812 43.320312 C 31.757812 43.613281 31.757812 43.910156 31.757812 44.203125 C 31.753906 44.925781 31.753906 45.652344 31.75 46.375 C 31.335938 46.375 30.925781 46.375 30.5 46.375 C 30.5 44.3125 30.5 42.25 30.5 40.125 Z M 30.5 40.125 "/>
<path style=" stroke:none;fill-rule:nonzero;fill:rgb(99.215686%,96.862745%,96.862745%);fill-opacity:1;" d="M 18.476562 40.109375 C 18.566406 40.109375 18.65625 40.109375 18.75 40.109375 C 18.839844 40.109375 18.929688 40.109375 19.023438 40.109375 C 19.25 40.125 19.25 40.125 19.375 40.25 C 19.386719 40.441406 19.390625 40.632812 19.390625 40.828125 C 19.390625 40.949219 19.390625 41.070312 19.390625 41.199219 C 19.386719 41.332031 19.386719 41.464844 19.386719 41.601562 C 19.386719 41.738281 19.386719 41.875 19.386719 42.011719 C 19.386719 42.449219 19.382812 42.882812 19.382812 43.320312 C 19.382812 43.613281 19.382812 43.910156 19.382812 44.203125 C 19.378906 44.925781 19.378906 45.652344 19.375 46.375 C 18.960938 46.375 18.550781 46.375 18.125 46.375 C 18.121094 45.503906 18.121094 44.636719 18.117188 43.765625 C 18.117188 43.46875 18.117188 43.171875 18.117188 42.875 C 18.113281 42.453125 18.113281 42.027344 18.113281 41.601562 C 18.113281 41.46875 18.113281 41.335938 18.109375 41.199219 C 18.109375 41.074219 18.109375 40.953125 18.109375 40.828125 C 18.109375 40.71875 18.109375 40.609375 18.109375 40.496094 C 18.128906 40.175781 18.15625 40.132812 18.476562 40.109375 Z M 18.476562 40.109375 "/>
<path style=" stroke:none;fill-rule:nonzero;fill:rgb(98.823529%,96.862745%,96.862745%);fill-opacity:1;" d="M 16.351562 40.109375 C 16.441406 40.109375 16.53125 40.109375 16.625 40.109375 C 16.714844 40.109375 16.804688 40.109375 16.898438 40.109375 C 17.125 40.125 17.125 40.125 17.25 40.25 C 17.261719 40.441406 17.265625 40.632812 17.265625 40.828125 C 17.265625 40.949219 17.265625 41.070312 17.265625 41.199219 C 17.261719 41.332031 17.261719 41.464844 17.261719 41.601562 C 17.261719 41.738281 17.261719 41.875 17.261719 42.011719 C 17.261719 42.449219 17.257812 42.882812 17.257812 43.320312 C 17.257812 43.613281 17.257812 43.910156 17.257812 44.203125 C 17.253906 44.925781 17.253906 45.652344 17.25 46.375 C 16.421875 46.40625 16.421875 46.40625 16 46.125 C 15.953125 45.871094 15.953125 45.871094 15.957031 45.558594 C 15.953125 45.441406 15.953125 45.324219 15.953125 45.203125 C 15.957031 45.078125 15.957031 44.949219 15.960938 44.820312 C 15.960938 44.691406 15.960938 44.558594 15.960938 44.425781 C 15.960938 44.152344 15.960938 43.878906 15.964844 43.601562 C 15.96875 43.179688 15.96875 42.757812 15.96875 42.335938 C 15.972656 42.070312 15.972656 41.804688 15.976562 41.539062 C 15.976562 41.410156 15.976562 41.285156 15.976562 41.152344 C 15.976562 41.035156 15.980469 40.917969 15.980469 40.800781 C 15.980469 40.695312 15.980469 40.59375 15.984375 40.488281 C 16.003906 40.171875 16.035156 40.132812 16.351562 40.109375 Z M 16.351562 40.109375 "/>
<path style=" stroke:none;fill-rule:nonzero;fill:rgb(96.470588%,32.549021%,37.64706%);fill-opacity:1;" d="M 24.375 35.625 C 26.851562 35.625 29.324219 35.625 31.875 35.625 C 31.875 35.667969 31.875 35.707031 31.875 35.75 C 31.789062 35.753906 31.707031 35.757812 31.617188 35.757812 C 30.90625 35.792969 30.90625 35.792969 30.296875 36.132812 C 30.238281 36.210938 30.183594 36.292969 30.125 36.375 C 30 36.332031 29.878906 36.292969 29.75 36.25 C 29.625 36.292969 29.503906 36.332031 29.375 36.375 C 29.375 36.25 29.375 36.128906 29.375 36 C 29 35.8125 28.664062 35.851562 28.25 35.875 C 28.167969 35.957031 28.085938 36.039062 28 36.125 C 28.003906 36.265625 28.011719 36.410156 28.015625 36.554688 C 28 37 28 37 27.808594 37.214844 C 27.382812 37.4375 27.054688 37.417969 26.578125 37.410156 C 26.488281 37.410156 26.398438 37.410156 26.308594 37.410156 C 26.027344 37.40625 25.75 37.402344 25.46875 37.398438 C 25.277344 37.398438 25.089844 37.394531 24.898438 37.394531 C 24.429688 37.390625 23.964844 37.382812 23.5 37.375 C 23.5 37.332031 23.5 37.292969 23.5 37.25 C 23.746094 37.207031 23.996094 37.167969 24.25 37.125 C 24.296875 36.921875 24.339844 36.71875 24.382812 36.515625 C 24.40625 36.402344 24.433594 36.289062 24.457031 36.171875 C 24.527344 35.875 24.527344 35.875 24.375 35.625 Z M 24.375 35.625 "/>
<path style=" stroke:none;fill-rule:nonzero;fill:rgb(99.607843%,99.607843%,99.607843%);fill-opacity:1;" d="M 28.125 40.125 C 28.496094 40.125 28.867188 40.125 29.25 40.125 C 29.25 42.1875 29.25 44.25 29.25 46.375 C 28.878906 46.375 28.507812 46.375 28.125 46.375 C 28.125 44.3125 28.125 42.25 28.125 40.125 Z M 28.125 40.125 "/>
<path style=" stroke:none;fill-rule:nonzero;fill:rgb(99.607843%,99.607843%,99.607843%);fill-opacity:1;" d="M 20.875 40.125 C 21.246094 40.125 21.617188 40.125 22 40.125 C 22 42.1875 22 44.25 22 46.375 C 21.628906 46.375 21.257812 46.375 20.875 46.375 C 20.875 44.3125 20.875 42.25 20.875 40.125 Z M 20.875 40.125 "/>
<path style=" stroke:none;fill-rule:nonzero;fill:rgb(99.215686%,97.647059%,97.647059%);fill-opacity:1;" d="M 25.75 40.125 C 26.078125 40.125 26.410156 40.125 26.75 40.125 C 26.875 40.25 26.875 40.25 26.890625 40.496094 C 26.890625 40.660156 26.890625 40.660156 26.890625 40.828125 C 26.890625 40.949219 26.890625 41.070312 26.890625 41.199219 C 26.886719 41.332031 26.886719 41.464844 26.886719 41.601562 C 26.886719 41.738281 26.886719 41.875 26.886719 42.011719 C 26.886719 42.449219 26.882812 42.882812 26.882812 43.320312 C 26.882812 43.613281 26.882812 43.910156 26.882812 44.203125 C 26.878906 44.925781 26.878906 45.652344 26.875 46.375 C 26.503906 46.375 26.132812 46.375 25.75 46.375 C 25.75 44.3125 25.75 42.25 25.75 40.125 Z M 25.75 40.125 "/>
<path style=" stroke:none;fill-rule:nonzero;fill:rgb(96.470588%,35.686275%,41.176471%);fill-opacity:1;" d="M 23.03125 35.601562 C 23.21875 35.597656 23.21875 35.597656 23.414062 35.597656 C 23.53125 35.597656 23.652344 35.597656 23.773438 35.597656 C 23.9375 35.59375 23.9375 35.59375 24.105469 35.59375 C 24.375 35.625 24.375 35.625 24.625 35.875 C 24.59375 36.171875 24.59375 36.171875 24.515625 36.515625 C 24.488281 36.628906 24.464844 36.742188 24.4375 36.859375 C 24.417969 36.949219 24.398438 37.035156 24.375 37.125 C 23.355469 37.453125 22.117188 37.617188 21.09375 37.21875 C 20.753906 37.003906 20.550781 36.863281 20.375 36.5 C 20.390625 36.234375 20.390625 36.234375 20.5 36 C 21.25 35.5 22.15625 35.601562 23.03125 35.601562 Z M 23.03125 35.601562 "/>
<path style=" stroke:none;fill-rule:nonzero;fill:rgb(96.470588%,33.333334%,38.431373%);fill-opacity:1;" d="M 15.625 35.625 C 16.199219 35.613281 16.769531 35.609375 17.34375 35.601562 C 17.507812 35.597656 17.667969 35.59375 17.835938 35.59375 C 18.070312 35.589844 18.070312 35.589844 18.3125 35.589844 C 18.453125 35.585938 18.597656 35.585938 18.746094 35.582031 C 19.164062 35.628906 19.335938 35.703125 19.625 36 C 19.6875 36.367188 19.6875 36.367188 19.625 36.75 C 19.390625 37.070312 19.234375 37.222656 18.847656 37.324219 C 17.84375 37.472656 16.765625 37.546875 15.875 37 C 15.539062 36.496094 15.605469 36.21875 15.625 35.625 Z M 15.625 35.625 "/>
<path style=" stroke:none;fill-rule:nonzero;fill:rgb(99.215686%,95.294118%,95.686275%);fill-opacity:1;" d="M 33.375 40.109375 C 33.75 40.125 33.75 40.125 33.875 40.25 C 33.886719 40.433594 33.890625 40.617188 33.890625 40.804688 C 33.890625 40.921875 33.890625 41.039062 33.890625 41.160156 C 33.886719 41.289062 33.886719 41.414062 33.886719 41.546875 C 33.886719 41.675781 33.886719 41.808594 33.886719 41.941406 C 33.886719 42.359375 33.882812 42.777344 33.882812 43.195312 C 33.882812 43.476562 33.882812 43.761719 33.882812 44.042969 C 33.878906 44.738281 33.878906 45.429688 33.875 46.125 C 33.488281 46.34375 33.347656 46.375 32.875 46.375 C 32.871094 45.503906 32.871094 44.636719 32.867188 43.765625 C 32.867188 43.46875 32.867188 43.171875 32.867188 42.875 C 32.863281 42.453125 32.863281 42.027344 32.863281 41.601562 C 32.863281 41.46875 32.863281 41.335938 32.859375 41.199219 C 32.859375 41.074219 32.859375 40.953125 32.859375 40.828125 C 32.859375 40.71875 32.859375 40.609375 32.859375 40.496094 C 32.882812 40.089844 32.960938 40.125 33.375 40.109375 Z M 33.375 40.109375 "/>
<path style=" stroke:none;fill-rule:nonzero;fill:rgb(96.862745%,31.37255%,36.470589%);fill-opacity:1;" d="M 26.625 13.75 C 26.832031 13.75 27.039062 13.75 27.25 13.75 C 27.25 14.988281 27.25 16.226562 27.25 17.5 C 27.042969 17.5 26.835938 17.5 26.625 17.5 C 26.625 16.261719 26.625 15.023438 26.625 13.75 Z M 26.625 13.75 "/>
<path style=" stroke:none;fill-rule:nonzero;fill:rgb(96.862745%,31.37255%,36.470589%);fill-opacity:1;" d="M 24.75 13.75 C 24.957031 13.75 25.164062 13.75 25.375 13.75 C 25.375 14.988281 25.375 16.226562 25.375 17.5 C 25.167969 17.5 24.960938 17.5 24.75 17.5 C 24.75 16.261719 24.75 15.023438 24.75 13.75 Z M 24.75 13.75 "/>
<path style=" stroke:none;fill-rule:nonzero;fill:rgb(96.862745%,31.37255%,36.470589%);fill-opacity:1;" d="M 22.875 13.75 C 23.082031 13.75 23.289062 13.75 23.5 13.75 C 23.5 14.988281 23.5 16.226562 23.5 17.5 C 23.292969 17.5 23.085938 17.5 22.875 17.5 C 22.875 16.261719 22.875 15.023438 22.875 13.75 Z M 22.875 13.75 "/>
<path style=" stroke:none;fill-rule:nonzero;fill:rgb(99.215686%,95.294118%,95.686275%);fill-opacity:1;" d="M 34.125 35.875 C 34.375 36.125 34.375 36.125 34.421875 36.429688 C 34.375 36.75 34.375 36.75 34.1875 36.984375 C 33.707031 37.199219 33.386719 37.105469 32.875 37 C 32.625 36.75 32.625 36.75 32.59375 36.4375 C 32.625 36.125 32.625 36.125 32.875 35.875 C 33.328125 35.738281 33.671875 35.738281 34.125 35.875 Z M 34.125 35.875 "/>
<path style=" stroke:none;fill-rule:nonzero;fill:rgb(96.862745%,50.196081%,54.901963%);fill-opacity:1;" d="M 25 5.5 C 25.042969 5.5 25.082031 5.5 25.125 5.5 C 25.167969 5.871094 25.207031 6.242188 25.25 6.625 C 25.417969 6.496094 25.417969 6.496094 25.585938 6.367188 C 26 6.125 26 6.125 26.34375 6.132812 C 26.625 6.25 26.625 6.25 26.875 6.625 C 26.625 6.625 26.375 6.617188 26.125 6.601562 C 25.757812 6.589844 25.757812 6.589844 25.542969 6.769531 C 25.3125 7.082031 25.3125 7.324219 25.289062 7.710938 C 25.28125 7.835938 25.273438 7.960938 25.265625 8.085938 C 25.257812 8.183594 25.253906 8.277344 25.25 8.375 C 25.042969 8.375 24.835938 8.375 24.625 8.375 C 24.625 7.921875 24.625 7.46875 24.625 7 C 24.542969 7 24.460938 7 24.375 7 C 24.417969 6.917969 24.457031 6.835938 24.5 6.75 C 24.542969 6.75 24.582031 6.75 24.625 6.75 C 24.75 6.335938 24.871094 5.925781 25 5.5 Z M 25 5.5 "/>
<path style=" stroke:none;fill-rule:nonzero;fill:rgb(99.215686%,96.470588%,96.862745%);fill-opacity:1;" d="M 31.5 35.75 C 31.742188 35.898438 31.742188 35.898438 31.875 36.125 C 31.929688 36.476562 31.921875 36.667969 31.742188 36.976562 C 31.363281 37.207031 31.058594 37.171875 30.625 37.125 C 30.382812 36.976562 30.382812 36.976562 30.25 36.75 C 30.195312 36.398438 30.203125 36.207031 30.382812 35.898438 C 30.761719 35.667969 31.066406 35.703125 31.5 35.75 Z M 31.5 35.75 "/>
<path style=" stroke:none;fill-rule:nonzero;fill:rgb(99.215686%,93.725491%,94.117647%);fill-opacity:1;" d="M 16.875 35.75 C 17.117188 35.898438 17.117188 35.898438 17.25 36.125 C 17.304688 36.476562 17.296875 36.667969 17.117188 36.976562 C 16.734375 37.210938 16.4375 37.179688 16 37.125 C 15.695312 36.859375 15.636719 36.695312 15.578125 36.296875 C 15.59375 36.199219 15.609375 36.101562 15.625 36 C 16.085938 35.691406 16.328125 35.703125 16.875 35.75 Z M 16.875 35.75 "/>
<path style=" stroke:none;fill-rule:nonzero;fill:rgb(99.215686%,94.509804%,94.901961%);fill-opacity:1;" d="M 21.75 35.75 C 22 36 22 36 22.03125 36.4375 C 22 36.875 22 36.875 21.75 37.125 C 21.328125 37.179688 21.328125 37.179688 20.875 37.125 C 20.5625 36.84375 20.5625 36.84375 20.375 36.5 C 20.382812 36.226562 20.382812 36.226562 20.5 36 C 20.960938 35.695312 21.207031 35.710938 21.75 35.75 Z M 21.75 35.75 "/>
<path style=" stroke:none;fill-rule:nonzero;fill:rgb(99.215686%,94.117647%,94.509804%);fill-opacity:1;" d="M 18.609375 35.71875 C 18.695312 35.71875 18.785156 35.71875 18.875 35.71875 C 18.960938 35.71875 19.050781 35.71875 19.140625 35.71875 C 19.375 35.75 19.375 35.75 19.625 36 C 19.664062 36.382812 19.679688 36.644531 19.5 36.992188 C 19.144531 37.179688 18.867188 37.136719 18.476562 37.070312 C 18.25 37 18.25 37 18.054688 36.773438 C 17.992188 36.460938 18.007812 36.292969 18.125 36 C 18.375 35.75 18.375 35.75 18.609375 35.71875 Z M 18.609375 35.71875 "/>
<path style=" stroke:none;fill-rule:nonzero;fill:rgb(99.215686%,94.901961%,95.294118%);fill-opacity:1;" d="M 26.625 35.75 C 26.875 36 26.875 36 26.902344 36.238281 C 26.890625 36.984375 26.890625 36.984375 26.75 37.125 C 26.5 37.117188 26.5 37.117188 26.195312 37.085938 C 26.042969 37.070312 26.042969 37.070312 25.890625 37.054688 C 25.625 37 25.625 37 25.375 36.75 C 25.332031 36.402344 25.328125 36.203125 25.507812 35.898438 C 25.882812 35.667969 26.199219 35.710938 26.625 35.75 Z M 26.625 35.75 "/>
<path style=" stroke:none;fill-rule:nonzero;fill:rgb(99.215686%,96.862745%,97.254902%);fill-opacity:1;" d="M 29.125 35.75 C 29.207031 36.121094 29.289062 36.492188 29.375 36.875 C 28.851562 37.226562 28.609375 37.109375 28 37 C 27.875 36.875 27.875 36.875 27.84375 36.515625 C 27.875 36.125 27.875 36.125 28.007812 35.890625 C 28.375 35.675781 28.710938 35.726562 29.125 35.75 Z M 29.125 35.75 "/>
<path style=" stroke:none;fill-rule:nonzero;fill:rgb(99.215686%,95.294118%,95.686275%);fill-opacity:1;" d="M 24.125 35.75 C 24.375 36 24.375 36 24.398438 36.242188 C 24.390625 36.496094 24.382812 36.746094 24.375 37 C 24 37.1875 23.664062 37.148438 23.25 37.125 C 23 36.875 23 36.875 22.960938 36.4375 C 22.972656 36.292969 22.988281 36.148438 23 36 C 23.429688 35.710938 23.617188 35.707031 24.125 35.75 Z M 24.125 35.75 "/>
<path style=" stroke:none;fill-rule:nonzero;fill:rgb(87.843138%,32.156864%,38.82353%);fill-opacity:1;" d="M 4.5 38.75 C 4.664062 38.792969 4.828125 38.832031 5 38.875 C 5 38.957031 5 39.039062 5 39.125 C 5.125 39.167969 5.246094 39.207031 5.375 39.25 C 5.375 39.414062 5.375 39.578125 5.375 39.75 C 5.5 39.707031 5.621094 39.667969 5.75 39.625 C 5.75 39.707031 5.75 39.789062 5.75 39.875 C 5.828125 39.90625 5.910156 39.9375 5.992188 39.96875 C 6.25 40.125 6.25 40.125 6.335938 40.351562 C 6.355469 40.488281 6.355469 40.488281 6.375 40.625 C 6.410156 40.796875 6.410156 40.796875 6.445312 40.96875 C 6.464844 41.0625 6.480469 41.15625 6.5 41.25 C 5.921875 40.839844 5.554688 40.359375 5.148438 39.789062 C 5.085938 39.703125 5.023438 39.617188 4.957031 39.527344 C 4.5 38.894531 4.5 38.894531 4.5 38.75 Z M 4.5 38.75 "/>
<path style=" stroke:none;fill-rule:nonzero;fill:rgb(96.862745%,31.764707%,37.254903%);fill-opacity:1;" d="M 32.625 36.5 C 33.125 37.027344 33.125 37.027344 33.125 37.375 C 32.589844 37.375 32.050781 37.375 31.5 37.375 C 31.910156 36.5 31.910156 36.5 32.625 36.5 Z M 32.625 36.5 "/>
<path style=" stroke:none;fill-rule:nonzero;fill:rgb(84.313726%,30.980393%,37.64706%);fill-opacity:1;" d="M 39.5 5.125 C 40.335938 5.511719 41.097656 6.117188 41.625 6.875 C 41.335938 6.851562 41.335938 6.851562 41 6.75 C 40.773438 6.429688 40.773438 6.429688 40.625 6.125 C 40.460938 6.167969 40.296875 6.207031 40.125 6.25 C 39.898438 5.882812 39.6875 5.515625 39.5 5.125 Z M 39.5 5.125 "/>
<path style=" stroke:none;fill-rule:nonzero;fill:rgb(81.960785%,32.549021%,38.431373%);fill-opacity:1;" d="M 33.5 1.875 C 34.515625 2.136719 35.433594 2.542969 36.375 3 C 36.375 3.125 36.375 3.246094 36.375 3.375 C 36.292969 3.375 36.210938 3.375 36.125 3.375 C 36.082031 3.292969 36.042969 3.210938 36 3.125 C 35.855469 3.105469 35.710938 3.082031 35.5625 3.0625 C 35.417969 3.042969 35.273438 3.019531 35.125 3 C 35.082031 2.917969 35.042969 2.835938 35 2.75 C 34.875 2.707031 34.753906 2.667969 34.625 2.625 C 34.625 2.542969 34.625 2.460938 34.625 2.375 C 34.066406 2.25 34.066406 2.25 33.5 2.125 C 33.5 2.042969 33.5 1.960938 33.5 1.875 Z M 33.5 1.875 "/>
<path style=" stroke:none;fill-rule:nonzero;fill:rgb(85.09804%,32.941177%,38.431373%);fill-opacity:1;" d="M 36 47 C 35.628906 47.300781 35.253906 47.507812 34.820312 47.703125 C 34.648438 47.78125 34.648438 47.78125 34.46875 47.863281 C 34.144531 47.992188 33.84375 48.070312 33.5 48.125 C 33.542969 48.042969 33.582031 47.960938 33.625 47.875 C 33.75 47.875 33.871094 47.875 34 47.875 C 34 47.792969 34 47.710938 34 47.625 C 34.066406 47.601562 34.136719 47.578125 34.207031 47.550781 C 34.296875 47.519531 34.382812 47.488281 34.476562 47.453125 C 34.566406 47.421875 34.652344 47.390625 34.746094 47.355469 C 35.644531 46.980469 35.644531 46.980469 36 47 Z M 36 47 "/>
<path style=" stroke:none;fill-rule:nonzero;fill:rgb(85.490197%,32.549021%,39.607844%);fill-opacity:1;" d="M 39.5 44.125 C 39.664062 44.289062 39.828125 44.453125 40 44.625 C 39.761719 44.8125 39.523438 44.996094 39.28125 45.179688 C 39.179688 45.257812 39.179688 45.257812 39.078125 45.339844 C 38.726562 45.605469 38.441406 45.816406 38 45.875 C 38 45.792969 38 45.710938 38 45.625 C 38.125 45.625 38.246094 45.625 38.375 45.625 C 38.375 45.542969 38.375 45.460938 38.375 45.375 C 38.457031 45.292969 38.539062 45.210938 38.625 45.125 C 38.789062 45.125 38.953125 45.125 39.125 45.125 C 39.125 45.042969 39.125 44.960938 39.125 44.875 C 39.207031 44.875 39.289062 44.875 39.375 44.875 C 39.417969 44.628906 39.457031 44.378906 39.5 44.125 Z M 39.5 44.125 "/>
<path style=" stroke:none;fill-rule:nonzero;fill:rgb(97.647059%,38.039216%,43.529412%);fill-opacity:1;" d="M 30.890625 46.242188 C 31.027344 46.265625 31.164062 46.289062 31.304688 46.316406 C 31.410156 46.335938 31.515625 46.355469 31.625 46.375 C 31.625 46.417969 31.625 46.457031 31.625 46.5 C 31.417969 46.542969 31.210938 46.582031 31 46.625 C 30.957031 46.75 30.917969 46.871094 30.875 47 C 30.5 47 30.5 47 30.3125 46.820312 C 30.25 46.757812 30.1875 46.691406 30.125 46.625 C 30 46.582031 29.878906 46.542969 29.75 46.5 C 30.011719 45.976562 30.386719 46.152344 30.890625 46.242188 Z M 30.890625 46.242188 "/>
<path style=" stroke:none;fill-rule:nonzero;fill:rgb(86.274511%,30.588236%,36.862746%);fill-opacity:1;" d="M 37.875 46.125 C 37.132812 46.558594 37.132812 46.558594 36.375 47 C 36.292969 46.917969 36.210938 46.835938 36.125 46.75 C 36.207031 46.667969 36.289062 46.585938 36.375 46.5 C 36.417969 46.417969 36.457031 46.335938 36.5 46.25 C 37.046875 46.054688 37.304688 45.980469 37.875 46.125 Z M 37.875 46.125 "/>
<path style=" stroke:none;fill-rule:nonzero;fill:rgb(96.470588%,38.039216%,43.921569%);fill-opacity:1;" d="M 26.875 36.125 C 27 36.167969 27.121094 36.207031 27.25 36.25 C 27.175781 36.933594 27.175781 36.933594 26.96875 37.210938 C 26.683594 37.425781 26.515625 37.414062 26.164062 37.398438 C 26.011719 37.394531 26.011719 37.394531 25.859375 37.386719 C 25.78125 37.382812 25.703125 37.378906 25.625 37.375 C 25.667969 37.25 25.707031 37.128906 25.75 37 C 26.078125 37 26.410156 37 26.75 37 C 26.792969 36.710938 26.832031 36.421875 26.875 36.125 Z M 26.875 36.125 "/>
<path style=" stroke:none;fill-rule:nonzero;fill:rgb(82.352942%,32.156864%,37.64706%);fill-opacity:1;" d="M 25.5 0.375 C 25.816406 0.371094 26.128906 0.367188 26.445312 0.367188 C 26.578125 0.367188 26.578125 0.367188 26.710938 0.363281 C 27.28125 0.363281 27.816406 0.40625 28.375 0.5 C 28.375 0.582031 28.375 0.664062 28.375 0.75 C 28.003906 0.707031 27.632812 0.667969 27.25 0.625 C 27.207031 0.707031 27.167969 0.789062 27.125 0.875 C 27.125 0.792969 27.125 0.710938 27.125 0.625 C 26.589844 0.582031 26.050781 0.542969 25.5 0.5 C 25.5 0.457031 25.5 0.417969 25.5 0.375 Z M 25.5 0.375 "/>
<path style=" stroke:none;fill-rule:nonzero;fill:rgb(96.078432%,31.764707%,37.254903%);fill-opacity:1;" d="M 24.875 6.5 C 24.917969 6.625 24.957031 6.746094 25 6.875 C 25.082031 6.875 25.164062 6.875 25.25 6.875 C 25.207031 7.328125 25.167969 7.78125 25.125 8.25 C 25 8.25 24.878906 8.25 24.75 8.25 C 24.746094 8.027344 24.746094 7.808594 24.742188 7.585938 C 24.742188 7.460938 24.738281 7.339844 24.738281 7.210938 C 24.75 6.875 24.75 6.875 24.875 6.5 Z M 24.875 6.5 "/>
<path style=" stroke:none;fill-rule:nonzero;fill:rgb(91.764706%,29.019609%,34.117648%);fill-opacity:1;" d="M 1.625 31.25 C 1.640625 31.351562 1.65625 31.449219 1.671875 31.554688 C 1.710938 31.714844 1.710938 31.714844 1.75 31.875 C 1.832031 31.917969 1.914062 31.957031 2 32 C 2 32.164062 2 32.328125 2 32.5 C 1.792969 32.457031 1.585938 32.417969 1.375 32.375 C 1.292969 32.046875 1.210938 31.714844 1.125 31.375 C 1.5 31.25 1.5 31.25 1.625 31.25 Z M 1.625 31.25 "/>
<path style=" stroke:none;fill-rule:nonzero;fill:rgb(85.490197%,32.549021%,36.862746%);fill-opacity:1;" d="M 15.375 47.125 C 15.5 47.167969 15.621094 47.207031 15.75 47.25 C 15.789062 47.328125 15.828125 47.410156 15.867188 47.492188 C 16.027344 47.808594 16.179688 47.871094 16.5 48 C 16.375 48.0625 16.375 48.0625 16.25 48.125 C 15.992188 48.035156 15.734375 47.929688 15.484375 47.820312 C 15.347656 47.761719 15.210938 47.703125 15.070312 47.640625 C 14.964844 47.59375 14.859375 47.546875 14.75 47.5 C 14.75 47.457031 14.75 47.417969 14.75 47.375 C 14.957031 47.332031 15.164062 47.292969 15.375 47.25 C 15.375 47.207031 15.375 47.167969 15.375 47.125 Z M 15.375 47.125 "/>
<path style=" stroke:none;fill-rule:nonzero;fill:rgb(87.450981%,32.156864%,38.039216%);fill-opacity:1;" d="M 40.25 43.5 C 40.332031 43.5 40.414062 43.5 40.5 43.5 C 40.5 43.582031 40.5 43.664062 40.5 43.75 C 40.707031 43.707031 40.914062 43.667969 41.125 43.625 C 40.773438 43.996094 40.476562 44.304688 40 44.5 C 39.875 44.125 39.875 44.125 40.039062 43.789062 C 40.109375 43.695312 40.179688 43.597656 40.25 43.5 Z M 40.25 43.5 "/>
<path style=" stroke:none;fill-rule:nonzero;fill:rgb(97.254902%,38.431373%,44.313726%);fill-opacity:1;" d="M 32.75 35.625 C 33.140625 35.671875 33.140625 35.671875 33.5 35.75 C 33.5 35.792969 33.5 35.832031 33.5 35.875 C 33.378906 35.910156 33.257812 35.941406 33.132812 35.976562 C 33.007812 36.027344 32.878906 36.074219 32.75 36.125 C 32.707031 36.25 32.667969 36.371094 32.625 36.5 C 32.378906 36.542969 32.128906 36.582031 31.875 36.625 C 31.917969 36.5 31.957031 36.378906 32 36.25 C 32.082031 36.292969 32.164062 36.332031 32.25 36.375 C 32.285156 36.296875 32.320312 36.21875 32.359375 36.140625 C 32.5 35.875 32.5 35.875 32.75 35.625 Z M 32.75 35.625 "/>
<path style=" stroke:none;fill-rule:nonzero;fill:rgb(93.333334%,36.862746%,41.176471%);fill-opacity:1;" d="M 5.125 36.5 C 5.46875 36.898438 5.703125 37.25 5.875 37.75 C 5.75 37.75 5.628906 37.75 5.5 37.75 C 5.5 37.667969 5.5 37.585938 5.5 37.5 C 5.335938 37.417969 5.171875 37.335938 5 37.25 C 5.042969 37.003906 5.082031 36.753906 5.125 36.5 Z M 5.125 36.5 "/>
<path style=" stroke:none;fill-rule:nonzero;fill:rgb(96.862745%,38.431373%,43.921569%);fill-opacity:1;" d="M 27.75 37 C 28.101562 36.964844 28.101562 36.964844 28.515625 36.976562 C 28.722656 36.980469 28.722656 36.980469 28.929688 36.988281 C 29.035156 36.992188 29.140625 36.996094 29.25 37 C 29.125 37.1875 29.125 37.1875 29 37.375 C 28.648438 37.410156 28.648438 37.410156 28.234375 37.398438 C 28.027344 37.394531 28.027344 37.394531 27.820312 37.386719 C 27.714844 37.382812 27.609375 37.378906 27.5 37.375 C 27.582031 37.25 27.664062 37.128906 27.75 37 Z M 27.75 37 "/>
<path style=" stroke:none;fill-rule:nonzero;fill:rgb(96.470588%,41.176471%,46.27451%);fill-opacity:1;" d="M 29.125 35.875 C 29.25 35.917969 29.371094 35.957031 29.5 36 C 29.457031 36.125 29.417969 36.246094 29.375 36.375 C 29.582031 36.292969 29.789062 36.210938 30 36.125 C 30.25 36.375 30.25 36.375 30.25 36.75 C 30.003906 36.667969 29.753906 36.585938 29.5 36.5 C 29.542969 36.625 29.582031 36.746094 29.625 36.875 C 29.542969 36.875 29.460938 36.875 29.375 36.875 C 29.292969 36.546875 29.210938 36.214844 29.125 35.875 Z M 29.125 35.875 "/>
<path style=" stroke:none;fill-rule:nonzero;fill:rgb(96.078432%,30.980393%,35.294119%);fill-opacity:1;" d="M 23.5 10.75 C 23.625 10.792969 23.746094 10.832031 23.875 10.875 C 23.800781 11.644531 23.800781 11.644531 23.75 11.875 C 23.625 11.9375 23.625 11.9375 23.5 12 C 23.5 11.917969 23.5 11.835938 23.5 11.75 C 23.417969 11.75 23.335938 11.75 23.25 11.75 C 23.359375 10.890625 23.359375 10.890625 23.5 10.75 Z M 23.5 10.75 "/>
<path style=" stroke:none;fill-rule:nonzero;fill:rgb(82.745099%,30.588236%,36.470589%);fill-opacity:1;" d="M 8 7 C 8 7.375 8 7.375 7.835938 7.546875 C 7.765625 7.613281 7.695312 7.679688 7.625 7.75 C 7.566406 7.859375 7.507812 7.964844 7.445312 8.078125 C 7.25 8.375 7.25 8.375 6.976562 8.476562 C 6.902344 8.484375 6.828125 8.492188 6.75 8.5 C 7.0625 7.890625 7.511719 7.464844 8 7 Z M 8 7 "/>
<path style=" stroke:none;fill-rule:nonzero;fill:rgb(96.470588%,43.137255%,49.411765%);fill-opacity:1;" d="M 17.125 27.625 C 17.207031 27.707031 17.289062 27.789062 17.375 27.875 C 17.210938 28.082031 17.046875 28.289062 16.875 28.5 C 16.917969 28.582031 16.957031 28.664062 17 28.75 C 16.628906 29.058594 16.628906 29.058594 16.25 29.375 C 16.445312 28.695312 16.628906 28.15625 17.125 27.625 Z M 17.125 27.625 "/>
<path style=" stroke:none;fill-rule:nonzero;fill:rgb(96.470588%,56.078434%,61.176473%);fill-opacity:1;" d="M 24.125 6.25 C 24.289062 6.507812 24.289062 6.507812 24.375 6.75 C 24.238281 6.726562 24.101562 6.703125 23.960938 6.679688 C 23.507812 6.59375 23.507812 6.59375 23.125 6.75 C 23.125 6.585938 23.125 6.421875 23.125 6.25 C 23.542969 6.109375 23.714844 6.113281 24.125 6.25 Z M 24.125 6.25 "/>
<path style=" stroke:none;fill-rule:nonzero;fill:rgb(85.09804%,32.941177%,38.431373%);fill-opacity:1;" d="M 11.5 45.375 C 11.859375 45.40625 11.859375 45.40625 12.25 45.5 C 12.414062 45.742188 12.414062 45.742188 12.5 46 C 12.542969 46.082031 12.582031 46.164062 12.625 46.25 C 12.175781 46.082031 11.78125 45.878906 11.375 45.625 C 11.417969 45.542969 11.457031 45.460938 11.5 45.375 Z M 11.5 45.375 "/>
<path style=" stroke:none;fill-rule:nonzero;fill:rgb(96.862745%,31.37255%,37.64706%);fill-opacity:1;" d="M 32 35.625 C 32.246094 35.625 32.496094 35.625 32.75 35.625 C 32.503906 35.996094 32.503906 35.996094 32.25 36.375 C 32.125 36.332031 32.003906 36.292969 31.875 36.25 C 31.917969 36.042969 31.957031 35.835938 32 35.625 Z M 32 35.625 "/>
<path style=" stroke:none;fill-rule:nonzero;fill:rgb(82.745099%,32.549021%,38.039216%);fill-opacity:1;" d="M 1.25 18.125 C 1.292969 18.125 1.332031 18.125 1.375 18.125 C 1.398438 18.816406 1.34375 19.34375 1.125 20 C 1.042969 20 0.960938 20 0.875 20 C 0.945312 19.34375 1.054688 18.753906 1.25 18.125 Z M 1.25 18.125 "/>
<path style=" stroke:none;fill-rule:nonzero;fill:rgb(90.980393%,28.235295%,33.333334%);fill-opacity:1;" d="M 13.875 2.875 C 13.957031 3 14.039062 3.121094 14.125 3.25 C 14 3.414062 13.878906 3.578125 13.75 3.75 C 13.585938 3.707031 13.421875 3.667969 13.25 3.625 C 13.28125 3.390625 13.28125 3.390625 13.375 3.125 C 13.632812 2.96875 13.632812 2.96875 13.875 2.875 Z M 13.875 2.875 "/>
<path style=" stroke:none;fill-rule:nonzero;fill:rgb(95.294118%,43.921569%,49.019608%);fill-opacity:1;" d="M 34.875 32.625 C 34.917969 32.625 34.957031 32.625 35 32.625 C 35 33.203125 35 33.78125 35 34.375 C 34.792969 34.375 34.585938 34.375 34.375 34.375 C 34.433594 34.296875 34.492188 34.214844 34.554688 34.132812 C 34.808594 33.636719 34.839844 33.175781 34.875 32.625 Z M 34.875 32.625 "/>
<path style=" stroke:none;fill-rule:nonzero;fill:rgb(94.901961%,51.372552%,56.470591%);fill-opacity:1;" d="M 47.375 20 C 47.5 20.125 47.621094 20.246094 47.75 20.375 C 47.710938 20.648438 47.710938 20.648438 47.625 20.875 C 47.707031 20.875 47.789062 20.875 47.875 20.875 C 47.832031 21.246094 47.792969 21.617188 47.75 22 C 47.707031 22 47.667969 22 47.625 22 C 47.542969 21.339844 47.460938 20.679688 47.375 20 Z M 47.375 20 "/>
<path style=" stroke:none;fill-rule:nonzero;fill:rgb(89.411765%,27.058825%,32.549021%);fill-opacity:1;" d="M 46.375 12.75 C 46.71875 13.148438 46.953125 13.5 47.125 14 C 47.042969 14 46.960938 14 46.875 14 C 46.832031 13.917969 46.792969 13.835938 46.75 13.75 C 46.625 13.8125 46.625 13.8125 46.5 13.875 C 46.5 13.75 46.5 13.628906 46.5 13.5 C 46.417969 13.457031 46.335938 13.417969 46.25 13.375 C 46.292969 13.167969 46.332031 12.960938 46.375 12.75 Z M 46.375 12.75 "/>
<path style=" stroke:none;fill-rule:nonzero;fill:rgb(92.941177%,38.431373%,43.529412%);fill-opacity:1;" d="M 16.25 3.25 C 16.539062 3.25 16.828125 3.25 17.125 3.25 C 17.082031 3.375 17.042969 3.496094 17 3.625 C 16.769531 3.714844 16.769531 3.714844 16.492188 3.773438 C 16.402344 3.792969 16.308594 3.8125 16.214844 3.832031 C 16.109375 3.855469 16.109375 3.855469 16 3.875 C 16 3.792969 16 3.710938 16 3.625 C 16.082031 3.625 16.164062 3.625 16.25 3.625 C 16.25 3.5 16.25 3.378906 16.25 3.25 Z M 16.25 3.25 "/>
<path style=" stroke:none;fill-rule:nonzero;fill:rgb(96.862745%,42.352942%,48.627451%);fill-opacity:1;" d="M 19.75 46.375 C 19.625 46.5625 19.625 46.5625 19.5 46.75 C 18.875 46.625 18.875 46.625 18.25 46.5 C 18.25 46.457031 18.25 46.417969 18.25 46.375 C 18.429688 46.351562 18.609375 46.328125 18.789062 46.304688 C 18.890625 46.292969 18.988281 46.277344 19.09375 46.265625 C 19.375 46.25 19.375 46.25 19.75 46.375 Z M 19.75 46.375 "/>
<path style=" stroke:none;fill-rule:nonzero;fill:rgb(96.078432%,43.137255%,48.627451%);fill-opacity:1;" d="M 15.5 31.25 C 15.695312 31.46875 15.695312 31.46875 15.875 31.75 C 15.855469 32.085938 15.777344 32.21875 15.554688 32.46875 C 15.464844 32.546875 15.464844 32.546875 15.375 32.625 C 15.355469 31.695312 15.355469 31.695312 15.5 31.25 Z M 15.5 31.25 "/>
<path style=" stroke:none;fill-rule:nonzero;fill:rgb(96.470588%,49.411765%,54.11765%);fill-opacity:1;" d="M 26 6.125 C 26.3125 6.148438 26.3125 6.148438 26.625 6.25 C 26.707031 6.375 26.789062 6.496094 26.875 6.625 C 26.453125 6.625 26.144531 6.515625 25.75 6.375 C 25.832031 6.292969 25.914062 6.210938 26 6.125 Z M 26 6.125 "/>
<path style=" stroke:none;fill-rule:nonzero;fill:rgb(96.470588%,45.09804%,50.588238%);fill-opacity:1;" d="M 33.25 27.875 C 33.636719 28.191406 33.738281 28.527344 33.875 29 C 33.566406 28.875 33.566406 28.875 33.25 28.75 C 33.25 28.460938 33.25 28.171875 33.25 27.875 Z M 33.25 27.875 "/>
<path style=" stroke:none;fill-rule:nonzero;fill:rgb(87.843138%,30.19608%,39.607844%);fill-opacity:1;" d="M 45.125 10.75 C 45.625 11.328125 45.625 11.328125 45.625 11.75 C 45.382812 11.664062 45.382812 11.664062 45.125 11.5 C 45.023438 11.179688 45.023438 11.179688 45 10.875 C 45.042969 10.832031 45.082031 10.792969 45.125 10.75 Z M 45.125 10.75 "/>
<path style=" stroke:none;fill-rule:nonzero;fill:rgb(86.274511%,29.411766%,34.509805%);fill-opacity:1;" d="M 35.125 2.625 C 35.570312 2.703125 35.960938 2.824219 36.375 3 C 36.375 3.125 36.375 3.246094 36.375 3.375 C 36.292969 3.375 36.210938 3.375 36.125 3.375 C 36.082031 3.292969 36.042969 3.210938 36 3.125 C 35.710938 3.074219 35.417969 3.03125 35.125 3 C 35.125 2.875 35.125 2.753906 35.125 2.625 Z M 35.125 2.625 "/>
<path style=" stroke:none;fill-rule:nonzero;fill:rgb(97.647059%,43.529412%,49.411765%);fill-opacity:1;" d="M 25.625 46.375 C 25.996094 46.375 26.367188 46.375 26.75 46.375 C 26.585938 46.417969 26.421875 46.457031 26.25 46.5 C 26.25 46.582031 26.25 46.664062 26.25 46.75 C 26.042969 46.75 25.835938 46.75 25.625 46.75 C 25.625 46.625 25.625 46.503906 25.625 46.375 Z M 25.625 46.375 "/>
<path style=" stroke:none;fill-rule:nonzero;fill:rgb(88.235295%,27.058825%,31.37255%);fill-opacity:1;" d="M 3.25 13.25 C 3.292969 13.25 3.332031 13.25 3.375 13.25 C 3.332031 13.539062 3.292969 13.828125 3.25 14.125 C 3.125 14.167969 3.003906 14.207031 2.875 14.25 C 2.945312 13.828125 3.007812 13.613281 3.25 13.25 Z M 3.25 13.25 "/>
<path style=" stroke:none;fill-rule:nonzero;fill:rgb(92.54902%,27.450982%,33.333334%);fill-opacity:1;" d="M 13.125 46 C 13.289062 46.164062 13.453125 46.328125 13.625 46.5 C 13.5 46.6875 13.5 46.6875 13.375 46.875 C 13.292969 46.832031 13.210938 46.792969 13.125 46.75 C 13.039062 46.4375 13.039062 46.4375 13 46.125 C 13.042969 46.082031 13.082031 46.042969 13.125 46 Z M 13.125 46 "/>
<path style=" stroke:none;fill-rule:nonzero;fill:rgb(92.941177%,37.64706%,41.176471%);fill-opacity:1;" d="M 38.625 43.375 C 38.707031 43.457031 38.789062 43.539062 38.875 43.625 C 38.628906 43.941406 38.503906 44 38.101562 44.085938 C 37.925781 44.105469 37.925781 44.105469 37.75 44.125 C 38.03125 43.832031 38.285156 43.601562 38.625 43.375 Z M 38.625 43.375 "/>
<path style=" stroke:none;fill-rule:nonzero;fill:rgb(84.705883%,32.549021%,39.607844%);fill-opacity:1;" d="M 5.75 40.375 C 6.054688 40.460938 6.054688 40.460938 6.375 40.625 C 6.476562 40.953125 6.476562 40.953125 6.5 41.25 C 5.890625 40.796875 5.890625 40.796875 5.75 40.375 Z M 5.75 40.375 "/>
<path style=" stroke:none;fill-rule:nonzero;fill:rgb(95.686275%,42.352942%,46.666667%);fill-opacity:1;" d="M 18.125 36.875 C 18.453125 36.957031 18.785156 37.039062 19.125 37.125 C 19.125 37.167969 19.125 37.207031 19.125 37.25 C 18.566406 37.3125 18.566406 37.3125 18 37.375 C 18.042969 37.210938 18.082031 37.046875 18.125 36.875 Z M 18.125 36.875 "/>
<path style=" stroke:none;fill-rule:nonzero;fill:rgb(93.725491%,40.000001%,45.490196%);fill-opacity:1;" d="M 46.375 16.625 C 46.621094 16.75 46.621094 16.75 46.875 16.875 C 46.832031 17.121094 46.792969 17.371094 46.75 17.625 C 46.574219 17.296875 46.453125 16.992188 46.375 16.625 Z M 46.375 16.625 "/>
<path style=" stroke:none;fill-rule:nonzero;fill:rgb(83.529413%,31.764707%,38.431373%);fill-opacity:1;" d="M 2.75 14.25 C 2.925781 14.773438 2.726562 15.015625 2.5 15.5 C 2.417969 15.5 2.335938 15.5 2.25 15.5 C 2.390625 15.0625 2.53125 14.652344 2.75 14.25 Z M 2.75 14.25 "/>
<path style=" stroke:none;fill-rule:nonzero;fill:rgb(90.980393%,26.274511%,31.37255%);fill-opacity:1;" d="M 36.375 46.25 C 36.539062 46.292969 36.703125 46.332031 36.875 46.375 C 36.875 46.5 36.875 46.621094 36.875 46.75 C 36.667969 46.832031 36.460938 46.914062 36.25 47 C 36.207031 46.917969 36.167969 46.835938 36.125 46.75 C 36.207031 46.667969 36.289062 46.585938 36.375 46.5 C 36.375 46.417969 36.375 46.335938 36.375 46.25 Z M 36.375 46.25 "/>
<path style=" stroke:none;fill-rule:nonzero;fill:rgb(96.078432%,35.686275%,41.960785%);fill-opacity:1;" d="M 25 35.75 C 25.246094 35.75 25.496094 35.75 25.75 35.75 C 25.625 35.996094 25.503906 36.246094 25.375 36.5 C 25.1875 36.335938 25.1875 36.335938 25 36.125 C 25 36 25 35.878906 25 35.75 Z M 25 35.75 "/>
<path style=" stroke:none;fill-rule:nonzero;fill:rgb(83.92157%,31.764707%,39.215687%);fill-opacity:1;" d="M 5.25 10.125 C 5.332031 10.25 5.414062 10.371094 5.5 10.5 C 5.335938 10.75 5.335938 10.75 5.125 11 C 5 11 4.878906 11 4.75 11 C 4.902344 10.6875 5.058594 10.414062 5.25 10.125 Z M 5.25 10.125 "/>
</g>
</svg>
