<?xml version="1.0" encoding="UTF-8"?>
<svg xmlns="http://www.w3.org/2000/svg" xmlns:xlink="http://www.w3.org/1999/xlink" width="50px" height="50px" viewBox="0 0 50 50" version="1.1">
<defs>
<clipPath id="clip1">
  <path d="M 8 5 L 44 5 L 44 48 L 8 48 Z M 8 5 "/>
</clipPath>
<clipPath id="clip2">
  <path d="M 48.128906 25.890625 C 48.128906 38.273438 37.671875 48.3125 24.773438 48.3125 C 11.875 48.3125 1.421875 38.273438 1.421875 25.890625 C 1.421875 13.507812 11.875 3.472656 24.773438 3.472656 C 37.671875 3.472656 48.128906 13.507812 48.128906 25.890625 Z M 48.128906 25.890625 "/>
</clipPath>
</defs>
<g id="surface1">
<path style="fill:none;stroke-width:1.5;stroke-linecap:butt;stroke-linejoin:miter;stroke:rgb(63.921571%,30.980393%,54.509807%);stroke-opacity:1;stroke-miterlimit:10;" d="M 23.12625 12.367188 C 23.12625 18.505859 18.15 23.482422 12.013125 23.482422 C 5.874375 23.482422 0.898125 18.505859 0.898125 12.367188 C 0.898125 6.228516 5.874375 1.253906 12.013125 1.253906 C 18.15 1.253906 23.12625 6.228516 23.12625 12.367188 Z M 23.12625 12.367188 " transform="matrix(2.083333,0,0,2,0,0)"/>
<g clip-path="url(#clip1)" clip-rule="nonzero">
<g clip-path="url(#clip2)" clip-rule="nonzero">
<path style=" stroke:none;fill-rule:nonzero;fill:rgb(63.921571%,30.980393%,54.509807%);fill-opacity:1;" d="M 34.472656 33.417969 C 34.472656 33.417969 35.988281 35.074219 36.203125 35.253906 C 36.566406 35.445312 36.984375 35.519531 37.394531 35.464844 C 39.246094 35.148438 41.027344 34.527344 42.664062 33.632812 C 42.875 32.902344 40.125 32.386719 38.40625 31.617188 C 36.910156 30.832031 35.527344 29.863281 34.289062 28.738281 C 33.695312 28.167969 32.027344 26.210938 32.027344 26.210938 L 32.542969 25.726562 C 32.542969 25.726562 33.863281 27.132812 33.988281 27.171875 C 34.28125 27.304688 34.601562 27.371094 34.929688 27.371094 C 35.46875 27.371094 39.441406 26.230469 39.648438 25.5 C 39.855469 24.765625 37.726562 24.472656 36.011719 23.707031 C 34.464844 23.007812 33.039062 22.078125 31.789062 20.957031 C 31.339844 20.5 30.921875 20.023438 30.535156 19.519531 L 30.027344 18.929688 L 30.613281 18.472656 C 30.613281 18.472656 31.589844 19.582031 31.71875 19.660156 C 32.078125 19.871094 32.492188 19.980469 32.910156 19.964844 C 34.289062 19.675781 35.578125 19.09375 36.683594 18.253906 C 36.867188 17.621094 35.101562 17.597656 33.507812 16.824219 C 32.351562 16.085938 31.292969 15.210938 30.355469 14.226562 C 27.410156 11.4375 26.34375 5.199219 25.730469 5.199219 C 25.121094 5.199219 23.710938 11.695312 21.117188 14.226562 C 20.1875 15.21875 19.128906 16.089844 17.964844 16.824219 C 16.371094 17.597656 14.609375 17.621094 14.792969 18.253906 C 15.898438 19.09375 17.1875 19.679688 18.566406 19.964844 C 18.984375 19.976562 19.398438 19.871094 19.757812 19.660156 C 19.886719 19.582031 20.886719 18.4375 20.886719 18.4375 L 21.453125 18.917969 L 20.933594 19.535156 C 20.546875 20.03125 20.128906 20.503906 19.6875 20.957031 C 18.4375 22.078125 17.011719 23.003906 15.464844 23.707031 C 13.75 24.472656 11.621094 24.765625 11.824219 25.5 C 12.03125 26.230469 16.007812 27.371094 16.546875 27.371094 C 16.871094 27.371094 17.195312 27.304688 17.488281 27.171875 C 17.609375 27.132812 18.933594 25.726562 18.933594 25.726562 L 19.511719 26.230469 C 19.511719 26.230469 17.78125 28.234375 17.199219 28.792969 C 15.957031 29.902344 14.566406 30.851562 13.070312 31.617188 C 11.351562 32.386719 8.597656 32.902344 8.8125 33.628906 C 10.449219 34.527344 12.230469 35.148438 14.082031 35.464844 C 14.511719 35.5 14.941406 35.402344 15.304688 35.1875 C 15.519531 35.003906 17.003906 33.417969 17.003906 33.417969 L 17.59375 33.902344 C 17.59375 33.902344 16.074219 35.683594 15.636719 36.121094 C 14.515625 37.132812 13.238281 37.972656 11.855469 38.613281 C 9.582031 39.585938 7.972656 39.667969 8.128906 40.367188 C 8.328125 41.234375 12.757812 42.558594 13.269531 42.621094 C 20.648438 43.5 24.324219 41.1875 24.324219 41.1875 L 24.324219 47.015625 L 27.152344 47.015625 L 27.152344 41.140625 C 27.152344 41.140625 29.507812 43.832031 38.207031 42.621094 C 38.71875 42.550781 43.148438 41.234375 43.347656 40.367188 C 43.347656 40.367188 41.894531 39.585938 39.625 38.613281 C 38.246094 37.964844 36.980469 37.117188 35.867188 36.101562 C 35.421875 35.65625 33.898438 33.921875 33.898438 33.921875 Z M 34.472656 33.417969 "/>
</g>
</g>
</g>
</svg>
