<?xml version="1.0" encoding="UTF-8"?>
<svg xmlns="http://www.w3.org/2000/svg" xmlns:xlink="http://www.w3.org/1999/xlink" width="50px" height="50px" viewBox="0 0 50 50" version="1.1">
<g id="surface1">
<path style=" stroke:none;fill-rule:nonzero;fill:rgb(63.921571%,31.37255%,54.509807%);fill-opacity:1;" d="M 39.375 4.875 C 39.441406 4.925781 39.507812 4.972656 39.578125 5.023438 C 40.320312 5.570312 41.039062 6.125 41.675781 6.796875 C 41.898438 7.023438 42.132812 7.222656 42.375 7.429688 C 42.886719 7.871094 43.316406 8.355469 43.75 8.875 C 43.835938 8.976562 43.921875 9.074219 44.011719 9.179688 C 44.742188 10.046875 45.378906 10.960938 45.988281 11.914062 C 46.101562 12.089844 46.214844 12.261719 46.332031 12.433594 C 47.441406 14.167969 48.160156 16.164062 48.75 18.125 C 48.796875 18.277344 48.84375 18.433594 48.894531 18.589844 C 49.027344 19.058594 49.148438 19.523438 49.25 20 C 49.269531 20.085938 49.289062 20.171875 49.308594 20.261719 C 50.652344 26.75 48.984375 33.5 45.425781 38.988281 C 42.230469 43.761719 37.328125 47.109375 31.875 48.75 C 31.722656 48.796875 31.566406 48.84375 31.410156 48.894531 C 30.941406 49.027344 30.476562 49.148438 30 49.25 C 29.914062 49.269531 29.828125 49.289062 29.738281 49.308594 C 23.253906 50.652344 16.503906 48.984375 11.019531 45.429688 C 10.046875 44.777344 9.125 44.050781 8.320312 43.199219 C 8.105469 42.980469 7.875 42.785156 7.640625 42.585938 C 4.355469 39.730469 2.363281 35.589844 1.125 31.5 C 1.085938 31.367188 1.042969 31.230469 1 31.09375 C 0.902344 30.730469 0.820312 30.371094 0.75 30 C 0.726562 29.882812 0.726562 29.882812 0.699219 29.757812 C -0.589844 23.433594 0.882812 16.664062 4.390625 11.296875 C 4.550781 11.070312 4.710938 10.847656 4.875 10.625 C 4.964844 10.5 5.054688 10.375 5.148438 10.246094 C 5.746094 9.4375 6.390625 8.6875 7.078125 7.953125 C 7.191406 7.832031 7.191406 7.832031 7.308594 7.707031 C 10.234375 4.621094 14.074219 2.457031 18.125 1.25 C 18.277344 1.203125 18.433594 1.15625 18.589844 1.105469 C 19.058594 0.972656 19.523438 0.851562 20 0.75 C 20.085938 0.730469 20.171875 0.710938 20.261719 0.691406 C 26.746094 -0.648438 34.058594 0.941406 39.375 4.875 Z M 39.375 4.875 "/>
<path style=" stroke:none;fill-rule:nonzero;fill:rgb(99.607843%,99.215686%,99.607843%);fill-opacity:1;" d="M 24.613281 2.09375 C 25 2.09375 25.382812 2.09375 25.765625 2.089844 C 28.339844 2.089844 28.339844 2.089844 29.5 2.375 C 29.542969 2.417969 29.582031 2.457031 29.625 2.5 C 29.757812 2.519531 29.894531 2.535156 30.03125 2.554688 C 30.449219 2.617188 30.742188 2.710938 31.125 2.875 C 31.332031 2.933594 31.539062 2.992188 31.742188 3.050781 C 33.542969 3.570312 35.152344 4.28125 36.75 5.25 C 36.878906 5.324219 37.007812 5.402344 37.136719 5.480469 C 41.121094 7.921875 45.167969 12.121094 46.421875 16.714844 C 46.515625 17.050781 46.640625 17.371094 46.765625 17.695312 C 46.914062 18.105469 47.050781 18.515625 47.1875 18.929688 C 47.238281 19.082031 47.289062 19.234375 47.339844 19.390625 C 47.828125 21.128906 47.933594 22.828125 47.925781 24.625 C 47.921875 25 47.925781 25.375 47.925781 25.75 C 47.929688 27.488281 47.835938 29.203125 47.226562 30.847656 C 47.101562 31.195312 46.992188 31.542969 46.886719 31.894531 C 46.339844 33.636719 45.71875 35.203125 44.75 36.75 C 44.675781 36.875 44.601562 37 44.523438 37.132812 C 43.976562 38.039062 43.320312 38.859375 42.652344 39.683594 C 42.523438 39.847656 42.398438 40.015625 42.277344 40.183594 C 42.09375 40.429688 42.09375 40.429688 41.75 40.75 C 39.699219 40.867188 36.847656 38.652344 35.375 37.375 C 34.84375 36.875 34.359375 36.351562 33.90625 35.78125 C 33.617188 35.417969 33.335938 35.070312 33 34.75 C 33.175781 34.316406 33.328125 34.191406 33.75 34 C 33.84375 34.105469 33.9375 34.207031 34.03125 34.316406 C 34.15625 34.453125 34.28125 34.589844 34.40625 34.726562 C 34.46875 34.796875 34.527344 34.863281 34.59375 34.933594 C 35.15625 35.597656 35.15625 35.597656 35.929688 35.921875 C 37.109375 35.898438 38.164062 35.710938 39.25 35.25 C 39.386719 35.195312 39.386719 35.195312 39.523438 35.136719 C 40.207031 34.84375 40.855469 34.496094 41.5 34.125 C 40.910156 33.652344 40.417969 33.414062 39.691406 33.21875 C 39.285156 33.097656 38.914062 32.929688 38.53125 32.75 C 38.253906 32.621094 38.253906 32.621094 37.96875 32.527344 C 35.144531 31.535156 32.902344 29.050781 31.125 26.75 C 31.332031 26.542969 31.539062 26.335938 31.75 26.125 C 31.832031 26.210938 31.914062 26.296875 32 26.382812 C 32.058594 26.4375 32.117188 26.496094 32.175781 26.554688 C 32.316406 26.691406 32.457031 26.839844 32.589844 26.988281 C 33.050781 27.453125 33.378906 27.683594 34.046875 27.703125 C 35.136719 27.625 36.078125 27.238281 37.058594 26.773438 C 37.273438 26.671875 37.488281 26.578125 37.710938 26.492188 C 38.015625 26.367188 38.242188 26.207031 38.5 26 C 38.488281 25.757812 38.488281 25.757812 38.375 25.5 C 38.082031 25.316406 38.082031 25.316406 37.710938 25.1875 C 37.574219 25.132812 37.4375 25.082031 37.296875 25.027344 C 36.921875 24.890625 36.542969 24.773438 36.164062 24.65625 C 34.53125 24.125 33.070312 23.207031 31.75 22.125 C 31.660156 22.054688 31.570312 21.980469 31.476562 21.910156 C 30.855469 21.398438 30.367188 20.808594 29.871094 20.183594 C 29.640625 19.878906 29.640625 19.878906 29.402344 19.667969 C 29.351562 19.613281 29.300781 19.558594 29.25 19.5 C 29.289062 19.164062 29.289062 19.164062 29.375 18.875 C 29.65625 18.777344 29.65625 18.777344 30 18.75 C 30.261719 18.980469 30.261719 18.980469 30.507812 19.296875 C 30.820312 19.71875 30.820312 19.71875 31.257812 19.972656 C 32.902344 20.167969 34.214844 19.453125 35.5 18.5 C 35.457031 18.375 35.417969 18.253906 35.375 18.125 C 35.105469 18.019531 35.105469 18.019531 34.773438 17.953125 C 32.066406 17.261719 29.691406 15.265625 28.25 12.875 C 28.203125 12.800781 28.15625 12.726562 28.109375 12.648438 C 27.214844 11.195312 26.640625 9.703125 26.113281 8.082031 C 25.960938 7.640625 25.785156 7.207031 25.609375 6.769531 C 25.488281 6.46875 25.378906 6.167969 25.28125 5.859375 C 25.25 5.765625 25.21875 5.671875 25.1875 5.578125 C 25.167969 5.511719 25.148438 5.445312 25.125 5.375 C 25.042969 5.375 24.960938 5.375 24.875 5.375 C 24.546875 6.140625 24.234375 6.90625 23.960938 7.695312 C 23.597656 8.726562 23.171875 9.730469 22.738281 10.734375 C 22.667969 10.90625 22.59375 11.074219 22.523438 11.242188 C 21.476562 13.71875 19.460938 16.265625 16.914062 17.320312 C 16.527344 17.46875 16.140625 17.609375 15.75 17.75 C 15.503906 17.839844 15.261719 17.929688 15.015625 18.023438 C 14.917969 18.058594 14.820312 18.09375 14.71875 18.128906 C 14.457031 18.242188 14.457031 18.242188 14.375 18.625 C 14.5 18.667969 14.5 18.667969 14.625 18.710938 C 14.941406 18.847656 15.191406 18.992188 15.476562 19.179688 C 16.433594 19.785156 17.359375 20.019531 18.5 20 C 19.242188 19.789062 19.65625 19.210938 20.125 18.625 C 20.519531 18.796875 20.625 18.875 20.875 19.25 C 20.660156 19.503906 20.449219 19.753906 20.234375 20.007812 C 20.175781 20.078125 20.117188 20.148438 20.054688 20.21875 C 19.933594 20.363281 19.808594 20.507812 19.6875 20.652344 C 19.5625 20.800781 19.441406 20.949219 19.316406 21.101562 C 18.882812 21.632812 18.417969 22.039062 17.859375 22.4375 C 17.738281 22.527344 17.738281 22.527344 17.609375 22.617188 C 16.265625 23.570312 14.871094 24.3125 13.296875 24.8125 C 12.664062 25.011719 12.085938 25.316406 11.5 25.625 C 11.535156 25.867188 11.535156 25.867188 11.625 26.125 C 11.917969 26.320312 12.1875 26.472656 12.5 26.625 C 12.589844 26.667969 12.675781 26.714844 12.769531 26.757812 C 13.347656 27.03125 13.902344 27.207031 14.53125 27.324219 C 14.75 27.375 14.75 27.375 14.875 27.5 C 15.933594 27.714844 15.933594 27.714844 16.945312 27.460938 C 17.199219 27.238281 17.414062 27.011719 17.625 26.75 C 17.726562 26.628906 17.832031 26.507812 17.9375 26.382812 C 18 26.296875 18.0625 26.210938 18.125 26.125 C 18.484375 26.195312 18.609375 26.234375 18.875 26.5 C 18.832031 26.890625 18.6875 27.117188 18.429688 27.40625 C 18.367188 27.480469 18.300781 27.554688 18.234375 27.628906 C 18.167969 27.707031 18.101562 27.78125 18.03125 27.859375 C 17.898438 28.011719 17.765625 28.160156 17.632812 28.3125 C 17.570312 28.386719 17.503906 28.457031 17.4375 28.535156 C 17.265625 28.730469 17.101562 28.933594 16.9375 29.140625 C 16.59375 29.535156 16.234375 29.847656 15.820312 30.164062 C 15.746094 30.222656 15.667969 30.28125 15.589844 30.34375 C 13.902344 31.632812 12.179688 32.5 10.1875 33.214844 C 10.058594 33.265625 9.929688 33.3125 9.792969 33.359375 C 9.621094 33.421875 9.621094 33.421875 9.441406 33.488281 C 9.128906 33.625 8.894531 33.792969 8.625 34 C 8.542969 34 8.460938 34 8.375 34 C 9.417969 35.144531 11.511719 35.691406 13 35.875 C 13.121094 35.894531 13.242188 35.914062 13.367188 35.933594 C 13.976562 35.988281 14.347656 35.984375 14.855469 35.617188 C 15.363281 35.113281 15.804688 34.5625 16.25 34 C 16.683594 34.175781 16.808594 34.328125 17 34.75 C 16.929688 34.828125 16.859375 34.90625 16.785156 34.988281 C 16.6875 35.09375 16.589844 35.203125 16.492188 35.3125 C 16.390625 35.425781 16.285156 35.542969 16.179688 35.660156 C 15.925781 35.941406 15.683594 36.226562 15.4375 36.515625 C 13.855469 38.320312 11.851562 39.367188 9.625 40.171875 C 9.492188 40.222656 9.492188 40.222656 9.351562 40.273438 C 8.445312 40.589844 8.445312 40.589844 8 40.5 C 7.738281 40.261719 7.738281 40.261719 7.476562 39.921875 C 7.378906 39.796875 7.28125 39.667969 7.183594 39.539062 C 7.078125 39.402344 6.976562 39.261719 6.875 39.125 C 6.824219 39.058594 6.773438 38.988281 6.71875 38.921875 C 5.917969 37.859375 5.246094 36.753906 4.617188 35.585938 C 4.472656 35.328125 4.320312 35.078125 4.164062 34.828125 C 3.714844 34.03125 3.480469 33.117188 3.210938 32.246094 C 3.128906 31.992188 3.128906 31.992188 2.992188 31.742188 C 2.875 31.5 2.875 31.5 2.820312 31.101562 C 2.765625 30.726562 2.699219 30.457031 2.570312 30.109375 C 2.050781 28.585938 2.082031 27.003906 2.085938 25.414062 C 2.085938 25.035156 2.082031 24.65625 2.078125 24.277344 C 2.074219 22.613281 2.109375 20.933594 2.75 19.375 C 2.769531 19.234375 2.785156 19.097656 2.804688 18.953125 C 2.867188 18.539062 2.984375 18.234375 3.152344 17.855469 C 3.296875 17.511719 3.394531 17.15625 3.5 16.796875 C 4.054688 15.042969 5.003906 13.328125 6.125 11.875 C 6.207031 11.757812 6.289062 11.644531 6.375 11.527344 C 7.097656 10.53125 7.902344 9.636719 8.75 8.75 C 8.871094 8.621094 8.871094 8.621094 8.992188 8.492188 C 9.609375 7.851562 10.304688 7.304688 11 6.75 C 11.101562 6.667969 11.203125 6.585938 11.308594 6.5 C 11.449219 6.386719 11.449219 6.386719 11.59375 6.273438 C 11.675781 6.207031 11.757812 6.144531 11.839844 6.074219 C 12.210938 5.8125 12.605469 5.597656 13 5.375 C 13.144531 5.292969 13.289062 5.207031 13.433594 5.125 C 14.507812 4.503906 15.511719 3.925781 16.714844 3.589844 C 17.019531 3.503906 17.019531 3.503906 17.351562 3.3125 C 17.875 3.066406 18.40625 2.964844 18.972656 2.84375 C 19.304688 2.765625 19.617188 2.671875 19.9375 2.554688 C 21.449219 2.039062 23.039062 2.085938 24.613281 2.09375 Z M 24.613281 2.09375 "/>
<path style=" stroke:none;fill-rule:nonzero;fill:rgb(65.098041%,31.764707%,54.901963%);fill-opacity:1;" d="M 39.375 4.875 C 39.441406 4.925781 39.507812 4.972656 39.578125 5.023438 C 40.320312 5.570312 41.039062 6.125 41.675781 6.796875 C 41.898438 7.023438 42.132812 7.222656 42.375 7.429688 C 42.886719 7.871094 43.316406 8.355469 43.75 8.875 C 43.835938 8.976562 43.921875 9.074219 44.011719 9.179688 C 44.742188 10.046875 45.378906 10.960938 45.988281 11.914062 C 46.101562 12.089844 46.214844 12.261719 46.332031 12.433594 C 47.441406 14.167969 48.160156 16.164062 48.75 18.125 C 48.796875 18.277344 48.84375 18.433594 48.894531 18.589844 C 49.027344 19.058594 49.148438 19.523438 49.25 20 C 49.269531 20.085938 49.289062 20.171875 49.308594 20.261719 C 50.570312 26.355469 49.175781 32.8125 45.992188 38.085938 C 45.945312 38.167969 45.894531 38.25 45.84375 38.335938 C 45.578125 38.765625 45.328125 39.058594 44.90625 39.347656 C 44.472656 39.585938 44.472656 39.585938 44.375 40 C 44.125 40.082031 43.875 40.167969 43.625 40.25 C 43.582031 40.375 43.542969 40.496094 43.5 40.625 C 43.375 40.5 43.253906 40.378906 43.125 40.25 C 43 40.332031 42.878906 40.414062 42.75 40.5 C 42.75 40.582031 42.75 40.664062 42.75 40.75 C 42.625 40.707031 42.503906 40.667969 42.375 40.625 C 42.332031 40.542969 42.292969 40.460938 42.25 40.375 C 42.167969 40.332031 42.085938 40.292969 42 40.25 C 42.0625 40.183594 42.121094 40.121094 42.183594 40.050781 C 43.289062 38.835938 44.175781 37.519531 44.992188 36.101562 C 45.109375 35.898438 45.234375 35.703125 45.355469 35.503906 C 46.097656 34.25 46.476562 32.863281 46.894531 31.476562 C 46.980469 31.1875 47.070312 30.902344 47.164062 30.617188 C 47.734375 28.886719 47.792969 27.21875 47.789062 25.414062 C 47.789062 25.035156 47.792969 24.65625 47.796875 24.277344 C 47.800781 22.277344 47.585938 20.425781 46.929688 18.527344 C 46.800781 18.152344 46.679688 17.777344 46.558594 17.402344 C 45.996094 15.671875 45.296875 13.914062 44.125 12.5 C 44 12.292969 43.875 12.085938 43.75 11.875 C 41.695312 8.875 38.980469 6.707031 35.875 4.875 C 35.664062 4.75 35.664062 4.75 35.449219 4.617188 C 34.210938 3.910156 32.878906 3.496094 31.515625 3.113281 C 31.125 3 31.125 3 30.8125 2.867188 C 30.421875 2.722656 30.035156 2.679688 29.625 2.625 C 29.582031 2.582031 29.542969 2.542969 29.5 2.5 C 28.164062 2.171875 26.78125 2.207031 25.414062 2.210938 C 25.035156 2.210938 24.65625 2.207031 24.277344 2.203125 C 22.203125 2.199219 20.351562 2.46875 18.375 3.125 C 18.152344 3.191406 17.925781 3.257812 17.703125 3.320312 C 17.199219 3.46875 16.730469 3.660156 16.25 3.875 C 16.0625 3.945312 15.875 4.015625 15.6875 4.085938 C 15.113281 4.3125 14.570312 4.585938 14.023438 4.875 C 13.945312 4.917969 13.863281 4.957031 13.785156 5 C 13.3125 5.253906 12.910156 5.535156 12.5 5.875 C 12.371094 5.945312 12.242188 6.015625 12.109375 6.085938 C 11.421875 6.464844 10.847656 7 10.25 7.5 C 10.042969 7.667969 9.832031 7.835938 9.625 8 C 9.460938 7.917969 9.296875 7.835938 9.125 7.75 C 9.207031 7.585938 9.289062 7.421875 9.375 7.25 C 9.457031 7.25 9.539062 7.25 9.625 7.25 C 9.667969 7.085938 9.707031 6.921875 9.75 6.75 C 9.625 6.707031 9.503906 6.667969 9.375 6.625 C 9.289062 6.367188 9.289062 6.367188 9.25 6.125 C 9.953125 5.644531 9.953125 5.644531 10.289062 5.5 C 10.394531 5.4375 10.394531 5.4375 10.5 5.375 C 10.511719 5.300781 10.519531 5.226562 10.53125 5.148438 C 10.933594 3.96875 13.84375 2.933594 14.894531 2.417969 C 16.519531 1.652344 18.25 1.132812 20 0.75 C 20.09375 0.730469 20.1875 0.707031 20.28125 0.6875 C 26.75 -0.664062 34.074219 0.957031 39.375 4.875 Z M 39.375 4.875 "/>
<path style=" stroke:none;fill-rule:nonzero;fill:rgb(98.431373%,97.647059%,98.431373%);fill-opacity:1;" d="M 23.75 42.125 C 23.753906 42.921875 23.753906 43.722656 23.757812 44.519531 C 23.757812 44.792969 23.757812 45.066406 23.757812 45.335938 C 23.761719 45.726562 23.761719 46.117188 23.761719 46.507812 C 23.761719 46.628906 23.761719 46.753906 23.765625 46.878906 C 23.765625 46.992188 23.765625 47.101562 23.765625 47.21875 C 23.765625 47.320312 23.765625 47.417969 23.765625 47.519531 C 23.75 47.75 23.75 47.75 23.625 47.875 C 22.285156 47.972656 20.933594 47.8125 19.671875 47.347656 C 19.3125 47.230469 18.953125 47.15625 18.585938 47.078125 C 17.886719 46.921875 17.257812 46.695312 16.601562 46.40625 C 16.289062 46.265625 15.972656 46.144531 15.648438 46.023438 C 15.085938 45.800781 14.554688 45.53125 14.023438 45.25 C 13.945312 45.207031 13.863281 45.167969 13.78125 45.125 C 13.3125 44.871094 12.90625 44.589844 12.5 44.25 C 12.292969 44.125 12.082031 44 11.875 43.875 C 11.714844 43.769531 11.554688 43.664062 11.398438 43.554688 C 11.324219 43.503906 11.246094 43.453125 11.167969 43.398438 C 11.113281 43.347656 11.058594 43.300781 11 43.25 C 11 43.167969 11 43.085938 11 43 C 11.984375 43.109375 11.984375 43.109375 12.125 43.25 C 15 43.722656 18.003906 43.585938 20.84375 42.960938 C 21.007812 42.925781 21.007812 42.925781 21.175781 42.890625 C 21.882812 42.722656 22.476562 42.46875 23.109375 42.113281 C 23.375 42 23.375 42 23.75 42.125 Z M 23.75 42.125 "/>
<path style=" stroke:none;fill-rule:nonzero;fill:rgb(98.823529%,98.431373%,98.823529%);fill-opacity:1;" d="M 26.375 42 C 26.875 42.25 26.875 42.25 27.265625 42.492188 C 28.394531 43.132812 29.738281 43.289062 31 43.5 C 31.097656 43.515625 31.199219 43.535156 31.300781 43.550781 C 32.929688 43.78125 34.597656 43.625 36.226562 43.453125 C 36.457031 43.429688 36.457031 43.429688 36.691406 43.40625 C 36.835938 43.390625 36.980469 43.375 37.128906 43.355469 C 37.257812 43.34375 37.386719 43.328125 37.519531 43.3125 C 37.878906 43.261719 37.878906 43.261719 38.203125 43.117188 C 38.5 43 38.5 43 39 43 C 39 43.082031 39 43.164062 39 43.25 C 38.132812 43.984375 37.085938 44.546875 36.105469 45.117188 C 35.894531 45.238281 35.683594 45.363281 35.472656 45.488281 C 34.511719 46.039062 33.535156 46.390625 32.484375 46.71875 C 32.21875 46.800781 31.992188 46.878906 31.742188 47.007812 C 31.363281 47.191406 30.953125 47.246094 30.539062 47.320312 C 29.972656 47.378906 29.972656 47.378906 29.5 47.625 C 29.257812 47.675781 29.015625 47.71875 28.773438 47.757812 C 28.640625 47.78125 28.507812 47.800781 28.371094 47.824219 C 27.710938 47.890625 27.042969 47.875 26.375 47.875 C 26.375 45.9375 26.375 43.996094 26.375 42 Z M 26.375 42 "/>
<path style=" stroke:none;fill-rule:nonzero;fill:rgb(61.176473%,32.156864%,51.372552%);fill-opacity:1;" d="M 45 39.125 C 45.082031 39.167969 45.164062 39.207031 45.25 39.25 C 43.832031 41.097656 43.832031 41.097656 43 41.875 C 43 41.5 43 41.5 43.25 41.125 C 43.332031 41.125 43.414062 41.125 43.5 41.125 C 43.457031 40.960938 43.417969 40.796875 43.375 40.625 C 43.457031 40.625 43.539062 40.625 43.625 40.625 C 43.625 40.5 43.625 40.378906 43.625 40.25 C 43.875 40.039062 43.875 40.039062 44.125 39.875 C 44.207031 39.917969 44.289062 39.957031 44.375 40 C 44.386719 39.925781 44.394531 39.851562 44.40625 39.773438 C 44.527344 39.425781 44.695312 39.320312 45 39.125 Z M 45 39.125 "/>
<path style=" stroke:none;fill-rule:nonzero;fill:rgb(58.039218%,34.117648%,49.803922%);fill-opacity:1;" d="M 20.25 49.125 C 20.496094 49.121094 20.746094 49.121094 20.992188 49.117188 C 21.128906 49.117188 21.269531 49.113281 21.410156 49.113281 C 21.75 49.125 21.75 49.125 21.875 49.25 C 22.019531 49.25 22.164062 49.25 22.3125 49.25 C 22.457031 49.25 22.601562 49.25 22.75 49.25 C 22.792969 49.292969 22.832031 49.332031 22.875 49.375 C 23.199219 49.386719 23.519531 49.390625 23.84375 49.386719 C 23.941406 49.386719 24.039062 49.386719 24.136719 49.386719 C 24.449219 49.386719 24.757812 49.382812 25.070312 49.382812 C 25.28125 49.382812 25.492188 49.382812 25.699219 49.382812 C 26.21875 49.378906 26.734375 49.378906 27.25 49.375 C 27.3125 49.5 27.3125 49.5 27.375 49.625 C 22.195312 49.703125 22.195312 49.703125 20.25 49.25 C 20.25 49.207031 20.25 49.167969 20.25 49.125 Z M 20.25 49.125 "/>
<path style=" stroke:none;fill-rule:nonzero;fill:rgb(58.823532%,32.549021%,49.411765%);fill-opacity:1;" d="M 24.875 0.375 C 27.0625 0.285156 29.273438 0.46875 31.375 1.125 C 31.332031 1.207031 31.292969 1.289062 31.25 1.375 C 31.171875 1.351562 31.09375 1.328125 31.011719 1.300781 C 29.328125 0.765625 29.328125 0.765625 27.625 0.875 C 27.625 0.792969 27.625 0.710938 27.625 0.625 C 27.5 0.667969 27.378906 0.707031 27.25 0.75 C 27.207031 0.707031 27.167969 0.667969 27.125 0.625 C 26.957031 0.605469 26.789062 0.59375 26.621094 0.585938 C 26.519531 0.582031 26.417969 0.574219 26.3125 0.570312 C 26.207031 0.566406 26.101562 0.558594 25.992188 0.554688 C 25.886719 0.550781 25.777344 0.542969 25.667969 0.539062 C 25.402344 0.523438 25.140625 0.511719 24.875 0.5 C 24.875 0.457031 24.875 0.417969 24.875 0.375 Z M 24.875 0.375 "/>
<path style=" stroke:none;fill-rule:nonzero;fill:rgb(57.254905%,34.509805%,49.803922%);fill-opacity:1;" d="M 0.5 22.375 C 0.582031 22.5 0.664062 22.621094 0.75 22.75 C 0.667969 22.75 0.585938 22.75 0.5 22.75 C 0.515625 23.339844 0.53125 23.933594 0.546875 24.523438 C 0.550781 24.726562 0.558594 24.925781 0.5625 25.128906 C 0.570312 25.417969 0.578125 25.707031 0.585938 25.996094 C 0.585938 26.085938 0.589844 26.175781 0.589844 26.265625 C 0.601562 26.660156 0.628906 27.03125 0.699219 27.417969 C 0.757812 27.792969 0.703125 27.9375 0.5 28.25 C 0.386719 27.582031 0.355469 26.9375 0.359375 26.257812 C 0.359375 26.15625 0.359375 26.050781 0.359375 25.945312 C 0.359375 25.726562 0.359375 25.511719 0.359375 25.292969 C 0.359375 24.960938 0.359375 24.625 0.359375 24.292969 C 0.359375 24.082031 0.359375 23.871094 0.359375 23.65625 C 0.359375 23.558594 0.359375 23.457031 0.359375 23.355469 C 0.359375 22.652344 0.359375 22.652344 0.5 22.375 Z M 0.5 22.375 "/>
<path style=" stroke:none;fill-rule:nonzero;fill:rgb(58.039218%,32.941177%,49.803922%);fill-opacity:1;" d="M 24.75 0.375 C 24.75 0.417969 24.75 0.457031 24.75 0.5 C 24.679688 0.507812 24.609375 0.515625 24.539062 0.519531 C 24.214844 0.554688 23.894531 0.585938 23.570312 0.617188 C 23.460938 0.628906 23.351562 0.640625 23.238281 0.648438 C 22.707031 0.703125 22.175781 0.757812 21.644531 0.820312 C 21.09375 0.882812 20.554688 0.882812 20 0.875 C 20 0.832031 20 0.792969 20 0.75 C 21.59375 0.484375 23.132812 0.316406 24.75 0.375 Z M 24.75 0.375 "/>
<path style=" stroke:none;fill-rule:nonzero;fill:rgb(68.235296%,41.176471%,60.784316%);fill-opacity:1;" d="M 24.875 5.25 C 25 5.292969 25.121094 5.332031 25.25 5.375 C 25.398438 5.820312 25.398438 5.820312 25.5 6.25 C 24.941406 6.3125 24.941406 6.3125 24.375 6.375 C 24.507812 5.949219 24.625 5.625 24.875 5.25 Z M 24.875 5.25 "/>
<path style=" stroke:none;fill-rule:nonzero;fill:rgb(69.01961%,41.960785%,60.784316%);fill-opacity:1;" d="M 10.375 33.25 C 10.214844 33.574219 10.082031 33.613281 9.75 33.75 C 9.640625 33.765625 9.535156 33.78125 9.421875 33.796875 C 9.101562 33.84375 9.101562 33.84375 8.960938 34.132812 C 8.933594 34.210938 8.902344 34.292969 8.875 34.375 C 8.710938 34.332031 8.546875 34.292969 8.375 34.25 C 8.375 34.167969 8.375 34.085938 8.375 34 C 8.867188 33.609375 9.757812 32.941406 10.375 33.25 Z M 10.375 33.25 "/>
<path style=" stroke:none;fill-rule:nonzero;fill:rgb(58.431375%,33.333334%,49.411765%);fill-opacity:1;" d="M 10.5 5.125 C 10.5 5.207031 10.5 5.289062 10.5 5.375 C 10.15625 5.6875 9.832031 5.953125 9.429688 6.1875 C 9.101562 6.371094 9.101562 6.371094 8.8125 6.695312 C 8.503906 6.996094 8.28125 7.121094 7.875 7.25 C 9.929688 5.125 9.929688 5.125 10.5 5.125 Z M 10.5 5.125 "/>
<path style=" stroke:none;fill-rule:nonzero;fill:rgb(67.058825%,40.000001%,58.823532%);fill-opacity:1;" d="M 11.625 25.375 C 11.707031 25.417969 11.789062 25.457031 11.875 25.5 C 11.832031 25.707031 11.792969 25.914062 11.75 26.125 C 11.832031 26.125 11.914062 26.125 12 26.125 C 12.042969 26 12.082031 25.878906 12.125 25.75 C 12.207031 25.792969 12.289062 25.832031 12.375 25.875 C 12.332031 26.039062 12.292969 26.203125 12.25 26.375 C 12.414062 26.457031 12.578125 26.539062 12.75 26.625 C 12.625 26.6875 12.625 26.6875 12.5 26.75 C 12.070312 26.527344 11.71875 26.34375 11.375 26 C 11.441406 25.558594 11.441406 25.558594 11.625 25.375 Z M 11.625 25.375 "/>
<path style=" stroke:none;fill-rule:nonzero;fill:rgb(68.235296%,40.392157%,60.000002%);fill-opacity:1;" d="M 22.75 10.5 C 23 10.875 23 10.875 22.964844 11.113281 C 22.742188 11.695312 22.539062 12.023438 22 12.375 C 22.199219 11.726562 22.46875 11.117188 22.75 10.5 Z M 22.75 10.5 "/>
<path style=" stroke:none;fill-rule:nonzero;fill:rgb(66.666669%,38.431373%,58.823532%);fill-opacity:1;" d="M 30.25 20.625 C 30.335938 20.714844 30.425781 20.804688 30.515625 20.898438 C 30.867188 21.25 31.242188 21.5625 31.625 21.875 C 31.203125 21.875 30.894531 21.765625 30.5 21.625 C 30.476562 21.476562 30.476562 21.476562 30.453125 21.328125 C 30.402344 20.984375 30.402344 20.984375 30.125 20.75 C 30.167969 20.707031 30.207031 20.667969 30.25 20.625 Z M 30.25 20.625 "/>
<path style=" stroke:none;fill-rule:nonzero;fill:rgb(60.392159%,32.941177%,50.196081%);fill-opacity:1;" d="M 2.125 15.625 C 2.207031 15.625 2.289062 15.625 2.375 15.625 C 2.035156 16.660156 2.035156 16.660156 1.859375 17.09375 C 1.738281 17.378906 1.738281 17.378906 1.6875 17.71875 C 1.667969 17.8125 1.644531 17.90625 1.625 18 C 1.542969 18.042969 1.460938 18.082031 1.375 18.125 C 1.4375 17.230469 1.789062 16.449219 2.125 15.625 Z M 2.125 15.625 "/>
<path style=" stroke:none;fill-rule:nonzero;fill:rgb(62.7451%,31.37255%,50.196081%);fill-opacity:1;" d="M 48.875 30.625 C 49.027344 31.078125 48.953125 31.257812 48.820312 31.710938 C 48.785156 31.835938 48.75 31.960938 48.710938 32.085938 C 48.683594 32.183594 48.65625 32.277344 48.625 32.375 C 48.589844 32.296875 48.554688 32.214844 48.515625 32.132812 C 48.394531 31.855469 48.394531 31.855469 48.125 31.75 C 48.167969 31.667969 48.207031 31.585938 48.25 31.5 C 48.332031 31.5 48.414062 31.5 48.5 31.5 C 48.539062 31.402344 48.578125 31.304688 48.617188 31.203125 C 48.75 30.875 48.75 30.875 48.875 30.625 Z M 48.875 30.625 "/>
<path style=" stroke:none;fill-rule:nonzero;fill:rgb(66.274512%,37.254903%,59.215689%);fill-opacity:1;" d="M 31.75 26.125 C 32.578125 26.21875 32.578125 26.21875 33 26.5 C 32.917969 26.707031 32.835938 26.914062 32.75 27.125 C 32.535156 26.964844 32.328125 26.796875 32.125 26.625 C 32.125 26.542969 32.125 26.460938 32.125 26.375 C 32 26.332031 31.878906 26.292969 31.75 26.25 C 31.75 26.207031 31.75 26.167969 31.75 26.125 Z M 31.75 26.125 "/>
<path style=" stroke:none;fill-rule:nonzero;fill:rgb(58.823532%,33.333334%,50.980395%);fill-opacity:1;" d="M 41.875 7.125 C 42.359375 7.320312 42.628906 7.625 42.96875 8.015625 C 43.117188 8.1875 43.117188 8.1875 43.273438 8.359375 C 43.382812 8.492188 43.382812 8.492188 43.5 8.625 C 43.125 8.625 43.125 8.625 42.945312 8.46875 C 42.882812 8.398438 42.816406 8.324219 42.75 8.25 C 42.667969 8.167969 42.585938 8.085938 42.5 8 C 42.417969 7.917969 42.335938 7.835938 42.25 7.75 C 42.179688 7.683594 42.105469 7.617188 42.03125 7.546875 C 41.875 7.375 41.875 7.375 41.875 7.125 Z M 41.875 7.125 "/>
<path style=" stroke:none;fill-rule:nonzero;fill:rgb(60.392159%,32.941177%,49.411765%);fill-opacity:1;" d="M 32 1.375 C 32.839844 1.539062 33.589844 1.789062 34.375 2.125 C 34.375 2.207031 34.375 2.289062 34.375 2.375 C 33.523438 2.167969 32.769531 1.921875 32 1.5 C 32 1.457031 32 1.417969 32 1.375 Z M 32 1.375 "/>
<path style=" stroke:none;fill-rule:nonzero;fill:rgb(67.450982%,36.862746%,57.647061%);fill-opacity:1;" d="M 39.75 7.375 C 39.996094 7.457031 40.246094 7.539062 40.5 7.625 C 40.5 7.707031 40.5 7.789062 40.5 7.875 C 40.625 7.875 40.746094 7.875 40.875 7.875 C 41.085938 8.125 41.085938 8.125 41.25 8.375 C 41.125 8.417969 41.003906 8.457031 40.875 8.5 C 40.6875 8.335938 40.5 8.171875 40.3125 8.007812 C 40.207031 7.917969 40.105469 7.824219 39.996094 7.730469 C 39.914062 7.65625 39.832031 7.578125 39.75 7.5 C 39.75 7.457031 39.75 7.417969 39.75 7.375 Z M 39.75 7.375 "/>
<path style=" stroke:none;fill-rule:nonzero;fill:rgb(60.000002%,32.156864%,49.019608%);fill-opacity:1;" d="M 17.875 1.375 C 17.875 1.457031 17.875 1.539062 17.875 1.625 C 17.359375 1.847656 16.828125 2.007812 16.289062 2.164062 C 16.066406 2.230469 15.84375 2.300781 15.625 2.375 C 15.625 2.292969 15.625 2.210938 15.625 2.125 C 15.953125 2 16.28125 1.875 16.609375 1.75 C 16.703125 1.714844 16.796875 1.679688 16.890625 1.640625 C 17.597656 1.375 17.597656 1.375 17.875 1.375 Z M 17.875 1.375 "/>
<path style=" stroke:none;fill-rule:nonzero;fill:rgb(60.000002%,32.549021%,49.803922%);fill-opacity:1;" d="M 12 4.125 C 12 4.207031 12 4.289062 12 4.375 C 11.917969 4.375 11.835938 4.375 11.75 4.375 C 11.707031 4.539062 11.667969 4.703125 11.625 4.875 C 11.242188 4.941406 10.890625 5 10.5 5 C 10.703125 4.851562 10.90625 4.707031 11.109375 4.5625 C 11.222656 4.480469 11.335938 4.398438 11.453125 4.316406 C 11.75 4.125 11.75 4.125 12 4.125 Z M 12 4.125 "/>
<path style=" stroke:none;fill-rule:nonzero;fill:rgb(60.000002%,32.156864%,49.411765%);fill-opacity:1;" d="M 1.25 18.25 C 1.332031 18.414062 1.414062 18.578125 1.5 18.75 C 1.375 18.9375 1.375 18.9375 1.25 19.125 C 1.175781 19.382812 1.109375 19.640625 1.046875 19.898438 C 1.015625 20.035156 0.980469 20.171875 0.949219 20.308594 C 0.925781 20.414062 0.898438 20.519531 0.875 20.625 C 0.832031 20.625 0.792969 20.625 0.75 20.625 C 0.816406 19.789062 0.984375 19.046875 1.25 18.25 Z M 1.25 18.25 "/>
<path style=" stroke:none;fill-rule:nonzero;fill:rgb(71.372551%,44.705883%,63.137257%);fill-opacity:1;" d="M 19 47.125 C 19.453125 47.207031 19.90625 47.289062 20.375 47.375 C 19.988281 47.632812 19.910156 47.65625 19.476562 47.640625 C 19.242188 47.632812 19.242188 47.632812 19 47.625 C 19 47.460938 19 47.296875 19 47.125 Z M 19 47.125 "/>
<path style=" stroke:none;fill-rule:nonzero;fill:rgb(67.450982%,36.470589%,58.039218%);fill-opacity:1;" d="M 40.375 33.375 C 40.929688 33.550781 41.234375 33.824219 41.625 34.25 C 41.316406 34.125 41.316406 34.125 41 34 C 40.957031 34.082031 40.917969 34.164062 40.875 34.25 C 40.375 33.65625 40.375 33.65625 40.375 33.375 Z M 40.375 33.375 "/>
<path style=" stroke:none;fill-rule:nonzero;fill:rgb(67.450982%,38.039216%,58.431375%);fill-opacity:1;" d="M 38.375 25.5 C 38.457031 25.542969 38.539062 25.582031 38.625 25.625 C 38.582031 26.03125 38.496094 26.128906 38.179688 26.40625 C 38.027344 26.515625 38.027344 26.515625 37.875 26.625 C 37.792969 26.582031 37.710938 26.542969 37.625 26.5 C 37.871094 26.171875 38.121094 25.839844 38.375 25.5 Z M 38.375 25.5 "/>
<path style=" stroke:none;fill-rule:nonzero;fill:rgb(68.627453%,38.039216%,58.823532%);fill-opacity:1;" d="M 45.375 35.375 C 45.582031 35.375 45.789062 35.375 46 35.375 C 45.707031 35.8125 45.40625 36.046875 45 36.375 C 45.234375 35.65625 45.234375 35.65625 45.375 35.375 Z M 45.375 35.375 "/>
<path style=" stroke:none;fill-rule:nonzero;fill:rgb(67.843139%,38.039216%,59.215689%);fill-opacity:1;" d="M 21.625 12.75 C 21.796875 13.03125 21.878906 13.191406 21.851562 13.523438 C 21.816406 13.597656 21.785156 13.671875 21.75 13.75 C 21.625 13.792969 21.503906 13.832031 21.375 13.875 C 21.292969 13.832031 21.210938 13.792969 21.125 13.75 C 21.292969 13.417969 21.457031 13.082031 21.625 12.75 Z M 21.625 12.75 "/>
<path style=" stroke:none;fill-rule:nonzero;fill:rgb(57.647061%,32.549021%,50.196081%);fill-opacity:1;" d="M 45.25 11 C 45.710938 11.410156 45.976562 11.828125 46.25 12.375 C 46.207031 12.457031 46.167969 12.539062 46.125 12.625 C 45.523438 12.117188 45.390625 11.746094 45.25 11 Z M 45.25 11 "/>
<path style=" stroke:none;fill-rule:nonzero;fill:rgb(69.803923%,40.784314%,60.784316%);fill-opacity:1;" d="M 7.75 40.125 C 7.832031 40.167969 7.914062 40.207031 8 40.25 C 8 40.332031 8 40.414062 8 40.5 C 8.164062 40.542969 8.328125 40.582031 8.5 40.625 C 8.253906 40.75 8.003906 40.871094 7.75 41 C 7.667969 40.917969 7.585938 40.835938 7.5 40.75 C 7.625 40.375 7.625 40.375 7.75 40.125 Z M 7.75 40.125 "/>
<path style=" stroke:none;fill-rule:nonzero;fill:rgb(71.372551%,41.960785%,61.56863%);fill-opacity:1;" d="M 43.625 38.25 C 43.707031 38.414062 43.789062 38.578125 43.875 38.75 C 43.585938 38.996094 43.296875 39.246094 43 39.5 C 42.917969 39.457031 42.835938 39.417969 42.75 39.375 C 43.039062 39.003906 43.328125 38.632812 43.625 38.25 Z M 43.625 38.25 "/>
<path style=" stroke:none;fill-rule:nonzero;fill:rgb(65.882355%,34.117648%,57.254905%);fill-opacity:1;" d="M 12.125 25.125 C 12.207031 25.167969 12.289062 25.207031 12.375 25.25 C 12.25 25.539062 12.128906 25.828125 12 26.125 C 11.917969 26.125 11.835938 26.125 11.75 26.125 C 11.625 25.75 11.625 25.75 11.726562 25.484375 C 11.875 25.25 11.875 25.25 12.125 25.125 Z M 12.125 25.125 "/>
<path style=" stroke:none;fill-rule:nonzero;fill:rgb(67.058825%,38.039216%,58.823532%);fill-opacity:1;" d="M 14.625 18 C 14.75 18 14.871094 18 15 18 C 15 18.207031 15 18.414062 15 18.625 C 14.875 18.667969 14.753906 18.707031 14.625 18.75 C 14.542969 18.707031 14.460938 18.667969 14.375 18.625 C 14.484375 18.140625 14.484375 18.140625 14.625 18 Z M 14.625 18 "/>
<path style=" stroke:none;fill-rule:nonzero;fill:rgb(66.666669%,29.803923%,50.980395%);fill-opacity:1;" d="M 10.625 44.125 C 10.8125 44.289062 10.8125 44.289062 11 44.5 C 11 44.875 11 44.875 10.75 45.25 C 10.5 45 10.5 45 10.476562 44.617188 C 10.5 44.25 10.5 44.25 10.625 44.125 Z M 10.625 44.125 "/>
<path style=" stroke:none;fill-rule:nonzero;fill:rgb(58.039218%,33.333334%,50.196081%);fill-opacity:1;" d="M 6.625 8.5 C 6.707031 8.582031 6.789062 8.664062 6.875 8.75 C 6.683594 8.902344 6.492188 9.050781 6.300781 9.203125 C 6.089844 9.382812 6.089844 9.382812 6 9.75 C 5.875 9.707031 5.753906 9.667969 5.625 9.625 C 5.953125 9.253906 6.285156 8.882812 6.625 8.5 Z M 6.625 8.5 "/>
<path style=" stroke:none;fill-rule:nonzero;fill:rgb(59.215689%,32.549021%,50.196081%);fill-opacity:1;" d="M 28 49.125 C 28.191406 49.136719 28.378906 49.15625 28.570312 49.179688 C 28.671875 49.191406 28.777344 49.207031 28.882812 49.21875 C 28.964844 49.230469 29.042969 49.238281 29.125 49.25 C 29.125 49.292969 29.125 49.332031 29.125 49.375 C 28.546875 49.417969 27.96875 49.457031 27.375 49.5 C 27.539062 49.417969 27.703125 49.335938 27.875 49.25 C 27.917969 49.207031 27.957031 49.167969 28 49.125 Z M 28 49.125 "/>
<path style=" stroke:none;fill-rule:nonzero;fill:rgb(66.666669%,35.686275%,56.470591%);fill-opacity:1;" d="M 36.5 38.25 C 36.746094 38.375 36.996094 38.496094 37.25 38.625 C 37.25 38.75 37.25 38.871094 37.25 39 C 37.15625 38.960938 37.058594 38.921875 36.960938 38.882812 C 36.726562 38.789062 36.488281 38.703125 36.25 38.625 C 36.375 38.375 36.375 38.375 36.5 38.25 Z M 36.5 38.25 "/>
<path style=" stroke:none;fill-rule:nonzero;fill:rgb(67.843139%,29.019609%,56.862748%);fill-opacity:1;" d="M 46.5 36.125 C 46.542969 36.25 46.582031 36.371094 46.625 36.5 C 46.707031 36.542969 46.789062 36.582031 46.875 36.625 C 46.710938 36.667969 46.546875 36.707031 46.375 36.75 C 46.375 36.875 46.375 36.996094 46.375 37.125 C 46.25 37.167969 46.128906 37.207031 46 37.25 C 46.132812 36.824219 46.25 36.5 46.5 36.125 Z M 46.5 36.125 "/>
<path style=" stroke:none;fill-rule:nonzero;fill:rgb(68.235296%,36.862746%,59.215689%);fill-opacity:1;" d="M 47.625 29.875 C 47.707031 29.917969 47.789062 29.957031 47.875 30 C 47.792969 30.207031 47.710938 30.414062 47.625 30.625 C 47.5 30.625 47.378906 30.625 47.25 30.625 C 47.296875 30.320312 47.296875 30.320312 47.375 30 C 47.457031 29.957031 47.539062 29.917969 47.625 29.875 Z M 47.625 29.875 "/>
<path style=" stroke:none;fill-rule:nonzero;fill:rgb(68.627453%,43.137255%,61.56863%);fill-opacity:1;" d="M 20.625 19.375 C 20.667969 19.457031 20.707031 19.539062 20.75 19.625 C 20.25 20.445312 20.25 20.445312 19.75 20.625 C 20.03125 20.199219 20.3125 19.78125 20.625 19.375 Z M 20.625 19.375 "/>
<path style=" stroke:none;fill-rule:nonzero;fill:rgb(56.862748%,32.941177%,49.803922%);fill-opacity:1;" d="M 7.75 7.25 C 7.792969 7.332031 7.832031 7.414062 7.875 7.5 C 7.585938 7.828125 7.296875 8.160156 7 8.5 C 6.917969 8.457031 6.835938 8.417969 6.75 8.375 C 7.078125 8.003906 7.410156 7.632812 7.75 7.25 Z M 7.75 7.25 "/>
<path style=" stroke:none;fill-rule:nonzero;fill:rgb(59.215689%,32.549021%,50.980395%);fill-opacity:1;" d="M 38 4.125 C 38.421875 4.273438 38.707031 4.410156 39 4.75 C 38.792969 4.75 38.585938 4.75 38.375 4.75 C 38.332031 4.625 38.292969 4.503906 38.25 4.375 C 38.167969 4.375 38.085938 4.375 38 4.375 C 38 4.292969 38 4.210938 38 4.125 Z M 38 4.125 "/>
<path style=" stroke:none;fill-rule:nonzero;fill:rgb(69.01961%,35.686275%,57.647061%);fill-opacity:1;" d="M 16.5 3.125 C 16.835938 3.234375 16.835938 3.234375 17.125 3.375 C 17.082031 3.457031 17.042969 3.539062 17 3.625 C 16.710938 3.625 16.421875 3.625 16.125 3.625 C 16.125 3.542969 16.125 3.460938 16.125 3.375 C 16.25 3.292969 16.371094 3.210938 16.5 3.125 Z M 16.5 3.125 "/>
<path style=" stroke:none;fill-rule:nonzero;fill:rgb(60.392159%,31.764707%,50.980395%);fill-opacity:1;" d="M 48.5 17.625 C 48.765625 18.066406 48.816406 18.492188 48.875 19 C 48.625 18.773438 48.625 18.773438 48.375 18.5 C 48.375 18.171875 48.414062 17.9375 48.5 17.625 Z M 48.5 17.625 "/>
<path style=" stroke:none;fill-rule:nonzero;fill:rgb(66.666669%,40.392157%,59.215689%);fill-opacity:1;" d="M 17.125 17.125 C 17.207031 17.167969 17.289062 17.207031 17.375 17.25 C 17.210938 17.414062 17.046875 17.578125 16.875 17.75 C 16.75 17.707031 16.628906 17.667969 16.5 17.625 C 16.5 17.542969 16.5 17.460938 16.5 17.375 C 16.796875 17.242188 16.796875 17.242188 17.125 17.125 Z M 17.125 17.125 "/>
<path style=" stroke:none;fill-rule:nonzero;fill:rgb(58.431375%,32.941177%,50.588238%);fill-opacity:1;" d="M 41.625 42.875 C 41.707031 42.917969 41.789062 42.957031 41.875 43 C 41.585938 43.289062 41.296875 43.578125 41 43.875 C 41 43.667969 41 43.457031 41 43.25 C 41.296875 43.039062 41.296875 43.039062 41.625 42.875 Z M 41.625 42.875 "/>
<path style=" stroke:none;fill-rule:nonzero;fill:rgb(73.333335%,45.882353%,63.137257%);fill-opacity:1;" d="M 46.5 32.75 C 46.636719 33.292969 46.617188 33.515625 46.375 34 C 46.292969 34 46.210938 34 46.125 34 C 46.25 33.585938 46.371094 33.175781 46.5 32.75 Z M 46.5 32.75 "/>
<path style=" stroke:none;fill-rule:nonzero;fill:rgb(64.705884%,34.901962%,58.039218%);fill-opacity:1;" d="M 34.375 34.5 C 34.75 34.625 34.75 34.625 35 35 C 34.957031 35.125 34.917969 35.246094 34.875 35.375 C 34.667969 35.128906 34.460938 34.878906 34.25 34.625 C 34.292969 34.582031 34.332031 34.542969 34.375 34.5 Z M 34.375 34.5 "/>
<path style=" stroke:none;fill-rule:nonzero;fill:rgb(60.000002%,30.19608%,47.058824%);fill-opacity:1;" d="M 46.25 12.625 C 46.503906 12.867188 46.675781 13.078125 46.875 13.375 C 46.875 13.5 46.875 13.621094 46.875 13.75 C 46.75 13.707031 46.628906 13.667969 46.5 13.625 C 46.410156 13.394531 46.410156 13.394531 46.351562 13.117188 C 46.332031 13.027344 46.3125 12.933594 46.292969 12.839844 C 46.277344 12.769531 46.265625 12.699219 46.25 12.625 Z M 46.25 12.625 "/>
</g>
</svg>
