<?xml version="1.0" encoding="UTF-8"?>
<svg xmlns="http://www.w3.org/2000/svg" xmlns:xlink="http://www.w3.org/1999/xlink" width="50px" height="50px" viewBox="0 0 50 50" version="1.1">
<g id="surface1">
<path style=" stroke:none;fill-rule:nonzero;fill:rgb(99.607843%,99.607843%,99.607843%);fill-opacity:1;" d="M 30.5 0.875 C 30.613281 0.902344 30.730469 0.929688 30.847656 0.960938 C 37.324219 2.597656 42.863281 6.667969 46.308594 12.402344 C 47.675781 14.742188 48.71875 17.335938 49.25 20 C 49.300781 20.234375 49.300781 20.234375 49.355469 20.46875 C 49.988281 23.648438 49.898438 27.359375 49.125 30.5 C 49.097656 30.613281 49.070312 30.730469 49.039062 30.847656 C 47.40625 37.304688 43.371094 42.769531 37.699219 46.257812 C 33.886719 48.53125 29.53125 49.710938 25.101562 49.679688 C 24.988281 49.679688 24.878906 49.679688 24.765625 49.679688 C 22.972656 49.667969 21.246094 49.558594 19.5 49.125 C 19.386719 49.097656 19.269531 49.070312 19.152344 49.039062 C 12.675781 47.402344 7.136719 43.332031 3.691406 37.597656 C 2.324219 35.257812 1.28125 32.664062 0.75 30 C 0.714844 29.84375 0.679688 29.691406 0.644531 29.53125 C 0.0117188 26.351562 0.101562 22.640625 0.875 19.5 C 0.902344 19.386719 0.929688 19.269531 0.960938 19.152344 C 2.597656 12.675781 6.667969 7.136719 12.402344 3.691406 C 14.742188 2.324219 17.335938 1.28125 20 0.75 C 20.234375 0.699219 20.234375 0.699219 20.46875 0.644531 C 23.648438 0.0117188 27.359375 0.101562 30.5 0.875 Z M 30.5 0.875 "/>
<path style=" stroke:none;fill-rule:nonzero;fill:rgb(98.039216%,60.000002%,25.098041%);fill-opacity:1;" d="M 30.5 0.875 C 30.613281 0.902344 30.730469 0.929688 30.847656 0.960938 C 37.324219 2.597656 42.863281 6.667969 46.308594 12.402344 C 47.675781 14.742188 48.71875 17.335938 49.25 20 C 49.300781 20.234375 49.300781 20.234375 49.355469 20.46875 C 49.988281 23.648438 49.898438 27.359375 49.125 30.5 C 49.097656 30.613281 49.070312 30.730469 49.039062 30.847656 C 47.40625 37.304688 43.371094 42.769531 37.699219 46.257812 C 33.886719 48.53125 29.53125 49.710938 25.101562 49.679688 C 24.988281 49.679688 24.878906 49.679688 24.765625 49.679688 C 22.972656 49.667969 21.246094 49.558594 19.5 49.125 C 19.386719 49.097656 19.269531 49.070312 19.152344 49.039062 C 12.675781 47.402344 7.136719 43.332031 3.691406 37.597656 C 2.324219 35.257812 1.28125 32.664062 0.75 30 C 0.714844 29.84375 0.679688 29.691406 0.644531 29.53125 C 0.0117188 26.351562 0.101562 22.640625 0.875 19.5 C 0.902344 19.386719 0.929688 19.269531 0.960938 19.152344 C 2.597656 12.675781 6.667969 7.136719 12.402344 3.691406 C 14.742188 2.324219 17.335938 1.28125 20 0.75 C 20.234375 0.699219 20.234375 0.699219 20.46875 0.644531 C 23.648438 0.0117188 27.359375 0.101562 30.5 0.875 Z M 19.179688 2.765625 C 18.832031 2.890625 18.476562 2.992188 18.117188 3.09375 C 16.113281 3.660156 14.167969 4.480469 12.5 5.75 C 12.355469 5.835938 12.355469 5.835938 12.210938 5.921875 C 10.886719 6.726562 9.742188 7.808594 8.625 8.875 C 8.542969 8.949219 8.460938 9.027344 8.375 9.101562 C 7.679688 9.761719 7.113281 10.539062 6.53125 11.300781 C 6.390625 11.480469 6.246094 11.65625 6.101562 11.832031 C 5.894531 12.097656 5.734375 12.351562 5.578125 12.648438 C 5.296875 13.164062 5 13.667969 4.691406 14.167969 C 4.261719 14.914062 3.914062 15.671875 3.632812 16.484375 C 3.601562 16.574219 3.570312 16.664062 3.539062 16.757812 C 3.214844 17.699219 2.949219 18.65625 2.699219 19.617188 C 2.640625 19.824219 2.570312 20.03125 2.5 20.238281 C 2.042969 21.648438 2.082031 23.132812 2.085938 24.597656 C 2.085938 24.957031 2.082031 25.316406 2.078125 25.675781 C 2.074219 27.542969 2.199219 29.367188 2.875 31.125 C 2.945312 31.335938 3.011719 31.546875 3.082031 31.757812 C 4.898438 37.316406 8.332031 41.699219 13.285156 44.832031 C 13.625 45.050781 13.625 45.050781 14 44.875 C 14.097656 44.617188 14.097656 44.617188 14.140625 44.3125 C 14.242188 43.757812 14.242188 43.757812 14.375 43.625 C 14.378906 43.363281 14.382812 43.101562 14.386719 42.839844 C 14.40625 41.472656 14.691406 40.679688 15.585938 39.625 C 15.890625 39.160156 15.820312 38.660156 15.75 38.125 C 15.652344 37.808594 15.527344 37.515625 15.394531 37.214844 C 15.230469 36.828125 15.109375 36.441406 14.992188 36.039062 C 14.863281 35.609375 14.738281 35.191406 14.554688 34.78125 C 14.378906 34.378906 14.242188 33.980469 14.105469 33.5625 C 14.003906 33.261719 13.886719 32.96875 13.765625 32.675781 C 13.492188 31.992188 13.257812 31.300781 13.027344 30.601562 C 12.984375 30.472656 12.941406 30.34375 12.898438 30.210938 C 12.761719 29.800781 12.628906 29.394531 12.492188 28.984375 C 12.355469 28.574219 12.222656 28.164062 12.085938 27.757812 C 12 27.503906 11.917969 27.25 11.835938 26.996094 C 11.554688 26.15625 11.261719 25.324219 10.921875 24.507812 C 10.777344 24.136719 10.726562 23.8125 10.703125 23.414062 C 10.664062 22.988281 10.636719 22.890625 10.359375 22.539062 C 10.242188 22.445312 10.121094 22.347656 10 22.25 C 9.847656 22.125 9.695312 22 9.546875 21.875 C 9.476562 21.816406 9.40625 21.761719 9.332031 21.703125 C 8.429688 20.8125 8.707031 20.152344 8.625 18.75 C 11.304688 18.75 13.988281 18.75 16.75 18.75 C 16.3125 21.085938 16.3125 21.085938 15.550781 21.8125 C 15.042969 22.347656 15.066406 23.121094 15.078125 23.8125 C 15.199219 24.925781 15.597656 26.046875 16.132812 27.023438 C 16.265625 27.28125 16.367188 27.539062 16.46875 27.8125 C 16.691406 28.378906 16.949219 28.917969 17.21875 29.460938 C 17.261719 29.546875 17.304688 29.632812 17.347656 29.71875 C 17.5625 30.144531 17.785156 30.566406 18.019531 30.984375 C 18.664062 32.132812 19.175781 33.261719 19.289062 34.597656 C 19.328125 35.007812 19.328125 35.007812 19.617188 35.175781 C 19.714844 35.210938 19.8125 35.242188 19.914062 35.273438 C 20.523438 35.476562 20.859375 35.742188 21.167969 36.3125 C 21.222656 36.425781 21.273438 36.542969 21.328125 36.664062 C 21.757812 37.550781 22.28125 38.34375 22.84375 39.148438 C 22.992188 39.363281 23.132812 39.582031 23.273438 39.804688 C 23.945312 40.8125 24.585938 41.191406 25.75 41.5 C 25.859375 41.53125 25.964844 41.558594 26.078125 41.589844 C 26.300781 41.648438 26.523438 41.703125 26.75 41.75 C 26.769531 41.324219 26.769531 41.324219 26.75 40.875 C 26.667969 40.792969 26.585938 40.710938 26.5 40.625 C 26.488281 40.472656 26.480469 40.320312 26.46875 40.164062 C 26.414062 39.609375 26.1875 39.359375 25.8125 38.964844 C 25.523438 38.632812 25.402344 38.285156 25.25 37.875 C 25.207031 37.792969 25.167969 37.710938 25.125 37.625 C 24.601562 37.695312 24.601562 37.695312 24.117188 37.882812 C 23.816406 38.027344 23.582031 38.019531 23.25 38 C 23.277344 37.773438 23.277344 37.773438 23.375 37.5 C 23.632812 37.3125 23.632812 37.3125 23.945312 37.15625 C 24.101562 37.074219 24.101562 37.074219 24.257812 36.992188 C 24.339844 36.953125 24.417969 36.914062 24.5 36.875 C 24.484375 36.632812 24.46875 36.390625 24.453125 36.148438 C 24.445312 36.011719 24.4375 35.878906 24.425781 35.738281 C 24.398438 35.351562 24.398438 35.351562 24.125 35 C 23.742188 34.902344 23.742188 34.902344 23.304688 34.859375 C 22.511719 34.761719 22.511719 34.761719 22.375 34.625 C 22.207031 34.597656 22.039062 34.574219 21.871094 34.558594 C 21.769531 34.546875 21.667969 34.535156 21.5625 34.523438 C 21.457031 34.515625 21.351562 34.503906 21.242188 34.492188 C 21.136719 34.480469 21.027344 34.46875 20.917969 34.457031 C 20.652344 34.429688 20.390625 34.402344 20.125 34.375 C 20.125 34.167969 20.125 33.960938 20.125 33.75 C 21.484375 33.75 22.847656 33.75 24.25 33.75 C 24.375 33.460938 24.496094 33.171875 24.625 32.875 C 24.667969 32.789062 24.710938 32.703125 24.753906 32.617188 C 24.75 32.25 24.527344 32.085938 24.277344 31.84375 C 24.210938 31.777344 24.140625 31.714844 24.070312 31.648438 C 24 31.582031 23.929688 31.515625 23.859375 31.445312 C 23.429688 31.03125 22.984375 30.636719 22.527344 30.25 C 21.867188 29.65625 21.25 29.007812 20.625 28.375 C 20.699219 28.421875 20.773438 28.464844 20.851562 28.511719 C 21.414062 28.855469 21.980469 29.1875 22.5625 29.5 C 23.015625 29.746094 23.464844 30 23.90625 30.265625 C 24.007812 30.328125 24.109375 30.386719 24.214844 30.449219 C 24.394531 30.558594 24.574219 30.671875 24.75 30.78125 C 25.335938 31.144531 25.335938 31.144531 26 31.125 C 26.277344 30.933594 26.503906 30.730469 26.75 30.5 C 26.535156 29.332031 26.230469 28.191406 25.921875 27.046875 C 25.867188 26.847656 25.816406 26.648438 25.761719 26.449219 C 25.632812 25.964844 25.503906 25.484375 25.375 25 C 25.671875 25.296875 25.847656 25.726562 26.054688 26.09375 C 26.105469 26.183594 26.15625 26.273438 26.210938 26.367188 C 26.40625 26.714844 26.597656 27.054688 26.746094 27.429688 C 26.957031 27.949219 27.242188 28.425781 27.515625 28.914062 C 27.574219 29.019531 27.632812 29.125 27.691406 29.230469 C 27.835938 29.488281 27.980469 29.742188 28.125 30 C 29.417969 30.027344 29.417969 30.027344 30.515625 29.492188 C 30.675781 29.164062 30.78125 28.851562 30.875 28.5 C 30.9375 28.332031 31 28.164062 31.0625 28 C 31.105469 27.878906 31.105469 27.878906 31.148438 27.757812 C 31.269531 27.453125 31.414062 27.167969 31.5625 26.875 C 31.929688 26.152344 32.25 25.433594 32.375 24.625 C 32.457031 24.625 32.539062 24.625 32.625 24.625 C 32.585938 24.871094 32.546875 25.121094 32.507812 25.367188 C 32.484375 25.503906 32.464844 25.644531 32.441406 25.785156 C 32.375 26.125 32.375 26.125 32.25 26.25 C 32.195312 26.679688 32.148438 27.109375 32.105469 27.539062 C 32.035156 28.171875 31.914062 28.761719 31.75 29.375 C 31.65625 29.828125 31.65625 29.828125 31.75 30.25 C 32.003906 30.539062 32.265625 30.742188 32.625 30.875 C 33.25 30.863281 33.621094 30.476562 34.0625 30.078125 C 34.21875 29.941406 34.375 29.804688 34.527344 29.667969 C 34.644531 29.5625 34.644531 29.5625 34.765625 29.457031 C 35.125 29.140625 35.488281 28.832031 35.851562 28.523438 C 35.917969 28.46875 35.984375 28.410156 36.054688 28.351562 C 36.605469 27.886719 37.171875 27.4375 37.75 27 C 37.589844 27.347656 37.414062 27.625 37.160156 27.910156 C 37.09375 27.988281 37.027344 28.0625 36.957031 28.140625 C 36.886719 28.21875 36.816406 28.300781 36.742188 28.382812 C 36.148438 29.058594 35.566406 29.742188 35 30.445312 C 34.691406 30.820312 34.359375 31.171875 34.015625 31.519531 C 33.84375 31.75 33.84375 31.75 33.902344 32.070312 C 34.035156 32.488281 34.167969 32.710938 34.5 33 C 35.0625 33 35.417969 32.90625 35.945312 32.707031 C 36.519531 32.488281 37.097656 32.300781 37.683594 32.113281 C 37.792969 32.078125 37.902344 32.042969 38.011719 32.003906 C 38.359375 31.894531 38.703125 31.78125 39.046875 31.671875 C 39.394531 31.558594 39.742188 31.449219 40.089844 31.335938 C 40.304688 31.265625 40.519531 31.195312 40.734375 31.128906 C 41.253906 30.964844 41.253906 30.964844 41.75 30.75 C 41.414062 31.167969 40.960938 31.324219 40.476562 31.523438 C 39.734375 31.835938 39.007812 32.171875 38.289062 32.53125 C 38.207031 32.574219 38.125 32.613281 38.039062 32.65625 C 37.699219 32.828125 37.367188 33.003906 37.042969 33.203125 C 36.746094 33.378906 36.457031 33.496094 36.132812 33.617188 C 35.613281 33.824219 35.167969 34 34.75 34.375 C 34.621094 34.953125 34.816406 35.269531 35.113281 35.757812 C 35.550781 36.539062 35.636719 37.324219 35.664062 38.210938 C 35.691406 38.824219 35.722656 39.207031 36.132812 39.679688 C 36.253906 39.785156 36.375 39.890625 36.5 40 C 36.375 40.25 36.25 40.5 36.125 40.75 C 36.054688 41.390625 36.054688 41.390625 36.261719 41.964844 C 36.613281 42.203125 36.917969 42.175781 37.335938 42.1875 C 37.871094 42.214844 38.324219 42.242188 38.820312 42.453125 C 39.296875 42.644531 39.402344 42.667969 39.875 42.5 C 40.195312 42.265625 40.480469 41.996094 40.765625 41.71875 C 40.847656 41.640625 40.929688 41.5625 41.015625 41.480469 C 42.578125 39.96875 43.875 38.234375 45 36.375 C 45.0625 36.273438 45.125 36.167969 45.191406 36.0625 C 46.203125 34.308594 46.769531 32.359375 47.292969 30.414062 C 47.355469 30.195312 47.425781 29.976562 47.5 29.757812 C 47.964844 28.328125 47.914062 26.820312 47.90625 25.332031 C 47.90625 24.960938 47.90625 24.585938 47.910156 24.214844 C 47.910156 23.972656 47.910156 23.734375 47.90625 23.492188 C 47.910156 23.328125 47.910156 23.328125 47.910156 23.160156 C 47.90625 22.480469 47.8125 21.902344 47.625 21.25 C 47.570312 20.964844 47.515625 20.675781 47.460938 20.390625 C 47.15625 18.851562 46.777344 17.304688 46.125 15.875 C 46.089844 15.792969 46.050781 15.710938 46.015625 15.628906 C 45.886719 15.34375 45.753906 15.058594 45.625 14.773438 C 45.5625 14.636719 45.5625 14.636719 45.5 14.496094 C 45.257812 13.980469 44.992188 13.5625 44.625 13.125 C 44.535156 12.964844 44.449219 12.800781 44.367188 12.632812 C 42.621094 9.425781 39.433594 6.859375 36.375 5 C 36.238281 4.917969 36.105469 4.832031 35.964844 4.746094 C 34.085938 3.660156 31.921875 3.027344 29.808594 2.574219 C 29.5 2.5 29.5 2.5 29.375 2.375 C 29.125 2.347656 28.875 2.328125 28.625 2.3125 C 27.890625 2.265625 27.890625 2.265625 27.75 2.125 C 27.371094 2.109375 26.992188 2.101562 26.613281 2.101562 C 26.496094 2.097656 26.378906 2.097656 26.261719 2.097656 C 26.011719 2.097656 25.761719 2.09375 25.515625 2.09375 C 25.140625 2.09375 24.769531 2.089844 24.398438 2.085938 C 22.640625 2.078125 20.84375 2.136719 19.179688 2.765625 Z M 19.179688 2.765625 "/>
<path style=" stroke:none;fill-rule:nonzero;fill:rgb(99.215686%,60.392159%,25.098041%);fill-opacity:1;" d="M 13.875 8.25 C 13.917969 8.25 13.957031 8.25 14 8.25 C 13.996094 8.332031 13.992188 8.414062 13.984375 8.496094 C 13.902344 10.21875 13.875 11.546875 14.875 13 C 15.402344 13.792969 15.421875 14.460938 15.25 15.375 C 15.207031 15.417969 15.167969 15.457031 15.125 15.5 C 15.070312 15.90625 15.082031 16.070312 15.335938 16.398438 C 15.425781 16.484375 15.515625 16.570312 15.609375 16.65625 C 15.699219 16.742188 15.789062 16.828125 15.882812 16.914062 C 16.113281 17.132812 16.113281 17.132812 16.375 17.25 C 16.417969 17.496094 16.457031 17.746094 16.5 18 C 13.941406 18 11.386719 18 8.75 18 C 8.875 17.25 8.875 17.25 9.132812 17.023438 C 9.234375 16.957031 9.339844 16.890625 9.445312 16.820312 C 9.863281 16.480469 9.988281 16.339844 10.0625 15.800781 C 10.050781 15.46875 10.035156 15.140625 10.015625 14.808594 C 9.996094 14.28125 10.160156 13.976562 10.375 13.5 C 10.445312 12.917969 10.476562 12.335938 10.5 11.75 C 10.859375 12.085938 11.042969 12.429688 11.25 12.875 C 11.332031 12.875 11.414062 12.875 11.5 12.875 C 11.503906 12.667969 11.503906 12.457031 11.5 12.25 C 11.457031 12.207031 11.417969 12.167969 11.375 12.125 C 11.355469 11.792969 11.371094 11.460938 11.375 11.125 C 11.5 11.125 11.621094 11.125 11.75 11.125 C 11.785156 11.242188 11.816406 11.363281 11.851562 11.484375 C 11.96875 11.90625 11.96875 11.90625 12.375 12.125 C 12.367188 11.988281 12.367188 11.988281 12.363281 11.851562 C 12.332031 10.792969 12.511719 10.257812 13.214844 9.457031 C 13.5 9.085938 13.679688 8.671875 13.875 8.25 Z M 13.875 8.25 "/>
<path style=" stroke:none;fill-rule:nonzero;fill:rgb(98.823529%,63.921571%,31.37255%);fill-opacity:1;" d="M 25.25 24.625 C 25.667969 24.832031 25.789062 25.289062 25.984375 25.695312 C 26.046875 25.824219 26.046875 25.824219 26.113281 25.957031 C 26.199219 26.132812 26.285156 26.308594 26.371094 26.484375 C 26.785156 27.332031 27.214844 28.160156 27.667969 28.984375 C 28 29.597656 28 29.597656 28 29.875 C 27.753906 29.9375 27.753906 29.9375 27.5 30 C 27.457031 29.917969 27.417969 29.835938 27.375 29.75 C 27.292969 29.730469 27.210938 29.707031 27.125 29.6875 C 27.042969 29.667969 26.960938 29.644531 26.875 29.625 C 26.832031 29.542969 26.792969 29.460938 26.75 29.375 C 26.75 29.621094 26.75 29.871094 26.75 30.125 C 26.472656 29.640625 26.34375 29.113281 26.203125 28.578125 C 26.175781 28.476562 26.148438 28.375 26.121094 28.269531 C 26.0625 28.058594 26.003906 27.84375 25.945312 27.632812 C 25.859375 27.304688 25.769531 26.980469 25.683594 26.652344 C 25.625 26.445312 25.570312 26.238281 25.515625 26.03125 C 25.488281 25.933594 25.460938 25.835938 25.433594 25.734375 C 25.332031 25.355469 25.25 25.019531 25.25 24.625 Z M 25.25 24.625 "/>
<path style=" stroke:none;fill-rule:nonzero;fill:rgb(98.823529%,62.7451%,29.411766%);fill-opacity:1;" d="M 41.75 30.75 C 41.625 31.125 41.625 31.125 41.191406 31.34375 C 41 31.425781 40.808594 31.507812 40.617188 31.585938 C 40.410156 31.671875 40.207031 31.761719 40 31.851562 C 39.898438 31.894531 39.792969 31.941406 39.6875 31.988281 C 39.207031 32.199219 38.742188 32.429688 38.273438 32.664062 C 38.191406 32.703125 38.109375 32.746094 38.027344 32.789062 C 37.6875 32.960938 37.355469 33.136719 37.027344 33.335938 C 36.726562 33.515625 36.472656 33.574219 36.125 33.625 C 36.125 33.335938 36.125 33.046875 36.125 32.75 C 35.960938 32.707031 35.796875 32.667969 35.625 32.625 C 36.457031 32.359375 37.289062 32.089844 38.121094 31.824219 C 38.40625 31.734375 38.6875 31.640625 38.972656 31.550781 C 39.378906 31.421875 39.785156 31.289062 40.191406 31.160156 C 40.316406 31.121094 40.445312 31.078125 40.574219 31.035156 C 40.695312 31 40.8125 30.960938 40.933594 30.921875 C 41.035156 30.890625 41.140625 30.855469 41.246094 30.820312 C 41.5 30.75 41.5 30.75 41.75 30.75 Z M 41.75 30.75 "/>
<path style=" stroke:none;fill-rule:nonzero;fill:rgb(98.823529%,62.352943%,29.803923%);fill-opacity:1;" d="M 20.5 28.25 C 20.914062 28.40625 21.28125 28.582031 21.65625 28.8125 C 22.355469 29.242188 23.066406 29.65625 23.773438 30.070312 C 23.863281 30.125 23.953125 30.175781 24.042969 30.226562 C 24.121094 30.273438 24.199219 30.320312 24.28125 30.367188 C 24.484375 30.488281 24.679688 30.621094 24.875 30.75 C 24.792969 30.832031 24.710938 30.914062 24.625 31 C 24.625 30.917969 24.625 30.835938 24.625 30.75 C 24.195312 30.902344 23.933594 31.042969 23.625 31.375 C 22.785156 30.609375 21.953125 29.839844 21.148438 29.039062 C 21.050781 28.941406 21.050781 28.941406 20.949219 28.84375 C 20.5 28.390625 20.5 28.390625 20.5 28.25 Z M 20.5 28.25 "/>
<path style=" stroke:none;fill-rule:nonzero;fill:rgb(98.431373%,64.705884%,33.333334%);fill-opacity:1;" d="M 32.375 24.625 C 32.457031 24.625 32.539062 24.625 32.625 24.625 C 32.609375 24.871094 32.589844 25.121094 32.570312 25.367188 C 32.558594 25.503906 32.550781 25.644531 32.539062 25.785156 C 32.5 26.125 32.5 26.125 32.375 26.25 C 32.324219 26.605469 32.28125 26.960938 32.242188 27.320312 C 32.230469 27.421875 32.21875 27.523438 32.207031 27.625 C 32.179688 27.875 32.152344 28.125 32.125 28.375 C 32 28.210938 31.878906 28.046875 31.75 27.875 C 31.832031 27.75 31.914062 27.628906 32 27.5 C 31.960938 27.167969 31.960938 27.167969 31.875 26.875 C 31.867188 26.964844 31.859375 27.054688 31.851562 27.148438 C 31.71875 27.609375 31.480469 27.8125 31.125 28.125 C 31.042969 28.167969 30.960938 28.207031 30.875 28.25 C 31.015625 27.769531 31.203125 27.335938 31.429688 26.890625 C 31.703125 26.351562 31.921875 25.820312 32.125 25.25 C 32.207031 25.042969 32.289062 24.832031 32.375 24.625 Z M 32.375 24.625 "/>
<path style=" stroke:none;fill-rule:nonzero;fill:rgb(98.823529%,66.666669%,37.254903%);fill-opacity:1;" d="M 25.25 24.625 C 25.675781 24.835938 25.800781 25.320312 26 25.734375 C 26.089844 25.917969 26.175781 26.097656 26.265625 26.28125 C 26.304688 26.359375 26.34375 26.441406 26.382812 26.527344 C 26.511719 26.78125 26.511719 26.78125 26.75 27.125 C 26.75 27.289062 26.75 27.453125 26.75 27.625 C 26.667969 27.625 26.585938 27.625 26.5 27.625 C 26.5 27.707031 26.5 27.789062 26.5 27.875 C 26.417969 27.875 26.335938 27.875 26.25 27.875 C 26.207031 28 26.167969 28.121094 26.125 28.25 C 25.976562 27.714844 25.832031 27.183594 25.6875 26.648438 C 25.644531 26.496094 25.605469 26.34375 25.5625 26.1875 C 25.523438 26.042969 25.480469 25.898438 25.441406 25.746094 C 25.40625 25.613281 25.367188 25.480469 25.332031 25.339844 C 25.25 25 25.25 25 25.25 24.625 Z M 25.25 24.625 "/>
<path style=" stroke:none;fill-rule:nonzero;fill:rgb(93.725491%,60.784316%,29.019609%);fill-opacity:1;" d="M 36.273438 46.546875 C 36.386719 46.5625 36.5 46.574219 36.613281 46.589844 C 36.699219 46.601562 36.785156 46.613281 36.875 46.625 C 36.394531 47.035156 35.839844 47.261719 35.265625 47.515625 C 35.167969 47.5625 35.066406 47.605469 34.964844 47.652344 C 34.4375 47.886719 33.957031 48.0625 33.375 48.125 C 33.417969 48.042969 33.457031 47.960938 33.5 47.875 C 33.664062 47.875 33.828125 47.875 34 47.875 C 34.035156 47.777344 34.070312 47.679688 34.109375 47.578125 C 34.25 47.25 34.25 47.25 34.5 47 C 34.625 47 34.746094 47 34.875 47 C 34.875 47.125 34.875 47.246094 34.875 47.375 C 34.929688 47.277344 34.984375 47.179688 35.039062 47.078125 C 35.394531 46.527344 35.65625 46.464844 36.273438 46.546875 Z M 36.273438 46.546875 "/>
<path style=" stroke:none;fill-rule:nonzero;fill:rgb(98.823529%,65.098041%,34.509805%);fill-opacity:1;" d="M 41.75 30.75 C 41.625 31.125 41.625 31.125 41.214844 31.359375 C 41.039062 31.4375 40.863281 31.515625 40.6875 31.59375 C 40.597656 31.632812 40.507812 31.671875 40.414062 31.714844 C 39.71875 32 39.238281 32.074219 38.5 31.875 C 38.5 31.957031 38.5 32.039062 38.5 32.125 C 38.421875 32.144531 38.34375 32.160156 38.265625 32.179688 C 37.996094 32.242188 37.996094 32.242188 37.75 32.375 C 37.707031 32.25 37.667969 32.128906 37.625 32 C 38.171875 31.820312 38.71875 31.644531 39.265625 31.464844 C 39.453125 31.40625 39.640625 31.34375 39.824219 31.285156 C 40.09375 31.195312 40.359375 31.109375 40.628906 31.023438 C 40.710938 30.996094 40.792969 30.96875 40.882812 30.941406 C 41.472656 30.75 41.472656 30.75 41.75 30.75 Z M 41.75 30.75 "/>
<path style=" stroke:none;fill-rule:nonzero;fill:rgb(93.333334%,60.000002%,29.019609%);fill-opacity:1;" d="M 40.25 43.75 C 40.25 43.832031 40.25 43.914062 40.25 44 C 40.414062 44.042969 40.578125 44.082031 40.75 44.125 C 40.386719 44.394531 40.019531 44.664062 39.65625 44.929688 C 39.554688 45.007812 39.449219 45.082031 39.34375 45.160156 C 39.242188 45.234375 39.144531 45.308594 39.039062 45.382812 C 38.902344 45.484375 38.902344 45.484375 38.761719 45.585938 C 38.503906 45.746094 38.296875 45.820312 38 45.875 C 38 45.386719 38.167969 45.332031 38.5 45 C 38.828125 45.046875 38.828125 45.046875 39.125 45.125 C 39.125 45.042969 39.125 44.960938 39.125 44.875 C 39.207031 44.875 39.289062 44.875 39.375 44.875 C 39.367188 44.78125 39.359375 44.6875 39.351562 44.59375 C 39.394531 43.941406 39.601562 43.75 40.25 43.75 Z M 40.25 43.75 "/>
<path style=" stroke:none;fill-rule:nonzero;fill:rgb(98.039216%,71.764708%,47.450981%);fill-opacity:1;" d="M 20.125 33.75 C 21.445312 33.75 22.765625 33.75 24.125 33.75 C 24.125 33.792969 24.125 33.832031 24.125 33.875 C 23.136719 33.917969 22.144531 33.957031 21.125 34 C 21.289062 34.207031 21.453125 34.414062 21.625 34.625 C 21.421875 34.605469 21.21875 34.589844 21.015625 34.570312 C 20.902344 34.558594 20.789062 34.550781 20.671875 34.539062 C 20.375 34.5 20.375 34.5 20.125 34.375 C 20.125 34.167969 20.125 33.960938 20.125 33.75 Z M 20.125 33.75 "/>
<path style=" stroke:none;fill-rule:nonzero;fill:rgb(99.215686%,60.000002%,23.921569%);fill-opacity:1;" d="M 24.25 37.125 C 24.621094 37.1875 24.621094 37.1875 25 37.25 C 25 37.292969 25 37.332031 25 37.375 C 24.753906 37.457031 24.503906 37.539062 24.25 37.625 C 24.25 37.75 24.25 37.871094 24.25 38 C 23.921875 38.042969 23.589844 38.082031 23.25 38.125 C 23.171875 37.890625 23.171875 37.890625 23.125 37.625 C 23.375 37.375 23.375 37.375 23.828125 37.359375 C 24.035156 37.367188 24.035156 37.367188 24.25 37.375 C 24.25 37.292969 24.25 37.210938 24.25 37.125 Z M 24.25 37.125 "/>
<path style=" stroke:none;fill-rule:nonzero;fill:rgb(98.823529%,61.176473%,27.450982%);fill-opacity:1;" d="M 26.5 27.625 C 26.726562 27.648438 26.726562 27.648438 27 27.75 C 27.226562 28.054688 27.226562 28.054688 27.375 28.375 C 27.332031 28.457031 27.292969 28.539062 27.25 28.625 C 27.125 28.625 27.003906 28.625 26.875 28.625 C 26.664062 28.804688 26.664062 28.804688 26.5 29 C 26.3125 28.578125 26.25 28.347656 26.25 27.875 C 26.332031 27.875 26.414062 27.875 26.5 27.875 C 26.5 27.792969 26.5 27.710938 26.5 27.625 Z M 26.5 27.625 "/>
<path style=" stroke:none;fill-rule:nonzero;fill:rgb(98.431373%,70.980394%,45.490196%);fill-opacity:1;" d="M 13.875 8.25 C 13.917969 8.25 13.957031 8.25 14 8.25 C 14.015625 9.09375 13.960938 9.914062 13.875 10.75 C 13.832031 10.75 13.792969 10.75 13.75 10.75 C 13.75 10.335938 13.75 9.925781 13.75 9.5 C 13.542969 9.664062 13.335938 9.828125 13.125 10 C 13.042969 9.957031 12.960938 9.917969 12.875 9.875 C 12.945312 9.792969 13.019531 9.710938 13.09375 9.625 C 13.417969 9.191406 13.644531 8.742188 13.875 8.25 Z M 13.875 8.25 "/>
<path style=" stroke:none;fill-rule:nonzero;fill:rgb(90.588236%,61.176473%,31.764707%);fill-opacity:1;" d="M 47.5 15 C 47.910156 15.464844 48.082031 15.992188 48.28125 16.570312 C 48.316406 16.667969 48.351562 16.761719 48.386719 16.859375 C 48.421875 16.953125 48.453125 17.046875 48.484375 17.140625 C 48.515625 17.226562 48.546875 17.308594 48.578125 17.394531 C 48.625 17.625 48.625 17.625 48.5 18 C 48.445312 17.875 48.390625 17.746094 48.335938 17.617188 C 48.300781 17.539062 48.265625 17.457031 48.230469 17.375 C 48.132812 17.144531 48.035156 16.910156 47.9375 16.679688 C 47.621094 15.90625 47.621094 15.90625 47.125 15.25 C 47.25 15.167969 47.371094 15.085938 47.5 15 Z M 47.5 15 "/>
<path style=" stroke:none;fill-rule:nonzero;fill:rgb(92.156863%,60.000002%,30.588236%);fill-opacity:1;" d="M 9.75 5.5 C 9.875 5.542969 9.996094 5.582031 10.125 5.625 C 10.082031 5.832031 10.042969 6.039062 10 6.25 C 9.792969 6.207031 9.585938 6.167969 9.375 6.125 C 9.375 6.207031 9.375 6.289062 9.375 6.375 C 9.011719 6.628906 8.824219 6.75 8.375 6.75 C 9.398438 5.699219 9.398438 5.699219 9.75 5.5 Z M 9.75 5.5 "/>
<path style=" stroke:none;fill-rule:nonzero;fill:rgb(98.039216%,71.372551%,45.882353%);fill-opacity:1;" d="M 25.25 24.625 C 25.597656 24.800781 25.65625 25.019531 25.828125 25.367188 C 25.882812 25.480469 25.941406 25.589844 25.996094 25.707031 C 26.125 26 26.125 26 26.125 26.25 C 26.042969 26.25 25.960938 26.25 25.875 26.25 C 25.875 26.457031 25.875 26.664062 25.875 26.875 C 25.664062 26.488281 25.535156 26.105469 25.421875 25.679688 C 25.390625 25.5625 25.355469 25.441406 25.324219 25.320312 C 25.25 25 25.25 25 25.25 24.625 Z M 25.25 24.625 "/>
<path style=" stroke:none;fill-rule:nonzero;fill:rgb(92.156863%,60.000002%,30.19608%);fill-opacity:1;" d="M 22.5 0.5 C 22.375 0.6875 22.375 0.6875 22.125 0.875 C 21.773438 0.902344 21.453125 0.910156 21.101562 0.898438 C 21.007812 0.898438 20.914062 0.894531 20.816406 0.894531 C 20.585938 0.890625 20.355469 0.882812 20.125 0.875 C 20.125 0.832031 20.125 0.792969 20.125 0.75 C 20.921875 0.601562 21.6875 0.464844 22.5 0.5 Z M 22.5 0.5 "/>
<path style=" stroke:none;fill-rule:nonzero;fill:rgb(91.37255%,61.176473%,32.156864%);fill-opacity:1;" d="M 0.75 20 C 0.792969 20 0.832031 20 0.875 20 C 0.886719 20.347656 0.890625 20.691406 0.898438 21.039062 C 0.902344 21.136719 0.90625 21.234375 0.90625 21.335938 C 0.910156 21.429688 0.910156 21.527344 0.910156 21.625 C 0.914062 21.710938 0.914062 21.796875 0.917969 21.886719 C 0.863281 22.191406 0.734375 22.304688 0.5 22.5 C 0.621094 20.796875 0.621094 20.796875 0.75 20 Z M 0.75 20 "/>
<path style=" stroke:none;fill-rule:nonzero;fill:rgb(90.196079%,61.56863%,33.333334%);fill-opacity:1;" d="M 7.75 42.625 C 8.25 42.792969 8.511719 43 8.875 43.375 C 8.964844 43.417969 9.054688 43.457031 9.148438 43.5 C 9.375 43.625 9.375 43.625 9.46875 43.890625 C 9.484375 44.007812 9.484375 44.007812 9.5 44.125 C 9.039062 43.929688 8.710938 43.640625 8.34375 43.304688 C 8.230469 43.203125 8.121094 43.101562 8.007812 43 C 7.921875 42.917969 7.835938 42.835938 7.75 42.75 C 7.75 42.707031 7.75 42.667969 7.75 42.625 Z M 7.75 42.625 "/>
<path style=" stroke:none;fill-rule:nonzero;fill:rgb(90.980393%,61.960787%,31.764707%);fill-opacity:1;" d="M 11 45.25 C 11.289062 45.292969 11.578125 45.332031 11.875 45.375 C 11.917969 45.539062 11.957031 45.703125 12 45.875 C 12.207031 45.917969 12.414062 45.957031 12.625 46 C 12.625 46.082031 12.625 46.164062 12.625 46.25 C 11.96875 46.074219 11.53125 45.789062 11 45.375 C 11 45.332031 11 45.292969 11 45.25 Z M 11 45.25 "/>
<path style=" stroke:none;fill-rule:nonzero;fill:rgb(98.431373%,65.098041%,34.117648%);fill-opacity:1;" d="M 24.625 35.375 C 24.667969 35.5 24.707031 35.621094 24.75 35.75 C 24.832031 35.75 24.914062 35.75 25 35.75 C 24.957031 35.914062 24.917969 36.078125 24.875 36.25 C 24.832031 36.25 24.792969 36.25 24.75 36.25 C 24.707031 36.496094 24.667969 36.746094 24.625 37 C 24.542969 36.957031 24.460938 36.917969 24.375 36.875 C 24.367188 36.671875 24.363281 36.46875 24.359375 36.265625 C 24.355469 36.152344 24.355469 36.039062 24.351562 35.921875 C 24.375 35.625 24.375 35.625 24.625 35.375 Z M 24.625 35.375 "/>
<path style=" stroke:none;fill-rule:nonzero;fill:rgb(98.823529%,60.000002%,24.313726%);fill-opacity:1;" d="M 39.375 31.875 C 39.375 31.957031 39.375 32.039062 39.375 32.125 C 39.011719 32.371094 38.859375 32.375 38.40625 32.328125 C 38.273438 32.300781 38.136719 32.277344 38 32.25 C 38.082031 32.167969 38.164062 32.085938 38.25 32 C 38.332031 32.042969 38.414062 32.082031 38.5 32.125 C 38.5 32.042969 38.5 31.960938 38.5 31.875 C 38.890625 31.746094 39 31.757812 39.375 31.875 Z M 39.375 31.875 "/>
<path style=" stroke:none;fill-rule:nonzero;fill:rgb(92.54902%,60.784316%,30.588236%);fill-opacity:1;" d="M 14 47 C 14.289062 47 14.578125 47 14.875 47 C 14.917969 47.082031 14.957031 47.164062 15 47.25 C 15.207031 47.390625 15.207031 47.390625 15.445312 47.515625 C 15.65625 47.632812 15.65625 47.632812 15.875 47.75 C 15.5 47.875 15.5 47.875 15.136719 47.722656 C 14.933594 47.617188 14.933594 47.617188 14.726562 47.507812 C 14.589844 47.4375 14.453125 47.367188 14.316406 47.292969 C 14.210938 47.238281 14.105469 47.183594 14 47.125 C 14 47.082031 14 47.042969 14 47 Z M 14 47 "/>
<path style=" stroke:none;fill-rule:nonzero;fill:rgb(97.647059%,72.549021%,49.411765%);fill-opacity:1;" d="M 41.75 30.75 C 41.625 31.125 41.625 31.125 41.28125 31.351562 C 40.875 31.5 40.875 31.5 40.515625 31.398438 C 40.429688 31.347656 40.339844 31.300781 40.25 31.25 C 40.703125 30.945312 41.195312 30.75 41.75 30.75 Z M 41.75 30.75 "/>
<path style=" stroke:none;fill-rule:nonzero;fill:rgb(98.823529%,61.960787%,27.843139%);fill-opacity:1;" d="M 25.875 26.25 C 26 26.25 26.121094 26.25 26.25 26.25 C 26.316406 26.410156 26.382812 26.574219 26.445312 26.734375 C 26.5 26.871094 26.5 26.871094 26.554688 27.007812 C 26.625 27.25 26.625 27.25 26.5 27.5 C 26.417969 27.417969 26.335938 27.335938 26.25 27.25 C 26.183594 27.195312 26.117188 27.140625 26.046875 27.085938 C 25.816406 26.800781 25.847656 26.605469 25.875 26.25 Z M 25.875 26.25 "/>
<path style=" stroke:none;fill-rule:nonzero;fill:rgb(90.980393%,61.56863%,32.156864%);fill-opacity:1;" d="M 45.25 11 C 45.710938 11.410156 45.96875 11.832031 46.25 12.375 C 46.25 12.457031 46.25 12.539062 46.25 12.625 C 46.125 12.582031 46.003906 12.542969 45.875 12.5 C 45.875 12.375 45.875 12.253906 45.875 12.125 C 45.75 12.082031 45.628906 12.042969 45.5 12 C 45.410156 11.769531 45.410156 11.769531 45.351562 11.492188 C 45.332031 11.402344 45.3125 11.308594 45.292969 11.214844 C 45.277344 11.144531 45.265625 11.074219 45.25 11 Z M 45.25 11 "/>
<path style=" stroke:none;fill-rule:nonzero;fill:rgb(91.764706%,60.000002%,31.37255%);fill-opacity:1;" d="M 5.375 10 C 5.375 10.367188 5.320312 10.5625 5.1875 10.898438 C 5.152344 10.988281 5.117188 11.078125 5.082031 11.167969 C 5.054688 11.238281 5.027344 11.304688 5 11.375 C 4.835938 11.375 4.671875 11.375 4.5 11.375 C 4.6875 10.800781 4.980469 10.445312 5.375 10 Z M 5.375 10 "/>
<path style=" stroke:none;fill-rule:nonzero;fill:rgb(97.647059%,67.058825%,40.000001%);fill-opacity:1;" d="M 46.75 32 C 46.921875 32.550781 46.832031 32.972656 46.625 33.5 C 46.359375 33.8125 46.359375 33.8125 46.125 34 C 46.324219 33.328125 46.523438 32.660156 46.75 32 Z M 46.75 32 "/>
<path style=" stroke:none;fill-rule:nonzero;fill:rgb(98.431373%,69.01961%,42.745098%);fill-opacity:1;" d="M 11.5 11 C 11.582031 11.042969 11.664062 11.082031 11.75 11.125 C 11.855469 11.570312 11.894531 11.8125 11.75 12.25 C 11.625 12.207031 11.503906 12.167969 11.375 12.125 C 11.363281 11.355469 11.363281 11.355469 11.375 11.125 C 11.417969 11.082031 11.457031 11.042969 11.5 11 Z M 11.5 11 "/>
<path style=" stroke:none;fill-rule:nonzero;fill:rgb(90.980393%,60.392159%,31.764707%);fill-opacity:1;" d="M 5.875 40.5 C 6.039062 40.542969 6.203125 40.582031 6.375 40.625 C 6.375 40.707031 6.375 40.789062 6.375 40.875 C 6.5 40.875 6.621094 40.875 6.75 40.875 C 6.832031 41.082031 6.914062 41.289062 7 41.5 C 6.625 41.5 6.625 41.5 6.425781 41.34375 C 6.359375 41.277344 6.292969 41.210938 6.226562 41.140625 C 6.160156 41.074219 6.09375 41.007812 6.027344 40.9375 C 5.875 40.75 5.875 40.75 5.875 40.5 Z M 5.875 40.5 "/>
<path style=" stroke:none;fill-rule:nonzero;fill:rgb(90.980393%,59.215689%,30.980393%);fill-opacity:1;" d="M 4.25 38 C 4.710938 38.289062 4.914062 38.511719 5.039062 39.03125 C 5.066406 39.1875 5.097656 39.339844 5.125 39.5 C 4.664062 39.078125 4.378906 38.695312 4.125 38.125 C 4.167969 38.082031 4.207031 38.042969 4.25 38 Z M 4.25 38 "/>
<path style=" stroke:none;fill-rule:nonzero;fill:rgb(91.764706%,60.392159%,31.764707%);fill-opacity:1;" d="M 43.875 40 C 44.082031 40.042969 44.289062 40.082031 44.5 40.125 C 44.128906 40.621094 44.128906 40.621094 43.75 41.125 C 43.707031 40.960938 43.667969 40.796875 43.625 40.625 C 43.707031 40.542969 43.789062 40.460938 43.875 40.375 C 43.875 40.25 43.875 40.128906 43.875 40 Z M 43.875 40 "/>
<path style=" stroke:none;fill-rule:nonzero;fill:rgb(90.196079%,60.000002%,32.941177%);fill-opacity:1;" d="M 40.625 5.875 C 40.765625 5.988281 40.90625 6.101562 41.046875 6.21875 C 41.125 6.28125 41.203125 6.347656 41.285156 6.414062 C 41.511719 6.636719 41.625 6.835938 41.75 7.125 C 41.503906 7 41.253906 6.878906 41 6.75 C 41 6.667969 41 6.585938 41 6.5 C 40.917969 6.5 40.835938 6.5 40.75 6.5 C 40.707031 6.292969 40.667969 6.085938 40.625 5.875 Z M 40.625 5.875 "/>
<path style=" stroke:none;fill-rule:nonzero;fill:rgb(92.156863%,61.56863%,30.19608%);fill-opacity:1;" d="M 12.375 3.75 C 12.417969 3.875 12.457031 3.996094 12.5 4.125 C 12.359375 4.3125 12.359375 4.3125 12.125 4.5 C 11.726562 4.523438 11.726562 4.523438 11.375 4.5 C 11.6875 4.167969 11.953125 3.929688 12.375 3.75 Z M 12.375 3.75 "/>
<path style=" stroke:none;fill-rule:nonzero;fill:rgb(94.117647%,62.7451%,30.19608%);fill-opacity:1;" d="M 42.125 42.25 C 42.386719 42.304688 42.386719 42.304688 42.625 42.375 C 42.507812 42.5 42.386719 42.625 42.265625 42.75 C 42.199219 42.820312 42.132812 42.890625 42.0625 42.960938 C 41.875 43.125 41.875 43.125 41.625 43.125 C 41.675781 42.828125 41.738281 42.644531 41.914062 42.398438 C 41.984375 42.347656 42.054688 42.300781 42.125 42.25 Z M 42.125 42.25 "/>
<path style=" stroke:none;fill-rule:nonzero;fill:rgb(97.647059%,72.156864%,47.843137%);fill-opacity:1;" d="M 32.375 24.625 C 32.457031 24.625 32.539062 24.625 32.625 24.625 C 32.582031 25.121094 32.542969 25.613281 32.5 26.125 C 32.214844 25.558594 32.207031 25.21875 32.375 24.625 Z M 32.375 24.625 "/>
<path style=" stroke:none;fill-rule:nonzero;fill:rgb(89.803922%,61.56863%,33.333334%);fill-opacity:1;" d="M 2.25 15.25 C 2.292969 15.25 2.332031 15.25 2.375 15.25 C 2.332031 15.664062 2.292969 16.074219 2.25 16.5 C 2.125 16.5 2.003906 16.5 1.875 16.5 C 2 16.085938 2.121094 15.675781 2.25 15.25 Z M 2.25 15.25 "/>
<path style=" stroke:none;fill-rule:nonzero;fill:rgb(96.470588%,66.666669%,40.000001%);fill-opacity:1;" d="M 44 37.75 C 44.042969 37.875 44.082031 37.996094 44.125 38.125 C 44.042969 38.199219 44.042969 38.199219 43.960938 38.273438 C 43.730469 38.503906 43.730469 38.503906 43.554688 38.835938 C 43.464844 38.980469 43.464844 38.980469 43.375 39.125 C 43.292969 39.125 43.210938 39.125 43.125 39.125 C 43.347656 38.621094 43.675781 38.191406 44 37.75 Z M 44 37.75 "/>
<path style=" stroke:none;fill-rule:nonzero;fill:rgb(98.431373%,68.235296%,40.000001%);fill-opacity:1;" d="M 23.890625 37.742188 C 24.007812 37.785156 24.128906 37.828125 24.25 37.875 C 23.847656 38.144531 23.714844 38.148438 23.25 38.125 C 23.25 38 23.25 37.878906 23.25 37.75 C 23.5 37.625 23.5 37.625 23.890625 37.742188 Z M 23.890625 37.742188 "/>
<path style=" stroke:none;fill-rule:nonzero;fill:rgb(90.196079%,61.176473%,34.117648%);fill-opacity:1;" d="M 6.75 8.375 C 6.75 8.832031 6.644531 9.011719 6.375 9.375 C 6.101562 9.476562 6.101562 9.476562 5.875 9.5 C 6.070312 9.023438 6.378906 8.726562 6.75 8.375 Z M 6.75 8.375 "/>
<path style=" stroke:none;fill-rule:nonzero;fill:rgb(96.862745%,65.882355%,36.862746%);fill-opacity:1;" d="M 45.5 35.25 C 45.582031 35.25 45.664062 35.25 45.75 35.25 C 45.726562 35.539062 45.726562 35.539062 45.625 35.875 C 45.304688 36.101562 45.304688 36.101562 45 36.25 C 45.140625 35.878906 45.277344 35.582031 45.5 35.25 Z M 45.5 35.25 "/>
<path style=" stroke:none;fill-rule:nonzero;fill:rgb(99.215686%,60.392159%,23.137255%);fill-opacity:1;" d="M 22.5 29.625 C 22.664062 29.625 22.828125 29.625 23 29.625 C 22.957031 29.832031 22.917969 30.039062 22.875 30.25 C 22.710938 30.207031 22.546875 30.167969 22.375 30.125 C 22.417969 29.960938 22.457031 29.796875 22.5 29.625 Z M 22.5 29.625 "/>
<path style=" stroke:none;fill-rule:nonzero;fill:rgb(96.078432%,63.921571%,34.117648%);fill-opacity:1;" d="M 5.5 12.125 C 5.625 12.167969 5.746094 12.207031 5.875 12.25 C 5.742188 12.613281 5.652344 12.847656 5.375 13.125 C 5.296875 12.835938 5.296875 12.835938 5.25 12.5 C 5.332031 12.375 5.414062 12.253906 5.5 12.125 Z M 5.5 12.125 "/>
<path style=" stroke:none;fill-rule:nonzero;fill:rgb(89.803922%,59.215689%,33.333334%);fill-opacity:1;" d="M 38 4.125 C 38.5 4.296875 38.851562 4.53125 39.25 4.875 C 39.085938 4.875 38.921875 4.875 38.75 4.875 C 38.75 4.792969 38.75 4.710938 38.75 4.625 C 38.378906 4.5625 38.378906 4.5625 38 4.5 C 38 4.375 38 4.253906 38 4.125 Z M 38 4.125 "/>
<path style=" stroke:none;fill-rule:nonzero;fill:rgb(92.156863%,60.000002%,32.156864%);fill-opacity:1;" d="M 45.625 38.125 C 45.707031 38.167969 45.789062 38.207031 45.875 38.25 C 45.773438 38.417969 45.671875 38.582031 45.570312 38.75 C 45.515625 38.84375 45.457031 38.9375 45.398438 39.03125 C 45.351562 39.101562 45.300781 39.175781 45.25 39.25 C 45.207031 39.25 45.167969 39.25 45.125 39.25 C 45.125 39.003906 45.125 38.753906 45.125 38.5 C 45.289062 38.457031 45.453125 38.417969 45.625 38.375 C 45.625 38.292969 45.625 38.210938 45.625 38.125 Z M 45.625 38.125 "/>
<path style=" stroke:none;fill-rule:nonzero;fill:rgb(98.431373%,65.098041%,34.901962%);fill-opacity:1;" d="M 24.625 32.75 C 24.824219 33.148438 24.628906 33.464844 24.5 33.875 C 24.375 33.832031 24.253906 33.792969 24.125 33.75 C 24.484375 32.890625 24.484375 32.890625 24.625 32.75 Z M 24.625 32.75 "/>
<path style=" stroke:none;fill-rule:nonzero;fill:rgb(97.254902%,63.137257%,32.549021%);fill-opacity:1;" d="M 44.25 12.125 C 44.332031 12.125 44.414062 12.125 44.5 12.125 C 44.640625 12.414062 44.640625 12.414062 44.75 12.75 C 44.625 12.9375 44.625 12.9375 44.5 13.125 C 44.304688 12.835938 44.304688 12.835938 44.125 12.5 C 44.167969 12.375 44.207031 12.253906 44.25 12.125 Z M 44.25 12.125 "/>
<path style=" stroke:none;fill-rule:nonzero;fill:rgb(92.54902%,62.7451%,31.37255%);fill-opacity:1;" d="M 4.125 11.75 C 4.207031 11.914062 4.289062 12.078125 4.375 12.25 C 4.203125 12.4375 4.203125 12.4375 4 12.625 C 3.917969 12.625 3.835938 12.625 3.75 12.625 C 3.984375 11.890625 3.984375 11.890625 4.125 11.75 Z M 4.125 11.75 "/>
<path style=" stroke:none;fill-rule:nonzero;fill:rgb(98.431373%,69.803923%,42.352942%);fill-opacity:1;" d="M 20.125 33.875 C 20.25 33.875 20.371094 33.875 20.5 33.875 C 20.5 34.039062 20.5 34.203125 20.5 34.375 C 20.664062 34.417969 20.828125 34.457031 21 34.5 C 20.710938 34.457031 20.421875 34.417969 20.125 34.375 C 20.125 34.210938 20.125 34.046875 20.125 33.875 Z M 20.125 33.875 "/>
</g>
</svg>
