<?xml version="1.0" encoding="UTF-8"?>
<svg xmlns="http://www.w3.org/2000/svg" xmlns:xlink="http://www.w3.org/1999/xlink" width="50px" height="50px" viewBox="0 0 50 50" version="1.1">
<defs>
<clipPath id="clip1">
  <path d="M 9 6 L 45 6 L 45 48 L 9 48 Z M 9 6 "/>
</clipPath>
<clipPath id="clip2">
  <path d="M 48.492188 25.269531 C 48.492188 37.855469 37.867188 48.058594 24.753906 48.058594 C 11.644531 48.058594 1.015625 37.855469 1.015625 25.269531 C 1.015625 12.683594 11.644531 2.480469 24.753906 2.480469 C 37.867188 2.480469 48.492188 12.683594 48.492188 25.269531 Z M 48.492188 25.269531 "/>
</clipPath>
</defs>
<g id="surface1">
<path style="fill:none;stroke-width:1.5;stroke-linecap:butt;stroke-linejoin:miter;stroke:rgb(100%,60.000002%,24.313726%);stroke-opacity:1;stroke-miterlimit:10;" d="M 23.11875 12.478516 C 23.11875 18.636719 18.1275 23.626953 11.971875 23.626953 C 5.814375 23.626953 0.823125 18.636719 0.823125 12.478516 C 0.823125 6.322266 5.814375 1.332031 11.971875 1.332031 C 18.1275 1.332031 23.11875 6.322266 23.11875 12.478516 Z M 23.11875 12.478516 " transform="matrix(2.083333,0,0,2,0,0)"/>
<g clip-path="url(#clip1)" clip-rule="nonzero">
<g clip-path="url(#clip2)" clip-rule="nonzero">
<path style=" stroke:none;fill-rule:evenodd;fill:rgb(100%,60.000002%,24.313726%);fill-opacity:1;" d="M 15.996094 11.726562 C 15.722656 11.152344 15.417969 10.59375 15.082031 10.050781 C 14.78125 9.480469 14.609375 8.855469 14.582031 8.214844 C 14.765625 7.59375 14.847656 6.949219 14.832031 6.300781 C 14.75 6.140625 14.75 6.140625 14.582031 6.460938 C 14.332031 6.699219 14.25 7.417969 13.835938 7.738281 C 13.347656 8.097656 13.070312 8.664062 13.085938 9.253906 L 13.085938 10.289062 C 13.085938 10.289062 12.835938 10.289062 12.503906 9.8125 C 12.503906 9.8125 12.421875 9.09375 12.339844 9.09375 C 12.003906 9.09375 12.003906 9.492188 12.003906 9.972656 C 12.089844 10.371094 12.339844 10.929688 12.171875 11.007812 C 12.171875 11.167969 12.003906 11.246094 11.839844 10.929688 C 11.628906 10.746094 11.507812 10.484375 11.507812 10.210938 C 11.425781 9.972656 11.339844 9.8125 11.089844 9.8125 L 11.089844 10.371094 C 11.089844 10.769531 11.089844 11.644531 10.925781 11.726562 C 10.84375 12.046875 10.675781 12.203125 10.511719 12.683594 C 10.460938 13.183594 10.578125 13.6875 10.84375 14.121094 C 11.007812 14.199219 10.425781 14.675781 10.011719 14.996094 C 9.765625 15.089844 9.5625 15.257812 9.429688 15.476562 L 9.261719 16.273438 L 17.492188 16.273438 L 17.324219 15.476562 C 17.324219 15.476562 16.492188 14.996094 16.410156 14.675781 C 15.910156 14.359375 15.746094 14.199219 15.828125 14.039062 C 16.21875 13.324219 16.277344 12.484375 15.996094 11.726562 Z M 9.179688 16.910156 C 9.179688 16.910156 9.097656 17.710938 9.097656 18.109375 C 9.097656 18.761719 9.300781 19.402344 9.679688 19.941406 C 10.175781 20.261719 10.925781 20.660156 11.089844 21.058594 C 11.175781 21.539062 11.425781 23.375 11.921875 23.773438 C 12.089844 24.089844 14.082031 30.394531 14.5 31.351562 C 14.996094 32.308594 15.496094 34.144531 15.910156 35.019531 C 16.242188 35.898438 16.742188 37.175781 16.328125 37.8125 C 15.910156 38.53125 15.082031 39.25 15.082031 39.886719 C 15.167969 40.414062 15.167969 40.953125 15.082031 41.480469 C 14.835938 42.207031 14.667969 42.957031 14.582031 43.714844 C 14.75 44.117188 14.996094 44.59375 15.496094 44.59375 C 16.160156 44.671875 16.242188 45.074219 16.410156 44.992188 C 16.660156 44.832031 17.15625 44.59375 17.324219 44.671875 C 17.324219 44.832031 17.324219 45.074219 17.15625 45.074219 C 16.992188 45.152344 16.910156 45.230469 16.992188 45.472656 C 17.242188 45.632812 17.738281 45.871094 17.824219 45.949219 C 18.070312 46.03125 18.15625 46.347656 17.90625 46.429688 C 17.824219 46.589844 17.65625 46.988281 17.65625 46.988281 L 17.738281 47.148438 L 42.335938 47.148438 C 42.335938 47.148438 44.5 45.230469 44.414062 44.117188 C 44.414062 43.078125 44.332031 43.238281 43.75 42.839844 C 43.167969 42.597656 43.003906 42.039062 41.921875 41.324219 C 41.054688 40.777344 40.050781 40.472656 39.011719 40.445312 C 38.347656 40.445312 37.765625 40.367188 37.683594 39.96875 C 37.578125 39.648438 37.609375 39.304688 37.765625 39.007812 C 38.015625 38.609375 38.183594 38.53125 38.015625 38.210938 C 37.722656 37.957031 37.472656 37.660156 37.269531 37.335938 C 37.191406 36.886719 37.164062 36.429688 37.183594 35.976562 C 37.203125 35.753906 37.144531 35.53125 37.019531 35.339844 C 36.855469 35.046875 36.769531 34.714844 36.769531 34.382812 C 36.769531 34.304688 36.269531 33.503906 36.269531 33.34375 C 36.214844 33.136719 36.1875 32.921875 36.1875 32.707031 L 43.417969 29.277344 L 43.335938 28.957031 L 36.023438 31.269531 C 35.871094 31.09375 35.730469 30.90625 35.605469 30.710938 C 35.605469 30.554688 35.273438 30.234375 35.273438 30.234375 L 39.59375 25.207031 L 39.429688 24.890625 L 34.195312 29.195312 C 34.195312 29.195312 33.777344 28.796875 33.613281 28.796875 C 33.4375 28.675781 33.269531 28.542969 33.113281 28.398438 L 34.027344 22.816406 L 33.777344 22.734375 L 31.367188 28 C 31.039062 27.953125 30.703125 27.953125 30.371094 28 C 30.023438 28 29.679688 28.082031 29.375 28.238281 L 26.464844 22.816406 L 26.300781 22.894531 L 27.878906 28.71875 C 27.691406 28.789062 27.519531 28.898438 27.378906 29.039062 C 27.203125 29.160156 27.039062 29.292969 26.878906 29.4375 L 21.480469 26.40625 L 21.3125 26.5625 L 25.800781 30.792969 L 25.46875 31.269531 C 25.398438 31.515625 25.316406 31.753906 25.21875 31.988281 L 20.980469 32.070312 L 21.0625 32.707031 L 25.21875 33.425781 C 25.316406 33.710938 25.371094 34.003906 25.386719 34.300781 C 25.484375 34.5625 25.566406 34.832031 25.632812 35.101562 L 23.972656 35.898438 L 24.386719 36.617188 L 26.132812 35.976562 C 26.132812 35.976562 26.382812 36.457031 26.464844 36.695312 C 26.546875 36.855469 26.796875 37.652344 27.046875 37.734375 C 27.296875 37.972656 27.460938 38.050781 27.460938 38.210938 C 27.445312 38.480469 27.472656 38.75 27.546875 39.007812 C 27.796875 39.167969 27.878906 40.046875 27.878906 40.046875 C 26.925781 39.804688 26.003906 39.457031 25.136719 39.007812 C 24.292969 37.9375 23.515625 36.820312 22.808594 35.660156 C 22.644531 35.339844 21.976562 34.144531 21.8125 33.902344 C 21.597656 33.660156 21.304688 33.492188 20.980469 33.425781 C 20.730469 33.425781 20.398438 33.34375 20.398438 33.1875 C 20.304688 32.285156 20.078125 31.398438 19.734375 30.554688 C 19.566406 29.996094 17.824219 27.363281 16.910156 24.890625 C 16.160156 23.214844 16.242188 22.816406 15.996094 22.414062 C 15.925781 21.625 16.066406 20.828125 16.410156 20.101562 C 17.027344 19.667969 17.421875 19 17.492188 18.265625 C 17.691406 17.84375 17.746094 17.367188 17.65625 16.910156 Z M 9.179688 16.910156 "/>
</g>
</g>
</g>
</svg>
