<svg version="1.1" id="Layer_1" xmlns="http://www.w3.org/2000/svg" xmlns:xlink="http://www.w3.org/1999/xlink" x="0px" y="0px"
	 width="100%" viewBox="0 0 473 473" enable-background="new 0 0 473 473" xml:space="preserve">
<path fill="#6CC183" opacity="1.000000" stroke="none" 
	d="
M213.000000,1.000000 
	C229.020889,1.000000 245.041794,1.000000 261.380371,1.411223 
	C262.708099,2.214669 263.689697,2.828582 264.732910,2.962355 
	C270.551025,3.708411 276.500793,3.818682 282.191711,5.097727 
	C306.739655,10.614904 330.451935,18.438545 352.428253,31.053076 
	C377.870728,45.657154 400.380920,63.626621 419.055054,86.421463 
	C432.710022,103.089493 444.210815,120.985161 452.942352,140.676071 
	C462.991547,163.338547 469.904419,186.833771 472.080322,211.624969 
	C472.154144,212.466324 473.335114,213.210510 474.000000,214.000000 
	C474.000000,229.354233 474.000000,244.708450 473.587158,260.388336 
	C472.782684,261.890106 472.219116,263.038849 472.026825,264.246704 
	C470.571869,273.386383 469.995178,282.752655 467.622894,291.642151 
	C462.119659,312.263855 455.124542,332.312897 444.612671,351.151428 
	C433.889465,370.368683 420.900757,387.761078 405.807312,403.569702 
	C399.053345,410.643677 391.155548,416.657318 383.565948,422.895630 
	C362.929749,439.857666 339.697937,452.219543 314.539459,460.973450 
	C298.266998,466.635437 281.565125,470.529663 264.354340,472.081146 
	C263.518677,472.156433 262.782501,473.335114 262.000000,474.000000 
	C245.979111,474.000000 229.958206,474.000000 213.622375,473.589417 
	C212.297165,472.786194 211.317032,472.186249 210.271759,472.034149 
	C202.707962,470.933716 194.995605,470.505249 187.582977,468.778961 
	C162.848267,463.018555 139.322342,454.119385 117.336464,441.165985 
	C101.547638,431.863770 87.075600,420.890106 73.897255,408.274078 
	C67.020943,401.691162 60.471233,394.608917 54.745853,387.019135 
	C46.176945,375.659760 37.514732,364.186523 30.582859,351.814484 
	C15.633068,325.132019 5.855424,296.545227 2.912847,265.867065 
	C2.847883,265.189789 1.662660,264.619934 1.000005,264.000000 
	C1.000000,246.645767 1.000000,229.291550 1.408508,211.617599 
	C2.876421,205.789230 4.052050,200.299942 4.974319,194.768417 
	C8.268132,175.012970 14.615043,156.251434 22.947388,138.086060 
	C35.498447,110.723419 52.895115,86.828758 74.543335,66.033051 
	C80.781990,60.040077 87.458534,54.435081 94.356285,49.209171 
	C112.938416,35.130901 133.144791,23.894068 155.099960,15.935569 
	C173.294144,9.340379 191.810593,4.090718 211.274658,2.900785 
	C211.886215,2.863397 212.426498,1.659879 213.000000,1.000000 
M376.995636,85.498459 
	C325.361389,39.767250 265.444214,22.362518 197.691605,35.067074 
	C87.106339,55.803356 13.642366,164.047607 34.196152,274.694794 
	C54.972252,386.538788 161.224060,460.303680 273.519989,440.844421 
	C359.621582,425.924255 428.145447,356.592163 441.058014,269.509430 
	C451.708649,197.681061 429.702667,136.422531 376.995636,85.498459 
z"/>
<path fill="#000000" opacity="1.000000" stroke="none" 
	d="
M262.468628,474.000000 
	C262.782501,473.335114 263.518677,472.156433 264.354340,472.081146 
	C281.565125,470.529663 298.266998,466.635437 314.539459,460.973450 
	C339.697937,452.219543 362.929749,439.857666 383.565948,422.895630 
	C391.155548,416.657318 399.053345,410.643677 405.807312,403.569702 
	C420.900757,387.761078 433.889465,370.368683 444.612671,351.151428 
	C455.124542,332.312897 462.119659,312.263855 467.622894,291.642151 
	C469.995178,282.752655 470.571869,273.386383 472.026825,264.246704 
	C472.219116,263.038849 472.782684,261.890106 473.587158,260.856995 
	C474.000000,331.926849 474.000000,402.853729 474.000000,474.000000 
	C403.645935,474.000000 333.291626,474.000000 262.468628,474.000000 
z"/>
<path fill="#000000" opacity="1.000000" stroke="none" 
	d="
M474.000000,213.531342 
	C473.335114,213.210510 472.154144,212.466324 472.080322,211.624969 
	C469.904419,186.833771 462.991547,163.338547 452.942352,140.676071 
	C444.210815,120.985161 432.710022,103.089493 419.055054,86.421463 
	C400.380920,63.626621 377.870728,45.657154 352.428253,31.053076 
	C330.451935,18.438545 306.739655,10.614904 282.191711,5.097727 
	C276.500793,3.818682 270.551025,3.708411 264.732910,2.962355 
	C263.689697,2.828582 262.708099,2.214669 261.848999,1.411223 
	C332.593872,1.000000 403.187714,1.000000 474.000000,1.000000 
	C474.000000,71.687408 474.000000,142.375046 474.000000,213.531342 
z"/>
<path fill="#000000" opacity="1.000000" stroke="none" 
	d="
M1.000005,264.468658 
	C1.662660,264.619934 2.847883,265.189789 2.912847,265.867065 
	C5.855424,296.545227 15.633068,325.132019 30.582859,351.814484 
	C37.514732,364.186523 46.176945,375.659760 54.745853,387.019135 
	C60.471233,394.608917 67.020943,401.691162 73.897255,408.274078 
	C87.075600,420.890106 101.547638,431.863770 117.336464,441.165985 
	C139.322342,454.119385 162.848267,463.018555 187.582977,468.778961 
	C194.995605,470.505249 202.707962,470.933716 210.271759,472.034149 
	C211.317032,472.186249 212.297165,472.786194 213.153717,473.589417 
	C142.406647,474.000000 71.813309,474.000000 1.000000,474.000000 
	C1.000000,404.312592 1.000000,334.624969 1.000005,264.468658 
z"/>
<path fill="#000000" opacity="1.000000" stroke="none" 
	d="
M212.531342,1.000000 
	C212.426498,1.659879 211.886215,2.863397 211.274658,2.900785 
	C191.810593,4.090718 173.294144,9.340379 155.099960,15.935569 
	C133.144791,23.894068 112.938416,35.130901 94.356285,49.209171 
	C87.458534,54.435081 80.781990,60.040077 74.543335,66.033051 
	C52.895115,86.828758 35.498447,110.723419 22.947388,138.086060 
	C14.615043,156.251434 8.268132,175.012970 4.974319,194.768417 
	C4.052050,200.299942 2.876421,205.789230 1.408508,211.148941 
	C1.000000,141.072617 1.000000,71.145233 1.000000,1.000000 
	C71.354080,1.000000 141.708374,1.000000 212.531342,1.000000 
z"/>
<path fill="#FEFFFE" opacity="1.000000" stroke="none" 
	d="
M377.257629,85.738167 
	C429.702667,136.422531 451.708649,197.681061 441.058014,269.509430 
	C428.145447,356.592163 359.621582,425.924255 273.519989,440.844421 
	C161.224060,460.303680 54.972252,386.538788 34.196152,274.694794 
	C13.642366,164.047607 87.106339,55.803356 197.691605,35.067074 
	C265.444214,22.362518 325.361389,39.767250 377.257629,85.738167 
M56.243080,247.935440 
	C59.200890,246.837585 62.186321,245.807999 65.109810,244.625290 
	C69.141022,242.994492 73.155869,241.491104 77.984001,242.313751 
	C75.472710,244.757309 73.547859,246.630219 71.623016,248.503128 
	C71.997475,248.962250 72.371933,249.421356 72.746399,249.880463 
	C76.649208,248.831390 80.552017,247.782318 85.576073,246.431854 
	C84.439079,249.146149 83.914917,250.397461 83.390755,251.648773 
	C85.562973,251.672134 87.129349,251.024399 88.386986,249.998291 
	C93.159775,246.104126 97.524506,241.603622 102.674744,238.323700 
	C105.194962,236.718735 109.194786,236.637024 112.365387,237.060471 
	C116.138031,237.564346 115.340767,241.115799 115.326874,243.936676 
	C115.287239,251.985596 118.104790,258.961121 123.776413,264.655182 
	C133.067276,273.982788 144.178543,280.507477 156.014328,286.149841 
	C160.777451,288.420563 165.673035,291.865936 168.658600,296.085510 
	C173.611038,303.084991 177.234344,311.059174 181.103943,318.779907 
	C184.347946,325.252472 188.682587,329.750977 196.224365,331.165894 
	C206.848053,333.159027 217.318558,335.954102 227.904465,338.167694 
	C236.109756,339.883514 240.156586,345.434570 239.319412,354.064697 
	C239.141830,355.895203 239.162125,358.643555 240.260193,359.544739 
	C245.207077,363.604889 250.574677,367.152435 257.045654,371.782867 
	C256.777924,366.865051 256.887573,363.422302 256.330994,360.090881 
	C255.691406,356.262756 253.883865,352.574738 253.609497,348.752197 
	C253.043869,340.872559 249.217896,335.649811 242.136948,332.717041 
	C233.999725,329.346802 225.854584,325.964081 217.562576,323.008453 
	C210.102036,320.349182 207.257507,314.328766 207.037567,307.547638 
	C206.758606,298.946991 207.974579,290.293121 208.633316,281.668884 
	C208.955780,277.447357 211.242111,277.175720 214.433319,279.035126 
	C234.833237,290.921417 256.545166,294.881714 279.857391,290.401001 
	C282.205566,289.949677 285.307983,291.743835 287.632629,293.185638 
	C293.086212,296.568054 298.232666,300.441498 303.602600,303.965057 
	C305.816010,305.417450 308.630157,306.103363 310.528931,307.839966 
	C312.103302,309.279846 313.634247,311.747620 313.639313,313.763885 
	C313.672211,326.883057 305.929413,334.620026 292.869476,335.050659 
	C291.037964,335.111023 289.134338,334.909668 287.391846,335.343109 
	C283.753357,336.248169 281.204071,335.438995 278.710297,332.384308 
	C277.227600,330.568085 274.926361,327.609650 271.606659,330.261353 
	C268.743256,332.548615 265.769104,334.724945 263.125702,337.245819 
	C262.124298,338.200775 261.162689,340.246582 261.540070,341.316528 
	C261.955353,342.494019 263.825897,343.426971 265.251465,343.922394 
	C268.051208,344.895325 271.000031,345.428833 273.855347,346.254242 
	C285.623108,349.656281 297.143738,350.898285 307.369659,342.132843 
	C315.331787,335.307983 323.241425,328.418915 331.057892,321.428162 
	C336.311371,316.729645 336.638153,312.197021 332.370880,306.495331 
	C329.877899,303.164368 327.469482,299.731079 324.642822,296.698151 
	C320.483459,292.235260 320.773254,287.757965 323.047150,282.498016 
	C327.136230,273.039276 330.904541,263.430725 334.452423,253.754791 
	C335.804596,250.067078 336.767242,246.039139 336.884094,242.135620 
	C337.153290,233.141663 339.505402,225.085144 345.413910,218.186707 
	C353.751709,208.451935 359.380096,197.156189 364.272217,185.433533 
	C365.336304,182.883682 366.513184,180.380890 367.504578,178.156174 
	C372.986389,180.574020 377.851654,184.319733 382.935242,184.644073 
	C395.221680,185.427963 406.325745,188.831085 417.119751,194.533051 
	C423.739990,198.030228 427.784546,195.798752 431.252106,188.357040 
	C433.376556,183.797775 431.145630,177.979370 426.168945,175.204453 
	C415.603851,169.313477 410.792664,159.801300 408.922241,148.298309 
	C408.673340,146.767807 407.447449,145.231033 406.306946,144.052338 
	C404.874329,142.571716 402.873810,141.637924 401.453461,140.148605 
	C398.125275,136.658783 395.260040,132.689987 391.714874,129.454819 
	C388.009583,126.073517 384.610657,122.921806 385.577576,117.266159 
	C385.726135,116.397316 384.921753,115.365555 384.453033,114.132843 
	C382.544952,116.825981 380.970795,119.047829 379.244080,121.484993 
	C374.408386,118.193604 370.043579,115.222717 364.455688,111.419342 
	C364.455688,116.832520 364.357544,120.461830 364.489624,124.082756 
	C364.580200,126.565224 363.868835,127.871635 361.245361,128.727417 
	C346.362701,133.582138 332.906921,141.139450 320.878937,151.141281 
	C306.729736,162.907043 294.127350,176.151489 283.065918,190.892334 
	C281.663971,192.760605 278.906189,194.608353 276.691193,194.716446 
	C252.709747,195.886719 228.761078,195.726364 204.795715,193.475861 
	C192.263000,192.298965 179.486984,191.753418 166.973694,192.782135 
	C147.546570,194.379196 132.377060,204.959274 120.148796,219.571609 
	C116.251450,224.228821 112.012741,226.727264 106.182152,226.810638 
	C101.351875,226.879684 96.518898,226.729004 91.687317,226.743195 
	C73.516090,226.796570 56.981499,232.276657 41.801922,242.039108 
	C39.704449,243.388046 38.012894,245.368164 36.133427,247.056076 
	C36.389320,247.490524 36.645210,247.924973 36.901104,248.359421 
	C46.200836,244.210037 55.351505,239.523651 66.503197,238.065598 
	C62.271225,241.801575 59.180740,244.529846 56.243080,247.935440 
M216.986954,379.778900 
	C217.732697,382.038727 218.315552,384.370697 219.274780,386.535919 
	C220.067261,388.324738 220.933243,390.834320 222.410950,391.432281 
	C228.013214,393.699310 233.877441,395.319031 239.928894,397.272888 
	C240.064789,395.924255 240.280746,395.397522 240.133591,395.008057 
	C234.734863,380.722321 228.177979,367.407440 212.217087,362.059174 
	C211.276306,361.743896 210.306305,361.369598 209.506485,360.802094 
	C199.383759,353.619843 188.545685,347.089630 184.899979,333.941467 
	C184.660645,333.078339 183.665482,332.449005 183.128204,331.640320 
	C179.773956,326.591675 176.296783,321.615204 173.171814,316.427185 
	C171.210999,313.171936 169.794357,309.588898 168.133560,306.152924 
	C167.732712,306.328308 167.331863,306.503662 166.931015,306.679047 
	C167.199417,308.124908 167.433380,309.578125 167.742020,311.015320 
	C169.305710,318.296570 169.891327,325.643890 166.787567,332.592529 
	C163.272339,340.462372 163.183960,341.442017 169.396835,347.528259 
	C171.176376,349.271576 173.002792,351.046906 175.074432,352.398865 
	C186.342239,359.752380 197.700424,366.967224 209.010559,374.256134 
	C211.516586,375.871155 213.954163,377.592407 216.986954,379.778900 
M340.508118,286.954041 
	C345.772308,287.380005 351.122650,287.364899 356.273529,288.370941 
	C360.419342,289.180695 362.665619,292.306183 362.159943,296.898804 
	C361.668549,301.361420 362.377197,306.333099 360.613892,310.192627 
	C357.785400,316.383545 354.411041,323.131104 349.338715,327.292603 
	C342.569214,332.846588 338.390656,340.138000 341.231506,349.166504 
	C342.936005,347.916504 344.648499,346.965363 345.977203,345.631836 
	C350.900391,340.690735 355.977417,335.858124 360.442780,330.521332 
	C363.421082,326.961823 366.352112,322.901276 367.736847,318.564514 
	C370.758087,309.102570 372.720581,299.306061 375.228210,289.675537 
	C377.001862,282.863708 375.999023,280.264252 369.816284,277.171753 
	C368.043396,276.284973 366.155914,275.524261 364.235779,275.052948 
	C356.019409,273.036377 347.784760,271.087036 339.517273,269.295502 
	C338.499146,269.074890 336.628723,269.604095 336.197235,270.372253 
	C333.236603,275.642944 330.554260,281.070007 327.511841,286.971283 
	C332.234680,286.971283 335.880005,286.971283 340.508118,286.954041 
M318.690399,145.175476 
	C330.208191,136.375687 341.857727,127.831825 356.014557,123.547226 
	C358.902466,122.673187 359.526428,118.500633 356.833099,117.020782 
	C353.737915,115.320122 350.106293,114.595787 346.707672,113.447380 
	C346.495117,114.030266 346.282532,114.613159 346.069946,115.196045 
	C348.346863,116.387184 350.623779,117.578323 353.186676,118.919060 
	C350.179108,122.081390 347.682251,121.549980 344.719757,119.960304 
	C339.398438,117.104881 333.796600,116.079918 328.107086,118.117973 
	C327.983490,118.612785 327.859924,119.107597 327.736328,119.602409 
	C330.023529,120.786270 332.310730,121.970131 334.597961,123.153984 
	C334.557465,123.714409 334.516968,124.274834 334.476501,124.835258 
	C332.256958,125.143311 330.034485,125.723061 327.818573,125.698997 
	C324.008331,125.657631 320.154114,124.754341 316.408630,125.125015 
	C313.075714,125.454857 309.865082,127.020851 306.600494,128.041275 
	C306.700012,128.741898 306.799530,129.442535 306.899048,130.143158 
	C308.673553,130.443695 310.499603,130.573471 312.209167,131.089249 
	C314.213501,131.693970 316.116516,132.634445 318.063477,133.429276 
	C316.195892,134.689148 314.473907,136.346008 312.420471,137.099106 
	C310.296021,137.878220 307.845245,137.747238 305.545349,138.071991 
	C299.153748,138.974472 293.059265,140.565048 288.224854,144.979111 
	C288.328156,145.430679 288.431458,145.882233 288.534760,146.333801 
	C293.214630,146.025177 297.894501,145.716553 302.936127,145.384064 
	C302.336823,150.720367 299.662903,152.451065 296.096863,153.667877 
	C290.285187,155.650940 284.579437,157.944244 278.828979,160.106644 
	C279.042511,160.916412 279.256042,161.726196 279.469604,162.535965 
	C282.098663,162.228455 284.721802,161.827164 287.359772,161.660004 
	C288.400330,161.594055 289.967316,161.719284 290.396698,162.359573 
	C290.844208,163.026917 290.597137,164.829010 289.974823,165.419556 
	C288.099731,167.198944 285.919525,168.665161 283.810822,170.187759 
	C281.749146,171.676437 279.629028,173.084259 277.534576,174.527573 
	C277.993866,175.294296 278.453156,176.061020 278.912445,176.827744 
	C283.609741,174.248306 288.873932,172.340439 292.888000,168.951675 
	C301.634186,161.567932 309.743683,153.429993 318.690399,145.175476 
z"/>
<path fill="#6CC183" opacity="1.000000" stroke="none" 
	d="
M56.166668,247.596771 
	C59.180740,244.529846 62.271225,241.801575 66.503197,238.065598 
	C55.351505,239.523651 46.200836,244.210037 36.901104,248.359421 
	C36.645210,247.924973 36.389320,247.490524 36.133427,247.056076 
	C38.012894,245.368164 39.704449,243.388046 41.801922,242.039108 
	C56.981499,232.276657 73.516090,226.796570 91.687317,226.743195 
	C96.518898,226.729004 101.351875,226.879684 106.182152,226.810638 
	C112.012741,226.727264 116.251450,224.228821 120.148796,219.571609 
	C132.377060,204.959274 147.546570,194.379196 166.973694,192.782135 
	C179.486984,191.753418 192.263000,192.298965 204.795715,193.475861 
	C228.761078,195.726364 252.709747,195.886719 276.691193,194.716446 
	C278.906189,194.608353 281.663971,192.760605 283.065918,190.892334 
	C294.127350,176.151489 306.729736,162.907043 320.878937,151.141281 
	C332.906921,141.139450 346.362701,133.582138 361.245361,128.727417 
	C363.868835,127.871635 364.580200,126.565224 364.489624,124.082756 
	C364.357544,120.461830 364.455688,116.832520 364.455688,111.419342 
	C370.043579,115.222717 374.408386,118.193604 379.244080,121.484993 
	C380.970795,119.047829 382.544952,116.825981 384.453033,114.132843 
	C384.921753,115.365555 385.726135,116.397316 385.577576,117.266159 
	C384.610657,122.921806 388.009583,126.073517 391.714874,129.454819 
	C395.260040,132.689987 398.125275,136.658783 401.453461,140.148605 
	C402.873810,141.637924 404.874329,142.571716 406.306946,144.052338 
	C407.447449,145.231033 408.673340,146.767807 408.922241,148.298309 
	C410.792664,159.801300 415.603851,169.313477 426.168945,175.204453 
	C431.145630,177.979370 433.376556,183.797775 431.252106,188.357040 
	C427.784546,195.798752 423.739990,198.030228 417.119751,194.533051 
	C406.325745,188.831085 395.221680,185.427963 382.935242,184.644073 
	C377.851654,184.319733 372.986389,180.574020 367.504578,178.156174 
	C366.513184,180.380890 365.336304,182.883682 364.272217,185.433533 
	C359.380096,197.156189 353.751709,208.451935 345.413910,218.186707 
	C339.505402,225.085144 337.153290,233.141663 336.884094,242.135620 
	C336.767242,246.039139 335.804596,250.067078 334.452423,253.754791 
	C330.904541,263.430725 327.136230,273.039276 323.047150,282.498016 
	C320.773254,287.757965 320.483459,292.235260 324.642822,296.698151 
	C327.469482,299.731079 329.877899,303.164368 332.370880,306.495331 
	C336.638153,312.197021 336.311371,316.729645 331.057892,321.428162 
	C323.241425,328.418915 315.331787,335.307983 307.369659,342.132843 
	C297.143738,350.898285 285.623108,349.656281 273.855347,346.254242 
	C271.000031,345.428833 268.051208,344.895325 265.251465,343.922394 
	C263.825897,343.426971 261.955353,342.494019 261.540070,341.316528 
	C261.162689,340.246582 262.124298,338.200775 263.125702,337.245819 
	C265.769104,334.724945 268.743256,332.548615 271.606659,330.261353 
	C274.926361,327.609650 277.227600,330.568085 278.710297,332.384308 
	C281.204071,335.438995 283.753357,336.248169 287.391846,335.343109 
	C289.134338,334.909668 291.037964,335.111023 292.869476,335.050659 
	C305.929413,334.620026 313.672211,326.883057 313.639313,313.763885 
	C313.634247,311.747620 312.103302,309.279846 310.528931,307.839966 
	C308.630157,306.103363 305.816010,305.417450 303.602600,303.965057 
	C298.232666,300.441498 293.086212,296.568054 287.632629,293.185638 
	C285.307983,291.743835 282.205566,289.949677 279.857391,290.401001 
	C256.545166,294.881714 234.833237,290.921417 214.433319,279.035126 
	C211.242111,277.175720 208.955780,277.447357 208.633316,281.668884 
	C207.974579,290.293121 206.758606,298.946991 207.037567,307.547638 
	C207.257507,314.328766 210.102036,320.349182 217.562576,323.008453 
	C225.854584,325.964081 233.999725,329.346802 242.136948,332.717041 
	C249.217896,335.649811 253.043869,340.872559 253.609497,348.752197 
	C253.883865,352.574738 255.691406,356.262756 256.330994,360.090881 
	C256.887573,363.422302 256.777924,366.865051 257.045654,371.782867 
	C250.574677,367.152435 245.207077,363.604889 240.260193,359.544739 
	C239.162125,358.643555 239.141830,355.895203 239.319412,354.064697 
	C240.156586,345.434570 236.109756,339.883514 227.904465,338.167694 
	C217.318558,335.954102 206.848053,333.159027 196.224365,331.165894 
	C188.682587,329.750977 184.347946,325.252472 181.103943,318.779907 
	C177.234344,311.059174 173.611038,303.084991 168.658600,296.085510 
	C165.673035,291.865936 160.777451,288.420563 156.014328,286.149841 
	C144.178543,280.507477 133.067276,273.982788 123.776413,264.655182 
	C118.104790,258.961121 115.287239,251.985596 115.326874,243.936676 
	C115.340767,241.115799 116.138031,237.564346 112.365387,237.060471 
	C109.194786,236.637024 105.194962,236.718735 102.674744,238.323700 
	C97.524506,241.603622 93.159775,246.104126 88.386986,249.998291 
	C87.129349,251.024399 85.562973,251.672134 83.390755,251.648773 
	C83.914917,250.397461 84.439079,249.146149 85.576073,246.431854 
	C80.552017,247.782318 76.649208,248.831390 72.746399,249.880463 
	C72.371933,249.421356 71.997475,248.962250 71.623016,248.503128 
	C73.547859,246.630219 75.472710,244.757309 77.984001,242.313751 
	C73.155869,241.491104 69.141022,242.994492 65.109810,244.625290 
	C62.186321,245.807999 59.200890,246.837585 56.166668,247.596771 
M394.047913,150.413925 
	C392.712555,148.592651 391.377197,146.771362 390.041870,144.950073 
	C388.651550,146.145065 386.482941,147.132294 386.092682,148.594254 
	C385.712463,150.018539 387.151703,151.928543 387.792084,153.625290 
	C389.843628,152.817993 391.895172,152.010681 394.047913,150.413925 
M370.877228,120.250504 
	C370.300690,121.842926 369.233795,123.459831 369.311676,125.019577 
	C369.368195,126.151138 370.784668,127.442207 371.909241,128.187805 
	C372.400696,128.513657 374.424103,127.724075 374.461853,127.320381 
	C374.587128,125.980942 374.352570,124.489594 373.818481,123.244080 
	C373.390167,122.245026 372.325775,121.518677 370.877228,120.250504 
z"/>
<path fill="#6EC285" opacity="1.000000" stroke="none" 
	d="
M216.705109,379.521851 
	C213.954163,377.592407 211.516586,375.871155 209.010559,374.256134 
	C197.700424,366.967224 186.342239,359.752380 175.074432,352.398865 
	C173.002792,351.046906 171.176376,349.271576 169.396835,347.528259 
	C163.183960,341.442017 163.272339,340.462372 166.787567,332.592529 
	C169.891327,325.643890 169.305710,318.296570 167.742020,311.015320 
	C167.433380,309.578125 167.199417,308.124908 166.931015,306.679047 
	C167.331863,306.503662 167.732712,306.328308 168.133560,306.152924 
	C169.794357,309.588898 171.210999,313.171936 173.171814,316.427185 
	C176.296783,321.615204 179.773956,326.591675 183.128204,331.640320 
	C183.665482,332.449005 184.660645,333.078339 184.899979,333.941467 
	C188.545685,347.089630 199.383759,353.619843 209.506485,360.802094 
	C210.306305,361.369598 211.276306,361.743896 212.217087,362.059174 
	C228.177979,367.407440 234.734863,380.722321 240.133591,395.008057 
	C240.280746,395.397522 240.064789,395.924255 239.928894,397.272888 
	C233.877441,395.319031 228.013214,393.699310 222.410950,391.432281 
	C220.933243,390.834320 220.067261,388.324738 219.274780,386.535919 
	C218.315552,384.370697 217.732697,382.038727 216.705109,379.521851 
z"/>
<path fill="#6EC285" opacity="1.000000" stroke="none" 
	d="
M340.016724,286.962646 
	C335.880005,286.971283 332.234680,286.971283 327.511841,286.971283 
	C330.554260,281.070007 333.236603,275.642944 336.197235,270.372253 
	C336.628723,269.604095 338.499146,269.074890 339.517273,269.295502 
	C347.784760,271.087036 356.019409,273.036377 364.235779,275.052948 
	C366.155914,275.524261 368.043396,276.284973 369.816284,277.171753 
	C375.999023,280.264252 377.001862,282.863708 375.228210,289.675537 
	C372.720581,299.306061 370.758087,309.102570 367.736847,318.564514 
	C366.352112,322.901276 363.421082,326.961823 360.442780,330.521332 
	C355.977417,335.858124 350.900391,340.690735 345.977203,345.631836 
	C344.648499,346.965363 342.936005,347.916504 341.231506,349.166504 
	C338.390656,340.138000 342.569214,332.846588 349.338715,327.292603 
	C354.411041,323.131104 357.785400,316.383545 360.613892,310.192627 
	C362.377197,306.333099 361.668549,301.361420 362.159943,296.898804 
	C362.665619,292.306183 360.419342,289.180695 356.273529,288.370941 
	C351.122650,287.364899 345.772308,287.380005 340.016724,286.962646 
z"/>
<path fill="#70C386" opacity="1.000000" stroke="none" 
	d="
M318.401855,145.387863 
	C309.743683,153.429993 301.634186,161.567932 292.888000,168.951675 
	C288.873932,172.340439 283.609741,174.248306 278.912445,176.827744 
	C278.453156,176.061020 277.993866,175.294296 277.534576,174.527573 
	C279.629028,173.084259 281.749146,171.676437 283.810822,170.187759 
	C285.919525,168.665161 288.099731,167.198944 289.974823,165.419556 
	C290.597137,164.829010 290.844208,163.026917 290.396698,162.359573 
	C289.967316,161.719284 288.400330,161.594055 287.359772,161.660004 
	C284.721802,161.827164 282.098663,162.228455 279.469604,162.535965 
	C279.256042,161.726196 279.042511,160.916412 278.828979,160.106644 
	C284.579437,157.944244 290.285187,155.650940 296.096863,153.667877 
	C299.662903,152.451065 302.336823,150.720367 302.936127,145.384064 
	C297.894501,145.716553 293.214630,146.025177 288.534760,146.333801 
	C288.431458,145.882233 288.328156,145.430679 288.224854,144.979111 
	C293.059265,140.565048 299.153748,138.974472 305.545349,138.071991 
	C307.845245,137.747238 310.296021,137.878220 312.420471,137.099106 
	C314.473907,136.346008 316.195892,134.689148 318.063477,133.429291 
	C316.116516,132.634445 314.213501,131.693970 312.209167,131.089249 
	C310.499603,130.573471 308.673553,130.443695 306.899048,130.143158 
	C306.799530,129.442535 306.700012,128.741898 306.600494,128.041275 
	C309.865082,127.020851 313.075714,125.454857 316.408630,125.125015 
	C320.154114,124.754341 324.008331,125.657631 327.818573,125.698997 
	C330.034485,125.723061 332.256958,125.143311 334.476501,124.835258 
	C334.516968,124.274834 334.557465,123.714409 334.597961,123.153984 
	C332.310730,121.970131 330.023529,120.786270 327.736328,119.602409 
	C327.859924,119.107597 327.983490,118.612785 328.107086,118.117973 
	C333.796600,116.079918 339.398438,117.104881 344.719757,119.960304 
	C347.682251,121.549980 350.179108,122.081390 353.186676,118.919060 
	C350.623779,117.578323 348.346863,116.387184 346.069946,115.196045 
	C346.282532,114.613159 346.495117,114.030266 346.707672,113.447380 
	C350.106293,114.595787 353.737915,115.320122 356.833099,117.020782 
	C359.526428,118.500633 358.902466,122.673187 356.014557,123.547226 
	C341.857727,127.831825 330.208191,136.375687 318.401855,145.387863 
z"/>
<path fill="#F9FDFA" opacity="1.000000" stroke="none" 
	d="
M393.997314,150.808655 
	C391.895172,152.010681 389.843628,152.817993 387.792084,153.625305 
	C387.151703,151.928543 385.712463,150.018539 386.092682,148.594254 
	C386.482941,147.132294 388.651550,146.145065 390.041870,144.950073 
	C391.377197,146.771362 392.712555,148.592651 393.997314,150.808655 
z"/>
<path fill="#F6FBF7" opacity="1.000000" stroke="none" 
	d="
M371.210449,120.460907 
	C372.325775,121.518677 373.390167,122.245026 373.818481,123.244080 
	C374.352570,124.489594 374.587128,125.980942 374.461853,127.320381 
	C374.424103,127.724075 372.400696,128.513657 371.909241,128.187805 
	C370.784668,127.442207 369.368195,126.151138 369.311676,125.019577 
	C369.233795,123.459831 370.300690,121.842926 371.210449,120.460907 
z"/>
</svg>