<?xml version="1.0" encoding="UTF-8"?> <svg xmlns="http://www.w3.org/2000/svg" xmlns:xlink="http://www.w3.org/1999/xlink" id="Layer_1" data-name="Layer 1" viewBox="0 0 24 25"><defs><style>.cls-1,.cls-4{fill:none;}.cls-2{clip-path:url(#clip-path);}.cls-3{fill:#502c1e;}.cls-4{stroke:#502c1e;stroke-miterlimit:10;stroke-width:1.5px;}</style><clipPath id="clip-path"><circle class="cls-1" cx="11.97" cy="12.5" r="11.13"></circle></clipPath></defs><title>24x25-HBLR CLOCK TOWER Brown</title><g class="cls-2"><path class="cls-3" d="M20,16.31l0,0-.14-.06a.44.44,0,0,1-.22-.16L19.5,16c-.44-.52-.88-1-1.29-1.58a.27.27,0,0,1-.06-.17c0-.53,0-1,0-1.58v-1a.32.32,0,0,1,.1-.26h0a.05.05,0,0,0,0-.08l-.06,0a.07.07,0,0,1,0-.06.07.07,0,0,0,0,0,.25.25,0,0,1,0-.17,1.46,1.46,0,0,0,.07-.19.09.09,0,0,1,.07-.06l.11,0a.1.1,0,0,0,.05,0,.13.13,0,0,1,.07-.06l.07,0a.07.07,0,0,0,.05-.07.09.09,0,0,1,0-.08.17.17,0,0,0,.06-.1.08.08,0,0,1,0-.05c0-.06,0-.07,0-.1h0l-.5-.23s-.06,0-.06-.08a.14.14,0,0,0-.06-.12.33.33,0,0,1-.1-.14l-.32-.66L15.39,4.18a.61.61,0,0,0-.05-.12s0,0,0-.06l0,0s0,0,0-.07l-.1-.05a.23.23,0,0,1-.11-.11.08.08,0,0,1,0-.09l0-.06a.1.1,0,0,0,0-.13.13.13,0,0,0-.07-.06l-.07-.05,0-.07.07-.07a.15.15,0,0,0,.05-.16.6.6,0,0,0,0-.12h-.07l0,.08,0,0V27.15h.07l.22-.05.31-.08c1.1-.34,2.2-.71,3.29-1.09l.27-.1a.08.08,0,0,0,0-.07v-.07c0-.19,0-.38,0-.56l-.06-1.36c0-.44-.05-.87-.07-1.31a.47.47,0,0,1,.08-.31.23.23,0,0,1,.07-.07.1.1,0,0,0,.06-.09v0a.12.12,0,0,0-.07-.13s0,0-.05-.06a1.43,1.43,0,0,1,0-.29c0-.49,0-1,0-1.48s0-.83,0-1.25c0-.1,0-.2,0-.3a.16.16,0,0,1,.1-.14s.06-.05.07-.1a.4.4,0,0,1,.09-.21.3.3,0,0,0,0-.34l-.05-.06s0,0,0-.07l0,0a.13.13,0,0,0,0-.09s0,0,0-.06a.14.14,0,0,1,.05-.11l0,0s0-.05,0-.07l0,0s0-.06,0-.08l0,0,.22-.05a.09.09,0,0,0,.09-.1,0,0,0,0,0,0,0,1.34,1.34,0,0,0,0-.2.11.11,0,0,1,.06-.11l.09-.06,0,0A.06.06,0,0,0,20,16.31Zm-4.15-5,1.07.44,0,2.48-1-.43Zm1.28,9c-.61-.05-1.11-.83-1.13-1.74s.46-1.61,1.06-1.56,1.11.83,1.13,1.74S17.73,20.42,17.13,20.37Z"></path><path class="cls-3" d="M10.13,16.37l0,0,.08.07s.06.06.06.11v.23a.13.13,0,0,0,.09.1l.22.05h0a.05.05,0,0,1,0,.09s0,0,0,0,0,0,0,.07h0a.16.16,0,0,1,0,.11v.07s0,.06.05.09,0,0,0,0a0,0,0,0,1,0,.06l0,.07a.3.3,0,0,0,0,.34.4.4,0,0,1,.09.21.14.14,0,0,0,.08.1.17.17,0,0,1,.09.14c0,.1,0,.2,0,.3,0,.42,0,.83,0,1.25s0,1,0,1.48a1,1,0,0,1,0,.29.07.07,0,0,1,0,.06.11.11,0,0,0-.07.13v0a.09.09,0,0,0,0,.09.16.16,0,0,1,.07.07.47.47,0,0,1,.08.31L11,23.72l-.06,1.35,0,.56v.08a.06.06,0,0,0,.05.06l.27.1c1.09.39,2.18.75,3.28,1.1l.32.07.22.06h.06V3s0,0,0,0l0-.09h-.07s0,.08,0,.12a.17.17,0,0,0,.06.16l.07.06a.3.3,0,0,0,0,.08l-.07,0s-.05,0-.06.06a.12.12,0,0,0,0,.14l0,0a.09.09,0,0,1,0,.1.2.2,0,0,1-.11.11l-.09,0s0,.05,0,.08l0,0s0,0,0,.06a.61.61,0,0,1-.05.12L12.47,8.87l-.31.67a.49.49,0,0,1-.11.14.16.16,0,0,0-.05.11.09.09,0,0,1-.06.09l-.5.22,0,0c-.06,0-.06,0,0,.09l0,.06a.15.15,0,0,0,.06.1.11.11,0,0,1,0,.08s0,.06.06.07l.07,0a.1.1,0,0,1,.06,0s0,0,.06.05a.45.45,0,0,0,.11,0,.09.09,0,0,1,.06.07c0,.06.05.12.07.19a.22.22,0,0,1,0,.16s0,0,0,.06,0,0,0,.06l-.06,0s0,0,0,.07l0,0a.31.31,0,0,1,.11.26v1c0,.52,0,1.05,0,1.58a.25.25,0,0,1-.06.16c-.4.55-.85,1.07-1.29,1.59l-.1.12a.45.45,0,0,1-.22.16l-.13,0,0,0A.07.07,0,0,0,10.13,16.37Zm4.1-2.58-1.06.43.05-2.48,1.07-.44Zm-2.28,5c0-.91.53-1.69,1.13-1.74s1.08.65,1.07,1.56-.53,1.69-1.13,1.74S11.94,19.68,12,18.77Z"></path><path class="cls-3" d="M15.24,3.78l-.12,0,0,0a.22.22,0,0,1,0-.14.14.14,0,0,1,.11,0,.23.23,0,0,0,.12,0,.07.07,0,0,0-.06-.06l-.09,0-.06,0c.08,0,.15.06.23,0a0,0,0,0,0,0,0l-.15-.06-.06,0h.08l-.08-.06.07,0a.14.14,0,0,0,0-.15.39.39,0,0,1,0-.14V1.24c0-.52,0-1,0-1.57V-.75a.25.25,0,0,1,0-.09.17.17,0,0,0,0-.18h-.06S15-1,15-1a.09.09,0,0,0,0,.1.41.41,0,0,1,0,.16V.44c0,.43,0,.87,0,1.3s0,.78,0,1.16A.28.28,0,0,1,15,3s0,0,0,0h0l0-.09h-.07a.5.5,0,0,0,0,.12.14.14,0,0,0,0,.15.46.46,0,0,1,.07.07.56.56,0,0,1,.05.08l-.07,0-.07.06a.11.11,0,0,0,0,.13l0,.06a.09.09,0,0,1,0,.1.1.1,0,0,1,0,0Z"></path></g><circle class="cls-4" cx="11.97" cy="12.5" r="11.13"></circle></svg> 