<?xml version="1.0" encoding="UTF-8"?> <svg xmlns="http://www.w3.org/2000/svg" xmlns:xlink="http://www.w3.org/1999/xlink" id="a418711c-e66a-4d5f-91ca-a98482eadd63" data-name="Layer 1" width="24" height="25" viewBox="0 0 24 25"><defs><clipPath id="bdb148ec-4c4b-433e-8e44-cebb53e13a8d"><ellipse cx="11.87111" cy="12.78769" rx="11.31029" ry="11.05189" style="fill:none"></ellipse></clipPath></defs><title>24X25-MainBergen</title><circle cx="12.02386" cy="12.54841" r="11.14394" style="fill:none;stroke:#f2b826;stroke-miterlimit:10;stroke-width:1.5px"></circle><g style="clip-path:url(#bdb148ec-4c4b-433e-8e44-cebb53e13a8d)"><path d="M6.08913,22.29519v.55345h.91166a3.78193,3.78193,0,0,0,.08147-.55345,9.36615,9.36615,0,0,1,.19538-1.90492,3.91524,3.91524,0,0,1,.7164-1.35134,3.70745,3.70745,0,0,1,.73279-.99336c.08118-.09746.43968-.35821.43968-.4559a3.76585,3.76585,0,0,0-1.07478.81428,9.80446,9.80446,0,0,0-.91178.99313,9.01532,9.01532,0,0,0-.81412,1.72581,4.22963,4.22963,0,0,0-.2767,1.1723Zm.179-1.70955a.44024.44024,0,0,1-.08132.26046,3.49274,3.49274,0,0,0-.17911.73268A1.13859,1.13859,0,0,0,5.91,21.12289,9.92515,9.92515,0,0,0,5.1935,19.218a14.37606,14.37606,0,0,0-1.72587-2.80066l-.09769-.09768a.303.303,0,0,1,.1955.09768,1.92265,1.92265,0,0,1,.61872.53725c.37438.456,1.00934,1.35145,1.00934,1.35145a22.2239,22.2239,0,0,0-1.82356-3.51686,11.74745,11.74745,0,0,0-1.25359-1.90488c-.19537-.2769-.635-.81409-.55357-.81409a3.00122,3.00122,0,0,1,.55357.35817,7.659,7.659,0,0,1,1.25359,1.44906,15.2421,15.2421,0,0,1,1.44921,2.36091,13.26516,13.26516,0,0,1,1.00943,2.52346,13.023,13.023,0,0,1,.43956,1.82379Zm2.45869-5.61728a8.0716,8.0716,0,0,1,1.1723-2.53994,4.64174,4.64174,0,0,1,.91166-1.26992v-.09769c.08147,0-.19537.27682-.27673.635-.0978.27668-.63493,1.27-1.449,3.53313-.35821,1.26992-.55376,2.00254-.63522,2.45843,0,0-.35809.35821-.45578.43956a2.29239,2.29239,0,0,0-.45594.45612s.55363-1.905,1.18873-3.61468Zm.89546-5.259a.90579.90579,0,0,0-.35809-.45583L9.72,7.723c0-.179,0-.27676-.09768-.27676-.08148,0-.17911,0-.2607.17919L8.98718,9.17214a.86983.86983,0,0,0-.635.26046,2.57934,2.57934,0,0,0-.35815.73262l-.99325,3.7937a1.07857,1.07857,0,0,0-.09763.635.996.996,0,0,0,.456.5536s-.17916.71643-.35832,1.80714c-.27667,1.44932-.35815,2.182-.35815,2.26341v.179l-.63493-3.15869a1.22484,1.22484,0,0,0,.45581-.45594,1.0979,1.0979,0,0,0,0-.55352l-.83031-3.8913s-.08136-.71643-.35826-.89547a1.19923,1.19923,0,0,0-.53727-.19553L4.37953,8.61857c0-.08142,0-.17907-.19537-.17907-.08145,0-.08145.09765-.08145.17907l.35815,1.62806a1.02159,1.02159,0,0,0-.45584.55366,1.66107,1.66107,0,0,0,.09769.814l.71644,3.7937a.841.841,0,0,0,.2767.635c.09765.19536.456.27667.63493.27667,0,0,.53736,2.62155.635,3.35416a.915.915,0,0,1,.09769.45584,1.60228,1.60228,0,0,1,.2606-.37436,1.34964,1.34964,0,0,1,.179-.35826c.09763-.63523.1791-1.27016.37448-2.26329.17915-1.09076.35814-1.90486.35814-1.90486a1.2168,1.2168,0,0,0,.63493-.17936,1.31913,1.31913,0,0,0,.26057-.53716l1.00953-3.8098s.26052-.71635.08148-.99325ZM5.73078,16.043s.0978,0,.17922-.35827a1.25208,1.25208,0,0,0,0-.63519l-.81415-3.61425a1.12561,1.12561,0,0,0-.17893-.635c-.17924-.27672-.27693-.17909-.17924-.27672a.4238.4238,0,0,1,.45582.179,1.12406,1.12406,0,0,1,.17925.635l.81407,3.71194a1.4961,1.4961,0,0,1,0,.63519.53444.53444,0,0,1-.456.35827Zm3.63081-5.51946-1.0094,3.71214a1.449,1.449,0,0,1-.26046.55351.92175.92175,0,0,1-.55363.17914c0-.09757.09768,0,.37447-.27667a4.85068,4.85068,0,0,0,.17916-.53742l.99331-3.6307a5.46657,5.46657,0,0,0,.08147-.71649c-.08147-.27682-.17933-.27682-.08147-.27682a.56636.56636,0,0,1,.35814.35823,3.48311,3.48311,0,0,1-.08159.63508Z" style="fill:#f2b826;fill-rule:evenodd"></path><path d="M10.12181,17.9207h.20811c.0925,0,.0925,0,.208.09278.0925,0,.30057.20774.41609.20774.20811,0,.3006-.20774.41632-.20774.09231,0,.09231-.09278.30042-.09278a.479.479,0,0,1,.30056.20831c.11567.09221.11567.09221.41628.09221.208.116.30061-.09221.41613-.09221.09249,0,.20807-.11553.20807-.11553l-.11558-.09278h-.3006a.60192.60192,0,0,1-.41623-.20821c-.0924-.11533-.41613-.41575-.62425-.41575-.30052,0-.30052.20821-.60112.20821-.32359,0-.41609-.30108-.71669-.30108l-.11553.09287v.624Zm14.40355.30052.116-.20774h.09222a3.35588,3.35588,0,0,1,1.04047-.301c.41576,0,.50854.09278.624.20821.09278,0,.30032.20831.50863.20831a1.15934,1.15934,0,0,1,.30042.09221v.925a.506.506,0,0,1-.50873-.09278,2.41232,2.41232,0,0,0-.92429-.41575,1.6556,1.6556,0,0,0-.83227.30032c-.09286,0-.2082.11543-.2082.11543v-.41575a.72694.72694,0,0,0-.20821-.41642ZM21.33494,5.251l-.2082.20825s-.185-.09249-.39273-.20825a3.0273,3.0273,0,0,0-.32421-.208,2.07121,2.07121,0,0,0,.53195.11576,2.49758,2.49758,0,0,1,.39319.09226ZM20.82622,19.6781a2.78348,2.78348,0,0,1,.2083.185,5.45286,5.45286,0,0,0,.71684.32354c.32354,0,.41585-.116.62406-.116a1.17687,1.17687,0,0,1,.624-.20755,1.12417,1.12417,0,0,1,.60151.11534,1.76027,1.76027,0,0,0,.83225.41641.645.645,0,0,0,.624-.116,1.03957,1.03957,0,0,1,.71692-.20821c.41576,0,.71675.3242,1.01726.4165.32355.20821.41576.20821.41576.20821V19.6781a.99772.99772,0,0,0-.30042-.11608,1.94132,1.94132,0,0,1-.50863-.30033,3.362,3.362,0,0,0-.7394-.2083,5.56682,5.56682,0,0,0-.71684.30108.82559.82559,0,0,1-.50863.11543,1.20563,1.20563,0,0,1-.62471-.11543c-.09221-.09278-.20754-.2083-.30032-.30108a3.46348,3.46348,0,0,1-.50873-.11543h-.32364c.11543,0,.20821-.09221.32364-.09221a.96711.96711,0,0,1,.30052-.20811l.301.20811c.20754.20764.41575.41594.624.20764a.45787.45787,0,0,0,0-.624c-.20821-.20821-.09221-.20821-.09221-.20821a10.44193,10.44193,0,0,0,1.31767-2.86688c.2083-.94755.41585-2.17315.41585-2.17315a4.12075,4.12075,0,0,1,.71693-.09213.50392.50392,0,0,0,.53176-.532c0-.3931-.32355-.3931-.53176-.50853h-.71693A23.11159,23.11159,0,0,0,25.26532,9.274a6.32489,6.32489,0,0,0-1.13268-2.05774s.20773-.32364.3005-.50862c.20821-.20808.30043-.41619.09222-.53171a.45281.45281,0,0,0-.60093,0c-.20821.20811-.53175.53171-.53175.53171L22.46753,6.176,22.26,6.49959a7.165,7.165,0,0,1,1.75665,2.9825,5.014,5.014,0,0,1,.50872,2.26579h.41641a.77472.77472,0,0,1,.62406.80915.96791.96791,0,0,1-.50871.83236h-.53176a10.00419,10.00419,0,0,1-.60093,2.774,5.63048,5.63048,0,0,1-1.13326,2.17386,1.14185,1.14185,0,0,1-.41575.39254l.20821.20821-.32364.20821c0-.09278-.09278-.09278-.09278-.20821l-.2083-.20821a8.41,8.41,0,0,0,2.26594-5.64069h.50872a.49784.49784,0,0,0,.53175-.532.49178.49178,0,0,0-.53175-.50853h-.50872A8.87128,8.87128,0,0,0,21.8667,6.49959l.39329-.5317a.60073.60073,0,0,0,0-.80914c-.18509-.11576-.50863,0-.71684.208l-.41641.60112a5.68563,5.68563,0,0,0-3.491-1.133H17.127l-.11548-.50863c0-.30051,0-.50863-.30055-.50863-.20811,0-.30062.20812-.30062.50863v.62435a6.1101,6.1101,0,0,0-3.098,2.26565s-.41614-.50862-.62415-.20811c-.18509.20811-.09259.30061.11552.62425l.09249.09239A10.01286,10.01286,0,0,0,11.55515,11.956v.09249c-.1848,0-.50858,0-.393.30032a.36282.36282,0,0,0,.393.32383h0a9.27937,9.27937,0,0,0,1.04048,4.20758l-.0925.116c-.208.20765-.32373.41585-.11552.60094.208.11533.41613.11533.50862-.09221a10.08062,10.08062,0,0,0,1.04025,1.2248h-.208a2.74245,2.74245,0,0,0-.41608-.30032c-.09255-.09222-.09255-.09222-.30056-.09222-.11558,0-.20807.09222-.32359.09222,0,.11533-.18509.20821-.30061.20821-.20821-.09288-.30061-.09288-.41628-.20821-.09235-.09222-.20806-.20821-.30056-.20821a.38785.38785,0,0,0-.30042.116c-.11572.09222-.20821.20755-.32378.20755a1.00655,1.00655,0,0,1-.30056-.11533c-.20807-.09222-.20807-.20821-.41609-.30042a.43288.43288,0,0,0-.20811.09221V18.938c0-.09221.11553-.09221.20811-.09221.208,0,.208,0,.30052.09221a.784.784,0,0,0,.41613.20821c.20806,0,.41609-.20821.6242-.20821.0925,0,.30056.11543.41623.11543,0,.09278.20811.2083.30061.2083.208.09278.30061,0,.41613-.11552,0-.09278.09249-.20821.30057-.20821.11551,0,.32364.32373.41613.32373.208.09278.208.20821.416.20821a1.37961,1.37961,0,0,0,.62429-.20821,3.657,3.657,0,0,0,1.22546.71675h0c-.09249,0-.20807.09221-.3006.09221-.11572,0-.41633-.09221-.41633-.20755-.11543-.09287-.416-.185-.50853-.30108-.20811,0-.62429.11608-.73973.11608A.83777.83777,0,0,1,13.428,19.562c-.11558-.09212-.11558-.20755-.41614-.20755-.32359,0-.50868.20755-.7167.20755-.32378,0-.53184-.41585-.74-.41585-.1848,0-.393.32373-.60112.32373-.208-.11543-.53161-.41651-.71669-.41651h-.11553v.71684c0-.09213,0-.09213.11553-.09213.09258,0,.18508.09213.3006.185.0925,0,.30057.20755.41609.20755a.38887.38887,0,0,0,.3006-.09221c.11572-.11534.11572-.11534.30052-.11534a.55748.55748,0,0,1,.41618.20755.52367.52367,0,0,0,.41628.20821c.11552,0,.208-.09222.30061-.20821h.32359c.208,0,.30056.116.41614.116,0,.09222.185.20821.3005.20821.09259,0,.208.0923.30052,0,.20811,0,.20811-.116.5318-.116.3006,0,.3931.116.50853.116,0,.0923.09254.20765.41633.20765.3006.09286.3931-.11535.80913-.20765.32369,0,.41624.20765.6243.30051.09249.11534.09249.20821.416.20821.3006,0,.6012-.20821.80928-.20821.32368-.09286.41608,0,.5318.20821.20783.09212.50881.20755.71636.30033a2.32681,2.32681,0,0,1,.41641-.09278c.20831-.11543.20831-.20755.60084-.20755a1.00961,1.00961,0,0,1,.62472.20755,1.21382,1.21382,0,0,0,.624.301c.20821.11552.41641,0,.6015-.09278a2.16446,2.16446,0,0,1,.624-.11543.69831.69831,0,0,1,.62416.32373,2.08625,2.08625,0,0,0,.83226.30033,1.3742,1.3742,0,0,0,.71675-.20812,1.015,1.015,0,0,1,.60149-.09221,1.45694,1.45694,0,0,1,.92448.50854,2.04632,2.04632,0,0,0,.624.09221V21.11112H26.7913a2.44819,2.44819,0,0,1-.50872-.41576c-.20821,0-.41642-.20821-.71675-.20821a1.24639,1.24639,0,0,0-.62406.20821c-.09286,0-.41641.20821-.6014.11534a1.63887,1.63887,0,0,1-.73948-.2082,1.1073,1.1073,0,0,0-.80972-.32364c-.32364-.09222-.71627.32364-1.03981.20829-.30108,0-.50863,0-.62462-.20829-.185-.09222-.30052-.09222-.39273-.20821a.4828.4828,0,0,0-.53175.116c-.09278,0-.50873.09222-.71694.09222-.20811.116-.30032,0-.41632,0h-.09221a5.0707,5.0707,0,0,0,1.54911-.50863,1.168,1.168,0,0,1,.30032-.09213ZM13.428,8.64987,15.87873,11.956l.11562.09249H12.50313A7.82847,7.82847,0,0,1,13.428,8.64987Zm-.92482,4.11527,3.19061.11572-2.47392,3.19042a8.0981,8.0981,0,0,1-.71669-3.30614Zm3.90725,6.381A5.81856,5.81856,0,0,1,13.52044,16.788l2.88994-3.49135v5.84951Zm0-7.81461L13.821,7.93294a7.00046,7.00046,0,0,1,2.58934-1.84948v5.2481Zm4.71636,6.38093-3.58352-4.73942,5.34073.116a7.34654,7.34654,0,0,1-1.75721,4.62343Zm1.75721-5.664H17.33511l3.69941-4.62419s1.54911,1.341,1.84943,4.62419Zm-5.8724-6.08061H17.127a.99526.99526,0,0,1,.50868-.09254,4.12788,4.12788,0,0,1,2.77409,1.0173L17.01155,11.1235h0V5.96789Zm2.381,12.97007V17.20387l-.71636-.83227v2.89009h-.32383v-.62405h-.208a.82116.82116,0,0,1-.39306.20811c-.11562.09221-.11562.09221-.20811.09221h-.20811v.41651a.61039.61039,0,0,1-.32356-.09278h0V13.59764l3.51435,4.62358a4.18455,4.18455,0,0,1-1.13335.71674Zm-3.69881-1.3408h.3931v.32354a1.53721,1.53721,0,0,0-.20811-.20821.26357.26357,0,0,0-.185-.11533Zm1.64137.20811a2.31982,2.31982,0,0,1,.41622-.09278c.09249-.11533.185-.20754.30056-.20754h.30047v.83226s-.0925-.116-.30047,0a.71345.71345,0,0,0-.41618.20755c-.09249.09288-.3006,0-.3006,0v-.73949Zm2.35842,0H19.809l.09231-.09278a1.00419,1.00419,0,0,1,.116.301c.09221,0,.185.20774.185.20774a.26267.26267,0,0,0-.185.116c-.116,0-.32374.20755-.32374.20755v-.73949ZM18.25986,6.29148a2.05072,2.05072,0,0,1,1.13269.30061V7.63243l-.71636.925V6.70767h-.73988a5.00967,5.00967,0,0,0-.50866.185V6.176a4.16284,4.16284,0,0,1,.83221.11552Zm-2.173.30061V7.72482l-.3931.50873.30061.41632.09249.71665-.71693-.80914-.30061.416-.71664-.948a11.22349,11.22349,0,0,1,.80918-.92472,3.32629,3.32629,0,0,1,.925-.50863ZM13.52044,9.274l.83222,1.13282a1.00773,1.00773,0,0,0-.20807.62411c-.11562.3006-.20811.60121-.20811.60121H12.89623s.11558-.60121.20808-1.13282A3.93641,3.93641,0,0,1,13.52044,9.274Zm4.83192,2.05753.20811.20821h.11572v-.71688l.71636-.73973v1.2484L21.65849,8.7653a3.72582,3.72582,0,0,0,.20821.3931,1.18434,1.18434,0,0,0,.09221.41618l-1.84943,2.1733H18.05189l.30047-.41632Zm1.66491,1.9651,2.05763,2.24267a1.70069,1.70069,0,0,1-.2082.41647,1.325,1.325,0,0,0-.20821.4158l-2.26594-2.98221v1.34094l-.71636-.925v-.32368h-.20812l-.20821-.185ZM15.99435,15.239v.83227l-1.24859,1.52588-.3931-.39329L15.99435,15.239Zm-3.19061-2.15H13.821v.71627a3.33624,3.33624,0,0,0,.11544.71679l-.62411.92515a5.38721,5.38721,0,0,1-.30056-1.22547c-.11558-.532-.20807-1.13274-.20807-1.13274ZM14.029,16.672l.41623-.50867.20806.32434-.41618.50853L14.029,16.672Zm1.34094,1.5492c-.20807-.20774-.416-.41595-.416-.41595l.32369-.30032s.20807.20754.41618.41575a1.286,1.286,0,0,0,.3931.30052v.50853s-.3931-.30032-.71693-.50853Z" style="fill:#f2b826;fill-rule:evenodd"></path></g></svg> 