<?xml version="1.0" encoding="UTF-8"?> <svg xmlns="http://www.w3.org/2000/svg" id="b8322c2a-c60f-4958-a4df-163cd8ea6b38" data-name="Layer 1" width="24" height="25" viewBox="0 0 24 25"><title>24x25-MontclairBoonton</title><circle cx="11.97145" cy="12.46954" r="11.16139" style="fill:none;stroke:#c36366;stroke-miterlimit:10;stroke-width:1.5px"></circle><path d="M18.14854,9.84252a.36671.36671,0,0,1,.11367-.4473.25134.25134,0,0,1,.368.13851.36882.36882,0,0,1-.11308.447.25053.25053,0,0,1-.36855-.13821M5.99561,18.34908c-.38116.21329-.53518.42495-.55335.628-.0159.20274.05625.11031.3345-.0353a2.73005,2.73005,0,0,1,.924-.19189,2.7258,2.7258,0,0,0,.99222-.43418c.24543-.15733,2.24413-1.59316,2.24413-1.59316A18.55382,18.55382,0,0,0,13.146,15.50114a21.03836,21.03836,0,0,0,3.38907-2.031,12.716,12.716,0,0,0,2.845-2.63307,1.53211,1.53211,0,0,1,.82545-.56177,2.12517,2.12517,0,0,0,.472-.0969c.03646-.01692-.17154-.17746-.39375-.30211-.13112-.07662-.34923-.11837-.4128-.27972a1.57771,1.57771,0,0,0-1.3623-.88022c-.86471-.07126-2.02706,1.20029-2.78775.48735a34.59151,34.59151,0,0,0-3.73842-2.79045A11.53946,11.53946,0,0,0,7.29727,4.53569c-1.60284-.20084-1.97175.15643-1.75409.45468.2439.328.43829.18237.8814.316a3.69838,3.69838,0,0,1,.78794.38817s-.43044.04893-.75417.11434c-.32007.06416-.88257.24879-.5778.57069.16713.17945.57993.13953,1.04413.301a1.501,1.501,0,0,1,.67589.412.989.989,0,0,0-.56126.008c-.37588.09647-.73294.24843-.5817.50354.16964.28381.439.08884.819.2094.28631.09229.98006.22728,1.61909.45424a3.40026,3.40026,0,0,1,1.4,1.3785,21.53479,21.53479,0,0,0,1.71643,2.5968s-.58285.50874-.93325.83291A19.24925,19.24925,0,0,0,9.2083,15.21417c-.90689,1.27749-3.1122,2.209-3.50325,2.4605a1.37172,1.37172,0,0,0-.62013.68554c-.01964.13946.59164-.20683.75768-.24931.16546-.04335.53328.02652.153.23818" style="fill:#c36366;stroke:#c36366;stroke-miterlimit:10;stroke-width:0.15px"></path><path d="M15.76406,15.52319a1.81765,1.81765,0,0,1-1.0891-.513,11.85523,11.85523,0,0,0,1.53-.90014,12.21312,12.21312,0,0,0,1.61542-1.23c.133-.1393.35712.29955,1.36421.46685a1.24473,1.24473,0,0,1,.98188.41382c.81621.88366.96944,1.337.62739,1.27068-.10326-.018-.06445.0246-.4875-.21527-.11029-.065-.49452-.12012-.19716.02292.15278.07757.44282.25277.10694.36981a1.61732,1.61732,0,0,1-.58287-.13938c-.20727-.07573-.40328-.01443-.32519.01787.15146.066.537.20083.20625.36357a5.16151,5.16151,0,0,1-.96666.02563,5.71277,5.71277,0,0,1-1.23456-.10854C16.98751,15.32448,16.4275,15.5379,15.76406,15.52319Z" style="fill:#c36366;stroke:#c36366;stroke-miterlimit:10;stroke-width:0.15px"></path></svg> 