<svg version="1.1" id="Layer_1" xmlns="http://www.w3.org/2000/svg" xmlns:xlink="http://www.w3.org/1999/xlink" x="0px" y="0px"
	 width="100%" viewBox="0 0 473 472" enable-background="new 0 0 473 472" xml:space="preserve">
<path fill="#0D8944" opacity="1.000000" stroke="none" 
	d="
M209.000000,1.000001 
	C227.354233,1.000000 245.708450,1.000000 264.510315,1.410291 
	C267.909698,2.534109 270.824982,3.531916 273.818939,3.916146 
	C297.544922,6.960992 320.011597,14.229467 341.355377,24.763496 
	C360.110626,34.019970 378.008728,44.825310 393.028229,59.631504 
	C403.590729,70.044014 414.411407,80.343979 423.763489,91.799080 
	C436.909607,107.901367 447.054352,126.013542 455.149384,145.256531 
	C463.879517,166.009262 469.577972,187.490402 472.073547,209.854172 
	C472.196991,210.960663 473.334595,211.953995 474.000000,213.000000 
	C474.000000,229.020889 474.000000,245.041794 473.585815,261.504822 
	C472.114441,267.844391 471.057007,273.741730 470.000092,279.639160 
	C465.254333,306.119629 456.104004,331.076447 442.834595,354.381805 
	C429.322021,378.114166 411.950043,398.774292 391.080200,416.530212 
	C377.113495,428.413025 362.156525,438.709442 345.866852,447.070801 
	C323.479858,458.561890 299.988373,466.683105 274.978821,470.213715 
	C272.569427,470.553833 270.322388,472.043793 268.000000,473.000000 
	C247.979111,473.000000 227.958206,473.000000 207.503937,472.594086 
	C204.288147,471.465271 201.544571,470.480988 198.717163,470.061157 
	C177.605103,466.926392 157.450134,460.548950 138.163330,451.601471 
	C118.525124,442.491058 99.934708,431.439514 84.152321,416.499237 
	C72.284218,405.264374 60.738495,393.547150 50.239365,381.045197 
	C38.136189,366.633209 28.955360,350.189117 21.340021,332.898865 
	C11.927128,311.527405 5.734393,289.322510 2.926626,266.146057 
	C2.792128,265.035889 1.664912,264.045929 0.999997,263.000000 
	C1.000000,246.312439 1.000000,229.624878 1.417151,212.492386 
	C2.542743,208.430130 3.430015,204.837357 3.930713,201.191498 
	C7.273483,176.850967 14.793073,153.795532 25.667021,131.858826 
	C33.293724,116.472984 42.584446,102.134064 53.472301,88.751907 
	C65.130836,74.422508 78.074150,61.463047 92.597778,50.165615 
	C108.867401,37.510021 126.506409,26.982746 145.614105,19.129253 
	C163.135330,11.927817 181.107422,6.251783 200.019485,3.881926 
	C203.085236,3.497759 206.010040,1.988961 209.000000,1.000001 
M399.491730,364.978943 
	C411.052643,350.153961 420.657532,334.115723 427.828461,316.774597 
	C436.856323,294.942963 443.083008,272.329742 442.943512,248.465057 
	C442.859711,234.120834 443.281494,219.612396 441.331909,205.473419 
	C437.088562,174.700058 425.851166,146.230927 407.764008,120.924309 
	C399.247681,109.008667 389.026337,98.300789 379.404266,87.195801 
	C377.568695,85.077339 375.427216,82.783569 371.770081,85.035881 
	C343.112793,102.684807 314.338715,120.144012 285.683319,137.795929 
	C271.858612,146.312042 258.265106,155.203857 244.423950,163.692459 
	C242.495895,164.874908 239.581802,165.426392 237.434341,164.929489 
	C236.012268,164.600418 233.916656,161.512512 234.277817,160.303482 
	C235.078796,157.622131 236.891235,154.981979 238.954681,153.024261 
	C240.504242,151.554138 243.218185,151.401428 245.188843,150.270355 
	C257.815643,143.023026 270.386780,135.678482 282.963959,128.344910 
	C305.938171,114.948982 328.907837,101.545227 351.870239,88.129021 
	C357.351501,84.926483 362.796600,81.662003 369.079468,77.939491 
	C322.411133,40.726074 270.176605,25.269665 212.094894,32.291481 
	C153.886261,39.328648 107.360992,67.646744 71.382271,114.312843 
	C93.208328,123.665550 114.264267,132.792374 135.404465,141.719666 
	C159.663971,151.964172 184.000290,162.026672 208.296783,172.183716 
	C210.940887,173.289047 212.545609,178.074020 210.689148,180.629578 
	C208.815033,183.209457 206.295120,185.380539 202.717743,182.784546 
	C186.057312,170.694580 166.603317,164.299316 148.026566,156.155396 
	C129.288406,147.940720 110.354118,140.173584 91.508736,132.203339 
	C83.215210,128.695755 74.929070,125.170738 66.341415,121.527130 
	C55.158566,138.609818 46.243137,156.408813 40.373013,175.593491 
	C32.294987,201.993988 29.357166,228.980408 31.947079,256.563690 
	C36.162403,301.458038 53.516930,340.755280 83.149345,374.387634 
	C101.489868,395.203827 123.433090,411.714081 148.788010,423.520660 
	C179.940781,438.027039 212.471252,444.991730 246.901886,443.194794 
	C267.682983,442.110229 287.745911,438.189941 307.365814,431.182373 
	C336.273712,420.857452 361.282501,404.556580 383.098694,383.210876 
	C388.757812,377.673767 393.734650,371.439301 399.491730,364.978943 
z"/>
<path fill="#000000" opacity="1.000000" stroke="none" 
	d="
M474.000000,212.531342 
	C473.334595,211.953995 472.196991,210.960663 472.073547,209.854172 
	C469.577972,187.490402 463.879517,166.009262 455.149384,145.256531 
	C447.054352,126.013542 436.909607,107.901367 423.763489,91.799080 
	C414.411407,80.343979 403.590729,70.044014 393.028229,59.631504 
	C378.008728,44.825310 360.110626,34.019970 341.355377,24.763496 
	C320.011597,14.229467 297.544922,6.960992 273.818939,3.916146 
	C270.824982,3.531916 267.909698,2.534109 264.979004,1.410291 
	C334.594208,1.000000 404.188446,1.000000 474.000000,1.000000 
	C474.000000,71.354080 474.000000,141.708374 474.000000,212.531342 
z"/>
<path fill="#000000" opacity="1.000000" stroke="none" 
	d="
M268.468658,473.000000 
	C270.322388,472.043793 272.569427,470.553833 274.978821,470.213715 
	C299.988373,466.683105 323.479858,458.561890 345.866852,447.070801 
	C362.156525,438.709442 377.113495,428.413025 391.080200,416.530212 
	C411.950043,398.774292 429.322021,378.114166 442.834595,354.381805 
	C456.104004,331.076447 465.254333,306.119629 470.000092,279.639160 
	C471.057007,273.741730 472.114441,267.844391 473.585815,261.973511 
	C474.000000,332.259491 474.000000,402.518951 474.000000,473.000000 
	C405.645935,473.000000 337.291626,473.000000 268.468658,473.000000 
z"/>
<path fill="#000000" opacity="1.000000" stroke="none" 
	d="
M208.531342,1.000001 
	C206.010040,1.988961 203.085236,3.497759 200.019485,3.881926 
	C181.107422,6.251783 163.135330,11.927817 145.614105,19.129253 
	C126.506409,26.982746 108.867401,37.510021 92.597778,50.165615 
	C78.074150,61.463047 65.130836,74.422508 53.472301,88.751907 
	C42.584446,102.134064 33.293724,116.472984 25.667021,131.858826 
	C14.793073,153.795532 7.273483,176.850967 3.930713,201.191498 
	C3.430015,204.837357 2.542743,208.430130 1.417151,212.023727 
	C1.000000,141.740158 1.000000,71.480301 1.000000,1.000000 
	C70.020737,1.000000 139.041718,1.000000 208.531342,1.000001 
z"/>
<path fill="#000000" opacity="1.000000" stroke="none" 
	d="
M0.999997,263.468658 
	C1.664912,264.045929 2.792128,265.035889 2.926626,266.146057 
	C5.734393,289.322510 11.927128,311.527405 21.340021,332.898865 
	C28.955360,350.189117 38.136189,366.633209 50.239365,381.045197 
	C60.738495,393.547150 72.284218,405.264374 84.152321,416.499237 
	C99.934708,431.439514 118.525124,442.491058 138.163330,451.601471 
	C157.450134,460.548950 177.605103,466.926392 198.717163,470.061157 
	C201.544571,470.480988 204.288147,471.465271 207.035278,472.594086 
	C138.405609,473.000000 69.811211,473.000000 1.000000,473.000000 
	C1.000000,403.312592 1.000000,333.624939 0.999997,263.468658 
z"/>
<path fill="#FEFEFE" opacity="1.000000" stroke="none" 
	d="
M399.258301,365.252075 
	C393.734650,371.439301 388.757812,377.673767 383.098694,383.210876 
	C361.282501,404.556580 336.273712,420.857452 307.365814,431.182373 
	C287.745911,438.189941 267.682983,442.110229 246.901886,443.194794 
	C212.471252,444.991730 179.940781,438.027039 148.788010,423.520660 
	C123.433090,411.714081 101.489868,395.203827 83.149345,374.387634 
	C53.516930,340.755280 36.162403,301.458038 31.947079,256.563690 
	C29.357166,228.980408 32.294987,201.993988 40.373013,175.593491 
	C46.243137,156.408813 55.158566,138.609818 66.341415,121.527130 
	C74.929070,125.170738 83.215210,128.695755 91.508736,132.203339 
	C110.354118,140.173584 129.288406,147.940720 148.026566,156.155396 
	C166.603317,164.299316 186.057312,170.694580 202.717743,182.784546 
	C206.295120,185.380539 208.815033,183.209457 210.689148,180.629578 
	C212.545609,178.074020 210.940887,173.289047 208.296783,172.183716 
	C184.000290,162.026672 159.663971,151.964172 135.404465,141.719666 
	C114.264267,132.792374 93.208328,123.665550 71.382271,114.312843 
	C107.360992,67.646744 153.886261,39.328648 212.094894,32.291481 
	C270.176605,25.269665 322.411133,40.726074 369.079468,77.939491 
	C362.796600,81.662003 357.351501,84.926483 351.870239,88.129021 
	C328.907837,101.545227 305.938171,114.948982 282.963959,128.344910 
	C270.386780,135.678482 257.815643,143.023026 245.188843,150.270355 
	C243.218185,151.401428 240.504242,151.554138 238.954681,153.024261 
	C236.891235,154.981979 235.078796,157.622131 234.277817,160.303482 
	C233.916656,161.512512 236.012268,164.600418 237.434341,164.929489 
	C239.581802,165.426392 242.495895,164.874908 244.423950,163.692459 
	C258.265106,155.203857 271.858612,146.312042 285.683319,137.795929 
	C314.338715,120.144012 343.112793,102.684807 371.770081,85.035881 
	C375.427216,82.783569 377.568695,85.077339 379.404266,87.195801 
	C389.026337,98.300789 399.247681,109.008667 407.764008,120.924309 
	C425.851166,146.230927 437.088562,174.700058 441.331909,205.473419 
	C443.281494,219.612396 442.859711,234.120834 442.943512,248.465057 
	C443.083008,272.329742 436.856323,294.942963 427.828461,316.774597 
	C420.657532,334.115723 411.052643,350.153961 399.258301,365.252075 
M357.644867,319.965302 
	C358.793945,321.232086 360.264252,322.331818 361.027344,323.799286 
	C362.779694,327.169342 364.187500,330.718536 365.735168,334.195007 
	C366.280914,334.104828 366.826630,334.014679 367.372375,333.924530 
	C367.578156,331.427521 368.270447,328.855835 367.900696,326.447144 
	C366.667267,318.411865 365.042603,310.436951 363.586853,302.435455 
	C357.711365,270.141022 351.849365,237.844131 345.967926,205.550781 
	C344.324921,196.529526 342.632141,187.517334 341.183990,179.698303 
	C328.361755,189.357941 315.489624,199.055206 302.583466,208.778091 
	C305.466614,213.179947 308.475952,217.774460 311.485260,222.368958 
	C311.087921,222.731216 310.690552,223.093491 310.293182,223.455750 
	C305.295105,220.640213 299.666077,218.529266 295.493011,214.792419 
	C291.977722,211.644592 289.350433,210.499832 285.287354,212.792557 
	C284.154877,213.431610 282.769379,213.624710 281.497192,214.013336 
	C252.675476,222.817795 223.175598,226.181168 193.122528,224.825150 
	C189.936234,224.681381 189.037109,225.952896 187.418396,228.566299 
	C182.535370,236.449997 176.761124,243.781662 171.334351,251.328568 
	C170.940781,251.037582 170.547211,250.746582 170.153641,250.455597 
	C171.828690,241.005493 173.503738,231.555405 175.181335,222.091003 
	C158.722900,217.904800 142.876144,213.940689 128.584885,203.495071 
	C131.405502,221.977966 134.054840,239.263718 136.678680,256.553345 
	C139.183594,273.059113 141.669189,289.567841 144.150040,306.077271 
	C146.825363,323.880768 149.432404,341.694946 152.234253,359.478455 
	C152.512985,361.247559 153.938156,362.836029 154.831223,364.508331 
	C156.005997,359.259247 162.212982,350.346924 169.578201,344.658722 
	C168.281143,354.994873 167.086349,364.515991 165.770309,375.003296 
	C178.089050,389.400757 233.109512,401.730743 260.831787,398.327881 
	C261.685333,393.539673 262.556366,388.653503 263.639343,382.578339 
	C265.798340,385.947968 267.811279,388.210999 268.820404,390.856842 
	C270.636414,395.618164 273.334381,395.729126 277.693054,394.266205 
	C293.491608,388.963715 309.287903,383.801453 323.718079,375.150452 
	C338.935974,366.027069 350.462769,352.927612 363.222229,340.181458 
	C357.200256,337.349731 353.293091,333.465607 351.203857,327.725189 
	C349.317108,322.541077 346.929749,317.539154 344.763184,312.456848 
	C345.121765,312.250977 345.480347,312.045074 345.838898,311.839172 
	C349.574127,314.402130 353.309357,316.965118 357.644867,319.965302 
M258.197815,207.843430 
	C265.357605,205.871796 272.473907,203.717834 279.693451,201.996826 
	C284.029755,200.963120 286.704376,199.407272 286.122528,194.218719 
	C285.734772,190.760849 288.273590,188.416397 291.577087,188.459473 
	C293.610901,188.485992 295.704742,190.135941 297.604401,191.324326 
	C298.428131,191.839600 298.830597,193.028214 299.571777,194.130081 
	C303.824280,191.490784 307.770844,189.077225 311.681732,186.607239 
	C322.785950,179.594238 332.912201,171.301071 339.446289,159.826004 
	C346.628845,147.212173 346.640381,129.826385 331.599945,119.912338 
	C327.464050,122.495476 323.222504,125.144600 318.920715,127.831352 
	C329.556335,137.305450 332.591522,143.425980 324.730560,153.515091 
	C322.807068,155.983765 320.862427,158.506683 318.556274,160.594620 
	C306.219788,171.763855 291.916870,179.552628 276.248871,185.027283 
	C246.483353,195.427795 215.913574,198.479843 184.711624,194.755142 
	C171.032883,193.122253 157.468109,190.074188 146.044632,181.889282 
	C138.531586,176.506210 133.462891,172.217896 138.677917,161.091019 
	C133.556473,159.392593 128.473587,157.706955 123.387131,156.020142 
	C118.765228,170.344711 125.063309,186.382080 137.834946,196.034897 
	C148.742218,204.278610 161.468353,208.146500 174.835861,210.894196 
	C176.538422,205.678955 179.380829,202.175522 185.529404,202.952301 
	C192.307831,203.808655 190.711761,209.907944 192.514633,214.093887 
	C214.361786,213.564713 236.030426,212.659210 258.197815,207.843430 
M294.566406,418.034607 
	C307.308990,413.572144 320.222351,409.537476 332.750092,404.536774 
	C347.745575,398.550964 360.084686,388.874664 369.136536,375.281189 
	C372.875153,369.666748 374.108795,365.860168 373.134949,362.200348 
	C368.635864,366.568726 366.745758,366.273773 362.693848,360.884674 
	C353.822815,368.544403 345.448547,376.948700 335.924377,383.740448 
	C319.101776,395.736694 299.984436,402.697418 279.597229,406.088989 
	C276.798096,406.554657 274.533783,406.932953 273.716980,410.704132 
	C272.807953,414.901215 265.243317,416.647430 262.111450,413.287781 
	C258.775391,409.708984 255.091904,409.569122 250.858536,409.772430 
	C234.443604,410.560699 218.046509,409.946899 202.356003,404.795502 
	C191.161453,401.120178 180.444580,395.989807 169.900391,391.666931 
	C168.417114,392.932526 166.256180,395.889618 165.072891,395.539795 
	C163.005905,394.928711 161.466843,392.346436 159.857269,390.461517 
	C159.177856,389.665863 158.880737,388.543762 158.409851,387.570038 
	C158.442368,397.664398 165.176163,403.296021 172.497726,408.132019 
	C192.789566,421.535065 216.070908,424.279541 239.498138,425.871460 
	C258.054596,427.132355 276.003204,423.093872 294.566406,418.034607 
M300.762573,101.562828 
	C242.589203,90.396393 188.900757,101.855240 138.483322,133.180527 
	C143.551041,135.705109 147.751572,138.129639 152.218643,139.870010 
	C154.179214,140.633881 157.036407,140.749084 158.879639,139.876694 
	C167.064880,136.002670 174.854263,131.271866 183.108673,127.568260 
	C206.180969,117.216125 230.462891,111.822098 255.758469,112.384499 
	C265.867340,112.609253 275.932007,114.788841 286.019531,116.056641 
	C287.042114,116.185158 288.403473,116.610985 289.066498,116.138870 
	C294.882782,111.997467 300.576111,107.683350 306.921967,102.962059 
	C304.639557,102.527260 303.060211,102.226402 300.762573,101.562828 
z"/>
<path fill="#0D8944" opacity="1.000000" stroke="none" 
	d="
M357.344727,319.746704 
	C353.309357,316.965118 349.574127,314.402130 345.838898,311.839172 
	C345.480347,312.045074 345.121765,312.250977 344.763184,312.456848 
	C346.929749,317.539154 349.317108,322.541077 351.203857,327.725189 
	C353.293091,333.465607 357.200256,337.349731 363.222229,340.181458 
	C350.462769,352.927612 338.935974,366.027069 323.718079,375.150452 
	C309.287903,383.801453 293.491608,388.963715 277.693054,394.266205 
	C273.334381,395.729126 270.636414,395.618164 268.820404,390.856842 
	C267.811279,388.210999 265.798340,385.947968 263.639343,382.578339 
	C262.556366,388.653503 261.685333,393.539673 260.831787,398.327881 
	C233.109512,401.730743 178.089050,389.400757 165.770309,375.003296 
	C167.086349,364.515991 168.281143,354.994873 169.578201,344.658722 
	C162.212982,350.346924 156.005997,359.259247 154.831223,364.508331 
	C153.938156,362.836029 152.512985,361.247559 152.234253,359.478455 
	C149.432404,341.694946 146.825363,323.880768 144.150040,306.077271 
	C141.669189,289.567841 139.183594,273.059113 136.678680,256.553345 
	C134.054840,239.263718 131.405502,221.977966 128.584885,203.495071 
	C142.876144,213.940689 158.722900,217.904800 175.181335,222.091003 
	C173.503738,231.555405 171.828690,241.005493 170.153641,250.455597 
	C170.547211,250.746582 170.940781,251.037582 171.334351,251.328568 
	C176.761124,243.781662 182.535370,236.449997 187.418396,228.566299 
	C189.037109,225.952896 189.936234,224.681381 193.122528,224.825150 
	C223.175598,226.181168 252.675476,222.817795 281.497192,214.013336 
	C282.769379,213.624710 284.154877,213.431610 285.287354,212.792557 
	C289.350433,210.499832 291.977722,211.644592 295.493011,214.792419 
	C299.666077,218.529266 305.295105,220.640213 310.293182,223.455750 
	C310.690552,223.093491 311.087921,222.731216 311.485260,222.368958 
	C308.475952,217.774460 305.466614,213.179947 302.583466,208.778091 
	C315.489624,199.055206 328.361755,189.357941 341.183990,179.698303 
	C342.632141,187.517334 344.324921,196.529526 345.967926,205.550781 
	C351.849365,237.844131 357.711365,270.141022 363.586853,302.435455 
	C365.042603,310.436951 366.667267,318.411865 367.900696,326.447144 
	C368.270447,328.855835 367.578156,331.427521 367.372375,333.924530 
	C366.826630,334.014679 366.280914,334.104828 365.735168,334.195007 
	C364.187500,330.718536 362.779694,327.169342 361.027344,323.799286 
	C360.264252,322.331818 358.793945,321.232086 357.344727,319.746704 
M162.987228,313.748108 
	C159.069107,321.681427 160.357986,330.292145 159.204727,338.585144 
	C172.428009,325.397003 175.782990,316.670380 174.365646,300.279541 
	C170.640762,304.670685 167.045105,308.909515 162.987228,313.748108 
M218.069199,285.694366 
	C215.097488,279.539703 212.125778,273.385010 209.164841,267.252625 
	C202.358765,282.100433 208.802475,294.003387 217.069733,305.770935 
	C217.517960,299.324219 217.966202,292.877533 218.069199,285.694366 
M254.768234,364.260193 
	C251.431107,357.638611 248.093979,351.017029 244.580551,344.045624 
	C240.556839,356.080231 244.806717,376.055542 252.790497,382.924988 
	C253.542068,376.832825 254.268799,370.942078 254.768234,364.260193 
M288.498871,263.110657 
	C286.884247,260.129425 285.269653,257.148193 283.452393,253.792801 
	C278.851807,270.583984 280.841278,285.055328 288.655884,291.854309 
	C289.183716,286.976929 289.679413,282.270599 290.205841,277.567657 
	C290.730804,272.878479 292.362305,268.089569 288.498871,263.110657 
M270.182587,345.866058 
	C269.205017,350.829468 268.300476,355.808655 267.230682,360.752106 
	C265.999939,366.439270 270.175140,376.657043 274.806549,378.763580 
	C275.800110,365.758911 280.099823,352.588623 272.034607,340.269592 
	C271.789703,340.437714 271.370697,340.570251 271.327881,340.779724 
	C271.033691,342.218933 270.818207,343.674286 270.182587,345.866058 
M198.106766,260.716339 
	C202.695053,249.687775 196.080322,241.157562 191.773331,231.993896 
	C190.801865,238.114334 185.006088,243.197708 187.935150,249.832932 
	C190.520981,255.690628 193.696228,261.288147 196.611206,267.000549 
	C197.003433,266.823639 197.395645,266.646729 197.787857,266.469788 
	C197.920258,264.835358 198.052643,263.200897 198.106766,260.716339 
M334.504120,292.032745 
	C339.368347,294.964172 344.232574,297.895630 349.096802,300.827057 
	C345.410614,287.398438 337.824493,278.142639 324.924805,272.803741 
	C328.186554,279.380768 331.160248,285.377075 334.504120,292.032745 
M325.492767,251.028763 
	C321.852448,242.315567 313.275421,239.371155 306.187164,234.056427 
	C308.437042,247.441513 319.053223,259.149109 331.380219,261.702789 
	C329.421234,258.114441 327.658539,254.885666 325.492767,251.028763 
M179.408737,262.181885 
	C179.563477,261.221497 179.718216,260.261139 179.872955,259.300751 
	C179.418427,259.071167 178.963882,258.841583 178.509354,258.612000 
	C174.614731,263.744812 169.478745,268.381439 167.173233,274.149414 
	C164.848450,279.965607 165.333557,286.904907 164.454437,294.502777 
	C173.817413,284.807373 177.296646,274.219177 179.408737,262.181885 
M284.957245,316.112213 
	C285.809143,309.035980 280.364471,304.701904 278.080078,298.991516 
	C273.764771,314.254028 274.446198,323.302063 280.424744,333.337250 
	C281.915314,327.606750 283.304932,322.264374 284.957245,316.112213 
M226.970779,308.356018 
	C226.834808,309.659607 226.951004,311.053070 226.523529,312.252808 
	C222.608185,323.241486 227.824844,332.225403 233.085876,341.369324 
	C234.154144,336.053528 235.678070,330.580750 234.966400,325.415955 
	C234.223083,320.021393 231.389786,314.898438 229.312286,309.720093 
	C228.967178,308.859863 227.815704,308.323120 226.970779,308.356018 
M294.103729,247.224258 
	C295.717316,241.042389 297.360718,234.867966 298.904694,228.668762 
	C299.086731,227.937943 298.951843,226.938568 298.575104,226.289307 
	C296.320923,222.404953 293.952789,218.586746 291.627411,214.753815 
	C287.886597,226.187820 288.363373,237.098053 294.103729,247.224258 
z"/>
<path fill="#0F8945" opacity="1.000000" stroke="none" 
	d="
M257.772858,207.874146 
	C236.030426,212.659210 214.361786,213.564713 192.514633,214.093887 
	C190.711761,209.907944 192.307831,203.808655 185.529404,202.952301 
	C179.380829,202.175522 176.538422,205.678955 174.835861,210.894196 
	C161.468353,208.146500 148.742218,204.278610 137.834946,196.034897 
	C125.063309,186.382080 118.765228,170.344711 123.387131,156.020142 
	C128.473587,157.706955 133.556473,159.392593 138.677917,161.091019 
	C133.462891,172.217896 138.531586,176.506210 146.044632,181.889282 
	C157.468109,190.074188 171.032883,193.122253 184.711624,194.755142 
	C215.913574,198.479843 246.483353,195.427795 276.248871,185.027283 
	C291.916870,179.552628 306.219788,171.763855 318.556274,160.594620 
	C320.862427,158.506683 322.807068,155.983765 324.730560,153.515091 
	C332.591522,143.425980 329.556335,137.305450 318.920715,127.831352 
	C323.222504,125.144600 327.464050,122.495476 331.599945,119.912338 
	C346.640381,129.826385 346.628845,147.212173 339.446289,159.826004 
	C332.912201,171.301071 322.785950,179.594238 311.681732,186.607239 
	C307.770844,189.077225 303.824280,191.490784 299.571777,194.130081 
	C298.830597,193.028214 298.428131,191.839600 297.604401,191.324326 
	C295.704742,190.135941 293.610901,188.485992 291.577087,188.459473 
	C288.273590,188.416397 285.734772,190.760849 286.122528,194.218719 
	C286.704376,199.407272 284.029755,200.963120 279.693451,201.996826 
	C272.473907,203.717834 265.357605,205.871796 257.772858,207.874146 
z"/>
<path fill="#0F8945" opacity="1.000000" stroke="none" 
	d="
M294.165833,418.121613 
	C276.003204,423.093872 258.054596,427.132355 239.498138,425.871460 
	C216.070908,424.279541 192.789566,421.535065 172.497726,408.132019 
	C165.176163,403.296021 158.442368,397.664398 158.409851,387.570038 
	C158.880737,388.543762 159.177856,389.665863 159.857269,390.461517 
	C161.466843,392.346436 163.005905,394.928711 165.072891,395.539795 
	C166.256180,395.889618 168.417114,392.932526 169.900391,391.666931 
	C180.444580,395.989807 191.161453,401.120178 202.356003,404.795502 
	C218.046509,409.946899 234.443604,410.560699 250.858536,409.772430 
	C255.091904,409.569122 258.775391,409.708984 262.111450,413.287781 
	C265.243317,416.647430 272.807953,414.901215 273.716980,410.704132 
	C274.533783,406.932953 276.798096,406.554657 279.597229,406.088989 
	C299.984436,402.697418 319.101776,395.736694 335.924377,383.740448 
	C345.448547,376.948700 353.822815,368.544403 362.693848,360.884674 
	C366.745758,366.273773 368.635864,366.568726 373.134949,362.200348 
	C374.108795,365.860168 372.875153,369.666748 369.136536,375.281189 
	C360.084686,388.874664 347.745575,398.550964 332.750092,404.536774 
	C320.222351,409.537476 307.308990,413.572144 294.165833,418.121613 
z"/>
<path fill="#0F8A46" opacity="1.000000" stroke="none" 
	d="
M301.121735,101.744186 
	C303.060211,102.226402 304.639557,102.527260 306.921967,102.962059 
	C300.576111,107.683350 294.882782,111.997467 289.066498,116.138870 
	C288.403473,116.610985 287.042114,116.185158 286.019531,116.056641 
	C275.932007,114.788841 265.867340,112.609253 255.758469,112.384499 
	C230.462891,111.822098 206.180969,117.216125 183.108673,127.568260 
	C174.854263,131.271866 167.064880,136.002670 158.879639,139.876694 
	C157.036407,140.749084 154.179214,140.633881 152.218643,139.870010 
	C147.751572,138.129639 143.551041,135.705109 138.483322,133.180527 
	C188.900757,101.855240 242.589203,90.396393 301.121735,101.744186 
z"/>
<path fill="#F9FCFA" opacity="1.000000" stroke="none" 
	d="
M163.218323,313.448212 
	C167.045105,308.909515 170.640762,304.670685 174.365646,300.279541 
	C175.782990,316.670380 172.428009,325.397003 159.204727,338.585144 
	C160.357986,330.292145 159.069107,321.681427 163.218323,313.448212 
z"/>
<path fill="#F6FAF8" opacity="1.000000" stroke="none" 
	d="
M218.241821,286.062592 
	C217.966202,292.877533 217.517960,299.324219 217.069733,305.770935 
	C208.802475,294.003387 202.358765,282.100433 209.164841,267.252625 
	C212.125778,273.385010 215.097488,279.539703 218.241821,286.062592 
z"/>
<path fill="#F9FCFA" opacity="1.000000" stroke="none" 
	d="
M254.881882,364.655762 
	C254.268799,370.942078 253.542068,376.832825 252.790497,382.924988 
	C244.806717,376.055542 240.556839,356.080231 244.580551,344.045624 
	C248.093979,351.017029 251.431107,357.638611 254.881882,364.655762 
z"/>
<path fill="#F8FCFA" opacity="1.000000" stroke="none" 
	d="
M288.689697,263.449463 
	C292.362305,268.089569 290.730804,272.878479 290.205841,277.567657 
	C289.679413,282.270599 289.183716,286.976929 288.655884,291.854309 
	C280.841278,285.055328 278.851807,270.583984 283.452393,253.792801 
	C285.269653,257.148193 286.884247,260.129425 288.689697,263.449463 
z"/>
<path fill="#FBFDFC" opacity="1.000000" stroke="none" 
	d="
M270.379974,345.495239 
	C270.818207,343.674286 271.033691,342.218933 271.327881,340.779724 
	C271.370697,340.570251 271.789703,340.437714 272.030945,340.270691 
	C280.099823,352.588623 275.800110,365.758911 274.806549,378.763580 
	C270.175140,376.657043 265.999939,366.439270 267.230682,360.752106 
	C268.300476,355.808655 269.205017,350.829468 270.379974,345.495239 
z"/>
<path fill="#F9FCFB" opacity="1.000000" stroke="none" 
	d="
M198.145905,261.141418 
	C198.052643,263.200897 197.920258,264.835358 197.787857,266.469788 
	C197.395645,266.646729 197.003433,266.823639 196.611206,267.000549 
	C193.696228,261.288147 190.520981,255.690628 187.935150,249.832932 
	C185.006088,243.197708 190.801865,238.114334 191.773331,231.993896 
	C196.080322,241.157562 202.695053,249.687775 198.145905,261.141418 
z"/>
<path fill="#F8FBF9" opacity="1.000000" stroke="none" 
	d="
M334.319031,291.703064 
	C331.160248,285.377075 328.186554,279.380768 324.924805,272.803741 
	C337.824493,278.142639 345.410614,287.398438 349.096802,300.827057 
	C344.232574,297.895630 339.368347,294.964172 334.319031,291.703064 
z"/>
<path fill="#FAFDFB" opacity="1.000000" stroke="none" 
	d="
M325.694305,251.342834 
	C327.658539,254.885666 329.421234,258.114441 331.380219,261.702789 
	C319.053223,259.149109 308.437042,247.441513 306.187164,234.056427 
	C313.275421,239.371155 321.852448,242.315567 325.694305,251.342834 
z"/>
<path fill="#F9FCFB" opacity="1.000000" stroke="none" 
	d="
M179.303940,262.562195 
	C177.296646,274.219177 173.817413,284.807373 164.454437,294.502777 
	C165.333557,286.904907 164.848450,279.965607 167.173233,274.149414 
	C169.478745,268.381439 174.614731,263.744812 178.509354,258.612000 
	C178.963882,258.841583 179.418427,259.071167 179.872955,259.300751 
	C179.718216,260.261139 179.563477,261.221497 179.303940,262.562195 
z"/>
<path fill="#FAFDFB" opacity="1.000000" stroke="none" 
	d="
M284.825897,316.517090 
	C283.304932,322.264374 281.915314,327.606750 280.424744,333.337250 
	C274.446198,323.302063 273.764771,314.254028 278.080078,298.991516 
	C280.364471,304.701904 285.809143,309.035980 284.825897,316.517090 
z"/>
<path fill="#F7FBF9" opacity="1.000000" stroke="none" 
	d="
M227.003815,307.996460 
	C227.815704,308.323120 228.967178,308.859863 229.312286,309.720093 
	C231.389786,314.898438 234.223083,320.021393 234.966400,325.415955 
	C235.678070,330.580750 234.154144,336.053528 233.085876,341.369324 
	C227.824844,332.225403 222.608185,323.241486 226.523529,312.252808 
	C226.951004,311.053070 226.834808,309.659607 227.003815,307.996460 
z"/>
<path fill="#F7FBF9" opacity="1.000000" stroke="none" 
	d="
M293.801392,247.452637 
	C288.363373,237.098053 287.886597,226.187820 291.627411,214.753815 
	C293.952789,218.586746 296.320923,222.404953 298.575104,226.289307 
	C298.951843,226.938568 299.086731,227.937943 298.904694,228.668762 
	C297.360718,234.867966 295.717316,241.042389 293.801392,247.452637 
z"/>
</svg>