<?xml version="1.0" encoding="UTF-8"?> <svg xmlns="http://www.w3.org/2000/svg" id="Layer_1" data-name="Layer 1" viewBox="0 0 24 25"><defs><style>.cls-1,.cls-2{fill:none;}.cls-1{stroke:#e67dac;stroke-miterlimit:10;stroke-width:1.5px;}.cls-3{fill:#e67dac;}</style></defs><title>24X25-NLR Cherry Blossom Pink</title><circle class="cls-1" cx="12.02" cy="12.55" r="11.14"></circle><ellipse class="cls-2" cx="11.87" cy="12.79" rx="11.31" ry="11.05"></ellipse><path class="cls-3" d="M10.39,9.9h0a2.92,2.92,0,0,1,.58.75,1.11,1.11,0,0,1,.21.69l-.14.23-.1.05-.17,0c-.07,0-.27,0-.73-.7,0,0-.45-.74-.18-1,.07-.07.25-.21.52,0m3.86,3.47.08,0c.36.13.8.29.95.59l0,.08c.07.14.14.27.06.41a.35.35,0,0,1-.31.14,1.42,1.42,0,0,1-.59-.24c-.23-.09-.8-.34-.94-.62a.32.32,0,0,1,0-.41c.16-.18.42-.08.7,0m-2,1.68-.07.31v0c.1.4.2.79-.08.9l-.14,0-.1-.05c-.27-.13-.4-.71-.4-.72a1.81,1.81,0,0,1,.19-1.19c.1-.13.19-.27.37-.26a.36.36,0,0,1,.28.25c.09.16,0,.37-.06.7M10.48,3.11c-.29.1-.62.91-.92,1.2A3.3,3.3,0,0,0,8.22,6.47a7.24,7.24,0,0,0,.86,2.77l.06.13a.87.87,0,0,1-.06-.13A2.09,2.09,0,0,0,7.51,8.09,6.21,6.21,0,0,0,4.44,9.22a2.18,2.18,0,0,0-.84,1.69c0,.48.89,1.08.89,1.08s-1.29.55-1.29,1.09,1.59,1.69,2.62,1.83a6.39,6.39,0,0,0,2.48-.49L9,14.15c0-.21.22-.37.45-.52l.15-.1s.66-.66,1-.58l.17.06,0,.15c.09.38-.75,1.06-.76,1.07a1.26,1.26,0,0,1-.82.2.33.33,0,0,1-.21-.19.29.29,0,0,1,0-.09l-.73.27-.25.1a8.11,8.11,0,0,0-.94.54,5.89,5.89,0,0,0-1.24,1.88c-.32.78-.54,2.68-.14,3s1.47-.24,1.68-.2.2.2.1.35a4.26,4.26,0,0,0-.4,1c-.06.39.29.54.55.54A7.47,7.47,0,0,0,9.78,21a5.08,5.08,0,0,0,2.08-1.78,2.36,2.36,0,0,0,.52-1.93l0-.1,0,.1a22.89,22.89,0,0,0,1,2.87A3.63,3.63,0,0,0,15,21.4c.38.15,1.48.39,1.68.14s-.08-1.18-.08-1.52.39,0,.72.15,1.06.39,1.27.17c.69-.69.33-2.44-.08-3.2s-1.2-1.8-1.2-2,.05-.25.41-.33A3.57,3.57,0,0,0,19.33,14a7.12,7.12,0,0,0,1.14-1.48c.18-.38.55-1.29.15-1.83a3.81,3.81,0,0,0-.5-.45A.48.48,0,0,1,20,9.92c0-.15.09-.27.24-.5A.68.68,0,0,0,20,8.5a8.53,8.53,0,0,0-3.27-.91C15.57,7.59,15.18,8.69,15,9c-.09.17-.33.5-.55.82l-.39.56.07.11h0a1.62,1.62,0,0,1-.17,1c-.34.67-.57.7-.65.71a.36.36,0,0,1-.3-.13c-.2-.24,0-.56.09-.77,0,0,.06-.12.05-.08a1.84,1.84,0,0,1,.33-.93.42.42,0,0,1,.28-.11h.09a.38.38,0,0,1,.2.16l.4-.54a5,5,0,0,0,.34-.57A6,6,0,0,0,15,6.58,4,4,0,0,0,13.4,4.42a2.09,2.09,0,0,0-.93-.19c-.3,0-.66-.48-.91-.68s-.78-.53-1.08-.44"></path></svg> 