<?xml version="1.0" encoding="UTF-8"?> <svg xmlns="http://www.w3.org/2000/svg" xmlns:xlink="http://www.w3.org/1999/xlink" id="afb5b9c7-0b52-4cc0-956e-63bc4651a889" data-name="Layer 1" width="24" height="25" viewBox="0 0 24 25"><defs><clipPath id="bfcbd6ac-f7e9-4bcb-9ee8-69100959fff0"><circle cx="11.84952" cy="12.66793" r="11.19628" style="fill:none"></circle></clipPath></defs><title>24X25-NortheastCorridor</title><g style="clip-path:url(#bfcbd6ac-f7e9-4bcb-9ee8-69100959fff0)"><path d="M12.27463,8.70083V6.64688h-.42746V8.70083Zm-.96194,0V6.64688h-.42753V8.70083Zm1.49641,0h.42774V6.64688H12.8091V8.70083Zm0-3.63578a.959.959,0,0,0-.8284-.73182.96026.96026,0,0,0-.80161.73182,6.78632,6.78632,0,0,0-.29393,1.20411h2.35168a4.06293,4.06293,0,0,0-.42774-1.20411Zm-1.63-1.93583a.121.121,0,0,0,.1336-.118c.13357-.11817.40087.118.40087.236.13361.11814.13361.11814.13361.37785v.354h.29409v-.354c0-.25971,0-.25971.13337-.37785.1336-.118.26775-.35417.40108-.236a.12094.12094,0,0,1,.13339.118c.13347.118.13347,0,.26755-.118,0,0-.13408,0-.13408-.11817a.44765.44765,0,0,0-.53434,0c-.1336,0-.267.23613-.267.23613V2.51541a1.00014,1.00014,0,0,0-.16056-.35413v.35413a4.25365,4.25365,0,0,1-.13353.61381s-.13361-.23613-.26714-.23613c-.13377-.118-.26734-.118-.53448,0v.11817c0,.118,0,.236.13354.118Zm5.21118,10.90715a5.52357,5.52357,0,0,0-4.40957-2.31381,5.57013,5.57013,0,0,0-4.249,2.43167,8.5952,8.5952,0,0,0-.80179,3.1399H17.19216a7.04661,7.04661,0,0,0-.80189-3.25776Zm-2.35168-3.87188a.72257.72257,0,0,1-.40087-.118c-.56107-.49581-.40088-.85-.40088-.85H10.88516s0,.35417-.53448.85a.44186.44186,0,0,1-.26731.118v.118h3.95522v-.118Zm3.44716,7.62532H6.36877V18.876h11.117V17.78981Zm-9.75406.8498c-.26731,0-.40091-.11779-.40091-.23565-.13357-.26,0-.37788.26731-.37788a.2845.2845,0,0,1,.42753.2594c0,.11848-.1604.35413-.29393.35413Zm1.25593,0c-.294,0-.42752-.11779-.42752-.23565-.13361-.26,0-.37788.2673-.37788a.28069.28069,0,0,1,.42757.2594c0,.11848-.1336.35413-.26735.35413Zm1.22929,0c-.13354,0-.4275-.11779-.4275-.23565-.1336-.26,0-.37788.294-.37788.13354-.11841.40084,0,.40084.2594,0,.11848,0,.35413-.2673.35413Zm1.22935,0c-.26717,0-.40071-.11779-.40071-.23565,0-.26,0-.37788.26714-.37788.13357-.11841.40087,0,.40087.2594,0,.11848,0,.35413-.2673.35413Zm1.22945,0c-.13333,0-.40108-.11779-.40108-.23565-.13337-.26.1336-.37788.26775-.37788.26672-.11841.40019,0,.40019.2594.13408.11848,0,.35413-.26686.35413Zm1.22955,0c-.13415,0-.40087-.11779-.40087-.23565,0-.26.13333-.37788.26672-.37788.26748-.11841.42774,0,.42774.2594.13339.11848,0,.35413-.29359.35413Zm1.22874,0c-.1334,0-.40088-.11779-.40088-.23565,0-.26.13415-.37788.26748-.37788.29434-.11841.42773,0,.56113.2594a.40935.40935,0,0,1-.42773.35413Zm1.25627,0c-.13332,0-.42766-.11779-.42766-.23565,0-.26.13339-.37788.29434-.37788.26679-.11841.40087,0,.53434.2594a.40077.40077,0,0,1-.401.35413ZM5.9679,19.25377v.11786a2.95088,2.95088,0,0,1,.668.472,1.53554,1.53554,0,0,1,.294.84981v3.28144h9.99471V20.69343a1.64465,1.64465,0,0,1,.26755-.84981,2.597,2.597,0,0,1,.82855-.472v-.11786Zm2.05772,4.10757H7.46438v-3.1399h.56124v3.1399Zm1.09575,0H8.5601v-3.1399h.56127v3.1399Zm1.36284,0H9.923v-3.1399h.56123v3.1399Zm1.22935,0h-.668v-3.1399h.668v3.1399Zm1.229,0h-.53434v-3.1399h.53434v3.1399Zm1.25628,0h-.56113v-3.1399h.56113v3.1399Zm1.22948,0h-.56106v-3.1399h.56106v3.1399Zm1.09541,0H16.096v-3.1399h.42774v3.1399Zm-6.17306-12.347a1.06351,1.06351,0,0,1,.13353.47217h3.15351a.51165.51165,0,0,1,0-.47217.63347.63347,0,0,1,.40087-.14157v-.11814H10.08337v.11814a.40358.40358,0,0,1,.26731.14157Z" style="fill:#f7505e;fill-rule:evenodd"></path></g><circle cx="12.01273" cy="12.44417" r="11.1002" style="fill:none;stroke:#f7505e;stroke-miterlimit:10;stroke-width:1.5px"></circle></svg> 