<?xml version="1.0" encoding="UTF-8"?> <svg xmlns="http://www.w3.org/2000/svg" xmlns:xlink="http://www.w3.org/1999/xlink" id="a53971e6-344e-435b-b3c6-6533d2c3f289" data-name="Layer 1" width="24" height="25" viewBox="0 0 24 25"><defs><clipPath id="aadee549-8450-4bce-8e28-ce49205e4f7b"><circle cx="12.05689" cy="12.93762" r="11.47704" style="fill:none"></circle></clipPath></defs><title>24x25-NJCL</title><circle cx="11.97145" cy="12.49663" r="11.13344" style="fill:none;stroke:#009cdb;stroke-miterlimit:10;stroke-width:1.5px"></circle><g style="clip-path:url(#aadee549-8450-4bce-8e28-ce49205e4f7b)"><path d="M12.53067,19.06767V18.05742s5.87209-.38866,5.97468-.38866c.10242,0,.10242,0,.10242-.11708,0-.13575-.10242-.13575-.10242-.13575-.10259,0-.10259,0-.22208-.11654a20.30788,20.30788,0,0,0-.32419-7.56A9.29991,9.29991,0,0,0,12.53067,4.3366V2.70412c0-.25272-.10238-.25272-.222-.25272-.1025,0-.1025,0-.1025.25272h-.32435c-.11944.1165-.22183.1165-.34133.2526,0,.11664-.10234.11664-.3243.11664h-.56346c-.22183,0-.3243.25257-.54618.25257-.11946.136-.5463.25268-.66576.38875-.1025,0-.222.11665-.1025.11665,0,0,.5463,0,.6488.13591.11946,0,.11946.25268.44381.11665.22183-.11665.22183-.25256.34132-.36921.32447-.13607.66593.11665.76827.11665,0,.13591.1195.13591.22189,0a2.23523,2.23523,0,0,0,.44379-.11665v.87451A18.32606,18.32606,0,0,1,10.209,13.02357c-2.202,4.27582-4.848,4.89748-4.848,4.89748-.11945,0-.22184,0-.22184.13637a.25687.25687,0,0,0,.22184.25223s4.848-.25223,6.40146-.25223c0,0,.11944-.13637.222-.25284a2.56387,2.56387,0,0,1,.22183-.2529v1.516L5.361,19.1842l.222,2.39048s3.85791.25283,5.85527.25283a40.4129,40.4129,0,0,0,5.1893-.25283c.22208-.11659,2.98738-2.89567,2.98738-2.89567l-7.08419.38866Zm0-2.02111a19.34728,19.34728,0,0,0,.88759-5.65529,24.32425,24.32425,0,0,0-.88759-5.92746V4.58919a23.12922,23.12922,0,0,1,1.22893,6.9187,13.90633,13.90633,0,0,1-1.22893,6.16087v-.6222Z" style="fill:#009cdb;fill-rule:evenodd"></path></g></svg> 