<?xml version="1.0" encoding="UTF-8"?> <svg xmlns="http://www.w3.org/2000/svg" xmlns:xlink="http://www.w3.org/1999/xlink" id="af9e09b2-fbce-4e73-bf22-5e7527598eaf" data-name="Layer 1" width="24" height="25" viewBox="0 0 24 25"><defs><clipPath id="f33e8c51-4282-4af2-a5f2-5be771f74ed6"><circle cx="11.89175" cy="12.94584" r="11.21003" style="fill:none"></circle></clipPath></defs><title>24x25-PascackValley</title><circle cx="12.01232" cy="12.36761" r="11.11451" style="fill:none;stroke:#a34f8b;stroke-miterlimit:10;stroke-width:1.5px"></circle><g style="clip-path:url(#f33e8c51-4282-4af2-a5f2-5be771f74ed6)"><polyline points="22.149 0.319 22.151 26.448 0.853 26.448 0.851 0.319" style="fill:none"></polyline><path d="M16.54683,16.70931s.72721.82767.83051.91826a.91717.91717,0,0,0,.57147.1049,7.89176,7.89176,0,0,0,2.52917-.917c.10292-.36356-1.21854-.62269-2.04339-1.00592A9.629,9.629,0,0,1,16.45918,14.37c-.286-.28624-1.08521-1.26378-1.08521-1.26378l.24623-.2427s.63436.702.694.72241a1.065,1.065,0,0,0,.45131.09971c.25988,0,2.16722-.57062,2.26609-.93582.09934-.36723-.92259-.513-1.74556-.89618a7.93184,7.93184,0,0,1-2.02777-1.37471,8.163,8.163,0,0,1-.60188-.71921l-.24313-.29435.28154-.22858s.469.555.53023.59261a1.027,1.027,0,0,0,.57259.15376A4.46347,4.46347,0,0,0,17.608,9.12776c.08766-.31672-.75894-.32915-1.5241-.71638a8.14211,8.14211,0,0,1-1.51327-1.29864c-1.41355-1.39353-1.9257-4.51254-2.22-4.51254-.29312,0-.97029,3.24758-2.21364,4.51254A7.70923,7.70923,0,0,1,8.62372,8.41138c-.76483.38723-1.61055.39966-1.5233.71638a4.45454,4.45454,0,0,0,1.81082.85535,1.02883,1.02883,0,0,0,.57222-.15376c.06167-.03762.5418-.60989.5418-.60989l.27312.2387-.24986.30952a8.583,8.583,0,0,1-.59788.7112A7.98306,7.98306,0,0,1,7.424,11.85359c-.82491.38319-1.84641.529-1.74754.89618.09891.3652,2.00662.93582,2.26688.93582a1.05887,1.05887,0,0,0,.45052-.09971c.05885-.02044.69354-.72241.69354-.72241l.27915.2515s-.83093,1.00188-1.11045,1.2806A9.44693,9.44693,0,0,1,6.27354,15.8095c-.82495.38323-2.146.64236-2.04269,1.00592a7.88262,7.88262,0,0,0,2.52879.917.95123.95123,0,0,0,.58668-.139c.10254-.09086.81492-.88417.81492-.88417l.28427.24227s-.72956.89058-.9402,1.10884a7.26037,7.26037,0,0,1-1.81561,1.247c-1.09082.48531-1.86328.52693-1.78719.8757.095.43493,2.22042,1.096,2.46632,1.12768,3.54268.44011,5.307-.71751,5.307-.71751v2.91429h1.35668V20.56992s1.13087,1.34557,5.30712.74087c.24463-.03559,2.37136-.69275,2.46665-1.12768,0,0-.69632-.39039-1.7868-.8757A7.2235,7.2235,0,0,1,17.2168,18.05c-.2146-.22259-.94623-1.08963-.94623-1.08963Z" style="fill:#a34f8b"></path></g></svg> 