<?xml version="1.0" encoding="UTF-8"?> <svg xmlns="http://www.w3.org/2000/svg" xmlns:xlink="http://www.w3.org/1999/xlink" id="b6c380df-d2f2-4539-b4a6-37059aeaaffd" data-name="Layer 1" width="24" height="25" viewBox="0 0 24 25"><defs><clipPath id="bc700722-695f-4117-b46d-d5f62eae2083"><circle cx="11.88258" cy="12.63487" r="11.39447" style="fill:none"></circle></clipPath></defs><title>24X25-RaritanValley</title><circle cx="11.97145" cy="12.47913" r="11.14805" style="fill:none;stroke:#ff993e;stroke-miterlimit:10;stroke-width:1.5px"></circle><g style="clip-path:url(#bc700722-695f-4117-b46d-d5f62eae2083)"><path d="M7.67742,5.863a8.79452,8.79452,0,0,0-.43873-.83761,2.23924,2.23924,0,0,1-.23936-.91751A3.22487,3.22487,0,0,0,7.119,3.15058c-.03982-.07976-.03982-.07976-.11966.07976-.11967.11975-.15956.47873-.35889.63824a.92678.92678,0,0,0-.35912.758V5.145s-.11966,0-.27917-.23936c0,0-.03981-.35893-.07971-.35893-.15965,0-.15965.19942-.15965.43873.03994.19947.15965.47869.0798.51859,0,.07971-.0798.11961-.15957-.0399a.48731.48731,0,0,1-.15956-.359c-.03985-.11967-.0798-.19947-.19941-.19947v.27927c0,.19946,0,.6382-.07971.67809-.04.15953-.1197.23928-.19952.47864a1.20009,1.20009,0,0,0,.15953.718c.07984.03982-.19942.27918-.39875.43874a.5572.5572,0,0,0-.27936.23927l-.07971.39888H8.39542l-.07975-.39888s-.39888-.23927-.43878-.39883c-.23923-.15952-.31908-.23936-.27923-.31913A1.441,1.441,0,0,0,7.67742,5.863ZM4.40663,8.45572s-.0399.39888-.0399.59839a1.63911,1.63911,0,0,0,.27927.91742c.23931.15947.59834.35893.678.5584.0399.23926.15956,1.15673.39888,1.35623.0798.15957,1.03712,3.31075,1.23658,3.78938.23928.47846.47855,1.396.67815,1.83475.15952.439.39874,1.07711.19933,1.39623-.19933.3589-.5983.718-.5983,1.03718a2.5775,2.5775,0,0,1,0,.79748,5.56141,5.56141,0,0,0-.23936,1.117c.07984.19947.19946.43878.43873.43878.31921.03986.35912.23923.43883.19947.11975-.07981.359-.19947.43878-.15961,0,.0798,0,.19937-.07976.19937-.07976.04-.11975.0799-.07976.19946.11957.07981.359.19946.39884.2395.11965.03977.15956.19946.0399.23923-.0399.0798-.11962.27927-.11962.27927l.03986.07971H20.3219s1.03718-.95727.99741-1.51571c0-.5185-.04-.4387-.31921-.63816-.27927-.11975-.359-.399-.87757-.75808a2.67783,2.67783,0,0,0-1.39605-.43842c-.31913,0-.59838-.04-.63824-.2395a.6283.6283,0,0,1,.03986-.47882c.11957-.19919.19954-.23922.11957-.39865a1.92158,1.92158,0,0,1-.35881-.439,3.23863,3.23863,0,0,1-.03985-.678.516.516,0,0,0-.07981-.319,1.01511,1.01511,0,0,1-.11974-.47864c0-.04-.23923-.43886-.23923-.51866a1.27739,1.27739,0,0,1-.04-.31894l3.47039-1.71537-.03994-.1596L17.29048,15.6356a2.71884,2.71884,0,0,1-.19956-.27927c0-.0798-.15942-.23922-.15942-.23922L19.00575,12.604l-.0798-.15947L16.413,14.59861s-.19955-.19947-.27926-.19947a2.41655,2.41655,0,0,1-.23932-.19955l.43878-2.79206-.11975-.0399-1.15673,2.6325a1.66036,1.66036,0,0,0-.47873,0,1.01272,1.01272,0,0,0-.47846.11966l-1.39614-2.71226-.0798.03977.7579,2.912a.68321.68321,0,0,0-.23924.15951,2.42046,2.42046,0,0,0-.23949.19947l-2.59265-1.51581-.0798.07967,2.15391,2.11415-.15947.23932a3.38813,3.38813,0,0,1-.11971.359l-2.03429.04.03989.31913,1.9944.35888a1.66331,1.66331,0,0,1,.07981.43869,3.69092,3.69092,0,0,1,.11957.39893l-.79767.399.19937.35889.83766-.31912s.1197.23922.15961.35888c.0399.07981.15956.47882.27918.51877.11965.11957.19945.15951.19945.23932a1.22331,1.22331,0,0,0,.04.39865c.11957.0798.15943.51859.15943.51859a6.06054,6.06054,0,0,1-1.3163-.51859,17.164,17.164,0,0,1-1.11688-1.67523c-.07976-.15943-.39892-.7579-.47873-.87747a.71637.71637,0,0,0-.39883-.23932c-.11971,0-.27927-.03994-.27927-.11957a4.97787,4.97787,0,0,0-.319-1.31652c-.07985-.27927-.9175-1.59543-1.35633-2.832-.35889-.83766-.319-1.037-.43874-1.23654a2.31878,2.31878,0,0,1,.19947-1.15673,1.28015,1.28015,0,0,0,.51853-.91747,1.13358,1.13358,0,0,0,.07985-.6781Z" style="fill:#ff993e;fill-rule:evenodd"></path></g></svg> 