<?xml version="1.0" encoding="UTF-8"?> <svg xmlns="http://www.w3.org/2000/svg" xmlns:xlink="http://www.w3.org/1999/xlink" id="Layer_1" data-name="Layer 1" viewBox="0 0 24 25"><defs><style>.cls-1,.cls-4{fill:none;}.cls-2{clip-path:url(#clip-path);}.cls-3{fill:#154634;}.cls-4{stroke:#154634;stroke-miterlimit:10;stroke-width:1.5px;}</style><clipPath id="clip-path"><ellipse class="cls-1" cx="11.1" cy="12.87" rx="10.78" ry="11"></ellipse></clipPath></defs><title>24x25-RiverLine Green</title><g class="cls-2"><polygon class="cls-3" points="-22.77 18.82 21.22 17.69 21.67 15.32 -22.43 17.92 -22.77 18.82"></polygon><path class="cls-3" d="M-21.88,17.13S6.35,6.75,7.53,6.53s1.12.09,1.5.87,2,6.79,2,6.79Z"></path><path class="cls-3" d="M19,13.77S17.4,7.88,17,7s-.32-1.09-1.5-.87a1.29,1.29,0,0,1,.67.72c.22.57,2.21,7,2.21,7Z"></path><path class="cls-3" d="M12.14,11.19a.66.66,0,0,1-.56.73c-.3,0-.55-.33-.55-.73s.25-.74.55-.74S12.14,10.78,12.14,11.19Z"></path><path class="cls-3" d="M16.67,11a.65.65,0,0,1-.55.71.65.65,0,0,1-.56-.71.65.65,0,0,1,.56-.72A.65.65,0,0,1,16.67,11Z"></path><path class="cls-3" d="M10.14,6.61,11,9.32l5.1-.11s-.56-2.38-1.22-2.49S10.14,6.61,10.14,6.61Z"></path></g><polyline class="cls-1" points="22.34 -0.2 22.34 26.42 0.64 26.42 0.64 -0.2"></polyline><circle class="cls-4" cx="11.97" cy="12.46" r="11.18"></circle></svg> 