<?xml version="1.0" encoding="UTF-8"?>
<svg version="1.1" xmlns="http://www.w3.org/2000/svg" width="256" height="256">
<path d="M0 0 C2.89255784 1.4735672 5.11771493 2.28815187 8.3125 2.6875 C8.3125 3.3475 8.3125 4.0075 8.3125 4.6875 C9.116875 4.81125 9.92125 4.935 10.75 5.0625 C11.595625 5.26875 12.44125 5.475 13.3125 5.6875 C13.6425 6.3475 13.9725 7.0075 14.3125 7.6875 C15.64648422 8.35449211 17.00200779 8.98001846 18.375 9.5625 C20.3125 10.6875 20.3125 10.6875 21.3125 13.6875 C22.3025 14.0175 23.2925 14.3475 24.3125 14.6875 C25.71208114 16.2918979 27.10364738 17.90401772 28.453125 19.55078125 C30.54930306 21.95962453 32.81230892 24.11113411 35.125 26.3125 C55.6650719 46.7911666 67.31669709 76.88670362 67.69287109 105.68261719 C67.64045774 139.88471101 57.14273624 170.97759554 32.62182617 195.47387695 C31.35055735 196.72332417 30.07095777 197.96436159 28.7824707 199.19604492 C27.25959774 200.65973615 25.78153409 202.16978035 24.3125 203.6875 C24.3125 204.3475 24.3125 205.0075 24.3125 205.6875 C23.673125 205.790625 23.03375 205.89375 22.375 206 C21.694375 206.226875 21.01375 206.45375 20.3125 206.6875 C19.9825 207.6775 19.6525 208.6675 19.3125 209.6875 C18.3225 210.0175 17.3325 210.3475 16.3125 210.6875 C15.3225 211.3475 14.3325 212.0075 13.3125 212.6875 C12.3225 213.0175 11.3325 213.3475 10.3125 213.6875 C8.25979537 215.52938612 8.25979537 215.52938612 7.3125 217.6875 C5.31289243 218.02317942 3.31281898 218.35608621 1.3125 218.6875 C-0.65237596 219.5439149 -2.58943515 220.46594147 -4.5 221.4375 C-15.65422548 226.76431654 -28.26399593 230.93109812 -40.6875 230.6875 C-41.0175 231.6775 -41.3475 232.6675 -41.6875 233.6875 C-50.2675 233.6875 -58.8475 233.6875 -67.6875 233.6875 C-68.0175 232.6975 -68.3475 231.7075 -68.6875 230.6875 C-70.9975 231.0175 -73.3075 231.3475 -75.6875 231.6875 C-75.6875 231.0275 -75.6875 230.3675 -75.6875 229.6875 C-79.03002724 229.61322162 -81.4910914 229.62203047 -84.6875 230.6875 C-84.6875 229.6975 -84.6875 228.7075 -84.6875 227.6875 C-85.574375 227.625625 -86.46125 227.56375 -87.375 227.5 C-98.51266789 225.90247592 -111.33661417 219.92142389 -120.6875 213.6875 C-121.3475 213.3575 -122.0075 213.0275 -122.6875 212.6875 C-125.6875 210.6875 -125.6875 210.6875 -127.6875 208.6875 C-128.3475 208.3575 -129.0075 208.0275 -129.6875 207.6875 C-130.6775 206.6975 -130.6775 206.6975 -131.6875 205.6875 C-132.3475 205.3575 -133.0075 205.0275 -133.6875 204.6875 C-135.08682839 203.04926189 -136.48300706 201.40823004 -137.86328125 199.75390625 C-139.78397567 197.578216 -141.83055596 195.6200709 -143.9375 193.625 C-152.2988997 185.34805888 -158.56776964 175.31846331 -164.3125 165.11328125 C-165.36281212 163.26031584 -166.50602291 161.45971563 -167.6875 159.6875 C-168.06251013 158.36528357 -168.39276361 157.02989314 -168.6875 155.6875 C-169.13702785 154.15494175 -169.59602526 152.62514157 -170.0625 151.09765625 C-170.32546875 150.23076172 -170.5884375 149.36386719 -170.859375 148.47070312 C-171.41037027 146.66047575 -171.9624495 144.85057795 -172.515625 143.04101562 C-172.77859375 142.17283203 -173.0415625 141.30464844 -173.3125 140.41015625 C-173.55226562 139.62390869 -173.79203125 138.83766113 -174.0390625 138.02758789 C-175.39403568 133.1377468 -175.7872312 128.77379131 -175.6875 123.6875 C-176.3475 123.3575 -177.0075 123.0275 -177.6875 122.6875 C-177.47674592 106.60478361 -176.58045956 91.32147937 -172.6875 75.6875 C-172.50944824 74.9557959 -172.33139648 74.2240918 -172.14794922 73.47021484 C-170.95981851 68.63070191 -169.64860904 64.46876522 -167.21875 60.125 C-166.73019531 59.24585937 -166.24164063 58.36671875 -165.73828125 57.4609375 C-164.70442708 55.61197917 -163.67057292 53.76302083 -162.63671875 51.9140625 C-162.14816406 51.03492188 -161.65960938 50.15578125 -161.15625 49.25 C-160.70701172 48.44691406 -160.25777344 47.64382812 -159.79492188 46.81640625 C-158.57075424 44.59935883 -158.57075424 44.59935883 -157.6875 41.6875 C-156.37615537 40.33253476 -155.04061976 39.00074883 -153.6875 37.6875 C-152.68845177 36.39006937 -151.70995207 35.07661812 -150.75 33.75 C-146.92645476 28.71901941 -142.50668273 24.39268034 -137.95532227 20.02954102 C-136.49831257 18.61683157 -135.08842808 17.15584116 -133.6875 15.6875 C-133.6875 15.0275 -133.6875 14.3675 -133.6875 13.6875 C-133.048125 13.584375 -132.40875 13.48125 -131.75 13.375 C-131.069375 13.148125 -130.38875 12.92125 -129.6875 12.6875 C-129.1925 11.2025 -129.1925 11.2025 -128.6875 9.6875 C-127.6975 9.3575 -126.7075 9.0275 -125.6875 8.6875 C-124.6975 8.0275 -123.7075 7.3675 -122.6875 6.6875 C-121.6975 6.3575 -120.7075 6.0275 -119.6875 5.6875 C-119.0275 5.0275 -118.3675 4.3675 -117.6875 3.6875 C-116.6975 3.3575 -115.7075 3.0275 -114.6875 2.6875 C-112.87092837 1.7979203 -111.05489436 0.90720742 -109.24291992 0.00830078 C-102.59469886 -3.25663009 -95.98947413 -6.10258876 -88.875 -8.1875 C-88.23159668 -8.37795898 -87.58819336 -8.56841797 -86.92529297 -8.76464844 C-58.2293465 -16.73294289 -26.47939152 -13.56020981 0 0 Z M-64.6875 231.6875 C-64.6875 232.0175 -64.6875 232.3475 -64.6875 232.6875 C-58.0875 232.6875 -51.4875 232.6875 -44.6875 232.6875 C-44.6875 232.3575 -44.6875 232.0275 -44.6875 231.6875 C-51.2875 231.6875 -57.8875 231.6875 -64.6875 231.6875 Z " fill="#5F5F5F" transform="translate(182.6875,18.3125)"/>
<path d="M0 0 C1.25205231 -0.01606293 2.50410461 -0.03212585 3.7940979 -0.04867554 C5.16399451 -0.06016666 6.53389878 -0.07077458 7.90380859 -0.08056641 C8.94195772 -0.08855192 8.94195772 -0.08855192 10.00107956 -0.09669876 C13.66835165 -0.12341184 17.33559001 -0.14278779 21.00292969 -0.15722656 C24.02537525 -0.17053272 27.04714034 -0.1983244 30.06933594 -0.23925781 C33.7298276 -0.28882772 37.38970513 -0.31337744 41.05051804 -0.32045364 C42.43869103 -0.32712807 43.82685238 -0.34225001 45.21483231 -0.36634445 C54.95196887 -0.52565669 61.49504885 0.22427235 68.77758789 6.88529968 C74.85578525 14.10471711 73.75664093 23.55257495 73.65380859 32.43896484 C73.65276941 34.21818541 73.65381247 35.99740828 73.65682983 37.77662659 C73.65665106 41.49458378 73.63593556 45.21166758 73.59960938 48.92944336 C73.55426844 53.67153542 73.55314737 58.41235195 73.56664467 63.1546011 C73.57336028 66.82578163 73.5599965 70.49667665 73.5403862 74.16780281 C73.53274128 75.91511601 73.530361 77.66246113 73.53355789 79.40978813 C73.53995828 100.33082311 73.53995828 100.33082311 66.61474609 107.63037109 C63.45618929 109.46674133 60.32877657 110.85893757 56.92724609 112.19287109 C57.42488125 116.88984851 59.59232771 119.90532213 62.36474609 123.56787109 C63.26907612 124.7981844 64.17135033 126.03001093 65.07177734 127.26318359 C65.53922363 127.9015918 66.00666992 128.54 66.48828125 129.19775391 C68.91597798 132.56374265 71.24098262 135.99628686 73.55224609 139.44287109 C73.98980225 140.08659668 74.4273584 140.73032227 74.87817383 141.39355469 C77.92724609 145.95519752 77.92724609 145.95519752 77.92724609 148.19287109 C78.58724609 148.19287109 79.24724609 148.19287109 79.92724609 148.19287109 C79.92724609 148.85287109 79.92724609 149.51287109 79.92724609 150.19287109 C78.32391819 150.27409033 76.71940583 150.33216243 75.11474609 150.38037109 C74.22142578 150.41517578 73.32810547 150.44998047 72.40771484 150.48583984 C71.58916016 150.38916016 70.77060547 150.29248047 69.92724609 150.19287109 C69.54238037 149.6998349 69.15751465 149.20679871 68.76098633 148.69882202 C65.87522175 146.32890083 62.67854426 146.775817 59.10693359 146.8046875 C58.31152161 146.79943054 57.51610962 146.79417358 56.69659424 146.78875732 C54.06494564 146.77554363 51.43390095 146.78430006 48.80224609 146.79443359 C46.97525923 146.79241325 45.14827316 146.78950214 43.32128906 146.78573608 C39.49129563 146.78131088 35.66151202 146.78775007 31.83154297 146.80175781 C26.91839904 146.81884984 22.00574673 146.8090097 17.09262085 146.79104042 C13.31970505 146.78020787 9.5469061 146.78364649 5.77398682 146.7914238 C3.96225934 146.79342727 2.15052131 146.79096138 0.33880615 146.78398514 C-2.19189621 146.77637929 -4.72179873 146.78796223 -7.25244141 146.8046875 C-8.3793338 146.79557846 -8.3793338 146.79557846 -9.5289917 146.7862854 C-13.53127343 146.78041688 -13.53127343 146.78041688 -16.90649414 148.69882202 C-17.29135986 149.19185822 -17.67622559 149.68489441 -18.07275391 150.19287109 C-20.55322266 150.48583984 -20.55322266 150.48583984 -23.26025391 150.38037109 C-24.16130859 150.35330078 -25.06236328 150.32623047 -25.99072266 150.29833984 C-26.67779297 150.26353516 -27.36486328 150.22873047 -28.07275391 150.19287109 C-28.07275391 149.53287109 -28.07275391 148.87287109 -28.07275391 148.19287109 C-27.41275391 148.19287109 -26.75275391 148.19287109 -26.07275391 148.19287109 C-25.80108398 147.45786377 -25.52941406 146.72285645 -25.24951172 145.96557617 C-24.12683337 143.32029443 -22.87223953 141.18877919 -21.24462891 138.82958984 C-20.41511719 137.62206055 -20.41511719 137.62206055 -19.56884766 136.39013672 C-18.70453125 135.14780273 -18.70453125 135.14780273 -17.82275391 133.88037109 C-16.98164062 132.65543945 -16.98164062 132.65543945 -16.12353516 131.40576172 C-12.94657069 126.80173123 -9.68226469 122.33043671 -6.14794922 117.99291992 C-4.73088755 115.96998495 -4.73088755 115.96998495 -5.07275391 112.19287109 C-6.26900391 111.86287109 -7.46525391 111.53287109 -8.69775391 111.19287109 C-13.89590074 109.27582403 -16.19383356 105.74046502 -19.07275391 101.19287109 C-19.73275391 100.20287109 -20.39275391 99.21287109 -21.07275391 98.19287109 C-21.28766797 95.52318728 -21.38716625 92.95567628 -21.39501953 90.28417969 C-21.40494934 89.47889832 -21.41487915 88.67361694 -21.42510986 87.84393311 C-21.45434688 85.17635687 -21.46795873 82.50901883 -21.47900391 79.84130859 C-21.49051136 77.98385615 -21.50202677 76.12640376 -21.5135498 74.26895142 C-21.53457074 70.37004491 -21.54625405 66.47122084 -21.55322266 62.57226562 C-21.56416531 57.59214094 -21.61215889 52.6131174 -21.66916656 47.63333702 C-21.7065495 43.79327292 -21.71683751 39.95346993 -21.71989441 36.11323929 C-21.72592398 34.2784997 -21.7419018 32.44376342 -21.76826477 30.60920334 C-21.99919128 13.29707123 -21.99919128 13.29707123 -16.67346191 6.73257446 C-11.60661648 1.85883175 -7.04418592 0.08212076 0 0 Z " fill="#010101" transform="translate(102.07275390625,52.80712890625)"/>
<path d="M0 0 C2.89255784 1.4735672 5.11771493 2.28815187 8.3125 2.6875 C8.3125 3.3475 8.3125 4.0075 8.3125 4.6875 C9.116875 4.81125 9.92125 4.935 10.75 5.0625 C11.595625 5.26875 12.44125 5.475 13.3125 5.6875 C13.6425 6.3475 13.9725 7.0075 14.3125 7.6875 C15.64648422 8.35449211 17.00200779 8.98001846 18.375 9.5625 C20.3125 10.6875 20.3125 10.6875 21.3125 13.6875 C22.3025 14.0175 23.2925 14.3475 24.3125 14.6875 C25.71208114 16.2918979 27.10364738 17.90401772 28.453125 19.55078125 C30.54930306 21.95962453 32.81230892 24.11113411 35.125 26.3125 C55.6650719 46.7911666 67.31669709 76.88670362 67.69287109 105.68261719 C67.64045774 139.88471101 57.14273624 170.97759554 32.62182617 195.47387695 C31.35055735 196.72332417 30.07095777 197.96436159 28.7824707 199.19604492 C27.25959774 200.65973615 25.78153409 202.16978035 24.3125 203.6875 C24.3125 204.3475 24.3125 205.0075 24.3125 205.6875 C23.673125 205.790625 23.03375 205.89375 22.375 206 C21.694375 206.226875 21.01375 206.45375 20.3125 206.6875 C19.9825 207.6775 19.6525 208.6675 19.3125 209.6875 C18.3225 210.0175 17.3325 210.3475 16.3125 210.6875 C15.3225 211.3475 14.3325 212.0075 13.3125 212.6875 C12.3225 213.0175 11.3325 213.3475 10.3125 213.6875 C8.25979537 215.52938612 8.25979537 215.52938612 7.3125 217.6875 C5.31289243 218.02317942 3.31281898 218.35608621 1.3125 218.6875 C-0.65237596 219.5439149 -2.58943515 220.46594147 -4.5 221.4375 C-15.65422548 226.76431654 -28.26399593 230.93109812 -40.6875 230.6875 C-41.0175 231.6775 -41.3475 232.6675 -41.6875 233.6875 C-50.2675 233.6875 -58.8475 233.6875 -67.6875 233.6875 C-68.0175 232.6975 -68.3475 231.7075 -68.6875 230.6875 C-70.9975 231.0175 -73.3075 231.3475 -75.6875 231.6875 C-75.6875 231.0275 -75.6875 230.3675 -75.6875 229.6875 C-79.03002724 229.61322162 -81.4910914 229.62203047 -84.6875 230.6875 C-84.6875 229.6975 -84.6875 228.7075 -84.6875 227.6875 C-85.574375 227.625625 -86.46125 227.56375 -87.375 227.5 C-98.51266789 225.90247592 -111.33661417 219.92142389 -120.6875 213.6875 C-121.3475 213.3575 -122.0075 213.0275 -122.6875 212.6875 C-125.6875 210.6875 -125.6875 210.6875 -127.6875 208.6875 C-128.3475 208.3575 -129.0075 208.0275 -129.6875 207.6875 C-130.6775 206.6975 -130.6775 206.6975 -131.6875 205.6875 C-132.3475 205.3575 -133.0075 205.0275 -133.6875 204.6875 C-135.08682839 203.04926189 -136.48300706 201.40823004 -137.86328125 199.75390625 C-139.78397567 197.578216 -141.83055596 195.6200709 -143.9375 193.625 C-152.2988997 185.34805888 -158.56776964 175.31846331 -164.3125 165.11328125 C-165.36281212 163.26031584 -166.50602291 161.45971563 -167.6875 159.6875 C-168.06251013 158.36528357 -168.39276361 157.02989314 -168.6875 155.6875 C-169.13702785 154.15494175 -169.59602526 152.62514157 -170.0625 151.09765625 C-170.32546875 150.23076172 -170.5884375 149.36386719 -170.859375 148.47070312 C-171.41037027 146.66047575 -171.9624495 144.85057795 -172.515625 143.04101562 C-172.77859375 142.17283203 -173.0415625 141.30464844 -173.3125 140.41015625 C-173.55226562 139.62390869 -173.79203125 138.83766113 -174.0390625 138.02758789 C-175.39403568 133.1377468 -175.7872312 128.77379131 -175.6875 123.6875 C-176.3475 123.3575 -177.0075 123.0275 -177.6875 122.6875 C-177.47674592 106.60478361 -176.58045956 91.32147937 -172.6875 75.6875 C-172.50944824 74.9557959 -172.33139648 74.2240918 -172.14794922 73.47021484 C-170.95981851 68.63070191 -169.64860904 64.46876522 -167.21875 60.125 C-166.73019531 59.24585937 -166.24164063 58.36671875 -165.73828125 57.4609375 C-164.70442708 55.61197917 -163.67057292 53.76302083 -162.63671875 51.9140625 C-162.14816406 51.03492188 -161.65960938 50.15578125 -161.15625 49.25 C-160.70701172 48.44691406 -160.25777344 47.64382812 -159.79492188 46.81640625 C-158.57075424 44.59935883 -158.57075424 44.59935883 -157.6875 41.6875 C-156.37615537 40.33253476 -155.04061976 39.00074883 -153.6875 37.6875 C-152.68845177 36.39006937 -151.70995207 35.07661812 -150.75 33.75 C-146.92645476 28.71901941 -142.50668273 24.39268034 -137.95532227 20.02954102 C-136.49831257 18.61683157 -135.08842808 17.15584116 -133.6875 15.6875 C-133.6875 15.0275 -133.6875 14.3675 -133.6875 13.6875 C-133.048125 13.584375 -132.40875 13.48125 -131.75 13.375 C-131.069375 13.148125 -130.38875 12.92125 -129.6875 12.6875 C-129.1925 11.2025 -129.1925 11.2025 -128.6875 9.6875 C-127.6975 9.3575 -126.7075 9.0275 -125.6875 8.6875 C-124.6975 8.0275 -123.7075 7.3675 -122.6875 6.6875 C-121.6975 6.3575 -120.7075 6.0275 -119.6875 5.6875 C-119.0275 5.0275 -118.3675 4.3675 -117.6875 3.6875 C-116.6975 3.3575 -115.7075 3.0275 -114.6875 2.6875 C-112.87092837 1.7979203 -111.05489436 0.90720742 -109.24291992 0.00830078 C-102.59469886 -3.25663009 -95.98947413 -6.10258876 -88.875 -8.1875 C-88.23159668 -8.37795898 -87.58819336 -8.56841797 -86.92529297 -8.76464844 C-58.2293465 -16.73294289 -26.47939152 -13.56020981 0 0 Z M-135.6875 27.6875 C-136.8940625 28.79931641 -136.8940625 28.79931641 -138.125 29.93359375 C-158.15683212 48.88732379 -168.23606765 76.50613057 -169.6875 103.6875 C-169.74035156 104.52539062 -169.79320312 105.36328125 -169.84765625 106.2265625 C-170.8428708 136.94840303 -159.81401493 165.81570781 -138.9921875 188.25 C-138.23164063 189.054375 -137.47109375 189.85875 -136.6875 190.6875 C-135.98882812 191.450625 -135.29015625 192.21375 -134.5703125 193 C-115.5335437 213.08274511 -87.97931402 223.23017013 -60.6875 224.6875 C-59.84960938 224.74035156 -59.01171875 224.79320312 -58.1484375 224.84765625 C-28.92317877 225.79438998 0.06055462 215.93525487 21.625 196.125 C23.53417932 194.32585458 25.42333381 192.50781902 27.3125 190.6875 C27.96992188 190.09324219 28.62734375 189.49898437 29.3046875 188.88671875 C39.06471445 179.82383659 45.47605755 167.49333348 51.3125 155.6875 C51.72371094 154.8728125 52.13492188 154.058125 52.55859375 153.21875 C64.12734729 127.65045424 62.55065757 93.63832443 53.3125 67.6875 C50.98658168 62.17515388 48.22862141 56.90701691 45.3125 51.6875 C44.755625 50.6871875 44.19875 49.686875 43.625 48.65625 C39.11645113 41.11310093 33.37999005 34.97610849 27.3125 28.6875 C26.65507812 27.96691406 25.99765625 27.24632812 25.3203125 26.50390625 C6.95665921 6.91863654 -22.10574137 -4.23303772 -48.6875 -5.3125 C-49.52152344 -5.3640625 -50.35554688 -5.415625 -51.21484375 -5.46875 C-83.69873476 -6.56217691 -112.59647589 5.39824756 -135.6875 27.6875 Z M-64.6875 231.6875 C-64.6875 232.0175 -64.6875 232.3475 -64.6875 232.6875 C-58.0875 232.6875 -51.4875 232.6875 -44.6875 232.6875 C-44.6875 232.3575 -44.6875 232.0275 -44.6875 231.6875 C-51.2875 231.6875 -57.8875 231.6875 -64.6875 231.6875 Z " fill="#020202" transform="translate(182.6875,18.3125)"/>
<path d="M0 0 C1.18172791 -0.01283524 2.36345581 -0.02567047 3.58099365 -0.03889465 C4.86427551 -0.04628159 6.14755737 -0.05366852 7.46972656 -0.0612793 C9.4417807 -0.07338692 9.4417807 -0.07338692 11.45367432 -0.08573914 C14.24125032 -0.10076838 17.02880083 -0.1106045 19.81640625 -0.11816406 C23.37858784 -0.129211 26.94014172 -0.16358934 30.5021019 -0.20333576 C33.90795125 -0.23585146 37.313734 -0.24028552 40.71972656 -0.2487793 C41.9949115 -0.26628738 43.27009644 -0.28379547 44.58392334 -0.30183411 C55.67197849 -0.27467354 55.67197849 -0.27467354 60.36035156 4.17700195 C61.84068975 7.13767833 61.56414486 10.16662116 61.59863281 13.4152832 C61.60670456 14.13306442 61.61477631 14.85084564 61.62309265 15.59037781 C61.63692942 17.11100858 61.64765341 18.63167036 61.65551758 20.15234375 C61.67270998 22.47041237 61.71659337 24.78704665 61.76074219 27.10473633 C61.77087134 28.58324148 61.77938675 30.06175874 61.78613281 31.5402832 C61.8036409 32.23003738 61.82114899 32.91979156 61.83918762 33.63044739 C61.8233944 37.16016439 61.42124815 39.08048737 59.52124023 42.09179688 C56.10049093 45.39273686 53.16497783 45.31090868 48.60717773 45.35400391 C46.83469917 45.37325676 46.83469917 45.37325676 45.02641296 45.39289856 C43.1092321 45.40397896 43.1092321 45.40397896 41.15332031 45.4152832 C39.1833886 45.42739082 39.1833886 45.42739082 37.17366028 45.43974304 C34.39206065 45.45475645 31.61048643 45.46460088 28.82885742 45.47216797 C25.27455171 45.4832254 21.72087327 45.51762267 18.16678905 45.55733967 C14.76649167 45.58984855 11.36626108 45.59428799 7.96582031 45.6027832 C6.69377243 45.62029129 5.42172455 45.63779938 4.11112976 45.65583801 C-6.94661302 45.6286783 -6.94661302 45.6286783 -11.63964844 41.17700195 C-13.88299018 36.69031848 -12.95084218 30.18293789 -12.98974609 25.20166016 C-13.00629205 23.64877318 -13.03356485 22.09596195 -13.07177734 20.54345703 C-13.12669258 18.29981154 -13.14843982 16.0579487 -13.16308594 13.8137207 C-13.18575531 13.12396652 -13.20842468 12.43421234 -13.23178101 11.72355652 C-13.21481426 7.83106774 -12.74509374 6.30465471 -10.23193359 3.26220703 C-6.50853574 0.2671476 -4.71761426 0.04451138 0 0 Z " fill="#5F5E5E" transform="translate(103.6396484375,62.822998046875)"/>
<path d="M0 0 C1.02163742 -0.03220139 2.04327484 -0.06440277 3.09587097 -0.09757996 C7.78729894 -0.20801018 12.47858195 -0.29064664 17.17089844 -0.35253906 C19.645596 -0.39422467 22.12004336 -0.45561604 24.59375 -0.53710938 C28.15753068 -0.65266956 31.71711041 -0.70277415 35.2824707 -0.73950195 C36.38580246 -0.78797775 37.48913422 -0.83645355 38.62590027 -0.88639832 C41.76953125 -0.87890625 41.76953125 -0.87890625 47.20825195 0.2722168 C49.18825195 3.5722168 51.16825195 6.8722168 53.20825195 10.2722168 C32.08825195 10.2722168 10.96825195 10.2722168 -10.79174805 10.2722168 C-5.17385718 0.16001323 -5.17385718 0.16001323 0 0 Z " fill="#5F5F5F" transform="translate(106.791748046875,177.727783203125)"/>
<path d="M0 0 C2.875 2.4375 2.875 2.4375 5 5 C5.33 5.33 5.66 5.66 6 6 C6.13661818 10.72308557 5.58818086 14.15232759 2.875 18.0625 C-0.78722648 20.53052219 -2.66116817 20.69731226 -7 20 C-10.38939556 17.86320715 -11.72582557 16.8225233 -13 13 C-13.57973323 7.86521999 -13.57973323 7.86521999 -13 5 C-9.09519458 0.42852049 -5.96604812 -1.08473602 0 0 Z " fill="#5C5C5C" transform="translate(159,137)"/>
<path d="M0 0 C4.30939593 0.40654679 6.1731054 1.31912375 9.3125 4.3125 C10.75434074 8.6059813 10.83617161 12.08187172 9.0625 16.25 C6.51051543 19.2576961 4.87934817 20.24951687 0.9375 20.6875 C-3.2509385 20.25421326 -4.74990039 19.25009961 -7.6875 16.3125 C-9.29479993 13.09790014 -9.30680855 9.78861897 -8.6875 6.3125 C-6.25 3.375 -6.25 3.375 -3.6875 1.3125 C-2.6875 0.3125 -2.6875 0.3125 0 0 Z " fill="#5C5C5C" transform="translate(99.6875,136.6875)"/>
<path d="M0 0 C0.33 0 0.66 0 1 0 C1 8.58 1 17.16 1 26 C0.67 26 0.34 26 0 26 C0 17.42 0 8.84 0 0 Z " fill="#000000" transform="translate(251,115)"/>
<path d="M0 0 C0.33 0 0.66 0 1 0 C1 8.58 1 17.16 1 26 C0.67 26 0.34 26 0 26 C0 17.42 0 8.84 0 0 Z " fill="#000000" transform="translate(4,115)"/>
<path d="M0 0 C8.58 0 17.16 0 26 0 C26 0.33 26 0.66 26 1 C17.42 1 8.84 1 0 1 C0 0.67 0 0.34 0 0 Z " fill="#000000" transform="translate(115,4)"/>
<path d="M0 0 C1.65 0 3.3 0 5 0 C5 0.33 5 0.66 5 1 C3.35 1 1.7 1 0 1 C0 0.67 0 0.34 0 0 Z " fill="#000000" transform="translate(143,250)"/>
<path d="M0 0 C1.65 0 3.3 0 5 0 C5 0.33 5 0.66 5 1 C3.35 1 1.7 1 0 1 C0 0.67 0 0.34 0 0 Z " fill="#000000" transform="translate(108,250)"/>
<path d="M0 0 C0.33 0 0.66 0 1 0 C1 1.65 1 3.3 1 5 C0.67 5 0.34 5 0 5 C0 3.35 0 1.7 0 0 Z " fill="#000000" transform="translate(250,143)"/>
<path d="M0 0 C0.33 0 0.66 0 1 0 C1 1.65 1 3.3 1 5 C0.67 5 0.34 5 0 5 C0 3.35 0 1.7 0 0 Z " fill="#000000" transform="translate(5,143)"/>
<path d="M0 0 C0.33 0 0.66 0 1 0 C1 1.65 1 3.3 1 5 C0.67 5 0.34 5 0 5 C0 3.35 0 1.7 0 0 Z " fill="#000000" transform="translate(250,108)"/>
<path d="M0 0 C0.33 0 0.66 0 1 0 C1 1.65 1 3.3 1 5 C0.67 5 0.34 5 0 5 C0 3.35 0 1.7 0 0 Z " fill="#000000" transform="translate(5,108)"/>
<path d="M0 0 C1.65 0 3.3 0 5 0 C5 0.33 5 0.66 5 1 C3.35 1 1.7 1 0 1 C0 0.67 0 0.34 0 0 Z " fill="#000000" transform="translate(143,5)"/>
<path d="M0 0 C1.65 0 3.3 0 5 0 C5 0.33 5 0.66 5 1 C3.35 1 1.7 1 0 1 C0 0.67 0 0.34 0 0 Z " fill="#000000" transform="translate(108,5)"/>
<path d="M0 0 C3 1 3 1 3 1 Z " fill="#000000" transform="translate(150,249)"/>
<path d="M0 0 C3 1 3 1 3 1 Z " fill="#000000" transform="translate(103,249)"/>
<path d="M0 0 C3 1 3 1 3 1 Z " fill="#000000" transform="translate(155,248)"/>
<path d="M0 0 C3 1 3 1 3 1 Z " fill="#000000" transform="translate(162,246)"/>
<path d="M0 0 C3 1 3 1 3 1 Z " fill="#000000" transform="translate(91,246)"/>
<path d="M0 0 C3 1 3 1 3 1 Z " fill="#000000" transform="translate(165,245)"/>
<path d="M0 0 C3 1 3 1 3 1 Z " fill="#000000" transform="translate(88,245)"/>
<path d="" fill="#000000" transform="translate(0,0)"/>
<path d="" fill="#000000" transform="translate(0,0)"/>
<path d="" fill="#000000" transform="translate(0,0)"/>
<path d="" fill="#000000" transform="translate(0,0)"/>
<path d="" fill="#000000" transform="translate(0,0)"/>
<path d="" fill="#000000" transform="translate(0,0)"/>
<path d="" fill="#000000" transform="translate(0,0)"/>
<path d="" fill="#000000" transform="translate(0,0)"/>
<path d="" fill="#000000" transform="translate(0,0)"/>
<path d="" fill="#000000" transform="translate(0,0)"/>
<path d="" fill="#000000" transform="translate(0,0)"/>
<path d="" fill="#000000" transform="translate(0,0)"/>
<path d="M0 0 C3 1 3 1 3 1 Z " fill="#000000" transform="translate(165,10)"/>
<path d="M0 0 C3 1 3 1 3 1 Z " fill="#000000" transform="translate(88,10)"/>
<path d="M0 0 C3 1 3 1 3 1 Z " fill="#000000" transform="translate(162,9)"/>
<path d="M0 0 C3 1 3 1 3 1 Z " fill="#000000" transform="translate(91,9)"/>
<path d="M0 0 C3 1 3 1 3 1 Z " fill="#000000" transform="translate(155,7)"/>
<path d="M0 0 C3 1 3 1 3 1 Z " fill="#000000" transform="translate(98,7)"/>
<path d="M0 0 C3 1 3 1 3 1 Z " fill="#000000" transform="translate(150,6)"/>
<path d="M0 0 C3 1 3 1 3 1 Z " fill="#000000" transform="translate(103,6)"/>
<path d="M0 0 C2 1 2 1 2 1 Z " fill="#000000" transform="translate(159,247)"/>
<path d="M0 0 C2 1 2 1 2 1 Z " fill="#000000" transform="translate(95,247)"/>
<path d="M0 0 C2 1 2 1 2 1 Z " fill="#000000" transform="translate(168,244)"/>
<path d="M0 0 C2 1 2 1 2 1 Z " fill="#000000" transform="translate(86,244)"/>
<path d="M0 0 C2 1 2 1 2 1 Z " fill="#000000" transform="translate(171,243)"/>
<path d="M0 0 C2 1 2 1 2 1 Z " fill="#000000" transform="translate(83,243)"/>
<path d="M0 0 C2 1 2 1 2 1 Z " fill="#000000" transform="translate(174,242)"/>
<path d="M0 0 C2 1 2 1 2 1 Z " fill="#000000" transform="translate(80,242)"/>
<path d="M0 0 C2 1 2 1 2 1 Z " fill="#000000" transform="translate(176,241)"/>
<path d="M0 0 C2 1 2 1 2 1 Z " fill="#000000" transform="translate(78,241)"/>
<path d="M0 0 C2 1 2 1 2 1 Z " fill="#000000" transform="translate(178,240)"/>
<path d="M0 0 C2 1 2 1 2 1 Z " fill="#000000" transform="translate(76,240)"/>
<path d="M0 0 C2 1 2 1 2 1 Z " fill="#000000" transform="translate(180,239)"/>
<path d="M0 0 C2 1 2 1 2 1 Z " fill="#000000" transform="translate(74,239)"/>
<path d="M0 0 C2 1 2 1 2 1 Z " fill="#000000" transform="translate(182,238)"/>
<path d="M0 0 C2 1 2 1 2 1 Z " fill="#000000" transform="translate(72,238)"/>
<path d="M0 0 C2 1 2 1 2 1 Z " fill="#000000" transform="translate(184,237)"/>
<path d="M0 0 C2 1 2 1 2 1 Z " fill="#000000" transform="translate(70,237)"/>
<path d="M0 0 C2 1 2 1 2 1 Z " fill="#000000" transform="translate(186,236)"/>
<path d="M0 0 C2 1 2 1 2 1 Z " fill="#000000" transform="translate(68,236)"/>
<path d="M0 0 C2 1 2 1 2 1 Z " fill="#000000" transform="translate(191,233)"/>
<path d="M0 0 C2 1 2 1 2 1 Z " fill="#000000" transform="translate(63,233)"/>
<path d="" fill="#000000" transform="translate(0,0)"/>
<path d="" fill="#000000" transform="translate(0,0)"/>
<path d="" fill="#000000" transform="translate(0,0)"/>
<path d="" fill="#000000" transform="translate(0,0)"/>
<path d="" fill="#000000" transform="translate(0,0)"/>
<path d="" fill="#000000" transform="translate(0,0)"/>
<path d="" fill="#000000" transform="translate(0,0)"/>
<path d="" fill="#000000" transform="translate(0,0)"/>
<path d="" fill="#000000" transform="translate(0,0)"/>
<path d="" fill="#000000" transform="translate(0,0)"/>
<path d="" fill="#000000" transform="translate(0,0)"/>
<path d="" fill="#000000" transform="translate(0,0)"/>
<path d="" fill="#000000" transform="translate(0,0)"/>
<path d="" fill="#000000" transform="translate(0,0)"/>
<path d="" fill="#000000" transform="translate(0,0)"/>
<path d="" fill="#000000" transform="translate(0,0)"/>
<path d="" fill="#000000" transform="translate(0,0)"/>
<path d="" fill="#000000" transform="translate(0,0)"/>
<path d="" fill="#000000" transform="translate(0,0)"/>
<path d="" fill="#000000" transform="translate(0,0)"/>
<path d="" fill="#000000" transform="translate(0,0)"/>
<path d="" fill="#000000" transform="translate(0,0)"/>
<path d="" fill="#000000" transform="translate(0,0)"/>
<path d="M0 0 C2 1 2 1 2 1 Z " fill="#000000" transform="translate(191,22)"/>
<path d="M0 0 C2 1 2 1 2 1 Z " fill="#000000" transform="translate(63,22)"/>
<path d="M0 0 C2 1 2 1 2 1 Z " fill="#000000" transform="translate(186,19)"/>
<path d="M0 0 C2 1 2 1 2 1 Z " fill="#000000" transform="translate(68,19)"/>
<path d="M0 0 C2 1 2 1 2 1 Z " fill="#000000" transform="translate(184,18)"/>
<path d="M0 0 C2 1 2 1 2 1 Z " fill="#000000" transform="translate(70,18)"/>
<path d="M0 0 C2 1 2 1 2 1 Z " fill="#000000" transform="translate(182,17)"/>
<path d="M0 0 C2 1 2 1 2 1 Z " fill="#000000" transform="translate(72,17)"/>
<path d="M0 0 C2 1 2 1 2 1 Z " fill="#000000" transform="translate(180,16)"/>
<path d="M0 0 C2 1 2 1 2 1 Z " fill="#000000" transform="translate(74,16)"/>
<path d="M0 0 C2 1 2 1 2 1 Z " fill="#000000" transform="translate(178,15)"/>
<path d="M0 0 C2 1 2 1 2 1 Z " fill="#000000" transform="translate(76,15)"/>
<path d="M0 0 C2 1 2 1 2 1 Z " fill="#000000" transform="translate(176,14)"/>
<path d="M0 0 C2 1 2 1 2 1 Z " fill="#000000" transform="translate(78,14)"/>
<path d="M0 0 C2 1 2 1 2 1 Z " fill="#000000" transform="translate(174,13)"/>
<path d="M0 0 C2 1 2 1 2 1 Z " fill="#000000" transform="translate(80,13)"/>
<path d="M0 0 C2 1 2 1 2 1 Z " fill="#000000" transform="translate(171,12)"/>
<path d="M0 0 C2 1 2 1 2 1 Z " fill="#000000" transform="translate(83,12)"/>
<path d="M0 0 C2 1 2 1 2 1 Z " fill="#000000" transform="translate(168,11)"/>
<path d="M0 0 C2 1 2 1 2 1 Z " fill="#000000" transform="translate(86,11)"/>
<path d="M0 0 C2 1 2 1 2 1 Z " fill="#000000" transform="translate(159,8)"/>
<path d="M0 0 C2 1 2 1 2 1 Z " fill="#000000" transform="translate(95,8)"/>
<path d="" fill="#000000" transform="translate(0,0)"/>
<path d="" fill="#000000" transform="translate(0,0)"/>
<path d="" fill="#000000" transform="translate(0,0)"/>
<path d="" fill="#000000" transform="translate(0,0)"/>
<path d="" fill="#000000" transform="translate(0,0)"/>
<path d="" fill="#000000" transform="translate(0,0)"/>
<path d="" fill="#000000" transform="translate(0,0)"/>
<path d="" fill="#000000" transform="translate(0,0)"/>
<path d="" fill="#000000" transform="translate(0,0)"/>
<path d="" fill="#000000" transform="translate(0,0)"/>
<path d="" fill="#000000" transform="translate(0,0)"/>
<path d="" fill="#000000" transform="translate(0,0)"/>
<path d="" fill="#000000" transform="translate(0,0)"/>
<path d="" fill="#000000" transform="translate(0,0)"/>
<path d="" fill="#000000" transform="translate(0,0)"/>
<path d="" fill="#000000" transform="translate(0,0)"/>
<path d="" fill="#000000" transform="translate(0,0)"/>
<path d="" fill="#000000" transform="translate(0,0)"/>
<path d="" fill="#000000" transform="translate(0,0)"/>
<path d="" fill="#000000" transform="translate(0,0)"/>
<path d="" fill="#000000" transform="translate(0,0)"/>
<path d="" fill="#000000" transform="translate(0,0)"/>
<path d="" fill="#000000" transform="translate(0,0)"/>
<path d="" fill="#000000" transform="translate(0,0)"/>
<path d="" fill="#000000" transform="translate(0,0)"/>
<path d="" fill="#000000" transform="translate(0,0)"/>
<path d="" fill="#000000" transform="translate(0,0)"/>
<path d="" fill="#000000" transform="translate(0,0)"/>
<path d="" fill="#000000" transform="translate(0,0)"/>
<path d="" fill="#000000" transform="translate(0,0)"/>
<path d="" fill="#000000" transform="translate(0,0)"/>
<path d="" fill="#000000" transform="translate(0,0)"/>
<path d="" fill="#000000" transform="translate(0,0)"/>
<path d="" fill="#000000" transform="translate(0,0)"/>
<path d="" fill="#000000" transform="translate(0,0)"/>
<path d="" fill="#000000" transform="translate(0,0)"/>
<path d="" fill="#000000" transform="translate(0,0)"/>
<path d="" fill="#000000" transform="translate(0,0)"/>
<path d="" fill="#000000" transform="translate(0,0)"/>
<path d="" fill="#000000" transform="translate(0,0)"/>
<path d="" fill="#000000" transform="translate(0,0)"/>
<path d="" fill="#000000" transform="translate(0,0)"/>
<path d="" fill="#000000" transform="translate(0,0)"/>
<path d="" fill="#000000" transform="translate(0,0)"/>
<path d="" fill="#000000" transform="translate(0,0)"/>
<path d="" fill="#000000" transform="translate(0,0)"/>
<path d="" fill="#000000" transform="translate(0,0)"/>
<path d="" fill="#000000" transform="translate(0,0)"/>
<path d="" fill="#000000" transform="translate(0,0)"/>
<path d="" fill="#000000" transform="translate(0,0)"/>
<path d="" fill="#000000" transform="translate(0,0)"/>
<path d="" fill="#000000" transform="translate(0,0)"/>
<path d="" fill="#000000" transform="translate(0,0)"/>
<path d="" fill="#000000" transform="translate(0,0)"/>
<path d="" fill="#000000" transform="translate(0,0)"/>
<path d="" fill="#000000" transform="translate(0,0)"/>
<path d="" fill="#000000" transform="translate(0,0)"/>
<path d="" fill="#000000" transform="translate(0,0)"/>
<path d="" fill="#000000" transform="translate(0,0)"/>
<path d="" fill="#000000" transform="translate(0,0)"/>
<path d="" fill="#000000" transform="translate(0,0)"/>
<path d="" fill="#000000" transform="translate(0,0)"/>
<path d="" fill="#000000" transform="translate(0,0)"/>
<path d="" fill="#000000" transform="translate(0,0)"/>
<path d="" fill="#000000" transform="translate(0,0)"/>
<path d="" fill="#000000" transform="translate(0,0)"/>
<path d="" fill="#000000" transform="translate(0,0)"/>
<path d="" fill="#000000" transform="translate(0,0)"/>
<path d="" fill="#000000" transform="translate(0,0)"/>
<path d="" fill="#000000" transform="translate(0,0)"/>
<path d="" fill="#000000" transform="translate(0,0)"/>
<path d="" fill="#000000" transform="translate(0,0)"/>
<path d="" fill="#000000" transform="translate(0,0)"/>
<path d="" fill="#000000" transform="translate(0,0)"/>
<path d="" fill="#000000" transform="translate(0,0)"/>
<path d="" fill="#000000" transform="translate(0,0)"/>
<path d="" fill="#000000" transform="translate(0,0)"/>
<path d="" fill="#000000" transform="translate(0,0)"/>
<path d="" fill="#000000" transform="translate(0,0)"/>
<path d="" fill="#000000" transform="translate(0,0)"/>
<path d="" fill="#000000" transform="translate(0,0)"/>
<path d="" fill="#000000" transform="translate(0,0)"/>
<path d="" fill="#000000" transform="translate(0,0)"/>
<path d="" fill="#000000" transform="translate(0,0)"/>
<path d="" fill="#000000" transform="translate(0,0)"/>
<path d="" fill="#000000" transform="translate(0,0)"/>
<path d="" fill="#000000" transform="translate(0,0)"/>
<path d="" fill="#000000" transform="translate(0,0)"/>
<path d="" fill="#000000" transform="translate(0,0)"/>
<path d="" fill="#000000" transform="translate(0,0)"/>
<path d="" fill="#000000" transform="translate(0,0)"/>
<path d="" fill="#000000" transform="translate(0,0)"/>
<path d="" fill="#000000" transform="translate(0,0)"/>
<path d="" fill="#000000" transform="translate(0,0)"/>
<path d="" fill="#000000" transform="translate(0,0)"/>
<path d="" fill="#000000" transform="translate(0,0)"/>
<path d="" fill="#000000" transform="translate(0,0)"/>
<path d="" fill="#000000" transform="translate(0,0)"/>
<path d="" fill="#000000" transform="translate(0,0)"/>
<path d="" fill="#000000" transform="translate(0,0)"/>
<path d="" fill="#000000" transform="translate(0,0)"/>
<path d="" fill="#000000" transform="translate(0,0)"/>
<path d="" fill="#000000" transform="translate(0,0)"/>
<path d="" fill="#000000" transform="translate(0,0)"/>
<path d="" fill="#000000" transform="translate(0,0)"/>
<path d="" fill="#000000" transform="translate(0,0)"/>
<path d="" fill="#000000" transform="translate(0,0)"/>
<path d="" fill="#000000" transform="translate(0,0)"/>
<path d="" fill="#000000" transform="translate(0,0)"/>
<path d="" fill="#000000" transform="translate(0,0)"/>
<path d="" fill="#000000" transform="translate(0,0)"/>
<path d="" fill="#000000" transform="translate(0,0)"/>
<path d="" fill="#000000" transform="translate(0,0)"/>
<path d="" fill="#000000" transform="translate(0,0)"/>
<path d="" fill="#000000" transform="translate(0,0)"/>
<path d="" fill="#000000" transform="translate(0,0)"/>
<path d="" fill="#000000" transform="translate(0,0)"/>
<path d="" fill="#000000" transform="translate(0,0)"/>
<path d="" fill="#000000" transform="translate(0,0)"/>
<path d="" fill="#000000" transform="translate(0,0)"/>
<path d="" fill="#000000" transform="translate(0,0)"/>
<path d="" fill="#000000" transform="translate(0,0)"/>
<path d="" fill="#000000" transform="translate(0,0)"/>
<path d="" fill="#000000" transform="translate(0,0)"/>
<path d="" fill="#000000" transform="translate(0,0)"/>
<path d="" fill="#000000" transform="translate(0,0)"/>
<path d="" fill="#000000" transform="translate(0,0)"/>
<path d="" fill="#000000" transform="translate(0,0)"/>
<path d="" fill="#000000" transform="translate(0,0)"/>
<path d="" fill="#000000" transform="translate(0,0)"/>
<path d="" fill="#000000" transform="translate(0,0)"/>
<path d="" fill="#000000" transform="translate(0,0)"/>
<path d="" fill="#000000" transform="translate(0,0)"/>
<path d="" fill="#000000" transform="translate(0,0)"/>
<path d="" fill="#000000" transform="translate(0,0)"/>
<path d="" fill="#000000" transform="translate(0,0)"/>
<path d="" fill="#000000" transform="translate(0,0)"/>
<path d="" fill="#000000" transform="translate(0,0)"/>
<path d="" fill="#000000" transform="translate(0,0)"/>
<path d="" fill="#000000" transform="translate(0,0)"/>
<path d="" fill="#000000" transform="translate(0,0)"/>
<path d="" fill="#000000" transform="translate(0,0)"/>
<path d="" fill="#000000" transform="translate(0,0)"/>
<path d="" fill="#000000" transform="translate(0,0)"/>
<path d="" fill="#000000" transform="translate(0,0)"/>
<path d="" fill="#000000" transform="translate(0,0)"/>
<path d="" fill="#000000" transform="translate(0,0)"/>
<path d="" fill="#000000" transform="translate(0,0)"/>
<path d="" fill="#000000" transform="translate(0,0)"/>
<path d="" fill="#000000" transform="translate(0,0)"/>
<path d="" fill="#000000" transform="translate(0,0)"/>
<path d="" fill="#000000" transform="translate(0,0)"/>
<path d="" fill="#000000" transform="translate(0,0)"/>
<path d="" fill="#000000" transform="translate(0,0)"/>
<path d="" fill="#000000" transform="translate(0,0)"/>
<path d="" fill="#000000" transform="translate(0,0)"/>
<path d="" fill="#000000" transform="translate(0,0)"/>
</svg>
