<?xml version="1.0" encoding="UTF-8"?>
<svg version="1.1" xmlns="http://www.w3.org/2000/svg" width="200" height="200">
<path d="M0 0 C1.051875 0.01160156 1.051875 0.01160156 2.125 0.0234375 C2.82625 0.01570312 3.5275 0.00796875 4.25 0 C6.125 0.3984375 6.125 0.3984375 8.125 3.3984375 C8.35205078 6.49291992 8.35205078 6.49291992 8.3203125 10.25390625 C8.3174826 10.91554276 8.31465271 11.57717926 8.31173706 12.25886536 C8.30055918 14.36807487 8.27545981 16.47685675 8.25 18.5859375 C8.23996707 20.01757198 8.23084176 21.44921314 8.22265625 22.88085938 C8.20062795 26.38685727 8.16611485 29.89260563 8.125 33.3984375 C8.99237793 33.51743408 9.85975586 33.63643066 10.75341797 33.7590332 C11.90471191 33.92491943 13.05600586 34.09080566 14.2421875 34.26171875 C15.37769043 34.42196533 16.51319336 34.58221191 17.68310547 34.74731445 C34.20339293 37.87255255 48.32384504 48.79984633 57.98046875 62.125 C64.16069018 71.55856204 69.125 82.93240189 69.125 94.3984375 C70.01807861 94.38796387 70.91115723 94.37749023 71.83129883 94.36669922 C75.14675477 94.33260158 78.46202421 94.30753113 81.77758789 94.28857422 C83.21218812 94.2785205 84.64676789 94.26487556 86.08129883 94.24755859 C88.14409438 94.22328201 90.20661885 94.21194831 92.26953125 94.203125 C93.51065674 94.19265137 94.75178223 94.18217773 96.03051758 94.17138672 C99.125 94.3984375 99.125 94.3984375 102.125 96.3984375 C102.5234375 98.2734375 102.5234375 98.2734375 102.5 100.3984375 C102.50773438 101.0996875 102.51546875 101.8009375 102.5234375 102.5234375 C102.125 104.3984375 102.125 104.3984375 99.125 106.3984375 C96.03051758 106.62548828 96.03051758 106.62548828 92.26953125 106.59375 C91.60789474 106.5909201 90.94625824 106.58809021 90.26457214 106.58517456 C88.15536263 106.57399668 86.04658075 106.54889731 83.9375 106.5234375 C82.50586552 106.51340457 81.07422436 106.50427926 79.64257812 106.49609375 C76.13658023 106.47406545 72.63083187 106.43955235 69.125 106.3984375 C69.00600342 107.26581543 68.88700684 108.13319336 68.7644043 109.02685547 C68.59851807 110.17814941 68.43263184 111.32944336 68.26171875 112.515625 C68.10147217 113.65112793 67.94122559 114.78663086 67.77612305 115.95654297 C64.65088495 132.47683043 53.72359117 146.59728254 40.3984375 156.25390625 C30.96487546 162.43412768 19.59103561 167.3984375 8.125 167.3984375 C8.13547363 168.29151611 8.14594727 169.18459473 8.15673828 170.10473633 C8.19083592 173.42019227 8.21590637 176.73546171 8.23486328 180.05102539 C8.244917 181.48562562 8.25856194 182.92020539 8.27587891 184.35473633 C8.30015549 186.41753188 8.31148919 188.48005635 8.3203125 190.54296875 C8.33078613 191.78409424 8.34125977 193.02521973 8.35205078 194.30395508 C8.125 197.3984375 8.125 197.3984375 6.125 200.3984375 C4.25 200.796875 4.25 200.796875 2.125 200.7734375 C1.42375 200.78117188 0.7225 200.78890625 0 200.796875 C-1.875 200.3984375 -1.875 200.3984375 -3.875 197.3984375 C-4.10205078 194.30395508 -4.10205078 194.30395508 -4.0703125 190.54296875 C-4.0674826 189.88133224 -4.06465271 189.21969574 -4.06173706 188.53800964 C-4.05055918 186.42880013 -4.02545981 184.32001825 -4 182.2109375 C-3.98996707 180.77930302 -3.98084176 179.34766186 -3.97265625 177.91601562 C-3.95062795 174.41001773 -3.91611485 170.90426937 -3.875 167.3984375 C-4.74237793 167.27944092 -5.60975586 167.16044434 -6.50341797 167.0378418 C-7.65471191 166.87195557 -8.80600586 166.70606934 -9.9921875 166.53515625 C-11.12769043 166.37490967 -12.26319336 166.21466309 -13.43310547 166.04956055 C-28.91918435 163.11996966 -43.58554122 152.91706797 -52.5625 140.1484375 C-59.28499155 130.20108209 -64.875 118.67325028 -64.875 106.3984375 C-65.76807861 106.40891113 -66.66115723 106.41938477 -67.58129883 106.43017578 C-70.89675477 106.46427342 -74.21202421 106.48934387 -77.52758789 106.50830078 C-78.96218812 106.5183545 -80.39676789 106.53199944 -81.83129883 106.54931641 C-83.89409438 106.57359299 -85.95661885 106.58492669 -88.01953125 106.59375 C-89.26065674 106.60422363 -90.50178223 106.61469727 -91.78051758 106.62548828 C-94.875 106.3984375 -94.875 106.3984375 -97.875 104.3984375 C-98.2734375 102.5234375 -98.2734375 102.5234375 -98.25 100.3984375 C-98.25773437 99.6971875 -98.26546875 98.9959375 -98.2734375 98.2734375 C-97.875 96.3984375 -97.875 96.3984375 -94.875 94.3984375 C-91.78051758 94.17138672 -91.78051758 94.17138672 -88.01953125 94.203125 C-87.35789474 94.2059549 -86.69625824 94.20878479 -86.01457214 94.21170044 C-83.90536263 94.22287832 -81.79658075 94.24797769 -79.6875 94.2734375 C-78.25586552 94.28347043 -76.82422436 94.29259574 -75.39257812 94.30078125 C-71.88658023 94.32280955 -68.38083187 94.35732265 -64.875 94.3984375 C-64.75600342 93.53105957 -64.63700684 92.66368164 -64.5144043 91.77001953 C-64.34851807 90.61872559 -64.18263184 89.46743164 -64.01171875 88.28125 C-63.85147217 87.14574707 -63.69122559 86.01024414 -63.52612305 84.84033203 C-60.59653216 69.35425315 -50.39363047 54.68789628 -37.625 45.7109375 C-27.67764459 38.98844595 -16.14981278 33.3984375 -3.875 33.3984375 C-3.88547363 32.50535889 -3.89594727 31.61228027 -3.90673828 30.69213867 C-3.94083592 27.37668273 -3.96590637 24.06141329 -3.98486328 20.74584961 C-3.994917 19.31124938 -4.00856194 17.87666961 -4.02587891 16.44213867 C-4.05015549 14.37934312 -4.06148919 12.31681865 -4.0703125 10.25390625 C-4.08078613 9.01278076 -4.09125977 7.77165527 -4.10205078 6.49291992 C-3.86234567 3.22597121 -3.57942679 0.76062819 0 0 Z M-38.17578125 62.47265625 C-46.39307465 71.37967906 -51.79570713 82.25639273 -52.875 94.3984375 C-48.585 94.7284375 -44.295 95.0584375 -39.875 95.3984375 C-39.875 98.6984375 -39.875 101.9984375 -39.875 105.3984375 C-46.31 105.8934375 -46.31 105.8934375 -52.875 106.3984375 C-50.17169817 123.10975793 -42.62554721 136.28134185 -28.875 146.3984375 C-20.90841334 151.33279806 -13.02777741 153.6076767 -3.875 155.3984375 C-3.545 151.1084375 -3.215 146.8184375 -2.875 142.3984375 C0.425 142.3984375 3.725 142.3984375 7.125 142.3984375 C7.62 148.8334375 7.62 148.8334375 8.125 155.3984375 C25.54377776 151.99041576 39.03253478 144.85216551 49.125 129.9609375 C53.48684945 122.53515478 55.71663457 114.84863005 57.125 106.3984375 C52.835 106.0684375 48.545 105.7384375 44.125 105.3984375 C44.125 102.0984375 44.125 98.7984375 44.125 95.3984375 C48.415 95.0684375 52.705 94.7384375 57.125 94.3984375 C53.41954595 76.83022594 46.38159714 63.16907415 30.87109375 52.93359375 C23.83680599 49.00119675 16.21040451 45.96253549 8.125 45.3984375 C7.795 49.6884375 7.465 53.9784375 7.125 58.3984375 C3.825 58.3984375 0.525 58.3984375 -2.875 58.3984375 C-3.205 54.1084375 -3.535 49.8184375 -3.875 45.3984375 C-16.87341651 45.3984375 -29.32160829 53.68922235 -38.17578125 62.47265625 Z " fill="#000000" transform="translate(97.875,-0.3984375)"/>
<path d="M0 0 C3.58598889 2.54054385 6.15992797 5.04327701 8.4921875 8.765625 C8.90210938 9.38695313 9.31203125 10.00828125 9.734375 10.6484375 C13.58244889 17.62804738 13.74273274 26.02607545 12.4921875 33.765625 C10.09120579 41.34186763 6.27912589 47.51322792 -0.5078125 51.765625 C-1.12914062 52.17554688 -1.75046875 52.58546875 -2.390625 53.0078125 C-9.37023488 56.85588639 -17.76826295 57.01617024 -25.5078125 55.765625 C-33.08405513 53.36464329 -39.25541542 49.55256339 -43.5078125 42.765625 C-43.91773437 42.14429688 -44.32765625 41.52296875 -44.75 40.8828125 C-48.59807389 33.90320262 -48.75835774 25.50517455 -47.5078125 17.765625 C-45.10683079 10.18938237 -41.29475089 4.01802208 -34.5078125 -0.234375 C-33.88648437 -0.64429687 -33.26515625 -1.05421875 -32.625 -1.4765625 C-22.455808 -7.08315125 -9.72162164 -5.63801363 0 0 Z M-31.8203125 14.265625 C-36.05194673 19.3302581 -36.03572786 24.40075871 -35.5078125 30.765625 C-33.72765511 36.2108123 -30.1195515 39.54788893 -25.5078125 42.765625 C-20.14402117 44.55355544 -14.62008912 44.45617697 -9.2578125 42.703125 C-4.83926959 39.59006068 -1.23390251 35.94389504 0.4921875 30.765625 C1.02603892 24.80086206 1.04488899 19.80816905 -2.5078125 14.765625 C-7.11956429 10.13206824 -10.61770833 7.63917531 -17.3203125 7.515625 C-23.81088096 7.61924801 -27.50799433 9.44357655 -31.8203125 14.265625 Z " fill="#000000" transform="translate(117.5078125,74.234375)"/>
</svg>
