<?xml version="1.0" encoding="UTF-8"?>
<svg xmlns="http://www.w3.org/2000/svg" xmlns:xlink="http://www.w3.org/1999/xlink" width="256px" height="256px" viewBox="0 0 256 256" version="1.1">
<g id="surface1">
<path style=" stroke:none;fill-rule:evenodd;fill:rgb(1.568628%,1.568628%,1.568628%);fill-opacity:1;" d="M 119.242188 0.148438 C 106.527344 1.242188 95.695312 3.460938 85.652344 7.03125 C 26.769531 27.957031 -8.371094 87.183594 1.574219 148.738281 C 13.386719 221.878906 85.570312 269.886719 157.796875 252.640625 C 223.054688 237.054688 265.132812 173.746094 254.425781 107.246094 C 245.769531 53.492188 203.347656 10.808594 149.507812 1.683594 C 141.765625 0.371094 125.976562 -0.429688 119.242188 0.148438 M 141.074219 9.703125 C 184.632812 14.515625 222.007812 42.964844 238.488281 83.855469 C 247.957031 107.34375 249.609375 135.792969 242.882812 159.429688 C 227.195312 214.554688 176.230469 250.613281 119.601562 246.660156 C 69.316406 243.152344 27.101562 208.570312 13.117188 159.429688 C 7.8125 140.796875 7.8125 115.203125 13.117188 96.570312 C 26.074219 51.039062 64.449219 16.886719 110.003906 10.339844 C 112.914062 9.921875 114.703125 9.738281 120.441406 9.257812 C 123.214844 9.027344 137.804688 9.34375 141.074219 9.703125 M 102.476562 37.667969 C 99.917969 37.777344 97.757812 37.96875 97.675781 38.097656 C 97.597656 38.226562 96.855469 38.40625 96.03125 38.503906 C 95.207031 38.597656 94.53125 38.761719 94.53125 38.871094 C 94.53125 38.976562 94.089844 39.140625 93.550781 39.230469 C 93.011719 39.320312 92.285156 39.546875 91.929688 39.730469 C 91.578125 39.914062 90.941406 40.132812 90.511719 40.214844 C 90.082031 40.292969 89.730469 40.457031 89.730469 40.574219 C 89.730469 40.691406 89.597656 40.789062 89.433594 40.792969 C 89.265625 40.796875 88.59375 41.066406 87.933594 41.394531 C 87.273438 41.71875 86.597656 41.984375 86.433594 41.984375 C 86.269531 41.984375 86.132812 42.085938 86.132812 42.210938 C 86.132812 42.332031 85.890625 42.511719 85.59375 42.601562 C 85.296875 42.695312 85 42.835938 84.933594 42.917969 C 84.867188 43 84.328125 43.390625 83.734375 43.785156 C 83.140625 44.183594 82.53125 44.613281 82.378906 44.746094 C 82.230469 44.878906 81.820312 45.195312 81.464844 45.449219 C 78.621094 47.511719 72.699219 54.230469 72.699219 55.394531 C 72.699219 55.542969 72.597656 55.664062 72.476562 55.664062 C 72.355469 55.664062 72.1875 55.980469 72.101562 56.367188 C 72.015625 56.753906 71.796875 57.191406 71.617188 57.34375 C 71.4375 57.492188 71.21875 57.929688 71.132812 58.316406 C 71.050781 58.707031 70.890625 59.019531 70.777344 59.019531 C 70.667969 59.019531 70.503906 59.34375 70.417969 59.742188 C 70.332031 60.136719 70.179688 60.460938 70.078125 60.460938 C 69.976562 60.460938 69.757812 61.082031 69.589844 61.839844 C 69.421875 62.601562 69.199219 63.328125 69.09375 63.460938 C 68.988281 63.59375 68.828125 64.214844 68.734375 64.839844 C 68.640625 65.464844 68.484375 65.980469 68.382812 65.980469 C 67.273438 65.980469 66.84375 113.363281 67.652344 146.714844 C 67.875 155.871094 68.003906 157.871094 68.375 157.871094 C 68.472656 157.871094 68.628906 158.410156 68.714844 159.070312 C 68.804688 159.730469 68.960938 160.269531 69.066406 160.269531 C 69.175781 160.269531 69.402344 160.863281 69.578125 161.589844 C 69.753906 162.316406 69.984375 162.910156 70.097656 162.910156 C 70.207031 162.910156 70.296875 163.023438 70.296875 163.167969 C 70.296875 163.417969 72.183594 166.75 72.460938 166.988281 C 72.539062 167.054688 72.851562 167.46875 73.160156 167.90625 C 73.464844 168.34375 73.945312 168.949219 74.226562 169.246094 C 74.507812 169.539062 74.90625 169.992188 75.113281 170.246094 C 75.480469 170.691406 77.707031 172.699219 78.933594 173.691406 C 79.265625 173.957031 79.644531 174.265625 79.773438 174.375 C 79.90625 174.484375 80.609375 174.890625 81.335938 175.277344 C 82.058594 175.667969 82.710938 176.058594 82.777344 176.144531 C 82.84375 176.234375 83.195312 176.378906 83.554688 176.472656 C 83.917969 176.5625 84.214844 176.722656 84.214844 176.828125 C 84.214844 176.933594 84.753906 177.160156 85.414062 177.328125 C 86.074219 177.496094 86.613281 177.710938 86.613281 177.800781 C 86.613281 177.894531 87.097656 178.042969 87.691406 178.132812 C 88.285156 178.222656 88.773438 178.382812 88.773438 178.496094 C 88.773438 178.605469 89.421875 178.773438 90.210938 178.863281 C 91.53125 179.015625 92.339844 179.433594 91.722656 179.640625 C 91.417969 179.742188 60.289062 210.554688 59.316406 211.71875 C 56.28125 215.351562 61.578125 220.921875 64.976562 217.675781 C 65.152344 217.507812 65.382812 217.371094 65.492188 217.371094 C 65.601562 217.371094 67.195312 215.859375 69.03125 214.011719 C 70.867188 212.164062 72.488281 210.652344 72.632812 210.652344 C 72.777344 210.652344 72.941406 210.519531 72.996094 210.355469 C 73.132812 209.945312 181.546875 209.910156 181.8125 210.316406 C 181.90625 210.460938 182.335938 210.648438 182.765625 210.730469 C 183.199219 210.816406 183.726562 211.019531 183.941406 211.1875 C 184.492188 211.621094 186.445312 213.5625 187.039062 214.265625 C 187.507812 214.824219 189.6875 216.84375 190.648438 217.613281 C 193.984375 220.277344 198.390625 217.015625 197.207031 212.753906 C 197.015625 212.074219 196.226562 211.148438 193.9375 208.917969 C 185.300781 200.507812 171.265625 186.296875 168.523438 183.183594 C 168.171875 182.785156 167.148438 181.695312 166.242188 180.757812 C 164.492188 178.945312 164.441406 178.746094 165.722656 178.746094 C 166.171875 178.746094 166.472656 178.644531 166.398438 178.523438 C 166.324219 178.398438 166.855469 178.226562 167.585938 178.132812 C 168.3125 178.042969 168.90625 177.882812 168.90625 177.78125 C 168.90625 177.675781 169.445312 177.464844 170.105469 177.304688 C 170.765625 177.144531 171.304688 176.929688 171.304688 176.828125 C 171.304688 176.722656 171.601562 176.5625 171.964844 176.472656 C 172.324219 176.378906 172.675781 176.234375 172.742188 176.144531 C 172.8125 176.058594 173.460938 175.667969 174.1875 175.28125 C 174.910156 174.890625 175.625 174.460938 175.773438 174.320312 C 175.925781 174.179688 176.289062 173.902344 176.589844 173.707031 C 177.285156 173.242188 178.378906 172.351562 179.453125 171.367188 C 179.921875 170.941406 180.382812 170.589844 180.484375 170.585938 C 180.582031 170.585938 180.664062 170.480469 180.664062 170.347656 C 180.664062 170.09375 181.476562 169.066406 182.164062 168.453125 C 182.394531 168.25 182.582031 167.988281 182.582031 167.878906 C 182.582031 167.765625 182.71875 167.53125 182.882812 167.359375 C 183.402344 166.816406 184.070312 165.761719 184.789062 164.347656 C 184.957031 164.019531 185.148438 163.695312 185.21875 163.628906 C 185.511719 163.347656 186.191406 161.742188 186.464844 160.691406 C 186.628906 160.0625 186.835938 159.550781 186.925781 159.550781 C 187.015625 159.550781 187.164062 159.039062 187.257812 158.410156 C 187.351562 157.785156 187.519531 157.214844 187.636719 157.144531 C 187.75 157.074219 187.914062 156.128906 188.003906 155.042969 C 188.097656 153.960938 188.261719 153.070312 188.375 153.070312 C 188.488281 153.070312 188.582031 134.804688 188.582031 112.40625 C 188.582031 90.039062 188.488281 71.738281 188.375 71.738281 C 188.265625 71.738281 188.097656 70.6875 188.007812 69.40625 C 187.917969 68.125 187.761719 67.019531 187.65625 66.949219 C 187.554688 66.878906 187.347656 66.226562 187.199219 65.5 C 186.726562 63.199219 186.121094 61.179688 185.910156 61.179688 C 185.796875 61.179688 185.703125 60.972656 185.703125 60.71875 C 185.703125 60.164062 183.484375 55.753906 182.394531 54.140625 C 181.96875 53.511719 181.621094 52.902344 181.621094 52.785156 C 181.621094 52.664062 181.480469 52.480469 181.308594 52.375 C 181.136719 52.269531 180.679688 51.75 180.289062 51.222656 C 179.308594 49.890625 175.695312 46.328125 174.476562 45.492188 C 173.921875 45.113281 173.464844 44.707031 173.464844 44.59375 C 173.464844 44.480469 173.363281 44.386719 173.238281 44.386719 C 173.023438 44.386719 171.519531 43.46875 170.929688 42.980469 C 170.785156 42.863281 170.433594 42.691406 170.148438 42.601562 C 169.863281 42.507812 169.625 42.351562 169.625 42.25 C 169.625 42.148438 169.195312 41.921875 168.667969 41.746094 C 168.140625 41.574219 167.707031 41.339844 167.707031 41.230469 C 167.707031 41.117188 167.5 41.027344 167.246094 41.027344 C 166.988281 41.027344 166.636719 40.882812 166.457031 40.703125 C 166.28125 40.527344 165.570312 40.246094 164.882812 40.078125 C 164.191406 39.914062 163.574219 39.695312 163.511719 39.589844 C 163.445312 39.488281 162.90625 39.328125 162.3125 39.242188 C 161.714844 39.152344 161.230469 38.988281 161.230469 38.878906 C 161.230469 38.765625 160.472656 38.601562 159.550781 38.507812 C 158.628906 38.414062 157.925781 38.253906 157.992188 38.144531 C 158.296875 37.652344 112.335938 37.257812 102.476562 37.667969 M 151.730469 44.382812 C 167.417969 45.207031 178.453125 54.289062 181.308594 68.738281 C 181.929688 71.898438 182.105469 149.464844 181.5 153.640625 C 180.21875 162.421875 174.480469 169.128906 166.148438 171.582031 L 164.226562 172.144531 L 128.960938 172.175781 C 108.316406 172.191406 93.042969 172.113281 92.132812 171.980469 C 83.75 170.78125 76.753906 164.003906 74.601562 154.992188 C 73.875 151.9375 73.878906 73.847656 74.609375 69.609375 C 76.914062 56.226562 86.363281 46.796875 99.6875 44.578125 C 103.277344 43.980469 141.316406 43.839844 151.730469 44.382812 M 110.246094 51.085938 C 108.585938 51.496094 107.25 52.582031 106.375 54.222656 C 105.699219 55.492188 105.699219 66.148438 106.375 67.417969 C 107.097656 68.785156 108.207031 69.777344 109.507812 70.234375 C 111.570312 70.953125 145.042969 70.878906 146.59375 70.152344 C 149.519531 68.78125 149.953125 67.554688 149.953125 60.6875 C 149.953125 54.117188 149.589844 53.007812 146.992188 51.636719 L 145.753906 50.984375 L 128.359375 50.945312 C 118.792969 50.925781 110.640625 50.988281 110.246094 51.085938 M 143.335938 57.246094 C 143.65625 57.371094 143.714844 57.917969 143.714844 60.847656 L 143.714844 64.300781 L 112.285156 64.300781 L 112.285156 60.839844 C 112.285156 58.296875 112.363281 57.351562 112.585938 57.261719 C 113.015625 57.085938 142.882812 57.074219 143.335938 57.246094 M 91.433594 77.039062 C 86.75 77.59375 82.929688 81.15625 81.929688 85.90625 C 81.433594 88.285156 81.421875 112.894531 81.921875 115.6875 C 82.828125 120.78125 86.671875 124.261719 91.957031 124.773438 C 98.433594 125.398438 165.316406 124.851562 166.988281 124.160156 C 170.773438 122.585938 173.183594 119.652344 173.976562 115.644531 C 174.425781 113.367188 174.421875 88.890625 173.972656 86.375 C 173.191406 82.003906 170.703125 79.089844 166.414062 77.519531 L 164.707031 76.894531 L 128.960938 76.863281 C 109.296875 76.84375 92.410156 76.925781 91.433594 77.039062 M 165.214844 83.875 C 166.140625 84.3125 166.722656 84.796875 167.179688 85.496094 L 167.828125 86.492188 L 167.828125 115.597656 L 167.09375 116.523438 C 165.449219 118.585938 169.222656 118.402344 127.878906 118.402344 C 87.167969 118.402344 90.253906 118.53125 88.921875 116.785156 C 87.851562 115.378906 87.777344 114.210938 87.859375 99.976562 C 87.941406 85.480469 87.914062 85.75 89.40625 84.414062 C 90.71875 83.242188 88.972656 83.292969 127.714844 83.273438 L 163.898438 83.253906 L 165.214844 83.875 M 113.722656 89.421875 C 113.085938 89.546875 105.273438 97.144531 99.785156 102.976562 L 96.691406 106.261719 L 96.691406 107.609375 C 96.691406 109.316406 96.890625 109.671875 98.355469 110.574219 L 99.546875 111.308594 L 100.578125 110.847656 C 101.820312 110.292969 117.632812 94.570312 118.03125 93.496094 C 118.847656 91.296875 116.320312 88.910156 113.722656 89.421875 M 93.691406 133.78125 C 91.601562 134.269531 90.882812 134.515625 89.683594 135.140625 C 87.300781 136.378906 85.457031 138.511719 84.390625 141.257812 C 83.792969 142.796875 83.609375 147.65625 84.113281 148.777344 C 86.558594 154.253906 89.359375 156.398438 94.355469 156.617188 C 107.898438 157.214844 111.28125 138.734375 98.445312 134.261719 C 97.371094 133.886719 94.484375 133.59375 93.691406 133.78125 M 158.246094 134.007812 C 146.359375 137.011719 146.425781 153.980469 158.335938 156.453125 C 166.863281 158.226562 174.0625 150.242188 171.546875 141.800781 C 169.851562 136.105469 163.851562 132.589844 158.246094 134.007812 M 97.390625 140.78125 C 101.792969 143.503906 100.539062 149.78125 95.515625 150.144531 C 89.085938 150.609375 87.882812 141.761719 94.171875 140.269531 C 94.945312 140.082031 96.71875 140.367188 97.390625 140.78125 M 163.335938 140.984375 C 166.226562 142.671875 166.605469 146.515625 164.109375 148.847656 C 160.886719 151.867188 155.621094 149.660156 155.621094 145.292969 C 155.621094 141.21875 159.769531 138.902344 163.335938 140.984375 M 145.273438 178.953125 C 151.40625 179.09375 152.332031 179.167969 153.070312 179.558594 C 154.082031 180.097656 159.308594 185.183594 159.308594 185.628906 C 159.308594 185.886719 153.613281 185.941406 128.101562 185.941406 C 109.355469 185.941406 96.921875 185.855469 96.96875 185.722656 C 97.191406 185.117188 102.664062 179.367188 103.289062 179.089844 C 104.082031 178.730469 131.601562 178.640625 145.273438 178.953125 M 166.984375 194.097656 C 167.882812 194.355469 175.234375 201.441406 175 201.820312 C 174.929688 201.929688 153.796875 202.015625 128.035156 202.015625 C 81.152344 202.015625 80.613281 202.007812 80.613281 201.273438 C 80.613281 200.953125 88.078125 194.21875 88.601562 194.0625 C 89.507812 193.796875 166.054688 193.832031 166.984375 194.097656 "/>
<path style=" stroke:none;fill-rule:evenodd;fill:rgb(74.901962%,74.509805%,75.686276%);fill-opacity:1;" d="M 121.328125 9.378906 C 71.816406 11.832031 29.070312 45.519531 14.042969 93.921875 C 7.597656 114.675781 7.597656 141.324219 14.042969 162.078125 C 35.265625 230.433594 109.855469 265.3125 174.785156 237.242188 C 237.785156 210 264.917969 135.984375 234.296875 74.878906 C 212.9375 32.253906 169.375 6.996094 121.328125 9.378906 M 156.613281 37.816406 C 157.4375 37.890625 158.058594 38.039062 157.992188 38.144531 C 157.925781 38.253906 158.628906 38.414062 159.550781 38.507812 C 160.472656 38.601562 161.230469 38.765625 161.230469 38.878906 C 161.230469 38.988281 161.714844 39.152344 162.3125 39.242188 C 162.90625 39.328125 163.445312 39.488281 163.511719 39.589844 C 163.574219 39.695312 164.191406 39.914062 164.882812 40.078125 C 165.570312 40.246094 166.28125 40.527344 166.457031 40.703125 C 166.636719 40.882812 166.988281 41.027344 167.246094 41.027344 C 167.5 41.027344 167.707031 41.117188 167.707031 41.230469 C 167.707031 41.339844 168.140625 41.574219 168.667969 41.746094 C 169.195312 41.921875 169.625 42.148438 169.625 42.25 C 169.625 42.351562 169.863281 42.507812 170.148438 42.601562 C 170.433594 42.691406 170.785156 42.863281 170.929688 42.980469 C 171.519531 43.46875 173.023438 44.386719 173.238281 44.386719 C 173.363281 44.386719 173.464844 44.480469 173.464844 44.59375 C 173.464844 44.707031 173.921875 45.113281 174.476562 45.492188 C 175.695312 46.328125 179.308594 49.890625 180.289062 51.222656 C 180.679688 51.75 181.136719 52.269531 181.308594 52.375 C 181.480469 52.480469 181.621094 52.664062 181.621094 52.785156 C 181.621094 52.902344 181.96875 53.511719 182.394531 54.140625 C 183.484375 55.753906 185.703125 60.164062 185.703125 60.71875 C 185.703125 60.972656 185.796875 61.179688 185.910156 61.179688 C 186.121094 61.179688 186.726562 63.199219 187.199219 65.5 C 187.347656 66.226562 187.554688 66.878906 187.65625 66.949219 C 187.761719 67.019531 187.917969 68.125 188.007812 69.40625 C 188.097656 70.6875 188.265625 71.738281 188.375 71.738281 C 188.488281 71.738281 188.582031 90.039062 188.582031 112.40625 C 188.582031 134.804688 188.488281 153.070312 188.375 153.070312 C 188.261719 153.070312 188.097656 153.960938 188.003906 155.042969 C 187.914062 156.128906 187.75 157.074219 187.636719 157.144531 C 187.519531 157.214844 187.351562 157.785156 187.257812 158.410156 C 187.164062 159.039062 187.015625 159.550781 186.925781 159.550781 C 186.835938 159.550781 186.628906 160.0625 186.464844 160.691406 C 186.191406 161.742188 185.511719 163.347656 185.21875 163.628906 C 185.148438 163.695312 184.957031 164.019531 184.789062 164.347656 C 184.070312 165.761719 183.402344 166.816406 182.882812 167.359375 C 182.71875 167.53125 182.582031 167.765625 182.582031 167.878906 C 182.582031 167.988281 182.394531 168.25 182.164062 168.453125 C 181.476562 169.066406 180.664062 170.09375 180.664062 170.347656 C 180.664062 170.480469 180.582031 170.585938 180.484375 170.585938 C 180.382812 170.589844 179.921875 170.941406 179.453125 171.367188 C 178.378906 172.351562 177.285156 173.242188 176.589844 173.707031 C 176.289062 173.902344 175.925781 174.179688 175.773438 174.320312 C 175.625 174.460938 174.910156 174.890625 174.1875 175.28125 C 173.460938 175.667969 172.8125 176.058594 172.742188 176.144531 C 172.675781 176.234375 172.324219 176.378906 171.964844 176.472656 C 171.601562 176.5625 171.304688 176.722656 171.304688 176.828125 C 171.304688 176.929688 170.765625 177.144531 170.105469 177.304688 C 169.445312 177.464844 168.90625 177.675781 168.90625 177.78125 C 168.90625 177.882812 168.3125 178.042969 167.585938 178.132812 C 166.855469 178.226562 166.324219 178.398438 166.398438 178.523438 C 166.472656 178.644531 166.171875 178.746094 165.722656 178.746094 C 164.441406 178.746094 164.492188 178.945312 166.242188 180.757812 C 167.148438 181.695312 168.171875 182.785156 168.523438 183.183594 C 171.265625 186.296875 185.300781 200.507812 193.9375 208.917969 C 196.226562 211.148438 197.015625 212.074219 197.207031 212.753906 C 198.390625 217.015625 193.984375 220.277344 190.648438 217.613281 C 189.6875 216.84375 187.507812 214.824219 187.039062 214.265625 C 186.445312 213.5625 184.492188 211.621094 183.941406 211.1875 C 183.726562 211.019531 183.199219 210.816406 182.765625 210.730469 C 182.335938 210.648438 181.90625 210.460938 181.8125 210.316406 C 181.546875 209.910156 73.132812 209.945312 72.996094 210.355469 C 72.941406 210.519531 72.777344 210.652344 72.632812 210.652344 C 72.488281 210.652344 70.867188 212.164062 69.03125 214.011719 C 67.195312 215.859375 65.601562 217.371094 65.492188 217.371094 C 65.382812 217.371094 65.152344 217.507812 64.976562 217.675781 C 61.578125 220.921875 56.28125 215.351562 59.316406 211.71875 C 60.289062 210.554688 91.417969 179.742188 91.722656 179.640625 C 92.339844 179.433594 91.53125 179.015625 90.210938 178.863281 C 89.421875 178.773438 88.773438 178.605469 88.773438 178.496094 C 88.773438 178.382812 88.285156 178.222656 87.691406 178.132812 C 87.097656 178.042969 86.613281 177.894531 86.613281 177.800781 C 86.613281 177.710938 86.074219 177.496094 85.414062 177.328125 C 84.753906 177.160156 84.214844 176.933594 84.214844 176.828125 C 84.214844 176.722656 83.917969 176.5625 83.554688 176.472656 C 83.195312 176.378906 82.84375 176.234375 82.777344 176.144531 C 82.710938 176.058594 82.058594 175.667969 81.335938 175.277344 C 80.609375 174.890625 79.90625 174.484375 79.773438 174.375 C 79.644531 174.265625 79.265625 173.957031 78.933594 173.691406 C 77.707031 172.699219 75.480469 170.691406 75.113281 170.246094 C 74.90625 169.992188 74.507812 169.539062 74.226562 169.246094 C 73.945312 168.949219 73.464844 168.34375 73.160156 167.90625 C 72.851562 167.46875 72.539062 167.054688 72.460938 166.988281 C 72.183594 166.75 70.296875 163.417969 70.296875 163.167969 C 70.296875 163.023438 70.207031 162.910156 70.097656 162.910156 C 69.984375 162.910156 69.753906 162.316406 69.578125 161.589844 C 69.402344 160.863281 69.175781 160.269531 69.066406 160.269531 C 68.960938 160.269531 68.804688 159.730469 68.714844 159.070312 C 68.628906 158.410156 68.472656 157.871094 68.375 157.871094 C 68.003906 157.871094 67.875 155.871094 67.652344 146.714844 C 66.84375 113.363281 67.273438 65.980469 68.382812 65.980469 C 68.484375 65.980469 68.640625 65.464844 68.734375 64.839844 C 68.828125 64.214844 68.988281 63.59375 69.09375 63.460938 C 69.199219 63.328125 69.421875 62.601562 69.589844 61.839844 C 69.757812 61.082031 69.976562 60.460938 70.078125 60.460938 C 70.179688 60.460938 70.332031 60.136719 70.417969 59.742188 C 70.503906 59.34375 70.667969 59.019531 70.777344 59.019531 C 70.890625 59.019531 71.050781 58.707031 71.132812 58.316406 C 71.21875 57.929688 71.4375 57.492188 71.617188 57.34375 C 71.796875 57.191406 72.015625 56.753906 72.101562 56.367188 C 72.1875 55.980469 72.355469 55.664062 72.476562 55.664062 C 72.597656 55.664062 72.699219 55.542969 72.699219 55.394531 C 72.699219 54.230469 78.621094 47.511719 81.464844 45.449219 C 81.820312 45.195312 82.230469 44.878906 82.378906 44.746094 C 82.53125 44.613281 83.140625 44.183594 83.734375 43.785156 C 84.328125 43.390625 84.867188 43 84.933594 42.917969 C 85 42.835938 85.296875 42.695312 85.59375 42.601562 C 85.890625 42.511719 86.132812 42.332031 86.132812 42.210938 C 86.132812 42.085938 86.269531 41.984375 86.433594 41.984375 C 86.597656 41.984375 87.273438 41.71875 87.933594 41.394531 C 88.59375 41.066406 89.265625 40.796875 89.433594 40.792969 C 89.597656 40.789062 89.730469 40.691406 89.730469 40.574219 C 89.730469 40.457031 90.082031 40.292969 90.511719 40.214844 C 90.941406 40.132812 91.578125 39.914062 91.929688 39.730469 C 92.285156 39.546875 93.011719 39.320312 93.550781 39.230469 C 94.089844 39.140625 94.53125 38.976562 94.53125 38.871094 C 94.53125 38.761719 95.207031 38.597656 96.03125 38.503906 C 96.855469 38.40625 97.597656 38.226562 97.675781 38.097656 C 98.03125 37.539062 150.769531 37.285156 156.613281 37.816406 M 106.960938 44.324219 C 108.320312 44.367188 110.476562 44.367188 111.757812 44.324219 C 113.039062 44.28125 111.925781 44.246094 109.285156 44.246094 C 106.644531 44.246094 105.601562 44.28125 106.960938 44.324219 M 141.125 44.324219 C 142.011719 44.371094 143.523438 44.371094 144.484375 44.324219 C 145.445312 44.277344 144.722656 44.242188 142.875 44.242188 C 141.027344 44.242188 140.242188 44.277344 141.125 44.324219 M 105.667969 60.699219 C 105.667969 63.539062 105.703125 64.699219 105.746094 63.28125 C 105.789062 61.863281 105.789062 59.539062 105.746094 58.121094 C 105.703125 56.703125 105.667969 57.863281 105.667969 60.699219 M 150.046875 60.222656 C 150.046875 62.003906 150.085938 62.730469 150.132812 61.839844 C 150.175781 60.949219 150.175781 59.492188 150.132812 58.601562 C 150.085938 57.710938 150.046875 58.441406 150.046875 60.222656 M 119.902344 57.523438 C 124.15625 57.558594 131.121094 57.558594 135.378906 57.523438 C 139.632812 57.484375 136.152344 57.457031 127.640625 57.457031 C 119.128906 57.457031 115.648438 57.484375 119.902344 57.523438 M 131.777344 70.957031 C 134.121094 70.996094 137.953125 70.996094 140.296875 70.957031 C 142.640625 70.917969 140.722656 70.886719 136.039062 70.886719 C 131.351562 70.886719 129.4375 70.917969 131.777344 70.957031 M 74.246094 86.375 C 74.246094 92.640625 74.277344 95.207031 74.316406 92.070312 C 74.355469 88.9375 74.355469 83.808594 74.316406 80.675781 C 74.277344 77.539062 74.246094 80.105469 74.246094 86.375 M 110.285156 76.714844 C 119.8125 76.75 135.464844 76.75 145.074219 76.714844 C 154.6875 76.679688 146.894531 76.652344 127.761719 76.652344 C 108.625 76.652344 100.761719 76.679688 110.285156 76.714844 M 170.347656 79.492188 C 170.347656 79.53125 170.699219 79.882812 171.125 80.269531 L 171.90625 80.976562 L 171.203125 80.195312 C 170.542969 79.46875 170.347656 79.304688 170.347656 79.492188 M 110.066406 83.433594 C 119.730469 83.46875 135.546875 83.46875 145.214844 83.433594 C 154.878906 83.398438 146.972656 83.371094 127.640625 83.371094 C 108.308594 83.371094 100.398438 83.398438 110.066406 83.433594 M 88.113281 87.691406 C 88.117188 88.21875 88.164062 88.410156 88.222656 88.109375 C 88.28125 87.8125 88.277344 87.378906 88.21875 87.148438 C 88.15625 86.921875 88.109375 87.164062 88.113281 87.691406 M 167.820312 101.007812 C 167.820312 108.464844 167.851562 111.515625 167.886719 107.785156 C 167.925781 104.058594 167.925781 97.957031 167.886719 94.230469 C 167.851562 90.503906 167.820312 93.550781 167.820312 101.007812 M 81.441406 100.289062 C 81.441406 104.3125 81.472656 105.960938 81.515625 103.949219 C 81.554688 101.933594 81.554688 98.640625 81.515625 96.628906 C 81.472656 94.617188 81.441406 96.265625 81.441406 100.289062 M 98.957031 103.46875 L 98.007812 104.488281 L 99.027344 103.539062 C 99.976562 102.65625 100.160156 102.449219 99.976562 102.449219 C 99.9375 102.449219 99.480469 102.90625 98.957031 103.46875 M 171.171875 121.460938 L 170.464844 122.242188 L 171.246094 121.539062 C 171.675781 121.148438 172.027344 120.796875 172.027344 120.757812 C 172.027344 120.570312 171.828125 120.734375 171.171875 121.460938 M 84.695312 121.761719 C 85.140625 122.222656 85.5625 122.601562 85.628906 122.601562 C 85.695312 122.601562 85.382812 122.222656 84.933594 121.761719 C 84.484375 121.300781 84.066406 120.921875 84 120.921875 C 83.933594 120.921875 84.246094 121.300781 84.695312 121.761719 M 164.167969 124.925781 C 164.398438 124.988281 164.777344 124.988281 165.007812 124.925781 C 165.238281 124.867188 165.050781 124.816406 164.589844 124.816406 C 164.125 124.816406 163.9375 124.867188 164.167969 124.925781 M 110.066406 125.179688 C 119.730469 125.214844 135.546875 125.214844 145.214844 125.179688 C 154.878906 125.144531 146.972656 125.117188 127.640625 125.117188 C 108.308594 125.117188 100.398438 125.144531 110.066406 125.179688 M 74.246094 141.074219 C 74.246094 145.628906 74.277344 147.492188 74.316406 145.214844 C 74.355469 142.9375 74.355469 139.214844 74.316406 136.9375 C 74.277344 134.660156 74.246094 136.523438 74.246094 141.074219 M 80.136719 165.382812 C 80.136719 165.425781 80.484375 165.773438 80.914062 166.164062 L 81.695312 166.867188 L 80.988281 166.089844 C 80.332031 165.359375 80.136719 165.199219 80.136719 165.382812 M 102.386719 172.207031 C 103.871094 172.246094 106.300781 172.246094 107.785156 172.207031 C 109.269531 172.164062 108.054688 172.128906 105.085938 172.128906 C 102.117188 172.128906 100.902344 172.164062 102.386719 172.207031 M 141.71875 172.207031 C 145.4375 172.242188 151.589844 172.242188 155.394531 172.207031 C 159.199219 172.167969 156.15625 172.136719 148.632812 172.136719 C 141.113281 172.136719 138 172.167969 141.71875 172.207031 M 146.414062 179.164062 C 147.304688 179.207031 148.761719 179.207031 149.652344 179.164062 C 150.542969 179.117188 149.816406 179.078125 148.035156 179.078125 C 146.253906 179.078125 145.523438 179.117188 146.414062 179.164062 M 108.523438 194.039062 C 119.191406 194.074219 136.574219 194.074219 147.152344 194.039062 C 157.734375 194.003906 149.003906 193.976562 127.761719 193.976562 C 106.515625 193.976562 97.859375 194.003906 108.523438 194.039062 "/>
<path style=" stroke:none;fill-rule:evenodd;fill:rgb(98.431373%,98.431373%,98.431373%);fill-opacity:1;" d="M 107.367188 44.371094 C 98.269531 44.597656 96.234375 45 90.839844 47.65625 C 87.675781 49.214844 87.746094 49.167969 85.421875 51.035156 C 80.3125 55.136719 76.867188 60.695312 75.050781 67.777344 L 74.496094 69.9375 L 74.378906 110.003906 C 74.3125 132.042969 74.339844 151.136719 74.4375 152.4375 C 75.136719 161.625 82.414062 169.882812 91.410156 171.699219 C 94.058594 172.230469 162.367188 172.183594 164.949219 171.644531 C 173.609375 169.835938 180.4375 162.199219 181.378906 153.265625 C 181.699219 150.246094 181.695312 73.589844 181.378906 70.574219 C 179.984375 57.34375 169.988281 47.296875 155.8125 44.882812 C 152.59375 44.335938 121.980469 44.011719 107.367188 44.371094 M 146.046875 51.011719 C 149.074219 52.039062 149.914062 53.554688 150.101562 58.339844 C 150.347656 64.59375 149.886719 67.707031 148.503906 69.101562 C 146.554688 71.074219 145.9375 71.125 126.441406 70.871094 L 109.765625 70.65625 L 108.589844 70.058594 C 106.148438 68.8125 105.574219 67.023438 105.570312 60.699219 C 105.566406 54.148438 106.351562 52.300781 109.644531 51.117188 C 111.503906 50.449219 144.105469 50.355469 146.046875 51.011719 M 127.699219 57.523438 L 112.285156 57.585938 L 112.285156 60.796875 C 112.285156 63.503906 112.34375 64.03125 112.664062 64.152344 C 113.160156 64.34375 142.839844 64.34375 143.335938 64.152344 C 143.835938 63.960938 143.910156 57.691406 143.414062 57.546875 C 143.25 57.5 136.179688 57.488281 127.699219 57.523438 M 166.148438 77.207031 C 169.761719 78.386719 172.390625 80.902344 173.722656 84.453125 L 174.304688 86.011719 L 174.304688 101.007812 C 174.304688 115.886719 174.300781 116.015625 173.777344 117.359375 C 172.304688 121.148438 170.085938 123.214844 165.90625 124.695312 C 164.039062 125.359375 91.703125 125.355469 89.851562 124.691406 C 85.898438 123.277344 84.113281 121.742188 82.515625 118.402344 L 81.710938 116.722656 L 81.488281 108.238281 C 81.347656 102.910156 81.347656 97.015625 81.488281 92.402344 L 81.71875 85.054688 L 82.585938 83.246094 C 84.328125 79.613281 87.636719 77.28125 91.773438 76.777344 C 92.5625 76.679688 109.246094 76.613281 128.839844 76.628906 L 164.46875 76.65625 L 166.148438 77.207031 M 90.460938 84.03125 C 88.078125 85.25 88.003906 85.832031 88.097656 102.328125 C 88.1875 117.316406 88.117188 116.929688 90.914062 117.917969 C 92.695312 118.546875 163.648438 118.464844 165.125 117.832031 C 167.804688 116.679688 167.757812 117.023438 167.664062 99.910156 L 167.585938 86.457031 L 166.988281 85.570312 C 166.65625 85.082031 166.011719 84.441406 165.546875 84.148438 L 164.707031 83.613281 L 128.117188 83.550781 L 91.523438 83.488281 L 90.460938 84.03125 M 116.796875 89.890625 C 118.050781 90.847656 118.640625 92.445312 118.175781 93.609375 C 117.714844 94.757812 102.390625 110.140625 100.996094 110.851562 C 98.0625 112.347656 94.953125 108.335938 96.972656 105.660156 C 97.511719 104.941406 102.832031 99.507812 108.992188 93.378906 C 113.734375 88.660156 114.644531 88.25 116.796875 89.890625 M 97.585938 133.867188 C 100.375 134.394531 104.011719 137.0625 105.128906 139.394531 C 106.414062 142.074219 106.40625 142.050781 106.40625 145.296875 C 106.40625 147.191406 106.296875 148.671875 106.128906 149.015625 C 105.976562 149.332031 105.625 150.078125 105.355469 150.671875 C 101.640625 158.769531 88.605469 158.917969 84.867188 150.90625 C 80.492188 141.53125 87.621094 131.976562 97.585938 133.867188 M 165.066406 134.367188 C 175.214844 138.722656 174.316406 153.335938 163.703125 156.535156 C 160.980469 157.355469 156.3125 156.582031 154.152344 154.957031 C 146.144531 148.925781 148.164062 136.734375 157.628906 133.957031 C 159.375 133.445312 163.445312 133.667969 165.066406 134.367188 M 93.628906 140.628906 C 93.070312 140.757812 92.609375 140.957031 92.609375 141.074219 C 92.609375 141.1875 92.421875 141.34375 92.1875 141.417969 C 90.546875 141.9375 89.644531 145.738281 90.742188 147.515625 C 93.535156 152.035156 99.6875 150.480469 99.6875 145.253906 C 99.6875 141.765625 97.132812 139.8125 93.628906 140.628906 M 159.242188 140.617188 C 154.738281 141.679688 154.578125 148.082031 159.015625 149.796875 C 163.878906 151.675781 168.261719 144.382812 163.925781 141.625 C 163.566406 141.394531 163.210938 141.128906 163.144531 141.035156 C 162.773438 140.527344 160.605469 140.296875 159.242188 140.617188 M 103.40625 179.144531 C 103.050781 179.273438 97.601562 185.070312 97.449219 185.484375 C 97.402344 185.613281 109.988281 185.699219 128.398438 185.695312 L 159.429688 185.691406 L 156.667969 182.972656 C 155.148438 181.472656 153.417969 180 152.828125 179.691406 L 151.753906 179.128906 L 127.761719 179.070312 C 114.566406 179.039062 103.605469 179.070312 103.40625 179.144531 M 88.371094 194.40625 C 87.414062 194.941406 80.832031 201.109375 80.925781 201.386719 C 80.992188 201.585938 93.234375 201.671875 128.015625 201.71875 L 175.019531 201.777344 L 171.542969 198.273438 C 169.632812 196.347656 167.71875 194.617188 167.296875 194.433594 C 166.226562 193.972656 89.199219 193.945312 88.371094 194.40625 "/>
<path style=" stroke:none;fill-rule:evenodd;fill:rgb(36.078432%,35.294119%,35.686275%);fill-opacity:1;" d="M 121.703125 9.28125 C 121.933594 9.34375 122.3125 9.34375 122.542969 9.28125 C 122.773438 9.222656 122.582031 9.171875 122.121094 9.171875 C 121.660156 9.171875 121.472656 9.222656 121.703125 9.28125 M 133.457031 9.28125 C 133.6875 9.34375 134.066406 9.34375 134.296875 9.28125 C 134.527344 9.222656 134.339844 9.171875 133.878906 9.171875 C 133.417969 9.171875 133.226562 9.222656 133.457031 9.28125 M 211.972656 43.90625 C 212.757812 44.699219 213.453125 45.347656 213.519531 45.347656 C 213.585938 45.347656 212.996094 44.699219 212.214844 43.90625 C 211.429688 43.113281 210.734375 42.464844 210.667969 42.464844 C 210.605469 42.464844 211.191406 43.113281 211.972656 43.90625 M 43.660156 44.085938 L 42.347656 45.464844 L 43.726562 44.152344 C 44.484375 43.433594 45.105469 42.8125 45.105469 42.773438 C 45.105469 42.597656 44.875 42.804688 43.660156 44.085938 M 121.359375 44.085938 C 123.90625 44.125 128.007812 44.125 130.476562 44.085938 C 132.941406 44.046875 130.855469 44.015625 125.839844 44.015625 C 120.828125 44.015625 118.808594 44.046875 121.359375 44.085938 M 103.46875 44.3125 C 103.699219 44.371094 104.074219 44.371094 104.308594 44.3125 C 104.539062 44.25 104.347656 44.203125 103.886719 44.203125 C 103.425781 44.203125 103.238281 44.25 103.46875 44.3125 M 146.769531 44.320312 C 147.195312 44.371094 147.949219 44.375 148.449219 44.320312 C 148.945312 44.269531 148.597656 44.226562 147.671875 44.226562 C 146.75 44.222656 146.34375 44.265625 146.769531 44.320312 M 172.984375 53.144531 C 173.703125 53.871094 174.34375 54.460938 174.410156 54.460938 C 174.476562 54.460938 173.941406 53.871094 173.226562 53.144531 C 172.507812 52.417969 171.867188 51.824219 171.804688 51.824219 C 171.738281 51.824219 172.269531 52.417969 172.984375 53.144531 M 120.398438 57.28125 C 124.664062 57.320312 131.574219 57.320312 135.753906 57.28125 C 139.933594 57.246094 136.445312 57.214844 128 57.214844 C 119.554688 57.214844 116.132812 57.246094 120.398438 57.28125 M 181.738281 112.042969 C 181.738281 134.015625 181.769531 143.003906 181.804688 132.019531 C 181.835938 121.03125 181.835938 103.054688 181.804688 92.070312 C 181.769531 81.085938 181.738281 90.074219 181.738281 112.042969 M 91.953125 76.941406 C 92.183594 77 92.558594 77 92.792969 76.941406 C 93.023438 76.882812 92.832031 76.832031 92.371094 76.832031 C 91.910156 76.832031 91.71875 76.882812 91.953125 76.941406 M 162.730469 76.941406 C 162.960938 77 163.339844 77 163.570312 76.941406 C 163.800781 76.882812 163.609375 76.832031 163.148438 76.832031 C 162.6875 76.832031 162.496094 76.882812 162.730469 76.941406 M 174.273438 90.453125 C 174.273438 91.835938 174.3125 92.402344 174.363281 91.710938 C 174.410156 91.019531 174.410156 89.886719 174.363281 89.191406 C 174.3125 88.5 174.273438 89.066406 174.273438 90.453125 M 87.921875 98.847656 C 87.921875 104.722656 87.953125 107.125 87.992188 104.1875 C 88.03125 101.25 88.03125 96.445312 87.992188 93.511719 C 87.953125 90.574219 87.921875 92.976562 87.921875 98.847656 M 110.84375 101.1875 L 104.488281 107.605469 L 110.90625 101.25 C 116.871094 95.34375 117.433594 94.769531 117.261719 94.769531 C 117.226562 94.769531 114.339844 97.660156 110.84375 101.1875 M 98.71875 103.949219 L 97.769531 104.96875 L 98.789062 104.019531 C 99.738281 103.136719 99.917969 102.929688 99.738281 102.929688 C 99.699219 102.929688 99.238281 103.386719 98.71875 103.949219 M 96.515625 107.726562 C 96.515625 108.320312 96.5625 108.5625 96.617188 108.265625 C 96.675781 107.96875 96.675781 107.484375 96.617188 107.1875 C 96.5625 106.890625 96.515625 107.132812 96.515625 107.726562 M 103.511719 108.507812 L 102.808594 109.285156 L 103.585938 108.582031 C 104.015625 108.191406 104.367188 107.84375 104.367188 107.800781 C 104.367188 107.617188 104.167969 107.777344 103.511719 108.507812 M 174.273438 111.804688 C 174.273438 113.191406 174.3125 113.757812 174.363281 113.066406 C 174.410156 112.371094 174.410156 111.238281 174.363281 110.546875 C 174.3125 109.851562 174.273438 110.417969 174.273438 111.804688 M 108.007812 118.460938 C 116.542969 118.496094 130.578125 118.496094 139.199219 118.460938 C 147.816406 118.429688 140.835938 118.398438 123.679688 118.398438 C 106.527344 118.398438 99.472656 118.429688 108.007812 118.460938 M 9.175781 122.242188 C 9.179688 122.769531 9.230469 122.957031 9.285156 122.660156 C 9.34375 122.359375 9.34375 121.929688 9.28125 121.699219 C 9.222656 121.46875 9.175781 121.714844 9.175781 122.242188 M 246.703125 122.242188 C 246.707031 122.769531 246.753906 122.957031 246.8125 122.660156 C 246.871094 122.359375 246.867188 121.929688 246.808594 121.699219 C 246.746094 121.46875 246.699219 121.714844 246.703125 122.242188 M 149.15625 124.941406 C 151.6875 124.980469 155.898438 124.980469 158.515625 124.941406 C 161.128906 124.902344 159.058594 124.871094 153.910156 124.871094 C 148.765625 124.871094 146.625 124.902344 149.15625 124.941406 M 9.175781 133.757812 C 9.179688 134.285156 9.230469 134.472656 9.285156 134.175781 C 9.34375 133.878906 9.34375 133.445312 9.28125 133.214844 C 9.222656 132.984375 9.175781 133.230469 9.175781 133.757812 M 246.703125 133.757812 C 246.707031 134.285156 246.753906 134.472656 246.8125 134.175781 C 246.871094 133.878906 246.867188 133.445312 246.808594 133.214844 C 246.746094 132.984375 246.699219 133.230469 246.703125 133.757812 M 94.714844 156.839844 C 95.011719 156.898438 95.441406 156.894531 95.671875 156.835938 C 95.902344 156.777344 95.660156 156.730469 95.128906 156.730469 C 94.601562 156.734375 94.414062 156.785156 94.714844 156.839844 M 175.96875 165.367188 L 175.265625 166.148438 L 176.042969 165.441406 C 176.472656 165.054688 176.824219 164.703125 176.824219 164.664062 C 176.824219 164.476562 176.625 164.640625 175.96875 165.367188 M 80.613281 166.148438 C 81.0625 166.609375 81.484375 166.988281 81.546875 166.988281 C 81.613281 166.988281 81.300781 166.609375 80.855469 166.148438 C 80.40625 165.6875 79.988281 165.308594 79.921875 165.308594 C 79.855469 165.308594 80.167969 165.6875 80.613281 166.148438 M 174.289062 167.046875 L 173.585938 167.828125 L 174.367188 167.121094 C 174.792969 166.734375 175.144531 166.382812 175.144531 166.34375 C 175.144531 166.15625 174.945312 166.320312 174.289062 167.046875 M 112.808594 178.925781 C 117.777344 178.960938 125.984375 178.960938 131.042969 178.925781 C 136.097656 178.886719 132.03125 178.859375 122 178.859375 C 111.972656 178.859375 107.835938 178.886719 112.808594 178.925781 M 102.074219 180.003906 L 101.367188 180.785156 L 102.148438 180.078125 C 102.875 179.421875 103.039062 179.222656 102.851562 179.222656 C 102.8125 179.222656 102.460938 179.574219 102.074219 180.003906 M 99.570312 182.703125 C 98.984375 183.296875 98.5625 183.78125 98.628906 183.78125 C 98.695312 183.78125 99.226562 183.296875 99.808594 182.703125 C 100.390625 182.109375 100.816406 181.621094 100.75 181.621094 C 100.683594 181.621094 100.152344 182.109375 99.570312 182.703125 M 174.054688 200.757812 L 175.003906 201.777344 L 127.953125 201.71875 C 102.074219 201.683594 80.949219 201.738281 81.011719 201.835938 C 81.164062 202.085938 174.847656 202.066406 175 201.816406 C 175.070312 201.707031 174.671875 201.191406 174.117188 200.675781 L 173.105469 199.738281 L 174.054688 200.757812 M 43.785156 212.09375 C 44.570312 212.886719 45.265625 213.535156 45.332031 213.535156 C 45.394531 213.535156 44.808594 212.886719 44.027344 212.09375 C 43.242188 211.300781 42.546875 210.652344 42.480469 210.652344 C 42.414062 210.652344 43.003906 211.300781 43.785156 212.09375 M 211.964844 212.152344 L 210.535156 213.652344 L 212.035156 212.222656 C 212.859375 211.433594 213.535156 210.757812 213.535156 210.722656 C 213.535156 210.542969 213.296875 210.761719 211.964844 212.152344 M 121.585938 246.8125 C 121.882812 246.871094 122.316406 246.867188 122.542969 246.808594 C 122.773438 246.746094 122.53125 246.699219 122 246.703125 C 121.472656 246.707031 121.285156 246.753906 121.585938 246.8125 M 133.582031 246.8125 C 133.878906 246.871094 134.3125 246.867188 134.539062 246.808594 C 134.769531 246.746094 134.527344 246.699219 134 246.703125 C 133.46875 246.707031 133.28125 246.753906 133.582031 246.8125 "/>
<path style=" stroke:none;fill-rule:evenodd;fill:rgb(46.27451%,45.882353%,46.666667%);fill-opacity:1;" d="M 123.386719 9.289062 C 123.75 9.34375 124.289062 9.34375 124.585938 9.285156 C 124.878906 9.230469 124.582031 9.183594 123.921875 9.1875 C 123.261719 9.1875 123.019531 9.234375 123.386719 9.289062 M 131.542969 9.289062 C 131.90625 9.34375 132.445312 9.34375 132.742188 9.285156 C 133.035156 9.230469 132.738281 9.183594 132.078125 9.1875 C 131.417969 9.1875 131.175781 9.234375 131.542969 9.289062 M 119.800781 50.804688 C 124.394531 50.839844 131.84375 50.839844 136.355469 50.804688 C 140.863281 50.765625 137.105469 50.738281 128 50.738281 C 118.894531 50.738281 115.207031 50.765625 119.800781 50.804688 M 82.640625 53.324219 L 81.933594 54.101562 L 82.714844 53.398438 C 83.144531 53.011719 83.492188 52.660156 83.492188 52.617188 C 83.492188 52.433594 83.296875 52.597656 82.640625 53.324219 M 74.207031 73.898438 C 74.207031 74.621094 74.253906 74.917969 74.308594 74.558594 C 74.363281 74.195312 74.363281 73.601562 74.308594 73.238281 C 74.253906 72.875 74.207031 73.171875 74.207031 73.898438 M 110.480469 91.953125 L 108.566406 93.929688 L 110.546875 92.015625 C 111.632812 90.964844 112.523438 90.074219 112.523438 90.039062 C 112.523438 89.863281 112.257812 90.113281 110.480469 91.953125 M 74.25 115.285156 C 74.25 125.050781 74.28125 129.007812 74.316406 124.082031 C 74.351562 119.160156 74.351562 111.167969 74.316406 106.328125 C 74.28125 101.488281 74.25 105.519531 74.25 115.285156 M 101.726562 100.648438 C 100.746094 101.636719 99.996094 102.449219 100.0625 102.449219 C 100.125 102.449219 100.984375 101.636719 101.96875 100.648438 C 102.949219 99.660156 103.703125 98.847656 103.636719 98.847656 C 103.570312 98.847656 102.710938 99.660156 101.726562 100.648438 M 87.894531 111.207031 C 87.894531 112.261719 87.9375 112.664062 87.988281 112.097656 C 88.039062 111.535156 88.039062 110.671875 87.988281 110.179688 C 87.933594 109.6875 87.894531 110.148438 87.894531 111.207031 M 156.621094 118.460938 C 157.71875 118.507812 159.445312 118.507812 160.460938 118.460938 C 161.476562 118.414062 160.582031 118.378906 158.46875 118.378906 C 156.359375 118.378906 155.527344 118.417969 156.621094 118.460938 M 9.1875 124.160156 C 9.1875 124.820312 9.234375 125.0625 9.289062 124.699219 C 9.34375 124.332031 9.34375 123.792969 9.285156 123.5 C 9.230469 123.203125 9.183594 123.5 9.1875 124.160156 M 246.710938 124.160156 C 246.714844 124.820312 246.757812 125.0625 246.816406 124.699219 C 246.871094 124.332031 246.867188 123.792969 246.8125 123.5 C 246.753906 123.203125 246.710938 123.5 246.710938 124.160156 M 9.1875 131.839844 C 9.1875 132.5 9.234375 132.738281 9.289062 132.375 C 9.34375 132.011719 9.34375 131.472656 9.285156 131.175781 C 9.230469 130.878906 9.183594 131.179688 9.1875 131.839844 M 246.710938 131.839844 C 246.714844 132.5 246.757812 132.738281 246.816406 132.375 C 246.871094 132.011719 246.867188 131.472656 246.8125 131.175781 C 246.753906 130.878906 246.710938 131.179688 246.710938 131.839844 M 83.574219 145.273438 C 83.574219 146.199219 83.617188 146.546875 83.667969 146.050781 C 83.722656 145.550781 83.71875 144.796875 83.667969 144.371094 C 83.613281 143.945312 83.570312 144.351562 83.574219 145.273438 M 74.191406 152.113281 C 74.191406 152.574219 74.242188 152.761719 74.300781 152.53125 C 74.363281 152.300781 74.363281 151.925781 74.300781 151.691406 C 74.242188 151.460938 74.191406 151.652344 74.191406 152.113281 M 93.152344 156.835938 C 93.382812 156.898438 93.761719 156.898438 93.992188 156.835938 C 94.222656 156.777344 94.03125 156.726562 93.570312 156.726562 C 93.109375 156.726562 92.917969 156.777344 93.152344 156.835938 M 159.964844 156.84375 C 160.390625 156.898438 161.144531 156.898438 161.644531 156.847656 C 162.140625 156.792969 161.792969 156.75 160.871094 156.75 C 159.945312 156.75 159.539062 156.792969 159.964844 156.84375 M 101.351562 180.964844 L 100.648438 181.742188 L 101.429688 181.039062 C 102.15625 180.382812 102.316406 180.183594 102.132812 180.183594 C 102.089844 180.183594 101.742188 180.535156 101.351562 180.964844 M 155.472656 181.742188 C 155.917969 182.203125 156.339844 182.582031 156.40625 182.582031 C 156.472656 182.582031 156.160156 182.203125 155.710938 181.742188 C 155.265625 181.28125 154.84375 180.902344 154.777344 180.902344 C 154.710938 180.902344 155.023438 181.28125 155.472656 181.742188 M 112.824219 185.882812 C 121.367188 185.917969 135.351562 185.917969 143.894531 185.882812 C 152.441406 185.847656 145.449219 185.816406 128.359375 185.816406 C 111.269531 185.816406 104.28125 185.847656 112.824219 185.882812 M 168.90625 195.605469 C 168.90625 195.640625 169.742188 196.476562 170.765625 197.464844 L 172.625 199.257812 L 170.832031 197.398438 C 169.167969 195.671875 168.90625 195.429688 168.90625 195.605469 M 123.261719 246.8125 C 123.558594 246.867188 124.042969 246.867188 124.339844 246.8125 C 124.636719 246.753906 124.394531 246.707031 123.800781 246.707031 C 123.207031 246.707031 122.964844 246.753906 123.261719 246.8125 M 131.660156 246.8125 C 131.957031 246.867188 132.441406 246.867188 132.738281 246.8125 C 133.035156 246.753906 132.792969 246.707031 132.199219 246.707031 C 131.605469 246.707031 131.363281 246.753906 131.660156 246.8125 "/>
</g>
</svg>
