<?xml version="1.0" encoding="UTF-8"?>
<svg xmlns="http://www.w3.org/2000/svg" xmlns:xlink="http://www.w3.org/1999/xlink" width="256px" height="256px" viewBox="0 0 256 256" version="1.1">
<g id="surface1">
<path style=" stroke:none;fill-rule:evenodd;fill:rgb(1.568628%,1.568628%,1.568628%);fill-opacity:1;" d="M 119.242188 0.148438 C 106.527344 1.242188 95.695312 3.460938 85.652344 7.03125 C 26.769531 27.957031 -8.371094 87.183594 1.574219 148.738281 C 13.386719 221.878906 85.570312 269.886719 157.796875 252.640625 C 223.054688 237.054688 265.132812 173.746094 254.425781 107.246094 C 245.769531 53.492188 203.347656 10.808594 149.507812 1.683594 C 141.765625 0.371094 125.976562 -0.429688 119.242188 0.148438 M 141.074219 9.703125 C 165.386719 12.40625 187.964844 22.367188 206.335938 38.488281 C 247.179688 74.328125 258.675781 132.703125 234.417969 181.117188 C 217.074219 215.742188 183.4375 240.292969 145.996094 245.660156 C 132.535156 247.585938 117.121094 247.195312 103.527344 244.578125 C 88.703125 241.722656 69.859375 233.183594 56.980469 223.484375 C 10.542969 188.511719 -4.246094 126.433594 21.582031 74.882812 C 39.964844 38.183594 76.578125 12.96875 116.363281 9.605469 C 118.011719 9.464844 119.792969 9.308594 120.324219 9.257812 C 122.84375 9.019531 137.808594 9.339844 141.074219 9.703125 M 100.410156 37.792969 C 97.882812 38.265625 96.371094 38.625 95.960938 38.847656 C 95.761719 38.957031 95.234375 39.125 94.796875 39.222656 C 94.359375 39.316406 93.5 39.609375 92.886719 39.871094 C 92.273438 40.132812 91.394531 40.503906 90.933594 40.699219 C 90.46875 40.890625 89.878906 41.167969 89.621094 41.3125 C 89.363281 41.457031 88.675781 41.828125 88.09375 42.136719 C 78.054688 47.472656 70.925781 57.554688 68.683594 69.578125 C 68.019531 73.140625 68.03125 146.960938 68.695312 150.433594 C 69.15625 152.839844 69.710938 155.03125 70.054688 155.832031 C 70.171875 156.09375 70.726562 157.390625 71.292969 158.710938 C 75.0625 167.511719 82.878906 173.8125 92.417969 175.734375 L 95.042969 176.261719 L 77.246094 193.941406 C 57.316406 213.734375 57.515625 213.492188 58.886719 216.144531 C 61 220.230469 64.007812 219.59375 69.542969 213.890625 C 71.269531 212.109375 72.851562 210.699219 73.371094 210.472656 C 74.40625 210.023438 178.226562 209.800781 181.503906 210.242188 C 183.925781 210.566406 184.792969 211.117188 187.710938 214.167969 C 191.996094 218.648438 193.839844 219.511719 196.113281 218.105469 C 197.960938 216.964844 198.664062 213.671875 197.46875 211.761719 C 197.078125 211.132812 179.410156 193.5625 165.476562 179.941406 L 161.6875 176.234375 L 164.039062 175.820312 C 176.324219 173.660156 186.03125 163.445312 188.519531 150.074219 C 189.492188 144.839844 189.132812 72.367188 188.109375 67.667969 C 187.328125 64.082031 185.113281 58.160156 184.441406 57.863281 C 184.34375 57.816406 184.261719 57.648438 184.261719 57.488281 C 184.261719 56.988281 181.5 53.109375 179.441406 50.71875 C 175.433594 46.0625 170.964844 42.851562 164.226562 39.804688 C 163.371094 39.414062 159.71875 38.386719 159.195312 38.386719 C 158.914062 38.386719 158.582031 38.292969 158.457031 38.175781 C 157.605469 37.375 104.5 37.027344 100.410156 37.792969 M 145.109375 53.777344 C 148.09375 54.5 148.648438 55.667969 148.59375 61.121094 C 148.507812 69.367188 149.765625 68.898438 127.941406 68.808594 L 111.445312 68.738281 L 110.492188 68.175781 C 108.542969 67.023438 108.214844 65.996094 108.214844 61.0625 C 108.21875 56.054688 108.746094 54.789062 111.214844 53.886719 C 112.457031 53.429688 143.273438 53.332031 145.109375 53.777344 M 166.789062 81.257812 C 171.246094 83.335938 171.542969 84.578125 171.542969 101.007812 C 171.542969 118.210938 171.164062 119.488281 165.429688 121.566406 C 163.605469 122.226562 93.152344 122.246094 91.351562 121.585938 C 89.703125 120.980469 88.527344 120.179688 87.316406 118.824219 C 85.363281 116.636719 85.414062 117.097656 85.414062 101.128906 C 85.414062 85.03125 85.347656 85.609375 87.429688 83.320312 C 88.539062 82.101562 89.808594 81.257812 91.171875 80.835938 C 91.5 80.734375 108.398438 80.671875 128.71875 80.695312 L 165.667969 80.734375 L 166.789062 81.257812 M 113.101562 89.457031 C 111.652344 90.515625 97.179688 105.273438 96.917969 105.953125 C 95.585938 109.46875 99.390625 112.066406 102.367188 109.671875 C 104.800781 107.71875 117.910156 94.195312 118.492188 93.039062 L 119.0625 91.90625 L 118.042969 90.691406 C 116.300781 88.609375 114.78125 88.226562 113.101562 89.457031 M 100.324219 138.488281 C 106.902344 141.5 105.988281 150.429688 98.910156 152.277344 C 93.792969 153.613281 88.636719 147.535156 90.777344 142.6875 C 92.597656 138.570312 96.632812 136.796875 100.324219 138.488281 M 161.21875 138.097656 C 166.207031 139.832031 168.144531 145.550781 165.066406 149.445312 C 161.285156 154.226562 154.449219 152.957031 152.273438 147.066406 C 150.453125 142.136719 156.21875 136.355469 161.21875 138.097656 M 154.5 180.78125 L 159.191406 185.457031 L 128.238281 185.449219 L 97.289062 185.4375 L 101.609375 181.226562 C 103.984375 178.914062 106.25 176.8125 106.644531 176.5625 C 107.339844 176.125 108.15625 176.105469 128.585938 176.105469 L 149.808594 176.105469 L 154.5 180.78125 M 167.707031 194.640625 C 168.039062 194.875 169.742188 196.492188 171.496094 198.242188 L 174.683594 201.417969 L 128.320312 201.476562 C 102.683594 201.511719 81.867188 201.445312 81.753906 201.332031 C 81.496094 201.074219 88.882812 194.402344 89.582031 194.261719 C 91.511719 193.875 167.140625 194.242188 167.707031 194.640625 "/>
<path style=" stroke:none;fill-rule:evenodd;fill:rgb(74.901962%,74.509805%,75.686276%);fill-opacity:1;" d="M 121.042969 9.371094 C 72.082031 12.054688 29.921875 44.867188 14.554688 92.25 C 7.351562 114.464844 7.351562 141.507812 14.554688 163.75 C 35.847656 229.472656 107.464844 263.816406 171.066406 238.800781 C 232.34375 214.703125 262.6875 145.773438 238.800781 84.933594 C 219.84375 36.644531 172.910156 6.53125 121.042969 9.371094 M 155.910156 37.695312 C 157.1875 37.839844 158.332031 38.058594 158.457031 38.175781 C 158.582031 38.292969 158.914062 38.386719 159.195312 38.386719 C 159.71875 38.386719 163.371094 39.414062 164.226562 39.804688 C 170.964844 42.851562 175.433594 46.0625 179.441406 50.71875 C 181.5 53.109375 184.261719 56.988281 184.261719 57.488281 C 184.261719 57.648438 184.34375 57.816406 184.441406 57.863281 C 185.113281 58.160156 187.328125 64.082031 188.109375 67.667969 C 189.132812 72.367188 189.492188 144.839844 188.519531 150.074219 C 186.03125 163.445312 176.324219 173.660156 164.039062 175.820312 L 161.6875 176.234375 L 165.476562 179.941406 C 179.410156 193.5625 197.078125 211.132812 197.46875 211.761719 C 198.664062 213.671875 197.960938 216.964844 196.113281 218.105469 C 193.839844 219.511719 191.996094 218.648438 187.710938 214.167969 C 184.792969 211.117188 183.925781 210.566406 181.503906 210.242188 C 178.226562 209.800781 74.40625 210.023438 73.371094 210.472656 C 72.851562 210.699219 71.269531 212.109375 69.542969 213.890625 C 64.007812 219.59375 61 220.230469 58.886719 216.144531 C 57.515625 213.492188 57.316406 213.734375 77.246094 193.941406 L 95.042969 176.261719 L 92.417969 175.734375 C 82.878906 173.8125 75.0625 167.511719 71.292969 158.710938 C 70.726562 157.390625 70.171875 156.09375 70.054688 155.832031 C 69.710938 155.03125 69.15625 152.839844 68.695312 150.433594 C 68.03125 146.960938 68.019531 73.140625 68.683594 69.578125 C 70.925781 57.554688 78.054688 47.472656 88.09375 42.136719 C 88.675781 41.828125 89.363281 41.457031 89.621094 41.3125 C 89.878906 41.167969 90.46875 40.890625 90.933594 40.699219 C 91.394531 40.503906 92.273438 40.132812 92.886719 39.871094 C 93.5 39.609375 94.359375 39.316406 94.796875 39.222656 C 95.234375 39.125 95.761719 38.957031 95.960938 38.847656 C 96.371094 38.625 97.882812 38.265625 100.410156 37.792969 C 102.644531 37.375 152.351562 37.285156 155.910156 37.695312 M 108.269531 59.742188 C 108.269531 60.335938 108.316406 60.578125 108.375 60.28125 C 108.433594 59.984375 108.433594 59.5 108.375 59.203125 C 108.316406 58.90625 108.269531 59.148438 108.269531 59.742188 M 147.179688 67.480469 L 146.472656 68.257812 L 147.253906 67.554688 C 147.683594 67.167969 148.035156 66.816406 148.035156 66.773438 C 148.035156 66.589844 147.835938 66.753906 147.179688 67.480469 M 127.460938 68.796875 C 130.460938 68.835938 135.375 68.835938 138.378906 68.796875 C 141.378906 68.761719 138.921875 68.730469 132.917969 68.730469 C 126.914062 68.730469 124.457031 68.761719 127.460938 68.796875 M 114.503906 88.699219 C 114.734375 88.757812 115.113281 88.757812 115.34375 88.699219 C 115.574219 88.636719 115.386719 88.589844 114.925781 88.589844 C 114.460938 88.589844 114.273438 88.636719 114.503906 88.699219 M 85.480469 89.851562 C 85.484375 90.511719 85.53125 90.753906 85.585938 90.386719 C 85.640625 90.023438 85.640625 89.484375 85.582031 89.1875 C 85.523438 88.894531 85.480469 89.191406 85.480469 89.851562 M 171.40625 94.171875 C 171.40625 96.679688 171.441406 97.671875 171.484375 96.378906 C 171.527344 95.085938 171.527344 93.03125 171.484375 91.820312 C 171.441406 90.605469 171.40625 91.664062 171.40625 94.171875 M 107.847656 94.289062 C 106.265625 95.875 105.027344 97.167969 105.09375 97.167969 C 105.160156 97.167969 106.507812 95.875 108.085938 94.289062 C 109.664062 92.707031 110.902344 91.410156 110.835938 91.410156 C 110.773438 91.410156 109.425781 92.707031 107.847656 94.289062 M 115.273438 96.988281 L 114.324219 98.007812 L 115.34375 97.0625 C 116.292969 96.179688 116.472656 95.96875 116.292969 95.96875 C 116.253906 95.96875 115.792969 96.429688 115.273438 96.988281 M 171.40625 107.246094 C 171.40625 109.953125 171.441406 111.058594 171.484375 109.707031 C 171.527344 108.351562 171.527344 106.140625 171.484375 104.789062 C 171.441406 103.433594 171.40625 104.542969 171.40625 107.246094 M 96.519531 107.367188 C 96.519531 108.027344 96.566406 108.265625 96.621094 107.902344 C 96.675781 107.539062 96.675781 107 96.617188 106.703125 C 96.5625 106.410156 96.515625 106.707031 96.519531 107.367188 M 99.390625 110.777344 C 99.757812 110.832031 100.296875 110.832031 100.59375 110.773438 C 100.886719 110.71875 100.589844 110.671875 99.929688 110.675781 C 99.269531 110.675781 99.027344 110.722656 99.390625 110.777344 M 85.484375 112.765625 C 85.484375 113.492188 85.53125 113.789062 85.585938 113.425781 C 85.640625 113.0625 85.640625 112.46875 85.585938 112.105469 C 85.53125 111.742188 85.484375 112.039062 85.484375 112.765625 M 168.773438 119.542969 L 168.066406 120.324219 L 168.847656 119.617188 C 169.277344 119.230469 169.625 118.878906 169.625 118.835938 C 169.625 118.652344 169.429688 118.816406 168.773438 119.542969 M 92.480469 140.175781 L 91.53125 141.195312 L 92.550781 140.246094 C 93.5 139.367188 93.679688 139.15625 93.5 139.15625 C 93.460938 139.15625 93 139.617188 92.480469 140.175781 M 102.558594 150.011719 L 101.609375 151.03125 L 102.628906 150.085938 C 103.578125 149.203125 103.757812 148.992188 103.578125 148.992188 C 103.539062 148.992188 103.078125 149.453125 102.558594 150.011719 M 164.214844 150.253906 L 163.507812 151.03125 L 164.289062 150.328125 C 165.015625 149.671875 165.179688 149.472656 164.992188 149.472656 C 164.953125 149.472656 164.601562 149.824219 164.214844 150.253906 M 109.226562 176.285156 C 110.25 176.328125 111.921875 176.328125 112.945312 176.285156 C 113.96875 176.238281 113.132812 176.203125 111.085938 176.203125 C 109.039062 176.203125 108.203125 176.238281 109.226562 176.285156 M 154.390625 180.902344 C 156.898438 183.410156 159 185.460938 159.066406 185.460938 C 159.132812 185.460938 157.136719 183.410156 154.632812 180.902344 C 152.128906 178.394531 150.023438 176.34375 149.957031 176.34375 C 149.890625 176.34375 151.886719 178.394531 154.390625 180.902344 M 100.042969 182.761719 L 97.289062 185.582031 L 100.109375 182.828125 C 101.660156 181.3125 102.929688 180.042969 102.929688 180.007812 C 102.929688 179.835938 102.605469 180.144531 100.042969 182.761719 M 87.4375 195.839844 L 86.734375 196.617188 L 87.511719 195.914062 C 88.238281 195.257812 88.402344 195.058594 88.21875 195.058594 C 88.175781 195.058594 87.824219 195.410156 87.4375 195.839844 M 82.421875 200.328125 C 81.742188 201.027344 81.585938 201.316406 81.832031 201.410156 C 82.019531 201.480469 103.011719 201.511719 128.480469 201.476562 L 174.785156 201.414062 L 128.25 201.355469 L 81.71875 201.296875 L 82.652344 200.335938 C 83.167969 199.808594 83.539062 199.378906 83.472656 199.378906 C 83.40625 199.378906 82.933594 199.804688 82.421875 200.328125 "/>
<path style=" stroke:none;fill-rule:evenodd;fill:rgb(98.431373%,98.431373%,98.431373%);fill-opacity:1;" d="M 111.304688 53.972656 C 108.90625 54.699219 108.445312 55.863281 108.445312 61.207031 C 108.445312 69.074219 106.902344 68.480469 127.640625 68.570312 C 145.886719 68.652344 145.777344 68.65625 146.976562 67.609375 C 148.347656 66.402344 148.515625 65.707031 148.507812 61.210938 C 148.5 56.050781 148.058594 54.929688 145.710938 54.089844 C 144.683594 53.722656 112.488281 53.613281 111.304688 53.972656 M 91.859375 80.839844 C 89.351562 81.328125 87.296875 82.972656 86.15625 85.402344 L 85.535156 86.734375 L 85.535156 100.886719 C 85.535156 111.367188 85.609375 115.292969 85.828125 116.007812 C 86.535156 118.324219 88.3125 120.175781 90.890625 121.28125 C 92.230469 121.855469 161.117188 122.1875 164.347656 121.632812 C 171.03125 120.488281 171.761719 117.542969 171.316406 93.449219 C 171.136719 83.835938 170.027344 81.722656 164.675781 80.847656 C 163.046875 80.582031 93.226562 80.574219 91.859375 80.839844 M 116.292969 88.933594 C 117.222656 89.371094 119.003906 91.457031 119.003906 92.105469 C 119.003906 93.332031 104.953125 108.226562 101.980469 110.152344 C 98.84375 112.1875 94.964844 108.769531 96.90625 105.6875 C 97.613281 104.554688 113.054688 89.046875 113.722656 88.792969 C 114.625 88.449219 115.359375 88.488281 116.292969 88.933594 M 95.265625 138.394531 C 89.320312 140.636719 88.882812 148.75 94.550781 151.644531 C 99.808594 154.324219 106.421875 148.425781 104.355469 142.898438 C 102.960938 139.171875 98.742188 137.082031 95.265625 138.394531 M 157.289062 138.207031 C 153.257812 139.414062 150.992188 144.425781 152.839844 148.046875 C 155.796875 153.847656 163.929688 153.460938 166.089844 147.414062 C 167.929688 142.253906 162.558594 136.632812 157.289062 138.207031 M 110.828125 176.332031 L 106.855469 176.464844 L 105.671875 177.46875 C 105.019531 178.019531 102.921875 180.042969 101.011719 181.964844 L 97.535156 185.460938 L 158.949219 185.460938 L 154.332031 180.84375 L 149.710938 176.226562 L 132.257812 176.210938 C 122.660156 176.203125 113.015625 176.257812 110.828125 176.332031 M 89.289062 194.597656 C 88.75 194.8125 83.539062 199.351562 82.3125 200.671875 L 81.730469 201.296875 L 128.136719 201.292969 L 174.546875 201.292969 L 171.304688 198.078125 C 168.769531 195.5625 167.859375 194.808594 167.109375 194.605469 C 165.871094 194.265625 90.132812 194.257812 89.289062 194.597656 "/>
<path style=" stroke:none;fill-rule:evenodd;fill:rgb(32.941177%,32.941177%,32.941177%);fill-opacity:1;" d="M 43.898438 43.847656 L 42.347656 45.464844 L 43.964844 43.914062 C 44.855469 43.058594 45.585938 42.332031 45.585938 42.292969 C 45.585938 42.117188 45.339844 42.339844 43.898438 43.847656 M 211.855469 43.785156 C 212.703125 44.644531 213.453125 45.347656 213.519531 45.347656 C 213.585938 45.347656 212.945312 44.644531 212.09375 43.785156 C 211.242188 42.929688 210.492188 42.226562 210.429688 42.226562 C 210.363281 42.226562 211.003906 42.929688 211.855469 43.785156 M 120.160156 53.683594 C 124.6875 53.71875 132.03125 53.71875 136.476562 53.683594 C 140.917969 53.648438 137.214844 53.617188 128.238281 53.617188 C 119.265625 53.617188 115.628906 53.648438 120.160156 53.683594 M 108.265625 57.941406 C 108.269531 58.46875 108.320312 58.65625 108.375 58.359375 C 108.433594 58.0625 108.429688 57.628906 108.371094 57.398438 C 108.3125 57.167969 108.265625 57.414062 108.265625 57.941406 M 148.597656 60.101562 C 148.597656 61.15625 148.640625 61.558594 148.6875 60.996094 C 148.742188 60.429688 148.738281 59.566406 148.6875 59.074219 C 148.636719 58.582031 148.59375 59.046875 148.597656 60.101562 M 108.292969 62.980469 C 108.292969 64.300781 108.335938 64.808594 108.382812 64.113281 C 108.433594 63.414062 108.429688 62.335938 108.382812 61.710938 C 108.332031 61.089844 108.292969 61.660156 108.292969 62.980469 M 114.863281 68.796875 C 116.21875 68.839844 118.429688 68.839844 119.78125 68.796875 C 121.136719 68.753906 120.027344 68.71875 117.324219 68.71875 C 114.617188 68.71875 113.511719 68.753906 114.863281 68.796875 M 85.480469 87.691406 C 85.484375 88.351562 85.53125 88.59375 85.585938 88.230469 C 85.640625 87.863281 85.640625 87.324219 85.582031 87.03125 C 85.523438 86.734375 85.480469 87.03125 85.480469 87.691406 M 171.363281 89.011719 C 171.363281 89.472656 171.410156 89.664062 171.472656 89.433594 C 171.53125 89.203125 171.53125 88.824219 171.472656 88.59375 C 171.410156 88.363281 171.363281 88.550781 171.363281 89.011719 M 171.367188 112.882812 C 171.371094 113.414062 171.417969 113.601562 171.476562 113.300781 C 171.535156 113.003906 171.53125 112.570312 171.472656 112.34375 C 171.410156 112.113281 171.363281 112.355469 171.367188 112.882812 M 85.472656 114.804688 C 85.476562 115.332031 85.527344 115.519531 85.582031 115.222656 C 85.640625 114.921875 85.636719 114.492188 85.578125 114.261719 C 85.519531 114.03125 85.472656 114.277344 85.472656 114.804688 M 9.171875 121.882812 C 9.171875 122.34375 9.222656 122.53125 9.28125 122.300781 C 9.34375 122.070312 9.34375 121.691406 9.28125 121.460938 C 9.222656 121.230469 9.171875 121.421875 9.171875 121.882812 M 246.699219 121.882812 C 246.699219 122.34375 246.75 122.53125 246.808594 122.300781 C 246.867188 122.070312 246.867188 121.691406 246.808594 121.460938 C 246.75 121.230469 246.699219 121.421875 246.699219 121.882812 M 92.191406 121.808594 C 92.421875 121.867188 92.800781 121.867188 93.03125 121.808594 C 93.261719 121.746094 93.074219 121.699219 92.609375 121.699219 C 92.148438 121.699219 91.960938 121.746094 92.191406 121.808594 M 111.007812 122.0625 C 120.53125 122.097656 136.1875 122.097656 145.796875 122.0625 C 155.40625 122.027344 147.613281 122 128.480469 122 C 109.347656 122 101.484375 122.027344 111.007812 122.0625 M 9.171875 134.117188 C 9.171875 134.578125 9.222656 134.769531 9.28125 134.539062 C 9.34375 134.308594 9.34375 133.929688 9.28125 133.699219 C 9.222656 133.46875 9.171875 133.65625 9.171875 134.117188 M 246.699219 134.117188 C 246.699219 134.578125 246.75 134.769531 246.808594 134.539062 C 246.867188 134.308594 246.867188 133.929688 246.808594 133.699219 C 246.75 133.46875 246.699219 133.65625 246.699219 134.117188 M 96.992188 137.890625 C 97.359375 137.945312 97.898438 137.941406 98.191406 137.886719 C 98.488281 137.828125 98.1875 137.785156 97.53125 137.785156 C 96.871094 137.789062 96.628906 137.835938 96.992188 137.890625 M 158.648438 137.886719 C 159.011719 137.945312 159.605469 137.945312 159.96875 137.886719 C 160.332031 137.832031 160.035156 137.789062 159.308594 137.789062 C 158.585938 137.789062 158.289062 137.832031 158.648438 137.886719 M 151.945312 145.035156 C 151.949219 145.828125 151.992188 146.121094 152.046875 145.691406 C 152.101562 145.257812 152.097656 144.609375 152.042969 144.25 C 151.988281 143.890625 151.945312 144.242188 151.945312 145.035156 M 109.003906 194.277344 C 119.539062 194.3125 136.707031 194.3125 147.152344 194.277344 C 157.601562 194.246094 148.980469 194.214844 128 194.214844 C 107.019531 194.214844 98.472656 194.246094 109.003906 194.277344 M 43.785156 212.09375 C 44.835938 213.148438 45.75 214.011719 45.8125 214.011719 C 45.878906 214.011719 45.074219 213.148438 44.027344 212.09375 C 42.976562 211.039062 42.0625 210.175781 42 210.175781 C 41.933594 210.175781 42.738281 211.039062 43.785156 212.09375 M 211.96875 212.152344 L 210.054688 214.132812 L 212.035156 212.21875 C 213.871094 210.441406 214.121094 210.175781 213.949219 210.175781 C 213.910156 210.175781 213.019531 211.066406 211.96875 212.152344 "/>
<path style=" stroke:none;fill-rule:evenodd;fill:rgb(36.078432%,36.078432%,36.078432%);fill-opacity:1;" d="M 122.78125 9.285156 C 123.078125 9.34375 123.5625 9.34375 123.859375 9.285156 C 124.15625 9.230469 123.914062 9.183594 123.320312 9.183594 C 122.726562 9.183594 122.484375 9.230469 122.78125 9.285156 M 132.140625 9.285156 C 132.4375 9.34375 132.921875 9.34375 133.21875 9.285156 C 133.515625 9.230469 133.273438 9.183594 132.679688 9.183594 C 132.085938 9.183594 131.84375 9.230469 132.140625 9.285156 M 112.523438 99.6875 C 111.941406 100.28125 111.519531 100.769531 111.585938 100.769531 C 111.652344 100.769531 112.183594 100.28125 112.765625 99.6875 C 113.347656 99.09375 113.769531 98.609375 113.703125 98.609375 C 113.636719 98.609375 113.109375 99.09375 112.523438 99.6875 M 107.125 105.148438 L 103.046875 109.285156 L 107.1875 105.210938 C 111.03125 101.421875 111.433594 101.007812 111.261719 101.007812 C 111.226562 101.007812 109.367188 102.871094 107.125 105.148438 M 9.175781 123.441406 C 9.179688 123.96875 9.230469 124.15625 9.285156 123.859375 C 9.34375 123.558594 9.34375 123.128906 9.28125 122.898438 C 9.222656 122.667969 9.175781 122.914062 9.175781 123.441406 M 246.703125 123.441406 C 246.707031 123.96875 246.753906 124.15625 246.8125 123.859375 C 246.871094 123.558594 246.867188 123.128906 246.808594 122.898438 C 246.746094 122.667969 246.699219 122.914062 246.703125 123.441406 M 9.175781 132.558594 C 9.179688 133.085938 9.230469 133.273438 9.285156 132.976562 C 9.34375 132.675781 9.34375 132.246094 9.28125 132.015625 C 9.222656 131.785156 9.175781 132.03125 9.175781 132.558594 M 246.703125 132.558594 C 246.707031 133.085938 246.753906 133.273438 246.8125 132.976562 C 246.871094 132.675781 246.867188 132.246094 246.808594 132.015625 C 246.746094 131.785156 246.699219 132.03125 246.703125 132.558594 M 122.785156 246.8125 C 123.082031 246.871094 123.515625 246.867188 123.742188 246.808594 C 123.972656 246.746094 123.730469 246.699219 123.203125 246.703125 C 122.675781 246.707031 122.484375 246.753906 122.785156 246.8125 M 132.382812 246.8125 C 132.679688 246.871094 133.113281 246.867188 133.339844 246.808594 C 133.570312 246.746094 133.324219 246.699219 132.796875 246.703125 C 132.269531 246.707031 132.082031 246.753906 132.382812 246.8125 "/>
</g>
</svg>
