<?xml version="1.0" encoding="UTF-8"?>
<svg version="1.1" xmlns="http://www.w3.org/2000/svg" width="512" height="512">
<path d="M0 0 C168.96 0 337.92 0 512 0 C512 168.96 512 337.92 512 512 C343.04 512 174.08 512 0 512 C0 343.04 0 174.08 0 0 Z " fill="#000000" transform="translate(0,0)"/>
<path d="M0 0 C15.42452077 12.76824322 22.685975 32.99891838 24.78759575 52.35558891 C25.18523232 57.30612335 25.129625 62.25739636 25.11352539 67.22094727 C25.11367142 68.41219711 25.11381744 69.60344696 25.1139679 70.83079529 C25.11339406 74.06984608 25.10840788 77.30885265 25.10139394 80.54789472 C25.09510695 83.94313693 25.0945524 87.33838018 25.09336853 90.73362732 C25.09027089 97.15070912 25.08207878 103.56777371 25.07201904 109.98484796 C25.05970763 118.01398387 25.05426292 126.04312262 25.04882812 134.07226562 C25.03911234 148.38152379 25.01907618 162.69074446 25 177 C4.54 177 -15.92 177 -37 177 C-37.04898438 169.27078125 -37.09796875 161.5415625 -37.1484375 153.578125 C-37.18384597 148.66535193 -37.21981869 143.75259585 -37.2578125 138.83984375 C-37.31799098 131.0516205 -37.37614283 123.26342088 -37.421875 115.47509766 C-37.45889919 109.19210549 -37.50530479 102.90924471 -37.55806351 96.62636566 C-37.57651673 94.23597277 -37.5916577 91.84555182 -37.60334396 89.45511627 C-37.62036249 86.09266362 -37.64943379 82.73050596 -37.68115234 79.36816406 C-37.68331253 78.39207687 -37.68547272 77.41598969 -37.68769836 76.4103241 C-37.83334705 64.22924579 -39.2247875 51.37131489 -47.8203125 42.01953125 C-54.73781792 36.34829705 -63.30189756 34.32746868 -72.125 34.578125 C-79.5634245 35.66963294 -86.45747124 38.94892699 -92 44 C-93.99245575 46.60045006 -93.99245575 46.60045006 -95.6875 49.4375 C-96.26886719 50.36433594 -96.85023438 51.29117188 -97.44921875 52.24609375 C-102.22899909 60.73411677 -102.15004341 69.40102049 -102.20532227 78.9140625 C-102.21522186 79.9783699 -102.22512146 81.04267731 -102.23532104 82.13923645 C-102.2667452 85.63446884 -102.29161759 89.12971479 -102.31640625 92.625 C-102.33699228 95.05737651 -102.35798917 97.48974957 -102.37937927 99.92211914 C-102.43442968 106.30724284 -102.48391374 112.69239792 -102.53222656 119.07757568 C-102.59142546 126.74777132 -102.65755928 134.41790994 -102.72252655 142.08805847 C-102.82032161 153.72533733 -102.90932439 165.36265368 -103 177 C-123.46 177 -143.92 177 -165 177 C-165 114.96 -165 52.92 -165 -11 C-144.21 -11 -123.42 -11 -102 -11 C-101.505 0.88 -101.505 0.88 -101 13 C-99.906875 11.535625 -98.81375 10.07125 -97.6875 8.5625 C-73.48738096 -21.57027608 -29.93781284 -21.96704809 0 0 Z " fill="#FDFDFD" transform="translate(381,210)"/>
<path d="M0 0 C20.79 0 41.58 0 63 0 C63 62.04 63 124.08 63 188 C42.21 188 21.42 188 0 188 C0 125.96 0 63.92 0 0 Z " fill="#FBFBFB" transform="translate(119,199)"/>
<path d="M0 0 C7.79989391 5.51448076 12.37588231 11.45546302 14.75390625 20.7109375 C14.93824219 21.38511719 15.12257813 22.05929688 15.3125 22.75390625 C17.03073909 30.37193973 15.31956512 38.20305088 11.5 44.9140625 C4.99694495 54.19907843 -3.23521258 58.45262236 -14.24609375 60.7109375 C-24.99624577 61.89651808 -34.39561595 59.75805585 -43.20703125 53.4375 C-50.26764884 47.4589694 -53.62452045 40.31137571 -54.6328125 31.2265625 C-55.09919471 21.06979431 -53.10307697 13.33159733 -46.3828125 5.5546875 C-34.34842315 -5.82854251 -14.47580565 -8.30785368 0 0 Z " fill="#FCFCFC" transform="translate(170.24609375,113.2890625)"/>
<path d="M0 0 C0.99 1.32 1.98 2.64 3 4 C4.65 3.34 6.3 2.68 8 2 C8.7421875 4.6640625 8.7421875 4.6640625 9 8 C7.3828125 10.7734375 7.3828125 10.7734375 5.125 13.375 C4.38507813 14.24898437 3.64515625 15.12296875 2.8828125 16.0234375 C2.26148438 16.67570312 1.64015625 17.32796875 1 18 C0.67 18 0.34 18 0 18 C0 12.06 0 6.12 0 0 Z " fill="#0B0B0B" transform="translate(279,206)"/>
<path d="M0 0 C2.6875 0.875 2.6875 0.875 5 2 C4.34 3.65 3.68 5.3 3 7 C1.02 5.35 -0.96 3.7 -3 2 C-2.01 1.34 -1.02 0.68 0 0 Z " fill="#E7E7E7" transform="translate(125,160)"/>
<path d="M0 0 C0.928125 0.20625 1.85625 0.4125 2.8125 0.625 C0.19735683 2.74538635 -2.38387616 4.75591744 -5.1875 6.625 C-5.5175 4.975 -5.8475 3.325 -6.1875 1.625 C-3.1875 -0.375 -3.1875 -0.375 0 0 Z " fill="#0D0D0D" transform="translate(129.1875,112.375)"/>
<path d="M0 0 C1.9375 0.8125 1.9375 0.8125 4 2 C4.33 2.99 4.66 3.98 5 5 C3.68 5.33 2.36 5.66 1 6 C0.34 4.35 -0.32 2.7 -1 1 C-0.67 0.67 -0.34 0.34 0 0 Z " fill="#080808" transform="translate(385,210)"/>
</svg>
