<?xml version="1.0" encoding="UTF-8"?> <svg xmlns="http://www.w3.org/2000/svg" xmlns:xlink="http://www.w3.org/1999/xlink" id="e6eb91a5-5749-4171-8ff4-42a59c366ed5" data-name="Layer 1" width="24" height="25" viewBox="0 0 24 25"><defs><clipPath id="a6d8cbba-6297-4d73-9503-c6e295042948"><circle cx="12.02649" cy="12.47627" r="11.17335" style="fill:none;stroke:#2e55a5;stroke-miterlimit:10;stroke-width:1.5px"></circle></clipPath></defs><title>24x25-AtlanticCity</title><g style="clip-path:url(#a6d8cbba-6297-4d73-9503-c6e295042948)"><path d="M15.62454,12.32071a.99285.99285,0,0,1,.09023-.54753.69636.69636,0,0,1,.43062-.24341V11.336H7.91332v.19375a.69984.69984,0,0,1,.43224.24341,1.00468,1.00468,0,0,1,.09264.54753Z" style="fill:#2e55a5"></path><rect x="8.47942" y="7.17807" width="0.48971" height="3.65733" style="fill:#2e55a5"></rect><rect x="15.08266" y="7.17807" width="0.49014" height="3.65733" style="fill:#2e55a5"></rect><rect x="11.2184" y="7.17807" width="0.48967" height="3.65733" style="fill:#2e55a5"></rect><rect x="12.22655" y="7.17807" width="0.49052" height="3.65733" style="fill:#2e55a5"></rect><polygon points="16.431 23.323 7.622 23.323 7.848 17.947 16.198 17.947 16.431 23.323" style="fill:#2e55a5"></polygon><polygon points="16.71 27.303 7.397 27.303 7.612 22.831 16.47 22.831 16.71 27.303" style="fill:#2e55a5"></polygon><polygon points="15.536 14.355 8.512 14.355 8.584 12.789 15.44 12.789 15.536 14.355" style="fill:#2e55a5"></polygon><path d="M12.3126,4.54514c.03449-.16661.29643-.40073.20072-.628-.102-.235-.26649-.13268-.33169-.2645-.06843-.13429-.02995-.32956-.17627-.32956-.14443,0-.09629.19527-.16338.32956-.06843.13182-.23256.02952-.33245.2645-.09865.22725.16982.46137.19854.628Z" style="fill:#2e55a5"></path><path d="M6.508,14.88493v.19575a.7355.7355,0,0,1,.461.241,4.51729,4.51729,0,0,1,.09828,1.08254l.004-.00758h.46019v.32828l.42461.677H8.95663l-.20949-.68024-.01336-.32505h.48005v.32828l.24057.677h1.25482l-.1043-.68024-.01174-.32505h.48042v.32828l.137.677h1.50928l.13343-.677v-.32828h.48559l-.0125.32505-.10747.68024H14.4898l.24261-.677v-.32828h.47819l-.011.32505-.20622.68024h.97687l.44579-.677v-.32828h.4602a3.76787,3.76787,0,0,1,.1014-1.075.84085.84085,0,0,1,.44522-.241v-.19575Z" style="fill:#2e55a5"></path><path d="M8.47942,6.68675a4.58946,4.58946,0,0,1,3.51912-1.64138,4.815,4.815,0,0,1,3.59,1.6374Z" style="fill:#2e55a5"></path><polygon points="7.998 10.669 2.203 14.005 2.202 13.43 7.998 10.072 7.998 10.669" style="fill:#2e55a5"></polygon><polygon points="2.191 4.578 7.991 7.925 7.991 7.343 2.203 4.002 2.191 4.578" style="fill:#2e55a5"></polygon><polygon points="16.053 10.669 21.844 14.005 21.851 13.43 16.05 10.072 16.053 10.669" style="fill:#2e55a5"></polygon><polygon points="21.862 4.578 16.059 7.925 16.059 7.343 21.844 4.002 21.862 4.578" style="fill:#2e55a5"></polygon><polyline points="22.398 0.081 22.4 26.704 0.699 26.704 0.697 0.081" style="fill:none"></polyline></g><circle cx="12.02649" cy="12.47627" r="11.17335" style="fill:none;stroke:#2e55a5;stroke-miterlimit:10;stroke-width:1.5px"></circle></svg> 