<?xml version="1.0" encoding="UTF-8"?> <svg xmlns="http://www.w3.org/2000/svg" xmlns:xlink="http://www.w3.org/1999/xlink" id="afa4efd4-ff16-47fa-b366-c09b63a50997" data-name="Layer 1" width="24" height="25" viewBox="0 0 24 25"><defs><clipPath id="b726aa7d-a633-4635-b6da-0af25014bac5"><circle cx="11.99075" cy="12.56874" r="10.79815" style="fill:none"></circle></clipPath></defs><title>24x25-NMandE</title><g style="clip-path:url(#b726aa7d-a633-4635-b6da-0af25014bac5)"><path d="M-15.5764,16.56319a8.239,8.239,0,0,1,2.80739-.86383c.59383,0,1.24164.05393,1.72761,0,.48591-.108.432,0,.91783-.64794A6.47759,6.47759,0,0,1-7.586,13.32375a9.24619,9.24619,0,0,1,3.1314-.1619c.32386.054,1.67361.1619,2.69949.216s3.23923-.05405,3.45533-.05405a6.88461,6.88461,0,0,0,.594-.70187A14.416,14.416,0,0,1,4.93956,9.92252,9.46078,9.46078,0,0,1,7.315,8.57279a1.55739,1.55739,0,0,1,.70194-.216V7.169a1.83235,1.83235,0,0,1,.75585.48585,3.21984,3.21984,0,0,1,.32394.216,2.04961,2.04961,0,0,0,.26975-.3238c.05419-.16211.10811-.378.16218-.21588.108.05377.05405.53968.05405.59381,0,.162.48571.53989.48571.53989a10.98351,10.98351,0,0,1,.8099.9177c.05393.2161.1619.05413.37787.2161.162.1079.05406.48582.05406.48582a4.27985,4.27985,0,0,0,.97181,1.61971c.1619.1619.1619.05405.43192.216.05378.108.26987.216.3238.48591a.723.723,0,0,1-.27.75586c0,.1619-.37786.37785-.64774.216a3.30693,3.30693,0,0,1-.80977-.378,3.24678,3.24678,0,0,0-.75587-.26995,3.21186,3.21186,0,0,0-.91775-.108A2.69509,2.69509,0,0,1,8.5568,12.244c-.162-.108-.216-.27-.32394-.162A13.6052,13.6052,0,0,1,7.369,13.9177a15.00727,15.00727,0,0,1-1.13371,1.67362,3.00544,3.00544,0,0,0-.27,1.5117,14.2284,14.2284,0,0,1-.5399,1.61976,7.89883,7.89883,0,0,1-.48583,1.13372,1.22383,1.22383,0,0,0-.162.648,6.30114,6.30114,0,0,0,.59381.86384c.32408.32353.594.70153.43193,1.02559a1.74288,1.74288,0,0,1-.7018.70194c-.1619.10811-.594.59381-1.18777,1.07979a2.60444,2.60444,0,0,1-1.18778.64788,5.11162,5.11162,0,0,1-1.51158-.21583,1.68272,1.68272,0,0,0-.756-.1623s-.216-.21569-.1619-.3238c0-.108.64788-.5399.80978-.70194.10811-.16176.21581-.05379.37785.0542.162.05391.2161.21581.32408.3238.05379.108.37772,0,.64775,0a4.96994,4.96994,0,0,0,1.02573-.108,5.87148,5.87148,0,0,0,.70193-.91789,5.95475,5.95475,0,0,0,.05407-.86382,3.07151,3.07151,0,0,0-.91777-.48584,3.1589,3.1589,0,0,1-1.02574-.75573.46311.46311,0,0,0-.59395-.21617,6.169,6.169,0,0,1-2.0516.1082,7.335,7.335,0,0,1-2.6995-.86391c-.32392-.27-.486-.162-.486-.162a2.22529,2.22529,0,0,0-.108.486c0,.21582-.05391,1.0258-.10784,1.51178a1.58413,1.58413,0,0,0,.53989,1.24155,8.72594,8.72594,0,0,0,1.07967.43219,7.836,7.836,0,0,1,1.29575.53963,2.05707,2.05707,0,0,1,.486.5399,3.49835,3.49835,0,0,1,.108,1.02588c0,.10783.1619.1619.21583.378a3.95484,3.95484,0,0,1,0,.80991s-1.18764-.80991-1.29576-.918c-.05378-.108,0-.26987,0-.3238a.944.944,0,0,0-.05378-.64775.93431.93431,0,0,0-.918-.59409c-.7018-.1619-2.15952-.48584-2.69936-.64774a2.068,2.068,0,0,1-.81-1.13371,5.79417,5.79417,0,0,0-1.07959-1.72767c-.432-.378-.48584-.27022-1.24176-.648a5.901,5.901,0,0,1-2.15966-1.78173,2.582,2.582,0,0,1-.27-1.45759.813.813,0,0,0-.43184-.216.67269.67269,0,0,0-.5939.216,9.88267,9.88267,0,0,1-.86377.70187c-.162.162-.21609.26988-.43191.32387-.05412,0-.16218-.108,0-.2161.1079-.10777.054-.16183,0-.21574-.108-.05407-.48591.108-.70186.21574-.27.10813-.27-.16183-.10813-.3238.16211-.05405.43207-.10791.32408-.216-.05412-.10805-.162-.05385-.702.05406a4.93978,4.93978,0,0,0-.75578.37793c-.216.10777-.216-.05406-.108-.216s.162-.10791.324-.26981c.216-.0542.48591-.10805.37792-.216-.108-.162-.432,0-.64793.108a12.44124,12.44124,0,0,0-1.56564.59389c-.162-.05406.32394-.48584.86383-.75586Zm10.204,7.07273a2.05239,2.05239,0,0,1-.43212-.378,2.52778,2.52778,0,0,1-.43172-.81,2.78831,2.78831,0,0,0-.486-.91762c-.1619-.1619,0,0,0-.0542-.1619-.1077-.10791-.05391,0,.21583a5.83089,5.83089,0,0,1,.162,1.026,2.79234,2.79234,0,0,1-.162.918.54541.54541,0,0,0-.1619.6476,3.45325,3.45325,0,0,0,1.02567.97195c.162.05393,1.18783.86369,1.5657,1.07979.26995.162.8639.43178,1.02587.53977.162.16217.43192.32421.43192.43177.05392.16232,0,.48625.05392.59409.162.10785.378.1619.70193.32394.32395,0,.75572.216.86384.1619a5.2898,5.2898,0,0,0-.37785-.86383,3.49324,3.49324,0,0,0-.594-1.0256,6.43771,6.43771,0,0,0-1.40366-.80991,6.704,6.704,0,0,1-1.56576-1.40387,1.06612,1.06612,0,0,1-.2159-.6476ZM7.53106,7.709V7.547a1.5258,1.5258,0,0,1-.32394-.16211c-.216-.05377-.648-.1619-.59381,0,.1077.16211.64774.16211.53975.32408a.49305.49305,0,0,1-.43205.16183,1.43092,1.43092,0,0,0-.91775-.3238c-.43193,0-.53977,0-.53977.162.05393.16183.53977.16183.53977.26989,0,.1619-.216.26994-.43193.21609a3.90243,3.90243,0,0,0-1.1337-.05419c-.162.108-.5399.108-.5399.32406.05391.1619.37786.108.5399.108s.43191.05391.32394.21588c0,.27-.486.27-1.02588.32395a2.23183,2.23183,0,0,0-1.18764.486c-.10825.162.10785.162.37786.1079.26988-.1079.70193-.1079.70193.05407a.56987.56987,0,0,1-.486.48582,3.4807,3.4807,0,0,1-.70206.216c-.37786.162-.75573.37793-.53963.43191.32394.162.70194-.216.80978,0,.1619.10792-.27015.59376-.48584.59376-.16217.05413-.54.27015-.486.378.162.21595.32381,0,.486-.10785.21569-.10812.32394,0,.5399-.216A12.803,12.803,0,0,1,4.72359,9.54447,9.60407,9.60407,0,0,1,6.99116,8.14074c.37786-.10792.4857-.1619.5399-.1619a.20885.20885,0,0,0,0-.26989ZM5.96529,18.83083s-.162.32388-.378.70166c-.1619.324-.3238.7018-.3238.7018s1.24157-.05392,1.56551-.05392a1.92046,1.92046,0,0,1,.70206.162c.26974.16217.32366.32407.32366.43177A5.36594,5.36594,0,0,1,7.6389,22.286a6.35543,6.35543,0,0,1-.59381.80991c-.05393.10811-.108.162-.21609.162a.46679.46679,0,0,0-.32394.16176,3.2665,3.2665,0,0,0-.32394,1.02574c.05419.21609,0,.48611.108.37813a3.12621,3.12621,0,0,0,.80978-.70193,3.82836,3.82836,0,0,1,.81019-.80992,2.03893,2.03893,0,0,0,.43178-1.24182,5.69016,5.69016,0,0,0,.26987-1.02561,3.13726,3.13726,0,0,0,.27-1.13378c-.05406-.216-.378-.432-.70194-.54a5.02993,5.02993,0,0,0-1.29562-.27c-.32407-.10778-.91789-.26968-.91789-.26968ZM8.34084,8.08688c.05392.108.1619.32387.1619.32387l.32394-.10792a.58431.58431,0,0,0-.1619-.37792.47153.47153,0,0,0-.32394-.216v.37793Zm1.56577,2.21358a.30251.30251,0,0,0,.32393-.27c0-.26987-.16216-.43184-.32393-.43184-.16232,0-.32394.162-.32394.43184a.30217.30217,0,0,0,.32394.27Z" style="fill:#00953b;fill-rule:evenodd"></path><path d="M28.99076,1.692l.15.29993L20.33315,7.37059c-.15.15008-.74991.45027-.9.60019a.28111.28111,0,0,1-.45,0c-.15,0-.15-.45011.15-.60019a2.5307,2.5307,0,0,0,.8997-.44974L28.99076,1.692ZM6.74691,4.37055l.14991-.42845,9.55756,4.02868a7.31953,7.31953,0,0,0,1.05011.4501c.14991,0,.14991.12862.14991.27853s-.14991.4501-.44992.3c-.14991-.15009-.7501-.44991-.9002-.57853L6.74691,4.37055Zm16.715,1.65017a1.49876,1.49876,0,0,1,.60013.75c0,.74992-1.65012,2.37876-4.92875,2.82867-3.12879.4501-5.3791-.44991-5.52882-1.32865a.55156.55156,0,0,1,.14972-.44991l-.87855-.30019c0,.30019-.14991.60021,0,.90021.15011,1.02863,1.17874,1.77855,2.82885,2.07855a.47886.47886,0,0,1,.44992-.44991c.3,0,.4501.14991.4501.6a16.95178,16.95178,0,0,0,2.67857-.1501,11.2385,11.2385,0,0,0,2.4004-.6c0-.3,0-.6.29982-.6.15-.14991.27872,0,.42862.3,1.65012-.9,2.5502-1.92864,2.40005-2.97875a1.51842,1.51842,0,0,0-.59989-1.04993c-.30007.14992-.45023.29994-.75017.45ZM18.38309,4.52063a11.17793,11.17793,0,0,0-4.62893,1.80009q.45028.225.9002.45a10.61682,10.61682,0,0,1,3.87877-1.5h0a7.911,7.911,0,0,1,3.3001.14991,6.10936,6.10936,0,0,1,1.02865-.75,10.93043,10.93043,0,0,0-4.47879-.15ZM26.312,17.65685c0,.15,0,.15-.15015.30019a.551.551,0,0,1,.15015.45021c.15.2997,0,.44974-.15015.44974a.32256.32256,0,0,1-.2997-.30019,13.50636,13.50636,0,0,1-1.5,1.3503,7.93477,7.93477,0,0,1-3.27913,1.20013c0,.29994-.14991.42851-.44973.42851a.74708.74708,0,0,1-.45022-.27872h-.29995a7.16862,7.16862,0,0,1-4.4789-1.04973.52382.52382,0,0,1-.14991.2998c-.3,0-.3-.15-.44991-.45,0-.15,0-.30006.14991-.30006-.14991-.15-.3-.29969-.3-.29969l.15009.8997s.59982,1.77867,5.07872,1.77867a13.4118,13.4118,0,0,0,5.229-1.62865C26.462,19.45737,26.462,18.707,26.462,18.707l-.15-1.0501Zm-.29994-.44986a.39938.39938,0,0,0,.14979-.27871L24.662,8.69941s-.29983.6-2.10035,1.65011l.60026.9-.9-.44992-.27872-.30019a14.07256,14.07256,0,0,1-5.52889.75011l-.1501.45-.9,1.05.30019-1.65012c-2.1-.44991-2.52885-1.04992-2.52885-1.04992L14.50426,18.707l.1501.15V18.5568l.74991-.9-.14991,1.50033-.15009.15a4.09131,4.09131,0,0,0,1.80021.90008,9.522,9.522,0,0,0,3.42867.44984l.15-.90007.45.75a12.28562,12.28562,0,0,0,2.67863-1.04972,10.01646,10.01646,0,0,0,2.25037-1.95032l-.45023-.30006-.6-1.32846.90018.59989.3.72857Zm-10.4577-.57853-.74992.87859.14991-1.32882.7501-.89995-.15009,1.35018Zm.15009-2.4-.60019.89969.15009-1.34992.75011-.74992-.3,1.20015Zm1.2-.60027-.6002-1.17879.3002-.89983.45009,1.05-.15009,1.02863Zm1.02864,2.10034-.57873-1.20027.1501-1.05009.57866,1.20026-.15,1.0501Zm.90007,1.92835-.4501-1.02839.15-1.05011.4501,1.19989-.15.87861Zm1.05,2.25025-.60012-1.3503.15015-.9L20.033,18.857l-.14979,1.05011Zm1.1999-.15-.44973-.90007.29982-1.50009.30006.9002-.15015,1.5Zm.30019-2.55007-.30019-.87861.15015-1.20026.45023.90007-.30019,1.1788Zm.45-2.22866-.45-.89994.15-1.32883.45.8786-.15,1.35017Zm.30008-2.3788-.30008-.9.15-1.05.42862.7501-.27858,1.1999Zm1.17878.27872-.60038-1.17867.90008.6.60026,1.02889-.9-.45022Zm1.05011,2.10008-.60038-1.20013.90021.6.60012,1.0501-.89995-.45Z" style="fill:#00953b;fill-rule:evenodd"></path></g><circle cx="12.05297" cy="12.50652" r="11.06751" style="fill:none;stroke:#00953b;stroke-miterlimit:10;stroke-width:1.5px"></circle></svg> 